<?xml version="1.0" encoding="UTF-8"?>
<svg width="816px" height="735px" viewBox="0 0 816 735" version="1.1" xmlns="http://www.w3.org/2000/svg" xmlns:xlink="http://www.w3.org/1999/xlink">
    <title>HERO_Mom_baby_desk</title>
    <defs>
        <polygon id="path-1" points="0.20152352 0.382533333 419.700455 0.382533333 419.700455 37.9436333 0.20152352 37.9436333"></polygon>
    </defs>
    <g id="Patient-PBD-ZSD-Layout-(DSK)" stroke="none" stroke-width="1" fill="none" fill-rule="evenodd">
        <g id="5.0-FAQs-Opened" transform="translate(-610.000000, -186.000000)">
            <g id="HERO_Mom_baby_desk" transform="translate(610.000000, 186.000000)">
                <rect id="Rectangle" x="0" y="0" width="816" height="735"></rect>
                <g id="Group-142" transform="translate(110.000000, 43.000000)">
                    <path d="M354.880242,688 L134.119758,688 C131.843857,688 130,686.160301 130,683.89238 L130,448.10762 C130,445.838424 131.843857,444 134.119758,444 L354.880242,444 C357.156143,444 359,445.838424 359,448.10762 L359,683.89238 C359,686.160301 357.156143,688 354.880242,688" id="Fill-1" fill="#6C4472"></path>
                    <path d="M224.880242,688 L4.11975797,688 C1.84385693,688 0,686.160301 0,683.89238 L0,448.10762 C0,445.838424 1.84385693,444 4.11975797,444 L224.880242,444 C227.156143,444 229,445.838424 229,448.10762 L229,683.89238 C229,686.160301 227.156143,688 224.880242,688" id="Fill-3" fill="#A05FA6"></path>
                    <path d="M42,512 C42,508.133861 45.1341447,505 48.9996924,505 C52.8658553,505 56,508.133861 56,512 C56,515.866139 52.8658553,519 48.9996924,519 C45.1341447,519 42,515.866139 42,512" id="Fill-5" fill="#6C4472"></path>
                    <path d="M159,512 C159,508.133861 162.134282,505 166,505 C169.866333,505 173,508.133861 173,512 C173,515.866139 169.866333,519 166,519 C162.134282,519 159,515.866139 159,512" id="Fill-7" fill="#6C4472"></path>
                    <path d="M42,621 C42,617.134194 45.1341447,614 48.9996924,614 C52.8658553,614 56,617.134194 56,621 C56,624.865806 52.8658553,628 48.9996924,628 C45.1341447,628 42,624.865806 42,621" id="Fill-9" fill="#6C4472"></path>
                    <path d="M159,621 C159,617.134194 162.134282,614 166,614 C169.866333,614 173,617.134194 173,621 C173,624.865806 169.866333,628 166,628 C162.134282,628 159,624.865806 159,621" id="Fill-11" fill="#6C4472"></path>
                    <path d="M261,512 C261,508.133861 263.014733,505 265.5,505 C267.984587,505 270,508.133861 270,512 C270,515.866139 267.984587,519 265.5,519 C263.014733,519 261,515.866139 261,512" id="Fill-13" fill="#A05FA6"></path>
                    <path d="M329,512 C329,508.133861 331.015413,505 333.5,505 C335.985267,505 338,508.133861 338,512 C338,515.866139 335.985267,519 333.5,519 C331.015413,519 329,515.866139 329,512" id="Fill-15" fill="#A05FA6"></path>
                    <path d="M261,621 C261,617.134194 263.014733,614 265.5,614 C267.984587,614 270,617.134194 270,621 C270,624.865806 267.984587,628 265.5,628 C263.014733,628 261,624.865806 261,621" id="Fill-17" fill="#A05FA6"></path>
                    <path d="M329,621 C329,617.134194 331.015413,614 333.5,614 C335.985267,614 338,617.134194 338,621 C338,624.865806 335.985267,628 333.5,628 C331.015413,628 329,624.865806 329,621" id="Fill-19" fill="#A05FA6"></path>
                    <path d="M12,445 C12,445 133.356072,424.75 342,445 L12,445 Z" id="Fill-21" fill="#864F8E"></path>
                    <path d="M340.327754,307 C340.327754,307 366.545704,313.954001 369.242123,317.95064 C371.937903,321.946025 377.217752,334.162853 376.99305,337.35214 C376.767072,340.542055 369.609816,331.041889 366.928079,328.614194 C365.191749,327.042116 358.903935,326.118802 355.810458,325.624864 C348.018676,324.381242 344.259393,320.880422 341.337634,319.137221 C339.379156,317.968818 337,318.186326 337,318.186326 L340.327754,307 Z" id="Fill-23" fill="#AC8457"></path>
                    <path d="M368,325 C368,325 369.541409,333.575197 370.718171,335.116144 C371.89555,336.65709 373,337 373,337 L372.81953,329.596463 L368,325 Z" id="Fill-25" fill="#AC8457"></path>
                    <path d="M370,319 L380,332.787258 C380,332.787258 378.939521,333.433174 377.327545,332.474049 C375.71497,331.516144 372.346707,327.74302 372.346707,327.74302 L370,319 Z" id="Fill-27" fill="#AC8457"></path>
                    <path d="M342,320 C342,320 344.348025,325.707329 349.032979,327.753644 C353.719166,329.799959 357.158908,332.872519 357.911583,331.76662 C358.664258,330.661338 354.363964,324.846568 354.363964,324.846568 L342,320 Z" id="Fill-29" fill="#AC8457"></path>
                    <path d="M230.054023,619.185966 C227.805771,621.748981 227.519185,624.613075 228.632041,627.67191 C228.633329,627.684722 228.640413,627.702018 228.653937,627.714189 C230.711561,633.37063 237.510412,639.687524 245.40795,645.99609 C246.41712,646.8058 247.314875,647.543124 248.096707,648.224715 C248.302148,648.404082 248.506944,648.584088 248.700148,648.763455 C248.859219,648.902463 249.01185,649.047238 249.165126,649.180481 C256.528777,655.932978 254.802821,655.280854 268.032792,668.982511 C283.118166,684.595699 292.460227,687.076078 295.414961,685.654601 C297.915022,684.441316 292.836331,676.160363 287.20894,666.853818 C286.935878,666.405403 286.668613,665.950581 286.389111,665.497041 C285.639479,664.259414 284.894355,663.00321 284.15052,661.759818 C277.55582,650.558398 279.249576,645.302968 280.812597,628.632159 C282.083236,615.086807 302,552.95307 302,552.95307 L273.089586,548 C273.089586,548 264.383811,597.475608 254.790584,605.095469 C249.661016,609.156192 243.919635,609.207439 238.989711,612.218229 C238.6413,612.427063 238.299973,612.641662 237.964441,612.862666 C235.162982,614.710138 232.308714,616.616545 230.054023,619.185966" id="Fill-31" fill="#AC8457"></path>
                    <path d="M460.934638,602.418405 C462.704737,611.214228 475.321566,609.747199 489.418483,606.32371 C503.51476,602.900855 499.458415,600.737448 519.520394,598.53024 C539.582373,596.323032 546.365731,595.121986 546.978335,592.157458 C547.525782,589.527472 537.612331,588.600026 526.980236,587.382475 C525.643239,587.233296 524.299215,587.068882 522.956469,586.905103 C510.951605,585.407604 502.160516,577.709355 491.256294,571.387358 C480.926988,565.399266 465.512877,541 465.512877,541 L438,543.165946 C438,543.165946 452.437394,564.958079 458.021735,574.432505 C461.306416,580.005436 461.132025,587.374857 460.721919,593.065861 C460.509839,596.158618 460.306703,599.319934 460.934638,602.418405" id="Fill-33" fill="#AC8457"></path>
                    <path d="M356,426.924348 L330.385439,495.852384 L296.946239,585.851043 C296.946239,585.851043 287.870929,586.727713 279.181127,584.227485 C271.180274,581.914933 262,575.864764 262,575.864764 C262,575.864764 271.285239,479.230641 288.606954,423.758665 C293.044733,409.520726 298.020695,398.003138 303.51003,391.520359 C330.362538,359.784006 356,426.924348 356,426.924348" id="Fill-35" fill="#035D72"></path>
                    <path d="M329.238584,316.798697 C312.425072,311.3722 264.470423,318.340105 216.298418,327.774773 L206.212733,311.12986 L102.163114,303 C102.163114,303 67.8285696,379.180131 86.6250533,427.720779 C89.388211,434.854495 94.8781941,439.43089 104.235961,439.581396 C104.239785,439.58586 105.751714,439.576931 105.755538,439.581396 C105.755538,439.581396 167.683415,439.545682 187.792319,439.545682 C239.536988,439.545682 297.303238,403.956818 304.776193,402.461964 C317.007388,400.014333 321.899484,424.48937 334.131317,450.188861 C346.362513,475.887713 449.10481,564 449.10481,564 C449.10481,564 464.895284,564.154858 471.419141,561.707226 C478.433801,559.075289 481,555.656386 481,555.656386 C481,555.656386 367.155354,329.036215 329.238584,316.798697" id="Fill-37" fill="#0081A3"></path>
                    <path d="M201.956562,8.71634612 C188.658888,1.73076813 168.425259,0.786083368 165.138201,0.343958179 C125.801606,-4.94436801 102.127027,52.2360963 100.734367,69.5616783 C98.1684397,101.497748 81.2803742,106.366215 57.5097718,126.366177 C9.84647092,166.468522 23.8239412,213.068517 49.8857549,230.383285 C65.5229704,240.771636 93.0861857,230.382012 93.0861857,230.382012 C93.4753673,230.654285 168.465322,188.445007 205.43058,168.084983 C260.846353,160.203704 235.842707,26.5171332 201.956562,8.71634612" id="Fill-39" fill="#E5B342"></path>
                    <path d="M175.226624,150.863943 C175.391511,150.968401 156.804907,157.205484 144.377125,151.795834 C132.686185,146.717284 123.828612,127.810416 124.002517,127.800286 C129.321441,127.559084 135.159503,122.988895 139.656564,93 L141.92184,93.7983111 L180,107.266408 C180,107.266408 177.241348,119.275894 175.456565,130.709912 C173.954539,140.309904 173.146846,149.505992 175.226624,150.863943" id="Fill-41" fill="#AC8457"></path>
                    <path d="M180,107.499949 C180,107.499949 177.319457,119.538402 175.585209,131 C154.333006,127.120661 145.992219,105.65071 143,94 L180,107.499949 Z" id="Fill-43" fill="#A46C35"></path>
                    <path d="M185.364533,118.986697 C185.364533,118.986697 133.484406,112.043797 138.317922,79.8981154 C143.15208,47.7517942 139.711022,25.2067156 173.03958,28.2800852 C206.368138,31.3534549 210.944457,44.5799436 211.948874,55.700605 C212.953291,66.8219059 198.984454,119.963831 185.364533,118.986697" id="Fill-45" fill="#AC8457"></path>
                    <path d="M209,38.8605587 C209,38.8605587 176.149275,67.2609239 153.804692,69.5502392 C131.459474,71.8395544 123,64.6444727 123,64.6444727 C123,64.6444727 136.171377,53.6733257 144.096662,35.9697971 C146.432629,30.7508966 151.367851,27.1702218 157.049161,26.6782449 C173.005046,25.2965092 203.250806,24.6664224 209,38.8605587" id="Fill-47" fill="#E5B342"></path>
                    <path d="M189,35.2806693 C189,35.2806693 199.768568,46.1524612 203.159778,54.2155933 C206.433492,61.9976647 207.414487,80.6080383 204.808446,88 C204.808446,88 221.586698,53.9358308 212.087581,37.3857037 C202.015283,19.8359611 189,35.2806693 189,35.2806693" id="Fill-49" fill="#E5B342"></path>
                    <path d="M218.990103,226.485297 C217.424492,330.954661 218.5598,309.124785 207.091458,319.038001 C204.328427,321.424268 196.559922,322.847096 186.334464,323.519589 C154.185969,325.646174 97.6722096,320.368951 95.5226159,314.447947 C88.1075743,293.964971 93.3422863,287.600529 87.155401,256.240259 C86.5099466,252.90459 85.7120932,249.294564 84.7752879,245.362965 C79.6174156,223.823397 74.5965744,216.496153 92.8972557,181.892092 C109.493374,150.546497 126.734947,125.105956 128.28583,126.024095 C172.072355,151.923386 175.602504,130.154761 175.602504,130.154761 C175.602504,130.154761 219.75786,175.528288 218.990103,226.485297" id="Fill-51" fill="#FFFFFF"></path>
                    <path d="M330,495.430485 L296.260291,585.850346 C296.260291,585.850346 287.103424,586.731119 278.335529,584.21919 C270.262775,581.895815 261,575.817969 261,575.817969 C261,575.817969 270.368682,478.73095 287.845422,423 L330,495.430485 Z" id="Fill-53" fill="#0081A3"></path>
                    <path d="M175,130 C175,130 219.89837,137.612385 225.170472,156.944869 C230.443211,176.276715 269,282.80671 269,282.80671 C269,282.80671 238.644258,294.027145 228.100055,283.482502 C217.555214,272.93722 191.409751,185.650369 191.409751,185.650369 L175,130 Z" id="Fill-55" fill="#FFFFFF"></path>
                    <path d="M185,323.524157 C153.233693,325.630523 97.3917824,320.403474 95.2677436,314.538765 C87.9408537,294.250535 93.1133342,287.946604 87,256.884498 L101.899275,223 C101.899275,223 99.7885232,261.778497 113.95764,274.400262 C128.111572,287.022027 171.968513,298.76535 178.856295,309.311716 C182.178704,314.372556 184.363484,319.448563 185,323.524157" id="Fill-57" fill="#E6E7E8"></path>
                    <path d="M187,308 C187,308 193.425675,316.248593 195.532067,317.233297 C197.63908,318.218618 199,317.97275 199,317.97275 L194.669573,310.215893 L187,308 Z" id="Fill-59" fill="#FF9490"></path>
                    <path d="M185,300 L204,308.829941 C204,308.829941 203.191516,310.09601 200.852328,309.99417 C198.51251,309.891727 192.611334,307.826004 192.611334,307.826004 L185,300 Z" id="Fill-61" fill="#FF9490"></path>
                    <path d="M260.584851,258 L345,307.608071 C345,307.608071 342.554276,317.884567 340.059169,318.799962 C326.863149,323.640469 249.321732,314.211585 229,283.677937 L260.584851,258 Z" id="Fill-63" fill="#FFFFFF"></path>
                    <path d="M165.488642,229 C165.488642,229 164.389197,241.096947 165.488642,244.232692 C166.588088,247.36908 198.121951,248.072563 198.916206,245.129263 C199.71046,242.185318 200.895207,233.256297 198.916206,231.688425 C196.937204,230.119909 165.488642,229 165.488642,229" id="Fill-65" fill="#A46C35"></path>
                    <path d="M186.716107,339 L179.498974,339 C161.625375,339 147,324.559462 147,306.908927 L147,276.161072 C147,258.510537 147.388654,242.827809 166.605171,237 L200.388506,239.518691 C229.573623,247.473155 219.214438,258.510537 219.214438,276.161072 L219.214438,306.908927 C219.214438,324.559462 204.59035,339 186.716107,339" id="Fill-67" fill="#A46C35"></path>
                    <path d="M177,270.853897 C177,270.853897 169.075668,268.814259 163.412869,271.95246 C155.245223,276.477847 145.472349,279.011806 143.764033,281.08037 C140.871806,284.582402 126.773716,299 126.773716,299 L120,294.459186 C120,294.459186 126.52464,267.826259 131.807102,263.070747 C137.090203,258.314592 146.552533,241.424744 162.499803,239.034132 C170.784624,237.792222 177,270.853897 177,270.853897" id="Fill-69" fill="#A46C35"></path>
                    <path d="M126.772293,297.362403 C126.772293,297.362403 129.222748,303.797317 127.199727,304.640279 C125.177341,305.483858 123.996505,300.799092 123.996505,300.799092 C123.996505,300.799092 118.727773,311.445108 113.372158,306.848035 C108.017178,302.251579 120.063347,293 120.063347,293 L126.772293,297.362403 Z" id="Fill-71" fill="#A46C35"></path>
                    <path d="M199.846553,225 C199.846553,225 200.334842,233.453726 199.569347,239.720282 C182.402295,244.38531 170.682084,235.175916 165,230.044081 L199.846553,225 Z" id="Fill-73" fill="#8E572A"></path>
                    <path d="M213.658827,295 C213.658827,295 232.309423,303.192003 242.150924,306.087787 C251.328282,308.790264 262.672675,315.237421 262.909506,316.281531 C263.145702,317.325005 263.26507,326.444753 258.616072,328.233475 C253.965804,330.021561 203.491604,337.247667 196,334.30292 C196,334.30292 201.383618,298.063019 213.658827,295" id="Fill-75" fill="#A46C35"></path>
                    <path d="M262,298 C262,298 253.140691,298.614097 247.930337,305.032783 C247.930337,305.032783 245.807999,307.826175 242.019283,306.624816 C242.019283,306.624816 228.076101,315.410022 236.960706,332 C236.960706,332 255.745552,330.843576 258.418712,328.359104 C261.091239,325.875881 262,298 262,298" id="Fill-77" fill="#FFFFFF"></path>
                    <path d="M258.26915,327.99262 C258.26915,327.99262 267.689816,325.829423 269.387365,316.679284 C271.084914,307.529146 269.335289,298.871427 263.127455,298.110919 C256.920256,297.349178 253.003763,300.605683 251.301769,304.969671 C249.601045,309.334275 244.607469,328.429574 258.26915,327.99262" id="Fill-79" fill="#A2CDFC"></path>
                    <path d="M186.657053,164.006357 C186.657053,164.006357 205.641001,163.151781 212.876368,181.259912 C220.111735,199.366758 221.533048,230.504436 204.749636,235.413262 C193.302877,238.761476 180.977569,236.399658 169.929392,232.153143 C164.096754,229.912213 162.11153,224.977665 158.778045,221.07581 C137.367357,196.010185 144.281679,166.244715 186.657053,164.006357" id="Fill-81" fill="#A46C35"></path>
                    <path d="M148.28985,290 C148.28985,290 185.157995,297.894124 219.317118,290 C219.317118,290 223.221705,296.650213 223.726401,298.635285 C224.799118,302.851428 222.866455,309.771672 215.268784,318.580231 C204.093913,331.537901 165.914952,341.206511 152.524358,332.919673 C140.787799,325.656675 138.143369,300.927698 148.28985,290" id="Fill-83" fill="#A5C3FF"></path>
                    <path d="M189.284707,306.134829 C196.146011,308.504604 206.089259,314.008719 215.033934,318.958902 C223.375661,323.573959 233,332.277177 233,333.336 C233,334.394193 231.104297,343.214359 226.181809,343.92045 C221.259955,344.625284 170.513442,340.535237 163.867703,336.053476 C163.867703,336.053476 156.184717,333.871698 155.19185,325.172882 C153.747565,312.521087 160.012262,296.023201 189.284707,306.134829" id="Fill-85" fill="#A46C35"></path>
                    <path d="M236,315.159118 C236,315.159118 227.226026,313.804713 220.708289,318.998919 C220.708289,318.998919 218.013954,321.291914 214.588823,319.26537 C214.588823,319.26537 199.027172,324.86653 203.969526,343.240868 C203.969526,343.240868 222.542232,346.256001 225.704378,344.391479 C228.866523,342.526957 236,315.159118 236,315.159118" id="Fill-87" fill="#FFFFFF"></path>
                    <path d="M226.03739,344 C226.03739,344 235.623429,343.91272 239.328798,335.316523 C243.033538,326.719707 243.298297,317.86105 237.475485,315.77808 C231.65393,313.693872 227.136046,316.038064 224.507322,319.945877 C221.879226,323.85307 212.745982,341.481247 226.03739,344" id="Fill-89" fill="#A2CDFC"></path>
                    <path d="M180,203.146889 C179.378986,204.735889 164,203.146889 164,203.146889" id="Stroke-91" stroke="#035D72"></path>
                    <path d="M164.76412,173.340262 C164.76412,173.340262 173.809598,185.43286 192.827056,184.988021 C192.827056,184.988021 200.298246,183.925665 203.467186,179.170085 C203.467186,179.170085 197.467835,181.538177 194.298259,180.535883 C194.298259,180.535883 212.224406,177.844329 211.997871,173.131294 C211.771973,168.418259 202.363784,163.136507 195.498384,162.327539 C190.033553,161.683743 173.513067,161.79073 168.510851,164.486038 C163.508634,167.18072 163.360369,171.766748 164.76412,173.340262" id="Fill-93" fill="#7D4921"></path>
                    <path d="M171.705417,164 C171.705417,164 151.068625,167.344842 147.396571,183.761474 C145.920028,190.366526 149.042096,200 149.042096,200 C149.042096,200 148.626285,180.458947 165.125845,179.639789 C177.133754,179.044211 185,177.826526 185,177.826526 L171.705417,164 Z" id="Fill-95" fill="#7D4921"></path>
                    <path d="M196,276.853255 C196,276.853255 203.924332,274.813617 209.587771,277.952461 C217.754777,282.477204 227.527651,285.011806 229.235326,287.079728 C232.128835,290.581759 246.226284,305 246.226284,305 L253,300.459186 C253,300.459186 246.47536,273.82626 241.192258,269.070104 C235.909797,264.313949 226.447467,247.424745 210.500197,245.034132 C202.216016,243.792222 196,276.853255 196,276.853255" id="Fill-97" fill="#A46C35"></path>
                    <path d="M245.227734,304.362482 C245.227734,304.362482 242.777225,310.796897 244.80029,311.640491 C246.823355,312.484086 248.003582,307.798617 248.003582,307.798617 C248.003582,307.798617 253.272428,318.444828 258.627525,313.848288 C263.983256,309.251131 251.936825,300 251.936825,300 L245.227734,304.362482 Z" id="Fill-99" fill="#A46C35"></path>
                    <path d="M175,262.5 C175,263.328141 174.328736,264 173.499617,264 C172.671264,264 172,263.328141 172,262.5 C172,261.671093 172.671264,261 173.499617,261 C174.328736,261 175,261.671093 175,262.5" id="Fill-101" fill="#8E572A"></path>
                    <path d="M206,262.5 C206,263.328141 205.328141,264 204.5,264 C203.671859,264 203,263.328141 203,262.5 C203,261.671093 203.671859,261 204.5,261 C205.328141,261 206,261.671093 206,262.5" id="Fill-103" fill="#8E572A"></path>
                    <path d="M169.453961,206.389156 C169.453961,206.389156 162.680005,200.094847 160.524441,204.661845 C158.369466,209.230094 163.296302,215.916235 167.298397,215.99935 C171.301082,216.081216 172.117897,208.401435 169.453961,206.389156" id="Fill-105" fill="#8E572A"></path>
                    <path d="M169.735257,205.607005 C169.735257,205.607005 164.192492,200.76515 162.429373,204.278486 C160.665622,207.792451 164.69615,212.936528 167.971506,212.999491 C171.246863,213.063083 171.914194,207.154635 169.735257,205.607005" id="Fill-107" fill="#A46C35"></path>
                    <path d="M149,303.786736 C149,303.786736 180.628637,296.902792 185.731925,299.645633 C190.835852,302.390346 203.30864,312.382926 204.869894,315.859855 C206.431148,319.337407 193.508182,313.220011 189.30461,312.118879 C186.581835,311.404767 179.41667,313.839241 175.869527,314.99468 C160.942154,319.859258 151.794931,317.35612 151.794931,317.35612 L149,303.786736 Z" id="Fill-109" fill="#AC8457"></path>
                    <path d="M127.861508,127 C127.861508,127 85.6398112,129.60195 71.0233388,149.995851 C50.4489272,178.703671 9.63275819,301.0512 33.0245736,317.369116 C59.3677432,335.744711 152.917229,322.176086 152.917229,322.176086 C152.917229,322.176086 156.030467,307.618631 151.698978,300.576791 C147.36749,293.535585 76.9793736,282.160549 73.7302811,278.910811 C70.4818234,275.661073 105.824433,228.666569 102.059854,219.673108 C89.9998673,190.859864 127.861508,127 127.861508,127" id="Fill-111" fill="#FFFFFF"></path>
                    <path d="M254,655.289349 C254,655.289349 270.968138,639.803936 283.28741,648.820361 C288.991547,652.995308 303.566895,684.943795 291.09705,687.892817 C286.253511,689.038554 277.258816,681.185829 254,655.289349" id="Fill-113" fill="#0081A3"></path>
                    <path d="M218.42319,628.778177 C217.899215,628.015824 217.842414,626.986712 218.361922,626.149768 C219.069065,625.013193 220.571425,624.659198 221.718937,625.359601 C230.246139,630.56332 251.078142,649.621499 281.960769,680.472118 C282.902137,681.412732 283.49121,682.00188 283.65587,682.159281 C284.597239,683.003179 290.724749,684.896417 289.928894,685.899612 C289.096022,686.949585 287.603235,687.397136 286.543159,686.573466 C286.378499,686.445775 281.873333,684.075277 280.024422,682.228184 C239.308166,641.552953 223.842919,632.331396 219.159692,629.474787 C218.858454,629.289572 218.610826,629.051258 218.42319,628.778177" id="Fill-115" fill="#035D72"></path>
                    <path d="M500.666504,607 C500.666504,607 496.221105,584.892121 510.291511,578.899794 C516.806331,576.124473 551.622569,579.602502 547.691498,591.66378 C546.165085,596.347875 534.80717,600.093157 500.666504,607" id="Fill-117" fill="#0081A3"></path>
                    <path d="M458.593504,622.995426 C457.662139,623.052543 456.740357,622.572128 456.279146,621.697606 C455.653126,620.510846 456.115614,619.044849 457.310802,618.42418 C466.193896,613.80724 493.40596,605.789312 536.004061,595.234131 C537.302094,594.912373 538.114642,594.711829 538.336304,594.651539 C539.551294,594.28028 544.331403,590.01556 544.795169,591.210571 C545.280654,592.461428 544.905042,593.967407 543.647892,594.449727 C543.451781,594.525248 539.088167,597.158332 536.538094,597.789789 C480.375164,611.705342 464.452539,620.187819 459.574694,622.722535 C459.259768,622.88627 458.926316,622.975118 458.593504,622.995426" id="Fill-119" fill="#035D72"></path>
                    <polygon id="Fill-121" fill="#0081A3" points="394 342 546.212085 342 592 229 440.02259 229"></polygon>
                    <polygon id="Fill-123" fill="#035D72" points="547 338 347 338 347 343 545.224546 343"></polygon>
                    <path d="M507.707303,285 C508.849527,281.134108 506.547321,278 502.566978,278 C498.586001,278 494.433785,281.134108 493.292196,285 C492.15124,288.865892 494.452812,292 498.433155,292 C502.413498,292 506.565713,288.865892 507.707303,285" id="Fill-125" fill="#FFFFFF"></path>
                    <path d="M662.056594,692 L662.485894,692 C665.019568,692 667.056419,689.802738 666.998807,687.132816 L660.156029,374.47844 L640,372 L657.188718,687.154445 C657.336155,689.873987 659.472122,692 662.056594,692" id="Fill-127" fill="#7A9C49"></path>
                    <path d="M308.943912,692 L308.514003,692 C305.980387,692 303.943582,689.802738 304.001193,687.132816 L310.844434,374.47844 L331,372 L313.811676,687.154445 C313.663624,689.873987 311.528324,692 308.943912,692" id="Fill-129" fill="#7A9C49"></path>
                    <g id="Group-133" transform="translate(273.000000, 342.000000)">
                        <mask id="mask-2" fill="white">
                            <use xlink:href="#path-1"></use>
                        </mask>
                        <g id="Clip-132"></g>
                        <path d="M400.80122,37.9436333 L19.1002489,37.9436333 C8.66270713,37.9436333 0.20152352,29.5355 0.20152352,19.1627667 C0.20152352,8.7913 8.66270713,0.382533333 19.1002489,0.382533333 L400.80122,0.382533333 C411.238762,0.382533333 419.700583,8.7913 419.700583,19.1627667 C419.700583,29.5355 411.238762,37.9436333 400.80122,37.9436333" id="Fill-131" fill="#7A9C49" mask="url(#mask-2)"></path>
                    </g>
                    <path d="M194,203 C194,206.866253 190.866253,210 187,210 C183.133747,210 180,206.866253 180,203 C180,199.133747 183.133747,196 187,196 C190.866253,196 194,199.133747 194,203 Z" id="Stroke-134" stroke="#035D72" stroke-width="2"></path>
                    <path d="M213,198 C213,201.866253 209.866396,205 206.000319,205 C202.134243,205 199,201.866253 199,198 C199,194.133747 202.134243,191 206.000319,191 C209.866396,191 213,194.133747 213,198 Z" id="Stroke-136" stroke="#035D72" stroke-width="2"></path>
                    <path d="M193,200 C193,200 196.292087,198.29599 199,199.336722" id="Stroke-138" stroke="#035D72"></path>
                    <line x1="212" y1="195" x2="215" y2="193" id="Stroke-140" stroke="#035D72"></line>
                </g>
            </g>
        </g>
    </g>
</svg>