<?xml version="1.0" encoding="UTF-8"?>
<svg width="816px" height="735px" viewBox="0 0 816 735" version="1.1" xmlns="http://www.w3.org/2000/svg" xmlns:xlink="http://www.w3.org/1999/xlink">
    <title>HERO_stroller_park_bench</title>
    <defs>
        <polygon id="path-1" points="0.401850797 0.608122723 51.6505988 0.608122723 51.6505988 61 0.401850797 61"></polygon>
        <polygon id="path-3" points="0 605.332331 801 605.332331 801 0.332330827 0 0.332330827"></polygon>
    </defs>
    <g id="Patient-PBD-ZSD-Layout-(DSK)" stroke="none" stroke-width="1" fill="none" fill-rule="evenodd">
        <g id="4.3-Gloassary" transform="translate(-494.000000, -186.000000)">
            <g id="HERO_stroller_park_bench" transform="translate(494.000000, 186.000000)">
                <rect id="Rectangle" x="0" y="0" width="816" height="735"></rect>
                <g id="Group-273" transform="translate(400.500000, 363.500000) scale(-1, 1) translate(-400.500000, -363.500000) translate(0.000000, 60.000000)">
                    <path d="M110.811144,199.332331 C114.214873,199.332331 117,201.858738 117,204.945953 L117,508.718709 C117,511.805923 114.214873,514.332331 110.811144,514.332331 L94.1895639,514.332331 C90.7851268,514.332331 88,511.805923 88,508.718709 L88,204.945953 C88,201.858738 90.7851268,199.332331 94.1895639,199.332331 L110.811144,199.332331 Z" id="Fill-1" fill="#C99C8B"></path>
                    <path d="M113.709451,199.332331 L111,199.332331 L111,514.332331 L113.709451,514.332331 C116.068796,514.332331 118,511.805923 118,508.718709 L118,204.945953 C118,201.858738 116.068796,199.332331 113.709451,199.332331" id="Fill-3" fill="#966F60"></path>
                    <path d="M58.8111439,363.332331 C62.2148732,363.332331 65,364.703765 65,366.379808 L65,531.285546 C65,532.960897 62.2148732,534.332331 58.8111439,534.332331 L42.1895639,534.332331 C38.7851268,534.332331 36,532.960897 36,531.285546 L36,366.379808 C36,364.703765 38.7851268,363.332331 42.1895639,363.332331 L58.8111439,363.332331 Z" id="Fill-5" fill="#C99C8B"></path>
                    <path d="M57.709805,363.332331 L54,363.332331 L54,534.332331 L57.709805,534.332331 C61.1692684,534.332331 64,532.960897 64,531.285546 L64,366.379808 C64,364.703765 61.1692684,363.332331 57.709805,363.332331" id="Fill-7" fill="#966F60"></path>
                    <path d="M604.811144,363.332331 C608.215581,363.332331 611,364.703856 611,366.379934 L611,531.285419 C611,532.960806 608.215581,534.332331 604.811144,534.332331 L588.189564,534.332331 C584.785127,534.332331 582,532.960806 582,531.285419 L582,366.379934 C582,364.703856 584.785127,363.332331 588.189564,363.332331 L604.811144,363.332331 Z" id="Fill-9" fill="#C99C8B"></path>
                    <path d="M593,363.332331 L588.975126,363.332331 C585.688944,363.332331 583,364.703856 583,366.379934 L583,531.285419 C583,532.960806 585.688944,534.332331 588.975126,534.332331 L593,534.332331 L593,363.332331 Z" id="Fill-11" fill="#966F60"></path>
                    <path d="M552.811144,199.332331 C556.214873,199.332331 559,201.858738 559,204.945953 L559,508.718709 C559,511.805923 556.214873,514.332331 552.811144,514.332331 L536.189564,514.332331 C532.785127,514.332331 530,511.805923 530,508.718709 L530,204.945953 C530,201.858738 532.785127,199.332331 536.189564,199.332331 L552.811144,199.332331 Z" id="Fill-13" fill="#C99C8B"></path>
                    <path d="M536,199.332331 L535.736934,199.332331 C532.581456,199.332331 530,201.858738 530,204.945953 L530,508.718709 C530,511.805923 532.581456,514.332331 535.736934,514.332331 L536,514.332331 L536,199.332331 Z" id="Fill-15" fill="#966F60"></path>
                    <path d="M617,221.435711 C617,225.778239 612.332905,229.332331 606.628294,229.332331 L45.3717063,229.332331 C39.6670946,229.332331 35,225.778239 35,221.435711 L35,200.22827 C35,195.885742 39.6670946,192.332331 45.3717063,192.332331 L606.628294,192.332331 C612.332905,192.332331 617,195.885742 617,200.22827 L617,221.435711 Z" id="Fill-17" fill="#E8C8BC"></path>
                    <path d="M615,196.332331 C613.223412,193.951378 609.827463,192.332331 605.951523,192.332331 L45.0484767,192.332331 C41.172537,192.332331 37.7765878,193.951378 36,196.332331 L615,196.332331 Z" id="Fill-19" fill="#F2D8CE"></path>
                    <path d="M642.958697,370.694818 C648.109465,375.445758 646.558287,379.332331 639.512634,379.332331 L13.4280926,379.332331 C6.38243976,379.332331 4.89626898,375.515453 10.1272582,370.850609 L18.0159274,363.814053 C23.2455335,359.149208 33.290499,355.332331 40.3361518,355.332331 L613.491852,355.332331 C620.537504,355.332331 630.516771,359.219587 635.667539,363.969844 L642.958697,370.694818 Z" id="Fill-21" fill="#C99C8B"></path>
                    <path d="M652,400.308206 C652,405.271679 646.675326,409.332331 640.16616,409.332331 L11.8324558,409.332331 C5.32467428,409.332331 0,405.271679 0,400.308206 L0,381.357136 C0,376.393663 5.32467428,372.332331 11.8324558,372.332331 L640.16616,372.332331 C646.675326,372.332331 652,376.393663 652,381.357136 L652,400.308206 Z" id="Fill-23" fill="#E8C8BC"></path>
                    <path d="M617,331.435711 C617,335.77892 612.332905,339.332331 606.628294,339.332331 L45.3717063,339.332331 C39.6670946,339.332331 35,335.77892 35,331.435711 L35,310.22895 C35,305.885742 39.6670946,302.332331 45.3717063,302.332331 L606.628294,302.332331 C612.332905,302.332331 617,305.885742 617,310.22895 L617,331.435711 Z" id="Fill-25" fill="#E8C8BC"></path>
                    <path d="M615,306.332331 C613.223412,303.951378 609.827463,302.332331 605.951523,302.332331 L45.0484767,302.332331 C41.172537,302.332331 37.7765878,303.951378 36,306.332331 L615,306.332331 Z" id="Fill-27" fill="#F2D8CE"></path>
                    <path d="M617,277.435711 C617,281.77892 612.332905,285.332331 606.628294,285.332331 L45.3717063,285.332331 C39.6670946,285.332331 35,281.77892 35,277.435711 L35,256.22895 C35,251.885742 39.6670946,248.332331 45.3717063,248.332331 L606.628294,248.332331 C612.332905,248.332331 617,251.885742 617,256.22895 L617,277.435711 Z" id="Fill-29" fill="#E8C8BC"></path>
                    <path d="M615,251.332331 C613.223412,248.951378 609.827463,247.332331 605.951523,247.332331 L45.0484767,247.332331 C41.172537,247.332331 37.7765878,248.951378 36,251.332331 L615,251.332331 Z" id="Fill-31" fill="#F2D8CE"></path>
                    <path d="M108,210.332331 C108,213.0939 105.537816,215.332331 102.499284,215.332331 C99.4621843,215.332331 97,213.0939 97,210.332331 C97,207.570761 99.4621843,205.332331 102.499284,205.332331 C105.537816,205.332331 108,207.570761 108,210.332331" id="Fill-33" fill="#966F60"></path>
                    <path d="M108,266.332331 C108,269.0939 105.537816,271.332331 102.499284,271.332331 C99.4621843,271.332331 97,269.0939 97,266.332331 C97,263.570761 99.4621843,261.332331 102.499284,261.332331 C105.537816,261.332331 108,263.570761 108,266.332331" id="Fill-35" fill="#966F60"></path>
                    <path d="M108,321.332331 C108,324.0939 105.537816,326.332331 102.499284,326.332331 C99.4621843,326.332331 97,324.0939 97,321.332331 C97,318.570761 99.4621843,316.332331 102.499284,316.332331 C105.537816,316.332331 108,318.570761 108,321.332331" id="Fill-37" fill="#966F60"></path>
                    <path d="M550,210.332331 C550,213.0939 547.537816,215.332331 544.5,215.332331 C541.462184,215.332331 539,213.0939 539,210.332331 C539,207.570761 541.462184,205.332331 544.5,205.332331 C547.537816,205.332331 550,207.570761 550,210.332331" id="Fill-39" fill="#966F60"></path>
                    <path d="M550,266.332331 C550,269.0939 547.537816,271.332331 544.5,271.332331 C541.462184,271.332331 539,269.0939 539,266.332331 C539,263.570761 541.462184,261.332331 544.5,261.332331 C547.537816,261.332331 550,263.570761 550,266.332331" id="Fill-41" fill="#966F60"></path>
                    <path d="M550,321.332331 C550,324.0939 547.537816,326.332331 544.5,326.332331 C541.462184,326.332331 539,324.0939 539,321.332331 C539,318.570761 541.462184,316.332331 544.5,316.332331 C547.537816,316.332331 550,318.570761 550,321.332331" id="Fill-43" fill="#966F60"></path>
                    <path d="M234.889417,244.078765 C242.952676,239.993686 251.283416,236.192321 260.214257,233.819937 C267.093944,231.993478 279.902578,230.049094 294.873933,239.874373 C296.458728,240.914198 417.284949,289.067359 428.622434,317.782228 C428.676484,317.918883 429.429037,319.519202 429.276586,319.668343 L453,337.820552 L444.611744,352.332331 L419.799,338.101493 C418.715214,338.914485 416.923918,338.685571 416.923918,338.685571 C385.753978,336.54002 329.476787,315.283594 289.246422,289.919198 C288.448828,289.41628 280.885192,284.276807 277.854194,282.165246 C277.330318,282.672326 255.23189,295.311863 232.637997,312.803689 C207.413636,329.974342 197.071239,334.267525 171.58494,330.095736 C118.873017,316.84368 106.155161,273.231346 105,271.896707 C105.295893,271.621316 223.317713,250.288585 234.889417,244.078765" id="Fill-45" fill="#2C2536"></path>
                    <path d="M71.9973031,294.527487 C72.133155,294.653911 94.0136273,294.16065 119.115037,293.332331 C135.020799,294.52196 148.626088,299.780648 158.676356,301.312245 C180.131251,304.581308 227.873488,319.244426 236.793967,322.687581 C249.171738,327.466134 270.901803,337.776948 285.033866,349.279465 C285.887099,349.974451 288.780883,352.614158 288.958322,356.520869 C289.331221,361.415483 287.057088,377.872717 287.877052,381.268895 C287.877052,381.268895 290.730634,452.896756 259.372413,519.536049 C258.549678,521.283879 257.566831,523.109774 255.678074,523.915986 C253.782385,524.726344 252.627644,525.876595 251.344675,525.53601 L249.967442,558.350306 L231.434056,560.332331 L227.509599,526.075558 C225.07189,524.456224 222.393667,521.902873 221.999973,519.983024 C210.42761,463.624148 225.405974,389.02014 227.299583,379.506558 C225.547371,379.465107 162.187712,376.61193 97.0002896,364.071079 C62.2423054,353.011392 59.0650346,317.25342 71.9973031,294.527487" id="Fill-47" fill="#3C3446"></path>
                    <path d="M251.762786,218.102944 C250.820644,219.714935 252.118707,224.114795 251,224.36411 C253.610083,224.975119 261.257488,225.068147 263.888508,224.976608 C267.421193,224.85381 271.105319,225.001167 274.642191,225.602501 C277.797322,226.139832 289.925137,227.940112 284.717532,222.63081 C281.500988,219.352498 276.632554,218.629855 272.147259,218.029265 C268.905591,217.595382 265.661132,217.173406 262.413881,216.816178 C260.895287,216.649472 258.710214,216.2915 257.230702,216.336153 C254.72879,216.412808 253.023861,215.946923 251.762786,218.102944" id="Fill-49" fill="#E38A7B"></path>
                    <path d="M175.048884,179.928992 C171.565404,166.437264 153.8387,130.863829 135.417797,153.922156 C126.057548,165.638148 138.326361,180.083704 143.602553,190.728453 C163.072038,230.00462 171.543212,258.822521 220.366027,244.680173 C230.661122,241.69782 252.903936,240.936 258.218965,231.019918 C269.996082,209.050792 241.282164,211.202949 229.613234,214.914659 C190.914912,227.223254 184.971567,217.664944 175.048884,179.928992" id="Fill-51" fill="#0081A3"></path>
                    <path d="M273.984358,114.013058 C271.280352,112.458137 268.426238,113.658572 267.641959,116.681685 L229.17993,264.888567 C228.395651,267.91168 230.249276,269.855503 233.299632,269.207792 L284.527022,258.3378 C287.57669,257.690777 290.831551,254.721353 291.758363,251.739539 L323.719622,149.008071 C324.647811,146.026257 323.194933,142.314133 320.490927,140.758524 L273.984358,114.013058 Z" id="Fill-53" fill="#FFFFFF"></path>
                    <path d="M273.937003,181.419906 C270.984187,183.212386 270.109943,182.281282 271.99447,179.350631 L307.817745,123.633748 C309.701581,120.702393 312.99208,120.550965 315.127969,123.296382 L328.748493,140.797179 C330.885763,143.542596 330.217305,147.25574 327.264488,149.04822 L273.937003,181.419906 Z" id="Fill-55" fill="#7A9C49"></path>
                    <path d="M273.895864,184.425562 C270.984408,186.206987 270.12241,185.281626 271.98054,182.36835 L307.302025,126.995803 C309.159474,124.082527 311.16876,122.994073 314.509852,126.660517 L325.766891,140.70192 C327.872862,143.430404 327.214448,147.120648 324.302311,148.902072 L273.895864,184.425562 Z" id="Fill-57" fill="#FFFFFF"></path>
                    <path d="M277.404753,111.039269 C274.615894,109.424259 271.671294,110.671653 270.86227,113.810636 L231.185637,267.717441 C230.376613,270.85712 232.288225,272.875187 235.435425,272.203193 L288.279717,260.914804 C291.426917,260.24281 294.784298,257.15942 295.740793,254.062827 L328.710934,147.379765 C329.668119,144.283172 328.169288,140.429109 325.37974,138.814099 L277.404753,111.039269 Z" id="Fill-59" fill="#7A9C49"></path>
                    <path d="M73.0237413,295.027259 C77.1843828,296.499712 92.1281638,302.151849 125.476827,306.08832 C141.975065,308.036115 160.05193,298.214685 160.29708,280.499527 C160.29708,268.196756 156.525225,255.744314 159.248115,243.496284 C161.032529,235.472285 164.466008,230.059205 171.821884,216.772489 C183.388812,195.881684 173.048324,171.499262 165.325759,151.236934 C163.955682,148.061981 153.921113,126.964686 152.24995,127.649982 C142.301701,136.360663 132.603436,127.516942 129.534575,124.395343 C128.174166,123.766173 119.293527,127.999906 115.889742,130.354444 C69.5688552,162.395696 66.6256761,235.226299 69.9866457,287.146695 C70.1938146,290.359066 69.077865,292.801605 73.0237413,295.027259" id="Fill-61" fill="#0081A3"></path>
                    <path d="M143.92824,251.123915 C143.504654,254.859098 144.824423,262.478931 142.65608,262.330184 C141.749395,262.054968 141.052752,261.26381 140.683777,260.369896 C140.315501,259.4767 140.237085,258.485058 140.242686,257.514974 C140.255289,255.612171 140.573154,253.70362 140.343507,251.815908 C140.241986,250.987384 140.036144,250.170358 140.002537,249.336085 C139.946526,247.95138 140.818904,245.790607 142.513251,246.456732 C144.135483,247.094832 144.081571,249.775138 143.92824,251.123915" id="Fill-63" fill="#035D72"></path>
                    <path d="M86.9282401,211.123915 C86.5046535,214.859098 87.8251235,222.478931 85.65608,222.330184 C84.7493946,222.054968 84.0527521,221.26381 83.6837767,220.369896 C83.3155014,219.4767 83.2370853,218.485058 83.2426865,217.514255 C83.2552891,215.612171 83.5731541,213.70362 83.3435071,211.815908 C83.2426865,210.987384 83.0361443,210.170358 83.0025374,209.336085 C82.9465259,207.95138 83.8189043,205.790607 85.5132508,206.456732 C87.1354825,207.09555 87.0815715,209.775138 86.9282401,211.123915" id="Fill-65" fill="#035D72"></path>
                    <path d="M163.92824,210.123706 C163.504654,213.858726 164.824423,221.478226 162.65608,221.330205 C161.749395,221.054282 161.052752,220.263159 160.683777,219.370002 C160.315501,218.476126 160.237085,217.484528 160.242686,216.514486 C160.255289,214.611766 160.573154,212.703299 160.343507,210.815669 C160.241986,209.987181 160.036144,209.17019 160.002537,208.335954 C159.946526,206.951309 160.818904,204.790631 162.513251,205.456726 C164.135483,206.095517 164.081571,208.774988 163.92824,210.123706" id="Fill-67" fill="#035D72"></path>
                    <path d="M136.92824,150.123706 C136.504654,153.859445 137.824423,161.478226 135.656081,161.330205 C134.749396,161.054282 134.052053,160.263877 133.683078,159.370002 C133.315503,158.476126 133.237087,157.484528 133.242688,156.514486 C133.254591,154.612485 133.573156,152.703299 133.343509,150.815669 C133.241988,149.987181 133.036146,149.17019 133.002539,148.335954 C132.946528,146.951309 133.818206,144.790631 135.513251,145.456726 C137.135482,146.095517 137.081571,148.774988 136.92824,150.123706" id="Fill-69" fill="#035D72"></path>
                    <path d="M142.928241,191.123706 C142.503961,194.859445 143.824411,202.478226 141.655401,202.330205 C140.748729,202.054282 140.052098,201.263159 139.683128,200.370002 C139.314858,199.476126 139.237144,198.484528 139.242045,197.514486 C139.254647,195.611766 139.572507,193.703299 139.342864,191.815669 C139.242045,190.987181 139.035505,190.17019 139.002599,189.335954 C138.945889,187.951309 139.818253,185.790631 141.513274,186.456726 C143.13548,187.095517 143.08157,189.774988 142.928241,191.123706" id="Fill-71" fill="#035D72"></path>
                    <path d="M162.92824,171.123706 C162.503954,174.859445 163.824423,182.478226 161.65538,182.330205 C160.748696,182.054282 160.052053,181.263877 159.683078,180.370002 C159.314803,179.476126 159.237087,178.484528 159.241988,177.514486 C159.254591,175.612485 159.572456,173.703299 159.342809,171.815669 C159.241988,170.987181 159.036146,170.17019 159.002539,169.335954 C158.946528,167.951309 159.818206,165.790631 161.513251,166.456726 C163.135482,167.095517 163.081571,169.774988 162.92824,171.123706" id="Fill-73" fill="#035D72"></path>
                    <path d="M107.92824,240.123706 C107.504654,243.858726 108.825124,251.478226 106.65608,251.330205 C105.749395,251.054282 105.052752,250.263159 104.683777,249.370002 C104.315501,248.476126 104.237085,247.484528 104.242686,246.514486 C104.255289,244.611766 104.573154,242.703299 104.343507,240.815669 C104.241986,239.987181 104.036144,239.17019 104.002537,238.335954 C103.946526,236.951309 104.818904,234.790631 106.513251,235.456726 C108.135483,236.095517 108.081571,238.774988 107.92824,240.123706" id="Fill-75" fill="#035D72"></path>
                    <path d="M136.92824,283.123706 C136.504654,286.858726 137.824423,294.478226 135.656081,294.330205 C134.749396,294.054282 134.052053,293.263159 133.683078,292.370002 C133.315503,291.476126 133.237087,290.484528 133.242688,289.514486 C133.254591,287.611766 133.573156,285.703299 133.343509,283.815669 C133.241988,282.987181 133.036146,282.17019 133.002539,281.335954 C132.946528,279.951309 133.818206,277.790631 135.513251,278.456726 C137.135482,279.095517 137.081571,281.774988 136.92824,283.123706" id="Fill-77" fill="#035D72"></path>
                    <path d="M86.9282401,275.123706 C86.5046535,278.859445 87.8251235,286.478226 85.65608,286.330205 C84.7493946,286.054282 84.0527521,285.263159 83.6837767,284.370002 C83.3155014,283.476126 83.2370853,282.484528 83.2426865,281.514486 C83.2552891,279.611766 83.5731541,277.703299 83.3435071,275.815669 C83.2426865,274.987181 83.0361443,274.17019 83.0025374,273.335954 C82.9465259,271.951309 83.8189043,269.790631 85.5132508,270.456726 C87.1354825,271.095517 87.0815715,273.774988 86.9282401,275.123706" id="Fill-79" fill="#035D72"></path>
                    <path d="M138.616085,145.332331 C138.644776,145.332331 138.673467,145.332331 138.702158,145.332331 C146.943281,145.273261 153.47388,143.754808 158.668302,140.692189 C158.985951,140.504554 159.094567,140.090367 158.910125,139.766523 C158.725,139.442679 158.317863,139.333573 158.000213,139.520513 C153.012093,142.462906 146.695993,143.920899 138.691911,143.977885 C136.146617,143.989699 133.457185,143.080017 130.864073,142.193963 C129.640611,141.775607 128.375478,141.343351 127.150649,141.020202 C123.636695,140.094537 120.24297,136.096523 118.238021,132.663499 C118.050164,132.341739 117.640977,132.236803 117.325377,132.427218 C117.009777,132.618327 116.905943,133.033209 117.093117,133.354968 C119.234006,137.020104 122.911908,141.30235 126.816605,142.331562 C127.996348,142.642202 129.182922,143.048049 130.440541,143.477525 C133.108796,144.389292 135.867905,145.332331 138.616085,145.332331" id="Fill-81" fill="#035D72"></path>
                    <path d="M127.702982,140.332331 C127.953466,140.332331 128.195287,140.19245 128.322333,139.947282 L131.264613,134.255025 C131.58656,133.631577 131.920057,132.987071 132.287481,132.38844 C132.478051,132.077092 132.688832,131.761983 132.874349,131.482973 C133.095958,131.15132 133.016554,130.694826 132.698217,130.463195 C132.379157,130.232316 131.940269,130.315042 131.71866,130.647447 C131.526646,130.936234 131.307203,131.263375 131.102196,131.598789 C130.705898,132.244047 130.360851,132.91337 130.025911,133.560884 L127.084353,139.252389 C126.90028,139.60886 127.027326,140.052569 127.369485,140.244341 C127.47632,140.303753 127.590373,140.332331 127.702982,140.332331" id="Fill-83" fill="#035D72"></path>
                    <path d="M153.26045,140.332331 C153.435069,140.332331 153.611965,140.274413 153.75242,140.157164 C154.057623,139.905008 154.084195,139.469916 153.812397,139.185977 C153.441142,138.799621 153.149605,138.359584 152.945377,137.877875 C152.863382,137.683638 152.793534,137.480218 152.719891,137.264085 C152.635618,137.016874 152.548309,136.761187 152.435186,136.504087 C152.166425,135.88959 151.789096,135.352082 151.423915,134.830819 C151.121749,134.399259 150.835526,133.991007 150.622187,133.560859 C150.559932,133.435135 150.502231,133.305172 150.443772,133.17521 C150.170456,132.563538 149.859938,131.87064 149.138686,131.441199 C148.794763,131.236366 148.337717,131.328894 148.117545,131.648856 C147.896615,131.968818 147.996071,132.394728 148.340754,132.59956 C148.67177,132.797329 148.869166,133.238072 149.077949,133.704948 C149.144,133.85045 149.209293,133.995951 149.278381,134.136509 C149.537272,134.658478 149.866011,135.128885 150.184881,135.583048 C150.526526,136.070407 150.849191,136.531633 151.065567,137.023937 C151.155913,137.230182 151.230316,137.44914 151.310033,137.680813 C151.387473,137.90966 151.468709,138.14557 151.568925,138.383599 C151.838445,139.01646 152.221847,139.594935 152.707743,140.102071 C152.85503,140.254636 153.056981,140.332331 153.26045,140.332331" id="Fill-85" fill="#035D72"></path>
                    <path d="M145.091396,142.332331 C145.538704,142.332331 145.921853,142.054353 145.966132,141.68347 C146.151381,140.12694 145.543223,138.679537 144.955848,137.280061 C144.748008,136.785305 144.551012,136.31783 144.387451,135.843719 C144.105511,135.031167 143.916648,134.167002 143.733206,133.332331 L142,133.585239 C142.190671,134.453828 142.387667,135.353386 142.693102,136.23451 C142.870218,136.746226 143.082576,137.254254 143.289513,137.746062 C143.840741,139.058531 144.361245,140.298003 144.213046,141.544849 C144.166959,141.939327 144.521191,142.290302 145.004646,142.328644 C145.034466,142.331593 145.063383,142.332331 145.091396,142.332331" id="Fill-87" fill="#035D72"></path>
                    <path d="M134.929283,141.332331 C135.401801,141.332331 135.805729,141.070827 135.852409,140.721231 L136.995599,132.072879 C137.045137,131.701779 136.670743,131.371605 136.16107,131.335535 C135.654256,131.299466 135.19698,131.572068 135.147441,131.943861 L134.004251,140.592213 C133.955666,140.963312 134.329108,141.293487 134.83878,141.329556 C134.870218,141.331637 134.89975,141.332331 134.929283,141.332331" id="Fill-89" fill="#035D72"></path>
                    <path d="M211.026841,238.036156 C210.670992,240.246237 213.991095,244.558904 212.857907,245.332331 C216.012868,244.851643 224.529744,241.556466 227.406937,240.28545 C231.270832,238.57769 235.416642,237.103852 239.594237,236.20062 C243.322011,235.394741 262.056927,231.626313 254.013364,228.041101 C249.046684,225.827639 235.605276,229.385809 230.376719,230.712263 C226.597813,231.670258 226.035364,230.825167 222.282715,231.872403 C220.527656,232.36188 217.952417,232.935189 216.332787,233.643037 C213.591715,234.83901 211.501536,235.079691 211.026841,238.036156" id="Fill-91" fill="#FA9F8F"></path>
                    <path d="M139.04897,190.928864 C135.565492,177.437187 117.838796,141.863888 99.4179006,164.922127 C90.0576558,176.638074 102.325769,191.083575 107.602653,201.728974 C127.072129,241.0043 135.5433,269.822091 184.366092,255.680488 C194.661182,252.698146 216.903293,251.93633 222.219013,242.019595 C233.996125,220.050553 205.281527,222.202701 193.613295,225.914397 C154.914991,238.222945 148.971648,228.665362 139.04897,190.928864" id="Fill-93" fill="#0081A3"></path>
                    <path d="M163.926794,254.332331 C164.338808,254.332331 164.752214,254.324312 165.165621,254.306269 C167.82005,254.193333 170.443161,253.69548 172.981364,253.215001 L197.453758,248.575277 C197.820534,248.505778 198.059947,248.162961 197.986871,247.81012 C197.915186,247.457279 197.558153,247.226061 197.190681,247.297565 L172.718287,251.937289 C170.230194,252.40908 167.657193,252.89691 165.105071,253.005836 C160.513061,253.200968 155.925923,252.193233 151.48981,251.218911 C149.72135,250.829984 147.71626,250.389601 146.22758,249.291651 C145.267142,248.582628 144.539853,247.631695 143.769414,246.623959 C143.323298,246.040569 142.861174,245.436463 142.346156,244.87713 C141.352311,243.798559 140.177513,242.906433 139.04169,242.04371 C138.726416,241.803805 138.411141,241.564568 138.100043,241.321322 C131.683895,236.306704 126.792618,229.370172 124.3261,221.789438 C124.213353,221.445953 123.833353,221.255499 123.476321,221.361752 C123.118592,221.468674 122.919545,221.834211 123.0309,222.177028 C125.576062,229.999672 130.623237,237.157398 137.243304,242.330393 C137.559274,242.577649 137.87942,242.820896 138.200262,243.06481 C139.340261,243.930874 140.416927,244.748156 141.330735,245.740521 C141.805387,246.25508 142.248024,246.834461 142.676741,247.395131 C143.468755,248.430933 144.287912,249.502152 145.401464,250.324111 C147.124686,251.595809 149.283585,252.069605 151.187063,252.488603 C155.319733,253.3961 159.581157,254.332331 163.926794,254.332331" id="Fill-95" fill="#035D72"></path>
                    <g id="Group-99" transform="translate(218.000000, 545.332331)">
                        <mask id="mask-2" fill="white">
                            <use xlink:href="#path-1"></use>
                        </mask>
                        <g id="Clip-98"></g>
                        <path d="M31.671952,8.07787241 C27.7705653,8.79374598 23.7027787,7.6648954 20.2721653,5.83138966 C18.3024053,4.77896437 15.4340853,0.706688506 13.4650187,0.610631034 C9.361872,0.409401149 2.21568533,12.3724126 1.06960533,16.1424931 C-1.87082133,25.8246655 5.570032,28.4392517 10.3484853,34.1031368 C15.2364853,39.8960333 15.687152,48.4164011 21.5201653,53.4534586 C27.104272,58.2766655 38.0901387,62.3882057 45.4200587,60.5547 C53.0883253,58.6363552 53.085552,50.8704241 48.6225653,45.8375736 C44.1262987,40.7661598 38.286352,37.712654 34.8037387,31.4338609 C32.8624053,27.933723 31.5506187,23.9000103 31.6476853,19.6503437 C31.6941387,17.6107 35.1816053,7.43421724 31.671952,8.07787241" id="Fill-97" fill="#0081A3" mask="url(#mask-2)"></path>
                    </g>
                    <path d="M259.110731,603.246911 C258.750388,603.383737 258.35288,603.331572 257.97557,603.260593 C257.769544,603.221256 257.559479,603.175077 257.386579,603.051079 C257.073097,602.826172 256.952713,602.377212 257.016541,601.982127 C257.080368,601.586188 257.298513,601.236427 257.545744,600.93199 C257.687942,600.754971 257.845491,600.585649 258.03859,600.473623 C258.574256,600.162344 259.29979,600.391528 259.670636,600.90548 C260.041482,601.420287 260.083495,602.145463 259.875045,602.754338 C259.875045,602.754338 259.471074,603.10923 259.110731,603.246911" id="Fill-100" fill="#035D72"></path>
                    <path d="M266.110519,601.246932 C265.750202,601.384614 265.352723,601.330738 264.97544,601.259759 C264.770237,601.221277 264.559379,601.175098 264.386492,601.051098 C264.07384,600.826189 263.952657,600.377227 264.01648,599.982139 C264.081111,599.586197 264.298432,599.236433 264.545645,598.931994 C264.687833,598.754974 264.846178,598.585651 265.038455,598.473624 C265.574083,598.162343 266.300372,598.391528 266.671192,598.905484 C267.042011,599.420294 267.083213,600.145476 266.874779,600.7535 C266.874779,600.7535 266.470836,601.10925 266.110519,601.246932" id="Fill-102" fill="#035D72"></path>
                    <path d="M260.110731,592.246641 C259.750388,592.384327 259.35288,592.331305 258.97557,592.259469 C258.770352,592.220985 258.559479,592.17566 258.386579,592.050802 C258.073097,591.825886 257.952713,591.37691 258.016541,590.98181 C258.080368,590.585856 258.298513,590.236082 258.545744,589.931633 C258.687942,589.754608 258.845491,589.58528 259.03859,589.47325 C259.574256,589.162815 260.29979,589.391151 260.670636,589.905122 C261.041482,590.419948 261.083495,591.145152 260.875045,591.75405 C260.875045,591.75405 260.471074,592.10981 260.110731,592.246641" id="Fill-104" fill="#035D72"></path>
                    <path d="M255.110384,596.24727 C254.750012,596.384112 254.352471,596.331086 253.975131,596.260099 C253.769897,596.221612 253.559007,596.175427 253.386093,596.051414 C253.073394,595.826479 252.952192,595.377464 253.016833,594.982331 C253.080666,594.586342 253.298828,594.236538 253.545271,593.931208 C253.68748,593.755023 253.84585,593.58568 254.038156,593.473641 C254.573866,593.162324 255.300266,593.391535 255.671142,593.90555 C256.042018,594.419565 256.083226,595.145686 255.87476,595.753781 C255.87476,595.753781 255.470755,596.109572 255.110384,596.24727" id="Fill-106" fill="#035D72"></path>
                    <path d="M255.110858,589.24727 C254.750494,589.384112 254.352153,589.331086 253.974821,589.260099 C253.769591,589.221612 253.558705,589.176283 253.386602,589.051414 C253.073101,588.826479 252.95271,588.377464 253.016542,587.982331 C253.080373,587.586342 253.298531,587.236538 253.544969,586.931208 C253.687984,586.755023 253.845542,586.58568 254.038652,586.473641 C254.574351,586.162324 255.299929,586.391535 255.670797,586.90555 C256.041666,587.42042 256.083681,588.145686 255.874411,588.753781 C255.874411,588.753781 255.471223,589.109572 255.110858,589.24727" id="Fill-108" fill="#035D72"></path>
                    <path d="M240.110858,589.24727 C239.750494,589.384112 239.352961,589.331086 238.974821,589.260099 C238.769591,589.221612 238.559513,589.175427 238.386602,589.051414 C238.073101,588.826479 237.95271,588.377464 238.016542,587.982331 C238.080373,587.586342 238.298531,587.236538 238.544969,586.931208 C238.687984,586.755023 238.845542,586.58568 239.038652,586.473641 C239.574351,586.162324 240.299929,586.391535 240.670797,586.90555 C241.041666,587.42042 241.083681,588.145686 240.874411,588.753781 C240.874411,588.753781 240.471223,589.109572 240.110858,589.24727" id="Fill-110" fill="#035D72"></path>
                    <path d="M249.110858,603.246563 C248.750494,603.384246 248.352153,603.331225 247.974821,603.260246 C247.769591,603.220908 247.558705,603.175584 247.386602,603.050729 C247.073101,602.825819 246.95271,602.376855 247.016542,601.981766 C247.080373,601.585822 247.298531,601.236058 247.544969,600.931617 C247.687176,600.754597 247.845542,600.585273 248.037844,600.473246 C248.574351,600.162819 249.299929,600.39115 249.670797,600.905107 C250.041666,601.419919 250.083681,602.145104 249.874411,602.753985 C249.874411,602.753985 249.471223,603.109736 249.110858,603.246563" id="Fill-112" fill="#035D72"></path>
                    <path d="M241.11119,598.246563 C240.750818,598.384246 240.352469,598.331225 239.975129,598.260246 C239.769894,598.220908 239.559004,598.175584 239.386897,598.050729 C239.07339,597.825819 238.952188,597.376855 239.016829,596.981766 C239.080662,596.585822 239.298824,596.236058 239.545267,595.931617 C239.687477,595.754597 239.845847,595.585273 240.038153,595.473246 C240.573864,595.162819 241.300265,595.39115 241.671141,595.905107 C242.042018,596.419919 242.083226,597.145104 241.87476,597.753985 C241.87476,597.753985 241.470755,598.108881 241.11119,598.246563" id="Fill-114" fill="#035D72"></path>
                    <path d="M233.110135,580.246563 C232.750613,580.384246 232.352311,580.331225 231.975014,580.260246 C231.769804,580.220908 231.558938,580.175584 231.386852,580.051584 C231.073381,579.825819 230.952194,579.376855 231.016827,578.981766 C231.080652,578.585822 231.298789,578.236058 231.545204,577.931617 C231.687397,577.754597 231.845748,577.585273 232.038032,577.473246 C232.574488,577.162819 233.299995,577.39115 233.670829,577.905107 C234.041662,578.419919 234.083673,579.145104 233.874423,579.753985 C233.874423,579.753985 233.470466,580.109736 233.110135,580.246563" id="Fill-116" fill="#035D72"></path>
                    <path d="M247.110731,595.246563 C246.750388,595.384246 246.35288,595.331225 245.97557,595.260246 C245.770352,595.220908 245.559479,595.175584 245.386579,595.050729 C245.073097,594.825819 244.952713,594.376855 245.016541,593.981766 C245.080368,593.585822 245.298513,593.236913 245.545744,592.931617 C245.687942,592.754597 245.845491,592.585273 246.03859,592.473246 C246.574256,592.162819 247.300597,592.39115 247.670636,592.905107 C248.041482,593.419919 248.083495,594.145104 247.875045,594.753985 C247.875045,594.753985 247.471074,595.109736 247.110731,595.246563" id="Fill-118" fill="#035D72"></path>
                    <path d="M244.110519,584.24727 C243.750202,584.384112 243.352723,584.331086 242.97544,584.260099 C242.770237,584.221612 242.559379,584.175427 242.386492,584.051414 C242.07384,583.826479 241.952657,583.377464 242.01648,582.981475 C242.081111,582.586342 242.298432,582.236538 242.545645,581.931208 C242.687833,581.755023 242.846178,581.58568 243.038455,581.473641 C243.574083,581.162324 244.300372,581.391535 244.671192,581.90555 C245.042011,582.42042 245.083213,583.145686 244.874779,583.753781 C244.874779,583.753781 244.470836,584.109572 244.110519,584.24727" id="Fill-120" fill="#035D72"></path>
                    <path d="M236.110858,574.246562 C235.750494,574.384246 235.352153,574.331225 234.974821,574.260245 C234.769591,574.220907 234.558705,574.175583 234.386602,574.051582 C234.073101,573.825815 233.95271,573.376847 234.016542,572.981755 C234.080373,572.585808 234.298531,572.23604 234.544969,571.931597 C234.687984,571.754575 234.845542,571.58525 235.038652,571.473221 C235.574351,571.162792 236.299929,571.391124 236.670797,571.905941 C237.041666,572.419903 237.083681,573.145094 236.874411,573.75398 C236.874411,573.75398 236.471223,574.109734 236.110858,574.246562" id="Fill-122" fill="#035D72"></path>
                    <path d="M230.110519,565.246641 C229.750202,565.384327 229.352723,565.331305 228.97544,565.259469 C228.770237,565.220985 228.559379,565.17566 228.386492,565.050802 C228.07384,564.825886 227.952657,564.37691 228.01648,563.98181 C228.081111,563.585856 228.29924,563.236082 228.545645,562.931633 C228.687833,562.754608 228.846178,562.58528 229.038455,562.47325 C229.574083,562.162815 230.300372,562.391151 230.671192,562.905122 C231.042011,563.419948 231.083213,564.145152 230.874779,564.75405 C230.874779,564.75405 230.470836,565.10981 230.110519,565.246641" id="Fill-124" fill="#035D72"></path>
                    <path d="M221.110731,562.24727 C220.750388,562.384112 220.35288,562.331086 219.97557,562.260099 C219.770352,562.221612 219.559479,562.175427 219.386579,562.051414 C219.073097,561.826479 218.952713,561.377464 219.016541,560.981475 C219.080368,560.586342 219.298513,560.236538 219.545744,559.931208 C219.687942,559.754168 219.845491,559.58568 220.03859,559.473641 C220.574256,559.162324 221.29979,559.391535 221.670636,559.90555 C222.041482,560.419565 222.083495,561.145686 221.875045,561.753781 C221.875045,561.753781 221.471074,562.109572 221.110731,562.24727" id="Fill-126" fill="#035D72"></path>
                    <path d="M226.110731,572.24727 C225.750388,572.384112 225.35288,572.331086 224.974762,572.260099 C224.769544,572.221612 224.559479,572.176283 224.386579,572.051414 C224.073097,571.826479 223.952713,571.377464 224.016541,570.982331 C224.080368,570.586342 224.298513,570.236538 224.545744,569.931208 C224.687942,569.755023 224.845491,569.58568 225.03859,569.473641 C225.574256,569.162324 226.29979,569.391535 226.670636,569.90555 C227.041482,570.42042 227.083495,571.145686 226.875045,571.753781 C226.875045,571.753781 226.471074,572.109572 226.110731,572.24727" id="Fill-128" fill="#035D72"></path>
                    <path d="M245.110858,574.24727 C244.750494,574.384112 244.352153,574.331086 243.974821,574.260099 C243.769591,574.221612 243.558705,574.175427 243.386602,574.051414 C243.073101,573.826479 242.95271,573.377464 243.016542,572.981475 C243.080373,572.586342 243.298531,572.236538 243.544969,571.931208 C243.687984,571.754168 243.845542,571.58568 244.038652,571.473641 C244.574351,571.162324 245.299929,571.391535 245.670797,571.90555 C246.041666,572.42042 246.083681,573.145686 245.874411,573.753781 C245.874411,573.753781 245.471223,574.109572 245.110858,574.24727" id="Fill-130" fill="#035D72"></path>
                    <path d="M237.110858,562.246563 C236.750494,562.384246 236.352153,562.331225 235.974821,562.260246 C235.769591,562.220908 235.558705,562.175584 235.386602,562.050729 C235.073101,561.825819 234.95271,561.376855 235.016542,560.981766 C235.080373,560.585822 235.298531,560.236913 235.544969,559.931617 C235.687176,559.754597 235.845542,559.585273 236.037844,559.473246 C236.574351,559.162819 237.299929,559.39115 237.670797,559.905107 C238.041666,560.419919 238.083681,561.145104 237.874411,561.75313 C237.874411,561.75313 237.470415,562.109736 237.110858,562.246563" id="Fill-132" fill="#035D72"></path>
                    <path d="M232.110731,555.24727 C231.750388,555.384112 231.35288,555.331086 230.97557,555.260099 C230.769544,555.221612 230.559479,555.175427 230.386579,555.051414 C230.073097,554.826479 229.952713,554.377464 230.016541,553.981475 C230.080368,553.586342 230.298513,553.236538 230.545744,552.931208 C230.687942,552.755023 230.845491,552.58568 231.03859,552.473641 C231.574256,552.162324 232.29979,552.391535 232.670636,552.90555 C233.041482,553.419565 233.083495,554.145686 232.875045,554.753781 C232.875045,554.753781 232.471074,555.109572 232.110731,555.24727" id="Fill-134" fill="#035D72"></path>
                    <path d="M245.110858,556.24727 C244.750494,556.384112 244.352153,556.331086 243.974821,556.260099 C243.769591,556.221612 243.558705,556.176283 243.386602,556.051414 C243.073101,555.826479 242.95271,555.377464 243.016542,554.982331 C243.080373,554.586342 243.298531,554.236538 243.544969,553.932063 C243.687176,553.755023 243.845542,553.58568 244.037844,553.473641 C244.574351,553.162324 245.299929,553.391535 245.670797,553.90555 C246.041666,554.42042 246.083681,555.145686 245.874411,555.753781 C245.874411,555.753781 245.471223,556.109572 245.110858,556.24727" id="Fill-136" fill="#035D72"></path>
                    <path d="M250,562.908971 C249.982772,562.966274 249.965544,563.023577 249.951943,563.084301 C249.943782,563.126209 249.939248,563.167262 249.931994,563.208314 C249.929274,563.220288 249.923834,563.231407 249.920207,563.244236 C249.828626,563.446078 249.764247,563.652198 249.734324,563.860027 C249.68536,563.974633 249.644557,564.091805 249.618261,564.210687 L249.60194,564.292792 C249.571111,564.429635 249.558416,564.565622 249.55751,564.70161 C249.532121,564.776873 249.503105,564.84786 249.486784,564.929111 C249.464115,565.028321 249.451421,565.124111 249.442353,565.218191 C249.416965,565.227599 249.392483,565.238717 249.368907,565.24727 C248.963593,565.384112 248.516569,565.331086 248.093121,565.260099 C247.863715,565.221612 247.627055,565.175427 247.433919,565.051414 C247.081196,564.826479 246.946998,564.377464 247.018631,563.981475 C247.090263,563.586342 247.335084,563.236538 247.610734,562.931208 C247.771227,562.755023 247.948042,562.58568 248.164753,562.473641 C248.76683,562.162324 249.581085,562.391535 249.99728,562.90555 C249.998187,562.907261 249.999093,562.908116 250,562.908971" id="Fill-138" fill="#035D72"></path>
                    <path d="M240.110731,569.246989 C239.750388,569.383819 239.35288,569.331652 238.97557,569.259817 C238.769544,569.221334 238.559479,569.176009 238.386579,569.051152 C238.073097,568.826239 237.952713,568.377267 238.016541,567.982172 C238.080368,567.586222 238.298513,567.236451 238.545744,566.932006 C238.687942,566.754983 238.845491,566.585656 239.03859,566.473627 C239.574256,566.16234 240.29979,566.391529 240.670636,566.905495 C241.041482,567.420316 241.083495,568.145512 240.875045,568.753548 C240.875045,568.753548 240.471074,569.109304 240.110731,569.246989" id="Fill-140" fill="#035D72"></path>
                    <path d="M252.110731,583.246911 C251.750388,583.383737 251.352072,583.331572 250.974762,583.260593 C250.769544,583.221256 250.558671,583.175932 250.386579,583.051079 C250.073097,582.826172 249.952713,582.377212 250.016541,581.982127 C250.080368,581.586188 250.298513,581.236427 250.544936,580.93199 C250.687942,580.754971 250.845491,580.585649 251.037782,580.473623 C251.574256,580.162344 252.29979,580.391528 252.670636,580.90548 C253.041482,581.420287 253.083495,582.145463 252.875045,582.754338 C252.875045,582.754338 252.471074,583.110085 252.110731,583.246911" id="Fill-142" fill="#035D72"></path>
                    <path d="M500.045315,352.724243 C496.172168,346.071492 483.825858,346.887402 482.289726,346.945581 C478.754528,347.292553 475.05245,347.456576 471.91944,346.028733 C461.017791,341.058972 458.582324,339.019898 456.040724,336.468426 C453.138133,333.554562 449.618995,332.615284 448.374728,333.886113 C445.030848,336.618431 442.733633,340.019458 439.141877,342.44686 C438.230672,343.192675 436.406166,344.683603 436.067519,347.28274 C435.575957,351.046861 437.905291,355.652827 438.631462,357.594469 C440.008395,361.27798 440.243004,367.175804 455.574997,364.773636 C456.864649,364.503068 458.152905,364.217079 459.445351,363.961231 C463.320592,363.192986 467.236332,362.694608 471.379,363.696971 C472.676334,363.868004 482.926523,364.742794 487.136222,364.256332 C495.249093,363.319157 503.925445,359.38891 500.045315,352.724243" id="Fill-144" fill="#0081A3"></path>
                    <path d="M496.912758,354.045387 C496.797495,354.401936 496.505497,354.684661 496.212644,354.942256 C496.052984,355.081263 495.883932,355.221055 495.677313,355.288595 C495.299081,355.411894 494.86279,355.261893 494.584452,354.996445 C494.306114,354.730997 494.161823,354.370522 494.07132,354.011617 C494.017531,353.8035 493.979964,353.587529 494.011554,353.37627 C494.09608,352.787258 494.734721,352.343536 495.381045,352.332541 C496.026516,352.322332 496.636981,352.684378 496.995576,353.178362 C496.995576,353.178362 497.028874,353.688054 496.912758,354.045387" id="Fill-146" fill="#035D72"></path>
                    <path d="M488.912758,351.045387 C488.797496,351.402721 488.505499,351.684661 488.212648,351.942256 C488.052988,352.081263 487.883937,352.22184 487.676465,352.288595 C487.298235,352.411894 486.8628,352.261893 486.584464,351.996445 C486.306127,351.731782 486.161836,351.371307 486.07048,351.012403 C486.017545,350.8035 485.979978,350.588314 486.011568,350.37627 C486.096094,349.787258 486.734731,349.343536 487.381053,349.332541 C488.026521,349.322332 488.636983,349.684378 488.995576,350.178362 C488.995576,350.178362 489.028874,350.688054 488.912758,351.045387" id="Fill-148" fill="#035D72"></path>
                    <path d="M478.912758,351.045387 C478.797495,351.402721 478.505497,351.684661 478.212644,351.942256 C478.052984,352.081263 477.883932,352.22184 477.677313,352.288595 C477.298227,352.411894 476.86279,352.261893 476.584452,351.996445 C476.306114,351.731782 476.161823,351.371307 476.07132,351.011617 C476.017531,350.8035 475.979964,350.588314 476.011554,350.37627 C476.09608,349.787258 476.734721,349.343536 477.381045,349.332541 C478.026516,349.322332 478.636981,349.684378 478.995576,350.178362 C478.995576,350.178362 479.028874,350.688054 478.912758,351.045387" id="Fill-150" fill="#035D72"></path>
                    <path d="M473.912758,361.044945 C473.797496,361.402187 473.505499,361.68484 473.212648,361.941582 C473.052988,362.081339 472.884791,362.221095 472.677319,362.288617 C472.298235,362.411885 471.8628,362.261922 471.584464,361.995758 C471.306127,361.731163 471.161836,361.370781 471.07048,361.011969 C471.017545,360.80312 470.979978,360.58799 471.011568,360.376001 C471.096094,359.787141 471.734731,359.343533 472.381053,359.332541 C473.026521,359.322335 473.636983,359.684287 473.995576,360.178144 C473.995576,360.178144 474.028874,360.688489 473.912758,361.044945" id="Fill-152" fill="#035D72"></path>
                    <path d="M490.912758,361.0452 C490.797496,361.402495 490.505499,361.684404 490.212648,361.94197 C490.052988,362.080962 489.883937,362.221524 489.676465,362.288271 C489.298235,362.412343 488.8628,362.261573 488.58361,361.996154 C488.306127,361.73152 488.160982,361.371084 488.07048,361.012219 C488.017545,360.803339 487.979978,360.588177 488.011568,360.376156 C488.096094,359.787209 488.734731,359.343535 489.381053,359.332541 C490.026521,359.322333 490.636983,359.684339 490.995576,360.17827 C490.995576,360.17827 491.028874,360.687905 490.912758,361.0452" id="Fill-154" fill="#035D72"></path>
                    <path d="M463.913557,360.044945 C463.798278,360.402187 463.506236,360.68484 463.213341,360.941582 C463.053657,361.080553 462.884581,361.221095 462.677078,361.288617 C462.29879,361.411885 461.863289,361.261922 461.584057,360.995758 C461.306532,360.731163 461.161365,360.370781 461.070849,360.011969 C461.017906,359.80312 460.980333,359.58799 461.011074,359.376001 C461.096467,358.787141 461.735201,358.343533 462.380766,358.332541 C463.027186,358.322335 463.636887,358.684287 463.995534,359.178144 C463.995534,359.178144 464.028837,359.687704 463.913557,360.044945" id="Fill-156" fill="#035D72"></path>
                    <path d="M481.912758,358.0452 C481.797496,358.402495 481.505499,358.685189 481.212648,358.94197 C481.052988,359.080962 480.883937,359.221524 480.677319,359.288271 C480.298235,359.412343 479.8628,359.261573 479.584464,358.996154 C479.306127,358.73152 479.161836,358.371084 479.07048,358.012219 C479.017545,357.803339 478.979978,357.588177 479.011568,357.376156 C479.096094,356.787209 479.734731,356.343535 480.381053,356.332541 C481.026521,356.322333 481.636983,356.684339 481.995576,357.17827 C481.995576,357.17827 482.028874,357.688691 481.912758,358.0452" id="Fill-158" fill="#035D72"></path>
                    <path d="M470.912758,354.0452 C470.797495,354.402495 470.505497,354.684404 470.212644,354.94197 C470.052984,355.080962 469.884786,355.221524 469.677313,355.288271 C469.299081,355.412343 468.86279,355.261573 468.584452,354.996154 C468.306114,354.73152 468.161823,354.371084 468.07132,354.012219 C468.017531,353.803339 467.979964,353.588177 468.011554,353.376156 C468.09608,352.787209 468.734721,352.343535 469.381045,352.332541 C470.026516,352.322333 470.636981,352.684339 470.995576,353.17827 C470.995576,353.17827 471.028874,353.688691 470.912758,354.0452" id="Fill-160" fill="#035D72"></path>
                    <path d="M455.913571,355.0452 C455.797457,355.402495 455.505462,355.685189 455.213467,355.94197 C455.052955,356.080962 454.88476,356.221524 454.67729,356.288271 C454.299063,356.412343 453.863632,356.261573 453.584444,355.996154 C453.30611,355.73152 453.16182,355.371084 453.071319,355.012219 C453.017531,354.803339 452.979964,354.588177 453.011554,354.376156 C453.096079,353.787209 453.734711,353.343535 454.381026,353.332541 C455.027342,353.322333 455.636945,353.684339 455.995535,354.17827 C455.995535,354.17827 456.028832,354.687905 455.913571,355.0452" id="Fill-162" fill="#035D72"></path>
                    <path d="M445.913568,355.044945 C445.797448,355.402187 445.505442,355.68484 445.213435,355.941582 C445.052917,356.081338 444.884715,356.221095 444.677236,356.288617 C444.298994,356.411885 443.862692,356.261922 443.584347,355.995758 C443.306001,355.731163 443.161706,355.370781 443.071201,355.011969 C443.018264,354.80312 442.979842,354.58799 443.011433,354.376001 C443.096815,353.787141 443.734619,353.343533 444.380961,353.332541 C445.027303,353.322334 445.63693,353.685072 445.995535,354.178144 C445.995535,354.178144 446.028834,354.688489 445.913568,355.044945" id="Fill-164" fill="#035D72"></path>
                    <path d="M449.912967,363.0452 C449.797696,363.402495 449.505678,363.684404 449.212806,363.94197 C449.053135,364.080962 448.884072,364.221524 448.676585,364.288271 C448.298328,364.412343 447.862862,364.261573 447.583651,363.996154 C447.306149,363.73152 447.161847,363.371084 447.070485,363.012219 C447.017546,362.803339 446.979976,362.588177 447.011569,362.376156 C447.096101,361.787209 447.734784,361.343535 448.381152,361.332541 C449.026666,361.322333 449.637172,361.684339 449.995791,362.17827 C449.995791,362.17827 450.028237,362.687905 449.912967,363.0452" id="Fill-166" fill="#035D72"></path>
                    <path d="M464.913557,348.0452 C464.798278,348.402495 464.506236,348.684404 464.213341,348.94197 C464.053657,349.080962 463.884581,349.221524 463.677078,349.288271 C463.29879,349.412343 462.863289,349.261573 462.584057,348.996154 C462.305678,348.73152 462.161365,348.371084 462.070849,348.011434 C462.017906,347.803339 461.980333,347.588177 462.011074,347.376156 C462.096467,346.787209 462.735201,346.343535 463.380766,346.332541 C464.027186,346.322333 464.636887,346.684339 464.995534,347.17827 C464.995534,347.17827 465.028837,347.687905 464.913557,348.0452" id="Fill-168" fill="#035D72"></path>
                    <path d="M449.912758,345.0452 C449.797496,345.402495 449.505499,345.684404 449.212648,345.94197 C449.052988,346.080962 448.883937,346.221524 448.677319,346.288271 C448.299089,346.412343 447.8628,346.261573 447.584464,345.996154 C447.306127,345.73152 447.161836,345.371084 447.07048,345.011434 C447.017545,344.803339 446.979978,344.588177 447.011568,344.376156 C447.096094,343.787209 447.734731,343.343535 448.381053,343.332541 C449.026521,343.322333 449.636983,343.684339 449.995576,344.17827 C449.995576,344.17827 450.028874,344.687905 449.912758,345.0452" id="Fill-170" fill="#035D72"></path>
                    <path d="M441.912758,347.045387 C441.797496,347.402721 441.505499,347.684661 441.212648,347.94147 C441.052988,348.081263 440.883937,348.221055 440.677319,348.288595 C440.298235,348.411894 439.8628,348.261893 439.58361,347.996445 C439.306127,347.731782 439.161836,347.370522 439.07048,347.011617 C439.017545,346.8035 438.979978,346.588314 439.011568,346.37627 C439.096094,345.787258 439.734731,345.343536 440.381053,345.332541 C441.026521,345.322332 441.636983,345.684378 441.995576,346.178362 C441.995576,346.178362 442.028874,346.688054 441.912758,347.045387" id="Fill-172" fill="#035D72"></path>
                    <path d="M448.913557,337.0452 C448.798278,337.402495 448.506236,337.685189 448.213341,337.94197 C448.053657,338.080962 447.884581,338.221524 447.677078,338.288271 C447.29879,338.412343 446.863289,338.261573 446.584057,337.996154 C446.306532,337.73152 446.161365,337.371084 446.070849,337.012219 C446.017906,336.803339 445.980333,336.588177 446.011074,336.376156 C446.096467,335.787209 446.735201,335.343535 447.380766,335.332541 C448.027186,335.322333 448.636887,335.684339 448.995534,336.17827 C448.995534,336.17827 449.028837,336.687905 448.913557,337.0452" id="Fill-174" fill="#035D72"></path>
                    <path d="M457.418085,336.332331 C457.455667,336.375528 457.492374,336.418725 457.535199,336.461137 C457.564041,336.490197 457.595504,336.51533 457.62522,336.542819 C457.633086,336.551459 457.640078,336.561669 457.647944,336.570308 C457.762436,336.743883 457.894408,336.900963 458.049103,337.034482 C458.1164,337.131087 458.188067,337.223764 458.27197,337.306232 L458.328779,337.362781 C458.424917,337.4586 458.528922,337.541853 458.639918,337.616466 C458.687987,337.674586 458.729938,337.733492 458.786747,337.790041 C458.856666,337.858371 458.928333,337.919632 459,337.976967 C458.993882,337.999744 458.988638,338.023306 458.981646,338.045297 C458.863658,338.40187 458.564755,338.684616 458.264978,338.941443 C458.101542,339.081245 457.928493,339.221047 457.716114,339.288592 C457.328939,339.4119 456.883206,339.261888 456.598286,338.996421 C456.313367,338.730955 456.164789,338.370454 456.072147,338.011525 C456.01796,337.803393 455.979504,337.588192 456.011842,337.376133 C456.098366,336.78708 456.752108,336.342541 457.412841,336.332331 C457.414589,336.332331 457.416337,336.332331 457.418085,336.332331" id="Fill-176" fill="#035D72"></path>
                    <path d="M457.913557,348.045387 C457.797424,348.402721 457.505382,348.684661 457.213341,348.942256 C457.053657,349.081263 456.884581,349.22184 456.677078,349.288595 C456.29879,349.411894 455.863289,349.261893 455.584057,348.996445 C455.305678,348.731782 455.161365,348.371307 455.070849,348.012403 C455.017906,347.8035 454.980333,347.588314 455.011074,347.37627 C455.096467,346.787258 455.735201,346.343536 456.380766,346.332541 C457.027186,346.322332 457.636887,346.684378 457.995534,347.178362 C457.995534,347.178362 458.028837,347.688054 457.913557,348.045387" id="Fill-178" fill="#035D72"></path>
                    <path d="M471.912758,348.045387 C471.797495,348.401936 471.505497,348.684661 471.212644,348.942256 C471.052984,349.081263 470.884786,349.221055 470.677313,349.288595 C470.299081,349.411894 469.86279,349.261893 469.584452,348.996445 C469.306114,348.730997 469.161823,348.370522 469.07132,348.011617 C469.017531,347.8035 468.979964,347.588314 469.011554,347.37627 C469.09608,346.787258 469.734721,346.343536 470.381045,346.332541 C471.026516,346.322332 471.636981,346.684378 471.995576,347.178362 C471.995576,347.178362 472.028874,347.688054 471.912758,348.045387" id="Fill-180" fill="#035D72"></path>
                    <path d="M78.6837189,142.908562 C92.2115538,120.72988 97.0968538,93.8213016 94.7030706,67.2336629 C94.2625814,62.1124263 94.7856623,57.0457149 96.167697,52.3737943 C96.8373782,49.4618674 97.7045912,46.3815333 98.8271503,43.229419 C102.193451,33.772386 107.857178,23.6727827 117.360043,15.5602469 C117.360043,15.5602469 147.136422,-11.3807709 180.216469,8.88193345 C180.216469,8.88193345 189.838404,15.859791 196.210355,26.2561775 C201.324847,28.9182543 204.799893,32.7626327 205.74488,37.4856277 C206.615535,41.8338475 205.221799,46.3242472 202.11291,50.4695501 C201.839669,51.1935632 201.479706,51.8975607 201.017881,52.5649779 C201.017881,52.5649779 200.860268,52.4849155 200.561562,52.3558492 C194.839332,58.7187442 180.111853,108.590065 180.630804,108.120733 L178.736012,113.580855 C178.736012,113.580855 177.263815,118.074015 176.223159,124.617741 C173.82387,137.186167 174.076463,150.063799 180.681047,161.839193 C184.87533,169.112453 182.956449,177.498996 182.271626,185.470042 C181.963284,186.665457 182.3377,188.628368 183.516696,189.179833 C194.520666,195.862287 193.283855,209.383871 184.270346,216.553602 C182.456081,218.374333 180.448414,220.006641 178.299653,221.460879 C171.851305,225.823592 164.128291,228.589888 156.529165,230.070354 C153.144281,230.772281 149.716725,231.298208 146.296051,231.666081 C139.45608,232.402518 132.64364,232.506737 126.193227,232.085719 C118.472967,231.653658 111.745183,226.423371 106.73806,220.447674 C105.199789,218.661453 103.773706,216.756519 102.468757,214.759098 C101.163119,212.761678 99.9786165,210.671772 98.9255721,208.516297 C97.4513099,206.233827 95.7182604,203.634558 93.8482463,200.973861 C88.4295415,193.083568 83.5256583,185.528708 75.3642202,179.976101 C67.4939179,174.620888 68.0080513,165.366772 71.1141881,157.215586 C72.1500259,154.498984 73.4728699,151.904546 74.8721112,149.618625 C75.980905,147.495589 77.2328578,145.257981 78.6837189,142.908562" id="Fill-182" fill="#2C2536"></path>
                    <path d="M182.270144,108.653017 C181.780278,109.123585 181.272345,109.585749 180.749821,110.036009 C176.264591,114.461584 170.52586,119.803785 163.540575,117.957228 C162.84156,117.772362 162.125174,117.489461 161.398365,117.086118 C161.034961,116.884446 160.669472,116.652664 160.301203,116.387969 C158.304217,115.057496 157.175787,113.200435 155.930623,111.355979 L155.683953,110.912721 C146.497396,91.8939541 151.207061,78.6151292 151.207061,78.6151292 C152.758652,74.5298756 154.425587,70.9018847 156.174514,67.6814388 C159.969762,67.7283555 163.940111,67.3915357 167.98064,66.6261634 C184.300483,63.5338631 196.879278,54.397012 200.22635,44.3323308 C202.845224,51.724161 202.5249,60.0858362 199.523861,67.6646329 C199.172269,68.7682255 198.803306,69.8690172 198.451714,70.9712094 C198.030637,72.2939801 197.633185,73.6181512 197.322589,74.9486246 C197.219057,75.3918823 197.124558,75.8358403 197.041871,76.2811988 C195.235272,82.5113156 197.654031,88.4067132 197.796474,94.4274555 C197.800643,94.856008 197.799253,95.2761575 197.788136,95.685103 C197.581767,96.7011646 193.908812,96.6535476 192.243961,94.9869546 C191.528965,96.2824156 191.074535,97.5638715 190.15456,98.7255849 C189.892603,99.1310291 189.623003,99.5350729 189.348538,99.9391167 C188.79961,100.746504 188.231921,101.552491 187.664232,102.368981 C187.213277,102.999206 186.729665,103.644135 186.214784,104.293266 C185.5116,105.180482 184.749354,106.0761 183.932215,106.959115 C183.401353,107.531218 182.848256,108.09842 182.270144,108.653017" id="Fill-184" fill="#FA9F8F"></path>
                    <path d="M168.523731,66.296346 C164.580296,67.0446836 160.704686,67.3740069 157,67.3281344 C157.395429,66.5989674 157.795605,65.8910251 158.199173,65.2043073 C162.357619,64.7188806 166.675458,63.819917 171.029244,62.4766066 C183.708062,58.5644376 193.903749,51.7547713 199.470953,44.3323308 C199.816868,44.4329764 200,44.4987041 200,44.4987041 L200,44.4980195 L200,44.4987041 C196.733473,54.3393772 184.454154,63.2728706 168.523731,66.296346" id="Fill-186" fill="#E38A7B"></path>
                    <path d="M181.925525,99.952238 L175.675727,96.3449213 C175.538667,96.2651268 175.306866,96.5782828 175.267706,96.8982138 C174.876738,100.041066 173.841527,111.745273 181.830783,100.657592 C182.00574,100.414444 182.058164,100.029021 181.925525,99.952238" id="Fill-188" fill="#FFFFFF"></path>
                    <path d="M120.669854,36.3323308 C120.934624,36.3323308 121.185639,36.1697268 121.290859,35.9017835 C123.90417,29.2661234 128.117101,23.3409723 133.474388,18.766849 C135.647562,16.9110417 137.533271,15.7134273 139.40729,14.9965555 C142.341762,13.8752943 145.564387,13.8102527 148.680416,13.747332 C157.042321,13.5783651 165.038364,13.8038899 170.92794,18.3511482 C171.223657,18.5802078 171.643162,18.5187011 171.865293,18.2147022 C172.088112,17.9099963 172.028281,17.478742 171.731877,17.2496823 C165.501195,12.4387227 157.259639,12.1955235 148.654283,12.3701462 C145.576766,12.4323599 142.087996,12.5023504 138.940333,13.7056205 C136.920519,14.4776364 134.911708,15.749483 132.618185,17.7070947 C127.091033,22.4261477 122.745373,28.5386469 120.048849,35.3849854 C119.910619,35.7377655 120.07567,36.1393269 120.418839,36.2821357 C120.500677,36.3167774 120.585953,36.3323308 120.669854,36.3323308" id="Fill-190" fill="#594C6E"></path>
                    <path d="M161.558702,47.3323308 C163.641558,47.3323308 165.757164,47.2813261 167.849079,47.0242624 C176.082245,46.0143693 183.738428,41.7782586 188.855325,35.4033506 C189.086676,35.115004 189.03511,34.6988056 188.73965,34.4730248 C188.443493,34.247924 188.01842,34.2982487 187.787069,34.5859152 C182.88898,40.688118 175.560312,44.742652 167.679746,45.7097012 C164.980188,46.0408917 162.191433,46.0184496 159.496055,45.9960076 C156.096869,45.968125 152.24404,45.9361621 148.943108,44.5733164 C148.599566,44.4305032 148.200276,44.5882777 148.05394,44.9255889 C147.907603,45.2629 148.06927,45.6512158 148.414903,45.7940289 C151.962516,47.2588841 155.958895,47.2915271 159.484209,47.3207698 C160.171294,47.3268903 160.863256,47.3323308 161.558702,47.3323308" id="Fill-192" fill="#594C6E"></path>
                    <path d="M175.524065,176.302113 C175.551176,176.293218 175.578982,176.282954 175.606093,176.270638 C175.946023,176.116684 176.09409,175.720508 175.937681,175.385915 C174.370808,172.043399 173.360752,168.493558 172.935319,164.836291 C172.785166,163.541708 172.707309,162.208807 172.631537,160.921066 C172.581487,160.053449 172.52796,159.156409 172.454274,158.271686 C171.974619,152.567856 170.577363,147.005663 168.300045,141.739062 C168.153368,141.400363 167.755741,141.240251 167.412335,141.386678 C167.068235,141.531053 166.907655,141.922439 167.054332,142.261138 C169.273953,147.396364 170.636451,152.82034 171.104288,158.381849 C171.176584,159.249466 171.228721,160.138295 171.280162,160.997017 C171.355933,162.303917 171.435181,163.655976 171.589504,164.987509 C172.031621,168.786413 173.079911,172.473102 174.707262,175.944939 C174.851853,176.252163 175.2036,176.400644 175.524065,176.302113" id="Fill-194" fill="#594C6E"></path>
                    <path d="M133.067008,156.332331 C133.126792,156.332331 133.188548,156.323159 133.247675,156.30411 C133.58733,156.196871 133.781137,155.814478 133.681934,155.450429 C131.808905,148.622393 131.812847,141.102946 133.693103,134.276321 C133.969689,133.271659 134.292919,132.256413 134.605638,131.275033 C134.963689,130.149726 135.334221,128.985616 135.643655,127.81304 C138.446959,117.180832 136.328221,105.867091 134.458476,95.8846691 C134.388837,95.5121538 134.05181,95.27016 133.704929,95.3463563 C133.35739,95.4211415 133.134019,95.7837795 133.203001,96.1555893 C135.044496,105.985619 137.131042,117.126507 134.411831,127.437702 C134.111595,128.575708 133.746975,129.722181 133.39418,130.830555 C133.077519,131.82534 132.74969,132.854695 132.465221,133.886873 C130.515982,140.963958 130.511383,148.75997 132.452738,155.838466 C132.535517,156.138312 132.790422,156.332331 133.067008,156.332331" id="Fill-196" fill="#594C6E"></path>
                    <path d="M108.760875,205.183912 C108.90699,205.064909 108.999238,204.885068 109,204.682496 C109.018765,198.912867 106.022386,193.123851 99.8390699,186.985849 C98.5341298,185.690858 97.1571418,184.42261 95.8239212,183.195812 C92.3353272,179.984074 88.7282248,176.663362 86.2139592,172.640668 C86.0227296,172.33447 85.6187234,172.240872 85.3110053,172.430073 C85.0019405,172.618606 84.9076724,173.021744 85.098902,173.327274 C87.7067623,177.499056 91.3805258,180.880606 94.9324141,184.151177 C96.2555345,185.369283 97.6244424,186.629509 98.9112022,187.907118 C104.834607,193.787726 107.705745,199.273218 107.688238,204.678484 C107.686891,205.038167 107.980469,205.330994 108.342728,205.332331 C108.500964,205.332331 108.647079,205.276841 108.760875,205.183912" id="Fill-198" fill="#594C6E"></path>
                    <path d="M654.067949,157.332331 C637.968169,157.332331 615.380668,159.830714 601,164.832296 C602.067775,166.295822 633.216881,292.348225 636.496427,307.332331 L792.47616,307.332331 C792.821922,303.364918 793,299.350028 793,295.293166 C793,219.099708 730.79741,157.332331 654.067949,157.332331" id="Fill-200" fill="#7A9C49"></path>
                    <path d="M641.369102,305.767391 C642.650888,311.03132 641.916546,315.764711 639.737231,316.285578 C637.557915,316.805754 634.726549,312.924815 633.444763,307.660885 L600.630898,172.896698 C599.349112,167.632769 600.083454,162.899377 602.262769,162.379202 C604.442085,161.858335 607.273451,165.739274 608.555935,171.003203 L641.369102,305.767391 Z" id="Fill-202" fill="#8A9663"></path>
                    <path d="M475,308.332331 L475,353.984142 C475,387.725611 502.669532,415.332331 536.48623,415.332331 L732.513077,415.332331 C766.330468,415.332331 794,387.725611 794,353.984142 L794,308.332331 L475,308.332331 Z" id="Fill-204" fill="#7A9C49"></path>
                    <path d="M507,335.332659 C507,339.198218 503.866035,342.332331 500.000657,342.332331 C496.134623,342.332331 493,339.198218 493,335.332659 C493,331.466443 496.134623,328.332331 500.000657,328.332331 C503.866035,328.332331 507,331.466443 507,335.332659" id="Fill-206" fill="#FFFFFF"></path>
                    <path d="M543,365.332002 C543,369.198218 539.865377,372.332331 536,372.332331 C532.133965,372.332331 529,369.198218 529,365.332002 C529,361.465786 532.133965,358.332331 536,358.332331 C539.865377,358.332331 543,361.465786 543,365.332002" id="Fill-208" fill="#FFFFFF"></path>
                    <path d="M545,405.332331 C545,409.198365 541.866035,412.332331 538.000657,412.332331 C534.134623,412.332331 531,409.198365 531,405.332331 C531,401.466296 534.134623,398.332331 538.000657,398.332331 C541.866035,398.332331 545,401.466296 545,405.332331" id="Fill-210" fill="#FFFFFF"></path>
                    <path d="M586,403.332331 C586,407.198365 582.865887,410.332331 579.000329,410.332331 C575.134113,410.332331 572,407.198365 572,403.332331 C572,399.466296 575.134113,396.332331 579.000329,396.332331 C582.865887,396.332331 586,399.466296 586,403.332331" id="Fill-212" fill="#FFFFFF"></path>
                    <path d="M502,379.332659 C502,383.198218 498.866035,386.332331 495.000657,386.332331 C491.134623,386.332331 488,383.198218 488,379.332659 C488,375.466443 491.134623,372.332331 495.000657,372.332331 C498.866035,372.332331 502,375.466443 502,379.332659" id="Fill-214" fill="#FFFFFF"></path>
                    <path d="M579,342.332331 C579,346.198365 575.865887,349.332331 572.000329,349.332331 C568.134113,349.332331 565,346.198365 565,342.332331 C565,338.466296 568.134113,335.332331 572.000329,335.332331 C575.865887,335.332331 579,338.466296 579,342.332331" id="Fill-216" fill="#FFFFFF"></path>
                    <path d="M606,372.332002 C606,376.198218 602.866035,379.332331 599.000657,379.332331 C595.134623,379.332331 592,376.198218 592,372.332002 C592,368.465786 595.134623,365.332331 599.000657,365.332331 C602.866035,365.332331 606,368.465786 606,372.332002" id="Fill-218" fill="#FFFFFF"></path>
                    <path d="M669,342.332331 C669,346.198365 665.865377,349.332331 662,349.332331 C658.133965,349.332331 655,346.198365 655,342.332331 C655,338.466296 658.133965,335.332331 662,335.332331 C665.865377,335.332331 669,338.466296 669,342.332331" id="Fill-220" fill="#FFFFFF"></path>
                    <path d="M701,368.332659 C701,372.198875 697.866035,375.332331 694.000657,375.332331 C690.134623,375.332331 687,372.198875 687,368.332659 C687,364.466443 690.134623,361.332331 694.000657,361.332331 C697.866035,361.332331 701,364.466443 701,368.332659" id="Fill-222" fill="#FFFFFF"></path>
                    <path d="M739,349.332331 C739,353.198365 735.866035,356.332331 732.000657,356.332331 C728.134623,356.332331 725,353.198365 725,349.332331 C725,345.466296 728.134623,342.332331 732.000657,342.332331 C735.866035,342.332331 739,345.466296 739,349.332331" id="Fill-224" fill="#FFFFFF"></path>
                    <path d="M766,312.332002 C766,316.198218 762.865377,319.332331 759,319.332331 C755.133965,319.332331 752,316.198218 752,312.332002 C752,308.465786 755.133965,305.332331 759,305.332331 C762.865377,305.332331 766,308.465786 766,312.332002" id="Fill-226" fill="#FFFFFF"></path>
                    <path d="M784,342.332331 C784,346.198365 780.865377,349.332331 777,349.332331 C773.134623,349.332331 770,346.198365 770,342.332331 C770,338.466296 773.134623,335.332331 777,335.332331 C780.865377,335.332331 784,338.466296 784,342.332331" id="Fill-228" fill="#FFFFFF"></path>
                    <path d="M771,377.332002 C771,381.198218 767.866035,384.332331 764.000657,384.332331 C760.134623,384.332331 757,381.198218 757,377.332002 C757,373.465786 760.134623,370.332331 764.000657,370.332331 C767.866035,370.332331 771,373.465786 771,377.332002" id="Fill-230" fill="#FFFFFF"></path>
                    <path d="M708,319.332659 C708,323.198875 704.865887,326.332331 701.000329,326.332331 C697.134113,326.332331 694,323.198875 694,319.332659 C694,315.466443 697.134113,312.332331 701.000329,312.332331 C704.865887,312.332331 708,315.466443 708,319.332659" id="Fill-232" fill="#FFFFFF"></path>
                    <path d="M659,380.332002 C659,384.198218 655.865377,387.332331 652,387.332331 C648.133965,387.332331 645,384.198218 645,380.332002 C645,376.465786 648.133965,373.332331 652,373.332331 C655.865377,373.332331 659,376.465786 659,380.332002" id="Fill-234" fill="#FFFFFF"></path>
                    <path d="M692,413.332331 C692,417.198365 688.865887,420.332331 685.000329,420.332331 C681.134113,420.332331 678,417.198365 678,413.332331 C678,409.466296 681.134113,406.332331 685.000329,406.332331 C688.865887,406.332331 692,409.466296 692,413.332331" id="Fill-236" fill="#FFFFFF"></path>
                    <path d="M737,398.332659 C737,402.198218 733.865887,405.332331 730.000329,405.332331 C726.134113,405.332331 723,402.198218 723,398.332659 C723,394.466443 726.134113,391.332331 730.000329,391.332331 C733.865887,391.332331 737,394.466443 737,398.332659" id="Fill-238" fill="#FFFFFF"></path>
                    <path d="M636,413.332331 C636,417.198365 632.865887,420.332331 629.000329,420.332331 C625.134113,420.332331 622,417.198365 622,413.332331 C622,409.466296 625.134113,406.332331 629.000329,406.332331 C632.865887,406.332331 636,409.466296 636,413.332331" id="Fill-240" fill="#FFFFFF"></path>
                    <path d="M622,328.332331 C622,332.198365 618.865377,335.332331 615,335.332331 C611.133965,335.332331 608,332.198365 608,328.332331 C608,324.466296 611.133965,321.332331 615,321.332331 C618.865377,321.332331 622,324.466296 622,328.332331" id="Fill-242" fill="#FFFFFF"></path>
                    <path d="M545,315.332331 C545,319.198365 541.866035,322.332331 538.000657,322.332331 C534.134623,322.332331 531,319.198365 531,315.332331 C531,311.466296 534.134623,308.332331 538.000657,308.332331 C541.866035,308.332331 545,311.466296 545,315.332331" id="Fill-244" fill="#FFFFFF"></path>
                    <path d="M797,308.831974 C797,311.85692 792.552467,314.332331 787.115978,314.332331 L481.884716,314.332331 C476.448226,314.332331 472,311.85692 472,308.831974 C472,305.807027 476.448226,303.332331 481.884716,303.332331 L787.115978,303.332331 C792.552467,303.332331 797,305.807027 797,308.831974" id="Fill-246" fill="#667F3B"></path>
                    <path d="M647,307.832331 C647,313.079081 642.74675,317.332331 637.5,317.332331 C632.252548,317.332331 628,313.079081 628,307.832331 C628,302.58558 632.252548,298.332331 637.5,298.332331 C642.74675,298.332331 647,302.58558 647,307.832331" id="Fill-248" fill="#666764"></path>
                    <path d="M643,307.332331 C643,310.64634 640.313629,313.332331 637.00069,313.332331 C633.687062,313.332331 631,310.64634 631,307.332331 C631,304.018321 633.687062,301.332331 637.00069,301.332331 C640.313629,301.332331 643,304.018321 643,307.332331" id="Fill-250" fill="#FFFFFF"></path>
                    <path d="M738.502198,415.332331 L535.497112,415.332331 C530.273356,415.332331 526,417.35744 526,419.832331 C526,422.307221 530.273356,424.332331 535.497112,424.332331 L738.502198,424.332331 C743.725955,424.332331 748,422.307221 748,419.832331 C748,417.35744 743.725955,415.332331 738.502198,415.332331" id="Fill-252" fill="#8A9663"></path>
                    <path d="M741.239269,524.332331 C737.928789,524.332331 734.529697,524.128155 731.053762,523.714265 C729.295372,523.505244 728.04027,521.909902 728.249338,520.151911 C728.458407,518.394611 730.054111,517.137717 731.811808,517.348814 C750.972717,519.627974 767.464888,515.055812 778.252678,504.471182 C788.33365,494.579366 792.945615,479.736105 791.239147,462.675976 C789.37553,444.054419 776.495673,433.629668 749.476701,428.874786 C723.462226,424.296396 686.206519,425.412789 643.068515,426.705674 C639.447893,426.814338 635.77812,426.924385 632.061965,427.032356 C609.63419,427.686412 591.180791,425.891046 575.655041,421.543132 C560.397204,417.271352 548.34462,410.642894 538.808471,401.279168 C521.738246,384.516651 513.165058,359.046541 511.829652,321.121685 C511.209369,303.517547 505.30838,289.946408 494.290754,280.784781 C472.03951,262.280193 436.039598,267.392902 435.67892,267.446887 C433.926761,267.707126 432.296443,266.500064 432.035454,264.748994 C431.774464,262.998616 432.982492,261.367283 434.733959,261.106353 C435.131327,261.04683 444.630092,259.664661 457.192886,260.741604 C473.984123,262.179835 488.23054,267.406052 498.391124,275.856177 C510.872921,286.235247 517.550648,301.38927 518.237389,320.896053 C519.511876,357.07676 527.47655,381.165394 543.301364,396.70493 C560.939258,414.023913 589.914612,421.848358 631.875049,420.624685 C635.58982,420.516022 639.257517,420.405975 642.876061,420.298004 C686.367128,418.995429 723.927438,417.869345 750.588502,422.561244 C780.506739,427.826221 795.451667,440.37025 797.619193,462.038531 C799.523654,481.07121 794.241562,497.765898 782.744186,509.046112 C772.548296,519.050744 758.054735,524.332331 741.239269,524.332331" id="Fill-254" fill="#6C4472"></path>
                    <path d="M615.217366,427.4257 C615.175662,425.203922 615.436309,423.06487 616,421.007849 C581.870618,419.984552 552.406458,419.643221 530.695659,423.549407 C502.564619,428.609582 488.484155,440.752195 486.382302,461.763844 C484.470201,480.881143 489.77418,497.649448 501.316991,508.979402 C511.554485,519.028149 526.103418,524.332331 542.988436,524.332331 C546.310809,524.332331 549.726319,524.127254 553.214809,523.71154 C554.980254,523.501597 556.240392,521.899915 556.03118,520.134172 C555.819883,518.369124 554.217082,517.106687 552.453722,517.31802 C533.217326,519.60862 516.657593,515.015602 505.826521,504.383603 C495.705101,494.448864 491.074632,479.540152 492.787947,462.404795 C496.401548,426.280747 543.189308,425.269963 615.217366,427.4257" id="Fill-256" fill="#6C4472"></path>
                    <path d="M556.499652,454.772703 C519.522793,454.772703 489.440372,484.855819 489.440372,521.831983 C489.440372,558.808843 519.522793,588.891959 556.499652,588.891959 C593.476512,588.891959 623.558932,558.808843 623.558932,521.831983 C623.558932,484.855819 593.476512,454.772703 556.499652,454.772703 M556.499652,595.332331 C536.867712,595.332331 518.410226,587.68691 504.527476,573.804855 C490.645421,559.9228 483,541.464618 483,521.831983 C483,502.200043 490.645421,483.741861 504.527476,469.859807 C518.410226,455.977057 536.867712,448.332331 556.499652,448.332331 C576.132288,448.332331 594.589774,455.977057 608.472524,469.859807 C622.354579,483.741861 630,502.200043 630,521.831983 C630,541.464618 622.354579,559.9228 608.472524,573.804855 C594.589774,587.68691 576.132288,595.332331 556.499652,595.332331" id="Fill-258" fill="#6C4472"></path>
                    <path d="M572,520.332331 C572,528.61623 565.284053,535.332331 556.999657,535.332331 C548.715947,535.332331 542,528.61623 542,520.332331 C542,512.048432 548.715947,505.332331 556.999657,505.332331 C565.284053,505.332331 572,512.048432 572,520.332331" id="Fill-260" fill="#6C4472"></path>
                    <mask id="mask-4" fill="white">
                        <use xlink:href="#path-3"></use>
                    </mask>
                    <g id="Clip-263"></g>
                    <polygon id="Fill-262" fill="#6C4472" mask="url(#mask-4)" points="555 590.332331 558 590.332331 558 451.332331 555 451.332331"></polygon>
                    <polygon id="Fill-264" fill="#6C4472" mask="url(#mask-4)" points="508.719101 570.332331 507 568.613242 605.280899 470.332331 607 472.052112"></polygon>
                    <polygon id="Fill-265" fill="#6C4472" mask="url(#mask-4)" points="605.280899 570.332331 607 568.613242 508.719101 470.332331 507 472.052112"></polygon>
                    <polygon id="Fill-266" fill="#6C4472" mask="url(#mask-4)" points="488 523.332331 627 523.332331 627 520.332331 488 520.332331"></polygon>
                    <path d="M728.500348,452.773368 C691.523488,452.773368 661.441068,482.856342 661.441068,519.832331 C661.441068,556.809015 691.523488,586.891989 728.500348,586.891989 C765.477207,586.891989 795.559628,556.809015 795.559628,519.832331 C795.559628,482.856342 765.477207,452.773368 728.500348,452.773368 M728.500348,593.332331 C708.867712,593.332331 690.410226,585.686946 676.527476,571.804957 C662.645421,557.922968 655,539.464873 655,519.832331 C655,500.200484 662.645421,481.742389 676.527476,467.8604 C690.410226,453.977716 708.867712,446.332331 728.500348,446.332331 C748.132288,446.332331 766.590469,453.977716 780.472524,467.8604 C794.355274,481.742389 802,500.200484 802,519.832331 C802,539.464873 794.355274,557.922968 780.472524,571.804957 C766.590469,585.686946 748.132288,593.332331 728.500348,593.332331" id="Fill-267" fill="#6C4472" mask="url(#mask-4)"></path>
                    <path d="M743,520.332331 C743,528.61623 736.284053,535.332331 728.000343,535.332331 C719.715947,535.332331 713,528.61623 713,520.332331 C713,512.047746 719.715947,505.332331 728.000343,505.332331 C736.284053,505.332331 743,512.047746 743,520.332331" id="Fill-268" fill="#6C4472" mask="url(#mask-4)"></path>
                    <polygon id="Fill-269" fill="#6C4472" mask="url(#mask-4)" points="727 590.332331 730 590.332331 730 451.332331 727 451.332331"></polygon>
                    <polygon id="Fill-270" fill="#6C4472" mask="url(#mask-4)" points="679.719101 570.332331 678 568.613242 776.280899 470.332331 778 472.052112"></polygon>
                    <polygon id="Fill-271" fill="#6C4472" mask="url(#mask-4)" points="776.280899 570.332331 778 568.613242 679.719101 470.332331 678 472.052112"></polygon>
                    <polygon id="Fill-272" fill="#6C4472" mask="url(#mask-4)" points="659 521.332331 798 521.332331 798 518.332331 659 518.332331"></polygon>
                </g>
            </g>
        </g>
    </g>
</svg>