<?xml version="1.0" encoding="UTF-8"?>
<svg width="920px" height="548px" viewBox="0 0 920 548" version="1.1" xmlns="http://www.w3.org/2000/svg" xmlns:xlink="http://www.w3.org/1999/xlink">
    <title>Group 119</title>
    <defs>
        <path d="M116.672604,17.7112344 C47.5920803,50.275863 8.65596844,117.297214 1.46376123,181.879299 L1.46376123,181.879299 C0.310198971,192.23964 -0.0762113208,202.635282 0.0122819897,213.037544 L0.0122819897,213.037544 C0.690310806,292.288005 44.5382738,369.621473 110.22078,425.25622 L110.22078,425.25622 C183.765334,487.550016 285.770408,518.330976 388.108355,525.317193 L388.108355,525.317193 C470.096935,530.914362 552.564827,520.88182 627.188307,490.696256 L627.188307,490.696256 C722.509459,452.137948 798.580954,385.424854 852.655091,309.566167 L852.655091,309.566167 C873.565336,280.232565 892.225142,248.910421 904.886929,216.317425 L904.886929,216.317425 C919.311024,179.186934 927.235741,133.180969 898.106956,99.5160072 L898.106956,99.5160072 C878.104948,76.39861 843.499655,61.571692 809.319507,64.2369504 L809.319507,64.2369504 C790.469487,65.707003 772.5466,74.366256 756.421922,82.0600778 L756.421922,82.0600778 C715.749641,101.467042 678.031651,124.956365 639.88883,147.634385 L639.88883,147.634385 C603.983535,168.981983 568.184054,182.170221 523.128362,179.701957 L523.128362,179.701957 C486.816187,177.713099 454.086574,164.58916 425.740372,145.654038 L425.740372,145.654038 C407.833231,133.692209 392.001116,119.690778 380.330707,103.050879 L380.330707,103.050879 C371.531133,90.5043702 365.127808,76.8600502 355.455898,64.7355831 L355.455898,64.7355831 C322.350268,23.2346483 261.026293,0.0447567059 201.109393,0.0447567059 L201.109393,0.0447567059 C171.416266,0.0447567059 142.079946,5.73427691 116.672604,17.7112344" id="path-1"></path>
        <linearGradient x1="100.000008%" y1="50.0000148%" x2="-1.54040187e-05%" y2="50.0000148%" id="linearGradient-3">
            <stop stop-color="#755EA5" offset="0%"></stop>
            <stop stop-color="#A05EA5" offset="100%"></stop>
        </linearGradient>
    </defs>
    <g id="Patient-PBD-ZSD-Layout-(DSK)" stroke="none" stroke-width="1" fill="none" fill-rule="evenodd">
        <g id="3-0_StartingCHOLBAM" transform="translate(-259.000000, -2903.000000)">
            <g id="Group-119" transform="translate(259.585944, 2903.000000)">
                <g id="Group-3" transform="translate(0.414056, 0.191257)">
                    <mask id="mask-2" fill="white">
                        <use xlink:href="#path-1"></use>
                    </mask>
                    <g id="Clip-2"></g>
                    <path d="M1.46376123,181.879299 C0.310198971,192.23964 -0.0762113208,202.635282 0.0122819897,213.037544 C0.690310806,292.288005 44.5382738,369.621473 110.22078,425.25622 C183.765334,487.550016 285.770408,518.330976 388.108355,525.317193 C470.096935,530.914362 552.564827,520.88182 627.188307,490.696256 C722.509459,452.137948 798.580954,385.424854 852.655091,309.566167 C873.565336,280.232565 892.225142,248.910421 904.886929,216.317425 C919.311024,179.186934 927.235741,133.180969 898.106956,99.5160072 C878.104948,76.39861 843.499655,61.571692 809.319507,64.2369504 C790.469487,65.707003 772.5466,74.366256 756.421922,82.0600778 C715.749641,101.467042 678.031651,124.956365 639.88883,147.634385 C603.983535,168.981983 568.184054,182.170221 523.128362,179.701957 C486.816187,177.713099 454.086574,164.58916 425.740372,145.654038 C407.833231,133.692209 392.001116,119.690778 380.330707,103.050879 C371.531133,90.5043702 365.127808,76.8600502 355.455898,64.7355831 C322.350268,23.2346483 261.026293,0.0447567059 201.109393,0.0447567059 C171.416266,0.0447567059 142.079946,5.73427691 116.672604,17.7112344 C47.5920803,50.275863 8.65596844,117.297214 1.46376123,181.879299 Z" id="Fill-1" fill="url(#linearGradient-3)" mask="url(#mask-2)"></path>
                </g>
                <g id="Group-118" transform="translate(5.414056, 118.191257)">
                    <path d="M60.0725195,312.675216 C55.7939739,312.153229 54.7672742,315.302486 38.6643501,327.200065 C26.2812428,336.349333 22.6994538,337.582117 19.7271298,338.192678 C17.9507314,338.557375 14.7905889,339.028613 10.3840998,340.55864 C4.66634688,342.544144 1.4583043,343.657779 0.457760574,346.36196 C-1.08260407,350.526822 3.50697668,356.048345 7.16534271,358.614465 C12.136233,362.100996 17.7575556,361.794297 18.7924487,361.720223 C21.8690813,361.499577 22.398818,360.60848 27.452588,359.950007 C31.7976264,359.383891 31.8864936,359.979637 35.0189045,359.441259 C36.7968786,359.135821 41.6672418,358.3292 45.7122747,354.918319 C49.5294672,351.699716 48.422724,350.025009 51.6184764,347.556919 C55.679581,344.420585 62.8267721,342.985752 67.2386185,345.81917 C69.8743816,347.512159 70.6678837,350.171581 74.3026148,350.987028 C75.2083038,351.190023 76.1672502,351.176153 77.8847189,351.052591 C81.6347883,350.783087 86.8918184,350.405782 90.2416703,346.398524 C93.8625357,342.067547 93.9460456,335.062018 91.0109073,330.598968 C90.7925209,330.267683 90.5464029,329.931985 90.2366282,329.593765 C86.006613,324.974687 80.1205796,325.559715 75.1033649,324.145686 C65.7817638,321.5181 66.8210688,313.498228 60.0725195,312.675216" id="Fill-4" fill="#0081A3"></path>
                    <path d="M47.0031809,323.302154 C44.4720416,319.850296 60.5125696,305.938844 76.1966835,287.784043 C95.8448413,265.039793 109.336267,242.114929 120.310735,223.465564 C131.614201,204.257018 130.998433,202.556148 137.534268,195.028317 C142.242969,189.605139 168.569087,159.283886 192.320261,167.793594 C204.070584,172.003531 212.702677,184.825619 213.653114,197.118786 C214.577396,209.074994 208.059523,218.254837 201.34942,227.275815 C170.515341,268.730265 155.098144,289.45749 129.636748,308.011346 C119.439396,315.442092 104.678933,325.078044 85.416497,334.079479 C82.2963762,329.564419 77.593348,324.5072 70.7518348,322.326896 C58.9599149,318.56897 48.9437631,325.948968 47.0031809,323.302154" id="Fill-6" fill="#667F3B"></path>
                    <path d="M27.7342844,408.514257 C32.2724986,411.341685 40.686835,407.936478 44.4116939,406.429462 C49.6835352,404.295494 51.5012159,402.178233 54.8349961,400.173816 C66.3398309,393.256231 74.2291576,400.720074 89.2319563,397.045678 C101.564327,394.025657 114.111303,384.604363 113.205929,377.236658 C112.506022,371.540824 103.913005,368.269266 102.782312,367.853505 C89.7002422,363.041518 81.5452594,374.077945 70.0880095,369.233807 C63.3901964,366.40165 64.1695176,361.781311 56.9195935,359.512749 C47.2897934,356.499347 37.9105231,362.145693 37.1154454,362.640572 C20.4903478,372.975027 19.1381168,403.159165 27.7342844,408.514257" id="Fill-8" fill="#0081A3"></path>
                    <path d="M96.5284254,394.960883 C98.1916914,393.708241 103.173296,389.622181 104.86713,382.449907 C105.203376,381.025475 107.216438,372.502213 102.782533,367.853505 C97.2220306,362.024337 86.123716,367.108665 85.0626669,364.725682 C83.2928863,360.751837 114.490943,347.361741 145.518198,323.021901 C168.083846,305.319741 168.633752,299.025955 187.211406,289.659192 C190.952652,287.772664 211.659023,277.649399 237.243635,280.275724 C249.647856,281.548854 253.822723,284.856662 256.005327,287.573767 C262.678244,295.88048 258.825127,308.746698 257.047783,314.681145 C252.967771,328.306072 244.541774,336.653447 236.201179,344.916347 C231.756559,349.319507 222.531388,358.31842 208.058011,365.768394 C190.760422,374.672115 177.465323,375.444062 160.11101,378.279371 C144.579105,380.816491 122.749919,385.503971 96.5284254,394.960883" id="Fill-10" fill="#7A9C49"></path>
                    <path d="M282.595651,300.074846 L162.309496,224.127346 C148.704622,215.53726 144.600029,197.375209 153.187688,183.766988 L156.865277,177.939082 C165.452936,164.331177 183.611151,160.225259 197.216024,168.81503 L317.502179,244.76253 C331.106738,253.352301 335.211961,271.514983 326.623987,285.123203 L322.946398,290.950794 C314.358424,304.559015 296.200525,308.664617 282.595651,300.074846" id="Fill-12" fill="#667F3B"></path>
                    <path d="M388.631983,329.406247 L247.918665,350.234024 C232.003244,352.589899 216.73668,339.3448 213.993142,320.801346 L212.81833,312.860275 C210.075107,294.316821 220.851987,277.217026 236.767723,274.861151 L377.480727,254.033059 C393.396462,251.677184 408.662711,264.922283 411.406249,283.466053 L412.581061,291.406808 C415.324284,309.950577 404.547404,327.050057 388.631983,329.406247" id="Fill-14" fill="#7A9C49"></path>
                    <path d="M299.298271,132.354979 C295.133173,139.936711 289.88087,148.305205 283.259319,156.953606 C272.687274,170.762299 261.695474,181.273272 252.251287,189.038771 C237.524228,181.726543 222.287602,174.490281 206.541092,167.381363 C199.629935,164.26079 192.767623,161.231628 185.958568,158.290409 C183.107255,163.548732 180.255626,168.807371 177.404313,174.065694 C181.184635,174.72196 186.647761,176.110773 192.374023,179.413222 C199.131711,183.310471 202.342905,187.616546 206.808639,192.514585 C206.808639,192.514585 218.670518,205.979385 234.074165,215.241814 C239.858095,218.719519 248.754583,223.26673 260.805542,226.471149 C278.625935,211.498387 296.446643,196.52531 314.267666,181.552233 C320.682805,174.422196 327.098575,167.292159 333.513715,160.162122 C322.108777,150.893075 310.703209,141.624027 299.298271,132.354979" id="Fill-16" fill="#E0ADA6"></path>
                    <path d="M195.314266,181.28462 C183.404487,176.164673 177.412885,173.681769 177.34198,173.837167 C177.34198,173.837167 177.341665,173.838428 177.34135,173.838743 C177.339459,173.845047 177.337883,173.855765 177.313303,173.971131 C177.260046,174.216049 177.137775,174.768296 176.96004,175.463017 C176.82863,175.975548 176.658459,176.589891 176.437867,177.289025 C176.277465,177.798089 176.057818,178.37177 175.727244,179.065861 C174.340034,181.977135 172.590737,183.984704 170.946694,185.459253 C167.952941,188.143892 166.140932,189.769111 162.848434,191.880699 C160.168238,193.599851 152.508012,196.955886 152.745306,196.611992 C151.270174,195.68969 150.91502,194.822864 150.82962,194.258009 C150.222991,190.258316 160.729173,185.588489 161.937703,185.061144 C164.129761,184.105429 165.456466,183.77635 165.433461,183.704482 C165.363817,183.48226 153.155923,187.933647 147.852569,189.731601 C144.29599,190.937908 141.787225,191.694095 140.022172,194.159978 C138.517732,196.260849 138.123187,198.807426 136.460866,199.025551 C135.265571,199.18284 134.27259,198.023185 134.17616,197.907188 C132.288835,195.640517 134.458203,191.501187 134.687304,191.075654 C135.708646,189.182191 137.095542,188.128446 138.294303,187.237665 C142.163493,184.362324 145.980055,183.330329 145.900642,183.110943 C145.858414,182.995261 144.777197,183.254048 143.913735,183.554443 C142.815816,183.936477 142.0491,184.39353 141.600667,184.66461 C139.532457,185.91284 138.420041,186.445543 137.560992,187.132385 C136.680198,187.836563 134.399904,190.261468 133.900104,191.398429 C133.400305,192.535389 133.27961,193.615927 133.25692,193.837519 C133.130552,195.071564 133.362174,195.655017 133.083913,195.798752 C132.681489,196.00679 131.558044,195.116009 131.077783,193.950995 C130.916436,193.55982 130.62683,192.64918 131.268438,190.34626 C131.911307,188.040503 135.675873,181.99983 139.099465,180.371458 C140.733739,179.594152 145.28771,175.630709 145.220587,175.578384 C145.175838,175.544026 144.729612,176.140087 143.732534,177.09265 C143.242189,177.561051 136.232396,181.822998 135.781757,182.24853 C134.592134,183.371621 133.816595,184.410867 133.43497,184.954918 C133.367532,185.050742 132.552601,186.222375 131.846705,187.717729 C131.55899,188.327659 130.999631,190.216394 130.794795,190.350358 C130.1847,190.747521 128.107665,189.7067 127.646943,188.101338 C127.484334,187.533331 127.542319,186.960596 129.501494,183.186593 C130.546786,181.17272 131.080304,180.152703 131.603423,179.533947 C132.054062,179.001558 132.866472,178.126537 135.654759,176.560261 C138.849566,174.765774 146.997616,170.271834 146.928602,170.159619 C146.867466,170.059383 145.242331,170.93598 144.505868,171.333774 C143.677701,171.780111 132.261104,177.99604 131.169487,178.652306 C130.415061,179.106208 129.846248,179.458297 129.46809,179.236074 C129.031947,178.979809 129.04991,178.076103 129.169345,177.516291 C129.547818,175.743239 131.444282,175.066484 134.063658,173.38169 C136.819801,171.608637 136.248467,171.374751 138.490316,169.962298 C141.850882,167.844721 142.819597,168.570018 147.702881,166.407682 C151.288767,164.819657 151.230782,164.222965 154.577798,162.967801 C155.543047,162.605626 156.274468,162.328557 157.127845,162.0704 C158.63197,161.615868 159.881153,161.374733 160.450911,161.274181 C160.450911,161.274181 160.594926,161.248649 160.740832,161.224378 C178.390109,158.296713 185.958631,158.290409 185.958631,158.290409 C188.801751,159.52666 191.653379,160.774259 194.512256,162.033836 C198.549725,163.811932 202.559148,165.594757 206.541155,167.381363 C202.798964,172.015887 199.056773,176.650411 195.314266,181.28462" id="Fill-18" fill="#E0ADA6"></path>
                    <path d="M336.988801,92.7831176 C327.330954,96.8729597 312.74665,104.451855 298.496386,118.183952 C281.541346,134.522201 272.983309,151.93563 268.824514,162.300976 C283.705041,173.174439 298.585254,184.047588 313.465781,194.921052 C324.336255,177.006755 335.207045,159.092459 346.077519,141.178478 C345.711966,133.284689 344.762159,124.17892 342.745,114.212944 C341.129949,106.233733 339.105857,99.0646107 336.988801,92.7831176" id="Fill-20" fill="#F7F99B"></path>
                    <path d="M538.808303,122.996727 C536.778223,114.741708 476.907893,109.264945 461.46643,104.656268 C457.526651,103.480222 454.47712,101.745309 453.995599,101.491565 C451.948817,100.411973 449.562008,98.5188256 444.271574,93.3415111 C423.372658,72.8900945 390.230553,72.3725206 381.739009,72.1200379 C381.689218,72.1184619 381.639427,72.1168858 381.589637,72.115625 C375.354437,71.9397381 369.390881,74.5515633 365.172841,79.1476316 C361.969526,82.6382605 357.852643,85.6718359 352.706224,86.6398439 C352.113461,86.7514281 340.768083,90.0431599 336.988706,92.78296 C336.988706,92.78296 327.895576,96.824575 319.207074,110.095206 C299.138216,140.747745 328.148626,175.893909 317.742657,225.936554 C314.354674,242.228467 307.864848,255.39697 301.704019,265.24096 C309.977492,271.183918 319.929987,277.27534 331.642494,282.620346 C365.572743,298.104377 397.304318,299.58397 417.182207,298.663244 C428.07285,273.410242 438.963808,248.157241 449.854766,222.904554 C453.576788,202.168819 457.299126,181.432768 461.021149,160.697033 C525.031052,137.461056 539.91347,127.489407 538.808303,122.996727" id="Fill-22" fill="#F7F99B"></path>
                    <path d="M388.312534,112.836299 C381.302425,131.204181 375.700641,148.825332 371.204654,165.509681 C361.142178,202.850018 361.710676,224.86771 347.146541,259.091571 C342.541519,269.913025 337.976834,278.450472 334.85041,283.95718 C330.395076,281.372778 325.940056,278.788061 321.485037,276.203659 C325.850874,268.825868 332.410344,256.89204 338.592916,241.444573 C352.152411,207.56492 350.998713,187.782693 363.719957,146.258267 C369.338443,127.918438 374.866172,113.15403 378.689352,103.478362 C381.897394,106.597674 385.104807,109.716986 388.312534,112.836299" id="Fill-24" fill="#EFEF78"></path>
                    <path d="M372.247583,84.9646005 C372.760933,68.4041288 388.603558,59.2469804 389.555887,58.7167982 C393.87666,60.0422537 401.841934,63.1445447 409.097215,70.4447945 C420.039224,81.4547438 422.030858,94.6327034 422.496623,98.9261707 C415.796919,105.999785 409.097215,113.073714 402.397511,120.147644 C398.852593,119.033379 393.67214,116.945747 388.43906,112.887426 C384.25852,109.645497 371.782764,99.9704594 372.247583,84.9646005" id="Fill-26" fill="#E0ADA6"></path>
                    <path d="M397.40119,131.820289 C410.142917,122.194425 422.884645,112.568875 435.626687,102.943641 C428.830553,102.535129 422.034419,102.126618 415.238915,101.718106 C406.263013,105.424339 397.288057,109.130571 388.312471,112.836173 C391.341834,119.164317 394.371827,125.492145 397.40119,131.820289" id="Fill-28" fill="#FFFFFF"></path>
                    <path d="M464.228845,51.0724973 C462.063574,61.7461181 459.79683,72.9250197 451.52903,84.9650733 C445.252233,94.1092982 436.821195,106.456681 424.137451,106.804357 C416.986794,107.002308 411.020402,103.42216 406.968121,100.053202 C404.487403,97.9917324 402.723295,96.0103261 401.838719,95.0158404 C387.315551,78.7006016 385.246395,48.4442813 401.279675,30.2358948 C412.250362,17.7785039 427.717035,16.0246788 433.664519,15.7145127 C436.198494,15.5837008 445.706968,15.0916589 453.953655,18.1290168 C458.31571,19.7305957 462.325448,22.3213018 464.763308,26.4738705 C468.075345,32.1129668 466.792443,38.4310241 464.228845,51.0724973" id="Fill-30" fill="#DB9C94"></path>
                    <path d="M455.942168,45.9922043 C453.776897,56.6661403 451.510469,67.8450419 443.242038,79.8847803 C436.965557,89.0293204 428.534518,101.376703 415.850775,101.724379 C412.626976,101.812323 409.643937,101.133361 406.968153,100.053139 C405.505941,98.8266591 403.703701,97.1623534 401.838436,95.0157774 C386.744564,77.6455327 381.081959,44.3093012 397.401064,27.543313 C408.194646,16.4545614 425.351371,15.9559001 433.66455,15.7144497 C442.200212,15.4666951 455.760337,20.1743475 456.476632,21.3935775 C459.788668,27.0326738 458.505766,33.3507311 455.942168,45.9922043" id="Fill-32" fill="#E0ADA6"></path>
                    <path d="M456.554596,8.4553662 C463.437706,8.34283644 469.602946,12.1108497 472.187658,17.9491583 C474.160384,22.4049584 474.051663,28.0755756 471.070831,32.4692795 C467.295236,38.0346168 459.112206,41.2538504 453.763157,38.0538445 C450.963526,36.3788217 449.778945,33.4480047 449.296478,31.9107284 C448.755712,32.7252295 444.733368,38.5767769 437.571681,39.1706314 C430.895297,39.7244544 424.25988,35.4798445 421.380205,28.5600525 C421.520124,29.1346792 423.170784,36.4607762 418.030353,41.9630716 C414.146668,46.119738 409.03964,46.3964918 407.980482,46.4308497 C406.351881,50.9449636 404.723279,55.4590774 403.094993,59.9731913 C401.792553,59.9268555 400.489482,59.8805198 399.187042,59.8338688 C400.25723,54.063015 401.327103,48.2921612 402.397606,42.5213074 C401.442126,42.6896292 400.031596,42.7785183 399.047439,41.9630716 C397.82063,40.9468364 398.317278,39.4057777 397.372198,38.0538445 C396.088665,36.2177497 392.50341,35.2421766 390.811782,36.3781913 C386.872003,39.0246895 395.650947,51.4827108 390.115971,59.8111737 C388.657225,62.0056616 386.73177,63.1205572 385.368194,66.8148115 C384.252942,69.8357784 384.364814,72.2777057 382.716044,72.9576123 C381.638293,73.4023728 380.103601,72.9714816 379.227849,72.0557982 C377.243464,69.9820356 379.174277,65.9867564 380.483019,59.8338688 C381.648692,54.3536381 380.851409,54.0696344 381.739135,46.849763 C381.888508,45.6327395 383.268785,34.7246028 386.066211,27.5825881 C392.596689,10.9089562 411.195458,3.66954181 412.586765,3.15007671 C434.858396,-5.17113637 454.392161,7.05079309 456.554596,8.4553662" id="Fill-34" fill="#2C3A64"></path>
                    <polygon id="Fill-36" fill="#FFFFFF" points="357.839218 122.996727 388.312471 112.836267 375.45446 73.1340666 361.581409 78.6120908"></polygon>
                    <path d="M640.302041,174.17794 C640.288175,172.991492 640.28723,169.141209 642.400819,165.176505 C643.313441,163.464288 644.422075,161.457034 646.676529,160.767671 C648.751357,160.133155 651.039529,160.846474 652.514032,162.001716 C654.557347,163.602665 654.065111,165.289665 656.11788,167.289354 C657.703308,168.83388 659.476555,169.269814 660.923956,169.682739 C663.975693,170.553662 668.359178,172.115525 674.705934,175.16297 C673.886906,183.710188 673.068194,192.258036 672.249166,200.80557 C670.755756,205.08107 669.261716,209.356571 667.768306,213.632386 C664.464463,213.23932 654.099775,211.567765 646.821174,202.907071 C640.55005,195.444803 640.456455,187.418626 640.302041,174.17794" id="Fill-38" fill="#DB9C94"></path>
                    <path d="M558.054762,381.817187 C562.875019,383.160294 573.977746,386.253759 578.905148,381.014979 C582.850284,376.819857 580.78491,369.46413 578.905148,360.961672 C573.513557,336.576757 579.752223,348.459206 572.489693,312.833924 C566.467208,283.290292 563.456123,268.518634 557.252752,265.508384 C544.204401,259.176142 522.934889,273.002172 512.344567,287.967999 C498.268256,307.86055 502.520961,330.527888 503.523396,335.293539 C514.190925,351.711537 532.795996,374.779191 558.054762,381.817187" id="Fill-40" fill="#035D72"></path>
                    <path d="M613.36378,140.557043 C614.615799,141.70472 617.970377,144.780219 619.544461,149.830504 C622.186527,158.306169 617.976995,166.45055 616.110784,170.094686 C591.778821,217.607145 588.089887,237.668963 574.219042,237.755933 C566.683294,237.803242 561.14359,231.922696 554.990325,225.391557 C539.117762,208.543614 539.170389,186.22143 539.195285,175.932995 C539.223962,163.649284 539.238773,157.331857 543.315634,150.517345 C556.90034,127.808399 598.971706,127.362377 613.36378,140.557043" id="Fill-42" fill="#DB9C94"></path>
                    <path d="M141.608609,408.514257 C146.146823,411.341685 154.561159,407.936478 158.286018,406.429462 C163.558174,404.295494 165.37554,402.178233 168.70932,400.173816 C180.214155,393.256231 188.103482,400.720074 203.10628,397.045678 C215.438652,394.025657 227.985627,384.604363 227.080254,377.236658 C226.380346,371.540824 217.787329,368.269266 216.656321,367.853505 C203.574566,363.041518 195.419584,374.077945 183.962649,369.233807 C177.264521,366.40165 178.044157,361.781311 170.793918,359.512749 C161.164118,356.499032 151.785162,362.145693 150.98977,362.640572 C134.364672,372.975027 133.012441,403.159165 141.608609,408.514257" id="Fill-44" fill="#0081A3"></path>
                    <path d="M334.716731,329.545066 C347.103305,319.199578 363.198666,307.654403 383.233806,297.325936 C416.152167,280.356323 446.678678,273.387673 468.392525,270.328881 C471.390374,270.036682 489.601216,268.556459 503.420694,281.664127 C516.565475,294.131919 520.38834,314.725811 512.692504,333.188256 C471.299616,344.928545 427.303424,356.077502 380.823677,366.163573 C318.188064,379.755402 258.700933,389.756366 203.06629,397.057561 C210.108542,395.997512 215.545198,390.215311 216.164432,383.15399 C216.790914,376.010399 212.334004,369.308102 205.472007,367.111407 C218.486639,358.504299 236.560398,348.467401 259.46891,340.90868 C289.787748,330.904248 316.515029,329.219769 334.716731,329.545066" id="Fill-46" fill="#00377D"></path>
                    <path d="M276.867877,413.59455 C281.406091,416.421978 289.820427,413.016771 293.544971,411.50944 C298.817443,409.375787 300.634808,407.258211 303.968589,405.253794 C315.473423,398.336208 323.36275,405.800367 338.365234,402.125971 C350.69792,399.10595 363.244581,389.684656 362.339522,382.316636 C361.639299,376.620802 353.046598,373.349244 351.915905,372.933483 C338.833835,368.121496 330.678852,379.158238 319.221602,374.3141 C312.523789,371.481628 313.30311,366.861289 306.052871,364.593042 C296.423386,361.579325 287.044116,367.225986 286.249038,367.720549 C269.62394,378.055005 268.271709,408.239142 276.867877,413.59455" id="Fill-48" fill="#0081A3"></path>
                    <path d="M567.294524,352.767141 C567.294524,352.767141 558.454129,337.965538 541.53911,332.15749 C520.871816,325.061495 494.033294,335.565218 475.604381,358.949974 C468.665492,358.387955 459.172459,357.861556 447.892313,357.989846 C443.064493,358.044692 432.118387,358.285512 415.96,360.050055 C385.173821,363.413339 353.864838,370.30098 340.249565,373.444563 C340.593058,383.919602 340.936237,394.394326 341.279731,404.86968 C345.054065,404.878506 350.581163,404.971808 357.245888,405.384732 C369.964295,406.172756 379.686744,407.682609 384.542611,408.475675 C407.925397,412.295698 427.341933,417.283887 450.982182,421.870184 C479.451511,427.392968 493.975309,430.122681 508.151202,428.567123 C519.265903,427.347263 537.554582,425.216447 553.474415,411.566934 C559.004349,406.824924 568.338555,398.587872 571.554161,384.357113 C574.966409,369.253854 569.354225,356.839016 567.294524,352.767141" id="Fill-50" fill="#004DA7"></path>
                    <path d="M439.27311,252.524404 C435.578504,255.501242 437.238933,262.805274 437.556271,264.202282 C439.39286,272.282045 446.055063,276.526339 447.857302,277.597106 C450.604307,270.842168 453.351312,264.087861 456.098631,257.333239 C450.003035,251.197688 442.673068,249.785234 439.27311,252.524404" id="Fill-52" fill="#E0ADA6"></path>
                    <path d="M538.851413,123.039505 C526.061786,123.118303 518.243048,130.591603 499.706991,146.395888 C468.926484,172.639907 453.536073,185.761444 447.170409,190.015195 C440.165973,194.69574 429.690674,201.204499 420.730844,213.713899 C413.596258,223.675147 412.052742,230.977603 412.490146,237.069025 C412.701284,240.018755 413.075661,245.227905 415.923823,248.403009 C426.454585,260.143299 466.943359,239.765957 482.538291,231.917242 C501.254604,222.497209 530.713447,207.290562 545.032095,181.428576 C548.923658,174.400352 551.729908,166.525791 553.273424,162.195129 C559.065233,145.942932 562.232308,137.055287 558.080761,130.596647 C553.167854,122.954079 540.781596,123.029099 538.851413,123.039505" id="Fill-54" fill="#035D72"></path>
                    <path d="M622.291497,148.799895 C609.240941,149.655689 600.969044,161.553268 595.508439,169.407656 C587.522366,180.893886 584.847212,191.061911 580.743249,207.531603 C568.06833,258.400412 572.862746,244.592348 562.544383,293.052958 C559.62122,306.781903 557.523072,315.93653 560.827545,327.398805 C564.024242,338.486296 568.862147,339.891184 572.159057,352.814454 C573.616857,358.529831 576.574685,370.809759 571.472069,384.412621 C567.692693,394.489235 561.156542,400.849215 557.394183,403.989962 C562.585035,402.108792 570.006076,398.640543 576.6229,391.968821 C587.613755,380.886373 588.621546,368.792419 592.761434,354.53203 C597.501017,338.203237 599.645805,342.119084 625.038502,294.42664 C637.778654,270.498779 644.148415,258.535006 648.044705,248.402915 C666.925832,199.304952 657.808436,176.868347 655.255868,171.468179 C654.144398,169.118609 651.327434,163.313082 645.297701,158.073356 C643.14661,156.204164 633.761037,148.048121 622.291497,148.799895" id="Fill-56" fill="#035D72"></path>
                    <path d="M471.206999,185.550097 C471.206999,185.550097 462.319965,189.708024 457.471976,196.998817 C448.290293,210.806565 453.040907,229.399822 461.592325,261.111149 C467.621429,283.468007 470.646695,285.636648 469.833339,296.143838 C469.168411,304.73487 466.449138,312.067587 470.520012,320.872961 C471.381897,322.73711 474.430483,329.330975 480.134685,330.489685 C485.847711,331.650286 491.285942,326.762019 494.556381,323.620642 C516.729375,302.323834 528.462366,291.054467 533.701118,270.041032 C540.713118,241.913951 535.799581,220.774117 541.942132,219.209102 C545.683063,218.255909 550.832318,225.517703 554.847098,232.35365 C557.183801,227.743082 559.520819,223.132514 561.857837,218.522261 C564.090861,218.760875 567.144804,219.036683 570.785208,219.209102 C579.331585,219.613516 580.0983,218.925729 580.399882,218.522261 C582.210945,216.100192 577.523043,209.554238 573.532528,204.097018 C563.887601,190.907396 559.038667,184.295878 557.737172,183.489257 C552.663549,180.344098 549.69154,181.238662 533.701118,180.741577 C508.129111,179.946934 496.296854,177.054888 481.60383,181.284683 C476.955635,182.623062 473.595699,184.220858 471.206999,185.550097" id="Fill-58" fill="#FFFFFF"></path>
                    <path d="M458.845447,348.349608 C452.48451,348.653785 447.895244,346.20114 446.827262,345.601927 C440.698577,342.163938 438.162396,336.737924 436.526231,333.237523 C433.16598,326.048857 433.330164,319.607868 433.435733,316.751441 C433.492772,315.206599 433.734793,311.185158 436.182737,303.700195 C437.96796,298.241399 441.033878,290.609549 446.483768,282.062015 C458.044382,286.183378 469.60468,290.305057 481.164662,294.426735 C482.763011,300.143688 483.161653,304.905241 483.224995,308.165137 C483.324892,313.307148 482.602924,315.344661 481.85165,316.751441 C481.166553,318.033713 480.438599,318.826464 477.387807,321.903539 C475.240813,324.068712 473.22523,326.072183 471.365321,327.902604 C472.200106,327.743738 474.792696,327.356661 476.521194,328.882275 C479.239837,331.282279 477.576256,336.43091 477.387807,337.015308 C475.139971,343.973871 466.22426,347.996573 458.845447,348.349608" id="Fill-60" fill="#E0ADA6"></path>
                    <path d="M489.748981,188.298029 C493.186755,190.043659 498.083589,192.323568 504.170992,194.479916 C512.844682,197.552577 517.278587,199.065898 522.026364,197.914753 C528.964308,196.23248 535.249298,189.893934 534.387412,185.550034 C534.010199,183.646484 532.432964,182.997153 529.439527,180.368937 C525.138922,176.592413 522.37364,172.646937 520.652389,169.751108 C510.351673,175.932995 500.050327,182.115827 489.748981,188.298029" id="Fill-62" fill="#DB9C94"></path>
                    <path d="M468.493272,125.1364 C465.389539,131.825459 465.24962,141.087572 469.008513,147.803424 C471.406667,152.08838 473.616687,152.164661 475.70412,157.076254 C478.433793,163.500222 475.869249,166.229935 477.764137,173.046338 C478.295135,174.956192 480.663036,182.537294 487.549928,186.955899 C494.41224,191.359059 502.182446,190.325488 508.151359,189.53179 C511.210345,189.124855 514.271536,188.717604 517.936835,186.955899 C519.423312,186.241319 528.468857,181.718695 531.327734,172.531286 C532.913793,167.434981 530.963441,166.148926 530.812808,155.016045 C530.690852,146.014925 531.948544,145.619338 531.842659,139.045645 C531.732363,132.181961 531.529733,119.606051 523.602276,112.772626 C516.487228,106.639282 506.511728,108.030301 498.365569,109.166316 C490.176867,110.308319 474.349999,112.5151 468.493272,125.1364" id="Fill-64" fill="#E0ADA6"></path>
                    <path d="M504.030853,115.86357 C491.830522,118.093676 488.624055,117.31574 481.884329,120.499985 C478.141193,122.268625 473.546885,124.517014 471.583613,129.257763 C470.434642,132.033182 470.808704,134.161161 471.583613,141.106485 C471.9936,144.778989 472.565879,150.253861 473.128705,157.076254 C470.807128,155.903675 466.790142,153.448509 463.858155,148.833843 C458.3153,140.110108 460.930895,130.411114 461.797823,127.197239 C463.944186,119.240093 468.5886,114.368847 471.583613,111.227155 C474.306038,108.371357 480.831474,101.700896 491.669804,98.8630658 C495.218189,97.9341436 506.45012,94.9932399 515.87666,100.923905 C516.953781,101.60129 523.307155,105.59846 522.572267,109.166316 C521.878347,112.534958 515.216144,113.819122 504.030853,115.86357" id="Fill-66" fill="#2C3A64"></path>
                    <path d="M479.96297,252.181172 C482.066791,252.722072 485.795746,251.114189 490.092569,249.261703 C493.054494,247.98479 495.146339,246.704724 498.848509,246.17076 C499.751046,246.040578 501.296138,245.826866 503.312352,245.99897 C504.53916,246.10362 508.607198,246.57864 512.240038,249.261703 C514.319909,250.797403 514.850591,252.018209 517.390869,255.615694 C517.390869,255.615694 520.94272,260.645806 525.803629,266.091048 C530.927989,271.831642 533.489696,274.701624 536.104345,275.19272 C542.490808,276.392407 550.991491,265.615712 557.908951,249.948544 C556.584766,247.651298 555.457225,245.778954 554.64702,244.453183 C552.826188,241.475085 552.380592,240.890372 552.071448,240.503294 C550.174039,238.128192 549.140406,237.850177 547.779351,236.210458 C546.734059,234.950566 545.535297,232.935117 545.032032,229.684677 C546.278378,231.346776 547.417895,232.670971 548.294592,233.634251 C550.604509,236.174208 551.903482,237.110065 553.101614,237.755614 C554.392079,238.450966 555.508906,239.033788 556.47321,238.601006 C557.872395,237.973424 558.03784,235.618809 558.080698,235.008249 C558.501083,229.032194 552.101385,223.825565 549.78296,221.939352 C547.589327,220.154636 544.99264,218.091275 541.083744,217.319958 C538.244721,216.760146 536.123884,217.160147 533.872581,217.491747 C530.198459,218.033907 524.906134,218.582687 518.077541,218.522167 C509.85512,217.521377 500.450009,216.951793 490.092569,217.319958 C484.674507,217.512866 479.570001,217.941551 474.812455,218.522167 C474.282403,229.257253 473.879034,250.616788 479.96297,252.181172" id="Fill-68" fill="#E0ADA6"></path>
                    <path d="M483.568236,254.998987 C481.508219,242.610942 479.447887,230.222897 477.38787,217.835168 C461.917415,216.727522 450.8295,214.3458 443.277049,212.230429 C440.84108,211.548316 437.160655,210.442246 432.440924,211.168489 C425.51275,212.235157 418.396757,216.93556 414.713811,224.263548 C413.767785,226.145348 410.349864,233.218332 412.962308,241.372169 C416.654708,252.897171 429.063026,256.17724 430.380907,256.502851 C437.735455,258.318772 442.042993,255.647373 450.982339,253.927275 C458.435523,252.492757 469.341292,251.675104 483.568236,254.998987" id="Fill-70" fill="#0081A3"></path>
                    <path d="M454.038141,202.951862 C447.250201,207.377402 446.859437,207.202146 445.568027,208.67638 C441.555137,213.258894 441.653458,219.150158 441.676463,219.895944 C441.867118,226.017626 445.436617,229.973504 446.712901,231.344665 C447.952945,232.67737 452.004911,236.645541 458.387592,237.298025 C464.558819,237.929074 469.129807,235.074222 471.435627,233.634346 C482.49392,226.729053 484.747113,213.401054 485.170966,210.508377 C484.315383,210.936116 479.408464,213.298611 475.327506,211.194903 C470.449895,208.681108 468.061195,200.462023 472.122615,192.41914 C467.481668,194.457284 463.944942,196.469266 461.592483,197.914816 C458.871319,199.586687 458.832873,199.826561 454.038141,202.951862" id="Fill-72" fill="#A05FA6"></path>
                    <path d="M493.182816,197.456659 C492.257904,199.466434 491.130047,201.626879 489.749139,203.868018 C487.120939,208.133117 484.285697,211.537694 481.737226,214.171583 C481.071352,214.390339 474.832056,216.342746 470.749207,213.026743 C466.290406,209.405302 465.616339,200.485506 471.615505,193.511183 C473.019732,192.628912 475.159478,191.332455 477.845347,189.900459 C485.565448,185.785085 486.877972,186.369483 489.978239,183.718257 C493.97033,180.304224 493.418849,177.945512 497.30348,176.162372 C499.827686,175.003663 502.213235,175.011543 503.942048,175.017532 C507.215953,175.028564 510.39847,175.039281 512.411848,177.307213 C515.066834,180.298235 513.722166,185.000214 513.556092,185.550254 C513.98152,186.157663 514.50716,187.037727 514.894457,188.175318 C516.415914,192.642466 514.910214,198.454927 512.411848,199.059499 C511.152896,199.364306 509.687533,198.335778 508.978171,197.227502 C508.138345,195.916231 508.146223,194.162721 508.978171,192.64814 L506.230851,192.64814 C505.83473,193.628441 504.933138,195.427656 503.02596,196.769502 C498.773255,199.762416 493.577676,197.626557 493.182816,197.456659" id="Fill-74" fill="#E0ADA6"></path>
                    <path d="M542.329555,203.059317 L534.395165,193.551656 C533.384852,192.340936 533.503656,190.484353 534.659245,189.426195 C535.814834,188.367722 537.58682,188.49223 538.597133,189.702949 L546.531839,199.21061 C547.541836,200.42133 547.423347,202.277913 546.267758,203.336071 C545.111855,204.394544 543.339868,204.270036 542.329555,203.059317" id="Fill-76" fill="#DB9C94"></path>
                    <path d="M539.481362,194.537253 C539.209088,194.696118 538.583236,195.050729 537.764208,194.995252 C536.868918,194.934732 535.791167,194.386898 535.532444,193.506833 C535.424984,193.141505 535.45114,192.692332 536.505571,190.931257 C537.492249,189.282081 537.985431,188.457809 538.508234,188.011787 C539.642709,187.043779 540.924035,186.831959 543.487003,186.408948 C545.408362,186.091532 546.232117,186.222659 546.749248,186.351264 C547.373525,186.507293 547.92532,186.753787 548.923973,187.381999 C551.101535,188.751584 551.279269,189.341656 553.273424,190.759468 C555.048877,192.021566 555.611702,192.054033 556.821494,193.277991 C557.300809,193.762783 557.850399,194.326377 558.309546,195.166726 C559.197903,196.793206 559.073111,198.22142 559.167966,199.574614 C559.307569,201.566737 559.99172,202.892508 560.999197,205.470921 C561.620007,207.058946 561.788287,207.832155 562.544604,208.447444 C563.554286,209.268564 564.565544,209.144687 565.272385,209.359344 C568.851968,210.446817 571.912844,222.44148 566.074396,228.610444 C565.162719,229.573093 563.319198,231.150401 560.026385,231.91699 C558.562282,230.750085 556.846389,229.142517 555.219048,226.994365 C552.198824,223.006336 550.898275,219.022089 550.297318,216.461643 C549.819263,216.006165 549.138893,215.342965 548.351379,214.515225 C546.819523,212.904189 545.400799,211.215613 544.803624,210.393862 C541.367111,205.666351 542.424063,198.405818 542.628584,196.999038 C542.858945,195.417002 543.36095,193.1103 544.574523,190.472942 C543.576816,190.430704 542.926383,190.685709 542.514506,190.931257 C540.98202,191.842527 541.193158,193.537724 539.481362,194.537253" id="Fill-78" fill="#E0ADA6"></path>
                    <path d="M551.741662,194.597584 L544.525772,194.826741 C544.228918,194.925401 543.807902,195.107908 543.406739,195.465986 C541.482859,197.18104 542.566282,200.641409 541.459224,201.066626 C540.842511,201.303979 539.89743,200.462055 539.49028,199.657325 C539.070839,198.827694 539.213594,198.020758 539.386917,197.117368 C539.920435,194.331862 541.650824,192.480322 542.448108,191.733906 C543.079002,191.143519 543.668298,190.735323 544.088369,190.474014 C544.623148,190.469708 545.374738,190.46708 546.274754,190.474014 C549.659586,190.500807 550.134174,190.630673 550.539119,190.932013 C550.834082,191.15203 551.799016,191.990487 551.741662,194.597584" id="Fill-80" fill="#DB9C94"></path>
                    <path d="M553.273298,199.173983 C550.755394,199.670122 548.237175,200.165947 545.718956,200.662402 C545.230817,200.928754 544.652235,201.327178 544.11651,201.921663 C542.33507,203.900548 543.035293,206.762334 542.51438,206.844604 C542.127713,206.905439 541.423078,205.420172 541.14072,203.868081 C540.514238,200.419375 542.16868,197.723389 542.628773,196.999038 C543.1229,196.220471 543.597173,195.493913 544.514837,195.032762 C545.432186,194.571926 545.838391,194.855929 547.787482,194.740247 C550.544886,194.576023 551.409293,193.908095 552.58631,194.594621 C552.741355,194.684771 553.376031,195.075 553.731184,195.853882 C554.435189,197.397147 553.379497,199.016378 553.273298,199.173983" id="Fill-82" fill="#F0BEB4"></path>
                    <path d="M547.893902,206.157542 C548.122372,207.073225 547.891066,207.947931 547.321622,208.332802 C546.557743,208.849115 545.515286,208.26188 545.032189,207.989539 C544.916221,207.923975 542.97942,206.790798 542.896225,204.703166 C542.796013,202.196305 545.468332,200.789526 545.719177,200.662181 C546.774868,200.126955 546.77739,200.604813 549.198548,199.976916 C551.206253,199.45619 551.920027,198.942083 553.273203,199.174077 C553.621424,199.233652 554.319756,199.360997 554.990357,199.860919 C556.626206,201.080464 556.59942,203.401666 556.592802,203.982597 C556.573264,205.651631 555.891004,208.366214 554.074583,208.905222 C553.263119,209.146042 552.52634,208.863615 551.442287,208.447538 C549.7286,207.790011 548.557885,206.807819 547.893902,206.157542" id="Fill-84" fill="#F0BEB4"></path>
                    <path d="M627.098803,179.024285 C605.236843,194.478056 592.761402,206.844667 592.761402,206.844667 C567.421017,231.963074 554.75114,244.522593 550.182988,253.898496 C548.774664,256.788967 544.946442,265.224285 537.82131,266.606479 C534.647932,267.222083 532.235912,266.163609 529.237117,265.232481 C519.499542,262.208362 513.061713,263.470145 505.887736,263.171642 C497.968156,262.842248 483.685749,260.38393 455.75498,250.807238 C451.139243,256.006932 448.097905,260.901819 446.140621,264.54564 C440.491882,275.061341 441.389378,279.775928 441.676463,281.031722 C442.157669,283.133853 443.035627,284.760019 443.73711,285.839926 C455.183646,289.852542 467.089959,293.763345 479.447855,297.517804 C500.547826,303.927903 520.865009,309.243279 540.225136,313.660308 C541.439654,313.156604 543.376455,312.335483 545.719145,311.255891 C566.541799,301.662493 580.031335,289.836151 586.580721,284.122665 C633.358267,243.317547 639.901666,240.648984 651.135172,223.330749 C658.516506,211.950744 665.02587,198.712579 662.466684,184.176382 C661.887787,180.888748 660.196789,171.288416 653.538683,168.377457 C647.907906,165.915356 640.970278,169.219381 627.098803,179.024285" id="Fill-86" fill="#0081A3"></path>
                    <path d="M562.599248,208.557326 C562.351239,209.0459 565.48554,210.054885 567.351751,213.026995 C569.716186,216.792171 569.146743,222.278076 566.664764,226.07824 C565.724095,227.519063 564.382579,229.573282 562.331701,229.947121 C558.544446,230.638375 553.424183,225.400855 550.302801,216.578459 C550.239775,219.305651 550.465409,225.957515 554.847003,232.353744 C557.757876,236.602767 561.174536,238.815222 563.66849,240.374878 C567.446606,242.738003 577.088696,248.768589 582.231334,245.312003 C587.929233,241.481894 584.337045,228.533722 582.460119,221.72772 C580.427834,214.35907 577.713603,212.587593 576.279438,211.882154 C574.828255,211.16789 574.375726,211.505794 569.281934,210.161426 C565.042465,209.042748 562.811962,208.137467 562.599248,208.557326" id="Fill-88" fill="#A05FA6"></path>
                    <path d="M427.59845,364.148533 C425.540009,361.105502 424.530957,356.426533 426.225106,352.470971 C429.704162,344.348655 444.197392,340.182532 462.116421,345.466702 C462.97358,347.577975 464.028326,350.814545 464.339362,354.875388 C464.511798,357.118733 464.737688,360.069408 463.996183,362.088009 C460.819654,370.736095 435.117182,375.264393 427.59845,364.148533" id="Fill-90" fill="#7A9C49"></path>
                    <path d="M463.961424,362.031335 C473.623052,359.933301 480.791042,357.292792 485.628632,355.218714 C485.628632,355.218714 497.293238,350.376467 505.357148,347.984343 C506.546141,347.631308 507.800366,347.31074 509.321507,346.975673 C518.988493,344.846118 523.408217,344.964006 525.803535,344.228308 C530.076093,342.91546 534.711053,336.326953 535.868217,312.566469 C532.798832,310.898065 513.651734,307.304363 512.077651,306.951959 C506.813688,307.371187 502.820652,308.785532 500.315668,309.892862 C496.047207,311.779706 490.476305,314.242752 488.375951,319.842447 C487.409127,322.418969 487.491376,324.822125 487.688964,326.368228 C485.796912,327.024178 482.977742,328.227963 480.134622,330.489906 C476.189801,333.628446 475.294512,336.342084 472.237102,339.419788 C470.109647,341.561321 466.563783,344.252264 460.562411,345.945253 C456.922953,348.091514 455.263784,352.392546 456.476727,356.148897 C457.507523,359.340707 460.458418,361.664116 463.961424,362.031335" id="Fill-92" fill="#DB9C94"></path>
                    <path d="M535.304635,83.6432742 C525.764333,95.8664645 525.811287,109.502739 525.909293,114.921188 C526.132722,127.283071 530.598456,136.576074 533.382331,141.329747 C536.981452,147.476016 547.053697,164.676047 565.102246,165.846735 C583.723389,167.054617 596.090739,150.242924 597.302737,148.540793 C611.471381,128.640678 601.399136,103.887913 599.225041,98.5454292 C596.493163,91.8320993 587.123662,68.8069979 567.505441,66.8180266 C550.686538,65.1127437 538.1008,80.0609193 535.304635,83.6432742" id="Fill-94" fill="#DB9C94"></path>
                    <path d="M544.03508,81.3977224 C534.494778,93.6209127 534.541732,107.256872 534.639738,112.675636 C534.863167,125.037519 539.329216,134.330838 542.112776,139.084511 C545.711897,145.230464 555.784142,162.430495 573.832691,163.601183 C592.453834,164.809066 604.821184,147.997372 606.033182,146.295241 C620.201826,126.395126 610.129266,101.642362 607.955486,96.3001927 C605.223608,89.5865475 595.854107,66.5614461 576.235886,64.5724748 C559.417298,62.8671919 546.831246,77.8150523 544.03508,81.3977224" id="Fill-96" fill="#E0ADA6"></path>
                    <path d="M547.319952,102.391299 C545.712149,104.512658 542.617869,108.728269 537.227223,110.563733 C531.334572,112.569726 528.004258,110.482725 525.891614,112.784068 C524.595792,114.196207 523.751239,117.345464 527.245736,125.410412 C520.997931,125.138386 515.589953,121.293777 513.677733,115.851686 C511.31771,109.136465 514.657793,101.064583 521.847842,97.5843558 C521.707923,95.4084652 521.656242,92.0193337 522.328418,87.9698385 C523.030217,83.7450868 525.036977,71.6605887 533.86319,65.8566379 C537.734586,63.3103763 539.174738,64.4347283 545.397332,60.5683697 C549.649722,57.9265997 550.294167,56.582862 553.567757,54.3190281 C560.001804,49.8695321 566.508332,48.8375365 571.350019,48.0696864 C578.262752,46.9737033 584.794175,45.9379252 592.016053,49.0313903 C598.769959,51.924067 602.695242,56.9579612 604.504414,59.6741206 C565.048326,73.3129164 554.273022,83.2978047 552.688539,90.2308356 C552.406811,91.4645652 551.412885,96.9898708 547.319952,102.391299" id="Fill-98" fill="#6A330D"></path>
                    <path d="M567.405607,72.2667994 C563.81468,73.8885518 557.908163,76.556169 553.935925,81.9973137 C552.000385,84.6482248 549.498868,89.3621815 549.722927,102.872057 C549.938477,115.889259 549.96936,125.699206 555.489841,136.041857 C566.931019,157.476412 589.293092,163.066021 592.977299,163.923705 C590.623579,167.215122 588.435619,171.045862 586.729179,175.461315 C577.719559,198.777355 588.580579,221.718295 592.016147,228.34053 C593.015745,223.969521 594.434154,217.932946 596.242696,210.755943 C600.749397,192.871591 602.093434,190.067804 604.03118,187.479304 C610.142218,179.316641 615.930245,181.617355 623.255486,174.980306 C634.954757,164.379813 634.204113,145.809882 633.828476,136.522552 C632.920581,114.066088 621.113219,98.838637 616.046214,92.2961506 C609.544413,83.9005481 597.122229,67.8604871 581.623413,68.5240029 C575.20197,68.7991807 568.111503,71.9481227 567.405607,72.2667994" id="Fill-100" fill="#6A330D"></path>
                    <path d="M649.20792,155.270924 C647.901698,148.712046 643.685234,147.895969 640.557235,138.926055 C638.727264,133.679394 639.477593,131.973481 638.154354,121.139419 C637.113158,112.618678 636.463987,107.306769 634.790006,101.910699 C632.560763,94.7261314 627.185874,87.7294283 616.526853,74.0288515 C608.575445,63.8085018 604.501105,58.7093592 601.628048,57.6842982 C586.78313,52.3872042 567.085497,74.1060778 563.414525,78.254864 C567.655885,70.2838486 570.827688,68.7639088 572.94758,68.8631998 C573.478892,68.8881013 573.251367,68.9883379 580.198449,71.5661204 C585.269236,73.4476054 587.520539,74.2646281 588.171286,74.5095458 C595.479194,77.2603783 611.809013,87.2449514 618.930049,104.314171 C624.187079,116.915928 618.578992,119.366051 624.697277,130.753936 C629.867016,140.376649 635.411761,141.494066 640.076343,150.944359 C644.265391,159.430427 644.459828,167.979852 643.921267,174.018948 C649.747111,165.356994 649.994174,159.219237 649.20792,155.270924" id="Fill-102" fill="#6A330D"></path>
                    <path d="M656.306077,215.27551 L673.191473,218.845256 C674.48572,219.118858 675.769252,218.283238 676.042786,216.988673 L676.533762,214.665264 C676.807296,213.370384 675.971567,212.086851 674.67732,211.813565 L657.792239,208.243503 C656.497362,207.969901 655.21446,208.805521 654.94061,210.100402 L654.449635,212.423495 C654.1761,213.718375 655.01183,215.001908 656.306077,215.27551" id="Fill-104" fill="#E0ADA6"></path>
                    <path d="M656.255908,207.450688 L673.123026,206.999624 C675.098588,206.946669 676.671411,205.287091 676.618469,203.311043 L676.591053,202.284721 C676.538111,200.308989 674.878941,198.735779 672.90338,198.788734 L656.036576,199.239483 C654.061329,199.292439 652.488191,200.952331 652.541133,202.927749 L652.568549,203.954386 C652.621176,205.930118 654.280346,207.503644 656.255908,207.450688" id="Fill-106" fill="#E0ADA6"></path>
                    <path d="M638.308453,202.588646 L654.335746,207.865567 C656.212671,208.483693 658.253781,207.453588 658.871439,205.576201 L659.192559,204.600628 C659.810532,202.723241 658.780366,200.681314 656.903441,200.063504 L640.876148,194.786268 C638.999223,194.168142 636.958113,195.198877 636.34014,197.076264 L636.019335,198.051207 C635.401047,199.928909 636.431528,201.970521 638.308453,202.588646" id="Fill-108" fill="#E0ADA6"></path>
                    <path d="M660.332012,197.275634 L677.198816,196.82457 C679.174378,196.771614 680.747201,195.112037 680.694574,193.135989 L680.666843,192.109667 C680.614216,190.133935 678.955046,188.560725 676.979484,188.61368 L660.112365,189.064429 C658.137119,189.117384 656.564296,190.777277 656.616923,192.752694 L656.644654,193.779332 C656.697281,195.755064 658.356451,197.328589 660.332012,197.275634" id="Fill-110" fill="#E0ADA6"></path>
                    <path d="M636.029892,191.530754 L655.956627,196.630527 C658.035552,197.1626 660.171831,195.896404 660.703773,193.816968 L660.804931,193.421065 C661.336873,191.341628 660.070989,189.204508 657.992379,188.673065 L638.065329,183.572977 C635.986089,183.040904 633.850125,184.3071 633.318183,186.386536 L633.21671,186.782754 C632.685083,188.861876 633.950652,190.99868 636.029892,191.530754" id="Fill-112" fill="#E0ADA6"></path>
                    <path d="M659.748514,188.433475 L674.885559,185.793281 C677.240855,185.382563 678.831641,183.119044 678.421024,180.763484 L678.053895,178.658516 C677.642963,176.302956 675.380316,174.711779 673.025336,175.122497 L657.888291,177.762691 C655.532995,178.173408 653.942209,180.436927 654.352826,182.792487 L654.719955,184.897455 C655.130572,187.253331 657.393219,188.844508 659.748514,188.433475" id="Fill-114" fill="#E0ADA6"></path>
                    <path d="M639.397234,183.396271 L655.424527,188.673191 C657.301452,189.291317 659.342246,188.260897 659.96022,186.383825 L660.281339,185.408252 C660.899313,183.530865 659.868832,181.488939 657.992221,180.871128 L641.964929,175.593892 C640.088318,174.975767 638.046894,176.006501 637.42892,177.883889 L637.107801,178.858831 C636.489827,180.736534 637.520309,182.778145 639.397234,183.396271" id="Fill-116" fill="#E0ADA6"></path>
                </g>
            </g>
        </g>
    </g>
</svg>