<?xml version="1.0" encoding="UTF-8"?>
<svg width="816px" height="737px" viewBox="0 0 816 737" version="1.1" xmlns="http://www.w3.org/2000/svg" xmlns:xlink="http://www.w3.org/1999/xlink">
    <title>HERO_family_with_doctor</title>
    <defs>
        <polygon id="path-1" points="0.127556155 0.514214815 62.8869277 0.514214815 62.8869277 42 0.127556155 42"></polygon>
        <polygon id="path-3" points="0.127346155 0.514162963 62.8049625 0.514162963 62.8049625 42 0.127346155 42"></polygon>
        <polygon id="path-5" points="0.3084375 0.126372093 74.7847811 0.126372093 74.7847811 65.492107 0.3084375 65.492107"></polygon>
        <polygon id="path-7" points="0.345072794 0.126666667 70.5780096 0.126666667 70.5780096 59.9425641 0.345072794 59.9425641"></polygon>
        <polygon id="path-9" points="0 0.0998240819 19.7506727 0.0998240819 19.7506727 38.5841575 0 38.5841575"></polygon>
    </defs>
    <g id="Patient-PBD-ZSD-Layout-(DSK)" stroke="none" stroke-width="1" fill="none" fill-rule="evenodd">
        <g id="3-0_StartingCHOLBAM" transform="translate(-610.000000, -185.000000)">
            <g id="HERO_family_with_doctor" transform="translate(610.000000, 185.237198)">
                <rect id="Rectangle" x="0" y="0.762801797" width="816" height="735"></rect>
                <g id="Group-170">
                    <path d="M605.002476,129.100532 C607.648166,130.07212 614.778172,133.676397 617.580034,132.545532 C622.497935,130.560739 618.255584,131.474782 618.946546,127.028394 C620.603827,116.366619 620.238567,104.799022 618.321855,94.0971709 C616.946096,86.4128421 614.844956,78.8708347 612.093439,71.5672286 C609.610086,64.9747157 604.411177,59.5577674 603.089874,52.6765013 C602.292057,48.5204077 602.333155,44.2502515 601.799907,40.0520266 C598.195604,11.6853649 570.879242,-4.04089451 544.23843,2.07276077 C521.431556,7.30731157 511.607571,30.7333137 513.157996,52.4699554 C514.737704,74.6202027 517.471755,98.9366128 530.245043,117.817578 C534.214605,123.684097 535.139826,124.07561 541.777682,123.839778 C548.455095,123.602404 555.082676,122.7382 561.785775,122.693499 C573.860909,122.61232 587.518833,123.137419 599.116202,126.833151 C599.400292,126.92358 601.853848,127.944492 605.002476,129.100532" id="Fill-1" fill="#C65447"></path>
                    <g id="Group-5" transform="translate(539.000000, 688.762802)">
                        <mask id="mask-2" fill="white">
                            <use xlink:href="#path-1"></use>
                        </mask>
                        <g id="Clip-4"></g>
                        <path d="M16.1316225,0.514214815 C16.1316225,0.514214815 -1.5498525,24.5039926 0.2571975,30.3637704 C2.0637225,36.2240667 -0.1880025,42.1175481 3.4308225,41.9982889 C22.8027975,41.3558444 42.1238475,40.264363 61.4223225,38.5148815 C62.6959725,32.2029556 63.9333975,25.4570296 61.4700975,19.4987333 C57.4207725,9.70651111 26.8400475,4.78628889 16.1316225,0.514214815" id="Fill-3" fill="#0081A3" mask="url(#mask-2)"></path>
                    </g>
                    <g id="Group-8" transform="translate(539.000000, 688.762802)">
                        <mask id="mask-4" fill="white">
                            <use xlink:href="#path-3"></use>
                        </mask>
                        <g id="Clip-7"></g>
                        <path d="M11.2420875,26.3348296 C7.5802125,22.718163 11.2378875,10.4458667 17.5268625,1.0332 C17.0354625,0.858977778 16.5619125,0.685792593 16.1314125,0.514162963 C16.1314125,0.514162963 -1.5500625,24.5039407 0.2569875,30.364237 C2.0640375,36.2240148 -0.1876875,42.1174963 3.4300875,41.998237 C22.8025875,41.3557926 42.1241625,40.2643111 61.4226375,38.5148296 C62.0253375,35.5266074 62.6075625,32.4403852 62.8049625,29.3868296 C45.0851625,33.7169778 27.0314625,34.1317926 11.2420875,26.3348296" id="Fill-6" fill="#035D72" mask="url(#mask-4)"></path>
                    </g>
                    <path d="M509.617568,689.067109 L503.742497,710.575283 C503.742497,710.575283 487.021381,715.543927 482.932136,720.697108 C478.842891,725.851318 482.51546,728.425596 482.51546,728.425596 L537.551986,728.762802 L554,713.36237 L544.681765,683.762802 L509.617568,689.067109 Z" id="Fill-9" fill="#0081A3"></path>
                    <path d="M553,713.36237 L543.758158,683.762802 L539.328905,684.438241 C539.054946,702.079857 530.847027,719.479878 517,728.64149 L536.686831,728.762802 L553,713.36237 Z" id="Fill-11" fill="#035D72"></path>
                    <path d="M557.331163,324.762802 L564.754847,551.368647 C564.754847,551.368647 551.083947,697.016723 551.005207,697.857272 C550.413886,704.162421 600.37206,702.697906 605.151008,702.415833 C614.067148,657.75122 614.299251,610.550006 617.905334,565.113429 L628,465.109746 L610.629867,344.777152 L557.331163,324.762802 Z" id="Fill-13" fill="#40628F"></path>
                    <path d="M567,526.610956 C567,526.610956 610.597943,544.449229 622,535.004036 L621.349214,498.762802 L567,507.252731 L567,526.610956 Z" id="Fill-15" fill="#2D4A70"></path>
                    <polygon id="Fill-17" fill="#40628F" points="491.011449 310.762802 471 509.094602 507.124296 701.762802 550.775218 694.180028 554.576742 652.535149 541.460398 526.623122 564 422.665739 554.48173 311.732451"></polygon>
                    <path d="M472,520.206854 C477.792866,522.476696 516.337823,531.484712 525.303366,520.206854 C528.192557,516.573039 529.932796,346.697341 529.932796,346.697341 L561,317.762802 L525.303366,318.150588 L497.364351,318.150588 L472,463.772068 L472,520.206854 Z" id="Fill-19" fill="#2D4A70"></path>
                    <path d="M528.087795,135.493557 C527.028833,149.260533 535.648258,163.240081 548.602016,168.762802 C556.982115,163.555059 565.450108,158.278529 572.332835,151.283841 C579.215561,144.289154 584.464838,135.299088 584.959373,125.609242 C585.152634,121.820195 584.622094,118.036319 584.092612,114.278304 C582.330499,101.772792 580.568915,89.2677968 578.806801,76.7628018 C579.228798,79.7641454 558.780763,81.059228 556.565413,81.2873157 C544.781809,82.4996454 540.457536,84.3915832 540.540135,97.0113978 C540.628029,110.539942 529.14411,121.764337 528.087795,135.493557" id="Fill-21" fill="#FFB27D"></path>
                    <path d="M540,101.330865 C540,101.330865 543.965324,105.84968 559.376717,104.516869 C574.787577,103.184059 576.374774,89.5175222 576.374774,89.5175222 L579,76.7628018 L540.4483,96.2315254 L540,101.330865 Z" id="Fill-23" fill="#E8945B"></path>
                    <path d="M527.56334,119.762802 L543.724303,159.961863 C543.724303,159.961863 592.118022,122.311438 592.122169,122.308336 C589.375537,124.444867 592.35598,148.612702 592.385531,151.973654 C592.58357,174.238155 592.78161,196.503173 592.979131,218.768191 C593.171468,240.395145 592.580978,262.191698 593.55355,283.797453 C594.001472,293.750009 598.240659,304.41095 589.707331,311.544443 C578.971719,320.517669 554.079388,319.868747 540.97767,319.669675 C529.142472,319.490252 494.776384,318.887349 491.243814,306.829802 C489.969517,302.482281 494.063545,292.312555 494.918433,287.90919 L507.747976,221.827692 C514.35327,187.806062 520.958046,153.784432 527.56334,119.762802" id="Fill-25" fill="#0081A3"></path>
                    <path d="M485.829672,126.762802 C485.829672,126.762802 450.530343,262.56835 450.005637,270.771114 C449.480416,278.973877 485.829672,343.762802 485.829672,343.762802 L505,136.669097 L485.829672,126.762802 Z" id="Fill-27" fill="#D7E3F2"></path>
                    <path d="M536,108.762802 L487.210464,126.260561 C487.210464,126.260561 469.9515,342.458492 473.180082,353.225071 C476.408147,363.99165 458,503.574945 458,503.574945 C458,503.574945 511.603162,519.630678 521.823641,506.77554 L515.236028,212.707666 L536,108.762802 Z" id="Fill-29" fill="#E0EEFF"></path>
                    <path d="M630.493782,515.135384 C622.558525,517.794908 614.258787,519.147122 605.891881,519.598204 C598.615813,519.981159 591.316834,519.665298 584.131886,518.966999 C580.084592,518.584044 544.386349,513.9411 544.386349,511.281576 C544.386349,511.146354 544,207.584267 544,207.584267 C544,207.584267 571.444326,145.402066 577.674336,133.164019 C583.881436,120.903264 581.40349,99.7628018 581.40349,99.7628018 L611.371062,130.527203 L621.717096,184.933662 L625.445729,241.661075 C625.445729,241.661075 632.881128,323.766746 634.609285,342.991401 C634.609285,343.216942 634.632195,343.442483 634.654585,343.645315 C638.20202,383.108783 641.634904,422.594961 645.114129,462.058946 C646.023247,472.516406 647.160425,482.974383 647.865434,493.431327 C648.820373,507.652792 644.863678,510.312317 630.493782,515.135384" id="Fill-31" fill="#E0EEFF"></path>
                    <path d="M630.593081,514.305002 C622.702835,516.961535 614.450175,518.312227 606.130728,518.762802 L605,517.951871 L639.025911,475.966479 L629.055933,325.762802 L634.68524,342.354664 C634.68524,342.579951 634.708021,342.805238 634.730283,343.007842 C638.257596,382.426918 641.671008,421.868678 645.130498,461.28827 C646.034459,471.733967 647.165187,482.180179 647.866197,492.625361 C648.815719,506.830828 644.881468,509.487361 630.593081,514.305002" id="Fill-33" fill="#CBDCF2"></path>
                    <path d="M594,185.762802 C596.052511,188.639371 622.354209,220.702815 622.354209,220.702815 L627,277.762802 L609.46536,220.119967 L594,185.762802 Z" id="Fill-35" fill="#CBDCF2"></path>
                    <path d="M584.347422,71.1337386 C577.263621,76.8241779 580.238528,88.3783299 572.134345,94.9164032 C564.252209,101.274439 552.293195,103.027465 543.644223,97.2574133 C520.276663,81.6664629 513.524899,8.68408082 555.221111,15.1695998 C572.343482,17.8327005 584.60355,38.686891 580.245758,55.1317195 C588.460447,42.0862729 596.01726,58.369796 589.585655,68.3800988 C588.979933,69.3224347 588.185729,70.3079589 587.060521,70.6040324 C586.172852,70.8355837 585.127167,70.5098508 584.347422,71.1337386" id="Fill-37" fill="#FFB27D"></path>
                    <polygon id="Fill-39" fill="#FFB980" points="610.819225 308.762802 595 324.177201 623.187428 331.762802 632 318.783518"></polygon>
                    <path d="M607.193044,310.808961 L629.850737,325.762802 C629.850737,325.762802 681.320385,277.04829 684.80981,260.651386 C688.299741,244.253965 642.604242,136.918209 642.604242,136.918209 L612.745207,129.762802 L606,198.032018 L625.404952,224.820119 L637.823452,269.510682 L607.193044,310.808961 Z" id="Fill-41" fill="#E0EEFF"></path>
                    <g id="Group-45" transform="translate(521.000000, 0.762802)">
                        <mask id="mask-6" fill="white">
                            <use xlink:href="#path-5"></use>
                        </mask>
                        <g id="Clip-44"></g>
                        <path d="M62.5157292,53.0851302 C59.0865625,56.7652698 56.4646875,60.7329442 57.2094792,65.492107 C55.8485417,56.7990372 55.8454167,43.2588047 47.6792708,37.7731302 C44.2782292,35.4892233 40.019375,34.9177349 35.9323958,34.4086651 C19.3782292,32.3468047 9.4725,33.3316884 0.3084375,18.4259209 C9.11885417,8.29926977 20.5917708,-0.45007907 34.1386458,0.155688372 C47.6844792,0.761455814 60.785,7.79275814 68.6219792,18.6633163 C72.4948958,24.0359209 75.156875,30.5069907 74.7422917,37.0778279 C74.3771875,42.8628047 67.5698958,47.6613628 62.5157292,53.0851302" id="Fill-43" fill="#C65447" mask="url(#mask-6)"></path>
                    </g>
                    <polygon id="Fill-46" fill="#CBDCF2" points="585 347.762802 607.594693 363.846516 624 364.754665 604.196217 373.762802"></polygon>
                    <polygon id="Fill-48" fill="#FFFFFF" points="545 206.762802 595.670974 151.040421 585.319674 144.4987 609.640537 142.90733 611 129.145958 582.236014 102.762802 582.211019 121.874837"></polygon>
                    <path d="M518.238283,193.762802 L508.747929,145.20437 L513.493362,140.235427 L499,137.149932 C499,137.149932 531.740261,107.362719 539,103.762802 L526.127879,155.676903 L518.238283,193.762802 Z" id="Fill-50" fill="#FFFFFF"></path>
                    <path d="M509.993706,164.815183 C509.727493,171.152165 502.765084,179.095428 497.1806,171.931244 C494.088246,167.964931 497.497164,158.025848 502.472948,156.884583 C506.548894,155.949486 510.17168,160.572798 509.993706,164.815183" id="Fill-52" fill="#6C4472"></path>
                    <path d="M539.368076,104.836222 C527.54838,108.625731 517.155747,116.447859 510.284352,126.757711 C503.364971,137.13977 498.398935,152.942982 502.468883,165.256418 C502.72394,166.028345 503.835443,165.880297 503.879778,165.066293 C504.21881,158.853473 503.745208,152.88688 505.017882,146.707305 C506.317678,140.393709 508.772791,134.327378 512.273165,128.906225 C518.876464,118.679487 528.702653,111.543055 540.081086,107.412257 C541.680274,106.832013 541.031419,104.30273 539.368076,104.836222" id="Fill-54" fill="#6C4472"></path>
                    <path d="M596.125466,143.254065 C599.786972,135.385213 599.482234,125.509537 597.182236,117.317617 C595.037705,109.679748 590.016241,99.2417902 582.330125,95.8182017 C581.821367,95.5918487 581.100842,96.0959985 581.483056,96.6618809 C583.559408,99.7382234 586.429111,102.166888 588.527156,105.267409 C591.028591,108.964164 592.911253,113.031315 594.147767,117.314016 C596.706534,126.17985 595.630654,133.928838 593.644174,142.726766 C593.637459,142.756603 593.64624,142.783869 593.641592,142.813706 C585.676563,142.454628 580.400461,151.920812 577.825165,158.188731 C574.029884,167.428047 572.853285,177.928767 575.22921,187.666059 C574.655372,188.368782 574.31138,189.258247 574.26851,190.156456 C574.040731,192.595924 576.266869,195.30753 579.158266,194.529698 C580.965518,194.043554 582.407084,192.341791 582.316179,190.43271 C582.230956,188.643493 580.874613,187.005006 579.173761,186.471019 C578.34322,186.210198 577.576726,186.245695 576.904236,186.47462 C576.069564,179.316722 576.177513,172.21284 578.127838,165.122334 C579.996037,158.327115 586.874855,140.930347 596.709633,146.679712 C604.22117,151.06993 601.133501,165.407332 599.627888,172.28589 C598.120209,179.173708 595.408556,185.362404 592.389066,191.592769 C591.966048,191.2162 591.471236,190.917311 590.928389,190.761951 C589.119071,190.243911 587.328863,191.273817 586.649659,192.96632 C586.014874,194.549247 586.526731,196.417688 588.042157,197.303037 C589.294683,198.035083 590.976941,197.889497 592.030095,196.890971 C592.310557,196.825638 592.583789,196.662561 592.798138,196.35647 C599.082975,187.396494 602.430963,175.843233 603.603946,165.078606 C604.388518,157.87801 604.884363,145.818542 596.125466,143.254065" id="Fill-56" fill="#6C4472"></path>
                    <path d="M504.996407,164.683803 C504.844425,168.556744 500.865772,173.410388 497.674658,169.03235 C495.907629,166.608209 497.85526,160.534721 500.698987,159.83713 C503.028051,159.266082 505.098056,162.091297 504.996407,164.683803" id="Fill-58" fill="#A05FA6"></path>
                    <path d="M331.464559,94.7628018 C331.464559,94.7628018 304.998509,107.321692 298.984829,105.738162 C292.972179,104.154632 270.125958,100.109151 266.917531,101.534328 C266.917531,101.534328 263.279702,107.354704 266.025301,111.184062 C268.770386,115.01342 290.997446,125.370326 299.02597,125.744803 C307.054494,126.119279 337.533264,120.582082 344,115.514269 L331.464559,94.7628018 Z" id="Fill-60" fill="#A46C35"></path>
                    <path d="M267.706654,101.531455 C267.706654,101.531455 257.344218,97.2351481 253.952381,102.034724 C250.560545,106.834822 248.636451,111.69646 249.057297,114.156484 C249.477622,116.615986 256.475373,117.698147 259.273533,115.786243 C262.072738,113.874861 269,111.203621 269,111.203621 L267.706654,101.531455 Z" id="Fill-62" fill="#A46C35"></path>
                    <path d="M218.19215,698.895488 C218.19215,698.895488 223.877282,708.35556 224,719.330845 C224.0267,721.773652 222.08894,723.762802 219.714341,723.762802 L184.281096,723.762802 C180.849679,723.762802 178.318399,720.44257 179.164061,717.022 C180.814399,710.347379 184.345428,700.261795 191.422012,694.140101 C202.712381,684.373677 218.19215,698.895488 218.19215,698.895488" id="Fill-64" fill="#163560"></path>
                    <path d="M274,689.582585 C274,689.582585 276.033768,723.215731 282.380096,723.698003 C283.224478,723.762802 314.568638,723.762802 314.568638,723.762802 L355,723.76174 C355,723.76174 354.318797,713.639343 342.623338,711.549853 C330.927879,709.460362 311.351183,701.032291 304.265632,685.182651 C296.812283,668.508688 274,689.582585 274,689.582585" id="Fill-66" fill="#163560"></path>
                    <path d="M256.739893,486.557701 C258.164736,504.769417 258.348385,519.144962 256.467028,525.960507 C248.062487,556.450557 271.611793,694.12301 271.611793,694.12301 C288.973387,702.36327 313.628759,694.035518 313.628759,694.035518 C312.130874,674.965453 321.268445,504.24395 329.771071,400.09528 C333.329788,356.371217 336,325.777626 336,325.777626 L232,313.762802 C232,313.762802 251.814766,423.30696 256.739893,486.557701" id="Fill-68" fill="#2B478B"></path>
                    <path d="M232,313.762802 C232,313.762802 251.814766,423.436985 256.739893,486.762802 L329.770549,400.197753 C333.329788,356.421792 336,325.791887 336,325.791887 L232,313.762802 Z" id="Fill-70" fill="#233862"></path>
                    <path d="M283,337.678436 C283,337.678436 230.888414,641.249681 221.922891,700.032189 C221.922891,700.032189 202.412033,705.483099 182.477172,697.037031 C182.477172,697.037031 179.900617,555.97265 186.721851,513.47777 C193.542569,470.983407 183.087612,339.618546 194.082256,327.398692 C205.0769,315.178837 283,337.678436 283,337.678436" id="Fill-72" fill="#2B478B"></path>
                    <path d="M277.336801,78.8692286 C277.336801,78.8692286 281.294029,105.739799 279.560985,113.766234 C277.828452,121.792154 251.315584,126.154537 240.225328,119.523735 C229.135583,112.893963 232.470326,110.428962 232.470326,110.428962 C232.470326,110.428962 234.162995,79.6668803 235.720231,77.4730808 C237.277466,75.2787666 277.336801,78.8692286 277.336801,78.8692286" id="Fill-74" fill="#FFB27D"></path>
                    <path d="M191.529589,244.10368 C187.985362,210.23623 188.89439,184.750197 192.233686,165.576815 C202.015671,109.306087 232.663997,107.431446 232.663997,107.79388 C232.663997,115.36679 248.951647,122.355778 262.088413,121.495127 C273.162446,120.770775 280.345365,112.351669 280.345365,107.79388 C280.345365,107.755674 280.551329,107.759805 280.924541,107.796977 C283.785836,107.823824 296.9257,108.062866 309.344433,110.214237 C318.350054,111.769296 326.971105,114.326986 331.01966,118.544025 C333.109752,120.717597 340.560579,126.809794 350.132471,135.091567 C374.511551,156.177279 412.631352,191.472265 410.94596,212.504799 C410.94596,212.504799 363.826733,247.113122 333.965611,225.419223 C335.591641,281.73745 345.811879,341.390897 343.306245,341.347013 C343.306245,341.347013 326.661385,355.762802 276.091879,355.762802 C248.442157,355.762802 228.447677,353.395106 214.575326,350.653617 C195.673125,346.92447 188.148481,342.51847 188.148481,342.51847 C183.937324,342.455483 192.753499,255.793986 191.529589,244.10368" id="Fill-76" fill="#7A9C49"></path>
                    <path d="M188.141489,340.64125 C188.141489,340.64125 195.620322,345.040402 214.406932,348.762802 C240.375828,337.207489 291.921132,307.342218 293.935394,257.193942 C296.606882,190.485061 215.539762,150.762802 215.539762,150.762802 C215.539762,150.762802 204.663979,156.833993 192.201823,163.995308 C188.882857,183.136646 187.979363,208.580086 191.502013,242.390936 C192.718471,254.061704 183.95597,340.578368 188.141489,340.64125" id="Fill-78" fill="#667F3B"></path>
                    <path d="M278,81.7628018 C278,81.7628018 267.747686,95.6367476 256.906862,95.7619805 C246.067057,95.8857458 235,81.9804918 235,81.9804918 L278,81.7628018 Z" id="Fill-80" fill="#E8945B"></path>
                    <path d="M279.944275,82.0707277 C277.060377,84.3303951 270.613164,87.4532947 265.340949,89.5164917 C261.341088,91.0830981 256.916073,91.1748875 252.852517,89.7799992 C246.772976,87.6930814 237.567185,84.4294038 235.234795,83.0283275 C229.71712,79.6981285 230.072364,72.9562545 229.789619,63.5834305 C229.450429,52.489299 228.328251,43.776533 229.571605,37.3811895 C231.050062,29.7301888 235.921462,25.3779311 249.559519,24.1949834 C274.595937,22.0312307 285.025922,28.2739357 285.462468,36.6324362 C285.575359,38.8776648 285.679964,41.017181 285.752981,43.0442811 C286.755018,69.1103852 284.686731,78.3542916 279.944275,82.0707277" id="Fill-82" fill="#FFB27D"></path>
                    <g id="Group-86" transform="translate(222.000000, 0.762802)">
                        <mask id="mask-8" fill="white">
                            <use xlink:href="#path-7"></use>
                        </mask>
                        <g id="Clip-85"></g>
                        <path d="M63.292689,38.5676923 C63.292689,38.5676923 59.1611154,32.5820513 51.3928801,34.9297436 C43.6251669,37.2769231 42.8285051,43.7974359 29.5525493,42.754359 C16.2771154,41.7107692 13.0909904,35.5394872 10.7004831,38.6251282 C8.31154191,41.7107692 6.92913015,59.9425641 6.92913015,59.9425641 C6.92913015,59.9425641 -19.7621713,0.158461538 34.3377404,0.158461538 C34.3377404,0.158461538 90.0899684,-3.14974359 63.292689,57.6205128 L63.292689,38.5676923 Z" id="Fill-84" fill="#2C3A64" mask="url(#mask-8)"></path>
                    </g>
                    <path d="M381.5685,96.2155069 L381.4315,96.2955069 C381.5485,96.3545069 381.5685,96.2155069 381.5685,96.2155069" id="Fill-87" fill="#FFB27D"></path>
                    <path d="M259,281.25647 C259,281.25647 265.948075,286.762802 276.112177,286.762802 C276.112177,286.762802 286.479203,275.267561 295.215155,264.149206 C300.870875,256.948698 305.838397,249.90544 306.865312,246.245379 C309.471545,236.941329 358.243863,234.319119 364.216779,227.76411 C370.195331,221.208585 339.984862,204.762802 339.984862,204.762802 C339.984862,204.762802 290.472591,212.382472 283.028994,222.168584 C280.06867,226.064777 275.658674,236.217978 271.420856,247.032145 C265.014935,263.389249 259,281.25647 259,281.25647" id="Fill-89" fill="#8E572A"></path>
                    <path d="M328,144.649411 C328,144.649411 319.177502,126.239328 314.819726,126.774236 C310.46195,127.310181 324.835963,164.882741 326.142429,183.142656 C327.448895,201.402053 328,144.649411 328,144.649411" id="Fill-91" fill="#667F3B"></path>
                    <path d="M298.795758,272.016172 C305.378436,288.076478 313.905607,302.717671 314.996761,304.566486 C315.070334,304.693882 315.112301,304.762802 315.112301,304.762802 L315.265664,304.762802 C316.862501,304.746616 330.606593,304.443789 331.951107,298.883769 C331.951107,298.883769 332.393579,279.636463 331.634019,264.347323 C331.292062,257.511251 330.712289,251.472972 329.748073,248.287017 C329.748073,248.287017 404.294759,247.78213 402.982886,226.534074 C401.675677,205.284451 362.702392,194.041714 340.299009,205.062029 C340.299009,205.062029 310.590694,215.938762 294.95392,230.309499 C287.275425,237.367993 291.997026,255.445758 298.795758,272.016172" id="Fill-93" fill="#A46C35"></path>
                    <path d="M401.098796,195.762802 C401.098796,195.762802 410.960956,210.657309 408.648837,224.555147 C406.335688,238.451926 378.197437,245.878283 358.506067,246.762802 C358.506067,246.762802 302.186835,233.500844 310.919964,210.429832 C312.90053,205.19837 401.098796,195.762802 401.098796,195.762802" id="Fill-95" fill="#2B478B"></path>
                    <path d="M344,118.762802 L381,96.5872835 C380.794675,96.5059167 380.046483,95.3961366 377.280297,87.448463 C376.10227,84.059385 375.476443,81.1183389 375.168974,78.7875432 C375.138901,78.5537426 375.10831,78.3297267 375.08757,78.1057108 C374.709067,74.7166328 374.984908,72.7628018 374.984908,72.7628018 L366.879751,75.6739791 L351.888943,81.067356 C352.063159,84.8431833 351.530661,87.4994459 350.721286,89.3209273 C348.763957,93.7482033 345.116326,93.778072 345.014182,93.778072 L344,118.762802 Z" id="Fill-97" fill="#A46C35"></path>
                    <path d="M352,89.6517127 C365.994449,90.8949012 373.872086,81.3445716 375.61338,78.9315699 C375.871294,78.5798922 376,78.3828269 376,78.3828269 C376,78.3828269 375.831229,78.33094 375.534754,78.2376485 C374.396428,77.8854467 371.308975,76.9121747 367.607537,75.7628018 L353.127809,81.2518042 C353.296079,85.0945776 352.782255,87.7979362 352,89.6517127" id="Fill-99" fill="#8E572A"></path>
                    <path d="M350.763001,84.5476823 C350.763001,84.5476823 382.490285,88.1243756 383.139335,66.1093568 C383.788895,44.0948625 388.479429,34.0208596 366.527752,32.0599716 C344.576076,30.0985592 339.391345,38.2116742 338.097845,45.6597969 C334.056361,68.9277072 341.825537,83.5606828 350.763001,84.5476823" id="Fill-101" fill="#A46C35"></path>
                    <path d="M365.87059,42.9890847 C377.40082,40.0705438 372.992604,60.4966562 375.905869,59.0980028 C379.165576,57.5329805 384.767444,57.5565975 383.882966,61.4917206 C382.999013,65.4273685 381.724,66.8349439 381.057886,69.2921654 C380.392822,71.7493868 381.063135,76.6144963 383.743864,75.6341269 C386.424593,74.6532326 411.362665,46.1836824 393.754472,24.0078101 C376.147854,1.8319377 323.644521,15.4930812 340.177693,38.6892096 C343.085709,42.768659 357.659907,45.0673839 365.87059,42.9890847" id="Fill-103" fill="#4A0F00"></path>
                    <path d="M323.660315,203.895714 C323.660315,203.895714 333.302037,208.995146 348.483665,208.754548 C358.154852,208.609262 378.694428,204.419671 391.898294,199.669028 C399.423717,196.97042 404.569725,194.082734 403.949412,191.659757 C403.058747,188.168259 396.613185,161.361467 390.657669,136.554674 C385.21236,113.872559 380.176458,92.8632923 380.176458,92.8632923 C380.176458,92.8632923 365.147323,103.506256 356.388512,99.7525224 C347.629702,95.9920908 348.754018,91.7504642 348.754018,91.7504642 C348.754018,91.7504642 338.434604,90.4887438 335.635962,90.8174403 C331.166094,91.3408816 315.38328,97.0760678 315.38328,97.0760678 C315.38328,97.0760678 313.309369,102.886473 318.809989,111.953961 C323.3667,119.465035 327.798832,120.922016 327.798832,120.922016 C327.798832,120.922016 314.900987,161.44802 323.660315,203.895714" id="Fill-105" fill="#A05FA6"></path>
                    <path d="M372.501094,168.380338 C372.501094,168.380338 363.189282,166.625581 359.54693,169.032015 C355.903539,171.437925 354.826882,175.205908 357.449708,176.744138 C365.668242,181.566444 374,176.23454 374,176.23454 L372.501094,168.380338 Z" id="Fill-107" fill="#A46C35"></path>
                    <path d="M393.025017,199.762802 C400.471953,197.113127 405.563778,194.27885 404.949936,191.900263 C404.069071,188.47273 397.690734,162.157045 391.797332,137.804719 C390.056065,134.647768 388.951659,132.762802 388.951659,132.762802 C388.951659,132.762802 377.770002,183.308924 393.025017,199.762802" id="Fill-109" fill="#6C4472"></path>
                    <path d="M380.867081,96.7628018 C380.867081,96.7628018 410.063869,102.734163 421.578371,146.583906 C422.705554,150.87587 421.540305,155.454373 418.470687,158.741661 C413.176311,164.410649 401.504257,172.699865 374.361458,175.75169 C371.398109,176.084709 371,168.821622 371,168.821622 C371.295013,169.400319 389.437795,157.496415 397.159422,151.099075 C398.556769,149.94219 398.498612,147.5135 397.489857,146.027172 C394.880735,142.179574 390.503121,135.528383 389.030698,132.115958 C386.883658,127.136504 372.706107,99.0229399 380.867081,96.7628018" id="Fill-111" fill="#A46C35"></path>
                    <path d="M380.31015,93.7628018 C380.31015,93.7628018 397.215783,94.9654837 411,113.343609 C411,113.343609 406.335318,130.249881 384.438021,134.762802 C384.438021,134.762802 370.940693,104.322453 380.31015,93.7628018" id="Fill-113" fill="#A05FA6"></path>
                    <path d="M300,271.352813 C306.526612,287.248016 314.981157,301.738695 316.063018,303.568504 C316.151889,303.631031 316.240246,303.694591 316.329631,303.762802 C317.912867,303.746783 331.5399,303.447068 332.872962,297.944207 C332.872962,297.944207 333.311666,278.894767 332.558575,263.762802 C330.39023,265.854602 322.019419,272.098999 300,271.352813" id="Fill-115" fill="#EBF2F9"></path>
                    <path d="M258,281.219142 C258,281.219142 265.098652,286.762802 275.483027,286.762802 C275.483027,286.762802 286.074724,275.189632 295,263.995903 C284.956971,259.692299 274.349044,250.20475 270.690037,246.762802 C264.145289,263.230795 258,281.219142 258,281.219142" id="Fill-117" fill="#EBF2F9"></path>
                    <path d="M294.19166,324.151369 C294.502454,325.916513 296.222215,327.05557 297.958087,326.696754 C302.090399,325.843908 309.560887,324.228183 312.658432,323.087021 C317.052164,321.468665 325.48102,316.427877 329.874752,314.810047 C331.385065,314.253935 335.015845,312.770267 337.36343,311.803252 C338.609205,311.289756 339.270811,309.911312 338.895052,308.603896 C338.114949,305.891203 336.609313,301.27184 334.460782,297.409042 C334.065273,296.692988 333.428613,296.153711 332.627721,295.762802 C330.34718,297.613704 326.752261,299.650854 321.945869,299.67032 C318.007414,299.687156 314.737321,298.710145 312.310738,297.616335 C312.011897,298.236108 306.01794,310.471108 301.774408,312.033694 C297.955488,313.440022 292.95576,317.13183 294.19166,324.151369" id="Fill-119" fill="#AA443E"></path>
                    <path d="M231.36225,280.901332 C230.53319,282.427043 231.181796,284.328852 232.751236,285.107949 C236.487162,286.961033 243.286178,290.255573 246.39206,291.264593 C250.796185,292.696406 260.420604,293.977475 264.825245,295.408781 C266.339001,295.900602 270.066679,296.972558 272.482709,297.66131 C273.764968,298.025735 275.116315,297.381647 275.617464,296.164023 C276.655851,293.636906 278.286646,289.227267 278.958968,285.002885 C279.084771,284.220743 278.915659,283.427942 278.528971,282.646307 C275.629322,282.670162 271.593325,282.038256 267.838322,279.146206 C264.759765,276.777447 262.805699,274.058981 261.579639,271.762802 C260.971249,272.051601 248.877178,277.692568 244.623605,276.309988 C240.794873,275.065463 234.65993,274.837571 231.36225,280.901332" id="Fill-121" fill="#AA443E"></path>
                    <path d="M292,256.643403 C292,256.643403 294.140066,269.050656 302.205635,274.762802 C302.205635,274.762802 334.95847,270.254928 365.449762,262.539628 C387.865147,256.869365 409.065243,249.468965 415.12773,240.848263 C429.450667,220.514225 407.634914,195.762802 407.634914,195.762802 C407.634914,195.762802 365.58623,216.060127 320.062265,240.927893 C310.739537,246.01903 301.28034,251.305104 292,256.643403" id="Fill-123" fill="#7A9C49"></path>
                    <path d="M340.800933,276.762802 C340.800933,276.762802 350.59524,277.546143 354.300828,281.196265 C358.006416,284.846899 363.621007,295.464038 359.622927,299.672444 C355.624327,303.88085 336.56657,294.655577 336.037274,293.141186 C335.507458,291.626283 340.800933,276.762802 340.800933,276.762802" id="Fill-125" fill="#FFB27D"></path>
                    <path d="M293,258.554993 C293,258.554993 295.126962,271.022785 303.143142,276.762802 C303.143142,276.762802 335.695418,272.232932 366,264.479987 C351.754494,251.95348 333.139468,245.716726 320.890429,242.762802 C311.624787,247.878779 302.223513,253.190646 293,258.554993" id="Fill-127" fill="#667F3B"></path>
                    <path d="M181.728098,123.949816 C188.283551,108.358789 231.405948,107.762802 231.405948,107.762802 C253.345804,165.400471 258.618016,203.20213 264.418743,227.496125 C265.356715,227.405432 266.237229,227.403359 267.041649,227.499235 C267.041649,227.499235 297.860665,239.538696 343.669121,272.844537 C343.669121,272.844537 348.461476,285.995644 339.85822,296.762802 C339.85822,296.762802 260.926194,279.320587 238.879186,266.382999 C238.857962,266.386626 238.843986,266.389218 238.843986,266.389218 C238.622434,266.248772 238.405541,266.106772 238.185542,265.965808 C237.850108,265.759026 237.531239,265.553281 237.226346,265.34909 C165.530476,218.708682 172.349928,146.258397 181.728098,123.949816" id="Fill-129" fill="#7A9C49"></path>
                    <path d="M46.1462055,278.655015 C52.5688967,267.959613 56.55664,220.215366 61.1918112,207.427846 C64.1209711,199.344359 71.966972,189.684412 71.1384706,189.084448 C79.4864217,184.14974 102.072112,181.776776 102.072112,181.776776 C102.072112,181.793327 102.077787,181.808843 102.077787,181.82436 C102.958908,181.639715 103.835902,181.456106 104.67988,181.287495 C107.387212,180.740803 109.942875,179.157104 110.24776,176.406059 C110.258077,176.268998 110.273554,176.126248 110.289546,175.989187 C110.635701,172.606629 110.708955,169.150109 110.667685,166.151321 C110.672844,166.109944 110.672844,166.067533 110.667685,166.026156 C110.593398,161.128169 110.220934,157.492695 110.220934,157.492695 L110.310697,157.481833 L139.591463,152.762802 C139.989721,161.92726 140.520045,168.750305 141.081321,173.838108 C141.506405,177.731153 144.665647,180.761492 148.564143,180.998374 C149.14657,181.029924 149.739831,181.066646 150.326901,181.10854 L150.326901,181.103885 C150.326901,181.103885 169.202391,180.36686 176.423147,182.576901 C176.989582,182.750167 177.603477,183.007221 178.259159,183.33927 C177.821178,183.800105 247.770219,254.088536 245.965675,262.229952 C244.161131,270.371367 213.467889,316.596048 202.339351,325.11451 L191.200495,325.11451 C191.200495,325.11451 215.888908,268.663537 216.208753,264.087256 C216.677171,257.387307 154.12996,219.892109 154.12996,213.056651 C154.12996,210.571454 136.691708,209.819429 125.286659,209.907355 C113.210452,210.000453 90.4669023,203.676516 90.4669023,203.676516 C90.4669023,203.676516 80.6347679,278.372101 68.2098266,300.527343 C58.4112243,317.998207 15.1295074,362.762802 15.1295074,362.762802 L6,354.644661 C6,354.644661 30.588848,304.558484 46.1462055,278.655015" id="Fill-131" fill="#713C1A"></path>
                    <path d="M137.291763,566.328441 C131.990686,618.477409 138.412737,686.762802 138.412737,686.762802 L156.401105,686.762802 C183.564275,615.400974 184.379905,570.630074 185.927843,553.819533 C186.769867,544.658465 199.151296,508.044695 210.264255,472.828788 C219.550844,443.423523 227.941586,414.991179 228,404.337645 C228.120652,379.923122 203.768197,340.762802 203.768197,340.762802 C203.768197,340.762802 168.776841,354.245664 147.18283,367.565684 C139.9762,372.014135 134.459312,376.362811 132.573944,380.049261 C127.568377,389.856013 123.857675,459.856166 137.181012,502.617637 C145.198613,528.363334 141.091999,541.567038 141.091999,541.567038 C139.428134,549.081585 138.191751,557.468245 137.291763,566.328441" id="Fill-133" fill="#7A9C49"></path>
                    <path d="M137.180948,501.929313 C145.199073,527.724588 141.092456,540.953717 141.092456,540.953717 C139.428073,548.482734 138.191688,556.886062 137.2917,565.762802 L210.264243,472.083101 C219.550838,442.621212 227.941586,414.134117 228,403.460586 C228.120652,378.99905 203.768697,339.762802 203.768697,339.762802 C203.768697,339.762802 168.777318,353.271628 147.183291,366.617297 C139.976139,371.074314 134.459247,375.431365 132.574395,379.124913 C127.568307,388.95055 123.857602,459.085498 137.180948,501.929313" id="Fill-135" fill="#667F3B"></path>
                    <path d="M153.94199,685.762802 C153.94199,685.762802 154.957775,697.411175 156.462356,699.808161 C157.967452,702.204633 164.28669,710.293239 171.509192,712.989269 C178.731694,715.6853 199.395286,714.288728 201,721.762802 L128.173664,721.762802 C128.173664,721.762802 127.171814,710.560427 129.980709,703.187577 C132.789087,695.813699 135.99903,685.762802 135.99903,685.762802 L153.94199,685.762802 Z" id="Fill-137" fill="#0081A3"></path>
                    <path d="M32.3597876,684.678967 C32.3597876,684.678967 24.0693722,695.869057 22.0261967,700.306792 C19.9840724,704.744528 6.5058412,723.533935 8.13649276,723.692222 C9.76714433,723.851027 45.7197794,723.692222 45.7197794,723.692222 C45.7197794,723.692222 49.3967594,714.830763 48.9889652,708.779022 C48.5801199,702.726762 53.890379,691.23982 52.8693168,684.678967 C51.8472036,678.117595 32.3597876,684.678967 32.3597876,684.678967" id="Fill-139" fill="#0081A3"></path>
                    <path d="M33,683.762802 L53.1440437,683.762802 C53.1440437,683.762802 131.691259,569.924448 134.393786,540.980012 C137.769879,504.784072 163,361.911246 163,361.911246 L82.4238252,336.762802 C82.4238252,336.762802 75.3820811,354.917949 69.4784331,373.224709 C66.9080391,381.207365 64.5549415,389.219515 63.0927073,395.766255 C59.866295,410.217 68.9483539,464.823188 75.1472359,503.644136 C78.2110629,522.764323 80.5703543,538.060058 80.4139629,542.838682 C79.9447885,557.319955 53.4625042,559.196218 33,683.762802" id="Fill-141" fill="#7A9C49"></path>
                    <path d="M141.367,161.762802 C141.452,162.449253 141.538,163.117217 141.633,163.762802 C141.547,163.117217 141.452,162.449253 141.367,161.762802" id="Fill-143" fill="#2B478B"></path>
                    <path d="M141.377,157.762802 C141.453,158.445331 141.538,159.111091 141.623,159.762802 C141.538,159.111091 141.463,158.445331 141.377,157.762802" id="Fill-145" fill="#2B478B"></path>
                    <path d="M140.424,152.762802 C140.472,153.441308 140.52,154.108791 140.576,154.762802 C140.528,154.108791 140.482,153.441308 140.434,152.762802 L140.424,152.762802 Z" id="Fill-147" fill="#2B478B"></path>
                    <path d="M71.3310588,355.796216 C68.7276594,363.670375 106.332828,368.273158 148.069134,367.717632 C159.860459,367.561117 170.823407,366.117985 179.856204,363.763048 C198.960087,358.794719 209.471471,349.754934 201.083764,340.168891 C198.697443,337.44326 172.243629,299.372988 172.243629,299.372988 C170.683125,295.965178 172.374695,284.794417 180.452657,258.250669 C183.759511,247.397058 179.448671,240.644249 177.907111,236.33905 C177.907111,236.33905 177.907111,236.333902 177.902503,236.329268 C177.373631,234.832076 177.169865,233.632469 177.737134,232.652705 C181.349639,226.372531 186.566677,220.316833 191.289658,215.489573 C197.359649,209.273241 202.624813,205.103963 202.624813,205.103963 C202.624813,205.103963 187.133947,188.126694 178.47438,183.762802 C169.552682,193.168132 150.202539,210.018748 125.901585,210.209758 C104.936669,210.370392 84.5676932,198.492739 72.1645561,189.482816 C71.2342953,190.033194 70.4775943,190.619096 69.9584504,191.2328 C62.2112255,200.375041 60,216.870408 60,216.870408 C60,216.870408 84.9363161,230.707076 84.4903848,235.212553 C83.2529381,247.626682 82.0851203,251.258454 82.6278151,255.690306 L82.6329349,255.734069 C82.8274859,257.290468 83.233995,258.952928 83.9226031,261.1323 C88.175078,274.565323 97.3819472,295.31183 95.0836858,302.298381 C94.4872334,304.112208 75.0643897,344.48902 71.3310588,355.796216" id="Fill-149" fill="#0081A3"></path>
                    <path d="M176.996104,182.589302 C176.6903,182.352302 176.357616,182.124302 176,181.926302 C176.357616,182.135302 176.693416,182.361302 177,182.599302 L176.996104,182.589302 Z" id="Fill-151" fill="#FFB27D"></path>
                    <path d="M111,180.762802 C110.457627,181.182324 109.763628,181.516696 109,181.762802 C109.763628,181.516696 110.453504,181.186132 111,180.762802" id="Fill-153" fill="#713C1A"></path>
                    <path d="M107,180.921802 C106.677333,181.176802 106.344,181.404802 106,181.603802 C106.344,181.414802 106.677333,181.185802 107,180.921802" id="Fill-155" fill="#713C1A"></path>
                    <g id="Group-159" transform="translate(0.000000, 348.762802)">
                        <mask id="mask-10" fill="white">
                            <use xlink:href="#path-9"></use>
                        </mask>
                        <g id="Clip-158"></g>
                        <path d="M7.32112821,3.896932 C7.32112821,3.896932 -0.147076923,18.018052 0.00215384615,21.047572 C0.151897436,24.075532 8.2734359,39.954252 9.81702564,38.488892 C17.8406154,30.869852 17.4406154,22.518132 17.4406154,22.518132 C16.5780513,12.563252 22.4406154,4.384692 18.1847179,1.079052 C13.9283077,-2.226588 7.32112821,3.896932 7.32112821,3.896932" id="Fill-157" fill="#713C1A" mask="url(#mask-10)"></path>
                    </g>
                    <path d="M203.000278,324.762802 C203.000278,324.762802 214,339.298306 214,341.939236 C214,344.5791 211.773066,355.606328 209.100541,355.760831 C206.429034,355.916932 205.537853,346.753326 203.460128,345.044739 C201.381384,343.336686 193.959118,340.124629 192.919237,337.14912 C191.880374,334.173079 192.00463,324.762802 192.00463,324.762802 L203.000278,324.762802 Z" id="Fill-160" fill="#713C1A"></path>
                    <path d="M142,172.762802 C128.019915,171.017549 111,157.641669 111,157.641669 C120.933932,152.410467 129.552343,151.905822 136.245703,153.702703 C137.841222,154.129905 139.331937,154.686685 140.705857,155.34571 L142,172.762802 Z" id="Fill-162" fill="#572000"></path>
                    <path d="M145.940904,159.740447 C145.940904,159.740447 111.601532,171.08992 104.793515,149.802223 C97.9860157,128.514526 88.9690696,115.642526 110.606323,107.496567 C132.243058,99.3490691 139.121496,106.12942 143.139096,112.687725 C147.156696,119.245517 154.697916,156.23848 145.940904,159.740447" id="Fill-164" fill="#713C1A"></path>
                    <path d="M55.5161498,109.339332 C59.3522773,104.400428 46.7600301,94.2136158 72.3410982,81.9688404 C91.7442918,72.6810925 97.7579599,86.7498773 99.5311813,94.0883575 C111.068997,87.4879696 129.900567,68.4756227 141.910346,80.8617019 C156.289241,95.6908356 140.693258,108.744096 140.693258,108.744096 C135.23882,112.725447 132.589832,111.62452 124.617049,113.380724 C116.643232,115.135893 121.736726,124.383786 121.113981,127.502304 C120.491753,130.621339 115.049192,136.927214 107.675917,133.741927 C100.302125,130.557157 101.150524,142.732574 108.160274,145.236705 C110.1576,145.950988 112.232383,157.145561 109.337085,157.618126 C106.903424,158.014605 98.1152893,158.097938 97.2219658,150.911113 C96.6921682,146.644567 91.283688,144.416315 85.5493771,140.008983 C81.5820912,143.792612 76.0032083,145.722211 72.9271804,145.280183 C68.3965326,144.629565 68.34851,140.986205 58.6422658,134.493994 C48.9360217,128.001784 51.6805388,114.278236 55.5161498,109.339332" id="Fill-166" fill="#4A0F00"></path>
                    <path d="M180.470265,363.762802 C199.877793,358.823311 210.560231,349.839302 202.03644,340.309303 C199.613034,337.602894 172.73555,299.762802 172.73555,299.762802 C172.73555,299.762802 165.533994,342.490191 180.470265,363.762802" id="Fill-168" fill="#035D72"></path>
                </g>
            </g>
        </g>
    </g>
</svg>