<?xml version="1.0" encoding="UTF-8"?>
<svg width="449px" height="380px" viewBox="0 0 449 380" version="1.1" xmlns="http://www.w3.org/2000/svg" xmlns:xlink="http://www.w3.org/1999/xlink">
    <title>Group 27</title>
    <defs>
        <polygon id="path-1" points="0 0.524277087 448.445181 0.524277087 448.445181 328 0 328"></polygon>
        <polygon id="path-3" points="0.502849945 0.357402985 74.6977738 0.357402985 74.6977738 38.6342731 0.502849945 38.6342731"></polygon>
    </defs>
    <g id="Patient-PBD-ZSD-Layout-(DSK)" stroke="none" stroke-width="1" fill="none" fill-rule="evenodd">
        <g id="3-0_StartingCHOLBAM" transform="translate(-75.000000, -2336.000000)">
            <g id="Group-11" transform="translate(75.000000, 2286.000000)">
                <g id="Group-27" transform="translate(0.000000, 50.000000)">
                    <g id="Group-3" opacity="0.550985647" transform="translate(0.000000, 52.000000)">
                        <mask id="mask-2" fill="white">
                            <use xlink:href="#path-1"></use>
                        </mask>
                        <g id="Clip-2"></g>
                        <path d="M89.5028883,326.41338 C39.0529443,326.41338 0.97739349,294.938828 0.0256070313,260.540924 C-0.926179427,226.142436 24.7743935,207.283313 30.0098036,191.248732 C35.2452138,175.21415 30.0098036,148.559619 49.9996578,129.045081 C69.9889273,109.530543 85.1198766,118.995769 99.973124,108.102193 C123.770124,90.6503715 111.713188,56.2220649 141.538948,44.3222717 C171.364124,32.4230631 196.113495,84.938728 229.904838,72.8804891 C252.884517,64.6810738 250.8038,1.54721283 313.194922,0.533394652 C365.548439,-0.317300535 359.958155,58.6010881 379.278602,76.6884463 C435.352739,129.183648 438.525555,139.951519 446.141016,184.213979 C456.676146,245.448831 431.228136,328.000175 366.975534,328.000175 C302.724102,328.000175 89.5028883,326.41338 89.5028883,326.41338" id="Fill-1" fill="#A05FA6" mask="url(#mask-2)"></path>
                    </g>
                    <path d="M282.882907,372 L205.135037,371.976037 L164.009746,371.964932 C148.049573,371.957919 135,358.870118 135,342.873463 L135.090428,55.064004 C135.091011,39.0743623 148.149918,25.9912375 164.115926,26 L200.587405,26.0122781 L282.98967,26.035072 C298.949844,26.035072 312,39.1234569 312,55.1195277 L311.917157,342.930156 C311.908989,358.919213 298.850665,372 282.882907,372" id="Fill-4" fill="#0081A3" opacity="0.503111374"></path>
                    <path d="M190.094882,233.332006 L182.404215,243.407163 L173.126158,255.563485 C173.083555,255.61967 173.049707,255.67878 173.008271,255.734965 L173.493826,246.096993 C173.506665,245.84943 173.494993,245.607135 173.493826,245.362498 C173.930358,245.227305 174.363972,245.073383 174.7935,244.894295 C180.564711,242.476608 183.899395,236.614113 183.44769,230.668512 C185.389324,232.095363 187.675281,233.027088 190.094882,233.332006 L190.094882,233.332006 Z M275.942876,306.554374 L274.849795,301.975927 L274.642034,301.104483 C276.17865,302.991929 278.17164,304.467941 280.433086,305.370404 C278.887716,305.520814 277.368025,305.910594 275.942876,306.554374 L275.942876,306.554374 Z M246.005415,303.235395 L246.789189,306.523355 C245.525697,305.955073 244.205013,305.585192 242.863902,305.408445 L246.005415,303.235395 Z M179.322229,320.756161 L180.925959,316.863047 C182.097825,314.022807 182.260649,311.012257 181.605851,308.217667 C181.930916,308.0298 182.25423,307.839593 182.568206,307.622463 L207.706149,290.236891 C207.867806,290.125108 208.013122,289.998107 208.168943,289.881057 C208.508014,291.262843 209.050761,292.569716 209.766253,293.770073 L205.290632,296.864899 C202.279262,298.948405 200.338211,302.014554 199.56611,305.345238 C194.84246,304.885228 189.985749,306.785549 186.906097,310.820294 L179.322229,320.756161 Z M204.91246,260.683877 L210.379032,253.523288 C210.30083,253.965155 210.239552,254.412875 210.203369,254.869373 L209.16748,268.017702 C207.119632,266.161275 204.609572,264.980231 201.968203,264.54129 L204.91246,260.683877 Z M219.019798,226.510279 C215.906298,231.211629 215.747559,237.548765 219.126597,242.461392 C219.188459,242.550936 219.260241,242.629945 219.323854,242.718318 C218.293218,243.11278 217.315106,243.61844 216.410527,244.232957 C217.053654,242.209732 217.24449,240.084088 216.970199,238.015798 C216.491648,234.404777 214.650976,230.975771 211.554984,228.599052 C211.541561,228.588518 211.526971,228.580324 211.511798,228.56979 L219.019798,226.510279 Z M247.570044,280.30044 C244.576765,277.793209 240.692914,276.649622 236.886681,277.068079 L237.188402,273.241099 C237.863042,274.065723 238.628724,274.832406 239.507624,275.507205 C242.645636,277.916112 246.488052,278.792239 250.132044,278.26785 C249.193033,278.846082 248.339811,279.533171 247.570044,280.30044 L247.570044,280.30044 Z M238.300742,253.705302 C237.937159,251.495381 237.065263,249.436455 235.790099,247.673083 C236.844662,247.275696 237.871796,246.760672 238.839403,246.091726 L250.008321,238.367536 L238.300742,253.705302 Z M235.219923,208.635434 L238.791548,211.595652 L235.116626,214.137998 C235.501801,212.365847 235.555492,210.502982 235.219923,208.635434 L235.219923,208.635434 Z M267.455012,263.743588 L270.230026,284.142636 C269.027812,281.692175 267.166131,279.677729 264.916357,278.293602 C262.175776,276.606313 258.870855,275.845482 255.516912,276.323635 C256.965988,275.438145 258.286089,274.28812 259.375668,272.860098 L267.342961,262.422669 C267.361637,262.861024 267.394902,263.301136 267.455012,263.743588 L267.455012,263.743588 Z M171.951957,276.68064 L172.213993,271.465437 C173.109817,272.980661 174.290438,274.356009 175.765193,275.487306 C176.318445,275.912201 176.900293,276.273303 177.492646,276.603387 L171.000107,281.094045 C171.536435,279.715185 171.873755,278.235076 171.951957,276.68064 L171.951957,276.68064 Z M299.666758,290.243914 L297.603736,275.075872 L295.539546,259.901392 C295.01314,256.033445 292.951285,252.725586 290.059552,250.522103 C287.167819,248.318034 283.443874,247.211318 279.581032,247.740388 C279.154421,247.798328 278.737148,247.88319 278.325127,247.978001 C279.738604,245.926099 280.54222,243.612002 280.761069,241.259864 C283.386681,247.57359 290.288906,251.265376 297.125185,249.624907 C304.709637,247.804766 309.426284,240.09989 307.611291,232.495092 L304.05834,217.606216 L300.504223,202.712073 C299.599061,198.914941 297.220895,195.829479 294.126069,193.923891 C291.030077,192.018302 287.21509,191.287319 283.424031,192.196804 C275.840163,194.016361 271.125266,201.727675 272.938508,209.32662 L278.291862,231.762938 C277.480076,230.594185 276.483289,229.527851 275.297415,228.618366 C272.855637,226.74321 269.984914,225.807388 267.113607,225.726623 C268.51833,223.905896 269.445668,221.785519 269.85127,219.569745 C270.382345,216.672735 270.011176,213.618292 268.686406,210.851208 C270.290136,205.528318 268.689908,199.499025 264.168183,195.751641 L240.629885,176.242765 C234.618816,171.260493 225.644231,172.116135 220.676636,178.143672 C216.081961,183.718807 216.476474,191.82985 221.315093,196.959021 C220.066191,196.953753 218.800365,197.100067 217.540375,197.446538 L202.810337,201.48772 L202.809753,201.48772 L188.085551,205.528318 C182.960385,206.934099 179.259783,211.030296 178.069242,215.883812 L176.522121,212.170372 L170.638859,198.044083 C167.633325,190.827894 159.293695,187.39362 152.099087,190.407681 C144.903311,193.421742 141.477585,201.784444 144.483704,209.000048 L150.368132,223.126922 L154.138765,232.179054 C149.141991,234.175943 145.474071,238.943427 145.185773,244.660778 L144.414839,259.949968 L143.643321,275.245596 C143.446648,279.144562 144.861876,282.777237 147.297234,285.479942 C149.733177,288.181477 153.188083,289.960651 157.081855,290.157882 C158.745112,290.242159 160.352344,290.01625 161.865616,289.556826 C160.397864,292.510605 159.990512,295.919128 160.739853,299.161438 C158.127081,300.673151 155.966014,303.010072 154.730535,306.00599 L148.900381,320.153934 L143.067309,334.30773 C141.580299,337.916409 141.701104,341.814205 143.094155,345.178248 C144.486622,348.541706 147.148417,351.377849 150.75214,352.871419 C156.373366,355.201317 162.666314,353.588356 166.580512,349.343504 C167.504349,351.532942 168.976186,353.520466 170.98435,355.061441 C177.176335,359.815464 186.112986,358.625056 190.852394,352.41492 L200.131034,340.258598 L209.414343,328.098179 C210.673749,326.447176 211.501876,324.597771 211.940159,322.68516 C215.167462,323.009976 218.518487,322.246219 221.382791,320.264547 L223.814648,318.58311 L220.447865,322.994759 L211.168641,335.150496 C206.429234,341.360047 207.616274,350.321465 213.808843,355.074902 C220.000245,359.82834 228.93748,358.637347 233.67747,352.427796 L242.955527,340.271474 L252.237085,328.110469 C252.357307,327.954206 252.456519,327.789165 252.56857,327.628805 C253.31616,328.838526 254.235328,329.913639 255.285223,330.833659 L251.980885,335.162787 C247.240894,341.372337 248.428518,350.333755 254.619336,355.086607 C260.811905,359.84063 269.747973,358.649637 274.48738,352.440086 L293.049329,328.12276 C295.416407,325.023251 296.303477,321.22612 295.824926,317.615099 C295.346958,314.004664 293.505704,310.575072 290.409711,308.198354 C289.351063,307.38602 288.208376,306.760383 287.024253,306.291009 C287.196999,306.273451 287.366826,306.26994 287.540155,306.247115 C295.266422,305.190145 300.720738,297.991514 299.666758,290.243914 L299.666758,290.243914 Z" id="Fill-6" fill="#0081A3"></path>
                    <path d="M164.866826,371.98831 C148.985021,371.981296 135.998258,358.893174 136,342.894826 L136.08998,55.0654331 C136.090561,39.0752685 149.08487,25.990653 164.9719,25.999995 L201.263548,26.011695 C204.25844,31.1845194 206.004057,37.3673597 206,43.9909129 L205.904207,369.095035 C205.905369,370.075826 205.867054,371.043758 205.788684,371.999995 L164.866826,371.98831 Z" id="Fill-8" fill="#0081A3" opacity="0.703579215"></path>
                    <path d="M311.327332,39 L200.537359,38.96563 L137.65862,38.9419272 C134.539268,38.9472603 131.99766,36.3642475 132,33.2076269 L132.006441,5.72837625 C132.007611,2.57945903 134.554487,-0.00236864943 137.671498,0 L200.462434,0.0177787321 C200.468287,0.0189638722 200.468287,0.0189638722 200.475311,0.0195564422 L311.341381,0.0515552246 C314.452538,0.0521477946 317,2.62923492 317,5.78585554 L316.99356,33.2651062 C316.991219,36.4205417 314.444928,39.0017768 311.327332,39" id="Fill-10" fill="#A05FA6"></path>
                    <g id="Group-14" transform="translate(177.000000, 0.000000)">
                        <mask id="mask-4" fill="white">
                            <use xlink:href="#path-3"></use>
                        </mask>
                        <g id="Clip-13"></g>
                        <path d="M69.1091016,38.6342731 L6.16710938,38.6104075 C3.04523438,38.6156463 0.500507813,36.0783179 0.502849945,32.978109 L0.509882813,5.98487015 C0.511054688,2.89106418 3.05988281,0.35548209 6.18058594,0.357227457 L69.0335156,0.375273134 C69.0399609,0.375855224 69.0399609,0.375855224 69.0469922,0.376437313 C72.1530469,0.384004478 74.6989453,2.91492985 74.6977738,6.00815373 L74.6907422,33.0013925 C74.6860547,36.0742433 72.1882031,38.5894522 69.1091016,38.6342731" id="Fill-12" fill="#6C4472" mask="url(#mask-4)"></path>
                    </g>
                </g>
            </g>
        </g>
    </g>
</svg>