<?xml version="1.0" encoding="UTF-8"?>
<svg width="411px" height="213px" viewBox="0 0 411 213" version="1.1" xmlns="http://www.w3.org/2000/svg" xmlns:xlink="http://www.w3.org/1999/xlink">
    <title>Group 12</title>
    <defs>
        <polygon id="path-1" points="0 0.0866058088 387 0.0866058088 387 210.232355 0 210.232355"></polygon>
        <polygon id="path-3" points="0 180 409.220719 180 409.220719 0.153935264 0 0.153935264"></polygon>
    </defs>
    <g id="Patient-PBD-ZSD-Layout-(DSK)" stroke="none" stroke-width="1" fill="none" fill-rule="evenodd">
        <g id="3-0_StartingCHOLBAM" transform="translate(-39.000000, -8866.000000)">
            <g id="Group-2" transform="translate(0.000000, 7349.000000)">
                <g id="Group-38" transform="translate(28.000000, 1471.000000)">
                    <g id="Group-12" transform="translate(11.000000, 46.000000)">
                        <g id="Group-3" opacity="0.5" transform="translate(0.000000, 0.948819)">
                            <mask id="mask-2" fill="white">
                                <use xlink:href="#path-1"></use>
                            </mask>
                            <g id="Clip-2"></g>
                            <path d="M77.9839264,210.232355 C33.5822148,210.232355 -0.921628674,179.889992 0.0187730262,147.347575 C0.958773873,114.805157 16.0011925,108.468598 23.052201,95.8650813 C30.1036104,83.2611646 26.3428053,56.9869045 57.3680443,42.4625395 C88.3932834,27.9377746 118.108534,38.6160429 135.685949,30.3654356 C153.263764,22.1148283 163.993804,0.384682312 181.857026,0.0906749252 C199.719448,-0.202532442 219.611389,15.4418606 241.847921,17.2619064 C264.084452,19.0815521 276.071167,5.97882287 292.993988,12.1661783 C309.916809,18.3535338 308.858957,38.0080276 321.903524,45.2870105 C334.948491,52.5667934 360.332522,55.8420757 370.556685,76.5881969 C380.780847,97.3347182 396.293467,133.157218 379.722996,163.107571 C363.152925,193.057923 343.763253,210.232355 312.768078,210.232355 L77.9839264,210.232355 Z" id="Fill-1" fill="#789C49" mask="url(#mask-2)"></path>
                        </g>
                        <g id="Group-97" transform="translate(0.000000, 32.948819)">
                            <polygon id="Fill-1" fill="#495E8C" points="117.070697 98.1042654 38.4699781 98.1042654 38.4699781 150.14218 115.916264 149.644957"></polygon>
                            <polygon id="Fill-2" fill="#495E8C" points="392.173214 98.1042654 313.572495 98.1042654 313.572495 150.14218 391.01878 149.644957"></polygon>
                            <g id="Group-96" transform="translate(0.023974, 0.000000)">
                                <path d="M0,8.47217376 L0,141.519772 C0,146.070981 3.68833842,149.760215 8.23775917,149.760215 L40.9923011,149.760215 L40.9870899,143.284201 C40.9870899,122.443758 56.7422296,107.38938 76.176818,107.38938 C95.6120195,107.38938 111.367159,122.443758 111.367159,143.284201 L111.361948,149.760215 L240.851993,149.760215 L240.851993,8.47217376 C240.851993,3.92096422 237.163655,0.231424191 232.614234,0.231424191 L8.23775917,0.231424191 C3.68833842,0.231424191 0,3.92096422 0,8.47217376" id="Fill-3" fill="#0081A3"></path>
                                <path d="M379.404126,76.9376116 C350.854143,70.6250392 319.920166,51.1019387 319.920166,51.1019387 L287.31767,18.6105588 L240.852024,18.6105588 L240.852024,149.760031 L316.611636,149.760031 C316.272291,147.710729 316.093576,145.603472 316.093576,143.452365 C316.093576,123.153455 331.848716,106.697714 351.283611,106.697714 C370.718506,106.697714 386.473645,123.153455 386.473645,143.452365 C386.473645,144.428719 386.436247,145.395874 386.364822,146.353216 L403.755375,146.353216 L403.755375,93.8490256 C403.755375,80.0439148 386.640405,78.5379864 379.404126,76.9376116" id="Fill-5" fill="#A05FA6"></path>
                                <path d="M319.357719,148.033809 C319.357719,130.473537 333.588415,116.238511 351.142662,116.238511 C368.696909,116.238511 382.927605,130.473537 382.927605,148.033809 C382.927605,165.594082 368.696909,179.829107 351.142662,179.829107 C333.588415,179.829107 319.357719,165.594082 319.357719,148.033809" id="Fill-7" fill="#223166"></path>
                                <path d="M325.049599,152.290579 C325.049599,134.730307 339.280295,120.495281 356.834542,120.495281 C362.689534,120.495281 368.173301,122.080324 372.883964,124.842572 C367.199104,119.507581 359.552975,116.23845 351.142631,116.23845 C333.588384,116.23845 319.357688,130.473782 319.357688,148.033748 C319.357688,159.737121 325.68016,169.962164 335.093516,175.481755 C328.912361,169.680971 325.049599,161.437462 325.049599,152.290579" id="Fill-9" fill="#172651"></path>
                                <path d="M330.788901,148.033809 C330.788901,136.789175 339.901844,127.673571 351.142509,127.673571 C362.38348,127.673571 371.496116,136.789175 371.496116,148.033809 C371.496116,159.278443 362.38348,168.394048 351.142509,168.394048 C339.901844,168.394048 330.788901,159.278443 330.788901,148.033809" id="Fill-11" fill="#0F1D5A"></path>
                                <path d="M333.720076,148.033809 C333.720076,138.408256 341.520396,130.605394 351.142509,130.605394 C360.764927,130.605394 368.565248,138.408256 368.565248,148.033809 C368.565248,157.659363 360.764927,165.461918 351.142509,165.461918 C341.520396,165.461918 333.720076,157.659363 333.720076,148.033809" id="Fill-13" fill="#778091"></path>
                                <path d="M344.025996,148.033809 C344.025996,144.102327 347.212215,140.914763 351.142723,140.914763 C355.073231,140.914763 358.259451,144.102327 358.259451,148.033809 C358.259451,151.965291 355.073231,155.152855 351.142723,155.152855 C347.212215,155.152855 344.025996,151.965291 344.025996,148.033809" id="Fill-15" fill="#9299A5"></path>
                                <path d="M346.887247,148.033809 C346.887247,145.68277 348.792419,143.776978 351.142692,143.776978 C353.492659,143.776978 355.398137,145.68277 355.398137,148.033809 C355.398137,150.384848 353.492659,152.290641 351.142692,152.290641 C348.792419,152.290641 346.887247,150.384848 346.887247,148.033809" id="Fill-17" fill="#B7B9BC"></path>
                                <path d="M352.350262,150.116811 C349.999988,150.116811 348.094817,148.211019 348.094817,145.85998 C348.094817,145.556095 348.127923,145.259877 348.188619,144.974085 C347.387619,145.748055 346.887339,146.831428 346.887339,148.033779 C346.887339,150.384818 348.792511,152.29061 351.142784,152.29061 C353.188966,152.29061 354.896417,150.845397 355.304427,148.91998 C354.53868,149.659605 353.498576,150.116811 352.350262,150.116811" id="Fill-19" fill="#A8ACB2"></path>
                                <polygon id="Fill-21" fill="#324884" points="316.297673 67.3199693 251.565065 67.3199693 251.565065 27.1186405 283.931523 27.1186405 316.297673 58.8578228"></polygon>
                                <mask id="mask-4" fill="white">
                                    <use xlink:href="#path-3"></use>
                                </mask>
                                <g id="Clip-24"></g>
                                <polygon id="Fill-23" fill="#6C4472" mask="url(#mask-4)" points="240.851993 149.760307 244.882129 149.760307 244.882129 18.6108348 240.851993 18.6108348"></polygon>
                                <path d="M400.077888,149.760153 L388.174781,149.760153 L384.379459,132.503765 L409.220872,132.503765 L409.220872,140.614191 C409.220872,145.644378 405.106437,149.760153 400.077888,149.760153" id="Fill-25" fill="#223166" mask="url(#mask-4)"></path>
                                <path d="M409.22078,134.91969 L384.910914,134.91969 L381.257215,126.291342 L406.288073,126.291342 C407.907852,126.291342 409.22078,127.605005 409.22078,129.225005 L409.22078,134.91969 Z" id="Fill-26" fill="#0F1D5A" mask="url(#mask-4)"></path>
                                <path d="M402.871823,91.9095639 L395.233357,91.7893595 C393.936369,91.7688143 392.974127,92.9864974 393.29324,94.2440443 L397.458254,110.655629 C397.679886,111.529257 398.466171,112.141012 399.367104,112.141012 L402.82063,112.141012 C403.908555,112.141012 404.790176,111.259104 404.790176,110.170825 L404.790176,93.8490869 L404.790176,93.829155 C404.788949,92.775833 403.924802,91.9261227 402.871823,91.9095639" id="Fill-27" fill="#9FBAE2" mask="url(#mask-4)"></path>
                                <path d="M402.871823,91.9095639 L402.000931,91.8957649 C402.065612,94.0622044 401.939622,96.5935503 401.400411,99.3711312 C400.565385,103.673346 398.991281,107.267213 397.323681,110.125748 L397.458254,110.655629 C397.679886,111.529257 398.466171,112.141012 399.367104,112.141012 L402.82063,112.141012 C403.908555,112.141012 404.790176,111.259104 404.790176,110.170825 L404.790176,93.8490869 L404.790176,93.829155 C404.788949,92.775833 403.924802,91.9264293 402.871823,91.9095639" id="Fill-28" fill="#93B3D8" mask="url(#mask-4)"></path>
                                <path d="M403.216838,91.9095639 L402.493088,91.8982181 L402.493088,112.141012 L403.165645,112.141012 C404.25357,112.141012 405.135498,111.259104 405.135498,110.170825 L405.135498,93.8490869 L405.135498,93.829155 C405.133965,92.775833 404.269817,91.9264293 403.216838,91.9095639" id="Fill-29" fill="#B1CDEF" mask="url(#mask-4)"></path>
                                <path d="M306.165839,63.9953969 L305.9485,63.9953969 C305.860828,63.9953969 305.789097,63.9239489 305.789097,63.8359421 L305.789097,54.3673901 C305.789097,54.2793833 305.860828,54.2079353 305.9485,54.2079353 L306.165839,54.2079353 C306.253511,54.2079353 306.324936,54.2793833 306.324936,54.3673901 L306.324936,63.8359421 C306.324936,63.9239489 306.253511,63.9953969 306.165839,63.9953969" id="Fill-30" fill="#FFFFFF" mask="url(#mask-4)"></path>
                                <path d="M369.790965,98.4895298 L375.908358,98.4895298 C376.585514,98.4895298 377.134228,97.9406371 377.134228,97.2632606 L377.134228,93.0564123 C377.134228,92.3793424 376.585514,91.8304497 375.908358,91.8304497 L369.790965,91.8304497 C369.114115,91.8304497 368.565095,92.3793424 368.565095,93.0564123 L368.565095,97.2632606 C368.565095,97.9406371 369.114115,98.4895298 369.790965,98.4895298" id="Fill-31" fill="#0081A3" mask="url(#mask-4)"></path>
                                <path d="M358.060412,98.4895298 L364.177805,98.4895298 C364.854655,98.4895298 365.403675,97.9406371 365.403675,97.2632606 L365.403675,93.0564123 C365.403675,92.3793424 364.854655,91.8304497 364.177805,91.8304497 L358.060412,91.8304497 C357.383562,91.8304497 356.834542,92.3793424 356.834542,93.0564123 L356.834542,97.2632606 C356.834542,97.9406371 357.383562,98.4895298 358.060412,98.4895298" id="Fill-32" fill="#2B478B" mask="url(#mask-4)"></path>
                                <path d="M296.920133,39.8558637 C297.815854,42.745063 297.947362,45.6468348 297.204912,48.2919455 C295.15076,55.6115366 286.81552,59.620293 285.014267,60.4862555 C280.993328,62.4202589 277.483705,62.8523203 276.043867,63.0172947 C269.793127,63.7333083 260.617956,64.2996797 251.565096,64.7280613 L251.565096,67.319816 L316.297704,67.319816 L316.297704,58.8579761 L296.920133,39.8558637 Z" id="Fill-33" fill="#223166" mask="url(#mask-4)"></path>
                                <polygon id="Fill-34" fill="#223166" mask="url(#mask-4)" points="283.931216 27.1187632 251.565065 27.1187632 251.565065 29.4198194 283.241185 29.4198194 315.607336 61.1586951 315.607336 67.320092 316.297673 67.320092 316.297673 58.8579455"></polygon>
                                <path d="M310.550125,76.9376116 L306.219577,76.9376116 L306.219577,54.2079353 L310.550125,54.2079353 C313.724389,54.2079353 316.297826,56.7822112 316.297826,59.9572027 L316.297826,71.1883441 C316.297826,74.3636422 313.724389,76.9376116 310.550125,76.9376116" id="Fill-35" fill="#DFE9FF" mask="url(#mask-4)"></path>
                                <path d="M315.534593,57.631339 L315.534593,66.0665009 C315.534593,69.6401295 312.638364,72.5373015 309.0659,72.5373015 L307.526742,72.5373015 L307.526742,54.2079659 L306.219638,54.2079659 L306.219638,76.9376422 L309.828888,76.9376422 C313.401353,76.9376422 316.297581,74.0407768 316.297581,70.4668416 L316.297581,60.6787666 C316.297581,59.5766882 316.020465,58.5396184 315.534593,57.631339" id="Fill-36" fill="#D2E1FC" mask="url(#mask-4)"></path>
                                <path d="M313.875392,58.5689336 C313.670928,59.1785417 312.333476,59.2797342 310.88812,58.7949302 C309.443072,58.3098194 308.4373,57.4220852 308.641765,56.8121704 C308.846537,56.2022555 310.183989,56.101063 311.629037,56.5861738 C313.074086,57.0712845 314.079857,57.9590187 313.875392,58.5689336" id="Fill-37" fill="#F3F7FF" mask="url(#mask-4)"></path>
                                <path d="M275.813775,32.6461431 L255.57267,32.6461431 L255.342761,53.8137751 C255.342761,53.8137751 257.031206,45.6824974 260.633099,39.8559557 C264.787691,33.1352402 275.813775,32.6461431 275.813775,32.6461431" id="Fill-38" fill="#5572A5" mask="url(#mask-4)"></path>
                                <path d="M46.471654,12.2782692 L11.4646261,12.2782692 C10.5008515,12.2782692 9.71763139,13.0553049 9.70904816,14.0190869 L9.33590189,56.173431 C9.31820445,58.207707 12.1929749,58.6416082 12.7735694,56.6919659 C15.4162859,47.8140102 15.3629472,40.9375196 23.639331,29.4665826 C28.4652545,22.7777581 37.7814358,18.229615 46.9333094,15.7274003 C48.9099056,15.1870937 48.5205947,12.2782692 46.471654,12.2782692" id="Fill-39" fill="#035D72" mask="url(#mask-4)"></path>
                                <path d="M315.818085,145.812419 L244.840255,145.812419 C243.754782,145.812419 242.86703,146.70046 242.86703,147.786286 L242.86703,148.281516 C242.86703,149.367036 243.754782,150.25477 244.840255,150.25477 L315.818085,150.25477 C316.903251,150.25477 317.791003,149.367036 317.791003,148.281516 L317.791003,147.786286 C317.791003,146.70046 316.903251,145.812419 315.818085,145.812419" id="Fill-40" fill="#F3F7FF" mask="url(#mask-4)"></path>
                                <path d="M315.818085,145.812419 L244.840255,145.812419 C243.754782,145.812419 242.86703,146.70046 242.86703,147.786286 L242.86703,148.281516 C242.86703,149.367036 243.754782,150.25477 244.840255,150.25477 L315.818085,150.25477 C316.903251,150.25477 317.791003,149.367036 317.791003,148.281516 L317.791003,147.786286 C317.791003,146.70046 316.903251,145.812419 315.818085,145.812419" id="Fill-41" fill="#223166" mask="url(#mask-4)"></path>
                                <path d="M315.57052,145.812419 L313.275731,145.812419 C313.275731,147.034089 312.276397,148.033748 311.055432,148.033748 L242.867153,148.033748 C242.867153,149.255724 243.866487,150.25477 245.087758,150.25477 L315.57052,150.25477 C316.791792,150.25477 317.791125,149.255724 317.791125,148.033748 C317.791125,146.812078 316.791792,145.812419 315.57052,145.812419" id="Fill-42" fill="#0F1D5A" mask="url(#mask-4)"></path>
                                <path d="M252.237593,23.787598 C250.144816,23.787598 248.442577,25.4906985 248.442577,27.5841567 L248.442577,138.370937 C248.442577,140.464395 250.144816,142.167496 252.237593,142.167496 L309.08558,142.167496 C310.39391,131.76092 312.558111,123.491652 318.719034,117.033424 C318.872,116.592164 318.973466,116.296559 319.012703,116.181261 L319.012703,56.4240204 L285.907782,23.787598 L252.237593,23.787598 Z M309.694989,142.857751 L252.237593,142.857751 C249.764395,142.857751 247.752546,140.84494 247.752546,138.370937 L247.752546,27.5841567 C247.752546,25.1098467 249.764395,23.0973424 252.237593,23.0973424 L286.191028,23.0973424 L319.702734,56.1348552 L319.702734,116.295945 L319.684342,116.349608 C319.684342,116.349608 319.562644,116.706848 319.34653,117.330562 L319.3217,117.40201 L319.269587,117.456593 C313.139932,123.848279 311.023858,132.112641 309.732694,142.554787 L309.694989,142.857751 Z" id="Fill-43" fill="#6C4472" mask="url(#mask-4)"></path>
                                <path d="M270.284333,81.0794208 L256.25473,81.0794208 C255.753224,81.0794208 255.342761,80.6688245 255.342761,80.1668484 L255.342761,75.7790801 C255.342761,75.2774106 255.753224,74.8668143 256.25473,74.8668143 L270.284333,74.8668143 C270.785839,74.8668143 271.196302,75.2774106 271.196302,75.7790801 L271.196302,80.1668484 C271.196302,80.6688245 270.785839,81.0794208 270.284333,81.0794208" id="Fill-44" fill="#2B478B" mask="url(#mask-4)"></path>
                                <path d="M271.788606,75.5086201 C271.788606,74.8392164 271.292311,74.2915503 270.685661,74.2915503 L255.853525,74.2915503 C255.246874,74.2915503 254.750273,74.8392164 254.750273,75.5086201 L254.750273,77.9731175 L271.788606,77.9731175 L271.788606,75.5086201 Z" id="Fill-45" fill="#233862" mask="url(#mask-4)"></path>
                                <path d="M353.327831,146.503871 C353.327831,147.348981 352.632589,148.033717 351.775491,148.033717 C350.917781,148.033717 350.222846,147.348981 350.222846,146.503871 C350.222846,145.65876 350.917781,144.974024 351.775491,144.974024 C352.632589,144.974024 353.327831,145.65876 353.327831,146.503871" id="Fill-46" fill="#C7CCD3" mask="url(#mask-4)"></path>
                                <path d="M337.881779,150.254862 C337.881779,140.629615 345.6821,132.826753 355.304212,132.826753 C357.420899,132.826753 359.449301,133.204845 361.325964,133.896634 C358.46131,131.828014 354.945862,130.605424 351.14257,130.605424 C341.520458,130.605424 333.720137,138.408286 333.720137,148.03384 C333.720137,155.54171 338.466359,161.939836 345.120818,164.392375 C340.737237,161.226889 337.881779,156.075884 337.881779,150.254862" id="Fill-47" fill="#6B7687" mask="url(#mask-4)"></path>
                                <path d="M376.052066,135.798593 C375.449094,136.003738 374.801366,135.700467 374.548774,135.11539 C373.90963,133.63706 373.017893,132.257468 371.932727,131.078116 C370.885572,129.939853 369.678095,128.990484 368.333593,128.246566 C367.774763,127.937468 367.534432,127.261319 367.79898,126.679922 C368.091423,126.036889 368.869432,125.782988 369.487425,126.123976 C371.065207,126.994538 372.481441,128.107043 373.709763,129.44217 C374.979468,130.822068 376.022945,132.436855 376.769686,134.167247 C377.05048,134.817639 376.723091,135.570143 376.052373,135.798286 L376.052066,135.798593 Z" id="Fill-48" fill="#324884" mask="url(#mask-4)"></path>
                                <path d="M373.664517,164.414392 L373.663597,164.413779 C373.138794,164.038753 372.997171,163.3163 373.350922,162.776913 C375.586242,159.370099 377.932837,154.252825 377.82432,147.882603 C377.787228,145.706351 377.459839,143.534392 376.850123,141.409963 C376.672021,140.789622 377.011059,140.139537 377.622921,139.933779 L377.62384,139.933472 C378.27586,139.713915 378.981831,140.083114 379.171581,140.744852 C379.839848,143.071973 380.198504,145.453676 380.239275,147.841513 C380.357907,154.80601 377.8093,160.380797 375.379325,164.088429 C375.001662,164.664307 374.22488,164.814562 373.664517,164.414392" id="Fill-49" fill="#324884" mask="url(#mask-4)"></path>
                                <path d="M349.558595,135.724906 C349.558595,134.875809 350.246787,134.187087 351.095914,134.187087 C351.944734,134.187087 352.632926,134.875809 352.632926,135.724906 C352.632926,136.574617 351.944734,137.263032 351.095914,137.263032 C350.246787,137.263032 349.558595,136.574617 349.558595,135.724906" id="Fill-50" fill="#2D3654" mask="url(#mask-4)"></path>
                                <path d="M349.558595,160.342375 C349.558595,161.191779 350.246787,161.880194 351.095914,161.880194 C351.944734,161.880194 352.632926,161.191779 352.632926,160.342375 C352.632926,159.492971 351.944734,158.804555 351.095914,158.804555 C350.246787,158.804555 349.558595,159.492971 349.558595,160.342375" id="Fill-51" fill="#2D3654" mask="url(#mask-4)"></path>
                                <path d="M338.791081,149.571506 C337.941954,149.571506 337.253762,148.88309 337.253762,148.033687 C337.253762,147.184589 337.941954,146.496174 338.791081,146.496174 C339.640208,146.496174 340.3284,147.184589 340.3284,148.033687 C340.3284,148.88309 339.640208,149.571506 338.791081,149.571506" id="Fill-52" fill="#2D3654" mask="url(#mask-4)"></path>
                                <path d="M363.400379,149.571506 C364.249506,149.571506 364.937697,148.88309 364.937697,148.033687 C364.937697,147.184589 364.249506,146.496174 363.400379,146.496174 C362.551558,146.496174 361.86306,147.184589 361.86306,148.033687 C361.86306,148.88309 362.551558,149.571506 363.400379,149.571506" id="Fill-53" fill="#2D3654" mask="url(#mask-4)"></path>
                                <path d="M341.308115,140.417417 C340.707901,139.817009 340.707901,138.843414 341.308115,138.242698 C341.908328,137.64229 342.881605,137.64229 343.482125,138.242698 C344.082338,138.843414 344.082338,139.817009 343.482125,140.417417 C342.881605,141.018133 341.908328,141.018133 341.308115,140.417417" id="Fill-54" fill="#2D3654" mask="url(#mask-4)"></path>
                                <path d="M358.70958,157.824552 C359.309793,158.425267 360.283071,158.425267 360.883591,157.824552 C361.483804,157.224143 361.483804,156.250549 360.883591,155.649833 C360.283071,155.049424 359.309793,155.049424 358.70958,155.649833 C358.109367,156.250549 358.109367,157.224143 358.70958,157.824552" id="Fill-55" fill="#2D3654" mask="url(#mask-4)"></path>
                                <path d="M343.482033,157.824552 C342.88182,158.425267 341.908542,158.425267 341.308023,157.824552 C340.707809,157.224143 340.707809,156.250549 341.308023,155.649833 C341.908542,155.049424 342.88182,155.049424 343.482033,155.649833 C344.082247,156.250549 344.082247,157.224143 343.482033,157.824552" id="Fill-56" fill="#2D3654" mask="url(#mask-4)"></path>
                                <path d="M360.883499,140.417417 C361.483712,139.817009 361.483712,138.843414 360.883499,138.242698 C360.283285,137.64229 359.309701,137.64229 358.709488,138.242698 C358.109275,138.843414 358.109275,139.817009 358.709488,140.417417 C359.309701,141.018133 360.283285,141.018133 360.883499,140.417417" id="Fill-57" fill="#2D3654" mask="url(#mask-4)"></path>
                                <path d="M317.361902,152.741867 C316.19305,152.953758 315.090104,152.139312 314.937445,150.960879 C314.370032,146.58875 314.482227,142.205274 315.27403,137.900606 C317.269939,127.05093 322.624345,119.976654 326.764222,115.953179 C328.480869,114.284729 333.041019,109.852804 340.401449,107.361629 C352.26961,103.34398 362.796947,107.152191 366.772517,108.976109 C376.685846,113.524252 381.525564,121.137915 383.347356,124.003809 C389.387194,133.506399 390.288127,143.338324 390.102974,149.42306 C390.066802,150.608852 389.052754,151.525104 387.870414,151.431578 L387.868881,151.431271 C386.772373,151.344184 385.92999,150.41444 385.964322,149.314508 C386.1366,143.783877 385.328857,134.839687 379.853673,126.226058 C378.211209,123.642583 373.848474,116.779278 365.046367,112.740777 C361.520804,111.122923 352.190215,107.742787 341.728478,111.284525 C335.25488,113.475802 331.326825,117.29352 329.649415,118.923639 C325.941458,122.527319 321.144043,128.874542 319.346162,138.650044 C318.633141,142.525104 318.531674,146.473145 319.041457,150.41352 C319.184,151.517131 318.456265,152.543468 317.361902,152.741867" id="Fill-58" fill="#FFFFFF" mask="url(#mask-4)"></path>
                                <path d="M34.0659069,129.395591 L19.5694371,129.395591 C18.0465261,129.395591 16.8120731,128.161043 16.8120731,126.637635 L16.8120731,116.281349 C16.8120731,114.758249 18.0465261,113.523394 19.5694371,113.523394 L34.0659069,113.523394 C35.5888179,113.523394 36.8232709,114.758249 36.8232709,116.281349 L36.8232709,126.637635 C36.8232709,128.161043 35.5888179,129.395591 34.0659069,129.395591" id="Fill-59" fill="#A05FA6" mask="url(#mask-4)"></path>
                                <path d="M34.4886005,113.623206 C33.6974102,118.314859 31.7284776,120.99002 30.68868,122.193598 C27.7063126,125.645489 23.0787232,127.764705 17.5836139,128.335063 C18.1522532,128.983922 18.9848269,129.395744 19.9154947,129.395744 L33.7197879,129.395744 C35.4336759,129.395744 36.8232403,128.005727 36.8232403,126.291588 L36.8232403,116.627704 C36.8232403,115.179118 35.8297309,113.965727 34.4886005,113.623206" id="Fill-60" fill="#6C4472" mask="url(#mask-4)"></path>
                                <path d="M318.719034,117.033424 C318.872,116.59247 318.973466,116.296559 319.012703,116.181261 L319.012703,88.2410903 C317.413463,94.7563543 309.937159,120.802385 290.369837,131.88971 C279.556495,138.016763 269.195305,141.111107 260.815309,142.167496 L309.08558,142.167496 C310.39391,131.76092 312.558111,123.491959 318.719034,117.033424" id="Fill-61" fill="#6C4472" mask="url(#mask-4)"></path>
                                <path d="M45.1264772,148.204794 C45.1264772,130.644521 59.3571733,116.409496 76.9114202,116.409496 C94.4656672,116.409496 108.696363,130.644521 108.696363,148.204794 C108.696363,165.76476 94.4656672,180.000092 76.9114202,180.000092 C59.3571733,180.000092 45.1264772,165.76476 45.1264772,148.204794" id="Fill-62" fill="#223166" mask="url(#mask-4)"></path>
                                <path d="M50.8185104,152.461564 C50.8185104,134.901291 65.0492064,120.666266 82.6034534,120.666266 C88.4581389,120.666266 93.9422125,122.251308 98.6525689,125.013557 C92.9677089,119.678259 85.3218863,116.409434 76.9115429,116.409434 C59.3569893,116.409434 45.1265999,130.644767 45.1265999,148.204733 C45.1265999,159.908106 51.4487651,170.132842 60.8621208,175.652739 C54.6812724,169.851956 50.8185104,161.608446 50.8185104,152.461564" id="Fill-63" fill="#172651" mask="url(#mask-4)"></path>
                                <path d="M56.5578127,148.204794 C56.5578127,136.959853 65.6704487,127.844555 76.9114202,127.844555 C88.1523918,127.844555 97.2650278,136.959853 97.2650278,148.204794 C97.2650278,159.449428 88.1523918,168.564726 76.9114202,168.564726 C65.6704487,168.564726 56.5578127,159.449428 56.5578127,148.204794" id="Fill-64" fill="#0F1D5A" mask="url(#mask-4)"></path>
                                <path d="M59.4888646,148.204794 C59.4888646,138.57924 67.2891854,130.776378 76.9112976,130.776378 C86.5337164,130.776378 94.3340372,138.57924 94.3340372,148.204794 C94.3340372,157.830041 86.5337164,165.632903 76.9112976,165.632903 C67.2891854,165.632903 59.4888646,157.830041 59.4888646,148.204794" id="Fill-65" fill="#778091" mask="url(#mask-4)"></path>
                                <path d="M69.7947541,148.204794 C69.7947541,144.273005 72.9809733,141.085748 76.9114815,141.085748 C80.8419898,141.085748 84.028209,144.273005 84.028209,148.204794 C84.028209,152.136276 80.8419898,155.32384 76.9114815,155.32384 C72.9809733,155.32384 69.7947541,152.136276 69.7947541,148.204794" id="Fill-66" fill="#9299A5" mask="url(#mask-4)"></path>
                                <path d="M72.6560366,148.204794 C72.6560366,145.853755 74.5612081,143.947963 76.9114815,143.947963 C79.2614485,143.947963 81.1669265,145.853755 81.1669265,148.204794 C81.1669265,150.555526 79.2614485,152.461625 76.9114815,152.461625 C74.5612081,152.461625 72.6560366,150.555526 72.6560366,148.204794" id="Fill-67" fill="#B7B9BC" mask="url(#mask-4)"></path>
                                <path d="M78.1190507,150.287796 C75.7687772,150.287796 73.8636057,148.381697 73.8636057,146.030964 C73.8636057,145.726773 73.8967124,145.430862 73.9574082,145.14507 C73.1564085,145.918733 72.6561285,147.002412 72.6561285,148.204763 C72.6561285,150.555496 74.5613,152.461595 76.9115735,152.461595 C78.9577553,152.461595 80.6652058,151.016382 81.073216,149.090964 C80.3074689,149.830589 79.2673648,150.287796 78.1190507,150.287796" id="Fill-68" fill="#A8ACB2" mask="url(#mask-4)"></path>
                                <path d="M79.0967424,146.674855 C79.0967424,147.519659 78.4015004,148.204702 77.5440966,148.204702 C76.6866928,148.204702 75.9914508,147.519659 75.9914508,146.674855 C75.9914508,145.829744 76.6866928,145.145009 77.5440966,145.145009 C78.4015004,145.145009 79.0967424,145.829744 79.0967424,146.674855" id="Fill-69" fill="#C7CCD3" mask="url(#mask-4)"></path>
                                <path d="M63.6505377,150.425847 C63.6505377,140.8006 71.4508585,132.997738 81.0729708,132.997738 C83.1899642,132.997738 85.2180599,133.37583 87.0947228,134.067312 C84.2300683,131.998998 80.7146207,130.776409 76.9113283,130.776409 C67.289216,130.776409 59.4888953,138.579271 59.4888953,148.204825 C59.4888953,155.712388 64.2351173,162.110821 70.8895763,164.563053 C66.5063024,161.397874 63.6505377,156.246869 63.6505377,150.425847" id="Fill-70" fill="#6B7687" mask="url(#mask-4)"></path>
                                <path d="M75.3273537,135.895922 C75.3273537,135.046518 76.0155452,134.358102 76.8646723,134.358102 C77.7134928,134.358102 78.4016843,135.046518 78.4016843,135.895922 C78.4016843,136.745325 77.7134928,137.433741 76.8646723,137.433741 C76.0155452,137.433741 75.3273537,136.745325 75.3273537,135.895922" id="Fill-71" fill="#2D3654" mask="url(#mask-4)"></path>
                                <path d="M75.3273537,160.513359 C75.3273537,161.362763 76.0155452,162.051179 76.8646723,162.051179 C77.7134928,162.051179 78.4016843,161.362763 78.4016843,160.513359 C78.4016843,159.663956 77.7134928,158.97554 76.8646723,158.97554 C76.0155452,158.97554 75.3273537,159.663956 75.3273537,160.513359" id="Fill-72" fill="#2D3654" mask="url(#mask-4)"></path>
                                <path d="M64.5598701,149.742491 C63.710743,149.742491 63.0225515,149.054075 63.0225515,148.204671 C63.0225515,147.355574 63.710743,146.667158 64.5598701,146.667158 C65.4089972,146.667158 66.0971887,147.355574 66.0971887,148.204671 C66.0971887,149.054075 65.4089972,149.742491 64.5598701,149.742491" id="Fill-73" fill="#2D3654" mask="url(#mask-4)"></path>
                                <path d="M89.1692905,149.742491 C90.0184176,149.742491 90.7066091,149.054075 90.7066091,148.204671 C90.7066091,147.355574 90.0184176,146.667158 89.1692905,146.667158 C88.3201634,146.667158 87.6319719,147.355574 87.6319719,148.204671 C87.6319719,149.054075 88.3201634,149.742491 89.1692905,149.742491" id="Fill-74" fill="#2D3654" mask="url(#mask-4)"></path>
                                <path d="M67.0768729,140.588402 C66.4766596,139.987993 66.4766596,139.014399 67.0768729,138.413683 C67.6770862,137.813274 68.6503637,137.813274 69.2508836,138.413683 C69.8510969,139.014399 69.8510969,139.987993 69.2508836,140.588402 C68.6503637,141.189118 67.6770862,141.189118 67.0768729,140.588402" id="Fill-75" fill="#2D3654" mask="url(#mask-4)"></path>
                                <path d="M84.4783383,157.995537 C85.0785517,158.596252 86.0518291,158.596252 86.652349,157.995537 C87.2525623,157.395128 87.2525623,156.421533 86.652349,155.820818 C86.0518291,155.220409 85.0785517,155.220409 84.4783383,155.820818 C83.878125,156.421533 83.878125,157.395128 84.4783383,157.995537" id="Fill-76" fill="#2D3654" mask="url(#mask-4)"></path>
                                <path d="M69.2508223,157.995537 C68.650609,158.596252 67.6773315,158.596252 67.0768116,157.995537 C66.4765983,157.395128 66.4765983,156.421533 67.0768116,155.820818 C67.6773315,155.220409 68.650609,155.220409 69.2508223,155.820818 C69.8510356,156.421533 69.8510356,157.395128 69.2508223,157.995537" id="Fill-77" fill="#2D3654" mask="url(#mask-4)"></path>
                                <path d="M86.6522877,140.588402 C87.252501,139.987993 87.252501,139.014399 86.6522877,138.413683 C86.0520744,137.813274 85.0787969,137.813274 84.478277,138.413683 C83.8780637,139.014399 83.8780637,139.987993 84.478277,140.588402 C85.0787969,141.189118 86.0520744,141.189118 86.6522877,140.588402" id="Fill-78" fill="#2D3654" mask="url(#mask-4)"></path>
                                <path d="M100.737437,135.466773 C100.134464,135.671918 99.4867367,135.368954 99.2341444,134.783877 C98.595,133.30524 97.7032632,131.925649 96.6184037,130.746603 C95.5709426,129.608034 94.363772,128.658664 93.0189631,127.914746 C92.4601332,127.605649 92.2198026,126.929499 92.4843502,126.348102 C92.7767932,125.705376 93.5548021,125.451169 94.172795,125.792157 C95.7505774,126.662719 97.1671176,127.775223 98.3954398,129.110658 C99.6648388,130.490555 100.708315,132.105036 101.455056,133.835428 C101.735851,134.486126 101.408462,135.238324 100.737743,135.466467 L100.737437,135.466773 Z" id="Fill-79" fill="#324884" mask="url(#mask-4)"></path>
                                <path d="M98.3498873,164.082603 L98.3489677,164.08199 C97.8241642,163.707271 97.6825408,162.984511 98.0365993,162.445124 C100.271919,159.03831 102.618514,153.921036 102.509691,147.550814 C102.472905,145.374562 102.145516,143.202603 101.535493,141.078174 C101.357391,140.45814 101.696429,139.807748 102.308291,139.60199 L102.309211,139.601683 C102.96123,139.382433 103.667201,139.751632 103.857258,140.413063 C104.525524,142.740184 104.883874,145.121888 104.924645,147.509724 C105.043277,154.474221 102.49467,160.049009 100.064695,163.756947 C99.6873391,164.332518 98.9102499,164.482773 98.3498873,164.082603" id="Fill-80" fill="#324884" mask="url(#mask-4)"></path>
                                <path d="M306.134572,77.7141261 L306.304704,77.7141261 C306.678994,77.7141261 306.982473,77.4108552 306.982473,77.0361363 L306.982473,54.0605315 C306.982473,53.6864259 306.678994,53.3825417 306.304704,53.3825417 L306.134572,53.3825417 C305.760282,53.3825417 305.456803,53.6864259 305.456803,54.0605315 L305.456803,77.0361363 C305.456803,77.4108552 305.760282,77.7141261 306.134572,77.7141261" id="Fill-81" fill="#FFFFFF" mask="url(#mask-4)"></path>
                                <path d="M0.360281262,143.952501 C1.39241519,147.325278 4.52836117,149.796215 8.23785114,149.796215 L40.9920865,149.796215 C40.9920865,149.796215 40.9887145,145.35417 40.9874884,144.117782 C25.7586848,144.174511 11.2986938,144.068719 0.360281262,143.952501" id="Fill-82" fill="#035D72" mask="url(#mask-4)"></path>
                                <path d="M232.614112,0.153843271 L232.344353,0.153843271 C235.026614,14.2594651 237.198785,38.6048484 226.229411,64.5101295 C211.936487,98.2648825 183.755889,114.619431 168.599124,123.405394 C151.592058,133.263383 134.047007,137.876228 133.04001,138.133809 C133.04001,138.133809 125.494734,140.069959 117.099718,141.205155 C115.36713,141.439431 113.438355,141.658375 111.339448,141.858 C111.356001,142.329618 111.367037,142.823009 111.367037,143.30076 L111.361825,149.796092 L240.851871,149.796092 L240.851871,8.47217376 C240.851871,3.92096422 237.163839,0.153843271 232.614112,0.153843271" id="Fill-83" fill="#035D72" mask="url(#mask-4)"></path>
                                <path d="M42.0956146,152.912852 C40.926762,153.124743 39.8238164,152.310296 39.6711574,151.131557 C39.1037443,146.759734 39.2159394,142.376259 40.0077428,138.071591 C42.0036513,127.221608 47.3580569,120.147639 51.4979347,116.124164 C53.2145816,114.455714 57.7747314,110.023789 65.1351614,107.532307 C77.0033222,103.514658 87.5306591,107.323175 91.5062293,109.147094 C101.419558,113.695237 106.259276,121.308899 108.081068,124.174794 C114.120906,133.677077 115.021839,143.509308 114.836686,149.594044 C114.800514,150.779836 113.786466,151.696089 112.604126,151.602562 L112.6029,151.602256 C111.506085,151.515169 110.663702,150.585424 110.698035,149.485492 C110.870313,143.954862 110.062569,135.010365 104.587692,126.397043 C102.944922,123.813567 98.5821864,116.949956 89.7800796,112.911761 C86.2545161,111.293908 76.9239272,107.913772 66.4621907,111.455509 C59.9885928,113.646787 56.0605369,117.464198 54.3831276,119.094624 C50.6751704,122.698303 45.8777555,129.045526 44.0798744,138.821029 C43.3668529,142.695782 43.2653868,146.644129 43.7751696,150.584504 C43.9177126,151.687809 43.189977,152.714453 42.0956146,152.912852" id="Fill-84" fill="#FFFFFF" mask="url(#mask-4)"></path>
                                <path d="M89.0502901,66.4371721 C89.0502901,69.0798296 88.447931,70.956184 87.255781,72.018092 C87.0068672,72.2483816 86.7073736,72.4302215 86.365577,72.5583986 C86.0105989,72.6911755 85.6648172,72.7592504 85.3371216,72.7920613 C84.9922595,72.8264055 84.5066937,72.828552 83.8942186,72.828552 L81.1423723,72.828552 L81.1423723,60.2561499 L83.5257526,60.2561499 C84.6394273,60.2561499 85.5992168,60.3364906 86.3784518,60.588552 C87.1135446,60.8265077 87.7462515,61.3754003 88.2590998,62.2658944 C88.7842098,63.1778535 89.0502901,64.5654174 89.0502901,66.4371721 M90.4790921,58.2651107 C89.7010832,57.5481772 88.8206886,56.9842589 87.8621252,56.7220784 C86.9250199,56.466644 85.7908068,56.2697785 84.4910599,56.2697785 L79.5747059,56.2697785 C78.6780645,56.2697785 77.9564597,56.5629302 77.5340419,57.0078705 C77.1156093,57.4485179 76.8507552,58.2129813 76.8507552,59.1460988 L76.8507552,73.5277002 C76.8507552,74.1949574 76.9589652,74.7263714 77.0726931,75.1519932 C77.1983762,75.6242249 77.4981763,75.9345486 77.9113977,76.1939693 C78.3117443,76.446644 78.8984696,76.5082799 79.6510354,76.5082799 L84.5673894,76.5082799 C85.437055,76.5082799 86.2303911,76.509506 86.9244069,76.3911414 C87.6303779,76.2712436 88.3010963,76.0903237 88.917863,75.793799 C89.536469,75.4957411 90.1139981,75.1102896 90.6372688,74.6156729 C91.2932731,73.98 91.8386151,73.2566269 92.2582739,72.4507666 C92.6764001,71.6488927 92.9893816,70.7406133 93.1889418,69.7443271 C93.3869692,68.7566269 93.4872092,67.6539353 93.4872092,66.4620102 C93.4872092,62.8212266 92.4743875,60.0635775 90.4790921,58.2651107" id="Fill-85" fill="#FFFFFF" mask="url(#mask-4)"></path>
                                <path d="M109.060538,72.82846 L100.454619,72.82846 L100.454619,67.9221567 L108.09523,67.9221567 C108.761351,67.9221567 109.27052,67.7360239 109.608332,67.3962624 C109.94553,67.0574208 110.116582,66.6109472 110.116582,66.0829063 C110.116582,65.5524123 109.941852,65.091833 109.596683,64.7600443 C109.254887,64.4325486 108.749702,64.2424293 108.09523,64.2424293 L100.454619,64.2424293 L100.454619,59.949414 L108.768401,59.949414 C109.448622,59.949414 109.970974,59.8448484 110.321047,59.50846 C110.674492,59.1686985 110.853514,58.7519693 110.853514,58.2036899 C110.853514,57.6639966 110.674492,57.1672334 110.321047,56.8274719 C109.970974,56.4910835 109.448622,56.2696865 108.768401,56.2696865 L98.8084773,56.2696865 C98.2309482,56.2696865 97.7438497,56.430368 97.3606695,56.6149676 C96.9517397,56.811833 96.6344666,57.1620204 96.4441027,57.5894821 C96.2666137,57.9881193 96.1630018,58.5345588 96.1630018,59.1460068 L96.1630018,73.8888348 C96.1630018,74.8222589 96.3861659,75.4573186 96.7993873,75.8973526 C97.2175135,76.3432129 97.9026395,76.5081874 98.8084773,76.5081874 L109.060538,76.5081874 C109.732482,76.5081874 110.254833,76.3941158 110.61349,76.0485281 C110.975212,75.7001806 111.158525,75.2757853 111.158525,74.7278126 C111.158525,74.1626678 110.975212,73.6984089 110.61349,73.3491414 C110.254833,73.0038603 109.732482,72.82846 109.060538,72.82846" id="Fill-86" fill="#FFFFFF" mask="url(#mask-4)"></path>
                                <path d="M125.194505,72.82846 L117.621026,72.82846 L117.621026,58.7847802 C117.621026,57.8998058 117.533968,57.2215094 117.133008,56.7689029 C116.721933,56.3052572 116.239126,56.070368 115.583121,56.070368 C114.933248,56.070368 114.359704,56.308937 113.957518,56.7793288 C113.567287,57.2359216 113.329409,57.910845 113.329409,58.7847802 L113.329409,73.8888348 C113.329409,74.8222589 113.608058,75.4573186 114.021279,75.8973526 C114.439712,76.3432129 115.180016,76.5081874 116.085854,76.5081874 L125.194505,76.5081874 C125.890053,76.5081874 126.434475,76.3907428 126.813364,76.0393288 C127.19869,75.6814753 127.393958,75.2423612 127.393958,74.6744566 C127.393958,74.1172845 127.19777,73.6999421 126.810298,73.3285963 C126.426505,72.9615434 125.882696,72.82846 125.194505,72.82846" id="Fill-87" fill="#FFFFFF" mask="url(#mask-4)"></path>
                                <path d="M131.584784,56.0702453 C130.9438,56.0702453 130.342361,56.308201 129.935883,56.7782862 C129.540748,57.2345724 129.269763,57.9098024 129.269763,58.7849642 L129.269763,74.236753 C129.269763,75.1116082 129.542894,75.7892913 129.942321,76.2501772 C130.352783,76.7242487 130.917131,76.9649642 131.549531,76.9649642 C132.206455,76.9649642 132.647572,76.7270085 133.058341,76.2581499 C133.458688,75.8009438 133.56138,75.1208075 133.56138,74.236753 L133.56138,58.7849642 C133.56138,57.8999898 133.475854,57.2216934 133.074895,56.7687802 C132.664126,56.3054412 132.240788,56.0702453 131.584784,56.0702453" id="Fill-88" fill="#FFFFFF" mask="url(#mask-4)"></path>
                                <path d="M152.052579,56.3700204 C151.729482,56.1713152 151.374197,56.0701227 150.996228,56.0701227 C150.482767,56.0701227 150.064947,56.2053526 149.754725,56.4721329 C149.464427,56.7217411 149.252299,57.0087598 149.124163,57.3252164 C149.009822,57.6079421 148.845208,58.0899864 148.620818,58.7986405 L144.682033,71.1309404 L140.757349,58.8937002 C140.467052,57.9489302 140.187484,57.2746201 139.903011,56.8330528 C139.577768,56.3267836 139.031506,56.0701227 138.279553,56.0701227 C137.668304,56.0701227 137.152391,56.2921329 136.746526,56.7303271 C136.346486,57.1614685 136.143861,57.6502589 136.143861,58.1828995 C136.143861,58.3852845 136.172982,58.6207871 136.233065,58.9022862 C136.290695,59.1730528 136.362733,59.4297138 136.447646,59.6646031 C136.527347,59.8850801 136.604596,60.1098501 136.681539,60.3441261 L141.113553,73.0480784 C141.273569,73.5368688 141.437571,74.0084872 141.599732,74.4497479 C141.767412,74.9048075 141.967279,75.3181635 142.193202,75.6775503 C142.434758,76.0614685 142.75571,76.3739387 143.147167,76.6072947 C143.545674,76.8446371 144.03216,76.9648416 144.593442,76.9648416 C145.15595,76.9648416 145.643355,76.8418773 146.042476,76.599322 C146.432706,76.3613663 146.750286,76.0516559 146.986938,75.6781635 C147.209489,75.3261363 147.40721,74.9149267 147.57489,74.4555741 C147.737358,74.0084872 147.901053,73.5353356 148.058616,73.0542112 L152.570639,60.2318944 C152.646355,60.0019114 152.722071,59.778368 152.797481,59.5615707 C152.877183,59.3325077 152.944622,59.0960852 152.997654,58.8587428 C153.053445,58.6103612 153.081341,58.373632 153.081341,58.1559148 C153.081341,57.8192198 152.989378,57.483138 152.807597,57.1571755 C152.626123,56.8318262 152.371998,56.5668859 152.052579,56.3700204" id="Fill-89" fill="#FFFFFF" mask="url(#mask-4)"></path>
                                <path d="M168.172046,72.82846 L159.617627,72.82846 L159.617627,67.9221567 L167.206739,67.9221567 C167.872859,67.9221567 168.382029,67.7360239 168.719841,67.3962624 C169.057039,67.0574208 169.228091,66.6109472 169.228091,66.0829063 C169.228091,65.5524123 169.053361,65.091833 168.708192,64.7600443 C168.366395,64.4325486 167.861211,64.2424293 167.206739,64.2424293 L159.617627,64.2424293 L159.617627,59.949414 L167.87991,59.949414 C168.560131,59.949414 169.082482,59.8448484 169.432556,59.50846 C169.786001,59.1686985 169.965023,58.7519693 169.965023,58.2036899 C169.965023,57.6639966 169.786001,57.1672334 169.432556,56.8274719 C169.082482,56.4910835 168.560131,56.2696865 167.87991,56.2696865 L157.919986,56.2696865 C157.342457,56.2696865 156.855358,56.430368 156.471872,56.6149676 C156.063249,56.811833 155.771725,57.1620204 155.581361,57.5894821 C155.403872,57.9881193 155.32601,58.5345588 155.32601,59.1460068 L155.32601,73.8888348 C155.32601,74.8222589 155.523424,75.4573186 155.936646,75.8973526 C156.354772,76.3432129 157.014148,76.5081874 157.919986,76.5081874 L168.172046,76.5081874 C168.843991,76.5081874 169.366342,76.3941158 169.724999,76.0485281 C170.086721,75.7001806 170.270034,75.2757853 170.270034,74.7278126 C170.270034,74.1626678 170.086721,73.6984089 169.724999,73.3491414 C169.366342,73.0038603 168.843991,72.82846 168.172046,72.82846" id="Fill-90" fill="#FFFFFF" mask="url(#mask-4)"></path>
                                <path d="M183.97421,62.356753 C183.97421,62.9764804 183.8332,63.4622044 183.554858,63.801046 C183.271611,64.1454072 182.848274,64.4330392 182.296188,64.5805349 C181.70701,64.7378433 180.963947,64.8555945 180.088457,64.8555945 L176.783912,64.8555945 L176.783912,59.9492913 L180.189923,59.9492913 C181.742263,59.9492913 182.395201,60.1207053 182.670785,60.2433629 C183.083393,60.4252027 183.396374,60.7042487 183.627815,61.070075 C183.857723,61.4328348 183.97421,61.8747087 183.97421,62.356753 M187.181887,71.30677 C186.696628,70.4702453 186.137492,69.6708245 185.519805,68.9299727 C185.071331,68.3924259 184.601093,67.9425792 184.115833,67.5871789 C185.431521,67.1946746 186.452619,66.5994787 187.15767,65.8126303 C187.989631,64.8844191 188.411129,63.6363782 188.411129,62.1028518 C188.411129,61.3570937 188.287285,60.6395468 188.04297,59.9704497 C187.796815,59.296753 187.431414,58.6969574 186.956577,58.1879284 C186.482047,57.6782862 185.926896,57.280569 185.31534,57.010109 C184.806171,56.7654072 184.227415,56.532971 183.594708,56.452937 C182.981927,56.3759693 182.238251,56.2695639 181.384219,56.2695639 L175.248126,56.2695639 C174.351178,56.2695639 173.61394,56.5627155 173.191522,57.0079625 C172.773089,57.4483032 172.492295,58.21246 172.492295,59.1458842 L172.492295,74.236753 C172.492295,75.0987291 172.750405,75.7708927 173.124389,76.2354583 C173.514313,76.7193424 174.099199,76.9649642 174.794747,76.9649642 C175.442169,76.9649642 175.878074,76.7319148 176.285165,76.2728688 C176.681526,75.8242487 176.783912,75.1395128 176.783912,74.236753 L176.783912,68.228678 L178.03032,68.228678 C178.654444,68.228678 179.174036,68.3215911 179.574689,68.4917785 C179.967985,68.6592061 180.367719,68.9851687 180.762241,69.4543339 C181.175156,69.9449642 181.653365,70.6775366 182.185219,71.6311993 L183.696788,74.2806031 C184.054525,74.9086099 184.341756,75.3909608 184.550513,75.7138569 C184.777969,76.0655775 185.053858,76.3611823 185.370825,76.5914719 C185.711395,76.8392402 186.131054,76.9646576 186.618153,76.9646576 C187.023711,76.9646576 187.389111,76.8778773 187.704545,76.7070767 C188.022125,76.5341295 188.276556,76.2952538 188.460789,75.996276 C188.647168,75.6945383 188.741584,75.3817615 188.741584,75.0662249 C188.741584,74.7703135 188.607317,74.2980818 188.319166,73.5805349 C188.048487,72.9065315 187.66592,72.1417615 187.181887,71.30677" id="Fill-91" fill="#FFFFFF" mask="url(#mask-4)"></path>
                                <path d="M204.08292,56.6505997 C203.70679,56.2654549 203.233486,56.0701227 202.675882,56.0701227 C202.320598,56.0701227 202.010375,56.1412641 201.753798,56.281707 C201.506723,56.4172436 201.2808,56.6122692 201.082773,56.8615707 C200.900685,57.0909404 200.73178,57.3399353 200.581266,57.6015026 L196.795447,64.0263066 L193.578267,58.5235809 C193.029553,57.5791175 192.625834,56.9624566 192.344427,56.637414 C192.018264,56.2608552 191.54496,56.0701227 190.93739,56.0701227 C190.365072,56.0701227 189.875827,56.2663748 189.483758,56.6536661 C189.090155,57.0415707 188.890595,57.5110426 188.890595,58.0492027 C188.890595,58.3717922 188.980106,58.7317922 189.164339,59.1491346 C189.334471,59.535506 189.641015,60.0733595 190.044733,60.7510426 L194.5635,68.1025247 L194.5635,74.236937 C194.5635,75.1304974 194.748346,75.8124736 195.144094,76.2647734 C195.550571,76.729339 196.077214,76.9648416 196.725862,76.9648416 C197.365312,76.9648416 197.864673,76.7278058 198.279733,76.2595605 C198.684985,75.8020477 198.855117,75.1216048 198.855117,74.236937 L198.855117,68.103138 L203.500792,60.6480102 C203.902672,60.0138705 204.194502,59.5296797 204.361262,59.1678399 C204.54059,58.7802419 204.639297,58.3858978 204.639297,57.99554 C204.639297,57.487431 204.457516,57.0351312 204.08292,56.6505997" id="Fill-92" fill="#FFFFFF" mask="url(#mask-4)"></path>
                                <path d="M45.9777195,60.8211414 L61.9128006,60.8211414 C63.2168392,60.8211414 64.2836126,59.7540204 64.2836126,58.4498637 C64.2836126,57.1454003 63.2168392,56.0782794 61.9128006,56.0782794 L45.9777195,56.0782794 C44.6739875,56.0782794 43.6072141,57.1454003 43.6072141,58.4498637 C43.6072141,59.7540204 44.6739875,60.8211414 45.9777195,60.8211414" id="Fill-93" fill="#FFFFFF" mask="url(#mask-4)"></path>
                                <path d="M27.2602604,76.5001227 L61.9129233,76.5001227 C63.2169618,76.5001227 64.2837352,75.4330017 64.2837352,74.128845 C64.2837352,72.8243816 63.2169618,71.7572606 61.9129233,71.7572606 L27.2602604,71.7572606 C25.9565284,71.7572606 24.8897549,72.8243816 24.8897549,74.128845 C24.8897549,75.4330017 25.9565284,76.5001227 27.2602604,76.5001227" id="Fill-94" fill="#FFFFFF" mask="url(#mask-4)"></path>
                                <path d="M38.879446,68.5180886 L61.9128619,68.5180886 C63.2169005,68.5180886 64.2836739,67.4512743 64.2836739,66.1468109 C64.2836739,64.8426542 63.2169005,63.7752266 61.9128619,63.7752266 L38.879446,63.7752266 C37.575714,63.7752266 36.5089406,64.8426542 36.5089406,66.1468109 C36.5089406,67.4512743 37.575714,68.5180886 38.879446,68.5180886" id="Fill-95" fill="#FFFFFF" mask="url(#mask-4)"></path>
                            </g>
                        </g>
                    </g>
                </g>
            </g>
        </g>
    </g>
</svg>