<?xml version="1.0" encoding="UTF-8"?>
<svg width="1388px" height="1004px" viewBox="0 0 1388 1004" version="1.1" xmlns="http://www.w3.org/2000/svg" xmlns:xlink="http://www.w3.org/1999/xlink">
    <title>Group</title>
    <defs>
        <linearGradient x1="100.000008%" y1="50.0000148%" x2="-1.54040187e-05%" y2="50.0000148%" id="linearGradient-1">
            <stop stop-color="#A05EA5" offset="0%"></stop>
            <stop stop-color="#755EA5" offset="100%"></stop>
        </linearGradient>
        <path d="M785.846417,53.3035576 C624.317066,145.671119 439.458314,175.197041 386.397613,165.972457 L386.397613,165.972457 C230.259727,138.826832 99.5963038,196.34994 41.9076758,280.296286 L41.9076758,280.296286 C9.57726506,327.34231 0.0581223099,381.262927 0,428.283115 L0,428.283115 L0,429.133683 C0.078489957,495.236493 18.7625771,547.496714 18.7625771,547.496714 L18.7625771,547.496714 L1354.25678,547.806734 C1376.12765,516.186687 1384.54247,493.278499 1384.59513,475.271507 L1384.59513,475.271507 L1384.59513,474.946582 C1384.40984,409.989454 1275.08872,408.844268 1298.11708,290.293436 L1298.11708,290.293436 C1333.4475,108.410597 1169.53662,0.202705349 991.882057,0.2166165 L991.882057,0.2166165 C921.522765,0.2166165 848.978671,17.2021324 785.846417,53.3035576" id="path-2"></path>
        <linearGradient x1="0%" y1="49.9999611%" x2="100.000002%" y2="49.9999611%" id="linearGradient-4">
            <stop stop-color="#755EA5" offset="0%"></stop>
            <stop stop-color="#A05EA5" offset="100%"></stop>
        </linearGradient>
        <polygon id="path-5" points="0.0698493931 0.430650686 38.6143424 0.430650686 38.6143424 15.4201031 0.0698493931 15.4201031"></polygon>
        <polygon id="path-7" points="0.306950105 0.430650686 38.851535 0.430650686 38.851535 15.4201031 0.306950105 15.4201031"></polygon>
        <path d="M0.427,2.5595 C0.195,4.013 1.1885,5.39 2.6465,5.635 L2.6465,5.635 C4.1045,5.88 5.475,4.9005 5.707,3.4475 L5.707,3.4475 C5.9395,1.994 4.946,0.6175 3.488,0.3725 L3.488,0.3725 C3.3375,0.347 3.1875,0.335 3.0405,0.3345 L3.0405,0.3345 C1.759,0.3345 0.6355,1.2565 0.427,2.5595" id="path-9"></path>
        <linearGradient x1="98.9947962%" y1="58.020047%" x2="0.970874741%" y2="41.9775678%" id="linearGradient-11">
            <stop stop-color="#C39975" offset="0%"></stop>
            <stop stop-color="#E8C3A3" offset="100%"></stop>
        </linearGradient>
        <path d="M0.3615,0.5665 L0.6325,2.6925 C0.6495,2.8275 0.7895,2.91 0.915,2.8605 L0.915,2.8605 L1.749,2.5295 C1.836,2.495 1.888,2.4065 1.876,2.314 L1.876,2.314 L1.6635,0.6455 C1.652,0.553 1.579,0.479 1.4865,0.4655 L1.4865,0.4655 L0.594,0.3385 C0.584,0.337 0.574,0.3365 0.5645,0.3365 L0.5645,0.3365 C0.443,0.3365 0.346,0.442 0.3615,0.5665" id="path-12"></path>
        <linearGradient x1="64.703225%" y1="-6.13470119%" x2="39.045469%" y2="80.4650795%" id="linearGradient-14">
            <stop stop-color="#E8B58A" offset="0%"></stop>
            <stop stop-color="#DBAA83" offset="100%"></stop>
        </linearGradient>
        <path d="M0.7124,0.3724 C0.3492,0.6204 0.2588,1.1164 0.5108,1.4808 L0.5108,1.4808 C0.7628,1.8448 1.2604,1.9392 1.6232,1.6916 L1.6232,1.6916 C1.986,1.444 2.076,0.9476 1.8244,0.5832 L1.8244,0.5832 C1.6676,0.3564 1.4152,0.234 1.1596,0.234 L1.1596,0.234 C1.0048,0.234 0.8488,0.2788 0.7124,0.3724" id="path-15"></path>
        <linearGradient x1="9.34628107%" y1="77.8801347%" x2="90.6970422%" y2="22.1121921%" id="linearGradient-17">
            <stop stop-color="#C69064" offset="0%"></stop>
            <stop stop-color="#E8B88E" offset="100%"></stop>
        </linearGradient>
        <path d="M0.8195,0.2872 C0.4255,0.3312 0.1035,0.5788 0.0325,0.8912 L0.0325,0.8912 C-0.001,1.0396 0.021,1.1968 0.1035,1.34 L0.1035,1.34 C0.2315,1.5624 0.491,1.7252 0.792,1.7708 L0.792,1.7708 C1.184,1.8304 1.59,1.6804 1.783,1.4028 L1.783,1.4028 C1.8335,1.3308 1.868,1.2532 1.886,1.1724 L1.886,1.1724 C1.9405,0.9332 1.843,0.6816 1.628,0.5068 L1.628,0.5068 C1.489,0.394 1.313,0.3216 1.127,0.2932 L1.127,0.2932 C1.069,0.2844 1.01,0.28 0.951,0.28 L0.951,0.28 C0.907,0.28 0.8635,0.2824 0.8195,0.2872" id="path-18"></path>
        <path d="M0.422,0.305 C0.3955,0.3835 0.3695,0.463 0.3425,0.5415 L0.3425,0.5415 C0.3465,0.5425 0.3465,0.5425 0.3495,0.544 L0.3495,0.544 C0.377,0.5525 0.408,0.562 0.4355,0.5705 L0.4355,0.5705 C0.4625,0.4915 0.4885,0.4125 0.515,0.3335 L0.515,0.3335 C0.54,0.261 0.5645,0.188 0.589,0.1145 L0.589,0.1145 C0.5615,0.106 0.5305,0.0965 0.503,0.088 L0.503,0.088 C0.4995,0.087 0.4995,0.087 0.496,0.086 L0.496,0.086 C0.471,0.159 0.4465,0.232 0.422,0.305" id="path-20"></path>
        <path d="M0.3095,0.2465 C0.2795,0.324 0.2485,0.4015 0.218,0.4785 L0.218,0.4785 L0.2255,0.4815 C0.2515,0.4925 0.281,0.505 0.308,0.5165 L0.308,0.5165 C0.338,0.439 0.3695,0.3615 0.3995,0.2845 L0.3995,0.2845 C0.428,0.213 0.456,0.141 0.4845,0.069 L0.4845,0.069 C0.4575,0.058 0.428,0.0455 0.401,0.034 L0.401,0.034 L0.3945,0.0315 C0.366,0.103 0.338,0.175 0.3095,0.2465" id="path-22"></path>
        <path d="M3.012,0.4515 C2.871,0.5375 2.7095,0.65 2.538,0.7905 L2.538,0.7905 C2.2465,1.029 1.927,1.3485 1.6345,1.756 L1.6345,1.756 C1.36,2.1375 1.1015,2.679 0.8815,3.2205 L0.8815,3.2205 C0.573,3.979 0.3365,4.78 0.2435,5.096 L0.2435,5.096 C0.215,5.194 0.203,5.207 0.203,5.207 L0.203,5.207 C0.203,5.207 0.3545,5.3225 0.5495,5.449 L0.5495,5.449 C0.902,5.679 1.397,5.9475 1.393,5.643 L1.393,5.643 C1.392,5.523 1.386,5.386 1.3885,5.2225 L1.3885,5.2225 C1.405,4.3635 1.709,3.4615 2.0935,2.6645 L2.0935,2.6645 C2.769,1.2665 3.515,1.036 3.515,1.036 L3.515,1.036 L3.5075,0.2315 C3.5055,0.2315 3.5035,0.231 3.501,0.231 L3.501,0.231 C3.44,0.231 3.2575,0.3015 3.012,0.4515" id="path-24"></path>
        <path d="M3.5805,0.285454545 C3.552,0.355454545 3.522,0.426818182 3.4895,0.5 C3.4895,0.5 2.3965,1.07954545 1.6955,2.28181818 C1.29773529,2.9631016 0.906413495,4.31611198 0.780687055,4.77242862 L0.757905353,4.85591427 C0.745553633,4.90165933 0.739,4.92681818 0.739,4.92681818 C0.67,4.90363636 0.464,4.835 0.3435,4.73181818 C0.3435,4.73181818 0.656,3.59909091 1.1905,2.49090909 C1.517,1.815 2.1085,1.19772727 2.536,0.865454545" id="path-26"></path>
        <path d="M2.06363636,0.5275 C0.738181818,0.773 -0.165,2.1495 0.0459090909,3.603 L0.0459090909,3.603 C0.256818182,5.056 1.50272727,6.035 2.82863636,5.7905 L2.82863636,5.7905 C4.15409091,5.545 5.05727273,4.168 4.84636364,2.715 L4.84636364,2.715 C4.65681818,1.412 3.63590909,0.49 2.47090909,0.49 L2.47090909,0.49 C2.33681818,0.49 2.20045455,0.5025 2.06363636,0.5275" id="path-28"></path>
        <linearGradient x1="9.36326559%" y1="58.0454431%" x2="90.6669823%" y2="41.9465796%" id="linearGradient-30">
            <stop stop-color="#C39975" offset="0%"></stop>
            <stop stop-color="#E8C3A3" offset="100%"></stop>
        </linearGradient>
        <path d="M1.6635,0.423 L0.7715,0.532285714 C0.679,0.543428571 0.606,0.607285714 0.594,0.686571429 L0.594,0.686571429 L0.3815,2.11628571 C0.37,2.196 0.422,2.27185714 0.509,2.30142857 L0.509,2.30142857 L1.3425,2.58471429 C1.468,2.62757143 1.6085,2.55642857 1.6255,2.44114286 L1.6255,2.44114286 L1.896,0.618857143 C1.912,0.512142857 1.815,0.421285714 1.6935,0.421285714 L1.6935,0.421285714 C1.684,0.421285714 1.6735,0.421714286 1.6635,0.423" id="path-31"></path>
        <linearGradient x1="29.9985566%" y1="-6.12285573%" x2="64.9155764%" y2="80.4702414%" id="linearGradient-33">
            <stop stop-color="#E8B58A" offset="0%"></stop>
            <stop stop-color="#DBAA83" offset="100%"></stop>
        </linearGradient>
        <path d="M0.382,0.7076 C0.13,1.0716 0.2204,1.568 0.5832,1.816 L0.5832,1.816 C0.946,2.0636 1.4436,1.9692 1.6952,1.6048 L1.6952,1.6048 C1.9468,1.2408 1.8568,0.7444 1.494,0.4964 L1.494,0.4964 C1.3572,0.4032 1.2016,0.3584 1.0468,0.3584 L1.0468,0.3584 C0.7912,0.3584 0.5388,0.4804 0.382,0.7076" id="path-34"></path>
        <linearGradient x1="90.6789816%" y1="77.8822805%" x2="9.30900834%" y2="22.0887434%" id="linearGradient-36">
            <stop stop-color="#C69064" offset="0%"></stop>
            <stop stop-color="#E8B88E" offset="100%"></stop>
        </linearGradient>
        <path d="M0.9048,0.0215 C0.7556,0.057 0.6148,0.1475 0.504,0.289 L0.504,0.289 C0.332,0.507 0.2536,0.8215 0.2976,1.121 L0.2976,1.121 C0.312,1.2215 0.3396,1.319 0.3796,1.409 L0.3796,1.409 C0.5344,1.756 0.8592,1.943 1.1724,1.869 L1.1724,1.869 C1.4136,1.8115 1.6212,1.6085 1.7236,1.33 L1.7236,1.33 C1.7892,1.1505 1.8068,0.955 1.78,0.7695 L1.78,0.7695 C1.7236,0.3785 1.466,0.0695 1.1504,0.014 L1.1504,0.014 C1.116,0.008 1.0812,0.005 1.0468,0.005 L1.0468,0.005 C0.9988,0.005 0.9512,0.0105 0.9048,0.0215" id="path-37"></path>
        <path d="M0.255,0.2435 C0.227,0.252 0.1965,0.2615 0.169,0.27 L0.169,0.27 C0.193,0.343 0.2175,0.416 0.2425,0.489 L0.2425,0.489 C0.269,0.568 0.2955,0.6465 0.3225,0.726 L0.3225,0.726 C0.3495,0.717 0.381,0.7075 0.4085,0.699 L0.4085,0.699 L0.415,0.697 C0.3885,0.618 0.3625,0.539 0.336,0.4605 L0.336,0.4605 C0.311,0.3875 0.2865,0.314 0.2615,0.241 L0.2615,0.241 L0.255,0.2435 Z" id="path-39"></path>
        <path d="M0.3565,0.1895 C0.33,0.2005 0.3,0.2135 0.2735,0.2245 L0.2735,0.2245 C0.3015,0.296 0.33,0.368 0.3585,0.4395 L0.3585,0.4395 C0.3885,0.517 0.4195,0.5945 0.45,0.672 L0.45,0.672 C0.476,0.6605 0.5065,0.648 0.5325,0.6365 L0.5325,0.6365 L0.5395,0.634 C0.509,0.5565 0.4785,0.479 0.4485,0.402 L0.4485,0.402 C0.42,0.3305 0.392,0.2585 0.3635,0.187 L0.3635,0.187 L0.3565,0.1895 Z" id="path-41"></path>
        <path d="M0.2495,0.387 L0.243,1.1915 C0.243,1.1915 0.989,1.422 1.664,2.82 L1.664,2.82 C2.049,3.617 2.353,4.519 2.3695,5.378 L2.3695,5.378 C2.372,5.541 2.3655,5.6785 2.3645,5.7975 L2.3645,5.7975 C2.3605,6.103 2.8555,5.8345 3.2085,5.6045 L3.2085,5.6045 C3.4035,5.4775 3.5545,5.3625 3.5545,5.3625 L3.5545,5.3625 C3.5545,5.3625 3.543,5.3495 3.514,5.2515 L3.514,5.2515 C3.4215,4.9355 3.185,4.1345 2.876,3.3755 L2.876,3.3755 C2.656,2.834 2.3975,2.2925 2.1235,1.9115 L2.1235,1.9115 C1.8305,1.5035 1.511,1.184 1.2195,0.946 L1.2195,0.946 C1.0485,0.8055 0.886,0.693 0.7455,0.607 L0.7455,0.607 C0.5005,0.457 0.319,0.3865 0.2565,0.3865 L0.2565,0.3865 C0.254,0.3865 0.2515,0.3865 0.2495,0.387" id="path-43"></path>
        <path d="M0.177,0.469 C0.177,0.469 0.806,0.752 1.2215,1.107 C1.649,1.4725 2.2405,2.152 2.567,2.895 C3.102,4.114 3.414,5.3605 3.414,5.3605 C3.294,5.474 3.0875,5.5495 3.019,5.5745 C3.019,5.5745 3.01244637,5.54683218 3.00009465,5.49652402 L2.97731295,5.40470995 C2.85158651,4.90286851 2.46026471,3.41482353 2.0625,2.665 C1.3615,1.3425 0.2685,0.7055 0.2685,0.7055" id="path-45"></path>
        <path d="M1.8765,0.308181818 C0.537,0.877727273 -0.035,2.31818182 0.5995,3.52545455 L0.5995,3.52545455 C1.2335,4.73227273 2.8335,5.24954545 4.1725,4.68 L4.1725,4.68 C5.5125,4.11090909 6.0835,2.67045455 5.45,1.46363636 L5.45,1.46363636 C4.9905,0.589090909 4.025,0.0768181818 3.0185,0.0768181818 L3.0185,0.0768181818 C2.635,0.0768181818 2.246,0.150909091 1.8765,0.308181818" id="path-47"></path>
        <linearGradient x1="94.7161032%" y1="32.6991699%" x2="5.24864036%" y2="67.317401%" id="linearGradient-49">
            <stop stop-color="#C39975" offset="0%"></stop>
            <stop stop-color="#E8C3A3" offset="100%"></stop>
        </linearGradient>
        <path d="M1.3685,0.435 L0.5615,0.8375 C0.4405,0.898 0.4095,1.056 0.5,1.157 L0.5,1.157 L1.9305,2.7535 C2.021,2.8545 2.183,2.843 2.2585,2.7305 L2.2585,2.7305 L2.757,1.985 C2.8085,1.907 2.8015,1.805 2.739,1.735 L2.739,1.735 L1.6165,0.483 C1.576,0.4375 1.519,0.4135 1.461,0.4135 L1.461,0.4135 C1.43,0.4135 1.3985,0.4205 1.3685,0.435" id="path-50"></path>
        <linearGradient x1="41.8655012%" y1="-14.8802093%" x2="56.0731543%" y2="85.9070651%" id="linearGradient-52">
            <stop stop-color="#E8B58A" offset="0%"></stop>
            <stop stop-color="#DBAA83" offset="100%"></stop>
        </linearGradient>
        <path d="M0.09,0.7372 C-0.068,1.1476 0.1392,1.6072 0.5536,1.764 L0.5536,1.764 C0.9676,1.9212 1.4312,1.716 1.5892,1.306 L1.5892,1.306 C1.7468,0.896 1.5392,0.4364 1.1252,0.2796 L1.1252,0.2796 C1.0308,0.2436 0.9336,0.2268 0.8384,0.2268 L0.8384,0.2268 C0.5156,0.2268 0.2116,0.4212 0.09,0.7372" id="path-53"></path>
        <linearGradient x1="32.453507%" y1="95.4770129%" x2="67.5468211%" y2="4.46928198%" id="linearGradient-55">
            <stop stop-color="#C69064" offset="0%"></stop>
            <stop stop-color="#E8B88E" offset="100%"></stop>
        </linearGradient>
        <path d="M0.6625,0.3376 C0.569,0.3704 0.4815,0.416 0.405,0.472 L0.405,0.472 C0.1115,0.6876 0.023,1.0376 0.1865,1.3272 L0.1865,1.3272 C0.264,1.4644 0.3935,1.5832 0.5635,1.664 L0.5635,1.664 C0.8265,1.7888 1.1555,1.8052 1.4355,1.706 L1.4355,1.706 C1.801,1.5768 2.028,1.2692 1.991,0.9528 L1.991,0.9528 C1.981,0.8704 1.954,0.7912 1.9115,0.7164 L1.9115,0.7164 C1.7865,0.4944 1.5275,0.332 1.2265,0.286 L1.2265,0.286 C1.167,0.2768 1.107,0.2724 1.048,0.2724 L1.048,0.2724 C0.914,0.2724 0.7825,0.2948 0.6625,0.3376" id="path-56"></path>
        <path d="M0.437,0.269 C0.4335,0.2705 0.4335,0.2705 0.4295,0.2715 L0.4295,0.2715 C0.451,0.3455 0.472,0.42 0.4935,0.4935 L0.4935,0.4935 C0.5165,0.5735 0.5395,0.654 0.5625,0.7335 L0.5625,0.7335 L0.569,0.731 C0.597,0.7225 0.628,0.713 0.655,0.704 L0.655,0.704 C0.632,0.6245 0.609,0.5445 0.5865,0.4645 L0.5865,0.4645 C0.5655,0.3905 0.544,0.3165 0.523,0.242 L0.523,0.242 C0.496,0.2505 0.4645,0.2605 0.437,0.269" id="path-58"></path>
        <path d="M0.1665,0.1755 C0.163,0.1765 0.163,0.1765 0.159,0.177 L0.159,0.177 C0.177,0.252 0.194,0.327 0.2115,0.4025 L0.2115,0.4025 C0.2305,0.4835 0.249,0.5645 0.268,0.6455 L0.268,0.6455 C0.271,0.6445 0.271,0.6445 0.2755,0.644 L0.2755,0.644 C0.3035,0.638 0.3355,0.6315 0.364,0.6255 L0.364,0.6255 C0.3445,0.5445 0.3255,0.4635 0.3075,0.3825 L0.3075,0.3825 C0.2895,0.3075 0.272,0.2325 0.2545,0.157 L0.2545,0.157 C0.2265,0.163 0.1945,0.1695 0.1665,0.1755" id="path-60"></path>
        <path d="M0.35,0.785538462 C0.296,0.924461538 0.2408,1.09476923 0.1916,1.29138462 L0.1916,1.29138462 C0.108,1.626 0.0424,2.03584615 0.0352,2.49876923 L0.0352,2.49876923 C0.028,2.93215385 0.1036,3.47907692 0.2048,4.00615385 L0.2048,4.00615385 C0.3464,4.74461538 0.5544,5.47707692 0.6368,5.766 L0.6368,5.766 C0.662,5.85507692 0.6604,5.87123077 0.6604,5.87123077 L0.6604,5.87123077 C0.6604,5.87123077 0.8124,5.87953846 0.9988,5.874 L0.9988,5.874 C1.3352,5.86338462 1.7832,5.808 1.6424,5.57815385 L1.6424,5.57815385 C1.5868,5.48861538 1.5204,5.38707692 1.4484,5.26107692 L1.4484,5.26107692 C1.0688,4.60061538 0.8588,3.756 0.7504,2.94830769 L0.7504,2.94830769 C0.5592,1.53276923 0.946,0.966 0.946,0.966 L0.946,0.966 L0.5764,0.358615385 C0.538,0.381692308 0.4472,0.533538462 0.35,0.785538462" id="path-62"></path>
        <path d="M0.551,0.383076923 C0.564666667,0.456461538 0.578,0.532153846 0.590333333,0.610153846 C0.590333333,0.610153846 0.232,1.66753846 0.348,3.03969231 C0.427666667,3.98446154 0.924666667,5.75169231 0.924666667,5.75169231 C0.877666667,5.76876923 0.735666667,5.81953846 0.627,5.796 C0.627,5.796 0.326333333,4.68553846 0.158333333,3.47907692 C0.056,2.74338462 0.123333333,1.91676923 0.219666667,1.41507692" id="path-64"></path>
    </defs>
    <g id="Patient-PBD-ZSD-Layout-(DSK)" stroke="none" stroke-width="1" fill="none" fill-rule="evenodd">
        <g id="1.0-Understanding-PBD-ZSD" transform="translate(-26.000000, -2253.000000)">
            <g id="Group" transform="translate(26.000000, 2253.000000)">
                <text id="Age-of-first-symptom" font-family="Quicksand-Bold, Quicksand" font-size="40" font-weight="bold" fill="#003D4C">
                    <tspan x="478.16" y="40">Age of first symptoms</tspan>
                </text>
                <text id="0-1-years" font-family="Quicksand-Bold, Quicksand" font-size="40" font-weight="bold" fill="#003D4C">
                    <tspan x="139.8" y="719">0-1 years</tspan>
                </text>
                <text id="Zellweger-Syndrome" font-family="Quicksand-Medium, Quicksand" font-size="20" font-weight="400" line-spacing="20" fill="#333333">
                    <tspan x="180.08" y="789.399902">Zellweger</tspan>
                    <tspan x="177.89" y="824.399902">Syndrome</tspan>
                </text>
                <text id="Neonatal-Adrenoleuko" font-family="Quicksand-Medium, Quicksand" font-size="20" font-weight="400" line-spacing="20" fill="#333333">
                    <tspan x="649.6" y="789.399902">Neonatal</tspan>
                    <tspan x="585.47" y="824.399902">Adrenoleukodystrophy</tspan>
                </text>
                <text id="Infantile-Refsum-Dis" font-family="Quicksand-Medium, Quicksand" font-size="20" font-weight="400" line-spacing="20" fill="#333333">
                    <tspan x="1121.12" y="789.399902">Infantile</tspan>
                    <tspan x="1084.35" y="824.399902">Refsum Disease</tspan>
                </text>
                <text id="2-9-years" font-family="Quicksand-Bold, Quicksand" font-size="40" font-weight="bold" fill="#003D4C">
                    <tspan x="604.68" y="719">2-9 years</tspan>
                </text>
                <text id="10+-years" font-family="Quicksand-Bold, Quicksand" font-size="40" font-weight="bold" fill="#003D4C">
                    <tspan x="1069.16" y="719">10+ years</tspan>
                </text>
                <polygon id="Fill-1" fill="url(#linearGradient-1)" points="1262.48621 808.355933 1262.48621 857.036943 124.195674 857.036943 124.195674 808.355933 0.84 905.889 124.195674 1003.42207 124.195674 946.308955 1262.48621 946.308955 1262.48621 1003.42207 1385.84 905.889"></polygon>
                <text id="Severe" font-family="Quicksand-Bold, Quicksand" font-size="50" font-weight="bold" fill="#FFFFFF">
                    <tspan x="136.05" y="907">SEVERE</tspan>
                </text>
                <text id="Milder" font-family="Quicksand-Bold, Quicksand" font-size="50" font-weight="bold" fill="#FFFFFF">
                    <tspan x="1069.25" y="907">MILDER</tspan>
                </text>
                <g id="Group-321" transform="translate(1.187983, 66.208724)">
                    <g id="Group-3" transform="translate(0.812017, 29.791276)">
                        <mask id="mask-3" fill="white">
                            <use xlink:href="#path-2"></use>
                        </mask>
                        <g id="Clip-2"></g>
                        <path d="M785.846417,53.3035576 C624.317066,145.671119 439.458314,175.197041 386.397613,165.972457 L386.397613,165.972457 C230.259727,138.826832 99.5963038,196.34994 41.9076758,280.296286 L41.9076758,280.296286 C9.57726506,327.34231 0.0581223099,381.262927 0,428.283115 L0,428.283115 L0,429.133683 C0.078489957,495.236493 18.7625771,547.496714 18.7625771,547.496714 L18.7625771,547.496714 L1354.25678,547.806734 C1376.12765,516.186687 1384.54247,493.278499 1384.59513,475.271507 L1384.59513,475.271507 L1384.59513,474.946582 C1384.40984,409.989454 1275.08872,408.844268 1298.11708,290.293436 L1298.11708,290.293436 C1333.4475,108.410597 1169.53662,0.202705349 991.882057,0.2166165 L991.882057,0.2166165 C921.522765,0.2166165 848.978671,17.2021324 785.846417,53.3035576" id="Fill-1" fill="url(#linearGradient-4)" mask="url(#mask-3)"></path>
                    </g>
                    <g id="Group-164" transform="translate(90.812017, 0.791276)">
                        <path d="M605.762581,218.417901 C605.762581,218.417901 576.357327,206.632465 552.889023,219.007844 C529.421216,231.384715 508.402357,341.129589 580.292623,355.081798 C580.292623,355.081798 647.757109,428.810782 605.762581,218.417901" id="Fill-4" fill="#233862"></path>
                        <path d="M686.188126,391.359978 L684.391998,384.853192 C684.391998,384.853192 675.771779,383.986184 675.66554,384.155805 L676.43155,403.798032 C676.43155,403.798032 680.878678,402.808161 682.505022,400.938349 L685.661897,395.666166 C686.439822,394.431563 686.188126,391.359978 686.188126,391.359978" id="Fill-6" fill="#FFB27D"></path>
                        <path d="M663.820136,223.179728 C663.820136,223.179728 674.357118,222.635548 680.256338,236.549455 C692.484202,265.38853 687.173265,327.637496 686.432574,336.548326 C686.432574,336.548326 690.631977,354.24563 684.3917,384.853043 L676.602525,384.41929 C676.602525,384.41929 663.735244,268.740661 665.263789,256.791574 C666.792831,244.841989 663.820136,223.179728 663.820136,223.179728" id="Fill-8" fill="#FFFFFF"></path>
                        <g id="Group-12" transform="translate(575.872750, 562.585052)">
                            <mask id="mask-6" fill="white">
                                <use xlink:href="#path-5"></use>
                            </mask>
                            <g id="Clip-11"></g>
                            <path d="M0.0698493931,1.00295335 L4.05528598,15.4202523 L37.7358988,15.4202523 C37.7358988,15.4202523 47.7620419,-3.01273995 0.0698493931,1.00295335" id="Fill-10" fill="#233862" mask="url(#mask-6)"></path>
                        </g>
                        <g id="Group-15" transform="translate(647.856844, 562.585052)">
                            <mask id="mask-8" fill="white">
                                <use xlink:href="#path-7"></use>
                            </mask>
                            <g id="Clip-14"></g>
                            <path d="M0.306950105,1.00295335 L4.29288313,15.4202523 L37.9729995,15.4202523 C37.9729995,15.4202523 47.9996391,-3.01273995 0.306950105,1.00295335" id="Fill-13" fill="#233862" mask="url(#mask-8)"></path>
                        </g>
                        <path d="M649.627404,222.198413 L618.033834,238.365645 L613.876628,217.42614 C613.876628,217.42614 616.808118,209.391769 617.99114,196.739823 C618.498504,191.360694 618.695591,185.119531 618.202624,178.300364 L643.9491,191.501962 C643.9491,191.501962 643.356845,193.789609 642.948273,197.192477 C642.6097,199.987993 642.398216,203.546057 642.750689,207.203109 C643.271954,212.723506 645.062123,218.484158 649.627404,222.198413" id="Fill-16" fill="#FFB27D"></path>
                        <path d="M675.600953,351.337101 L611.708865,356.387433 C611.708865,356.387433 603.816926,468.526402 645.798546,567.877629 L683.490906,565.347737 L675.600953,351.337101 Z" id="Fill-18" fill="#233862"></path>
                        <path d="M576.45314,357.493701 C576.45314,357.493701 563.893654,421.841791 572.694081,566.121229 L612.186541,566.121229 L636.901907,390.782719 C637.695718,385.656778 647.771505,378.52125 647.771505,378.52125 L648.163695,358.745216 L576.45314,357.493701 Z" id="Fill-20" fill="#2B478B"></path>
                        <path d="M576.774537,273.00228 L580.446222,299.115976 L570.317812,351.310538 C569.418756,355.945025 572.773214,360.316376 577.47452,360.637213 C596.709167,361.951404 643.199969,363.883394 674.759782,354.932273 C678.967128,353.739453 681.7616,349.756092 681.414091,345.389219 L675.865358,275.567489 L673.912852,251.00227 L671.907226,225.763541 C671.907226,225.763541 662.28469,219.805909 645.57048,217.432706 C645.822673,221.316582 644.521002,224.878128 636.543178,225.741157 C627.172835,226.820066 620.122365,222.568097 614.931568,218.574788 C614.804975,218.359404 614.129814,217.648587 613.876132,217.432706 C608.178467,217.972409 601.610042,218.969742 595.977411,220.097399 C595.090269,220.275974 575.002735,260.270747 575.002735,260.270747 L576.774537,273.00228 Z" id="Fill-22" fill="#0081A3"></path>
                        <path d="M570.317911,351.310737 C570.317911,351.310737 659.729106,305.459807 615.816327,230.594709 C613.710916,227.007296 610.192631,220.448778 605.762383,218.417802 C601.653828,218.794351 600.820302,219.007745 597.487687,219.803124 C602.046018,221.071054 608.626357,231.789518 612.11138,241.516619 C618.628174,259.704879 634.757576,294.129015 571.487529,339.476554 L570.317911,351.310737 Z" id="Fill-24" fill="#2B478B"></path>
                        <path d="M599.343735,296.831811 C600.334633,296.759685 608.640605,297.072564 608.640605,297.072564 C608.640605,297.072564 612.772492,281.486322 624.234345,281.486322 C624.234345,281.486322 629.593933,280.960546 627.948724,285.307523 C627.252713,287.148981 626.118839,286.489896 624.376328,292.815123 C622.63332,299.141345 620.739393,300.785824 614.872938,304.118059 L609.920929,305.460105 C609.920929,305.460105 596.7394,297.023816 599.343735,296.831811" id="Fill-26" fill="#FFB27D"></path>
                        <path d="M642.948224,209.568254 C633.281008,210.797386 618.357961,197.022757 617.991587,196.740221 C617.991587,196.740221 635.873925,196.881489 642.948224,197.192378 C642.60965,199.987893 642.59575,205.9117 642.948224,209.568254" id="Fill-28" fill="#ED975D"></path>
                        <path d="M653.045805,203.56869 C653.045805,203.56869 609.071467,208.938368 608.132695,177.896705 C607.194916,146.855043 625.524052,126.746731 637.757376,126.977038 C662.15353,127.434169 666.177689,137.312984 669.00592,147.597198 C671.83415,157.881909 673.289718,201.38003 653.045805,203.56869" id="Fill-30" fill="#FFB27D"></path>
                        <path d="M644.318304,186.540519 C644.318304,186.540519 645.121051,189.78471 653.194191,189.186807 C653.194191,189.186807 659.971618,188.6864 659.721908,185.113413 C659.721908,185.113413 653.115257,182.646694 644.318304,186.540519" id="Fill-32" fill="#FFFFFF"></path>
                        <path d="M617.693225,196.740071 C617.693225,196.740071 613.945584,185.685847 614.41919,179.483484 C614.41919,179.483484 605.626705,168.250187 610.749987,165.470092 C615.873268,162.690494 618.636961,169.336559 619.811543,168.031819 C620.985628,166.727577 622.8175,144.653948 629.038911,145.350837 C635.261315,146.048721 663.426457,154.082595 673.517138,145.36377 C683.607322,136.644945 653.978669,101.691551 612.492995,114.849873 C571.006824,128.008693 579.271591,173.660654 617.693225,196.740071" id="Fill-34" fill="#2C3A64"></path>
                        <path d="M592.027073,132.975458 C592.027073,132.975458 590.147047,127.359059 592.165084,123.348339 C592.165084,123.348339 592.264372,128.873213 594.429356,131.331973 C596.595332,133.790734 592.027073,132.975458 592.027073,132.975458" id="Fill-36" fill="#2C3A64"></path>
                        <path d="M592.890485,129.04756 C592.890485,129.04756 587.758267,128.465078 585.335134,132.419588 C585.335134,132.419588 588.950225,129.970279 592.605031,132.56782 L592.890485,129.04756 Z" id="Fill-38" fill="#2C3A64"></path>
                        <path d="M595.977262,220.096938 C595.977262,220.096938 588.456662,219.673197 575.002587,242.166651 C567.813113,254.186372 537.157322,311.265625 552.941199,317.466993 C568.725574,323.667367 600.500842,317.42322 608.640505,308.789952 L604.035013,295.509264 C604.035013,295.509264 582.010859,296.511073 582.142416,295.32472 C582.273476,294.138864 587.080525,282.853836 593.36697,273.973846 C614.873335,243.593259 595.977262,220.096938 595.977262,220.096938" id="Fill-40" fill="#FFFFFF"></path>
                        <path d="M636.54298,225.741057 C636.54298,225.741057 621.069378,218.757243 615.636813,211.219797 C615.636813,211.219797 610.028508,214.475428 609.502279,218.480178 C608.97605,222.485426 628.436578,229.456307 636.54298,225.741057" id="Fill-42" fill="#FFFFFF"></path>
                        <path d="M643.792274,212.844529 C643.792274,212.844529 642.713506,223.725152 636.542732,225.741206 C636.542732,225.741206 647.81693,226.549518 651.59684,218.427601 C651.59684,218.427601 647.696791,212.737085 643.792274,212.844529" id="Fill-44" fill="#FFFFFF"></path>
                        <path d="M644.861263,268.174047 C644.861263,269.461874 644.004404,270.504472 642.947975,270.504472 C641.891547,270.504472 641.034688,269.461874 641.034688,268.174047 C641.034688,266.887712 641.891547,265.844119 642.947975,265.844119 C644.004404,265.844119 644.861263,266.887712 644.861263,268.174047" id="Fill-46" fill="#035D72"></path>
                        <path d="M644.861263,299.40289 C644.861263,300.69022 644.004404,301.732818 642.947975,301.732818 C641.891547,301.732818 641.034688,300.69022 641.034688,299.40289 C641.034688,298.116555 641.891547,297.072464 642.947975,297.072464 C644.004404,297.072464 644.861263,298.116555 644.861263,299.40289" id="Fill-48" fill="#035D72"></path>
                        <path d="M644.861263,333.094522 C644.861263,334.380857 644.004404,335.424449 642.947975,335.424449 C641.891547,335.424449 641.034688,334.380857 641.034688,333.094522 C641.034688,331.807192 641.891547,330.764096 642.947975,330.764096 C644.004404,330.764096 644.861263,331.807192 644.861263,333.094522" id="Fill-50" fill="#035D72"></path>
                        <polygon id="Fill-52" fill="#FFFFFF" points="684.391949 384.853142 686.45119 378.949232 676.418593 378.35332 676.602773 384.418892"></polygon>
                        <path d="M608.338867,294.128916 C608.338867,294.128916 609.947339,286.621315 609.596355,284.863921 C609.24537,283.107024 612.666849,284.438625 612.659414,288.075779 C612.656423,289.221841 611.694815,290.316171 611.694815,290.316171 L609.903652,297.51537 L608.338867,294.128916 Z" id="Fill-54" fill="#FFB27D"></path>
                        <path d="M608.338867,294.128916 L599.358727,296.090254 L600.99649,307.010671 L607.660727,307.010671 L603.849045,312.44004 L605.55631,313.160805 L614.873037,304.117661 C614.873037,304.117661 609.893724,298.908153 608.338867,294.128916" id="Fill-56" fill="#D7E9FF"></path>
                        <path d="M7.28186128,576.768363 C7.28186128,576.768363 -1.98224337,568.862824 0.742230473,556.40935 C3.46720075,543.954384 26.7513247,545.059657 61.2312091,548.598322 C95.7105972,552.136987 183.943735,553.237286 215.228022,546.684737 C246.511813,540.133182 257.410701,550.506932 260.680765,559.243664 C263.950332,567.979899 256.320514,576.768363 256.320514,576.768363 L7.28186128,576.768363 Z" id="Fill-58" fill="#7A9C49"></path>
                        <path d="M148.217582,548.598371 L106.89772,548.598371 C98.2789896,548.598371 91.2280235,541.53298 91.2280235,532.897722 L91.2280235,474.564964 C91.2280235,465.929706 98.2789896,458.864315 106.89772,458.864315 L148.217582,458.864315 C156.835319,458.864315 163.886782,465.929209 163.886782,474.564467 L163.886782,532.898219 C163.886782,541.53298 156.835319,548.598371 148.217582,548.598371" id="Fill-60" fill="#FFB27D"></path>
                        <path d="M136.68305,492.265601 C136.68305,492.265601 144.456339,489.429794 150.464777,492.019377 C159.129676,495.753031 169.213903,497.327872 171.137119,499.235488 C174.394772,502.465751 190.003902,515.54548 190.003902,515.54548 L196.371764,510.311101 C196.371764,510.311101 187.176665,484.211333 181.391626,479.959364 C175.605097,475.70839 164.415791,459.68541 148.132989,458.868145 C139.674113,458.443346 136.68305,492.265601 136.68305,492.265601" id="Fill-62" fill="#FFB27D"></path>
                        <path d="M190.004051,515.54543 C190.004051,515.54543 188.175158,522.517306 190.317802,523.195791 C192.459453,523.87527 193.177805,518.85926 193.177805,518.85926 C193.177805,518.85926 199.624104,529.459835 204.592993,524.118013 C209.561881,518.774698 196.371913,510.311051 196.371913,510.311051 L190.004051,515.54543 Z" id="Fill-64" fill="#FFB27D"></path>
                        <path d="M88.7250125,512.558954 C88.7250125,512.558954 72.0242063,524.924882 62.8911623,530.030926 C54.3737065,534.793748 44.5446508,543.773222 44.5446508,544.864568 C44.5446508,545.956908 46.4802783,555.057256 51.5067538,555.784985 C56.5332293,556.513709 108.353337,552.293078 115.140196,547.668539 C115.140196,547.668539 101.622576,512.832039 88.7250125,512.558954" id="Fill-66" fill="#FFB27D"></path>
                        <path d="M40.9628216,525.822183 C40.9628216,525.822183 49.9484223,524.434373 56.6245746,529.758786 C56.6245746,529.758786 59.383303,532.109605 62.8911623,530.030876 C62.8911623,530.030876 78.8279442,535.772129 73.7662213,554.605546 C73.7662213,554.605546 54.7455416,557.696531 51.5067538,555.784935 C48.2684625,553.874335 40.9628216,525.822183 40.9628216,525.822183" id="Fill-68" fill="#FFFFFF"></path>
                        <path d="M51.5069027,555.784935 C51.5069027,555.784935 41.6386281,555.694404 37.8239676,546.684587 C34.0093071,537.675765 33.736264,528.393361 39.7308014,526.209675 C45.7253389,524.025492 50.3760078,526.48276 53.0821133,530.577046 C55.7882188,534.672824 65.1903343,553.146605 51.5069027,555.784935" id="Fill-70" fill="#AFCDFB"></path>
                        <path d="M164.326282,512.558954 C164.326282,512.558954 181.027585,524.924882 190.160629,530.030926 C198.678085,534.793748 208.506644,543.773222 208.506644,544.864568 C208.506644,545.956908 206.571513,555.057256 201.545037,555.784985 C196.518562,556.513709 144.698454,552.293078 137.911595,547.668539 C137.911595,547.668539 151.429215,512.832039 164.326282,512.558954" id="Fill-72" fill="#FFB27D"></path>
                        <path d="M212.08892,525.822183 C212.08892,525.822183 203.102823,524.434373 196.427167,529.758786 C196.427167,529.758786 193.668438,532.109605 190.160579,530.030876 C190.160579,530.030876 174.223797,535.772129 179.28552,554.605546 C179.28552,554.605546 198.305703,557.696531 201.544988,555.784935 C204.783279,553.874335 212.08892,525.822183 212.08892,525.822183" id="Fill-74" fill="#FFFFFF"></path>
                        <path d="M201.544839,555.784935 C201.544839,555.784935 211.41361,555.694404 215.227774,546.684587 C219.042434,537.675765 219.314981,528.393361 213.32094,526.209675 C207.326403,524.025492 202.675734,526.48276 199.969628,530.577046 C197.263523,534.672824 187.861407,553.146605 201.544839,555.784935" id="Fill-76" fill="#AFCDFB"></path>
                        <path d="M91.2280732,501.001637 C91.2280732,501.001637 120.291775,517.290737 163.886832,503.73199 C163.886832,503.73199 167.670216,507.418887 168.857209,509.419023 C171.854726,514.469853 171.11751,517.471799 171.11751,517.471799 C171.11751,517.471799 145.3199,530.255064 143.41257,549.637139 C143.41257,549.637139 121.750818,557.561082 112.189345,548.932789 C112.189345,548.932789 98.2189698,517.269845 84.5042624,515.63233 C84.5042624,515.63233 85.5969313,507.735745 91.2280732,501.001637" id="Fill-78" fill="#FFFFFF"></path>
                        <path d="M119.81663,490.286406 C119.81663,490.286406 111.713207,488.619543 106.147099,492.06121 C98.1196317,497.023996 88.3734819,500.058772 86.7491236,502.227535 C83.9983383,505.900006 70.4648322,521.125617 70.4648322,521.125617 L63.4009586,516.880115 C63.4009586,516.880115 68.6905484,489.713872 73.793476,484.660555 C78.8969,479.607736 87.6288188,462.117857 103.617231,458.924901 C111.923699,457.265499 119.81663,490.286406 119.81663,490.286406" id="Fill-80" fill="#FFB27D"></path>
                        <path d="M70.4647826,521.125568 C70.4647826,521.125568 73.2905306,527.755217 71.2700116,528.739616 C69.2504854,529.725508 67.8083213,524.868673 67.8083213,524.868673 C67.8083213,524.868673 62.977444,536.299446 57.2832539,531.742557 C51.588071,527.184673 63.400909,516.880065 63.400909,516.880065 L70.4647826,521.125568 Z" id="Fill-82" fill="#FFB27D"></path>
                        <path d="M148.014935,451.662181 L110.768379,455.463983 L109.744219,460.346684 C115.140047,465.48506 120.57857,470.02056 129.92558,468.679509 C137.783265,467.551852 142.766053,464.738429 147.388425,460.237748 C147.756288,455.228205 148.014935,451.662181 148.014935,451.662181" id="Fill-84" fill="#E8945B"></path>
                        <path d="M127.650138,465.483021 C115.577661,465.308426 93.3589016,452.080464 93.3589016,435.698843 L93.3589016,410.135794 C93.3589016,393.847191 110.711536,382.333846 129.086345,382.332851 C156.076409,382.331856 161.940382,404.153789 161.940382,410.135794 L161.940382,434.252338 C161.940382,451.429835 141.49392,465.68398 127.650138,465.483021" id="Fill-86" fill="#FFB27D"></path>
                        <path d="M117.93025,386.42843 C117.93025,386.42843 113.570993,394.892077 117.93025,400.351788 C122.290004,405.811997 134.006036,402.535971 134.006036,402.535971 C134.006036,402.535971 129.374232,400.624873 129.374232,398.713278 C129.374232,398.713278 136.457963,402.262886 140.272623,398.440193 C144.08778,394.618495 141.592663,382.879817 137.911545,380.695136 C134.229931,378.509461 119.83758,379.450585 117.93025,386.42843" id="Fill-88" fill="#2C3A64"></path>
                        <path d="M1022.97033,550.973366 C1022.97033,550.973366 1019.04198,558.653572 1010.33935,560.553727 C1004.85764,561.749531 1000.16378,564.608219 997.242714,568.616948 C994.773907,572.004397 997.161794,576.768214 1001.3473,576.768214 L1045.52269,576.768214 C1049.28473,576.768214 1052.22069,573.516562 1051.84389,569.765995 C1051.51475,566.487979 1051.17071,562.669265 1051.02129,559.739943 C1050.69463,553.348559 1044.30492,548.202224 1044.30492,548.202224 L1022.97033,550.973366 Z" id="Fill-90" fill="#2C3A64"></path>
                        <path d="M1021.90665,552.904659 C1021.90665,552.904659 1032.50519,559.178154 1050.43668,555.391772 C1050.43668,555.391772 1080.92219,477.281489 1082.72725,440.524937 C1082.80867,439.048587 1082.83399,437.641876 1082.80867,436.304803 C1082.19407,401.732932 1114.05274,311.709376 1105.45983,293.264943 C1096.86642,274.81454 1027.43453,301.554491 1027.43453,301.554491 L1026.05492,364.285461 L1021.90665,552.904659 Z" id="Fill-92" fill="#0081A3"></path>
                        <path d="M1026.05512,364.285262 L1082.72695,440.525236 C1082.80837,439.048388 1082.83369,437.641677 1082.80837,436.304604 C1082.19427,401.733231 1114.05294,311.709177 1105.45953,293.264744 C1096.86661,274.814341 1027.43423,301.55479 1027.43423,301.55479 L1026.05512,364.285262 Z" id="Fill-94" fill="#035D72"></path>
                        <path d="M1137.02252,550.973366 C1137.02252,550.973366 1133.09467,558.653572 1124.39154,560.553727 C1118.90934,561.749531 1114.21597,564.608219 1111.29491,568.616948 C1108.8261,572.004397 1111.21399,576.768214 1115.39999,576.768214 L1159.57489,576.768214 C1163.33693,576.768214 1166.27239,573.516562 1165.89608,569.765995 C1165.56694,566.487979 1165.2234,562.669265 1165.07348,559.739943 C1164.74682,553.348559 1158.35712,548.202224 1158.35712,548.202224 L1137.02252,550.973366 Z" id="Fill-96" fill="#2C3A64"></path>
                        <path d="M1068.04617,303.042979 C1068.04617,303.042979 1129.40839,532.489139 1131.28842,554.943296 C1131.28842,554.943296 1143.25763,561.094922 1162.68688,550.228227 C1162.68688,550.228227 1173.96853,447.388077 1162.68688,419.286183 C1151.40524,391.183294 1164.92633,306.236433 1136.2295,287.075214 C1107.53217,267.914492 1068.04617,303.042979 1068.04617,303.042979" id="Fill-98" fill="#0081A3"></path>
                        <path d="M1121.01177,111.837232 C1121.01177,111.837232 1135.54461,96.2544722 1144.99488,108.473163 C1154.44515,120.692351 1164.91809,128.940614 1179.41966,138.337426 C1193.92123,147.73374 1166.6055,221.394578 1148.44118,219.879926 C1130.27637,218.365771 1056.15857,160.294658 1121.01177,111.837232" id="Fill-100" fill="#0081A3"></path>
                        <path d="M1125.97619,104.427923 C1122.34918,101.710005 1088.94409,90.2200387 1056.37601,101.520985 C1023.80792,112.82193 1081.60221,144.303314 1081.60221,144.303314 L1100.33297,145.110631 L1125.97619,104.427923 Z" id="Fill-102" fill="#667F3B"></path>
                        <path d="M1027.3127,316.121664 C1041.52435,318.059125 1138.19948,323.090556 1151.08762,309.880502 C1163.97575,296.663484 1130.0484,116.419888 1130.0484,116.419888 C1130.0484,116.419888 1126.20594,115.306159 1119.7229,114.083494 C1116.41759,113.459726 1112.42967,112.812081 1107.91602,112.266906 C1107.86142,113.671628 1106.74392,134.921525 1089.13661,143.70004 C1089.13661,143.70004 1067.98967,135.21202 1070.06133,112.612118 C1070.08565,112.345996 1070.11594,112.091316 1070.15267,111.837133 C1067.3304,112.140063 1064.47238,112.533027 1061.60245,113.029455 C1055.80202,114.028777 1049.92911,115.439468 1044.10436,117.37096 C1044.10436,117.37096 1013.10205,314.190669 1027.3127,316.121664" id="Fill-104" fill="#7A9C49"></path>
                        <path d="M1150.27276,223.065769 C1150.84466,223.815385 1146.99177,229.361648 1141.55374,236.493694 C1130.36742,251.143289 1112.47416,272.463323 1112.47416,272.463323 C1112.71394,279.690377 1113.72171,284.35272 1113.72171,284.35272 C1138.30056,272.715516 1154.91846,261.831908 1165.9355,253.090202 C1181.42201,240.795405 1185.86318,232.730691 1185.86318,232.730691 C1161.02966,127.473068 1129.16851,116.512359 1129.16851,116.512359 L1118.77252,179.940217 C1118.77252,179.940217 1148.53173,220.783594 1150.27276,223.065769" id="Fill-106" fill="#7A9C49"></path>
                        <path d="M1064.22491,123.473541 L1102.9737,143.315731 L1110.73805,116.381288 C1110.73805,116.381288 1105.80193,107.060085 1103.56943,91.7897057 C1102.63463,85.3684763 1102.17194,77.8951979 1102.76718,69.6180845 L1071.19594,85.8161567 C1071.19594,85.8161567 1071.94805,88.7410021 1072.45244,93.0571387 C1072.99009,97.7219686 1073.23036,104.010884 1071.90735,109.983935 C1070.76603,115.113358 1068.47544,120.009489 1064.22491,123.473541" id="Fill-108" fill="#FFB27D"></path>
                        <path d="M1072.19513,108.546781 C1090.53618,108.055825 1103.90239,89.9824696 1103.90239,89.9824696 L1072.11074,91.2772608 C1072.6603,96.0430675 1073.33099,102.324024 1072.19513,108.546781" id="Fill-110" fill="#EA9C68"></path>
                        <path d="M1061.6026,113.029604 L1068.0072,132.54847 L1076.54501,145.11088 L1088.79819,151.770375 L1100.33302,145.11088 L1119.72256,114.083146 C1116.41774,113.459875 1112.42982,112.811733 1107.91617,112.267055 C1107.89036,112.929125 1107.62873,116.105666 1105.51389,120.19846 C1098.51505,133.742285 1078.75418,133.861666 1071.83675,120.275561 C1070.65125,117.945633 1069.95275,115.381916 1070.06148,112.611769 C1070.0724,112.344653 1070.11559,112.091465 1070.15282,111.837282 C1067.33055,112.139715 1064.47203,112.533177 1061.6026,113.029604" id="Fill-112" fill="#FFFFFF"></path>
                        <path d="M1112.47192,272.465611 C1112.47788,272.671047 1112.48384,272.871508 1112.49625,273.070974 C1112.55036,274.403072 1112.6288,275.650111 1112.7261,276.781748 C1113.34169,277.635822 1114.02479,278.440652 1114.76797,279.191761 C1115.89787,280.33633 1117.11812,281.298843 1118.3632,282.109642 C1118.98524,281.813178 1119.60778,281.504279 1120.21791,281.201846 C1141.26903,270.757959 1155.91556,261.041304 1165.93327,253.09249 C1159.57732,251.130655 1150.67065,246.650866 1141.553,236.491505 C1130.36915,251.142593 1112.47192,272.465611 1112.47192,272.465611" id="Fill-114" fill="#FFB27D"></path>
                        <path d="M990.409239,228.860544 C990.409239,228.860544 994.695519,237.00982 1009.94523,249.59909 C1020.79248,258.549714 1037.19989,269.750181 1061.55186,281.856951 C1061.55186,281.856951 1062.6485,277.213511 1063.0253,269.99342 C1063.0253,269.99342 1045.54359,248.334145 1034.63924,233.473145 C1029.33824,226.237634 1025.59159,220.618748 1026.17739,219.880075 C1027.56246,218.135116 1046.21727,193.550498 1054.54161,182.58581 C1056.95531,179.399817 1058.49527,177.366353 1058.49527,177.366353 L1047.96027,115.006462 C1047.96027,115.006462 1017.24838,124.098851 990.409239,228.860544" id="Fill-116" fill="#7A9C49"></path>
                        <path d="M1009.94791,249.598941 C1019.84547,257.760155 1034.37037,267.79715 1055.33065,278.695184 C1055.85043,278.961305 1056.37566,279.233892 1056.90785,279.506977 C1059.58466,276.267761 1061.21001,272.410745 1062.20091,268.972062 C1061.85042,268.536818 1061.39767,267.961299 1060.84165,267.276846 C1055.82014,260.998874 1043.20406,245.13706 1034.64242,233.470508 C1025.33711,243.453781 1016.34059,247.758477 1009.94791,249.598941" id="Fill-118" fill="#FFB27D"></path>
                        <polygon id="Fill-120" fill="#667F3B" points="1105.20853 173.098467 1105.92539 173.098467 1106.4546 139.339384 1104.64159 139.339384"></polygon>
                        <path d="M1105.99876,172.221411 C1106.65159,173.208298 1108.11957,176.472883 1107.14555,176.817597 C1106.17053,177.162311 1104.4593,177.182705 1104.00158,176.723584 C1103.54237,176.263468 1104.76461,170.357568 1105.99876,172.221411" id="Fill-122" fill="#667F3B"></path>
                        <polygon id="Fill-124" fill="#667F3B" points="1072.12002 173.098467 1072.83738 173.098467 1073.36659 139.339384 1071.55358 139.339384"></polygon>
                        <path d="M1072.91026,172.221411 C1073.56358,173.208298 1075.03156,176.472883 1074.05704,176.817597 C1073.08252,177.162311 1071.37129,177.182705 1070.91307,176.723584 C1070.45436,176.263468 1071.6766,170.357568 1072.91026,172.221411" id="Fill-126" fill="#667F3B"></path>
                        <path d="M1100.33282,145.11083 L1130.04686,116.41949 C1130.04686,116.41949 1136.73741,111.661642 1126.16369,104.548001 C1115.58948,97.4343588 1100.33282,145.11083 1100.33282,145.11083" id="Fill-128" fill="#667F3B"></path>
                        <path d="M1076.5463,145.11083 L1046.83226,116.41949 C1046.83226,116.41949 1040.14221,111.661642 1050.71592,104.548001 C1061.28964,97.4343588 1076.5463,145.11083 1076.5463,145.11083" id="Fill-130" fill="#667F3B"></path>
                        <path d="M1038.31589,284.707283 L1038.31589,305.07326 L1134.76763,305.07326 L1134.76763,284.755533 L1133.87949,284.785378 C1133.78865,284.785378 1126.64087,284.931123 1120.21791,281.201945 C1118.73801,280.341901 1117.29386,279.275924 1115.98822,277.95676 C1114.57435,276.527664 1113.40871,274.899102 1112.49625,273.071074 C1110.65345,269.419991 1109.81894,264.982484 1110.00659,259.812272 L1110.03687,258.916414 L1062.04384,258.916414 L1062.01902,259.757556 C1062.01902,259.824708 1061.90483,263.105708 1060.84145,267.277095 C1059.91658,270.928177 1058.26691,275.256252 1055.33045,278.694935 C1054.79876,279.325169 1054.22488,279.924564 1053.59688,280.487149 C1049.8686,283.823363 1045.0407,285.275837 1039.25268,284.785378 L1038.31589,284.707283 Z" id="Fill-132" fill="#667F3B"></path>
                        <path d="M1026.17729,219.880025 C1026.17729,219.880025 1052.93154,184.70677 1031.75432,174.465832 C1023.34757,170.400396 1011.51289,218.668304 1017.85692,223.209275 C1024.20145,227.749749 1034.64262,233.470608 1034.64262,233.470608 L1026.17729,219.880025 Z" id="Fill-134" fill="#667F3B"></path>
                        <path d="M1147.19328,214.08147 C1147.19328,214.08147 1137.8974,169.917299 1146.05444,174.465732 C1154.21148,179.013668 1166.29587,218.668204 1159.95134,223.209176 C1153.60731,227.74965 1143.16663,233.470508 1143.16663,233.470508 L1147.19328,214.08147 Z" id="Fill-136" fill="#667F3B"></path>
                        <path d="M1144.68927,219.777606 C1132.47233,204.58184 1127.90854,179.906194 1128.53157,154.443127 C1128.99972,135.323194 1131.61646,118.068098 1131.78724,117.46373 L1141.80693,125.283712 C1141.76672,125.426969 1136.05565,135.888266 1135.61382,154.494361 C1135.20971,171.509699 1134.40498,184.462585 1144.00319,214.081619 L1144.68927,219.777606 Z" id="Fill-138" fill="#0081A3"></path>
                        <path d="M1063.19906,99.9620619 C1063.19906,99.9620619 1099.00891,109.436472 1111.36237,80.9038093 C1124.69333,50.1113557 1110.06815,27.6770954 1097.90731,26.1634381 C1073.6576,23.1460722 1059.57156,32.4105696 1055.3101,42.2038273 C1051.04814,51.9970851 1043.43967,94.9117294 1063.19906,99.9620619" id="Fill-140" fill="#FFB27D"></path>
                        <path d="M1077.39472,83.8990399 C1077.39472,83.8990399 1075.89596,87.6003621 1066.44966,85.523125 C1066.44966,85.523125 1058.5185,83.7801559 1059.41806,79.5958363 C1059.41806,79.5958363 1067.64906,77.8016327 1077.39472,83.8990399" id="Fill-142" fill="#FFFFFF"></path>
                        <path d="M1104.96855,90.8860876 C1104.96855,90.8860876 1109.16994,78.5365747 1108.66605,71.944232 C1108.66605,71.944232 1118.01207,60.0050928 1112.56709,57.0504021 C1107.12211,54.0952139 1104.18367,61.1591134 1102.93611,59.7727964 C1101.68856,58.385982 1099.74101,34.9250412 1093.12791,35.666201 C1086.5153,36.4073608 1062.05213,44.0035026 1051.32749,34.736518 C1040.60236,25.4700309 1066.62138,-10.7368686 1110.71486,3.24866753 C1154.80785,17.2337062 1145.80488,66.3561856 1104.96855,90.8860876" id="Fill-144" fill="#2C3A64"></path>
                        <path d="M1132.46682,22.5125049 C1132.46682,22.5125049 1134.4645,16.5439302 1132.31987,12.2805204 C1132.31987,12.2805204 1132.21512,18.1525951 1129.91312,20.7660539 C1127.61162,23.3795126 1132.46682,22.5125049 1132.46682,22.5125049" id="Fill-146" fill="#2C3A64"></path>
                        <path d="M1131.5486,18.3388799 C1131.5486,18.3388799 1137.00301,17.7190912 1139.57905,21.9223129 C1139.57905,21.9223129 1135.73708,19.3188026 1131.85143,22.079001 L1131.5486,18.3388799 Z" id="Fill-148" fill="#2C3A64"></path>
                        <path d="M126.111863,428.163785 C126.111863,433.063398 122.261459,437.035318 117.511998,437.035318 C112.76204,437.035318 108.912132,433.063398 108.912132,428.163785 C108.912132,423.264171 112.76204,419.292251 117.511998,419.292251 C122.261459,419.292251 126.111863,423.264171 126.111863,428.163785 Z" id="Stroke-150" stroke="#7A9C49" stroke-width="2.444"></path>
                        <path d="M147.547584,428.163785 C147.547584,433.063398 143.69718,437.035318 138.947719,437.035318 C134.197762,437.035318 130.347854,433.063398 130.347854,428.163785 C130.347854,423.264171 134.197762,419.292251 138.947719,419.292251 C143.69718,419.292251 147.547584,423.264171 147.547584,428.163785 Z" id="Stroke-152" stroke="#7A9C49" stroke-width="2.444"></path>
                        <path d="M126.111863,425.535155 C126.111863,425.535155 128.544925,424.330397 130.347506,425.535155" id="Stroke-154" stroke="#7A9C49" stroke-width="2.05"></path>
                        <path d="M147.547584,425.535155 C149.42066,425.425722 161.940431,420.168461 161.940431,420.168461" id="Stroke-156" stroke="#7A9C49" stroke-width="2.05"></path>
                        <line x1="108.911884" y1="425.535155" x2="93.358852" y2="421.702015" id="Stroke-158" stroke="#7A9C49" stroke-width="2.05"></line>
                        <path d="M157.667952,424.031197 C156.301247,427.851901 157.282217,431.698968 159.859744,432.623677 C162.436278,433.549878 165.633861,431.203037 167.000566,427.381836 C168.366774,423.562128 167.384812,419.715061 164.808278,418.789357 C162.231247,417.863653 159.03416,420.210494 157.667952,424.031197" id="Fill-160" fill="#FFB27D"></path>
                        <path d="M86.7116422,427.822105 C87.3351734,431.831829 90.0343287,434.739762 92.7389448,434.317451 C95.4445539,433.894641 97.130471,430.30126 96.5059469,426.291536 C95.8824157,422.282309 93.1832604,419.373878 90.4786443,419.79619 C87.7745246,420.218999 86.0866217,423.812381 86.7116422,427.822105" id="Fill-162" fill="#FFB27D"></path>
                    </g>
                    <g id="Group-167" transform="translate(179.812017, 425.791276)">
                        <mask id="mask-10" fill="white">
                            <use xlink:href="#path-9"></use>
                        </mask>
                        <g id="Clip-166"></g>
                        <path d="M0.427,2.5595 C0.195,4.013 1.1885,5.39 2.6465,5.635 L2.6465,5.635 C4.1045,5.88 5.475,4.9005 5.707,3.4475 L5.707,3.4475 C5.9395,1.994 4.946,0.6175 3.488,0.3725 L3.488,0.3725 C3.3375,0.347 3.1875,0.335 3.0405,0.3345 L3.0405,0.3345 C1.759,0.3345 0.6355,1.2565 0.427,2.5595" id="Fill-165" fill="url(#linearGradient-11)" mask="url(#mask-10)"></path>
                    </g>
                    <g id="Group-183" transform="translate(179.812017, 425.791276)">
                        <path d="M2.6578,5.56565 C4.0773,5.80415 5.4118,4.85065 5.6378,3.43565 C5.8638,2.02065 4.8968,0.68015 3.4768,0.44165 C2.0573,0.20315 0.7228,1.15665 0.4968,2.57165 C0.2708,3.98665 1.2378,5.32715 2.6578,5.56565" id="Fill-168" fill="#E9B68B"></path>
                        <g id="Group-182" transform="translate(0.500000, 0.500000)" fill="#000000">
                            <path d="M0.39315,2.8751 C0.50865,2.8616 0.59115,2.7566 0.57615,2.6406 C0.56165,2.5251 0.45565,2.4426 0.34015,2.4561 C0.22415,2.4696 0.14215,2.5746 0.15665,2.6901 C0.17165,2.8061 0.27765,2.8886 0.39315,2.8751" id="Fill-170"></path>
                            <path d="M1.1407,0.8071 C1.2117,0.9006 1.3437,0.9196 1.4372,0.8501 C1.5297,0.7806 1.5477,0.6481 1.4772,0.5546 C1.4067,0.4616 1.2742,0.4421 1.1812,0.5116 C1.0882,0.5816 1.0697,0.7136 1.1407,0.8071" id="Fill-172"></path>
                            <path d="M3.315,0.4357 C3.2695,0.5427 3.3205,0.6667 3.428,0.7127 C3.5355,0.7587 3.6595,0.7092 3.7045,0.6022 C3.7495,0.4952 3.6995,0.3712 3.5915,0.3252 C3.484,0.2792 3.36,0.3287 3.315,0.4357" id="Fill-174"></path>
                            <path d="M4.7413,2.13225 C4.6258,2.14575 4.5433,2.25075 4.5583,2.36675 C4.5728,2.48225 4.6788,2.56475 4.7943,2.55125 C4.9103,2.53775 4.9923,2.43275 4.9778,2.31725 C4.9628,2.20125 4.8568,2.11875 4.7413,2.13225" id="Fill-176"></path>
                            <path d="M3.99375,4.20015 C3.92275,4.10665 3.79075,4.08765 3.69725,4.15715 C3.60475,4.22715 3.58675,4.35915 3.65725,4.45265 C3.72775,4.54615 3.86025,4.56515 3.95325,4.49565 C4.04625,4.42565 4.06475,4.29365 3.99375,4.20015" id="Fill-178"></path>
                            <path d="M1.8199,4.5716 C1.8649,4.4646 1.8139,4.3406 1.7064,4.2946 C1.5989,4.2486 1.4749,4.2976 1.4299,4.4051 C1.3849,4.5121 1.4349,4.6361 1.5429,4.6821 C1.6504,4.7281 1.7744,4.6786 1.8199,4.5716" id="Fill-180"></path>
                        </g>
                    </g>
                    <g id="Group-186" transform="translate(180.812017, 426.791276)">
                        <mask id="mask-13" fill="white">
                            <use xlink:href="#path-12"></use>
                        </mask>
                        <g id="Clip-185"></g>
                        <path d="M0.3615,0.5665 L0.6325,2.6925 C0.6495,2.8275 0.7895,2.91 0.915,2.8605 L0.915,2.8605 L1.749,2.5295 C1.836,2.495 1.888,2.4065 1.876,2.314 L1.876,2.314 L1.6635,0.6455 C1.652,0.553 1.579,0.479 1.4865,0.4655 L1.4865,0.4655 L0.594,0.3385 C0.584,0.337 0.574,0.3365 0.5645,0.3365 L0.5645,0.3365 C0.443,0.3365 0.346,0.442 0.3615,0.5665" id="Fill-184" fill="url(#linearGradient-14)" mask="url(#mask-13)"></path>
                    </g>
                    <g id="Group-193" transform="translate(179.812017, 419.791276)">
                        <path d="M1.88385,7.564 L2.15435,9.6905 C2.16885,9.803 2.26985,9.8785 2.37585,9.871 C2.26235,9.892 2.14785,9.8135 2.13235,9.693 L1.86185,7.5665 C1.84635,7.446 1.93735,7.3435 2.05385,7.3375 C1.94835,7.3545 1.86985,7.451 1.88385,7.564" id="Fill-187" fill="#000000"></path>
                        <path d="M2.39315,9.86305 L3.22715,9.53205 C3.31415,9.49755 3.36565,9.40905 3.35415,9.31655 L3.14165,7.64805 C3.13015,7.55555 3.05715,7.48155 2.96465,7.46855 L2.07165,7.34105 C2.05815,7.33905 2.04515,7.33955 2.03115,7.34005 C2.05165,7.33655 2.07215,7.33555 2.09365,7.33855 L2.98665,7.46555 C3.07915,7.47905 3.15215,7.55305 3.16365,7.64555 L3.37615,9.31355 C3.38815,9.40655 3.33615,9.49505 3.24915,9.52955 L2.41515,9.86055 C2.39515,9.86855 2.37465,9.87205 2.35415,9.87355 C2.36715,9.87105 2.38015,9.86805 2.39315,9.86305" id="Fill-189" fill="#FFFFFF"></path>
                        <path d="M4.41025,8.44905 L6.99325,9.12705 C7.26975,9.19955 7.54075,8.99905 7.55075,8.71355 C7.61975,6.83555 7.44975,0.77755 2.44575,0.31655 C2.47325,0.31905 1.03325,0.20005 0.34075,0.70605" id="Stroke-191" stroke="#0081A3" stroke-width="1.5"></path>
                    </g>
                    <g id="Group-196" transform="translate(182.812017, 427.791276)">
                        <mask id="mask-16" fill="white">
                            <use xlink:href="#path-15"></use>
                        </mask>
                        <g id="Clip-195"></g>
                        <path d="M0.7124,0.3724 C0.3492,0.6204 0.2588,1.1164 0.5108,1.4808 L0.5108,1.4808 C0.7628,1.8448 1.2604,1.9392 1.6232,1.6916 L1.6232,1.6916 C1.986,1.444 2.076,0.9476 1.8244,0.5832 L1.8244,0.5832 C1.6676,0.3564 1.4152,0.234 1.1596,0.234 L1.1596,0.234 C1.0048,0.234 0.8488,0.2788 0.7124,0.3724" id="Fill-194" fill="url(#linearGradient-17)" mask="url(#mask-16)"></path>
                    </g>
                    <g id="Group-199" transform="translate(182.812017, 427.791276)">
                        <mask id="mask-19" fill="white">
                            <use xlink:href="#path-18"></use>
                        </mask>
                        <g id="Clip-198"></g>
                        <path d="M0.8195,0.2872 C0.4255,0.3312 0.1035,0.5788 0.0325,0.8912 L0.0325,0.8912 C-0.001,1.0396 0.021,1.1968 0.1035,1.34 L0.1035,1.34 C0.2315,1.5624 0.491,1.7252 0.792,1.7708 L0.792,1.7708 C1.184,1.8304 1.59,1.6804 1.783,1.4028 L1.783,1.4028 C1.8335,1.3308 1.868,1.2532 1.886,1.1724 L1.886,1.1724 C1.9405,0.9332 1.843,0.6816 1.628,0.5068 L1.628,0.5068 C1.489,0.394 1.313,0.3216 1.127,0.2932 L1.127,0.2932 C1.069,0.2844 1.01,0.28 0.951,0.28 L0.951,0.28 C0.907,0.28 0.8635,0.2824 0.8195,0.2872" id="Fill-197" mask="url(#mask-19)"></path>
                    </g>
                    <path d="M179.800544,421.288534 C179.800544,421.288534 178.714355,421.708995 178.052367,423.117795 C177.390909,424.526089 177.48041,425.209465 177.494709,425.639046 C177.50583,425.985547 177.128762,425.65475 176.880385,425.490618 C176.8216,425.451611 176.797769,425.368025 176.820541,425.2814 C176.949761,424.783431 177.334773,423.159335 177.967633,422.341208 C178.717532,421.373133 179.653847,420.775874 179.785715,420.791578 C179.834437,421.129974 179.800544,421.288534 179.800544,421.288534" id="Fill-200" fill="#666970"></path>
                    <g id="Group-204" transform="translate(176.812017, 423.791276)">
                        <mask id="mask-21" fill="white">
                            <use xlink:href="#path-20"></use>
                        </mask>
                        <g id="Clip-203"></g>
                        <path d="M0.422,0.305 C0.3955,0.3835 0.3695,0.463 0.3425,0.5415 L0.3425,0.5415 C0.3465,0.5425 0.3465,0.5425 0.3495,0.544 L0.3495,0.544 C0.377,0.5525 0.408,0.562 0.4355,0.5705 L0.4355,0.5705 C0.4625,0.4915 0.4885,0.4125 0.515,0.3335 L0.515,0.3335 C0.54,0.261 0.5645,0.188 0.589,0.1145 L0.589,0.1145 C0.5615,0.106 0.5305,0.0965 0.503,0.088 L0.503,0.088 C0.4995,0.087 0.4995,0.087 0.496,0.086 L0.496,0.086 C0.471,0.159 0.4465,0.232 0.422,0.305" id="Fill-202" mask="url(#mask-21)"></path>
                    </g>
                    <g id="Group-207" transform="translate(176.812017, 422.791276)">
                        <mask id="mask-23" fill="white">
                            <use xlink:href="#path-22"></use>
                        </mask>
                        <g id="Clip-206"></g>
                        <path d="M0.3095,0.2465 C0.2795,0.324 0.2485,0.4015 0.218,0.4785 L0.218,0.4785 L0.2255,0.4815 C0.2515,0.4925 0.281,0.505 0.308,0.5165 L0.308,0.5165 C0.338,0.439 0.3695,0.3615 0.3995,0.2845 L0.3995,0.2845 C0.428,0.213 0.456,0.141 0.4845,0.069 L0.4845,0.069 C0.4575,0.058 0.428,0.0455 0.401,0.034 L0.401,0.034 L0.3945,0.0315 C0.366,0.103 0.338,0.175 0.3095,0.2465" id="Fill-205" mask="url(#mask-23)"></path>
                    </g>
                    <g id="Group-210" transform="translate(176.812017, 419.791276)">
                        <mask id="mask-25" fill="white">
                            <use xlink:href="#path-24"></use>
                        </mask>
                        <g id="Clip-209"></g>
                        <path d="M3.012,0.4515 C2.871,0.5375 2.7095,0.65 2.538,0.7905 L2.538,0.7905 C2.2465,1.029 1.927,1.3485 1.6345,1.756 L1.6345,1.756 C1.36,2.1375 1.1015,2.679 0.8815,3.2205 L0.8815,3.2205 C0.573,3.979 0.3365,4.78 0.2435,5.096 L0.2435,5.096 C0.215,5.194 0.203,5.207 0.203,5.207 L0.203,5.207 C0.203,5.207 0.3545,5.3225 0.5495,5.449 L0.5495,5.449 C0.902,5.679 1.397,5.9475 1.393,5.643 L1.393,5.643 C1.392,5.523 1.386,5.386 1.3885,5.2225 L1.3885,5.2225 C1.405,4.3635 1.709,3.4615 2.0935,2.6645 L2.0935,2.6645 C2.769,1.2665 3.515,1.036 3.515,1.036 L3.515,1.036 L3.5075,0.2315 C3.5055,0.2315 3.5035,0.231 3.501,0.231 L3.501,0.231 C3.44,0.231 3.2575,0.3015 3.012,0.4515" id="Fill-208" mask="url(#mask-25)"></path>
                    </g>
                    <g id="Group-216" transform="translate(176.812017, 420.791276)">
                        <path d="M1.6158,1.622 C2.3923,0.638818182 3.3753,0.196545455 3.5078,0.210636364 C3.5083,0.248363636 3.5083,0.244272727 3.5088,0.278818182 C3.3308,0.291545455 2.3933,0.725181818 1.6408,1.67790909 C0.9508,2.55154545 0.3693,4.372 0.2453,4.76245455 C0.2183,4.74472727 0.2028,4.73381818 0.2028,4.73381818 C0.2028,4.73381818 0.8388,2.60518182 1.6158,1.622" id="Fill-211" fill="#666970"></path>
                        <g id="Group-215">
                            <mask id="mask-27" fill="white">
                                <use xlink:href="#path-26"></use>
                            </mask>
                            <g id="Clip-214"></g>
                            <path d="M0.739,4.92681818 C0.739,4.92681818 1.2125,3.10909091 1.6955,2.28181818 C2.3965,1.07954545 3.4895,0.5 3.4895,0.5 C3.522,0.426818182 3.552,0.355454545 3.5805,0.285454545 C3.5805,0.285454545 2.9515,0.542727273 2.536,0.865454545 C2.1085,1.19772727 1.517,1.815 1.1905,2.49090909 C0.656,3.59909091 0.3435,4.73181818 0.3435,4.73181818 C0.464,4.835 0.67,4.90363636 0.739,4.92681818" id="Fill-213" mask="url(#mask-27)"></path>
                        </g>
                    </g>
                    <g id="Group-219" transform="translate(250.812017, 424.791276)">
                        <mask id="mask-29" fill="white">
                            <use xlink:href="#path-28"></use>
                        </mask>
                        <g id="Clip-218"></g>
                        <path d="M2.06363636,0.5275 C0.738181818,0.773 -0.165,2.1495 0.0459090909,3.603 L0.0459090909,3.603 C0.256818182,5.056 1.50272727,6.035 2.82863636,5.7905 L2.82863636,5.7905 C4.15409091,5.545 5.05727273,4.168 4.84636364,2.715 L4.84636364,2.715 C4.65681818,1.412 3.63590909,0.49 2.47090909,0.49 L2.47090909,0.49 C2.33681818,0.49 2.20045455,0.5025 2.06363636,0.5275" id="Fill-217" fill="url(#linearGradient-30)" mask="url(#mask-29)"></path>
                    </g>
                    <g id="Group-235" transform="translate(250.812017, 425.791276)">
                        <path d="M2.81831818,4.74627273 C1.52740909,4.96309091 0.314681818,4.09627273 0.109227273,2.80990909 C-0.0962272727,1.52354545 0.782863636,0.304909091 2.07377273,0.0880909091 C3.36422727,-0.128727273 4.57740909,0.738090909 4.78286364,2.02445455 C4.98831818,3.31081818 4.10922727,4.52945455 2.81831818,4.74627273" id="Fill-220" fill="#E9B68B"></path>
                        <g id="Group-234" fill="#000000">
                            <path d="M4.42254545,2.75486364 C4.31709091,2.74259091 4.24254545,2.64713636 4.25618182,2.54168182 C4.26936364,2.43668182 4.36572727,2.36168182 4.47072727,2.37395455 C4.57618182,2.38622727 4.65072727,2.48168182 4.63754545,2.58668182 C4.62390909,2.69213636 4.52754545,2.76713636 4.42254545,2.75486364" id="Fill-222"></path>
                            <path d="M3.74295455,0.874863636 C3.67840909,0.959863636 3.55795455,0.977136364 3.47340909,0.913954545 C3.38931818,0.850772727 3.37295455,0.730318182 3.43659091,0.645318182 C3.50113636,0.560772727 3.62159091,0.543045455 3.70613636,0.606227273 C3.79022727,0.669863636 3.80704545,0.789863636 3.74295455,0.874863636" id="Fill-224"></path>
                            <path d="M1.76631818,0.537227273 C1.80768182,0.6345 1.76131818,0.747227273 1.66313636,0.789045455 C1.56586364,0.830863636 1.45313636,0.785863636 1.41222727,0.688590909 C1.37086364,0.591318182 1.41677273,0.478590909 1.51495455,0.436772727 C1.61268182,0.394954545 1.72540909,0.439954545 1.76631818,0.537227273" id="Fill-226"></path>
                            <path d="M0.469727273,2.07954545 C0.574727273,2.09181818 0.649727273,2.18727273 0.636090909,2.29272727 C0.622909091,2.39772727 0.526545455,2.47272727 0.421545455,2.46045455 C0.315636364,2.44818182 0.241545455,2.35272727 0.254727273,2.24772727 C0.268363636,2.14227273 0.364727273,2.06727273 0.469727273,2.07954545" id="Fill-228"></path>
                            <path d="M1.14931818,3.95954545 C1.21386364,3.87454545 1.33386364,3.85727273 1.41886364,3.92045455 C1.50295455,3.98363636 1.51931818,4.10409091 1.45522727,4.18909091 C1.39068182,4.27363636 1.27068182,4.29136364 1.18568182,4.22818182 C1.10159091,4.16454545 1.08477273,4.04454545 1.14931818,3.95954545" id="Fill-230"></path>
                            <path d="M3.1255,4.29718182 C3.08459091,4.19990909 3.13095455,4.08718182 3.22868182,4.04536364 C3.32640909,4.00354545 3.43868182,4.04809091 3.48004545,4.14581818 C3.52095455,4.24309091 3.47504545,4.35581818 3.37731818,4.39763636 C3.27913636,4.43945455 3.16686364,4.39445455 3.1255,4.29718182" id="Fill-232"></path>
                        </g>
                    </g>
                    <g id="Group-238" transform="translate(252.812017, 426.791276)">
                        <mask id="mask-32" fill="white">
                            <use xlink:href="#path-31"></use>
                        </mask>
                        <g id="Clip-237"></g>
                        <path d="M1.6635,0.423 L0.7715,0.532285714 C0.679,0.543428571 0.606,0.607285714 0.594,0.686571429 L0.594,0.686571429 L0.3815,2.11628571 C0.37,2.196 0.422,2.27185714 0.509,2.30142857 L0.509,2.30142857 L1.3425,2.58471429 C1.468,2.62757143 1.6085,2.55642857 1.6255,2.44114286 L1.6255,2.44114286 L1.896,0.618857143 C1.912,0.512142857 1.815,0.421285714 1.6935,0.421285714 L1.6935,0.421285714 C1.684,0.421285714 1.6735,0.421714286 1.6635,0.423" id="Fill-236" fill="url(#linearGradient-33)" mask="url(#mask-32)"></path>
                    </g>
                    <g id="Group-245" transform="translate(248.812017, 419.791276)">
                        <path d="M5.48249333,7.35166667 L5.22956,9.37690476 C5.21649333,9.48404762 5.12222667,9.55595238 5.02329333,9.54880952 C5.12922667,9.56880952 5.23609333,9.49404762 5.25056,9.37928571 L5.50302667,7.35404762 C5.51702667,7.23928571 5.43256,7.14166667 5.32382667,7.13595238 C5.42182667,7.15214286 5.49556,7.24404762 5.48249333,7.35166667" id="Fill-239" fill="#000000"></path>
                        <path d="M5.00714667,9.54128571 L4.22874667,9.22604762 C4.14754667,9.19319048 4.09901333,9.10890476 4.11021333,9.02080952 L4.30854667,7.4317619 C4.31928,7.34366667 4.38741333,7.27319048 4.47374667,7.26080952 L5.30721333,7.13938095 C5.31981333,7.13747619 5.33194667,7.13795238 5.34454667,7.13842857 C5.32588,7.13509524 5.30674667,7.13414286 5.28621333,7.137 L4.45321333,7.25842857 C4.36688,7.27080952 4.29874667,7.34128571 4.28754667,7.42938095 L4.08921333,9.01795238 C4.07848,9.10652381 4.12701333,9.19080952 4.20821333,9.22366667 L4.98661333,9.53890476 C5.00528,9.54652381 5.02441333,9.54985714 5.04354667,9.55128571 C5.03141333,9.54890476 5.01881333,9.54604762 5.00714667,9.54128571" id="Fill-241" fill="#FFFFFF"></path>
                        <path d="M3.12456667,8.19466667 L0.713766667,8.84038095 C0.4557,8.90942857 0.202766667,8.718 0.192966667,8.44657143 C0.129033333,6.658 0.2877,0.88847619 4.9581,0.449428571 C4.93243333,0.451809524 6.27643333,0.33847619 6.92276667,0.820380952" id="Stroke-243" stroke="#0081A3" stroke-width="1.5"></path>
                    </g>
                    <g id="Group-248" transform="translate(250.812017, 426.791276)">
                        <mask id="mask-35" fill="white">
                            <use xlink:href="#path-34"></use>
                        </mask>
                        <g id="Clip-247"></g>
                        <path d="M0.382,0.7076 C0.13,1.0716 0.2204,1.568 0.5832,1.816 L0.5832,1.816 C0.946,2.0636 1.4436,1.9692 1.6952,1.6048 L1.6952,1.6048 C1.9468,1.2408 1.8568,0.7444 1.494,0.4964 L1.494,0.4964 C1.3572,0.4032 1.2016,0.3584 1.0468,0.3584 L1.0468,0.3584 C0.7912,0.3584 0.5388,0.4804 0.382,0.7076" id="Fill-246" fill="url(#linearGradient-36)" mask="url(#mask-35)"></path>
                    </g>
                    <g id="Group-251" transform="translate(250.812017, 426.791276)">
                        <mask id="mask-38" fill="white">
                            <use xlink:href="#path-37"></use>
                        </mask>
                        <g id="Clip-250"></g>
                        <path d="M0.9048,0.0215 C0.7556,0.057 0.6148,0.1475 0.504,0.289 L0.504,0.289 C0.332,0.507 0.2536,0.8215 0.2976,1.121 L0.2976,1.121 C0.312,1.2215 0.3396,1.319 0.3796,1.409 L0.3796,1.409 C0.5344,1.756 0.8592,1.943 1.1724,1.869 L1.1724,1.869 C1.4136,1.8115 1.6212,1.6085 1.7236,1.33 L1.7236,1.33 C1.7892,1.1505 1.8068,0.955 1.78,0.7695 L1.78,0.7695 C1.7236,0.3785 1.466,0.0695 1.1504,0.014 L1.1504,0.014 C1.116,0.008 1.0812,0.005 1.0468,0.005 L1.0468,0.005 C0.9988,0.005 0.9512,0.0105 0.9048,0.0215" id="Fill-249" mask="url(#mask-38)"></path>
                    </g>
                    <path d="M255.823596,420.288534 C255.823596,420.288534 256.909774,420.708995 257.571225,422.117795 C258.233206,423.526089 258.143706,424.209465 258.129407,424.639046 C258.118286,424.985547 258.494821,424.65475 258.743726,424.490618 C258.80198,424.451611 258.826341,424.368025 258.803569,424.2814 C258.67435,423.783431 258.289342,422.159335 257.656488,421.341208 C256.906596,420.373133 255.97029,419.775874 255.837894,419.791578 C255.789702,420.129974 255.823596,420.288534 255.823596,420.288534" id="Fill-252" fill="#666970"></path>
                    <g id="Group-256" transform="translate(258.812017, 422.791276)">
                        <mask id="mask-40" fill="white">
                            <use xlink:href="#path-39"></use>
                        </mask>
                        <g id="Clip-255"></g>
                        <path d="M0.255,0.2435 C0.227,0.252 0.1965,0.2615 0.169,0.27 L0.169,0.27 C0.193,0.343 0.2175,0.416 0.2425,0.489 L0.2425,0.489 C0.269,0.568 0.2955,0.6465 0.3225,0.726 L0.3225,0.726 C0.3495,0.717 0.381,0.7075 0.4085,0.699 L0.4085,0.699 L0.415,0.697 C0.3885,0.618 0.3625,0.539 0.336,0.4605 L0.336,0.4605 C0.311,0.3875 0.2865,0.314 0.2615,0.241 L0.2615,0.241 L0.255,0.2435 Z" id="Fill-254" mask="url(#mask-40)"></path>
                    </g>
                    <g id="Group-259" transform="translate(257.812017, 421.791276)">
                        <mask id="mask-42" fill="white">
                            <use xlink:href="#path-41"></use>
                        </mask>
                        <g id="Clip-258"></g>
                        <path d="M0.3565,0.1895 C0.33,0.2005 0.3,0.2135 0.2735,0.2245 L0.2735,0.2245 C0.3015,0.296 0.33,0.368 0.3585,0.4395 L0.3585,0.4395 C0.3885,0.517 0.4195,0.5945 0.45,0.672 L0.45,0.672 C0.476,0.6605 0.5065,0.648 0.5325,0.6365 L0.5325,0.6365 L0.5395,0.634 C0.509,0.5565 0.4785,0.479 0.4485,0.402 L0.4485,0.402 C0.42,0.3305 0.392,0.2585 0.3635,0.187 L0.3635,0.187 L0.3565,0.1895 Z" id="Fill-257" mask="url(#mask-42)"></path>
                    </g>
                    <g id="Group-262" transform="translate(255.812017, 418.791276)">
                        <mask id="mask-44" fill="white">
                            <use xlink:href="#path-43"></use>
                        </mask>
                        <g id="Clip-261"></g>
                        <path d="M0.2495,0.387 L0.243,1.1915 C0.243,1.1915 0.989,1.422 1.664,2.82 L1.664,2.82 C2.049,3.617 2.353,4.519 2.3695,5.378 L2.3695,5.378 C2.372,5.541 2.3655,5.6785 2.3645,5.7975 L2.3645,5.7975 C2.3605,6.103 2.8555,5.8345 3.2085,5.6045 L3.2085,5.6045 C3.4035,5.4775 3.5545,5.3625 3.5545,5.3625 L3.5545,5.3625 C3.5545,5.3625 3.543,5.3495 3.514,5.2515 L3.514,5.2515 C3.4215,4.9355 3.185,4.1345 2.876,3.3755 L2.876,3.3755 C2.656,2.834 2.3975,2.2925 2.1235,1.9115 L2.1235,1.9115 C1.8305,1.5035 1.511,1.184 1.2195,0.946 L1.2195,0.946 C1.0485,0.8055 0.886,0.693 0.7455,0.607 L0.7455,0.607 C0.5005,0.457 0.319,0.3865 0.2565,0.3865 L0.2565,0.3865 C0.254,0.3865 0.2515,0.3865 0.2495,0.387" id="Fill-260" mask="url(#mask-44)"></path>
                    </g>
                    <g id="Group-268" transform="translate(255.812017, 418.791276)">
                        <path d="M2.14215,1.9395 C1.36565,0.858 0.38265,0.3715 0.24965,0.387 C0.24965,0.4285 0.24965,0.424 0.24915,0.462 C0.42665,0.476 1.36465,0.953 2.11715,2.001 C2.80715,2.962 3.38865,4.9645 3.51265,5.394 C3.53915,5.3745 3.55465,5.3625 3.55465,5.3625 C3.55465,5.3625 2.91915,3.021 2.14215,1.9395" id="Fill-263" fill="#666970"></path>
                        <g id="Group-267">
                            <mask id="mask-46" fill="white">
                                <use xlink:href="#path-45"></use>
                            </mask>
                            <g id="Clip-266"></g>
                            <path d="M3.019,5.5745 C3.019,5.5745 2.5455,3.5755 2.0625,2.665 C1.3615,1.3425 0.2685,0.7055 0.2685,0.7055 C0.236,0.625 0.2055,0.546 0.177,0.469 C0.177,0.469 0.806,0.752 1.2215,1.107 C1.649,1.4725 2.2405,2.152 2.567,2.895 C3.102,4.114 3.414,5.3605 3.414,5.3605 C3.294,5.474 3.0875,5.5495 3.019,5.5745" id="Fill-265" mask="url(#mask-46)"></path>
                        </g>
                    </g>
                    <g id="Group-271" transform="translate(702.812017, 170.791276)">
                        <mask id="mask-48" fill="white">
                            <use xlink:href="#path-47"></use>
                        </mask>
                        <g id="Clip-270"></g>
                        <path d="M1.8765,0.308181818 C0.537,0.877727273 -0.035,2.31818182 0.5995,3.52545455 L0.5995,3.52545455 C1.2335,4.73227273 2.8335,5.24954545 4.1725,4.68 L4.1725,4.68 C5.5125,4.11090909 6.0835,2.67045455 5.45,1.46363636 L5.45,1.46363636 C4.9905,0.589090909 4.025,0.0768181818 3.0185,0.0768181818 L3.0185,0.0768181818 C2.635,0.0768181818 2.246,0.150909091 1.8765,0.308181818" id="Fill-269" fill="url(#linearGradient-49)" mask="url(#mask-48)"></path>
                    </g>
                    <g id="Group-287" transform="translate(702.812017, 170.791276)">
                        <path d="M4.14265,4.62277273 C5.44615,4.06822727 6.00365,2.66595455 5.38565,1.4905 C4.76865,0.315045455 3.21115,-0.188590909 1.90665,0.365954545 C0.60265,0.920045455 0.04615,2.32277273 0.66315,3.49822727 C1.28065,4.67368182 2.83865,5.17731818 4.14265,4.62277273" id="Fill-272" fill="#E9B68B"></path>
                        <g id="Group-286" transform="translate(0.500000, 0.000000)" fill="#000000">
                            <path d="M0.94585,3.89459091 C1.03385,3.82459091 1.04135,3.70368182 0.96335,3.62459091 C0.88585,3.54595455 0.75135,3.53868182 0.66435,3.60868182 C0.57685,3.67868182 0.56885,3.79959091 0.64635,3.87822727 C0.72435,3.95731818 0.85835,3.96459091 0.94585,3.89459091" id="Fill-274"></path>
                            <path d="M0.3868,1.96127273 C0.4983,1.99445455 0.6183,1.94036364 0.6553,1.84036364 C0.6918,1.74036364 0.6318,1.63218182 0.5208,1.59854545 C0.4093,1.56536364 0.2898,1.61945455 0.2523,1.71945455 C0.2153,1.81945455 0.2758,1.92809091 0.3868,1.96127273" id="Fill-276"></path>
                            <path d="M1.9654,0.560954545 C1.9894,0.664590909 2.1009,0.730954545 2.2159,0.710045455 C2.3304,0.688681818 2.4049,0.587772727 2.3809,0.484590909 C2.3574,0.380954545 2.2454,0.314136364 2.1304,0.3355 C2.0159,0.356409091 1.9419,0.457318182 1.9654,0.560954545" id="Fill-278"></path>
                            <path d="M4.1031,1.09395455 C4.0156,1.16395455 4.0076,1.28486364 4.0856,1.36395455 C4.1631,1.44259091 4.2976,1.44986364 4.3846,1.37986364 C4.4726,1.30986364 4.4806,1.18940909 4.4026,1.11031818 C4.3246,1.03122727 4.1906,1.02395455 4.1031,1.09395455" id="Fill-280"></path>
                            <path d="M4.66215,3.02731818 C4.55065,2.99413636 4.43065,3.04822727 4.39415,3.14822727 C4.35715,3.24822727 4.41715,3.35640909 4.52815,3.39004545 C4.63965,3.42322727 4.75965,3.36913636 4.79665,3.26913636 C4.83365,3.16913636 4.77365,3.0605 4.66215,3.02731818" id="Fill-282"></path>
                            <path d="M3.08355,4.42763636 C3.06005,4.324 2.94805,4.25763636 2.83305,4.27854545 C2.71855,4.29990909 2.64455,4.40081818 2.66805,4.504 C2.69155,4.60763636 2.80355,4.67445455 2.91855,4.65309091 C3.03305,4.63218182 3.10755,4.53081818 3.08355,4.42763636" id="Fill-284"></path>
                        </g>
                    </g>
                    <g id="Group-290" transform="translate(703.812017, 171.791276)">
                        <mask id="mask-51" fill="white">
                            <use xlink:href="#path-50"></use>
                        </mask>
                        <g id="Clip-289"></g>
                        <path d="M1.3685,0.435 L0.5615,0.8375 C0.4405,0.898 0.4095,1.056 0.5,1.157 L0.5,1.157 L1.9305,2.7535 C2.021,2.8545 2.183,2.843 2.2585,2.7305 L2.2585,2.7305 L2.757,1.985 C2.8085,1.907 2.8015,1.805 2.739,1.735 L2.739,1.735 L1.6165,0.483 C1.576,0.4375 1.519,0.4135 1.461,0.4135 L1.461,0.4135 C1.43,0.4135 1.3985,0.4205 1.3685,0.435" id="Fill-288" fill="url(#linearGradient-52)" mask="url(#mask-51)"></path>
                    </g>
                    <g id="Group-297" transform="translate(698.812017, 165.791276)">
                        <path d="M5.51665,7.1423 L6.94715,8.7388 C7.02315,8.8233 7.14915,8.8283 7.23215,8.7613 C7.15065,8.8438 7.01165,8.8438 6.93065,8.7533 L5.50015,7.1568 C5.41915,7.0663 5.43615,6.9303 5.52765,6.8593 C5.45115,6.9333 5.44115,7.0578 5.51665,7.1423" id="Fill-291" fill="#000000"></path>
                        <path d="M7.24175,8.7455 L7.74025,7.9995 C7.79225,7.922 7.78475,7.8195 7.72225,7.7495 L6.60025,6.4975 C6.53775,6.4275 6.43625,6.408 6.35225,6.45 L5.54475,6.852 C5.53275,6.858 5.52225,6.866 5.51125,6.874 C5.52575,6.86 5.54225,6.847 5.56175,6.8375 L6.36875,6.4355 C6.45275,6.3935 6.55425,6.413 6.61675,6.4825 L7.73875,7.735 C7.80125,7.8045 7.80875,7.907 7.75675,7.985 L7.25825,8.731 C7.24625,8.749 7.23125,8.7635 7.21525,8.776 C7.22475,8.7665 7.23375,8.757 7.24175,8.7455" id="Fill-293" fill="#FFFFFF"></path>
                        <path d="M8.0992,6.43615 L10.6102,5.52715 C10.8787,5.43015 10.9877,5.11065 10.8347,4.87015 C9.8242,3.28515 6.2442,-1.60435 1.8632,0.85815 C1.8877,0.84415 0.6347,1.56415 0.3522,2.37365" id="Stroke-295" stroke="#0081A3" stroke-width="1.5"></path>
                    </g>
                    <g id="Group-300" transform="translate(706.812017, 170.791276)">
                        <mask id="mask-54" fill="white">
                            <use xlink:href="#path-53"></use>
                        </mask>
                        <g id="Clip-299"></g>
                        <path d="M0.09,0.7372 C-0.068,1.1476 0.1392,1.6072 0.5536,1.764 L0.5536,1.764 C0.9676,1.9212 1.4312,1.716 1.5892,1.306 L1.5892,1.306 C1.7468,0.896 1.5392,0.4364 1.1252,0.2796 L1.1252,0.2796 C1.0308,0.2436 0.9336,0.2268 0.8384,0.2268 L0.8384,0.2268 C0.5156,0.2268 0.2116,0.4212 0.09,0.7372" id="Fill-298" fill="url(#linearGradient-55)" mask="url(#mask-54)"></path>
                    </g>
                    <g id="Group-303" transform="translate(705.812017, 170.791276)">
                        <mask id="mask-57" fill="white">
                            <use xlink:href="#path-56"></use>
                        </mask>
                        <g id="Clip-302"></g>
                        <path d="M0.6625,0.3376 C0.569,0.3704 0.4815,0.416 0.405,0.472 L0.405,0.472 C0.1115,0.6876 0.023,1.0376 0.1865,1.3272 L0.1865,1.3272 C0.264,1.4644 0.3935,1.5832 0.5635,1.664 L0.5635,1.664 C0.8265,1.7888 1.1555,1.8052 1.4355,1.706 L1.4355,1.706 C1.801,1.5768 2.028,1.2692 1.991,0.9528 L1.991,0.9528 C1.981,0.8704 1.954,0.7912 1.9115,0.7164 L1.9115,0.7164 C1.7865,0.4944 1.5275,0.332 1.2265,0.286 L1.2265,0.286 C1.167,0.2768 1.107,0.2724 1.048,0.2724 L1.048,0.2724 C0.914,0.2724 0.7825,0.2948 0.6625,0.3376" id="Fill-301" mask="url(#mask-57)"></path>
                    </g>
                    <path d="M699.903502,168.159142 C699.903502,168.159142 699.109053,169.017496 699.469037,170.409998 C699.829022,171.802501 700.419632,172.273945 700.748257,172.590718 C701.013509,172.846645 700.388926,172.78487 700.016528,172.784405 C699.928328,172.784405 699.842742,172.733313 699.802236,172.656674 C699.568997,172.216814 698.769975,170.79923 698.813748,169.86656 C698.866014,168.762498 699.378878,167.845155 699.525224,167.791276 C699.822489,168.022121 699.903502,168.159142 699.903502,168.159142" id="Fill-304" fill="#666970"></path>
                    <g id="Group-308" transform="translate(698.812017, 171.791276)">
                        <mask id="mask-59" fill="white">
                            <use xlink:href="#path-58"></use>
                        </mask>
                        <g id="Clip-307"></g>
                        <path d="M0.437,0.269 C0.4335,0.2705 0.4335,0.2705 0.4295,0.2715 L0.4295,0.2715 C0.451,0.3455 0.472,0.42 0.4935,0.4935 L0.4935,0.4935 C0.5165,0.5735 0.5395,0.654 0.5625,0.7335 L0.5625,0.7335 L0.569,0.731 C0.597,0.7225 0.628,0.713 0.655,0.704 L0.655,0.704 C0.632,0.6245 0.609,0.5445 0.5865,0.4645 L0.5865,0.4645 C0.5655,0.3905 0.544,0.3165 0.523,0.242 L0.523,0.242 C0.496,0.2505 0.4645,0.2605 0.437,0.269" id="Fill-306" mask="url(#mask-59)"></path>
                    </g>
                    <g id="Group-311" transform="translate(698.812017, 170.791276)">
                        <mask id="mask-61" fill="white">
                            <use xlink:href="#path-60"></use>
                        </mask>
                        <g id="Clip-310"></g>
                        <path d="M0.1665,0.1755 C0.163,0.1765 0.163,0.1765 0.159,0.177 L0.159,0.177 C0.177,0.252 0.194,0.327 0.2115,0.4025 L0.2115,0.4025 C0.2305,0.4835 0.249,0.5645 0.268,0.6455 L0.268,0.6455 C0.271,0.6445 0.271,0.6445 0.2755,0.644 L0.2755,0.644 C0.3035,0.638 0.3355,0.6315 0.364,0.6255 L0.364,0.6255 C0.3445,0.5445 0.3255,0.4635 0.3075,0.3825 L0.3075,0.3825 C0.2895,0.3075 0.272,0.2325 0.2545,0.157 L0.2545,0.157 C0.2265,0.163 0.1945,0.1695 0.1665,0.1755" id="Fill-309" mask="url(#mask-61)"></path>
                    </g>
                    <g id="Group-314" transform="translate(698.812017, 167.791276)">
                        <mask id="mask-63" fill="white">
                            <use xlink:href="#path-62"></use>
                        </mask>
                        <g id="Clip-313"></g>
                        <path d="M0.35,0.785538462 C0.296,0.924461538 0.2408,1.09476923 0.1916,1.29138462 L0.1916,1.29138462 C0.108,1.626 0.0424,2.03584615 0.0352,2.49876923 L0.0352,2.49876923 C0.028,2.93215385 0.1036,3.47907692 0.2048,4.00615385 L0.2048,4.00615385 C0.3464,4.74461538 0.5544,5.47707692 0.6368,5.766 L0.6368,5.766 C0.662,5.85507692 0.6604,5.87123077 0.6604,5.87123077 L0.6604,5.87123077 C0.6604,5.87123077 0.8124,5.87953846 0.9988,5.874 L0.9988,5.874 C1.3352,5.86338462 1.7832,5.808 1.6424,5.57815385 L1.6424,5.57815385 C1.5868,5.48861538 1.5204,5.38707692 1.4484,5.26107692 L1.4484,5.26107692 C1.0688,4.60061538 0.8588,3.756 0.7504,2.94830769 L0.7504,2.94830769 C0.5592,1.53276923 0.946,0.966 0.946,0.966 L0.946,0.966 L0.5764,0.358615385 C0.538,0.381692308 0.4472,0.533538462 0.35,0.785538462" id="Fill-312" mask="url(#mask-63)"></path>
                    </g>
                    <g id="Group-320" transform="translate(698.812017, 167.791276)">
                        <path d="M0.0296666667,2.5302 C0.0463333333,1.30158462 0.401333333,0.416815385 0.480333333,0.3582 C0.496,0.390046154 0.494666667,0.386815385 0.508666667,0.414969231 C0.416666667,0.518815385 0.0826666667,1.37312308 0.0666666667,2.56389231 C0.0516666667,3.65543077 0.491,5.48173846 0.585666667,5.87312308 C0.563666667,5.8722 0.550333333,5.87173846 0.550333333,5.87173846 C0.550333333,5.87173846 0.013,3.75881538 0.0296666667,2.5302" id="Fill-315" fill="#666970"></path>
                        <g id="Group-319">
                            <mask id="mask-65" fill="white">
                                <use xlink:href="#path-64"></use>
                            </mask>
                            <g id="Clip-318"></g>
                            <path d="M0.924666667,5.75169231 C0.924666667,5.75169231 0.427666667,3.98446154 0.348,3.03969231 C0.232,1.66753846 0.590333333,0.610153846 0.590333333,0.610153846 C0.578,0.532153846 0.564666667,0.456461538 0.551,0.383076923 C0.551,0.383076923 0.313,0.927692308 0.219666667,1.41507692 C0.123333333,1.91676923 0.056,2.74338462 0.158333333,3.47907692 C0.326333333,4.68553846 0.627,5.796 0.627,5.796 C0.735666667,5.81953846 0.877666667,5.76876923 0.924666667,5.75169231" id="Fill-317" mask="url(#mask-65)"></path>
                        </g>
                    </g>
                </g>
            </g>
        </g>
    </g>
</svg>