<?xml version="1.0" encoding="UTF-8"?>
<svg width="219px" height="219px" viewBox="0 0 219 219" version="1.1" xmlns="http://www.w3.org/2000/svg" xmlns:xlink="http://www.w3.org/1999/xlink">
    <title>Group 17</title>
    <defs>
        <polygon id="path-1" points="0.746614057 0.0418386242 147.240535 0.0418386242 147.240535 108 0.746614057 108"></polygon>
        <polygon id="path-3" points="0 0.317206645 36.8971472 0.317206645 36.8971472 37.7333512 0 37.7333512"></polygon>
    </defs>
    <g id="Patient-PBD-ZSD-Layout-(DSK)" stroke="none" stroke-width="1" fill="none" fill-rule="evenodd">
        <g id="1.0-Understanding-PBD-ZSD" transform="translate(-610.000000, -5376.000000)">
            <g id="Group-17" transform="translate(610.000000, 5376.000000)">
                <circle id="Oval-Copy" fill="#A05FA6" cx="109.5" cy="109.5" r="109.5"></circle>
                <g id="Group-7" transform="translate(33.000000, 48.000000)">
                    <g id="Group-3" transform="translate(4.959814, 14.000000)">
                        <mask id="mask-2" fill="white">
                            <use xlink:href="#path-1"></use>
                        </mask>
                        <g id="Clip-2"></g>
                        <path d="M121.848883,34.36505 C117.796578,39.7942118 114.715926,44.5693735 114.688578,44.6270794 C113.7121,46.1162118 112.595665,47.5059618 111.350535,48.7770941 C110.821274,49.3461382 110.074839,49.6667265 109.294622,49.6588585 C107.727752,49.6731382 106.445622,48.4180353 106.432644,46.8551676 C106.426317,46.1226235 106.70623,45.4157265 107.211361,44.88355 C108.191057,43.8624765 109.079057,42.75805 109.865709,41.5846971 C109.894665,41.5558441 113.091143,36.5819176 117.256057,30.9523882 C118.200361,29.6892706 119.995665,29.4279912 121.264926,30.3705206 C122.532578,31.31305 122.794796,33.1003294 121.848883,34.36505 M140.651317,9.40405 C130.606622,4.40127059 99.5089261,5.99299118 91.0359261,7.44205 C89.3242739,7.69852059 87.6962739,8.3413 86.2709696,9.31909412 C86.4994043,9.60281471 86.7278391,9.88653529 86.9562739,10.2007118 C88.9140565,12.8359471 90.4294478,15.7741382 91.4348826,18.8998735 C91.4927957,19.1258882 91.5780565,19.3823588 91.6359696,19.6660794 C95.1155783,30.6414176 98.5678391,46.8166971 95.4582304,62.0254029 C95.3424043,62.7355059 95.2024478,63.4183588 95.0303174,64.1284618 C94.6554913,65.6592706 94.1391,67.1548147 93.489187,68.5926529 C94.488187,68.7641676 95.5000565,68.8507265 96.5135348,68.8491454 C97.3629261,68.8459176 98.2123174,68.7898147 99.0520565,68.6776088 C110.008883,67.1980941 120.365665,56.9072118 124.302143,50.7663441 C130.064491,41.7546088 137.99697,31.7779029 140.965013,29.8159029 C144.821057,27.1678441 147.158491,22.8270794 147.240535,18.1609176 C146.894665,14.2289029 144.340057,10.8338735 140.651317,9.40405 M38.0551435,17.5918735 C33.8146217,18.2554912 29.7092304,19.6003588 25.8998391,21.5719765 C23.2760565,22.9360794 18.7668826,27.2864618 17.940013,41.1871676 C17.8547522,42.6811088 16.6176652,43.8528588 15.1151435,43.8592706 L14.9446217,43.8592706 C13.3713174,43.7598882 12.1728391,42.4134176 12.2629261,40.8457412 C13.204013,25.0118882 18.7668826,18.8710206 23.2760565,16.5403441 C27.6243609,14.2641676 32.3185348,12.7189324 37.1703609,11.9623441 C38.7324043,11.7331235 40.1850565,12.8086971 40.4151,14.3651529 C40.6435348,15.9023735 39.5930565,17.3370059 38.0551435,17.5918735 M15.572013,57.36405 L15.3435783,57.36405 C13.865187,57.3528294 12.6377522,56.2179471 12.5203174,54.74805 C12.4061,53.4689029 12.3208391,52.2186088 12.2629261,51.0244176 C12.1760565,49.4535353 13.3825783,48.1102706 14.9591,48.0237118 C16.534013,47.9387559 17.8821,49.1409618 17.9689696,50.7102412 C18.0252739,51.8771824 18.083187,53.0697706 18.1974043,54.2928147 C18.3084043,55.8572853 17.1404913,57.2245941 15.572013,57.36405 M85.9862304,20.6342559 C85.1770565,18.1048147 83.9624913,15.7244471 82.3907957,13.5829176 C79.9262739,10.2584176 76.6187957,7.64722647 72.8045783,6.02024118 C53.603187,-2.10987647 34.1170565,-1.93836176 17.9689696,6.47707941 C2.50457826,14.5206382 -2.57246522,35.7564029 2.84723043,69.5880794 C3.9314913,76.3524912 4.61679565,81.01705 5.15892609,84.7967853 C5.78631739,89.2032706 6.24318696,92.3867118 6.98479565,96.2818588 C8.06262174,101.938638 12.4543609,106.393212 18.1121435,107.568168 C19.309013,107.848682 20.5348391,107.991344 21.7638826,107.99455 C25.7695348,108.114771 29.5966217,106.343521 32.0917087,103.217785 C38.9946217,94.6003735 47.4161435,87.3085941 56.9412304,81.6966971 C60.490013,79.9623147 64.2784913,78.7649176 68.1827957,78.1445794 C75.771013,76.4679029 84.2456217,74.5908588 88.0984478,66.6579029 C88.7001,65.4364618 89.1585783,64.1476971 89.4658391,62.8220647 C89.609013,62.2241676 89.752187,61.6278735 89.8374478,61.0315794 C92.7475783,46.9866088 89.5237522,31.7779029 86.1294043,21.1455941 C86.094013,20.9724765 86.0457522,20.7993588 85.9862304,20.6342559" id="Fill-1" fill="#FFFFFF" mask="url(#mask-2)"></path>
                    </g>
                    <g id="Group-6" transform="translate(0.959814, 0.000000)">
                        <mask id="mask-4" fill="white">
                            <use xlink:href="#path-3"></use>
                        </mask>
                        <g id="Clip-5"></g>
                        <path d="M36.3869261,12.2113864 C36.6169696,12.4397702 36.7344043,12.7529823 36.7408391,13.1542854 L36.8971472,24.3663005 C36.9033174,24.7692348 36.7923174,25.0889722 36.5703174,25.3206187 C36.3467087,25.5538965 36.0362304,25.6729823 35.6404913,25.6778763 L25.7743609,25.8198005 C25.4912304,25.8246944 25.3512739,25.9715126 25.3561,26.2569924 L25.4944478,36.2602045 C25.5008826,36.6631389 25.3914913,36.9828763 25.1678826,37.2145227 C24.9442739,37.4478005 24.6337957,37.5668864 24.2380565,37.5734116 L13.1814913,37.7333512 C12.7841435,37.7365429 12.4704478,37.6272449 12.242013,37.4004924 C12.0103609,37.1753712 11.8929261,36.8588965 11.8881,36.4559621 L11.7481435,26.45275 C11.7433174,26.1672702 11.5985348,26.0237146 11.317013,26.0286086 L1.45088261,26.1705328 C1.05514348,26.1770581 0.73983913,26.0661288 0.511404348,25.8393763 C0.28136087,25.6142551 0.162317391,25.2977803 0.157491304,24.894846 L-0.000313824114,13.6828308 C-0.00498695652,13.2815278 0.104404348,12.965053 0.326404348,12.7301439 C0.550013043,12.4984975 0.8621,12.3794116 1.25783913,12.3728864 L11.1223609,12.2309621 C11.4054913,12.2260682 11.5470565,12.0808813 11.5422304,11.7921389 L11.4022739,1.78729545 C11.3958391,1.38599242 11.5052304,1.06788636 11.7288391,0.832977273 C11.9524478,0.601330808 12.2629261,0.482244949 12.6602739,0.47735101 L23.7168391,0.317206645 C24.1125783,0.310957071 24.4262739,0.420255051 24.6563174,0.647007576 C24.8863609,0.875391414 25.0037957,1.19023485 25.0102304,1.59153788 L25.150187,11.5963813 C25.155013,11.8851237 25.2965783,12.027048 25.5813174,12.022154 L35.4474478,11.8802298 C35.843187,11.8753359 36.1552739,11.9846338 36.3869261,12.2113864" id="Fill-4" fill="#0081A3" mask="url(#mask-4)"></path>
                    </g>
                </g>
            </g>
        </g>
    </g>
</svg>