<?xml version="1.0" encoding="UTF-8"?>
<svg width="816px" height="735px" viewBox="0 0 816 735" version="1.1" xmlns="http://www.w3.org/2000/svg" xmlns:xlink="http://www.w3.org/1999/xlink">
    <title>HERO_father_son_wheelchair</title>
    <defs>
        <polygon id="path-1" points="0.394109384 0.330321347 72.2200392 0.330321347 72.2200392 79.8574333 0.394109384 79.8574333"></polygon>
        <polygon id="path-3" points="0 0.325661969 104.002935 0.325661969 104.002935 350.261583 0 350.261583"></polygon>
        <polygon id="path-5" points="0 0.254481714 25.0057364 0.254481714 25.0057364 222.188239 0 222.188239"></polygon>
        <polygon id="path-7" points="0.0314423077 0.498274981 65.1226627 0.498274981 65.1226627 5.97662273 0.0314423077 5.97662273"></polygon>
        <polygon id="path-9" points="0 702 544.550671 702 544.550671 0.330321347 0 0.330321347"></polygon>
        <path d="M2.746125,0.8623125 C0.7115625,1.848375 -0.1288125,4.2823125 0.8685,6.298875 L0.8685,6.298875 C1.866375,8.316 4.323375,9.151875 6.3579375,8.1658125 L6.3579375,8.1658125 C8.3919375,7.1803125 9.232875,4.7458125 8.235,2.72925 L8.235,2.72925 C7.52175,1.287 6.0615,0.448875 4.543875,0.448875 L4.543875,0.448875 C3.9391875,0.448875 3.3255,0.581625 2.746125,0.8623125" id="path-11"></path>
        <linearGradient x1="94.4215951%" y1="28.4497757%" x2="5.54295504%" y2="71.5651752%" id="linearGradient-13">
            <stop stop-color="#C39975" offset="0%"></stop>
            <stop stop-color="#E8C3A3" offset="100%"></stop>
        </linearGradient>
        <path d="M2.049375,0.533125 L0.688125,1.235 C0.48375,1.340625 0.435,1.61 0.591875,1.779375 L0.591875,1.779375 L3.05875,4.4575 C3.214375,4.626875 3.489375,4.60375 3.614375,4.41125 L3.614375,4.41125 L4.444375,3.131875 C4.530625,2.999375 4.515625,2.825625 4.4075,2.70875 L4.4075,2.70875 L2.471875,0.6075 C2.40375,0.533125 2.30875,0.49375 2.211875,0.49375 L2.211875,0.49375 C2.156875,0.49375 2.10125,0.506875 2.049375,0.533125" id="path-14"></path>
        <linearGradient x1="40.9717018%" y1="-14.9061591%" x2="56.7273083%" y2="86.0371806%" id="linearGradient-16">
            <stop stop-color="#E8B58A" offset="0%"></stop>
            <stop stop-color="#DBAA83" offset="100%"></stop>
        </linearGradient>
        <path d="M0.187333333,1.38857143 C-0.157333333,2.18857143 0.327333333,3.07542857 1.27,3.36857143 L1.27,3.36857143 C2.212,3.66228571 3.256,3.25142857 3.60066667,2.45142857 L3.60066667,2.45142857 C3.94533333,1.65142857 3.46,0.765142857 2.518,0.471428571 L2.518,0.471428571 C2.31133333,0.406857143 2.09933333,0.376571429 1.89133333,0.376571429 L1.89133333,0.376571429 C1.15133333,0.376571429 0.456,0.763428571 0.187333333,1.38857143" id="path-17"></path>
        <linearGradient x1="33.0928556%" y1="83.5842758%" x2="66.9101842%" y2="16.3815236%" id="linearGradient-19">
            <stop stop-color="#C69064" offset="0%"></stop>
            <stop stop-color="#E8B88E" offset="100%"></stop>
        </linearGradient>
        <path d="M1.172,0.7 C1.00266667,0.777333333 0.846666667,0.882 0.710666667,1.01066667 L0.710666667,1.01066667 C0.184666667,1.50666667 0.0346666667,2.30133333 0.34,2.95266667 L0.34,2.95266667 C0.485333333,3.26266667 0.723333333,3.52866667 1.034,3.70733333 L1.034,3.70733333 C1.51466667,3.98333333 2.112,4.01133333 2.61533333,3.78 L2.61533333,3.78 C3.27333333,3.478 3.676,2.77533333 3.59733333,2.06 L3.59733333,2.06 C3.57733333,1.874 3.526,1.694 3.44733333,1.52666667 L3.44733333,1.52666667 C3.21333333,1.02733333 2.73933333,0.666 2.192,0.568666667 L2.192,0.568666667 C2.092,0.550666667 1.99133333,0.542 1.892,0.542 L1.892,0.542 C1.64133333,0.542 1.39533333,0.597333333 1.172,0.7" id="path-20"></path>
        <path d="M0.406,0.668 C0.401,0.67 0.401,0.67 0.3965,0.672 L0.3965,0.672 L0.487,1.07333333 C0.52,1.218 0.553,1.362 0.585,1.506 L0.585,1.506 L0.595,1.50266667 C0.632,1.486 0.674,1.468 0.711,1.45066667 L0.711,1.45066667 C0.6785,1.30666667 0.646,1.162 0.613,1.018 L0.613,1.018 L0.5225,0.616666667 C0.4855,0.634 0.4435,0.652 0.406,0.668" id="path-22"></path>
        <path d="M0.5175,0.693333333 C0.513,0.695333333 0.513,0.695333333 0.508,0.696 L0.508,0.696 C0.533,0.832 0.558,0.967333333 0.5835,1.10333333 L0.5835,1.10333333 C0.6105,1.24933333 0.638,1.396 0.665,1.542 L0.665,1.542 C0.67,1.54066667 0.67,1.54066667 0.675,1.53933333 L0.675,1.53933333 C0.713,1.528 0.7565,1.51533333 0.794,1.504 L0.794,1.504 C0.767,1.35733333 0.74,1.21133333 0.713,1.06533333 L0.713,1.06533333 C0.688,0.93 0.6625,0.793333333 0.6375,0.658666667 L0.6375,0.658666667 C0.599,0.669333333 0.556,0.682666667 0.5175,0.693333333" id="path-24"></path>
        <path d="M0.941142857,1.05564706 C0.84,1.27429412 0.736,1.54111765 0.645714286,1.84870588 L0.645714286,1.84870588 C0.490857143,2.37176471 0.373714286,3.01182353 0.370285714,3.73447059 L0.370285714,3.73447059 C0.366285714,4.41 0.525714286,5.26076471 0.734285714,6.07976471 L0.734285714,6.07976471 C1.02628571,7.227 1.44685714,8.36364706 1.61371429,8.81152941 L1.61371429,8.81152941 C1.66571429,8.95023529 1.66228571,8.97617647 1.66228571,8.97617647 L1.66228571,8.97617647 C1.66228571,8.97617647 1.95828571,8.98464706 2.31942857,8.97141176 L2.31942857,8.97141176 C2.97257143,8.94652941 3.84057143,8.84858824 3.56114286,8.49441176 L3.56114286,8.49441176 C3.452,8.35517647 3.32114286,8.19952941 3.17771429,8.00470588 L3.17771429,8.00470588 C2.42514286,6.98452941 1.99885714,5.67317647 1.76914286,4.41741176 L1.76914286,4.41741176 C1.36571429,2.21505882 2.10342857,1.32247059 2.10342857,1.32247059 L2.10342857,1.32247059 L1.37028571,0.384352941 C1.29771429,0.421941176 1.124,0.660176471 0.941142857,1.05564706" id="path-26"></path>
        <path d="M1.43413333,0.430164619 C1.4656,0.547186732 1.49546667,0.667459459 1.5248,0.792066339 C1.5248,0.792066339 0.768,2.48888698 1.05013333,4.67438329 C1.24426667,6.17887592 2.3632,8.98253071 2.3632,8.98253071 C2.2608,9.01124447 1.9536,9.09684398 1.71626667,9.06271253 C1.71626667,9.06271253 1.0384,7.30087961 0.646933333,5.38139189 C0.408533333,4.21062899 0.5376,2.89033784 0.735466667,2.08743612" id="path-28"></path>
    </defs>
    <g id="Patient-PBD-ZSD-Layout-(DSK)" stroke="none" stroke-width="1" fill="none" fill-rule="evenodd">
        <g id="1.0-Understanding-PBD-ZSD" transform="translate(-610.000000, -186.000000)">
            <g id="HERO_father_son_wheelchair" transform="translate(610.000000, 186.000000)">
                <rect id="Rectangle" x="0" y="0" width="816" height="735"></rect>
                <g id="Group-230" transform="translate(273.000000, 351.000000) scale(-1, 1) translate(-273.000000, -351.000000) ">
                    <g id="Group-175">
                        <path d="M413.195405,519.940624 C403.561159,516.317831 320.438985,520.806979 304.914547,519.940624 C297.841371,519.566797 290.137737,518.464114 283.833151,516.574032 C276.287535,514.310122 270.711766,510.942993 270.495163,506.277136 C269.569093,487.435392 279.932693,473.92874 292.876712,465.325346 C301.624123,459.517061 311.55398,455.934015 320.00578,454.476841 C325.87716,453.453113 331.058423,453.453113 334.585336,454.437632 C338.072476,455.402278 344.278704,456.799833 351.942565,458.395043 C379.721978,464.261872 426.632288,473.14134 431.833437,476.488596 C438.492757,480.780625 422.849,523.582752 413.195405,519.940624" id="Fill-1" fill="#6C4472"></path>
                        <path d="M496.496451,607.238755 C496.496451,607.238755 489.817783,613.381658 487.019686,614.779212 C483.828157,616.373886 475.632196,620.666452 473.8983,617.771978 C440.838729,562.920372 429.431353,548.036039 423.973828,528.130821 C423.658867,526.94972 423.087531,525.965739 422.39795,525.157929 C422.299592,525.039765 422.181348,524.922138 422.063103,524.803974 C418.950046,521.555546 413.433936,520.865899 411.306071,518.345789 C411.246949,518.267372 411.187827,518.20829 411.148054,518.168544 C405.375569,511.415486 399.031747,510.529795 399.031747,510.529795 L430.486417,475.839609 C439.354222,478.526222 445.62656,482.611465 448.522477,486.94324 C451.399045,491.254605 496.496451,607.238755 496.496451,607.238755" id="Fill-3" fill="#6C4472"></path>
                        <path d="M409.222065,447.396739 C397.416956,435.894036 370.241128,404.770783 360.580008,395.116806 C353.055354,387.597833 330.240063,401.329533 334.280265,408.329123 C338.320467,415.328176 349.395146,422.444855 403.650058,457.509943 C408.362104,460.555345 412.282987,450.378762 409.222065,447.396739" id="Fill-5" fill="#F7A489"></path>
                        <path d="M449.184431,484.837938 C449.37201,483.929152 447.195773,478.682682 446.309476,477.303389 C445.422642,475.924096 442.813736,471.412927 442.046759,470.437002 C441.279244,469.461614 436.818736,463.90953 435.200935,462.62799 C433.583672,461.346988 431.870738,464.340827 431.870738,464.340827 C431.870738,464.340827 444.300393,481.513778 445.363519,482.930131 C446.427183,484.347022 448.949555,485.977144 449.184431,484.837938" id="Fill-7" fill="#F7A489"></path>
                        <path d="M433.109511,464.623239 C434.438688,466.41503 439.361425,471.447194 440.235897,472.685228 C441.110369,473.923799 444.783476,479.37974 445.186045,480.549024 C445.589151,481.718308 447.703579,488.092167 447.565448,488.683523 C447.427855,489.274879 445.825103,489.027809 444.563111,487.835967 C443.301119,486.643587 442.447071,482.868793 441.985379,482.269381 C441.524225,481.669968 439.073338,478.455915 437.522721,476.830626 C435.972643,475.205338 428.252884,466.591202 428.252884,466.591202 C428.252884,466.591202 431.717988,462.747121 433.109511,464.623239" id="Fill-9" fill="#F7A489"></path>
                        <path d="M429.301284,466.176071 C430.322487,467.203021 434.395475,471.754474 435.440864,473.090798 C436.486254,474.426585 439.254252,478.023597 440.248044,480.268708 C441.241298,482.513819 442.40547,486.801014 442.000214,487.507848 C441.595495,488.214682 439.669183,486.776307 438.516298,485.04306 C437.363414,483.309813 437.33654,481.484183 436.14657,480.400299 C434.956599,479.316953 433.700519,477.432241 431.978986,475.734443 C430.257452,474.036108 424.226441,468.545254 424.226441,468.545254 C424.226441,468.545254 427.657146,464.52339 429.301284,466.176071" id="Fill-11" fill="#F7A489"></path>
                        <path d="M396.073321,452.134191 C400.89985,454.712309 403.215294,456.98159 405.408193,458.773919 C407.600555,460.566248 409.596739,463.753983 412.313139,465.510863 C415.029539,467.267743 416.220047,467.648015 417.919544,468.721157 C419.618504,469.794836 422.376827,472.179594 425.093228,473.936474 C427.809091,475.692817 430.490018,480.144367 432.225526,482.294947 C433.961034,484.445527 435.000511,484.739325 435.471339,484.707636 C435.942705,484.675409 434.869904,480.842607 433.556315,478.833287 C432.242725,476.823966 430.507754,474.322118 429.269949,472.707572 C428.031606,471.093562 426.939993,469.487073 425.560294,468.382779 C424.180595,467.279022 436.867163,464.286257 435.200989,462.628205 C433.535353,460.970153 429.087207,458.724505 426.490126,456.934862 C423.893045,455.145755 417.994253,452.270617 414.703292,450.989614 C411.41233,449.708075 408.117069,445.978935 404.360654,442.474843 C402.137656,440.400533 393.897621,450.97189 396.073321,452.134191" id="Fill-13" fill="#F7A489"></path>
                        <path d="M124.691324,122.524835 C118.45016,135.899895 164.298957,231.131271 173.218898,244.988117 C182.138301,258.844963 201.549761,224.468985 198.023923,211.683669 C194.498622,198.898353 175.903587,140.002325 167.701176,126.822235 C156.862448,109.406512 135.315062,99.7589803 124.691324,122.524835" id="Fill-15" fill="#F1DDD4"></path>
                        <path d="M125.671786,135.022046 C123.732038,135.617162 121.418207,135.719212 118.831875,135.430248 C102.958078,133.746952 77.6408397,117.781957 75.1910271,114.619466 C72.3499324,110.930072 84.5484729,103.27897 85.9609581,101.578487 C87.2541238,100.048267 93.0894936,86.0216943 91.1330833,76.670109 C90.9288427,75.6501411 90.6230192,74.6978488 90.214538,73.8137692 C86.5392816,65.8737034 97.0200508,53.1222252 102.702778,50.860464 C108.368305,48.5820523 131.626476,71.5353576 131.048152,72.1132857 C130.928833,72.2325236 130.758991,73.1337907 130.554213,74.5109353 C129.942028,78.7782574 129.074543,87.738291 128.240919,93.1453561 C128.189858,93.5191832 128.121599,93.876897 128.070539,94.2163492 C126.947753,101.017209 130.77619,106.118123 133.889247,107.529105 C137.002842,108.940625 139.555312,130.771374 125.671786,135.022046" id="Fill-17" fill="#F7A489"></path>
                        <path d="M134.518899,115.35047 C133.191873,117.339918 123.510867,131.570591 118.832144,135.430248 C102.95781,133.746952 77.6411085,117.781957 75.1912959,114.619466 C72.3502012,110.930072 84.5487416,103.27897 85.9612268,101.578487 C87.2543925,100.048267 93.0897623,86.0216943 91.1333521,76.670109 L94.4678491,76.9929108 C92.0518974,85.6473301 89.7891262,97.7360171 89.6526075,100.966184 C89.4999645,104.196888 106.088604,122.202355 117.011715,123.749763 C126.981345,125.177396 133.463835,116.812478 134.518899,115.35047" id="Fill-19" fill="#E59883"></path>
                        <path d="M130.554481,74.5108816 C129.942297,78.7782037 129.074812,87.7382373 128.24065,93.1453024 C122.473002,90.4420384 119.427129,87.4836482 115.139688,77.928499 L130.554481,74.5108816 Z" id="Fill-21" fill="#E59883"></path>
                        <path d="M139.491084,16.2398865 C143.328658,23.9452361 147.04315,30.2020058 147.231804,34.5413004 C147.420458,38.880595 146.854496,41.7111535 148.364802,43.9750632 C149.875107,46.23951 156.860675,53.2203011 156.860675,55.106624 C156.860675,56.993484 150.63026,60.767204 150.063761,61.7103654 C149.4978,62.654064 149.308608,76.4271213 149.4978,81.5210525 C149.686454,86.6155207 137.088032,88.5689821 130.19706,86.7073662 C123.306626,84.8457503 118.156,82.2762262 115.135389,77.9363945 C112.11424,73.5970999 107.016823,62.9586041 105.506518,56.2968551 C103.995675,49.635106 133.994861,5.20393083 139.491084,16.2398865" id="Fill-23" fill="#F7A489"></path>
                        <g id="Group-27" transform="translate(70.946746, 0.000000)">
                            <mask id="mask-2" fill="white">
                                <use xlink:href="#path-1"></use>
                            </mask>
                            <g id="Clip-26"></g>
                            <path d="M72.1979882,14.1184715 C71.7900444,19.1850101 68.353427,19.5932121 62.6701627,20.8006306 C59.3528649,21.514447 57.4131164,27.4822526 55.7625296,32.9569933 C55.5588264,33.6369718 55.3712475,34.3003001 55.1670069,34.9464409 C55.1503452,35.0484914 55.099285,35.1671922 55.0654241,35.2864301 C54.1635404,38.2448204 53.2955178,40.7950086 52.2748521,41.8665388 C49.1612574,45.113893 49.8927613,48.7522618 50.097002,52.2037171 C50.3012426,55.638522 45.4349408,64.1565158 40.3821351,66.9790178 C40.3821351,66.9790178 37.5410404,67.3866826 32.6070168,66.9790178 C30.5990089,66.825942 29.0849408,68.7133391 27.8256361,71.0932641 C26.0052071,74.528069 24.7120414,78.9484669 23.1469132,79.5435824 C20.5100592,80.5635503 16.2559418,79.3394814 13.2106065,72.2496574 C10.1647337,65.1592963 2.6793146,52.5947316 1.45387081,46.7289764 C0.246163708,40.8465709 -2.59546844,29.3019741 11.7986588,13.0985036 C13.3981854,11.2959695 15.1164941,9.7319114 16.8858629,8.37195425 L16.9025247,8.35476679 C31.0585503,-2.47601362 49.7229191,0.0236864575 58.0086391,2.36977368 C59.9311884,2.91386396 61.6661588,3.5089795 63.2318245,4.17230773 C63.2318245,4.17230773 63.2490237,4.17230773 63.2656854,4.18949518 C69.2719724,6.72249594 72.5215483,10.1057385 72.1979882,14.1184715" id="Fill-25" fill="#242C45" mask="url(#mask-2)"></path>
                        </g>
                        <path d="M113.815833,62.9680572 C113.59923,55.6327749 109.969659,50.5098399 106.321277,49.8346953 C102.672894,49.1595507 96.5913605,51.3197986 97.5373171,59.0176288 C98.4832737,66.7149218 104.159013,75.3569876 109.158609,76.1674834 C114.158742,76.9774421 113.994275,69.0105209 113.815833,62.9680572" id="Fill-28" fill="#F7A489"></path>
                        <path d="M298.679295,201.534801 C306.036258,201.924741 314.991672,201.630406 319.842387,200.740418 C324.693102,199.85043 335.621051,197.685886 339.626855,199.257463 C342.073442,200.217275 343.978792,200.444472 344.889813,201.733531 C346.277037,203.698271 342.467949,204.934156 341.84179,206.587912 C340.695893,209.612366 336.77716,210.572178 333.083092,211.313387 C329.194458,212.09273 314.346702,221.064043 298.717994,216.694671 C283.089286,212.325298 277.830089,212.341948 279.33287,208.357682 C280.836189,204.373416 287.526682,199.831632 298.679295,201.534801" id="Fill-30" fill="#EF9F84"></path>
                        <path d="M266.227878,210.725415 C271.467725,205.462295 274.348593,200.749173 279.535767,198.090489 C284.722942,195.431268 293.329535,192.967554 296.019599,193.274243 C298.709125,193.580931 316.896216,189.879721 318.735994,190.054281 C320.575235,190.229378 319.186936,191.971219 316.874179,194.377462 C314.560886,196.784243 300.742932,201.2084 297.907212,203.840229 C295.07203,206.472594 287.856961,206.499987 287.630683,207.913655 C287.403869,209.32786 266.227878,210.725415 266.227878,210.725415" id="Fill-32" fill="#EF9F84"></path>
                        <path d="M277.24064,225.721413 C282.396641,223.555794 281.114762,220.604923 292.070122,221.839734 C303.026557,223.074008 306.02782,223.514437 311.648737,222.318297 C317.269654,221.121621 332.315201,214.836385 335.525004,212.815785 C338.735882,210.795185 334.317834,208.70315 326.658273,211.670134 C318.998712,214.637118 313.629871,215.763433 310.431355,213.963047 C307.232839,212.162125 291.767524,211.80817 287.630576,207.913601 C284.22782,204.710827 266.22777,210.725361 266.22777,210.725361 L277.24064,225.721413" id="Fill-34" fill="#EF9F84"></path>
                        <path d="M174.020704,246.068563 C180.666586,256.385869 188.805038,255.570002 203.767277,255.018392 C218.730053,254.466245 272.187888,231.09883 275.498199,230.213676 C278.807972,229.329059 278.207612,197.359861 273.828263,197.83735 C268.906064,198.373921 219.476606,215.291208 198.386073,213.930713 C177.296078,212.569682 174.020704,246.068563 174.020704,246.068563" id="Fill-36" fill="#F1DDD4"></path>
                        <path d="M100.342992,621.359375 C101.227139,628.421269 102.79603,647.12444 101.741503,651.718323 C100.686439,656.312207 104.613234,665.08855 114.8774,664.027225 C125.14103,662.9659 130.362603,657.977242 127.896128,653.817341 C125.429116,649.657441 122.911044,644.200424 123.098086,641.10722 C123.285665,638.012942 124.914215,621.810008 125.007736,620.263138 C125.101256,618.716267 99.986646,618.516463 100.342992,621.359375" id="Fill-38" fill="#F7A489"></path>
                        <path d="M94.4504887,682.32794 C93.8528161,685.785304 91.9340291,689.679873 101.737579,690.27284 C111.54113,690.86527 118.78361,688.845207 121.477436,689.2663 C124.170188,689.688467 152.553186,693.47454 162.164857,690.821227 C171.776529,688.167914 171.358373,685.38301 171.565176,683.109432 C171.771154,680.835855 94.4504887,682.32794 94.4504887,682.32794" id="Fill-40" fill="#1E253A"></path>
                        <path d="M101.741288,651.71827 C97.1480237,648.465007 97.6811992,665.31623 96.5444389,669.128622 C95.407141,672.941551 94.4816085,681.812424 94.3951867,683.230389 C94.3101538,684.648354 107.107979,687.104011 116.148852,685.321887 C125.189725,683.539763 134.674552,689.398536 148.456495,688.430131 C162.238438,687.461725 171.271786,685.808507 171.56471,683.10954 C171.857634,680.410036 173.338916,679.464726 162.866747,674.950334 C152.394577,670.435942 137.173813,660.976398 134.571357,657.972891 C131.968901,654.969384 129.59756,651.084482 126.834937,651.947078 C124.072851,652.809673 116.705139,656.89223 114.160193,658.291396 C111.616322,659.690025 103.685336,653.094877 101.741288,651.71827" id="Fill-42" fill="#7A9C49"></path>
                        <path d="M141.086149,436.89875 C141.528492,451.725076 135.658723,623.822498 135.658723,623.822498 C135.658723,623.822498 132.340888,628.600609 129.958797,629.977754 C128.955331,630.555145 125.705217,630.810808 121.877318,631.082585 C116.603072,631.456412 110.239902,631.847427 107.347747,633.10587 C102.362663,635.265044 88.2576977,629.008274 88.5301977,624.961704 C88.8021603,620.915133 86.2668891,574.022392 83.6133733,540.05193 C80.9587825,506.081468 85.6208437,447.559267 84.7872194,435.929808 C84.4464601,431.203258 82.2691474,411.106293 80.0058388,386.775843 C76.6713417,351.393861 73.1320666,307.069033 74.6971948,287.974848 C75.3271159,280.324284 144.506105,276.328738 144.472257,287.94101 C144.438383,299.536632 140.660469,422.072961 141.086149,436.89875" id="Fill-44" fill="#0081A3"></path>
                        <path d="M121.877211,631.08237 C116.602965,631.456734 110.239794,631.847749 107.34764,633.105656 C102.362556,635.264829 88.2581277,629.00806 88.5300902,624.961489 C88.8020528,620.914918 86.267319,574.022714 83.6132658,540.051715 C80.9592125,506.081253 85.6207362,447.55959 84.7871119,435.929593 C84.4463526,431.203043 82.2690399,411.106078 80.0062687,386.776165 C85.9270971,385.568747 89.7549965,384.871581 89.7549965,384.871581 C89.3637145,407.977962 90.6912786,426.119317 89.7549965,444.821951 C88.8020528,463.524584 85.4503565,521.893172 89.6700754,534.356223 C93.9064561,546.835925 96.5266484,604.286595 98.0412539,615.236076 C99.5719837,626.168907 119.631639,632.527727 121.231165,630.198291 C121.536989,629.7396 121.809489,630.130615 121.877211,631.08237" id="Fill-46" fill="#035D72"></path>
                        <path d="M10.3725754,611.711843 C10.8552283,625.268446 12.3107115,638.9604 10.3725754,648.904415 C8.43443935,658.848431 14.8959679,664.788844 21.8740104,665.305542 C28.8525902,665.822239 31.1782461,661.043591 32.2123486,652.649669 C33.2464512,644.255209 37.2522549,615.327653 37.6397747,613.00305 C38.0278319,610.678985 10.2392816,607.967127 10.3725754,611.711843" id="Fill-48" fill="#F7A489"></path>
                        <g id="Group-52" transform="translate(0.000000, 288.426932)">
                            <mask id="mask-4" fill="white">
                                <use xlink:href="#path-3"></use>
                            </mask>
                            <g id="Clip-51"></g>
                            <path d="M103.978852,13.5921594 L103.978852,13.6431847 C103.620893,16.0913224 102.344927,23.5388603 100.576095,33.893226 C94.0086839,71.9102589 80.4992411,148.982017 79.1555528,160.560452 C77.4539058,175.301915 46.8285607,344.763748 46.8285607,344.763748 C46.8285607,344.763748 42.8641425,349.01442 40.3122096,350.017737 C37.7602766,351.037705 22.7373033,348.436492 17.4797194,349.864661 C17.1222983,349.949524 16.7143545,350.00055 16.2886741,350.017737 C10.5038269,350.153625 -0.75950641,342.792025 0.0402569034,339.084906 C0.891080375,335.123736 5.14466026,288.36742 7.42463067,254.362583 C9.6868644,220.357746 22.7373033,163.11064 23.5881267,151.498368 C23.7918299,148.60819 24.149251,139.936583 24.6937135,128.085835 C24.7447737,126.572802 24.813033,125.042582 24.8974167,123.478524 C26.1911198,95.1525282 28.3684324,52.3235458 31.7206662,23.9298748 C32.6220123,16.1767226 33.6260163,9.49510054 34.7321405,4.49570038 C34.7826632,4.20673634 34.8509226,3.9177723 34.919182,3.62880826 C36.6546898,-3.83537995 105.476258,2.14961316 103.978852,13.5921594" id="Fill-50" fill="#0081A3" mask="url(#mask-4)"></path>
                        </g>
                        <path d="M143.144734,313.155647 C142.46429,320.772911 120.839507,322.965923 105.595094,322.319782 C103.910646,322.252106 102.243397,322.252106 100.576149,322.319782 C87.1516272,322.761822 73.6884073,323.187211 61.5742505,323.816164 C47.9632249,324.513331 42.575572,308.388815 31.7207199,312.356431 C32.6220661,304.603279 33.62607,297.921656 34.7321943,292.922793 C40.1424211,293.058682 44.2766815,293.212295 44.2766815,293.212295 C44.2766815,293.212295 76.3483728,297.190653 103.978905,302.019252 C124.990966,305.691996 143.434433,309.857268 143.144734,313.155647" id="Fill-53" fill="#035D72"></path>
                        <path d="M147.789918,310.146232 C148.06833,313.452668 129.21047,319.701918 109.389455,315.247145 C90.503646,310.996474 56.8329655,320.092933 53.9236114,313.546662 C51.7796223,308.735249 43.0005,307.391943 36.8071716,306.065823 C33.1496519,305.300982 30.3934783,304.535603 30.3934783,303.056408 C30.3934783,299.0947 51.0825168,257.439298 44.8553274,222.006292 C42.2523343,207.197153 39.1897998,188.171718 37.5053521,170.369814 C35.1576598,145.597324 35.4978817,123.222484 43.4261805,118.087733 C65.595426,103.721171 83.8513136,99.1643481 85.9609043,101.578648 C107.364785,125.942936 118.168577,125.993961 124.106067,124.395528 C131.201279,122.474293 132.329977,106.249338 131.156131,105.433471 C129.981748,104.600417 159.815392,111.492048 159.700169,118.01952 C158.270687,198.701181 144.469395,270.683842 147.789918,310.146232" id="Fill-55" fill="#FAE9E0"></path>
                        <path d="M60.8653205,224.79458 C60.43964,232.428494 35.2933185,296.81645 36.8073866,306.065447 C33.1498669,305.300606 30.3936933,304.535227 30.3936933,303.056032 C30.3936933,299.094861 51.0821943,257.438922 44.8555424,222.006453 C42.2520118,207.196777 39.1894773,188.171342 37.5050296,170.369975 C43.1028353,160.100473 46.8286144,153.656789 46.8286144,153.656789 L67.9771943,169.621784 C66.8205473,187.797515 61.291001,217.143478 60.8653205,224.79458" id="Fill-57" fill="#FFF5F1"></path>
                        <path d="M43.4260192,118.087948 C31.6579965,125.668151 3.09601923,239.735363 1.18206953,256.100503 C-0.731880178,272.465106 36.1787017,250.843828 41.5787165,238.72936 C46.9792687,226.615429 70.036961,169.31676 72.0745301,153.930231 C74.767819,133.598549 64.554175,104.478708 43.4260192,118.087948" id="Fill-59" fill="#FAE9E0"></path>
                        <path d="M43.5226036,690.73572 C43.1813067,693.060323 42.3906805,695.663685 42.1423669,696.113244 C41.7704339,696.841562 39.1652909,701.800679 22.8201282,700.948289 C6.47496548,700.095899 4.80019231,694.641031 4.05578895,692.332004 C3.93163215,691.929174 3.96280572,690.332889 4.10254931,688.179086 C4.45889546,682.584571 5.46666174,673.224392 5.90094181,671.11678 C6.49055227,668.203507 5.2188856,666.31235 5.482786,663.740141 C5.74614892,661.167931 10.7704684,649.405806 10.7704684,649.405806 C10.7704684,649.405806 11.0499556,654.767753 12.8327613,651.807752 C14.616642,648.863327 20.8658679,647.112355 25.5032051,648.553415 C32.2485207,650.661027 31.271928,656.90598 31.7680178,655.418728 C32.2641075,653.930402 33.4578402,652.938901 33.768501,655.991822 C34.0786243,659.044744 42.7626134,685.498381 43.5070168,687.435192 C43.7703797,688.147934 43.7241568,689.387579 43.5226036,690.73572" id="Fill-61" fill="#7A9C49"></path>
                        <path d="M43.5226036,690.73572 C43.1813067,693.060323 42.3906805,695.663685 42.1423669,696.113244 C41.7704339,696.841562 39.1652909,701.800679 22.8201282,700.948289 C6.47496548,700.095899 4.80019231,694.641031 4.05578895,692.332004 C3.93163215,691.929174 3.96280572,690.332889 4.10254931,688.179086 C5.23447239,691.402271 14.6940385,695.260854 23.8278945,695.648108 C32.9929241,696.0359 40.080074,694.749527 43.5070168,690.751296 L43.5226036,690.73572 Z" id="Fill-63" fill="#1E253A"></path>
                        <g id="Group-67" transform="translate(0.000000, 416.258607)">
                            <mask id="mask-6" fill="white">
                                <use xlink:href="#path-5"></use>
                            </mask>
                            <g id="Clip-66"></g>
                            <path d="M10.0277313,165.993083 C8.8366859,181.006323 11.3042352,198.722826 7.69670069,205.948538 C4.10690286,213.140413 10.0615922,221.778182 16.2887816,222.188239 C10.5039344,222.322272 -0.759398915,214.960134 0.0403643984,211.253553 C0.89118787,207.291845 5.14476775,160.53553 7.42473817,126.530693 C9.68697189,92.526393 22.7368733,35.2792866 23.5876967,23.6664771 C23.7919374,20.7762996 24.148821,12.10523 24.693821,0.254481714 C23.6731553,29.0219798 28.2325587,45.9736416 19.6066169,72.0212254 C10.5377954,99.4459538 11.2187766,150.979844 10.0277313,165.993083" id="Fill-65" fill="#035D72" mask="url(#mask-6)"></path>
                        </g>
                        <path d="M143.144734,14.1184715 C142.73679,19.1850101 139.300173,19.5932121 133.616908,20.8006306 C130.29961,21.514447 128.359862,27.4822526 126.709275,32.9569933 C128.955385,24.506675 127.168817,18.7939956 130.554374,17.7912151 C134.246292,16.7196849 141.290444,16.8727607 140.405759,12.0269734 C140.014477,9.85114935 137.870488,6.75633374 134.212431,4.18949518 C140.218718,6.72249594 143.468294,10.1057385 143.144734,14.1184715" id="Fill-68" fill="#1A2133"></path>
                        <path d="M98.7725966,71.0933715 C96.9521677,74.5281764 95.659002,78.9485743 94.0938738,79.5431527 C91.4564822,80.5636577 87.2029024,79.3395888 84.1575671,72.2497648 C81.1116943,65.1594037 73.6257377,52.594839 72.4008314,46.7290839 C71.1931243,40.8466783 68.3514921,29.3015445 82.7450819,13.0980739 C84.3446085,11.296077 86.0634546,9.73201882 87.8328235,8.37206167 C82.67736,14.5267809 72.4862899,25.3059989 78.3044606,39.0269568 C84.1231686,52.7645651 84.8213491,69.4949385 95.7439231,70.4810686 C96.8839083,70.5836562 97.8879122,70.78722 98.7725966,71.0933715" id="Fill-70" fill="#1A2133"></path>
                        <path d="M360.145137,393.155127 C363.053416,391.6335 330.252371,357.013675 310.938732,329.084602 C306.547021,322.734376 282.404703,323.884323 278.93315,343.840567 C277.804989,350.326682 287.64025,361.53666 298.475753,377.387251 C303.823096,385.210227 323.359787,400.404472 327.955739,406.936241 C334.566685,416.332406 340.949205,415.085779 341.10776,414.704432 C346.484126,401.777857 350.708682,398.091685 360.145137,393.155127" id="Fill-72" fill="#667F3B"></path>
                        <path d="M272.248784,331.12964 C273.115732,324.51462 277.390811,310.811386 269.687177,294.115388 C264.584923,283.090174 261.471866,276.710944 261.294499,276.317244 L294.452965,296.773535 L310.431033,299.07719 C309.524849,299.903799 308.67725,300.651991 307.889312,301.301891 C303.751826,304.825856 301.249879,306.558566 301.683084,309.176967 C301.841102,310.141613 301.978695,311.244295 302.136176,312.425395 C302.924114,318.23368 305.798533,326.228531 309.741989,328.620809 C317.690175,333.444038 271.401185,337.784407 272.248784,331.12964" id="Fill-74" fill="#F7A489"></path>
                        <path d="M301.683191,309.176913 C301.840672,310.141559 301.978803,311.244241 302.136283,312.425342 L301.978803,312.563378 C301.978803,312.563378 295.595208,306.322185 292.521924,302.227274 L307.889419,301.301837 C303.751934,304.825802 301.249449,306.558512 301.683191,309.176913" id="Fill-76" fill="#E59883"></path>
                        <path d="M301.664272,247.834091 C306.150041,252.437105 310.399859,257.629864 310.896486,259.971118 C311.392576,262.312371 311.241008,267.139359 313.611812,269.084227 C315.982615,271.028557 318.691491,273.038415 321.700278,275.067072 C322.524228,275.622441 319.310663,279.277997 319.223054,280.2507 C319.135446,281.223402 322.990219,294.586646 322.41727,296.358028 C321.223,300.04957 303.726028,306.57758 298.652798,305.339546 C293.580106,304.101512 280.224381,293.241728 280.224381,293.241728 C280.224381,293.241728 260.389391,276.242264 270.593897,258.326493 C280.798942,240.410723 299.622403,245.738833 301.664272,247.834091" id="Fill-78" fill="#F7A489"></path>
                        <path d="M290.906381,279.861243 C292.049053,285.983736 279.026026,298.191123 273.706632,300.474906 C272.623082,300.966897 271.854492,301.006643 271.598654,300.514652 C269.983003,297.324768 256.686938,292.29529 254.51715,286.397846 C253.397589,283.35513 250.773634,275.58855 253.551844,263.027745 C256.053792,251.549212 269.7664,240.563208 279.065261,241.291526 C280.523432,241.410227 282.020838,241.527853 283.538131,241.685226 L283.55748,241.685226 C291.45783,242.492499 299.575321,243.969009 301.663412,247.828129 C303.692919,251.569085 295.417949,261.47228 289.468097,263.893563 C283.518245,266.335255 289.507332,272.498031 290.906381,279.861243" id="Fill-80" fill="#242C45"></path>
                        <path d="M271.697119,299.431359 C272.445822,299.765978 273.115517,300.120469 273.70674,300.47496 C272.623189,300.966951 271.8546,301.006697 271.598224,300.514706 C269.98311,297.324822 256.507529,292.358186 254.517257,286.397899 C253.79704,284.241948 250.773742,275.588603 253.551414,263.027798 C256.053899,251.549266 269.766508,240.563261 279.065369,241.29158 C280.523539,241.41028 282.020946,241.527907 283.537701,241.68528 C273.253648,242.118726 265.550014,247.257237 265.786503,253.892131 C266.042341,260.546897 255.206301,262.023944 257.905502,273.836557 C260.62459,285.649708 257.669013,293.269121 271.697119,299.431359" id="Fill-82" fill="#1A2133"></path>
                        <path d="M289.781552,283.009984 C286.767391,278.329626 281.463046,274.373826 276.444639,277.491738 C271.425694,280.609112 274.5796,287.828916 280.599323,292.122556 C286.582499,296.389879 299.197045,297.627912 289.781552,283.009984" id="Fill-84" fill="#F7A489"></path>
                        <path d="M479.945758,630.803826 C480.415511,634.228426 480.063465,638.15737 479.312074,641.535241 C478.138228,646.813401 511.826108,637.27329 509.291374,634.528669 C508.880206,634.094686 498.958948,626.967264 498.455871,626.219073 C496.02487,622.603263 491.68207,606.296131 490.066956,601.307473 C490.066956,601.307473 470.567888,612.687714 472.915043,616.593026 C473.760492,618.000785 479.699594,628.880443 479.945758,630.803826" id="Fill-86" fill="#F7A489"></path>
                        <path d="M544.536965,656.541767 C544.521378,657.08908 544.474618,657.40114 544.474618,657.40114 C541.097123,659.636046 481.505081,659.713926 480.160318,657.354411 C479.910392,656.917206 479.659929,655.541672 479.456763,653.666629 C478.659149,646.682078 478.330752,632.68075 479.957152,633.040612 C479.972739,633.040612 482.631092,633.102379 484.632113,634.446223 C484.945461,634.665363 485.430264,634.86839 485.993,635.024688 C486.899721,635.290557 488.057443,635.478007 489.245264,635.540312 C491.809559,635.7283 494.577557,635.431279 495.562749,634.446223 C496.000254,633.993441 496.344776,633.305943 496.641462,632.508875 C497.517547,630.196088 498.079746,627.055619 499.847502,626.727446 C503.427626,626.117828 510.620658,635.50916 535.54554,644.572318 C541.315875,646.665964 543.427078,650.338171 544.177394,653.229423 C544.208568,653.370145 544.239741,653.494754 544.271452,653.6199 C544.427857,654.291822 544.505791,654.917016 544.521378,655.448215 C544.552552,655.885421 544.552552,656.245284 544.536965,656.541767" id="Fill-88" fill="#FDECE4"></path>
                        <g id="Group-92" transform="translate(479.428008, 653.123183)">
                            <mask id="mask-8" fill="white">
                                <use xlink:href="#path-7"></use>
                            </mask>
                            <g id="Clip-91"></g>
                            <path d="M65.0417727,4.27145784 C61.6744896,6.50958638 2.07492357,6.59122678 0.734460059,4.23869426 C0.489371302,3.79772869 0.227620809,2.42595516 0.0314423077,0.547151798 C5.72008136,1.78840811 45.164322,2.4420684 64.3554167,0.547151798 C64.5188092,0.531038562 64.6822017,0.514388217 64.8455942,0.498274981 C65.3196474,2.65422601 65.0417727,4.27145784 65.0417727,4.27145784" id="Fill-90" fill="#1E253A" mask="url(#mask-8)"></path>
                        </g>
                        <path d="M544.521271,655.448108 C526.523371,656.369785 491.606823,655.994884 490.58992,654.197721 C490.339994,653.760515 490.074481,652.384982 489.886364,650.509938 C489.417148,646.478406 489.104875,640.134625 489.245694,635.540742 C491.809989,635.728192 494.577449,635.431172 495.562642,634.446116 C496.000146,633.993334 496.344668,633.305836 496.641355,632.508768 C498.408573,636.243279 508.916754,638.83751 526.382553,649.681718 C529.885817,651.854319 537.609875,652.822725 544.177286,653.229315 C544.20846,653.370038 544.240171,653.494647 544.271345,653.619793 C544.42775,654.291715 544.505684,654.916908 544.521271,655.448108" id="Fill-93" fill="#EDEDED"></path>
                        <path d="M458.596055,631.262785 C459.065808,634.687385 458.713762,638.616866 457.962371,641.9942 C456.788525,647.272359 490.476405,637.732249 487.941671,634.987628 C487.530502,634.553645 477.609245,627.426223 477.106168,626.678032 C474.675167,623.062222 470.332366,606.755626 468.717253,601.766431 C468.717253,601.766431 449.218185,613.146673 451.56534,617.052521 C452.410788,618.459744 458.349891,629.339401 458.596055,631.262785" id="Fill-95" fill="#F7A489"></path>
                        <path d="M473.736144,607.804437 C473.736144,607.804437 467.680409,613.381228 464.88285,614.77932 C461.691321,616.373993 452.033427,621.644633 450.300069,618.750695 C417.240498,563.89909 407.294517,548.036146 401.83753,528.130928 C401.522032,526.949828 400.950695,525.965309 400.261114,525.158036 C400.162219,525.039872 400.044512,524.922246 399.92573,524.803545 C396.81321,521.555116 391.296563,520.866007 389.168698,518.345897 C389.109576,518.266942 389.050454,518.208397 389.011218,518.168651 C383.238733,511.415594 376.894374,510.529903 376.894374,510.529903 L408.378067,476.488542 C418.34716,478.733116 423.489186,482.611572 426.385641,486.943347 C429.261672,491.254712 473.736144,607.804437 473.736144,607.804437" id="Fill-97" fill="#A05FA6"></path>
                        <path d="M523.185488,657.004378 C523.169364,657.543634 523.119916,657.854083 523.119916,657.854083 C519.752633,660.092211 460.153605,660.173315 458.812604,657.821319 C458.567515,657.379817 458.306302,656.008043 458.110123,654.12924 C457.309285,647.137706 456.981963,633.138527 458.600301,633.497852 C458.616963,633.497852 461.281228,633.563379 463.275799,634.902926 C463.602584,635.131197 464.076637,635.327241 464.648511,635.491059 C467.509492,636.307463 472.772988,636.340227 474.211272,634.902926 C475.927968,633.17129 476.123609,627.617058 478.494413,627.192742 C482.073999,626.571846 489.266494,635.964788 514.194601,645.030632 C520.226686,647.219347 522.270168,651.140234 522.923738,654.080363 C523.185488,655.289393 523.218274,656.334605 523.185488,657.004378" id="Fill-99" fill="#FDECE4"></path>
                        <path d="M464.883065,614.779266 C461.691536,616.373939 452.033642,621.644579 450.299747,618.750642 C417.240176,563.899037 407.294732,548.036092 401.837207,528.130874 C401.521709,526.949774 400.950373,525.965793 400.261329,525.157982 C408.772251,533.959032 416.199623,548.252547 425.636615,558.569315 C435.172503,569.00371 448.313775,616.256313 464.883065,614.779266" id="Fill-101" fill="#6C4472"></path>
                        <path d="M523.120131,657.853814 C519.752848,660.091943 460.153282,660.173583 458.812819,657.821051 C458.56773,657.380085 458.305979,656.007774 458.109801,654.128971 C463.79844,655.370764 503.24268,656.024425 522.433775,654.128971 C522.597168,654.112858 522.76056,654.096745 522.923953,654.080631 C523.398006,656.236582 523.120131,657.853814 523.120131,657.853814" id="Fill-103" fill="#1E253A"></path>
                        <path d="M523.185488,657.004378 C523.169364,657.543634 523.119916,657.854083 523.119916,657.854083 C519.752633,660.092211 460.153605,660.173315 458.812604,657.821319 C458.567515,657.379817 458.306302,656.008043 458.110123,654.12924 C457.309285,647.137706 456.981963,633.138527 458.600301,633.497852 C458.616963,633.497852 461.281228,633.563379 463.275799,634.902926 C463.602584,635.131197 464.076637,635.327241 464.648511,635.491065 C465.482135,639.607454 468.489847,651.499559 493.696366,654.685146 C514.489137,657.314826 521.142007,657.233186 523.185488,657.004378" id="Fill-105" fill="#EDEDED"></path>
                        <path d="M399.681608,519.922792 C391.028793,516.668992 316.376692,520.700524 302.433507,519.922792 C296.081086,519.587099 289.162703,518.596672 283.5004,516.899411 C276.723374,514.865384 271.716253,511.842004 271.52115,507.651488 C270.689676,490.729367 279.997136,478.599323 291.62219,470.871952 C299.478467,465.656097 308.396258,462.437747 315.98756,461.129352 C321.260193,460.209823 325.913655,460.209823 329.081535,461.093903 C332.212866,461.960258 337.787023,463.215479 344.669932,464.647946 C369.619,469.916974 401.296184,474.400213 409.098714,476.656604 C415.934863,478.633161 408.352161,523.193779 399.681608,519.922792" id="Fill-107" fill="#A05FA6"></path>
                        <path d="M351.94235,458.395097 L351.94235,458.41497 C348.691699,469.932174 324.004919,467.923928 316.636669,468.908446 C309.288306,469.892965 299.378336,484.659135 279.755111,490.841247 C279.755111,490.841247 286.158055,478.044114 292.876497,465.3254 C301.623908,459.517115 311.553765,455.934068 320.006102,454.476895 C325.876945,453.453167 331.058745,453.453167 334.585121,454.437686 C338.072261,455.402332 344.278489,456.799886 351.94235,458.395097" id="Fill-109" fill="#6C4472"></path>
                        <path d="M346.153203,455.527531 C345.49587,456.371328 340.60162,463.215694 331.376393,462.777951 C322.166215,462.371897 314.238454,458.93387 306.935777,468.356353 C299.680397,477.79495 290.673923,484.623202 279.759411,490.842375 C268.813188,497.045971 271.189904,509.875329 269.688735,508.81293 C268.187567,507.734417 265.608222,499.186883 264.090929,489.123629 C262.574712,479.060376 265.388932,439.667273 267.546896,419.33774 C269.688735,399.007669 267.171738,366.693111 265.889322,355.129715 C264.591319,343.56632 268.266038,331.424996 273.473099,323.783562 C277.038711,318.548909 303.073479,318.917365 312.471235,329.808838 C329.593587,349.6539 328.561635,398.945365 328.21765,401.164157 C327.6705,404.492615 327.420037,407.664774 327.607616,410.50876 C328.967966,431.760508 343.432502,451.261821 345.824805,454.918451 C346.059144,455.277776 346.184376,455.496379 346.153203,455.527531" id="Fill-111" fill="#7A9C49"></path>
                        <path d="M345.824644,454.918344 C345.152262,455.027377 344.448707,455.089681 343.729565,455.120833 C324.573944,455.777716 327.701513,444.683216 322.478865,439.995338 C317.256217,435.307461 302.42996,431.189992 301.97633,424.564229 C301.507114,417.907851 282.746,387.64773 279.118041,373.865542 C279.118041,373.865542 304.747016,388.085473 328.217489,401.16405 C327.670339,404.492507 327.420413,407.664667 327.607455,410.508653 C328.968342,431.7604 343.432341,451.261713 345.824644,454.918344" id="Fill-113" fill="#667F3B"></path>
                        <path d="M345.139685,415.67692 C338.376096,410.682891 327.60079,398.772523 321.887427,387.09365 C314.899173,372.807654 310.097368,354.299454 310.097368,354.299454 L283.102669,372.753406 C283.102669,372.753406 315.856416,434.002503 330.466608,439.998776 C345.076801,445.995048 354.089725,422.284421 345.139685,415.67692" id="Fill-115" fill="#F7A489"></path>
                        <path d="M338.077958,408.77084 C341.252287,407.934026 316.983126,366.887705 304.373417,335.364843 C301.505986,328.196064 277.71249,323.949152 269.884699,342.632987 C267.34029,348.704992 274.432278,361.821166 281.466217,379.6843 C284.937771,388.499852 300.60034,407.657416 303.626863,415.04802 C307.979339,425.678459 314.479566,425.88256 314.71928,425.545794 C322.83892,414.139234 327.779393,411.484846 338.077958,408.77084" id="Fill-117" fill="#7A9C49"></path>
                        <path d="M400.261061,464.895499 C387.458398,454.512666 357.564019,425.986867 347.064976,417.25027 C338.887826,410.44565 317.415686,426.193116 322.076135,432.79632 C326.736046,439.399525 338.412698,445.481197 395.631786,475.472764 C400.601283,478.077737 403.579971,467.587483 400.261061,464.895499" id="Fill-119" fill="#F7A489"></path>
                        <path d="M273.656754,299.442639 C265.705882,290.416541 262.755142,280.431705 265.563451,272.051211 C267.504274,266.253668 271.968007,261.982587 277.211616,260.902463 C287.54673,258.774978 294.902617,253.235785 297.924304,245.303776 L298.654195,245.58146 C295.580374,253.65258 287.822992,259.516724 277.370709,261.668378 C272.396912,262.690495 268.158382,266.764995 266.304092,272.29828 C263.587691,280.408609 266.481459,290.114149 274.24314,298.927015 L273.656754,299.442639 Z" id="Fill-121" fill="#1A2133"></path>
                        <path d="M314.991995,422.684512 L314.252966,422.43422 C316.647419,415.376623 329.876299,407.512826 335.35801,406.638415 L335.480555,407.410776 C330.289618,408.237922 317.262828,415.995908 314.991995,422.684512" id="Fill-123" fill="#667F3B"></path>
                        <path d="M310.859884,419.730151 L310.142355,419.418628 C311.251166,416.863069 318.401738,403.365548 325.646368,400.946951 L325.893607,401.68816 C319.012848,403.984833 311.88485,417.363116 310.859884,419.730151" id="Fill-125" fill="#667F3B"></path>
                        <path d="M271.827565,499.549968 L271.112722,499.232537 C274.570301,491.425674 280.427708,486.933303 286.093235,482.588638 C290.73971,479.025464 295.128733,475.660483 297.948866,470.691698 C304.403408,459.326495 315.956978,453.031591 325.418694,455.741837 L325.204779,456.492714 C316.233778,453.936618 304.806514,460.199296 298.629848,471.076267 C295.730168,476.184163 291.28041,479.594798 286.569438,483.207923 C280.981845,487.49297 275.203985,491.923036 271.827565,499.549968" id="Fill-127" fill="#667F3B"></path>
                        <path d="M443.463275,498.552075 C443.567008,497.630398 440.922629,492.603068 439.914863,491.310249 C438.906559,490.016893 435.897772,485.761388 435.044799,484.859047 C434.192363,483.957242 429.24544,478.833233 427.517994,477.704232 C425.790548,476.575232 424.357102,479.712479 424.357102,479.712479 C424.357102,479.712479 438.297062,495.684993 439.484883,496.999296 C440.672703,498.313599 443.332669,499.707931 443.463275,498.552075" id="Fill-129" fill="#F7A489"></path>
                        <path d="M425.616353,479.881238 C427.102472,481.544661 432.462714,486.108467 433.446293,487.262712 C434.429336,488.416419 438.583483,493.516259 439.091397,494.644185 C439.598774,495.772112 442.284538,501.927368 442.201229,502.528929 C442.117383,503.13049 440.499045,503.029514 439.133857,501.957446 C437.76867,500.884305 436.5744,497.202967 436.060573,496.648135 C435.546747,496.093302 432.813685,493.115039 431.121713,491.637455 C429.42974,490.159335 420.958591,482.281573 420.958591,482.281573 C420.958591,482.281573 424.059824,478.13886 425.616353,479.881238" id="Fill-131" fill="#F7A489"></path>
                        <path d="M421.965068,481.773469 C423.075492,482.703203 427.545674,486.865789 428.708233,488.101674 C429.870255,489.337559 432.954288,492.667628 434.148021,494.813374 C435.341754,496.95912 436.891295,501.122781 436.552148,501.863452 C436.212464,502.604124 434.163608,501.346217 432.85808,499.725226 C431.552015,498.104234 431.359599,496.288273 430.075571,495.317181 C428.792079,494.34609 427.36992,492.583302 425.501118,491.048785 C423.632316,489.514268 417.126714,484.593823 417.126714,484.593823 C417.126714,484.593823 420.177425,480.27655 421.965068,481.773469" id="Fill-133" fill="#F7A489"></path>
                        <path d="M387.597335,470.807606 C392.638854,472.936702 395.151014,474.986305 397.497631,476.571848 C399.844249,478.15739 402.121532,481.15123 404.986813,482.654058 C407.851556,484.156885 409.072163,484.427051 410.861418,485.342282 C412.651211,486.256977 415.615388,488.380702 418.480131,489.88353 C421.344875,491.386357 424.419234,495.576336 426.342858,497.560413 C428.26702,499.543952 429.329071,499.742145 429.795062,499.667487 C430.261591,499.592829 428.844268,495.873357 427.353849,493.991868 C425.862893,492.110379 423.907557,489.775571 422.527858,488.2808 C421.148159,486.786028 419.914653,485.285349 418.440358,484.311035 C416.966063,483.336722 429.327996,479.204214 427.517779,477.704071 C425.7081,476.204466 421.073987,474.371854 418.324801,472.826058 C415.576152,471.280261 409.439796,468.952436 406.046177,467.975436 C402.652557,466.998437 399.031586,463.584042 394.972035,460.434979 C392.568982,458.571751 385.32489,469.847794 387.597335,470.807606" id="Fill-135" fill="#F7A489"></path>
                        <path d="M235.628815,524.150153 L236.331833,503.316275 L386.736784,508.383888 C398.251118,508.77168 407.270492,518.413841 406.881897,529.920303 L235.628815,524.150153 Z" id="Fill-137" fill="#B16E54"></path>
                        <path d="M237.108968,511.014643 L257.535719,506.788141 L227.021094,359.524439 C224.685226,348.250545 213.64602,341.003885 202.364412,343.338156 L237.108968,511.014643 Z" id="Fill-139" fill="#B16E54"></path>
                        <mask id="mask-10" fill="white">
                            <use xlink:href="#path-9"></use>
                        </mask>
                        <g id="Clip-142"></g>
                        <polygon id="Fill-141" fill="#242C45" mask="url(#mask-10)" points="466.487214 671.24198 533.809763 671.24198 533.809763 659.392306 466.487214 659.392306"></polygon>
                        <path d="M418.219509,663.052857 C418.219509,653.271586 426.15372,645.342799 435.941684,645.342799 C445.729647,645.342799 453.663858,653.271586 453.663858,663.052857 C453.663858,672.833592 445.729647,680.762916 435.941684,680.762916 C426.15372,680.762916 418.219509,672.833592 418.219509,663.052857 M397.201536,663.052857 C397.201536,684.434048 414.546403,701.766519 435.941684,701.766519 C457.336965,701.766519 474.681832,684.434048 474.681832,663.052857 C474.681832,641.671667 457.336965,624.339196 435.941684,624.339196 C414.546403,624.339196 397.201536,641.671667 397.201536,663.052857" id="Fill-143" fill="#F4E2DA" mask="url(#mask-10)"></path>
                        <path d="M418.197204,663.052857 C418.197204,653.261381 426.141627,645.321852 435.94034,645.321852 C445.741741,645.321852 453.683476,653.261381 453.683476,663.052857 C453.683476,672.844334 445.741741,680.783863 435.94034,680.783863 C426.141627,680.783863 418.197204,672.844334 418.197204,663.052857 M417.577495,663.052857 C417.577495,673.18862 425.797643,681.403148 435.94034,681.403148 C446.083037,681.403148 454.305873,673.18862 454.305873,663.052857 C454.305873,652.917095 446.083037,644.702567 435.94034,644.702567 C425.797643,644.702567 417.577495,652.917095 417.577495,663.052857" id="Fill-144" fill="#1E253A" mask="url(#mask-10)"></path>
                        <path d="M398.280464,663.052857 C398.280464,642.270542 415.142678,625.419857 435.938674,625.419857 C456.74112,625.419857 473.597422,642.270542 473.597422,663.052857 C473.597422,683.835173 456.74112,700.685321 435.938674,700.685321 C415.142678,700.685321 398.280464,683.835173 398.280464,663.052857 M396.965262,663.052857 C396.965262,684.565102 414.411712,702.000161 435.938674,702.000161 C457.466174,702.000161 474.917999,684.565102 474.917999,663.052857 C474.917999,641.540075 457.466174,624.105554 435.938674,624.105554 C414.411712,624.105554 396.965262,641.540075 396.965262,663.052857" id="Fill-145" fill="#1E253A" mask="url(#mask-10)"></path>
                        <path d="M317.016449,640.968002 C317.703343,640.968002 318.403673,640.831576 319.073905,640.542075 C321.720971,639.405018 322.941577,636.339743 321.803742,633.696098 L203.085113,357.907852 C198.747687,346.989523 189.347781,338.80561 177.926429,336.013723 L122.566469,322.473234 C119.771597,321.790032 116.945552,323.501258 116.261346,326.29583 C115.576065,329.092551 117.288999,331.913442 120.087095,332.596643 L175.447056,346.137133 C183.612919,348.135174 190.329748,353.99341 193.413244,361.809404 C193.432056,361.860429 193.45248,361.909306 193.474516,361.957645 L312.223782,637.814104 C313.071918,639.787439 314.995542,640.968002 317.016449,640.968002" id="Fill-146" fill="#E5D4CC" mask="url(#mask-10)"></path>
                        <path d="M263.396726,640.966659 L425.039212,640.966659 C427.919004,640.966659 430.254335,638.632925 430.254335,635.755101 C430.254335,632.877277 427.919004,630.543544 425.039212,630.543544 L263.396726,630.543544 C260.517471,630.543544 258.181603,632.877277 258.181603,635.755101 C258.181603,638.632925 260.517471,640.966659 263.396726,640.966659" id="Fill-147" fill="#E5D4CC" mask="url(#mask-10)"></path>
                        <path d="M425.038997,671.242195 C427.918789,671.242195 430.25412,668.908461 430.25412,666.030637 L430.25412,498.738183 C430.25412,459.859629 398.601659,428.23042 359.697044,428.23042 L227.274406,428.23042 C224.394613,428.23042 222.059283,430.564154 222.059283,433.441978 C222.059283,436.319802 224.394613,438.653535 227.274406,438.653535 L359.697044,438.653535 C392.851211,438.653535 419.823873,465.608294 419.823873,498.738183 L419.823873,666.030637 C419.823873,668.908461 422.159741,671.242195 425.038997,671.242195" id="Fill-148" fill="#E5D4CC" mask="url(#mask-10)"></path>
                        <path d="M447.389103,663.052857 C447.389103,656.734857 442.263738,651.612997 435.941953,651.612997 C429.619093,651.612997 424.494265,656.734857 424.494265,663.052857 C424.494265,669.370857 429.619093,674.492181 435.941953,674.492181 C442.263738,674.492181 447.389103,669.370857 447.389103,663.052857" id="Fill-149" fill="#F4E2DA" mask="url(#mask-10)"></path>
                        <path d="M420.086537,669.739475 L420.086537,649.044708 C420.086537,646.229725 423.184545,644.514203 425.573086,646.005751 L438.198382,653.890495 C442.267607,656.431553 442.267607,662.353167 438.198382,664.894224 L425.573086,672.778968 C423.184545,674.270517 420.086537,672.554457 420.086537,669.739475" id="Fill-150" fill="#242C45" mask="url(#mask-10)"></path>
                        <path d="M196.800145,588.603367 C196.800145,533.511138 241.500357,488.841487 296.630278,488.841487 C351.775786,488.841487 396.460949,533.511138 396.460949,588.603367 C396.460949,643.696134 351.775786,688.365785 296.630278,688.365785 C241.500357,688.365785 196.800145,643.696134 196.800145,588.603367 M183.390135,588.603367 C183.390135,651.096406 234.095022,701.76609 296.630278,701.76609 C359.181121,701.76609 409.870959,651.096406 409.870959,588.603367 C409.870959,526.110865 359.181121,475.440645 296.630278,475.440645 C234.095022,475.440645 183.390135,526.110865 183.390135,588.603367" id="Fill-151" fill="#1E253A" mask="url(#mask-10)"></path>
                        <path d="M219.633656,588.603367 C219.633656,631.032204 254.176122,665.551054 296.633987,665.551054 C339.091852,665.551054 373.63378,631.032204 373.63378,588.603367 C373.63378,546.17453 339.091852,511.656218 296.633987,511.656218 C254.176122,511.656218 219.633656,546.17453 219.633656,588.603367 M218.143775,588.603367 C218.143775,545.353292 253.353785,510.166818 296.633987,510.166818 C339.913651,510.166818 375.123661,545.353292 375.123661,588.603367 C375.123661,631.853979 339.913651,667.039917 296.633987,667.039917 C253.353785,667.039917 218.143775,631.853979 218.143775,588.603367" id="Fill-152" fill="#F4E2DA" mask="url(#mask-10)"></path>
                        <polygon id="Fill-153" fill="#FDECE4" mask="url(#mask-10)" points="295.888777 688.365516 297.378659 688.365516 297.378659 488.841218 295.888777 488.841218"></polygon>
                        <polygon id="Fill-154" fill="#FDECE4" mask="url(#mask-10)" points="196.803047 589.348067 396.463851 589.348067 396.463851 587.859204 196.803047 587.859204"></polygon>
                        <polygon id="Fill-155" fill="#FDECE4" mask="url(#mask-10)" points="366.697499 659.672086 367.750951 658.619354 226.570152 517.535079 225.5167 518.58781"></polygon>
                        <polygon id="Fill-156" fill="#FDECE4" mask="url(#mask-10)" points="226.569937 659.672086 367.750736 518.58781 366.697284 517.535079 225.516485 658.619354"></polygon>
                        <path d="M307.08025,588.603367 C307.08025,582.838051 302.40314,578.164138 296.633879,578.164138 C290.864619,578.164138 286.186971,582.838051 286.186971,588.603367 C286.186971,594.368683 290.864619,599.043133 296.633879,599.043133 C302.40314,599.043133 307.08025,594.368683 307.08025,588.603367" id="Fill-157" fill="#242C45" mask="url(#mask-10)"></path>
                        <path d="M302.982753,588.603367 C302.982753,585.099275 300.140046,582.258512 296.633557,582.258512 C293.127605,582.258512 290.284898,585.099275 290.284898,588.603367 C290.284898,592.107459 293.127605,594.948223 296.633557,594.948223 C300.140046,594.948223 302.982753,592.107459 302.982753,588.603367" id="Fill-158" fill="#FDECE4" mask="url(#mask-10)"></path>
                        <path d="M118.617691,336.577794 L162.949195,346.06849 C166.967898,346.928937 170.924254,344.370692 171.78529,340.3542 L172.094876,338.910991 C172.955911,334.895035 170.395379,330.941384 166.376676,330.080937 L122.045172,320.590241 C118.025931,319.729794 114.070112,322.288576 113.209077,326.304532 L112.899491,327.74774 C112.038456,331.764233 114.598451,335.717347 118.617691,336.577794" id="Fill-159" fill="#B16E54" mask="url(#mask-10)"></path>
                        <path d="M196.800145,588.603367 C196.800145,533.511138 241.500357,488.841487 296.630278,488.841487 C351.775786,488.841487 396.460949,533.511138 396.460949,588.603367 C396.460949,643.696134 351.775786,688.365785 296.630278,688.365785 C241.500357,688.365785 196.800145,643.696134 196.800145,588.603367 M193.313542,588.603367 C193.313542,645.631871 239.563296,691.850004 296.630278,691.850004 C353.697798,691.850004 399.962063,645.631871 399.962063,588.603367 C399.962063,531.575401 353.697798,485.356731 296.630278,485.356731 C239.563296,485.356731 193.313542,531.575401 193.313542,588.603367" id="Fill-160" fill="#FDECE4" mask="url(#mask-10)"></path>
                        <path d="M299.420689,336.599869 C299.420689,336.599869 301.228756,339.577058 303.738766,344.140864 C304.368149,345.281144 305.050206,346.515418 305.749461,347.832406 C306.454091,349.146709 307.204407,350.529225 307.950423,351.974045 C308.698051,353.417791 309.492439,354.899135 310.259417,356.423984 C311.032306,357.945611 311.81702,359.491944 312.601734,361.038278 C313.369249,362.592668 314.136226,364.147595 314.891917,365.677816 C315.655669,367.203739 316.361912,368.728051 317.069767,370.191133 C317.418051,370.926434 317.772785,371.638639 318.09742,372.355678 C318.415605,373.069494 318.726803,373.768272 319.029939,374.447713 C319.645886,375.804448 320.212385,377.099415 320.710625,378.308982 C321.215852,379.515863 321.637232,380.644327 321.961867,381.66322 C322.296177,382.678354 322.511167,383.592512 322.625112,384.354668 C322.757868,385.113601 322.749269,385.723219 322.742819,386.130884 C322.705733,386.538011 322.686384,386.755003 322.686384,386.755003 C322.686384,386.755003 322.674022,386.539086 322.650373,386.133569 C322.622962,385.932691 322.585876,385.685621 322.536966,385.398806 C322.463332,385.114676 322.409047,384.785428 322.294565,384.42664 C321.89952,382.977523 320.998174,381.022451 319.823253,378.717721 C318.622533,376.412991 317.221872,373.723155 315.720704,370.841571 C314.973613,369.397288 314.176537,367.917555 313.412247,366.391095 C312.639895,364.868931 311.855181,363.322598 311.070467,361.776801 C310.30349,360.221874 309.536512,358.666946 308.781359,357.136726 C308.020832,355.608654 307.311902,354.085953 306.604584,352.622871 C305.895117,351.160327 305.239934,349.732694 304.610013,348.382405 C303.975792,347.033727 303.396931,345.748965 302.862681,344.563568 C300.716542,339.824128 299.420689,336.599869 299.420689,336.599869" id="Fill-161" fill="#667F3B" mask="url(#mask-10)"></path>
                        <path d="M158.903403,326.751996 C158.822782,325.352293 153.599597,318.539617 151.767881,316.87136 C149.935627,315.202565 144.366845,309.631682 142.866751,308.505367 C141.36612,307.380126 136.350938,303.006457 133.563591,301.257096 C130.922437,299.599044 125.632067,303.567735 125.632067,303.567735 C125.632067,303.567735 150.47579,323.800051 152.581081,325.454344 C154.685834,327.108636 159.004449,328.507265 158.903403,326.751996" id="Fill-162" fill="#F7A489" mask="url(#mask-10)"></path>
                        <path d="M127.551123,303.497427 C130.190127,305.595908 139.33957,311.026068 141.099264,312.493447 C142.858421,313.960826 150.349214,320.496354 151.392992,322.046985 C152.437306,323.597078 158.010388,332.08016 158.040206,332.997003 C158.068973,333.914383 155.632597,334.177566 153.325215,332.928253 C151.017834,331.679478 148.298209,326.500683 147.39095,325.805129 C146.483692,325.109574 141.652326,321.371303 138.754796,319.60207 C135.857804,317.832299 121.227725,308.261037 121.227725,308.261037 C121.227725,308.261037 124.787962,301.299582 127.551123,303.497427" id="Fill-163" fill="#F7A489" mask="url(#mask-10)"></path>
                        <path d="M122.596783,307.247461 C124.487621,308.348532 132.209529,313.408088 134.256773,314.952273 C136.303479,316.495921 141.747567,320.669249 144.07376,323.560501 C146.399953,326.451753 149.771536,332.257889 149.4555,333.447583 C149.139465,334.637277 145.76627,333.286988 143.40729,331.205695 C141.048311,329.123865 140.297458,326.469477 138.137345,325.350145 C135.977231,324.231349 133.408637,321.968513 130.233232,320.160071 C127.057828,318.351092 116.11053,312.682455 116.11053,312.682455 C116.11053,312.682455 119.551447,305.474467 122.596783,307.247461" id="Fill-164" fill="#F7A489" mask="url(#mask-10)"></path>
                        <path d="M73.5983802,303.259273 C81.6508358,305.143985 84.6612352,305.467861 88.5616938,307.230649 C92.4621524,308.993437 96.6195242,312.871356 101.269761,314.378481 C105.921072,315.885606 107.807611,315.976914 110.706753,316.883015 C113.606432,317.788579 118.564105,320.195896 123.214879,321.703021 C127.865653,323.210683 130.068227,325.619075 133.440348,328.082788 C136.813005,330.547039 139.48802,329.751583 138.837138,328.438891 C138.030925,326.811454 131.271097,320.157762 128.834184,318.283255 C126.396733,316.408211 124.17696,314.488051 121.731985,313.413298 C119.287009,312.338545 136.642088,303.028854 133.563429,301.256935 C130.484771,299.485016 123.114371,297.937609 118.62484,296.337027 C114.135308,294.735908 104.40163,292.835084 99.0972855,292.245876 C93.7929413,291.656132 84.8563388,286.24101 78.9940952,285.696383 C74.4174926,285.270993 69.9688092,302.410106 73.5983802,303.259273" id="Fill-165" fill="#F7A489" mask="url(#mask-10)"></path>
                        <path d="M121.658082,313.522546 L121.805888,313.303943 C122.863639,314.017222 128.284078,317.689429 131.144522,319.954413 L130.980592,320.160662 C128.127673,317.902123 122.714221,314.234751 121.658082,313.522546" id="Fill-166" fill="#DBC6BF" mask="url(#mask-10)"></path>
                        <path d="M127.060085,309.922258 L127.163281,309.673577 C128.237694,310.365372 134.817467,314.915213 137.102275,316.70593 C139.337097,318.457439 141.751436,320.72672 143.139735,322.138239 L142.951619,322.323005 C141.569232,320.917393 139.164568,318.657243 136.93942,316.913791 C134.658912,315.126296 128.132886,310.612979 127.060085,309.922258" id="Fill-167" fill="#DBC6BF" mask="url(#mask-10)"></path>
                        <path d="M133.46964,306.768844 L133.629808,306.558297 C133.69108,306.597506 137.299152,308.899014 139.170104,310.135973 C141.095878,311.409456 148.113693,317.922963 149.096198,318.869884 C150.25607,319.988143 151.932993,322.525441 153.550794,325.029437 L153.329354,325.172308 C151.790025,322.791309 150.052367,320.158406 148.912919,319.060021 C147.933102,318.115248 140.936248,311.620002 139.024448,310.35565 C137.155646,309.120302 133.530912,306.808053 133.46964,306.768844" id="Fill-168" fill="#DBC6BF" mask="url(#mask-10)"></path>
                        <path d="M1.62838905,254.264722 C-0.628469921,266.326017 5.84918294,271.316823 17.1071415,281.181347 C28.3651001,291.04587 83.2864808,310.734096 86.3006425,312.36207 C89.3153417,313.990044 110.843379,290.334202 107.331515,287.677129 C103.383759,284.689735 53.3861898,258.164125 38.9877628,242.704549 C24.5887983,227.244973 1.62838905,254.264722 1.62838905,254.264722" id="Fill-169" fill="#FAE9E0" mask="url(#mask-10)"></path>
                        <path d="M33.5446425,290.602917 C33.5446425,290.602917 34.3895537,290.896178 35.8573989,291.434897 C36.5905153,291.703988 37.4811119,292.031087 38.5023151,292.406525 C39.5208309,292.786798 40.6694157,293.215947 41.9228082,293.684305 C43.1729758,294.16072 44.5274137,294.675806 45.9597855,295.221508 C47.388395,295.775803 48.9008506,296.345675 50.4525419,296.966571 C52.0042332,297.588005 53.6204216,298.200308 55.2441346,298.865785 C56.8710725,299.523205 58.5243466,300.191367 60.1776208,300.858992 C61.8244453,301.542193 63.4712697,302.225394 65.0922954,302.897854 C66.7181583,303.560108 68.2988733,304.257274 69.8392776,304.907174 C71.3807569,305.553852 72.8588141,306.209661 74.2632372,306.823575 C75.6703476,307.432118 76.9919995,308.028308 78.2120685,308.578307 C83.0966445,310.76917 86.300535,312.362232 86.300535,312.362232 C86.300535,312.362232 82.8832668,311.299832 77.8460478,309.48387 C75.3242135,308.584215 72.3965853,307.497108 69.275466,306.293987 C67.7178624,305.684906 66.0984492,305.079586 64.4720488,304.417869 C62.842961,303.762597 61.1880745,303.097121 59.5331879,302.431107 C57.8863634,301.744683 56.2400764,301.058259 54.6190508,300.38204 C52.9964127,299.709581 51.4162352,299.008655 49.8806681,298.346401 C48.3429512,297.686833 46.8697313,297.019208 45.4712204,296.388106 C44.0700222,295.763987 42.7553575,295.151147 41.5438881,294.579664 C39.1171869,293.449052 37.1145537,292.451105 35.7219551,291.74266 C34.3320439,291.026695 33.5446425,290.602917 33.5446425,290.602917" id="Fill-170" fill="#EFE7E3" mask="url(#mask-10)"></path>
                        <path d="M67.2247825,171.920391 C67.2247825,171.920391 67.0312914,172.510135 66.6684956,173.615503 C66.2895754,174.714426 65.7499502,176.337029 65.0033969,178.376428 C64.2584561,180.4169 63.3544226,182.894579 62.3176326,185.736954 C61.2749305,188.57718 60.0914098,191.77888 58.757396,195.254506 C57.427682,198.731742 55.987248,202.499554 54.4640429,206.48382 C52.9349255,210.466475 51.3294867,214.668807 49.6181652,218.996285 C47.9100685,223.325912 46.1675735,227.80754 44.3396198,232.340731 C43.4049502,234.60464 42.5756257,236.901314 41.4093042,239.188319 C41.12068,239.74906 40.8207687,240.3098 40.5127954,240.851205 C40.2139591,241.38885 39.8860991,241.938848 39.7098072,242.383574 C39.6329482,242.600565 39.6076869,242.747733 39.625961,242.858377 C39.6549847,242.981912 39.7307687,243.165603 39.8731997,243.375612 L39.8968486,243.413747 C39.9092106,243.434694 39.8597628,243.363796 39.898461,243.415895 L39.9704827,243.506666 L40.1156011,243.689283 L40.4047628,244.053442 C40.5944916,244.311254 40.7965823,244.512132 40.9965232,244.715159 L41.5904334,245.336593 L42.254753,245.954804 C42.6906455,246.372137 43.1491119,246.773356 43.6194029,247.165445 C44.5379482,247.96681 45.5118536,248.719298 46.4739344,249.47662 C48.4131455,250.978911 50.4098664,252.40547 52.3985251,253.808395 C56.3968042,256.589003 60.3902461,259.255744 64.2976918,261.772094 C72.1152707,266.802646 79.4867451,271.39653 85.8681898,275.228795 C89.0613309,277.141973 91.9884216,278.896167 94.5822776,280.450558 C97.1820459,281.997428 99.4598664,283.32677 101.343717,284.40582 C103.231331,285.479499 104.709388,286.334574 105.736503,286.879739 C106.757169,287.438868 107.331193,287.676807 107.331193,287.676807 C107.331193,287.676807 106.744807,287.468409 105.69458,286.961916 C104.642204,286.462943 103.109324,285.70777 101.185162,284.696395 C99.2583131,283.689318 96.928895,282.448062 94.2689295,281.000556 C91.6078891,279.55681 88.6152263,277.9095 85.3833871,276.05433 C82.1467106,274.207753 78.6536583,272.183393 74.976252,270.011329 C71.2999206,267.838727 67.4349354,265.523255 63.4930912,263.034835 C59.5501721,260.547488 55.486321,257.955405 51.4590182,255.155462 C49.4488605,253.748776 47.4301031,252.318995 45.4532687,250.800591 C44.4696889,250.033064 43.4785843,249.273594 42.5245656,248.448596 C42.0408378,248.047913 41.5635597,247.634877 41.1013309,247.19606 L40.400463,246.547771 L39.7081948,245.824287 C39.4754679,245.582051 39.2432786,245.338741 39.0659117,245.094894 L38.777825,244.729124 L38.6337816,244.546507 L38.5617599,244.455199 C38.5768092,244.476146 38.5015626,244.376244 38.4951129,244.362816 L38.4574896,244.30266 C38.2575488,243.996509 38.0500833,243.61731 37.9587125,243.130691 C37.8764788,242.621512 37.9990232,242.147246 38.1339295,241.78631 C38.4236287,241.080013 38.7514887,240.571909 39.0513999,240.027281 C39.3572234,239.493933 39.6431603,238.964345 39.92211,238.427237 C41.0169472,236.312106 41.8817451,233.973001 42.8180271,231.726279 C44.6610301,227.202219 46.4750094,222.750669 48.2304038,218.442527 C51.7567796,209.831076 55.0482786,201.794331 57.8700242,194.904848 C60.6944571,188.016977 63.0480616,182.276905 64.6954236,178.258801 C65.5080863,176.245183 66.146607,174.663401 66.581962,173.584888 C67.0011928,172.499393 67.2247825,171.920391 67.2247825,171.920391" id="Fill-171" fill="#EFE7E3" mask="url(#mask-10)"></path>
                        <path d="M134.734373,107.7447 C135.01816,113.412263 135.19499,128.183266 125.624704,131.052497 C120.150517,132.693361 113.041868,132.256693 101.415202,125.314036" id="Stroke-172" stroke="#FFF5F1" stroke-width="3.166" mask="url(#mask-10)"></path>
                        <path d="M309.214618,273.283551 C309.214618,277.007857 306.193469,280.026941 302.466615,280.026941 C298.739761,280.026941 295.718612,277.007857 295.718612,273.283551 C295.718612,269.559245 298.739761,266.540162 302.466615,266.540162 C306.193469,266.540162 309.214618,269.559245 309.214618,273.283551 Z" id="Stroke-173" stroke="#676D7D" mask="url(#mask-10)"></path>
                        <line x1="296.076679" y1="271.060891" x2="282.393631" y2="277.135581" id="Stroke-174" stroke="#676D7D" mask="url(#mask-10)"></line>
                    </g>
                    <g id="Group-178" transform="translate(280.000000, 283.000000)">
                        <mask id="mask-12" fill="white">
                            <use xlink:href="#path-11"></use>
                        </mask>
                        <g id="Clip-177"></g>
                        <path d="M2.746125,0.8623125 C0.7115625,1.848375 -0.1288125,4.2823125 0.8685,6.298875 L0.8685,6.298875 C1.866375,8.316 4.323375,9.151875 6.3579375,8.1658125 L6.3579375,8.1658125 C8.3919375,7.1803125 9.232875,4.7458125 8.235,2.72925 L8.235,2.72925 C7.52175,1.287 6.0615,0.448875 4.543875,0.448875 L4.543875,0.448875 C3.9391875,0.448875 3.3255,0.581625 2.746125,0.8623125" id="Fill-176" fill="url(#linearGradient-13)" mask="url(#mask-12)"></path>
                    </g>
                    <g id="Group-194" transform="translate(280.000000, 283.000000)">
                        <path d="M6.3104625,8.0697375 C8.291025,7.1101125 9.1094625,4.7403 8.1385875,2.77605 C7.16715,0.8123625 4.774275,-0.001575 2.7937125,0.9586125 C0.8125875,1.9182375 -0.00585,4.2886125 0.9655875,6.2523 C1.937025,8.2159875 4.3299,9.029925 6.3104625,8.0697375" id="Fill-179" fill="#E9B68B"></path>
                        <g id="Group-193" transform="translate(0.562500, 0.562500)" fill="#000000">
                            <path d="M1.6088625,6.3399375 C1.74105,6.2206875 1.75005,6.0170625 1.629675,5.886 C1.5087375,5.754375 1.303425,5.745375 1.1712375,5.864625 C1.03905,5.9844375 1.03005,6.1875 1.1509875,6.3185625 C1.2713625,6.4501875 1.476675,6.4591875 1.6088625,6.3399375" id="Fill-181"></path>
                            <path d="M0.7090875,3.1006125 C0.8800875,3.1546125 1.0623375,3.060675 1.1163375,2.891925 C1.1703375,2.7226125 1.0758375,2.54205 0.9054,2.48805 C0.7344,2.43405 0.55215,2.527425 0.49815,2.6967375 C0.4435875,2.86605 0.53865,3.0466125 0.7090875,3.1006125" id="Fill-183"></path>
                            <path d="M3.0898125,0.7124625 C3.1280625,0.8857125 3.3013125,0.9954 3.47625,0.9577125 C3.6511875,0.9194625 3.762,0.7479 3.7231875,0.57465 C3.6849375,0.4014 3.5116875,0.2917125 3.33675,0.3294 C3.1618125,0.36765 3.051,0.53865 3.0898125,0.7124625" id="Fill-185"></path>
                            <path d="M6.3700875,1.5636375 C6.2379,1.6828875 6.2283375,1.8865125 6.349275,2.017575 C6.4702125,2.1486375 6.6749625,2.1582 6.8077125,2.0383875 C6.9399,1.9191375 6.9489,1.716075 6.8279625,1.58445 C6.7075875,1.4533875 6.502275,1.443825 6.3700875,1.5636375" id="Fill-187"></path>
                            <path d="M7.26958125,4.8029625 C7.09914375,4.7489625 6.91689375,4.8423375 6.86233125,5.01165 C6.80833125,5.1809625 6.90283125,5.361525 7.07383125,5.415525 C7.24483125,5.469525 7.42651875,5.3755875 7.48051875,5.206275 C7.53508125,5.037525 7.44058125,4.8564 7.26958125,4.8029625" id="Fill-189"></path>
                            <path d="M4.8891375,7.1911125 C4.8508875,7.0173 4.6776375,6.908175 4.5027,6.9458625 C4.3277625,6.98355 4.21695,7.1551125 4.2557625,7.3283625 C4.2940125,7.502175 4.4672625,7.6118625 4.6422,7.5736125 C4.8171375,7.535925 4.9273875,7.3643625 4.8891375,7.1911125" id="Fill-191"></path>
                        </g>
                    </g>
                    <g id="Group-197" transform="translate(281.000000, 285.000000)">
                        <mask id="mask-15" fill="white">
                            <use xlink:href="#path-14"></use>
                        </mask>
                        <g id="Clip-196"></g>
                        <path d="M2.049375,0.533125 L0.688125,1.235 C0.48375,1.340625 0.435,1.61 0.591875,1.779375 L0.591875,1.779375 L3.05875,4.4575 C3.214375,4.626875 3.489375,4.60375 3.614375,4.41125 L3.614375,4.41125 L4.444375,3.131875 C4.530625,2.999375 4.515625,2.825625 4.4075,2.70875 L4.4075,2.70875 L2.471875,0.6075 C2.40375,0.533125 2.30875,0.49375 2.211875,0.49375 L2.211875,0.49375 C2.156875,0.49375 2.10125,0.506875 2.049375,0.533125" id="Fill-195" fill="url(#linearGradient-16)" mask="url(#mask-15)"></path>
                    </g>
                    <g id="Group-204" transform="translate(274.000000, 276.000000)">
                        <path d="M7.99525333,10.299432 L10.1008533,12.527632 C10.21232,12.645672 10.39472,12.650352 10.5141867,12.554152 C10.3968533,12.671672 10.1957867,12.674792 10.0768533,12.548432 L7.97125333,10.320232 C7.85178667,10.193872 7.87365333,10.001472 8.00592,9.899032 C7.89552,10.005112 7.88378667,10.180872 7.99525333,10.299432" id="Fill-198" fill="#000000"></path>
                        <path d="M10.5272533,12.531272 L11.2349867,11.467352 C11.3085867,11.356592 11.2957867,11.212032 11.2040533,11.114792 L9.55232,9.366552 C9.46058667,9.269312 9.31232,9.243832 9.19178667,9.304672 L8.03018667,9.888112 C8.01258667,9.897472 7.99658667,9.908912 7.98165333,9.920352 C8.00298667,9.900072 8.02592,9.881352 8.05418667,9.867312 L9.21578667,9.283352 C9.33632,9.223032 9.48458667,9.248512 9.57632,9.345752 L11.2280533,11.093472 C11.3197867,11.190712 11.3325867,11.335272 11.2589867,11.446032 L10.5512533,12.509952 C10.5341867,12.535952 10.5128533,12.556752 10.48992,12.574952 C10.5032533,12.561952 10.5160533,12.547912 10.5272533,12.531272" id="Fill-200" fill="#FFFFFF"></path>
                        <path d="M11.7236267,9.2508 L15.3454933,7.91752 C15.7326933,7.77504 15.8846933,7.3216 15.65696,6.98412 C14.1614933,4.76424 8.87402667,-2.07584 2.57376,1.48928 C2.60842667,1.46952 0.806826667,2.5116 0.413226667,3.6608" id="Stroke-202" stroke="#A05FA6" stroke-width="2"></path>
                    </g>
                    <g id="Group-207" transform="translate(284.000000, 284.000000)">
                        <mask id="mask-18" fill="white">
                            <use xlink:href="#path-17"></use>
                        </mask>
                        <g id="Clip-206"></g>
                        <path d="M0.187333333,1.38857143 C-0.157333333,2.18857143 0.327333333,3.07542857 1.27,3.36857143 L1.27,3.36857143 C2.212,3.66228571 3.256,3.25142857 3.60066667,2.45142857 L3.60066667,2.45142857 C3.94533333,1.65142857 3.46,0.765142857 2.518,0.471428571 L2.518,0.471428571 C2.31133333,0.406857143 2.09933333,0.376571429 1.89133333,0.376571429 L1.89133333,0.376571429 C1.15133333,0.376571429 0.456,0.763428571 0.187333333,1.38857143" id="Fill-205" fill="url(#linearGradient-19)" mask="url(#mask-18)"></path>
                    </g>
                    <g id="Group-210" transform="translate(284.000000, 283.000000)">
                        <mask id="mask-21" fill="white">
                            <use xlink:href="#path-20"></use>
                        </mask>
                        <g id="Clip-209"></g>
                        <path d="M1.172,0.7 C1.00266667,0.777333333 0.846666667,0.882 0.710666667,1.01066667 L0.710666667,1.01066667 C0.184666667,1.50666667 0.0346666667,2.30133333 0.34,2.95266667 L0.34,2.95266667 C0.485333333,3.26266667 0.723333333,3.52866667 1.034,3.70733333 L1.034,3.70733333 C1.51466667,3.98333333 2.112,4.01133333 2.61533333,3.78 L2.61533333,3.78 C3.27333333,3.478 3.676,2.77533333 3.59733333,2.06 L3.59733333,2.06 C3.57733333,1.874 3.526,1.694 3.44733333,1.52666667 L3.44733333,1.52666667 C3.21333333,1.02733333 2.73933333,0.666 2.192,0.568666667 L2.192,0.568666667 C2.092,0.550666667 1.99133333,0.542 1.892,0.542 L1.892,0.542 C1.64133333,0.542 1.39533333,0.597333333 1.172,0.7" id="Fill-208" mask="url(#mask-21)"></path>
                    </g>
                    <path d="M274.544243,279.656378 C274.544243,279.656378 273.408109,281.218743 273.973367,283.722842 C274.537923,286.227557 275.414952,287.066365 275.903672,287.632145 C276.299002,288.089452 275.384758,287.988376 274.839863,287.994539 C274.711363,287.996388 274.58497,287.905173 274.52388,287.767734 C274.170681,286.978232 272.963626,284.437154 273.000842,282.754607 C273.045782,280.762668 273.769032,279.099843 273.980389,279 C274.421361,279.411084 274.544243,279.656378 274.544243,279.656378" id="Fill-211" fill="#666970"></path>
                    <g id="Group-215" transform="translate(273.000000, 286.000000)">
                        <mask id="mask-23" fill="white">
                            <use xlink:href="#path-22"></use>
                        </mask>
                        <g id="Clip-214"></g>
                        <path d="M0.406,0.668 C0.401,0.67 0.401,0.67 0.3965,0.672 L0.3965,0.672 L0.487,1.07333333 C0.52,1.218 0.553,1.362 0.585,1.506 L0.585,1.506 L0.595,1.50266667 C0.632,1.486 0.674,1.468 0.711,1.45066667 L0.711,1.45066667 C0.6785,1.30666667 0.646,1.162 0.613,1.018 L0.613,1.018 L0.5225,0.616666667 C0.4855,0.634 0.4435,0.652 0.406,0.668" id="Fill-213" mask="url(#mask-23)"></path>
                    </g>
                    <g id="Group-218" transform="translate(273.000000, 284.000000)">
                        <mask id="mask-25" fill="white">
                            <use xlink:href="#path-24"></use>
                        </mask>
                        <g id="Clip-217"></g>
                        <path d="M0.5175,0.693333333 C0.513,0.695333333 0.513,0.695333333 0.508,0.696 L0.508,0.696 C0.533,0.832 0.558,0.967333333 0.5835,1.10333333 L0.5835,1.10333333 C0.6105,1.24933333 0.638,1.396 0.665,1.542 L0.665,1.542 C0.67,1.54066667 0.67,1.54066667 0.675,1.53933333 L0.675,1.53933333 C0.713,1.528 0.7565,1.51533333 0.794,1.504 L0.794,1.504 C0.767,1.35733333 0.74,1.21133333 0.713,1.06533333 L0.713,1.06533333 C0.688,0.93 0.6625,0.793333333 0.6375,0.658666667 L0.6375,0.658666667 C0.599,0.669333333 0.556,0.682666667 0.5175,0.693333333" id="Fill-216" mask="url(#mask-25)"></path>
                    </g>
                    <g id="Group-221" transform="translate(273.000000, 279.000000)">
                        <mask id="mask-27" fill="white">
                            <use xlink:href="#path-26"></use>
                        </mask>
                        <g id="Clip-220"></g>
                        <path d="M0.941142857,1.05564706 C0.84,1.27429412 0.736,1.54111765 0.645714286,1.84870588 L0.645714286,1.84870588 C0.490857143,2.37176471 0.373714286,3.01182353 0.370285714,3.73447059 L0.370285714,3.73447059 C0.366285714,4.41 0.525714286,5.26076471 0.734285714,6.07976471 L0.734285714,6.07976471 C1.02628571,7.227 1.44685714,8.36364706 1.61371429,8.81152941 L1.61371429,8.81152941 C1.66571429,8.95023529 1.66228571,8.97617647 1.66228571,8.97617647 L1.66228571,8.97617647 C1.66228571,8.97617647 1.95828571,8.98464706 2.31942857,8.97141176 L2.31942857,8.97141176 C2.97257143,8.94652941 3.84057143,8.84858824 3.56114286,8.49441176 L3.56114286,8.49441176 C3.452,8.35517647 3.32114286,8.19952941 3.17771429,8.00470588 L3.17771429,8.00470588 C2.42514286,6.98452941 1.99885714,5.67317647 1.76914286,4.41741176 L1.76914286,4.41741176 C1.36571429,2.21505882 2.10342857,1.32247059 2.10342857,1.32247059 L2.10342857,1.32247059 L1.37028571,0.384352941 C1.29771429,0.421941176 1.124,0.660176471 0.941142857,1.05564706" id="Fill-219" mask="url(#mask-27)"></path>
                    </g>
                    <g id="Group-229" transform="translate(273.000000, 268.000000)">
                        <path d="M0.346826667,14.7068624 C0.356426667,12.7462002 1.10949333,11.3240565 1.27909333,11.2287052 C1.31482667,11.2785479 1.31109333,11.273672 1.34309333,11.3186388 C1.14469333,11.487129 0.43696,12.8599717 0.427893333,14.7599558 C0.419893333,16.5017432 1.41349333,19.4012912 1.62789333,20.0227002 C1.58042667,20.0216167 1.55162667,20.0210749 1.55162667,20.0210749 C1.55162667,20.0210749 0.337226667,16.6675246 0.346826667,14.7068624" id="Fill-222" fill="#666970"></path>
                        <g id="Group-226" transform="translate(0.000000, 10.835381)">
                            <mask id="mask-29" fill="white">
                                <use xlink:href="#path-28"></use>
                            </mask>
                            <g id="Clip-225"></g>
                            <path d="M2.3632,8.98253071 C2.3632,8.98253071 1.24426667,6.17887592 1.05013333,4.67438329 C0.768,2.48888698 1.5248,0.792066339 1.5248,0.792066339 C1.49546667,0.667459459 1.4656,0.547186732 1.43413333,0.430164619 C1.43413333,0.430164619 0.928533333,1.30674693 0.735466667,2.08743612 C0.5376,2.89033784 0.408533333,4.21062899 0.646933333,5.38139189 C1.0384,7.30087961 1.71626667,9.06271253 1.71626667,9.06271253 C1.9536,9.09684398 2.2608,9.01124447 2.3632,8.98253071" id="Fill-224" mask="url(#mask-29)"></path>
                        </g>
                        <path d="M35.6244267,3.07654386 L35.28096,2.66209054 C35.3934933,2.56619742 37.92096,0.379617568 39.5412267,0.2880586 L39.8468267,0.672714619 C38.4036267,0.755063514 35.65056,3.05433133 35.6244267,3.07654386" id="Fill-227" fill="#676D7D"></path>
                    </g>
                </g>
            </g>
        </g>
    </g>
</svg>