<?xml version="1.0" encoding="UTF-8"?>
<svg width="219px" height="219px" viewBox="0 0 219 219" version="1.1" xmlns="http://www.w3.org/2000/svg" xmlns:xlink="http://www.w3.org/1999/xlink">
    <title>Group 18</title>
    <defs>
        <polygon id="path-1" points="0 0.0317961165 145.560857 0.0317961165 145.560857 106.941748 0 106.941748"></polygon>
    </defs>
    <g id="Patient-PBD-ZSD-Layout-(DSK)" stroke="none" stroke-width="1" fill="none" fill-rule="evenodd">
        <g id="1.0-Understanding-PBD-ZSD" transform="translate(-1076.000000, -5376.000000)">
            <g id="Group-18" transform="translate(1076.000000, 5376.000000)">
                <circle id="Oval-Copy" fill="#A05FA6" cx="109.5" cy="109.5" r="109.5"></circle>
                <g id="Group-36" transform="translate(37.000000, 56.000000)">
                    <g id="Group-3" transform="translate(0.000000, 0.964029)">
                        <mask id="mask-2" fill="white">
                            <use xlink:href="#path-1"></use>
                        </mask>
                        <g id="Clip-2"></g>
                        <path d="M120.330824,34.0215413 C116.304313,39.3979927 113.243269,44.1267937 113.216096,44.1839393 C112.247431,45.6586141 111.136504,47.0348714 109.899299,48.2936626 C109.373407,48.8587694 108.631723,49.1746578 107.85807,49.1668669 C106.301174,49.1810073 105.027204,47.9380898 105.01271,46.3903956 C105.006425,45.6649636 105.284556,44.9649296 105.78807,44.4379199 C106.761529,43.4267597 107.643877,42.3330558 108.425522,41.172682 C108.452696,41.1425218 111.628829,36.2168859 115.767232,30.6420121 C116.705525,29.3911578 118.491001,29.132415 119.750585,30.0657937 C121.010168,30.9991723 121.270716,32.7690995 120.330824,34.0215413 M139.01358,9.30288107 C129.034418,4.34867233 98.1330628,5.92493932 89.7155924,7.35992961 C88.014835,7.61391019 86.3955989,8.25044903 84.9809652,9.21875 C85.2063475,9.5013034 85.4333283,9.78068204 85.6619075,10.0918083 C87.6072287,12.7014587 89.111376,15.6127112 90.1120096,18.7065121 C90.1679555,18.9303325 90.2542722,19.1843131 90.3102181,19.4668665 C93.7692774,30.3340607 97.1979659,46.3522985 94.1081501,61.4133471 C93.9946597,62.1165558 93.8539956,62.7927791 93.6829607,63.4959879 C93.3105204,65.0135218 92.797416,66.4929587 92.1516397,67.9168374 C93.144281,68.0866869 94.14971,68.1724053 95.1567374,68.1708396 C96.0007222,68.1692306 96.8447071,68.112085 97.6806997,68.0009684 C108.567785,66.5374053 118.857048,56.3448471 122.76847,50.2651869 C128.495738,41.3409442 136.376128,31.4595121 139.325279,29.5165607 C143.158377,26.8957985 145.480934,22.5955898 145.560857,17.9747306 C145.218787,14.0808908 142.67884,10.7204102 139.01358,9.30288107 M37.0704373,17.4112112 C32.8569067,18.0683859 28.7792449,19.4001966 24.9925022,21.3526723 C22.3854201,22.7035316 17.9065458,27.0116772 17.0833409,40.7774248 C17.0002211,42.2568617 15.7710083,43.4172354 14.2764518,43.423585 L14.1070154,43.423585 C12.5437252,43.3251675 11.3528754,41.9917694 11.4423889,40.4393131 C12.3790842,24.7591869 17.9065458,18.6779393 22.3854201,16.3698908 C26.7060472,14.1174005 31.3703424,12.5855801 36.1912864,11.8363374 C37.7433873,11.6093422 39.1867933,12.6760607 39.416971,14.215818 C39.6407549,15.7381141 38.5985614,17.1604053 37.0704373,17.4112112 M14.7320118,56.79725 L14.505031,56.79725 C13.0344513,56.7861383 11.8148292,55.6622743 11.6981419,54.2066481 C11.5846515,52.9399199 11.4999333,51.7017646 11.4423889,50.5191675 C11.3560723,48.9635364 12.5565129,47.6333131 14.123,47.5475947 C15.6878886,47.4634636 17.0257964,48.6539976 17.1137115,50.2080413 C17.1696575,51.3636529 17.2256035,52.54625 17.3390939,53.7558325 C17.4509858,55.3051141 16.2889081,56.6591481 14.7320118,56.79725 M84.6964399,20.4240558 C83.8924165,17.9191723 82.685582,15.561915 81.1254888,13.4411772 C78.6766539,10.1489539 75.3886295,7.56311408 71.6002882,5.95192476 C52.5195165,-2.09925971 33.1590149,-1.92941019 17.1137115,6.40432767 C1.74615356,14.3697937 -3.29857423,35.4009733 2.08662473,68.9025995 C3.16398422,75.6013374 3.84492656,80.2206092 4.3836063,83.9636481 C5.00860268,88.3273519 5.46096578,91.4798859 6.19945255,95.337216 C7.27041821,100.939075 11.6326052,105.351988 17.2543757,106.513949 C18.4436271,106.79174 19.6600523,106.933017 20.8828713,106.936192 C24.8630272,107.055245 28.6657545,105.301192 31.1449601,102.205803 C38.0055342,93.6720558 46.3718539,86.4510704 55.8363131,80.8952451 C59.3625075,79.1761141 63.1284704,77.9903422 67.0079236,77.3760267 C74.546243,75.7156286 82.9669103,73.8568083 86.7952129,66.0008714 C87.3930356,64.7912888 87.8485956,63.5150364 88.1554992,62.2022743 C88.2977618,61.610182 88.4384259,61.0196772 88.5247426,60.4291723 C91.4147514,46.5205607 88.2114451,31.4595121 84.8387026,20.9304296 C84.8035365,20.7589927 84.7571813,20.5875558 84.6964399,20.4240558" id="Fill-1" fill="#FFFFFF" mask="url(#mask-2)"></path>
                    </g>
                    <path d="M67,22.9648338 C67,26.2783988 64.3140097,28.9640288 60.9983897,28.9640288 C57.6859903,28.9640288 55,26.2783988 55,22.9648338 C55,19.6512688 57.6859903,16.9640288 60.9983897,16.9640288 C64.3140097,16.9640288 67,19.6512688 67,22.9648338" id="Fill-4" fill="#A05FA6"></path>
                    <path d="M42,84.9640288 C42,88.2780384 39.3123994,90.9640288 35.9983897,90.9640288 C32.6859903,90.9640288 30,88.2780384 30,84.9640288 C30,81.6500191 32.6859903,78.9640288 35.9983897,78.9640288 C39.3123994,78.9640288 42,81.6500191 42,84.9640288" id="Fill-6" fill="#A05FA6"></path>
                    <path d="M139,18.9648338 C139,22.2783988 136.31401,24.9640288 133,24.9640288 C129.68599,24.9640288 127,22.2783988 127,18.9648338 C127,15.6496587 129.68599,12.9640288 133,12.9640288 C136.31401,12.9640288 139,15.6496587 139,18.9648338" id="Fill-8" fill="#A05FA6"></path>
                    <path d="M72,35.9640288 C72,38.1736942 70.2099981,39.9640288 68.0007434,39.9640288 C65.7914886,39.9640288 64,38.1736942 64,35.9640288 C64,33.7558503 65.7914886,31.9640288 68.0007434,31.9640288 C70.2099981,31.9640288 72,33.7558503 72,35.9640288" id="Fill-10" fill="#A05FA6"></path>
                    <path d="M30,77.9647724 C30,80.1733614 28.2085114,81.9640288 26.0007434,81.9640288 C23.7900019,81.9640288 22,80.1733614 22,77.9647724 C22,75.7546962 23.7900019,73.9640288 26.0007434,73.9640288 C28.2085114,73.9640288 30,75.7546962 30,77.9647724" id="Fill-12" fill="#A05FA6"></path>
                    <path d="M59,28.9640288 C60.6554404,28.9640288 62,30.307034 62,31.9640288 C62,33.6210236 60.6554404,34.9640288 59,34.9640288 C57.3445596,34.9640288 56,33.6210236 56,31.9640288 C56,30.307034 57.3445596,28.9640288 59,28.9640288" id="Fill-14" fill="#A05FA6"></path>
                    <path d="M122,9.96402878 C123.65544,9.96402878 125,11.307382 125,12.9648062 C125,14.6222304 123.65544,15.9640288 122,15.9640288 C120.34456,15.9640288 119,14.6222304 119,12.9648062 C119,11.307382 120.34456,9.96402878 122,9.96402878" id="Fill-16" fill="#A05FA6"></path>
                    <path d="M36,70.9640288 C37.6569948,70.9640288 39,72.3058272 39,73.9648062 C39,75.6206756 37.6569948,76.9640288 36,76.9640288 C34.3445596,76.9640288 33,75.6206756 33,73.9648062 C33,72.3058272 34.3445596,70.9640288 36,70.9640288" id="Fill-18" fill="#A05FA6"></path>
                    <path d="M43.000777,47.9640288 C44.6557887,47.9640288 46,49.307034 46,50.9655832 C46,52.6210236 44.6557887,53.9640288 43.000777,53.9640288 C41.3442113,53.9640288 40,52.6210236 40,50.9655832 C40,49.307034 41.3442113,47.9640288 43.000777,47.9640288" id="Fill-20" fill="#A05FA6"></path>
                    <path d="M70.5,20.9640288 C71.3284974,20.9640288 72,21.6355314 72,22.4640288 C72,23.2925262 71.3284974,23.9640288 70.5,23.9640288 C69.6715026,23.9640288 69,23.2925262 69,22.4640288 C69,21.6355314 69.6715026,20.9640288 70.5,20.9640288" id="Fill-22" fill="#A05FA6"></path>
                    <path d="M41.4992232,1.96402878 C42.3272916,1.96402878 43,2.63708577 43,3.46402878 C43,4.29252619 42.3272916,4.96402878 41.4992232,4.96402878 C40.6727084,4.96402878 40,4.29252619 40,3.46402878 C40,2.63708577 40.6727084,1.96402878 41.4992232,1.96402878" id="Fill-24" fill="#A05FA6"></path>
                    <path d="M114.500777,49.9640288 C115.327292,49.9640288 116,50.6367372 116,51.4648056 C116,52.2913203 115.327292,52.9640288 114.500777,52.9640288 C113.672708,52.9640288 113,52.2913203 113,51.4648056 C113,50.6367372 113.672708,49.9640288 114.500777,49.9640288" id="Fill-26" fill="#A05FA6"></path>
                    <path d="M41.4992232,44.9640288 C42.3272916,44.9640288 43,45.6367372 43,46.4648056 C43,47.2913203 42.3272916,47.9640288 41.4992232,47.9640288 C40.6727084,47.9640288 40,47.2913203 40,46.4648056 C40,45.6367372 40.6727084,44.9640288 41.4992232,44.9640288" id="Fill-28" fill="#A05FA6"></path>
                    <path d="M25.5,85.9640288 C26.3284974,85.9640288 27,86.6355314 27,87.4640288 C27,88.2925262 26.3284974,88.9640288 25.5,88.9640288 C24.6715026,88.9640288 24,88.2925262 24,87.4640288 C24,86.6355314 24.6715026,85.9640288 25.5,85.9640288" id="Fill-30" fill="#A05FA6"></path>
                    <path d="M128.5,9.96402878 C129.328497,9.96402878 130,10.6355314 130,11.4640288 C130,12.2925262 129.328497,12.9640288 128.5,12.9640288 C127.673057,12.9640288 127,12.2925262 127,11.4640288 C127,10.6355314 127.673057,9.96402878 128.5,9.96402878" id="Fill-32" fill="#A05FA6"></path>
                    <path d="M73,50.9640288 C74.6569948,50.9640288 76,52.3058272 76,53.9648062 C76,55.6206756 74.6569948,56.9640288 73,56.9640288 C71.3445596,56.9640288 70,55.6206756 70,53.9648062 C70,52.3058272 71.3445596,50.9640288 73,50.9640288" id="Fill-34" fill="#A05FA6"></path>
                </g>
            </g>
        </g>
    </g>
</svg>