<?xml version="1.0" encoding="UTF-8"?>
<svg width="219px" height="219px" viewBox="0 0 219 219" version="1.1" xmlns="http://www.w3.org/2000/svg" xmlns:xlink="http://www.w3.org/1999/xlink">
    <title>Group 9</title>
    <defs>
        <polygon id="path-1" points="0 0.512142697 116.382349 0.512142697 116.382349 121 0 121"></polygon>
        <polygon id="path-3" points="0.138988594 0.026 10.5123983 0.026 10.5123983 25.4906288 0.138988594 25.4906288"></polygon>
    </defs>
    <g id="Patient-PBD-ZSD-Layout-(DSK)" stroke="none" stroke-width="1" fill="none" fill-rule="evenodd">
        <g id="1.0-Understanding-PBD-ZSD" transform="translate(-1076.000000, -4880.000000)">
            <g id="Group-9" transform="translate(1076.000000, 4880.000000)">
                <circle id="Oval-Copy" fill="#A05FA6" cx="109.5" cy="109.5" r="109.5"></circle>
                <g id="Group-11" transform="translate(51.000000, 48.000000)">
                    <g id="Group-3" transform="translate(0.423913, 2.000000)">
                        <mask id="mask-2" fill="white">
                            <use xlink:href="#path-1"></use>
                        </mask>
                        <g id="Clip-2"></g>
                        <path d="M60.5100872,15.7323112 C63.7235058,15.7323112 66.327436,18.3372101 66.327436,21.547109 C66.327436,24.759727 63.7235058,27.3619067 60.5100872,27.3619067 C57.2980291,27.3619067 54.6927384,24.759727 54.6927384,21.547109 C54.6927384,18.3372101 57.2980291,15.7323112 60.5100872,15.7323112 M42.5519477,37.5558169 C45.7653663,37.5558169 48.3692965,40.1593562 48.3692965,43.3692551 C48.3692965,46.5805135 45.7653663,49.1826933 42.5519477,49.1826933 C39.3385291,49.1826933 36.7332384,46.5805135 36.7332384,43.3692551 C36.7332384,40.1593562 39.3385291,37.5558169 42.5519477,37.5558169 M54.7716453,0.512142697 C85.6950174,11.9949067 85.0188663,21.9590528 83.8366221,34.1161539 C83.8366221,34.1161539 100.566262,39.8588955 95.6658663,56.5772888 C95.6658663,56.5772888 113.240355,62.3186708 106.142808,79.5441764 C106.142808,79.5441764 129.293843,94.9179742 105.97411,111.626851 C82.6530174,128.338446 29.1704128,119.986727 9.23279651,107.659682 C-8.6559593,96.6010978 3.91609884,82.691536 9.86541279,79.9438843 C20.5096919,85.3358618 37.1277733,92.4870978 50.5433198,92.5686708 C72.1026105,92.6991876 77.3594477,81.5331989 91.5559012,86.000682 C87.5479709,83.9654348 82.2244709,81.5331989 75.1908663,84.0959517 C50.9881919,92.9112775 29.3744826,87.0271427 10.5293198,71.0796146 C10.7388314,65.6441315 12.8910872,58.9197944 21.2293779,55.293873 C31.2151919,59.7491202 43.5695756,64.0792888 53.9893779,64.1418281 C75.5500291,64.2737045 80.8082267,53.1063562 95.0046802,57.5738393 C90.9940291,55.535873 85.6718895,53.1063562 78.6396453,55.669109 C59.1088081,62.7822775 41.2622267,60.3242101 25.1964942,50.7285022 C24.3217151,44.4188281 24.3217151,30.3121315 41.0010174,27.4461989 C41.0010174,27.4461989 39.7344244,21.0291202 41.0853663,18.4962775 C42.4363081,15.9634348 53.7594593,11.9935472 54.7716453,0.512142697" id="Fill-1" fill="#FFFFFF" mask="url(#mask-2)"></path>
                    </g>
                    <path d="M25.9878774,7.05891278 C21.6237655,8.09090341 17.6202916,11.9056548 18.5628981,16.8728626 C18.9704062,19.023847 20.5327375,20.5269929 21.3099973,22.490586 C22.0364813,24.3203281 21.7630733,26.3695858 20.7722949,28.0239832 C19.452125,30.231185 22.8293644,32.2496569 24.1456285,30.0504862 C25.1910885,28.3037317 25.7444142,26.1995951 25.6025024,24.1449834 C25.4488732,21.9110115 24.5726657,20.1026855 23.4256542,18.2434961 C22.5129923,16.7657819 21.8919657,15.3429466 22.8046275,13.6845336 C23.6834388,12.0836765 25.3551333,11.3260803 27.0255258,10.9312201 C29.47448,10.3529841 28.4381336,6.47933827 25.9878774,7.05891278" id="Fill-4" fill="#FFFFFF"></path>
                    <path d="M13.9872372,21.0589128 C9.6234946,22.0909034 5.62035962,25.9056548 6.56288636,30.8728626 C6.97035994,33.023847 8.53255895,34.5269929 9.3110548,36.490586 C10.0361755,38.3203281 9.76279068,40.3695858 8.77339797,42.0239832 C7.45203797,44.231185 10.8289915,46.2496569 12.1451442,44.0504862 C13.1905157,42.3037317 13.7437945,40.1995951 13.6018948,38.1449834 C13.4482785,35.9110115 12.5721452,34.1026855 11.4252308,32.2434961 C10.5126462,30.7657819 9.8916721,29.3429466 10.8042567,27.6845336 C11.6829936,26.0836765 13.3545466,25.3260803 15.0260995,24.9312201 C17.4748465,24.3529841 16.437286,20.4793383 13.9872372,21.0589128" id="Fill-6" fill="#FFFFFF"></path>
                    <g id="Group-10" transform="translate(84.423913, 0.000000)">
                        <mask id="mask-4" fill="white">
                            <use xlink:href="#path-3"></use>
                        </mask>
                        <g id="Clip-9"></g>
                        <path d="M10.4869333,18.176075 C10.2976,15.706925 9.24826667,13.688675 7.64693333,11.852675 C6.36026667,10.378475 4.46426667,8.939375 4.14826667,6.864425 C3.85626667,4.947425 5.9536,4.435775 7.3776,4.019975 C9.84693333,3.299075 8.79626667,-0.609175 6.31493333,0.114425 C4.14026667,0.748925 1.7856,1.666925 0.720266667,3.857975 C-0.447733333,6.256925 0.2736,9.085175 1.73893333,11.177675 C3.04826667,13.046075 5.1936,14.482475 6.0936,16.619525 C6.9296,18.606725 6.46293333,20.770775 5.2056,22.442075 C4.5496,23.312825 5.07093333,24.708725 5.92293333,25.213625 C6.95226667,25.822475 8.00293333,25.359425 8.65893333,24.487325 C9.9856,22.724225 10.6549333,20.387375 10.4869333,18.176075" id="Fill-8" fill="#FFFFFF" mask="url(#mask-4)"></path>
                    </g>
                </g>
            </g>
        </g>
    </g>
</svg>