<?xml version="1.0" encoding="UTF-8"?>
<svg width="219px" height="219px" viewBox="0 0 219 219" version="1.1" xmlns="http://www.w3.org/2000/svg" xmlns:xlink="http://www.w3.org/1999/xlink">
    <title>Group 16</title>
    <defs>
        <polygon id="path-1" points="0 0.440035714 118.902533 0.440035714 118.902533 36.287623 0 36.287623"></polygon>
        <polygon id="path-3" points="0.16756338 0.251625 93.0695352 0.251625 93.0695352 84 0.16756338 84"></polygon>
    </defs>
    <g id="Patient-PBD-ZSD-Layout-(DSK)" stroke="none" stroke-width="1" fill="none" fill-rule="evenodd">
        <g id="1.0-Understanding-PBD-ZSD" transform="translate(-143.000000, -5376.000000)">
            <g id="Group-16" transform="translate(143.000000, 5376.000000)">
                <circle id="Oval-Copy" fill="#A05FA6" cx="109.5" cy="109.5" r="109.5"></circle>
                <g id="Group-7" transform="translate(50.000000, 49.000000)">
                    <g id="Group-3">
                        <mask id="mask-2" fill="white">
                            <use xlink:href="#path-1"></use>
                        </mask>
                        <g id="Clip-2"></g>
                        <path d="M85.9865333,9.97268929 C87.4345333,9.91058214 88.6585333,11.0245464 88.7198667,12.4596179 C88.7212,12.484725 88.7225333,12.5111536 88.7225333,12.5362607 L88.7225333,24.1899393 C88.7225333,25.6276536 87.5452,26.7931536 86.0945333,26.7918333 C84.6452,26.7918333 83.4692,25.6263321 83.4692,24.1899393 L83.4692,12.5362607 C83.4878667,11.1566893 84.5932,10.0281893 85.9865333,9.97268929 L85.9865333,9.97268929 Z M68.2252,9.97268929 C69.6732,9.91586786 70.8932,11.032475 70.9518667,12.4675464 C70.9518667,12.4900107 70.9532,12.5137964 70.9532,12.5362607 L70.9532,24.1899393 C70.9345333,25.6250107 69.7452,26.7746536 68.2958667,26.7561536 C66.8732,26.738975 65.7238667,25.5999036 65.7052,24.1899393 L65.7052,12.5362607 C65.7238667,11.1553679 66.8305333,10.0281893 68.2252,9.97268929 L68.2252,9.97268929 Z M50.4665333,9.97268929 C51.9145333,9.91586786 53.1345333,11.032475 53.1918667,12.4675464 C53.1932,12.4900107 53.1932,12.5137964 53.1945333,12.5362607 L53.1945333,24.1899393 C53.1438667,25.6250107 51.9292,26.7469036 50.4812,26.6966893 C49.1038667,26.6491179 47.9985333,25.5536536 47.9505333,24.1899393 L47.9505333,12.5362607 C47.9678667,11.1566893 49.0732,10.0281893 50.4665333,9.97268929 L50.4665333,9.97268929 Z M32.7052,9.97268929 C34.1532,9.91586786 35.3745333,11.032475 35.4318667,12.4675464 C35.4318667,12.4900107 35.4332,12.5137964 35.4332,12.5362607 L35.4332,24.1899393 C35.4145333,25.6250107 34.2265333,26.7746536 32.7772,26.757475 C31.3532,26.738975 30.2038667,25.5999036 30.1852,24.1899393 L30.1852,12.5362607 C30.2038667,11.1553679 31.3105333,10.0281893 32.7052,9.97268929 L32.7052,9.97268929 Z M14.9358667,9.97268929 C16.3838667,9.91190357 17.6065333,11.0271893 17.6678667,12.4622607 C17.6692,12.4873679 17.6692,12.512475 17.6692,12.5362607 L17.6692,24.1899393 C17.6198667,25.6250107 16.4038667,26.7469036 14.9558667,26.6966893 C13.5785333,26.6491179 12.4732,25.5536536 12.4252,24.1899393 L12.4252,12.5362607 C12.4425333,11.1566893 13.5452,10.0321536 14.9358667,9.97268929 L14.9358667,9.97268929 Z M103.775867,9.94229643 C105.223867,9.89736786 106.4332,11.0271893 106.475867,12.4635821 C106.4772,12.4873679 106.4772,12.5137964 106.4772,12.5375821 L106.4772,24.1899393 C106.4772,25.6276536 105.3012,26.7918321 103.850533,26.7905118 C102.403867,26.7905118 101.2292,25.6263321 101.227867,24.1899393 L101.227867,12.5375821 C101.2292,11.1329036 102.3572,9.98326071 103.775867,9.94229643 L103.775867,9.94229643 Z M5.1972,0.439903571 C2.32786667,0.439903571 -0.000133333333,2.74579643 -0.000133333333,5.59083214 L-0.000133333333,5.59215357 L-0.000133333333,31.1380107 C-0.000133333333,33.981725 2.32653333,36.287623 5.19586667,36.287623 L5.1972,36.287623 L113.699867,36.287623 C116.5692,36.2915821 118.899867,33.9883321 118.902533,31.1432964 L118.902533,31.1380107 L118.902533,5.59215357 C118.902533,2.74711786 116.575867,0.441225 113.706533,0.439903571 L113.699867,0.439903571 L5.1972,0.439903571 Z" id="Fill-1" fill="#FFFFFF" mask="url(#mask-2)"></path>
                    </g>
                    <g id="Group-6" transform="translate(13.000000, 38.000000)">
                        <mask id="mask-4" fill="white">
                            <use xlink:href="#path-3"></use>
                        </mask>
                        <g id="Clip-5"></g>
                        <path d="M87.0350282,5.564125 L83.5200282,34.5730312 C72.443831,39.0620937 60.2704507,40.1856875 48.5466479,37.7910781 C45.7247465,37.216 43.0339718,36.1189687 40.618831,34.55975 C36.1926338,31.6989687 31.0586197,30.1012344 25.7800986,29.9418594 C20.097493,29.7731875 14.4991831,31.2859219 9.67960563,34.2715469 L6.20207042,5.564125 L87.0350282,5.564125 Z M0.16756338,0.251625 L9.76256338,79.4437344 C10.078338,82.0442031 12.3008028,83.9992031 14.9393944,84.0005312 L78.2977042,84.0005312 C80.9349577,83.9992031 83.1587606,82.0442031 83.4745352,79.4437344 L93.0695352,0.251625 L0.16756338,0.251625 Z" id="Fill-4" fill="#FFFFFF" mask="url(#mask-4)"></path>
                    </g>
                </g>
            </g>
        </g>
    </g>
</svg>