<?xml version="1.0" encoding="UTF-8"?>
<svg width="219px" height="219px" viewBox="0 0 219 219" version="1.1" xmlns="http://www.w3.org/2000/svg" xmlns:xlink="http://www.w3.org/1999/xlink">
    <title>Group 2</title>
    <defs>
        <polygon id="path-1" points="0 0.95145 86.472 0.95145 86.472 32.77995 0 32.77995"></polygon>
        <polygon id="path-3" points="0.00015 0.232877419 86.472 0.232877419 86.472 46.2125226 0.00015 46.2125226"></polygon>
        <polygon id="path-5" points="0 0.1706 86.472 0.1706 86.472 32 0 32"></polygon>
    </defs>
    <g id="Patient-PBD-ZSD-Layout-(DSK)" stroke="none" stroke-width="1" fill="none" fill-rule="evenodd">
        <g id="1.0-Understanding-PBD-ZSD" transform="translate(-143.000000, -4880.000000)">
            <g id="Group-2" transform="translate(143.000000, 4880.000000)">
                <circle id="Oval-Copy" fill="#A05FA6" cx="109.5" cy="109.5" r="109.5"></circle>
                <g id="Group-26" transform="translate(66.000000, 42.000000)">
                    <g id="Group-3" transform="translate(0.500000, 18.000000)">
                        <mask id="mask-2" fill="white">
                            <use xlink:href="#path-1"></use>
                        </mask>
                        <g id="Clip-2"></g>
                        <path d="M86.4732,9.55245 C86.4732,4.80945 82.6137,0.95145 77.8737,0.95145 L76.3917,0.95145 C76.3767,0.95145 76.3647,0.95895 76.3482,0.95895 L10.1247,0.95895 C10.1082,0.95895 10.0962,0.95145 10.0797,0.95145 L8.6022,0.95145 C3.8577,0.95145 -0.0003,4.80945 -0.0003,9.55245 L-0.0003,32.77995 L86.4732,32.77995 L86.4732,9.55245 Z" id="Fill-1" fill="#FFFFFF" mask="url(#mask-2)"></path>
                    </g>
                    <path d="M75.5,3.40821184 C75.5,1.5278191 73.955447,0 72.0511004,0 L15.9488996,0 C14.0460584,0 12.5,1.5278191 12.5,3.40821184 L12.5,15 L75.5,15 L75.5,3.40821184 Z" id="Fill-4" fill="#FFFFFF"></path>
                    <g id="Group-8" transform="translate(0.500000, 53.000000)">
                        <mask id="mask-4" fill="white">
                            <use xlink:href="#path-3"></use>
                        </mask>
                        <g id="Clip-7"></g>
                        <polygon id="Fill-6" fill="#FFFFFF" mask="url(#mask-4)" points="77.70165 46.2125226 86.47365 46.2125226 86.47365 39.7659419 86.47365 0.232877419 0.00015 0.232877419 0.00015 39.7659419 0.00015 46.2125226 8.77065 46.2125226"></polygon>
                    </g>
                    <g id="Group-11" transform="translate(0.500000, 103.000000)">
                        <mask id="mask-6" fill="white">
                            <use xlink:href="#path-5"></use>
                        </mask>
                        <g id="Clip-10"></g>
                        <path d="M76.2309,0.1706 L10.2399,0.1706 L-0.0006,0.1706 L-0.0006,23.3981 C-0.0006,28.1411 3.8574,32.0006 8.6019,32.0006 L9.4404,32.0006 L77.0319,32.0006 L77.8704,32.0006 C82.6149,32.0006 86.4729,28.1411 86.4729,23.3981 L86.4729,0.1706 L76.2309,0.1706 Z" id="Fill-9" fill="#FFFFFF" mask="url(#mask-6)"></path>
                    </g>
                    <path d="M15.9598936,81.8293135 L12.5177052,70.238961 L12.5,70.1721707 C12.5,70.0564007 12.5619682,70 12.6873802,70 L15.2944727,70 C15.4198847,70 15.4995581,70.0564007 15.5334931,70.1721707 L17.49287,77.9717996 C17.5046735,78.0059369 17.5223787,78.0237477 17.5445102,78.0237477 C17.5666417,78.0237477 17.5843469,78.0059369 17.594675,77.9717996 L19.5215923,70.1721707 C19.5555273,70.0564007 19.6352007,70 19.7606126,70 L22.316065,70 C22.383935,70 22.4355752,70.0237477 22.4695102,70.0682746 C22.5034452,70.1142857 22.5093469,70.1721707 22.48574,70.238961 L18.9933868,81.8293135 C18.9594518,81.9435993 18.8842046,82 18.7720716,82 L16.1812088,82 C16.0676004,82 15.9938286,81.9435993 15.9598936,81.8293135" id="Fill-12" fill="#0081A3"></path>
                    <path d="M23.5641293,81.9406308 C23.5218978,81.9005566 23.5,81.851577 23.5,81.793692 L23.5,70.206308 C23.5,70.148423 23.5218978,70.0994434 23.5641293,70.0593692 C23.6063608,70.0207792 23.6579771,70 23.717414,70 L26.282586,70 C26.3435871,70 26.3936392,70.0207792 26.4358707,70.0593692 C26.4781022,70.0994434 26.5,70.148423 26.5,70.206308 L26.5,81.793692 C26.5,81.851577 26.4781022,81.9005566 26.4358707,81.9406308 C26.3936392,81.9792208 26.3435871,82 26.282586,82 L23.717414,82 C23.6579771,82 23.6063608,81.9792208 23.5641293,81.9406308" id="Fill-14" fill="#0081A3"></path>
                    <path d="M36.4412794,70.0593692 C36.4799491,70.0994434 36.5,70.148423 36.5,70.206308 L36.5,72.2456401 C36.5,72.303525 36.4799491,72.3510204 36.4412794,72.3910946 C36.4026098,72.4326531 36.3553469,72.4504638 36.300923,72.4504638 L33.406429,72.4504638 C33.3505729,72.4504638 33.3233609,72.4801484 33.3233609,72.5365492 L33.3233609,81.793692 C33.3233609,81.851577 33.3047422,81.9005566 33.2660726,81.9406308 C33.2259707,81.9792208 33.18014,82 33.1257161,82 L30.7754615,82 C30.7210376,82 30.6737747,81.9792208 30.635105,81.9406308 C30.5964354,81.9005566 30.5778167,81.851577 30.5778167,81.793692 L30.5778167,72.5365492 C30.5778167,72.4801484 30.5491725,72.4504638 30.4947486,72.4504638 L27.699077,72.4504638 C27.6432209,72.4504638 27.5973902,72.4326531 27.5587206,72.3910946 C27.5200509,72.3510204 27.5,72.303525 27.5,72.2456401 L27.5,70.206308 C27.5,70.148423 27.5200509,70.0994434 27.5587206,70.0593692 C27.5973902,70.0207792 27.6432209,70 27.699077,70 L36.300923,70 C36.3553469,70 36.4026098,70.0207792 36.4412794,70.0593692" id="Fill-16" fill="#0081A3"></path>
                    <path d="M40.7205654,78.0400742 L43.2586135,78.0400742 C43.326452,78.0400742 43.3500481,78.0059369 43.326452,77.9376623 L42.0316198,73.5309833 C42.0212966,73.4864564 42.0035996,73.4656772 41.9800035,73.4716141 C41.9578822,73.477551 41.94166,73.496846 41.929862,73.5309833 L40.6527268,77.9376623 C40.6409288,78.0059369 40.6630501,78.0400742 40.7205654,78.0400742 M44.46791,81.8293135 L44.0254845,80.3020408 C44.0018884,80.2575139 43.9738681,80.2352505 43.9399488,80.2352505 L40.0554523,80.2352505 C40.021533,80.2352505 39.9935127,80.2575139 39.9713914,80.3020408 L39.5274911,81.8293135 C39.4935718,81.9435993 39.4139352,82 39.290056,82 L36.6841693,82 C36.614856,82 36.5647144,81.9792208 36.5307951,81.9406308 C36.4968759,81.9005566 36.4909768,81.8411874 36.5130981,81.7595547 L40.1586849,70.1706865 C40.1926042,70.0564007 40.2663418,70 40.3798977,70 L43.5992811,70 C43.712837,70 43.7865746,70.0564007 43.8204939,70.1706865 L47.482303,81.7595547 C47.494101,81.7818182 47.5,81.8115028 47.5,81.8456401 C47.5,81.9495362 47.4365857,82 47.3127065,82 L44.7068198,82 C44.5814659,82 44.5018293,81.9435993 44.46791,81.8293135" id="Fill-18" fill="#0081A3"></path>
                    <path d="M57.7685497,70 L60.2851321,70 C60.3454188,70 60.3948848,70.0207792 60.4381675,70.0593692 C60.4783586,70.0994434 60.5,70.148423 60.5,70.206308 L60.5,81.793692 C60.5,81.851577 60.4783586,81.9005566 60.4381675,81.9406308 C60.3948848,81.9792208 60.3454188,82 60.2851321,82 L57.75,82 C57.6897133,82 57.6402473,81.9792208 57.5985104,81.9406308 C57.5552277,81.9005566 57.5366779,81.851577 57.5366779,81.793692 L57.5366779,74.9038961 C57.5366779,74.8564007 57.5243114,74.8341373 57.4995784,74.8341373 C57.4763912,74.8341373 57.453204,74.8519481 57.4284711,74.8860853 L55.8934795,77.2519481 C55.8455593,77.3424861 55.7620854,77.3884972 55.6430579,77.3884972 L54.3770377,77.3884972 C54.2564643,77.3884972 54.1729904,77.3424861 54.1266161,77.2519481 L52.5730748,74.8682746 C52.5483418,74.8341373 52.5236088,74.8163265 52.5019674,74.8163265 C52.4772344,74.8163265 52.4648679,74.8400742 52.4648679,74.8860853 L52.4648679,81.793692 C52.4648679,81.851577 52.4447723,81.9005566 52.4014896,81.9406308 C52.3597527,81.9792208 52.3118325,82 52.2515458,82 L49.7148679,82 C49.6545812,82 49.6051152,81.9792208 49.5633783,81.9406308 C49.5216414,81.9005566 49.5,81.851577 49.5,81.793692 L49.5,70.206308 C49.5,70.148423 49.5216414,70.0994434 49.5633783,70.0593692 C49.6051152,70.0207792 49.6545812,70 49.7148679,70 L52.2329961,70 C52.3396571,70 52.423131,70.0445269 52.4834177,70.1365492 L54.9659921,73.8738404 C55.0015458,73.942115 55.0355537,73.942115 55.0711074,73.8738404 L57.5181282,70.1365492 C57.5645025,70.0445269 57.6495222,70 57.7685497,70" id="Fill-20" fill="#0081A3"></path>
                    <path d="M61.5625978,81.9406308 C61.5203443,81.9005566 61.5,81.851577 61.5,81.793692 L61.5,70.206308 C61.5,70.148423 61.5203443,70.0994434 61.5625978,70.0593692 C61.6032864,70.0207792 61.6564945,70 61.7159624,70 L64.2824726,70 C64.3419405,70 64.3951487,70.0207792 64.4358372,70.0593692 C64.4780908,70.0994434 64.5,70.148423 64.5,70.206308 L64.5,81.793692 C64.5,81.851577 64.4780908,81.9005566 64.4358372,81.9406308 C64.3951487,81.9792208 64.3419405,82 64.2824726,82 L61.7159624,82 C61.6564945,82 61.6032864,81.9792208 61.5625978,81.9406308" id="Fill-22" fill="#0081A3"></path>
                    <path d="M73.6131959,70.0593692 C73.6547216,70.0207792 73.7054752,70 73.7654568,70 L76.2862196,70 C76.3462012,70 76.3969548,70.0207792 76.4384805,70.0593692 C76.4784682,70.0994434 76.5,70.148423 76.5,70.206308 L76.5,81.793692 C76.5,81.851577 76.4784682,81.9005566 76.4384805,81.9406308 C76.3969548,81.9792208 76.3462012,82 76.2862196,82 L73.871578,82 C73.7531529,82 73.6701015,81.9554731 73.6224239,81.8619666 L69.5375269,75.3135436 C69.5129191,75.2808905 69.4883113,75.2660482 69.4667795,75.2719852 C69.4421716,75.2779221 69.4298677,75.303154 69.4298677,75.3476809 L69.4483236,81.793692 C69.4483236,81.851577 69.4267918,81.9005566 69.3852661,81.9406308 C69.3452784,81.9792208 69.2929868,82 69.2345432,82 L66.7122424,82 C66.6537988,82 66.6015072,81.9792208 66.5615195,81.9406308 C66.5199938,81.9005566 66.5,81.851577 66.5,81.793692 L66.5,70.206308 C66.5,70.148423 66.5199938,70.0994434 66.5615195,70.0593692 C66.6015072,70.0207792 66.6537988,70 66.7122424,70 L69.1468779,70 C69.265303,70 69.3483544,70.0445269 69.394494,70.1365492 L73.4624731,76.6686456 C73.4870809,76.7027829 73.5101507,76.716141 73.5332205,76.7102041 C73.5578284,76.7057514 73.5701323,76.6805195 73.5701323,76.6345083 L73.5516764,70.206308 C73.5516764,70.148423 73.5732082,70.0994434 73.6131959,70.0593692" id="Fill-24" fill="#0081A3"></path>
                </g>
            </g>
        </g>
    </g>
</svg>