<?xml version="1.0" encoding="UTF-8"?>
<svg width="219px" height="219px" viewBox="0 0 219 219" version="1.1" xmlns="http://www.w3.org/2000/svg" xmlns:xlink="http://www.w3.org/1999/xlink">
    <title>Group 4</title>
    <defs>
        <polygon id="path-1" points="0.132641176 0.590586207 51.5775588 0.590586207 51.5775588 43.7657586 0.132641176 43.7657586"></polygon>
        <polygon id="path-3" points="0.0474444444 0.895810345 27.7347778 0.895810345 27.7347778 45 0.0474444444 45"></polygon>
        <polygon id="path-5" points="0 135 135 135 135 0 0 0"></polygon>
    </defs>
    <g id="Patient-PBD-ZSD-Layout-(DSK)" stroke="none" stroke-width="1" fill="none" fill-rule="evenodd">
        <g id="1.0-Understanding-PBD-ZSD" transform="translate(-610.000000, -4880.000000)">
            <g id="Group-4" transform="translate(610.000000, 4880.000000)">
                <circle id="Oval-Copy" fill="#A05FA6" cx="109.5" cy="109.5" r="109.5"></circle>
                <g id="Group-48" transform="translate(42.000000, 42.000000)">
                    <path d="M95,76 L95,128.663603 C95,132.164435 97.8646553,135 101.397888,135 C104.932693,135 107.800494,132.164435 107.800494,128.663603 L107.800494,81.0510444 L110.199506,81.0510444 L110.199506,128.663603 C110.199506,132.164435 113.064161,135 116.597393,135 C120.133772,135 123,132.164435 123,128.663603 L123,76 L95,76 Z" id="Fill-1" fill="#FFFFFF"></path>
                    <path d="M83.2332542,85.0935512 C83.3613797,87.2959587 85.2964035,89 87.6075908,89 C87.6897226,89 87.7702117,88.9984523 87.8523434,88.9953568 C90.2703019,88.8699914 92.1248367,86.9245056 91.9934259,84.644712 C91.9244353,83.4591574 91.8685857,82.3122958 91.8225919,81.1932932 L83,80 C83.0558496,81.6343938 83.1314108,83.327601 83.2332542,85.0935512" id="Fill-3" fill="#FFFFFF"></path>
                    <g id="Group-7" transform="translate(83.000000, 36.000000)">
                        <mask id="mask-2" fill="white">
                            <use xlink:href="#path-1"></use>
                        </mask>
                        <g id="Clip-6"></g>
                        <path d="M8.45675882,38.0585172 C8.43493529,24.3335172 10.2494059,16.730069 11.9906118,12.8802414 L11.9906118,39.5093793 L39.7329941,39.5093793 L39.7329941,13.3054138 C40.1320529,14.2054138 40.5342294,15.2854138 40.9177,16.595069 C42.2224353,21.0252414 43.2590529,27.945931 43.2543765,38.3424828 C43.2543765,40.0524828 43.2263176,41.8602414 43.1686412,43.7642069 L51.5270529,42.5693793 C51.5597882,41.1092069 51.5784941,39.6986897 51.5784941,38.3424828 C51.5551118,21.7607586 49.1825824,12.7343793 46.0010235,7.32817241 C44.4063471,4.64213793 42.5295235,2.88868966 40.7322,1.88937931 C39.0439941,0.939724138 37.5085529,0.696103448 36.5623471,0.67437931 C36.3067,0.620068966 36.0417,0.590586207 35.7689059,0.590586207 L32.3223471,0.590586207 C31.8250824,5.61351724 20.1307882,5.61351724 19.6335235,0.590586207 L15.9531412,0.590586207 C15.6787882,0.590586207 15.4091118,0.620068966 15.1503471,0.677482759 C15.0770824,0.67437931 15.0116118,0.669724138 14.9274353,0.669724138 C13.9999353,0.663517241 12.3772,0.89162069 10.6172882,1.90955172 C7.94546471,3.43955172 5.27675882,6.56472414 3.37187647,12.0842069 C1.45296471,17.6362759 0.138876471,25.7285172 0.132641176,38.0585172 C0.132641176,39.5016207 0.152905882,41.0067931 0.190317647,42.5693793 L8.55184706,43.7657586 C8.48793529,41.7562759 8.45675882,39.8523103 8.45675882,38.0585172" id="Fill-5" fill="#FFFFFF" mask="url(#mask-2)"></path>
                    </g>
                    <path d="M126.005842,84.6470083 C125.888968,86.9264099 127.539809,88.8700138 129.690284,88.9953576 C129.761869,88.9984525 129.831993,89 129.902117,89 C131.960555,89 133.68298,87.2931568 133.79401,85.0911279 C133.884587,83.3254814 133.950329,81.6341128 134,80 L126.154856,81.1946355 C126.11395,82.3118982 126.06574,83.46011 126.005842,84.6470083" id="Fill-8" fill="#FFFFFF"></path>
                    <path d="M114.440192,31.5002185 C118.348296,29.3871028 121,25.2545103 121,20.5007803 C121,13.5964792 115.404732,8 108.5,8 C101.596829,8 96,13.5964792 96,20.5007803 C96,25.3341033 98.745349,29.5244397 102.762704,31.6032212 C104.481084,32.4943505 106.430453,33 108.5,33 C110.650705,33 112.67343,32.4553343 114.440192,31.5002185" id="Fill-10" fill="#FFFFFF"></path>
                    <g id="Group-14" transform="translate(34.000000, 90.000000)">
                        <mask id="mask-4" fill="white">
                            <use xlink:href="#path-3"></use>
                        </mask>
                        <g id="Clip-13"></g>
                        <path d="M0.0474444444,0.895810345 L0.0474444444,38.6865 C0.0474444444,42.1763276 2.88011111,45.0004655 6.37388889,45.0004655 C9.86922222,45.0004655 12.705,42.1763276 12.705,38.6865 L12.705,5.9265 L15.0772222,5.9265 L15.0772222,38.6865 C15.0772222,42.1763276 17.9098889,45.0004655 21.4036667,45.0004655 C24.9005556,45.0004655 27.7347778,42.1763276 27.7347778,38.6865 L27.7347778,0.895810345 L0.0474444444,0.895810345 Z" id="Fill-12" fill="#FFFFFF" mask="url(#mask-4)"></path>
                    </g>
                    <path d="M22.2332542,93.0935512 C22.3613797,95.2959587 24.2964035,97 26.6075908,97 C26.6897226,97 26.7702117,96.9984523 26.8523434,96.9953568 C29.2703019,96.8699914 31.1248367,94.9245056 30.9934259,92.644712 C30.9244353,91.4591574 30.8685857,90.3122958 30.8225919,89.1932932 L22,88 C22.0558496,89.6343938 22.1314108,91.327601 22.2332542,93.0935512" id="Fill-15" fill="#FFFFFF"></path>
                    <path d="M30.2680106,81.8177904 C30.2463341,68.0641521 31.9974802,67.1747139 33.7254015,63.3168534 L33.7254015,90 L61.2823401,90 L61.2823401,63.742913 C61.6787091,64.6447909 62.0781748,65.7270444 62.460609,67.0378773 C63.7550017,71.4804035 64.7366344,71.6825485 64.7335378,82.1023484 C64.7335378,83.8159164 64.7041197,85.6274471 64.6452837,87.5353854 L72.9489056,86.3380647 C72.9829685,84.8732905 73,83.4613851 73,82.1007934 C72.9767753,65.4860253 70.6682352,63.169132 67.5081211,57.7516447 C65.9241932,55.0600056 64.06002,53.3028986 62.274811,52.3030581 C60.5979842,51.3514214 59.0728923,51.1072924 58.1330641,51.0855229 C57.8791402,51.0295443 57.6159264,51 57.344971,51 L53.9200947,51 C53.42773,56.0349667 41.812259,56.0349667 41.318346,51 L37.6627706,51 C37.3902669,51 37.1224081,51.0295443 36.8653875,51.0870779 C36.7926167,51.0855229 36.7275874,51.080858 36.6439783,51.080858 C35.7211816,51.0746382 34.109384,51.3016626 32.3628829,52.3232726 C29.7090683,53.85802 27.0583503,56.9866034 25.1663074,62.5191579 C23.2603297,68.0828117 22.0061933,69.4620629 22,81.8177904 C22,83.2639049 22.0201281,84.772218 22.0572877,86.3380647 L30.3624579,87.5369403 C30.2989769,85.5232646 30.2680106,83.6153263 30.2680106,81.8177904" id="Fill-17" fill="#FFFFFF"></path>
                    <path d="M65.0057058,92.6470083 C64.8902911,94.9248624 66.5396987,96.8700138 68.6902106,96.9938102 C68.7617969,96.9984525 68.8333832,97 68.9035086,97 C70.96052,97 72.6844358,95.2931568 72.7954676,93.0895805 C72.8860462,91.3254814 72.9517888,89.6325653 73,88 L65.1561832,89.1946355 C65.1138158,90.3118982 65.0656046,91.46011 65.0057058,92.6470083" id="Fill-19" fill="#FFFFFF"></path>
                    <path d="M53.4401923,46.5016856 C57.3482957,44.388438 60,40.2540267 60,35.5 C60,28.5968286 54.4047322,23 47.5,23 C40.5968286,23 35,28.5968286 35,35.5 C35,40.3351854 37.745349,44.5242227 41.7627045,46.603134 C43.4810838,47.4943189 45.4304532,48 47.5,48 C49.6507055,48 51.6734299,47.456861 53.4401923,46.5016856" id="Fill-21" fill="#FFFFFF"></path>
                    <mask id="mask-6" fill="white">
                        <use xlink:href="#path-5"></use>
                    </mask>
                    <g id="Clip-24"></g>
                    <polygon id="Fill-23" fill="#FFFFFF" mask="url(#mask-6)" points="10 134 12 134 12 0 10 0"></polygon>
                    <polygon id="Fill-25" fill="#FFFFFF" mask="url(#mask-6)" points="3 2 11 2 11 0 3 0"></polygon>
                    <polygon id="Fill-26" fill="#FFFFFF" mask="url(#mask-6)" points="3 8 11 8 11 6 3 6"></polygon>
                    <polygon id="Fill-27" fill="#FFFFFF" mask="url(#mask-6)" points="0 14 11 14 11 12 0 12"></polygon>
                    <polygon id="Fill-28" fill="#FFFFFF" mask="url(#mask-6)" points="3 20 11 20 11 18 3 18"></polygon>
                    <polygon id="Fill-29" fill="#FFFFFF" mask="url(#mask-6)" points="3 26 11 26 11 24 3 24"></polygon>
                    <polygon id="Fill-30" fill="#FFFFFF" mask="url(#mask-6)" points="0 32 11 32 11 30 0 30"></polygon>
                    <polygon id="Fill-31" fill="#FFFFFF" mask="url(#mask-6)" points="3 38 11 38 11 36 3 36"></polygon>
                    <polygon id="Fill-32" fill="#FFFFFF" mask="url(#mask-6)" points="3 44 11 44 11 42 3 42"></polygon>
                    <polygon id="Fill-33" fill="#FFFFFF" mask="url(#mask-6)" points="0 50 11 50 11 48 0 48"></polygon>
                    <polygon id="Fill-34" fill="#FFFFFF" mask="url(#mask-6)" points="3 56 11 56 11 54 3 54"></polygon>
                    <polygon id="Fill-35" fill="#FFFFFF" mask="url(#mask-6)" points="3 62 11 62 11 60 3 60"></polygon>
                    <polygon id="Fill-36" fill="#FFFFFF" mask="url(#mask-6)" points="0 68 11 68 11 66 0 66"></polygon>
                    <polygon id="Fill-37" fill="#FFFFFF" mask="url(#mask-6)" points="3 74 11 74 11 72 3 72"></polygon>
                    <polygon id="Fill-38" fill="#FFFFFF" mask="url(#mask-6)" points="3 80 11 80 11 78 3 78"></polygon>
                    <polygon id="Fill-39" fill="#FFFFFF" mask="url(#mask-6)" points="0 86 11 86 11 84 0 84"></polygon>
                    <polygon id="Fill-40" fill="#FFFFFF" mask="url(#mask-6)" points="3 92 11 92 11 90 3 90"></polygon>
                    <polygon id="Fill-41" fill="#FFFFFF" mask="url(#mask-6)" points="3 98 11 98 11 96 3 96"></polygon>
                    <polygon id="Fill-42" fill="#FFFFFF" mask="url(#mask-6)" points="0 104 11 104 11 102 0 102"></polygon>
                    <polygon id="Fill-43" fill="#FFFFFF" mask="url(#mask-6)" points="3 110 11 110 11 108 3 108"></polygon>
                    <polygon id="Fill-44" fill="#FFFFFF" mask="url(#mask-6)" points="3 116 11 116 11 114 3 114"></polygon>
                    <polygon id="Fill-45" fill="#FFFFFF" mask="url(#mask-6)" points="0 122 11 122 11 120 0 120"></polygon>
                    <polygon id="Fill-46" fill="#FFFFFF" mask="url(#mask-6)" points="3 128 11 128 11 126 3 126"></polygon>
                    <polygon id="Fill-47" fill="#FFFFFF" mask="url(#mask-6)" points="3 134 11 134 11 132 3 132"></polygon>
                </g>
            </g>
        </g>
    </g>
</svg>