<?xml version="1.0" encoding="UTF-8"?>
<svg width="816px" height="736px" viewBox="0 0 816 736" version="1.1" xmlns="http://www.w3.org/2000/svg" xmlns:xlink="http://www.w3.org/1999/xlink">
    <title>HERO_3_HCP</title>
    <defs>
        <polygon id="path-1" points="0 731 655 731 655 0 0 0"></polygon>
    </defs>
    <g id="Patient-PBD-ZSD-Layout-(DSK)" stroke="none" stroke-width="1" fill="none" fill-rule="evenodd">
        <g id="4.1-TotalCareHub" transform="translate(-610.000000, -185.000000)">
            <g id="HERO_3_HCP" transform="translate(610.000000, 185.000000)">
                <rect id="Rectangle" x="0" y="1" width="816" height="735"></rect>
                <g id="Group-105">
                    <path d="M41,725 C41,725 41,713.737194 42.6152978,709.992762 C44.2310989,706.24783 50.1526828,691 50.1526828,691 L73.3039417,691 C73.3039417,691 77.6112346,704.910319 77.8805347,709.458057 C78.1493316,714.005296 77.8805347,725 77.8805347,725 L41,725 Z" id="Fill-1" fill="#233862"></path>
                    <path d="M188,725 C188,725 188,713.737194 186.384702,709.992762 C184.769404,706.24783 178.84631,691 178.84631,691 L155.696058,691 C155.696058,691 151.388765,704.910319 151.119465,709.458057 C150.850668,714.005296 151.119465,725 151.119465,725 L188,725 Z" id="Fill-3" fill="#233862"></path>
                    <path d="M42.7359673,330 C42.7359673,330 46.8294097,454.428263 40.7088307,525.424583 C34.5882517,596.420397 40.7530869,695.224702 40.7530869,695.224702 C40.7530869,695.224702 60.3285623,705.969122 81.5476207,695.224702 C81.5476207,695.224702 104.81925,558.068013 104.67173,525.424583 C104.515053,490.661944 130,335.423861 130,335.423861 L42.7359673,330 Z" id="Fill-5" fill="#2B478B"></path>
                    <path d="M188.243243,695.225839 C188.243243,695.225839 168.672592,705.967701 147.453293,695.225839 C147.453293,695.225839 124.18501,558.14804 124.332529,525.522639 C124.398149,510.850951 119.893232,474.69402 114.661403,437.830581 C107.503692,387.399753 99,335.634859 99,335.634859 L189.647723,330 C189.647723,330 182.170557,454.573209 188.293094,525.522639 C194.412578,596.48219 188.243243,695.225839 188.243243,695.225839" id="Fill-7" fill="#2B478B"></path>
                    <path d="M123.947379,525 C124.014873,510.318223 119.381274,474.134676 114,437.245123 C119.581143,415.208024 133.181091,394 133.181091,394 C150.390182,440.723492 123.947379,525 123.947379,525" id="Fill-9" fill="#233862"></path>
                    <path d="M60.598529,127 C60.598529,127 27.2145704,131.004787 19.8861142,161.304721 C12.5566507,191.604147 -16.2711958,268.599121 12.5566507,286 C12.5566507,286 43.0942353,244.6635 54.6977922,211.347766 C66.3018528,178.030505 60.598529,127 60.598529,127" id="Fill-11" fill="#9C7761"></path>
                    <path d="M176.171602,144.205739 C176.171602,144.205739 209.744427,139.952295 217.069544,170.125099 C224.393655,200.297397 247.815608,267.67213 219.002876,285 C219.002876,285 186.426162,245.271639 174.827682,212.095688 C163.230209,178.917711 176.171602,144.205739 176.171602,144.205739" id="Fill-13" fill="#9C7761"></path>
                    <path d="M94.84631,84.3334377 C94.84631,84.3334377 94.0238977,109.895332 90.768241,121.347607 L65,139.411631 L162,154 L138.866421,121.878872 C138.866421,121.878872 131.882258,87.6051521 135.545316,74.9261753 C139.208374,62.2471984 94.84631,84.3334377 94.84631,84.3334377" id="Fill-15" fill="#9C7761"></path>
                    <path d="M96,89 C96.0009929,88.99343 103.505595,107.398824 117.644988,106.993399 C131.782891,106.587468 135,90.3087871 135,90.3087871 L96,89 Z" id="Fill-17" fill="#926D5A"></path>
                    <path d="M86.7147035,73 C86.7147035,73 82.037043,49.8620909 78.7719383,42.8543449 C75.5083596,35.8465989 72.7870152,4.58262743 108.96818,2.96537774 C108.96818,2.96537774 122.841441,4.58262743 130.458662,0 C130.458662,0 130.458662,4.58262743 128.55423,6.19886917 C128.55423,6.19886917 141.067328,3.2339954 150.860098,14.014988 C160.653887,24.7964846 144.333958,62.5294548 145.149344,71.4235721 L86.7147035,73 Z" id="Fill-19" fill="#6A330D"></path>
                    <path d="M115.499497,99.9977644 C105.114732,99.8120183 86,85.8306838 86,68.5155893 L86,41.4953907 C86,35.1729004 90.3604538,30 95.6902329,30 L135.309767,30 C140.639546,30 145,35.1729004 145,41.4953907 L145,66.9858561 C145,85.143169 127.410219,100.210991 115.499497,99.9977644" id="Fill-21" fill="#9C7761"></path>
                    <path d="M85.3321779,55 C85.3321779,55 85.387488,38.7872372 98.2092773,36.293396 C111.032589,33.8000631 139.729385,44.1962349 143.800512,32.3724699 C147.87113,20.5507378 88.3295781,20.7545344 85.3321779,28.2970445 C82.3347776,35.8385381 85.3321779,55 85.3321779,55" id="Fill-23" fill="#6A330D"></path>
                    <path d="M194,200.877165 L189.862708,385.558745 C115.125681,398.445531 35,388.013347 35,388.013347 L42.4398369,237.044464 C42.244438,234.860066 42.0966233,232.614948 42.0348651,230.319736 C41.9488086,227.299933 42.0105668,223.729603 42.194829,219.752956 C43.6922119,188.0764 53.2697933,131.069022 60.5749771,128.000643 C60.5749771,128.000643 71.4282194,123.975421 90.6193234,122 C90.6193234,122.380511 101.755033,138.653949 114.965717,140.470486 C123.180569,137.230067 129.626706,134.457192 138.613535,122.528263 C143.880699,123.14204 149.418181,123.902051 155.299889,125.019297 C155.729159,125.092667 156.171085,125.178686 156.613516,125.264706 C163.059148,126.52768 169.923418,128.210127 177.26505,130.566059 C177.26505,130.566059 186.756574,134.247708 184.656796,200.386852 L194,200.877165 Z" id="Fill-25" fill="#7A9C49"></path>
                    <path d="M106,81.7064317 C106,81.7064317 109.387714,86.1544954 115.303039,85.9958553 C121.218891,85.8377269 124,81.7064317 124,81.7064317 C124,81.7064317 114.018153,80.1169603 106,81.7064317" id="Fill-27" fill="#FFFFFF"></path>
                    <path d="M12.7285332,286.011197 C46.6201654,295.181156 65.6903428,271.482732 145,238.715012 L142.595359,226 C142.595359,226 51.411741,227.064584 35.4297039,235.76275 C14.6550795,247.067469 9.94293346,285.257753 12.7285332,286.011197" id="Fill-29" fill="#9C7761"></path>
                    <path d="M77,124 L77,124.012163 L69.0353618,147.698537 L68.6676467,148.780005 L68.5576853,149.10029 L67.9826576,150.833477 L58.1098353,180.185648 L57.1317838,183.112301 L46.2677954,215.438255 C45.2514087,215.537584 44.2481367,215.623736 43.2700852,215.696713 C14.9958718,217.688357 1,209.219055 1,209.219055 C1,209.219055 6.81131074,171.421907 20.880322,149.911644 C30.0812698,135.836853 51.258935,129.089081 64.8018464,126.102629 C65.242701,126.016476 65.6578306,125.917654 66.0744735,125.831502 C72.559172,124.466744 77,124 77,124" id="Fill-31" fill="#7A9C49"></path>
                    <path d="M168.867259,127 C168.867259,127 193.792983,130.714881 210.261927,150.600782 C226.730367,170.486172 231,205.169802 231,205.169802 C231,205.169802 208.127362,215.080577 181.288376,212.602117 C154.450395,210.124679 168.867259,127 168.867259,127" id="Fill-33" fill="#7A9C49"></path>
                    <mask id="mask-2" fill="white">
                        <use xlink:href="#path-1"></use>
                    </mask>
                    <g id="Clip-36"></g>
                    <polygon id="Fill-35" fill="#667F3B" mask="url(#mask-2)" points="138 193 173 193 173 180 138 180"></polygon>
                    <path d="M58.6904365,208.138183 L60.3027484,207.39154 C60.2041682,207.174757 50.4952686,185.413223 57.0310864,161.878603 C58.9296311,155.040848 64.7823932,149.837036 71.593435,148.928562 C78.0111568,148.072015 83.8288903,151.210335 87.5564232,157.534867 C96.4071246,172.551409 80.3010199,208.898942 80.1373868,209.263944 L81.7542023,210 C81.7962365,209.907237 85.959624,200.564373 88.9350449,189.433801 C92.9713291,174.342141 93.0213698,163.301812 89.0831655,156.621351 C84.9758235,149.65151 78.5130651,146.202636 71.3607457,147.155979 C63.8546384,148.155704 57.4088938,153.879292 55.3211952,161.396638 C48.6052307,185.5806 58.5888539,207.916862 58.6904365,208.138183" id="Fill-37" fill="#A05FA6" mask="url(#mask-2)"></path>
                    <path d="M83.9068459,210.173633 C84.2788322,208.843341 83.5034932,207.464524 82.1738507,207.093474 C80.8442081,206.720463 79.4650654,207.497365 79.0930792,208.826676 C78.7210929,210.155497 79.497412,211.534804 80.8270546,211.906835 C82.155717,212.278865 83.5348597,211.503434 83.9068459,210.173633" id="Fill-38" fill="#A05FA6" mask="url(#mask-2)"></path>
                    <path d="M61.9064915,209.173736 C62.2794998,207.843985 61.5030935,206.46473 60.1733017,206.092713 C58.8435098,205.721677 57.4642122,206.497569 57.0931645,207.82585 C56.7211365,209.155601 57.4965625,210.534857 58.8263544,210.906873 C60.1561462,211.27889 61.5354438,210.502998 61.9064915,209.173736" id="Fill-39" fill="#A05FA6" mask="url(#mask-2)"></path>
                    <path d="M75.6201811,149 C75.5747134,149 75.5287349,148.994274 75.4822455,148.982821 C75.1486458,148.905776 74.9402098,148.568442 75.0153081,148.229025 C75.0541344,148.051509 79.0466028,130.42321 87.9168817,120.212613 C88.1431982,119.951284 88.5350374,119.927858 88.7914954,120.158994 C89.0469316,120.38961 89.0714535,120.789413 88.8441152,121.049181 C80.1822723,131.019271 76.2628587,148.333661 76.2240324,148.507014 C76.1576189,148.80114 75.9032044,149 75.6201811,149" id="Fill-40" fill="#A05FA6" mask="url(#mask-2)"></path>
                    <path d="M79,218.066138 C79,218.066138 44.370392,216.07077 44,234 L76.0164002,232.527488 L79,218.066138 Z" id="Fill-41" fill="#9C7761" mask="url(#mask-2)"></path>
                    <path d="M169.894351,225.237699 C169.894351,225.237699 195.411055,218.572589 199.687093,236.176181 C203.963132,253.779774 163,236.176181 163,236.176181 L169.894351,225.237699 Z" id="Fill-42" fill="#926D5A" mask="url(#mask-2)"></path>
                    <path d="M158.373666,151 C158.119395,151 157.879565,150.844439 157.786212,150.594012 C151.730633,134.186672 141.258057,122.143709 141.153357,122.023851 C140.926937,121.766283 140.954273,121.375085 141.215249,121.151179 C141.476225,120.927784 141.872332,120.954816 142.098236,121.213404 C142.204999,121.334792 152.82302,133.539947 158.962152,150.169152 C159.080262,150.489454 158.912639,150.845459 158.588739,150.962257 C158.517564,150.986739 158.444841,151 158.373666,151" id="Fill-43" fill="#A05FA6" mask="url(#mask-2)"></path>
                    <path d="M164,152 C164,148.687036 161.312571,146 157.999747,146 C154.686416,146 152,148.687036 152,152 C152,155.313977 154.686416,158 157.999747,158 C161.312571,158 164,155.313977 164,152" id="Fill-44" fill="#A05FA6" mask="url(#mask-2)"></path>
                    <path d="M161,151.999444 C161,150.34291 159.657397,149 158,149 C156.343715,149 155,150.34291 155,151.999444 C155,153.656534 156.343715,155 158,155 C159.657397,155 161,153.656534 161,151.999444" id="Fill-45" fill="#6C4472" mask="url(#mask-2)"></path>
                    <path d="M105.171876,256 C105.171876,256 95.4670617,244.087812 72,229 L111.838775,236.671342 L124,246.849269 L118.457844,249.723261 L105.171876,256 Z" id="Fill-46" fill="#926D5A" mask="url(#mask-2)"></path>
                    <polygon id="Fill-47" fill="#926D5A" mask="url(#mask-2)" points="146 228.561362 181 226 178.558103 236"></polygon>
                    <path d="M218.694895,285 C218.694895,285 147.902663,277.355531 65,225.329494 L78.639188,218 C78.639188,218 187.36783,229.742686 200.992255,239.926195 C222.371448,255.904836 234.726235,281.280057 218.694895,285" id="Fill-48" fill="#9C7761" mask="url(#mask-2)"></path>
                    <path d="M44,233 C44,233 67.4037221,229.220289 66.9947005,228.930938 C66.5856789,228.642064 58.4896797,226.324866 56.6306284,227.193875 C54.7730938,228.062406 44,233 44,233" id="Fill-49" fill="#926D5A" mask="url(#mask-2)"></path>
                    <path d="M403.411177,384 C403.411177,384 410.401127,408.609802 408.746638,414.762506 C407.093667,420.914702 399.72818,432.398262 396.455136,431.989367 C393.18108,431.578442 396.455136,392.613684 396.455136,392.613684 L403.411177,384 Z" id="Fill-50" fill="#FFB27D" mask="url(#mask-2)"></path>
                    <path d="M285.056946,194.217725 C282.499433,189.323633 340.84581,171.699859 341.770684,220 C341.770684,220 451.071055,217.333477 398.881522,156.880853 C380.814702,135.952305 382.673602,118.648413 383.215103,102.541302 C383.76474,86.4301552 371.961538,39.6128733 331.506057,44.3273465 C331.506057,44.3273465 320.910429,40.0482961 307.689155,46.8561286 C277.620329,62.3355846 210.261135,212.029695 285.056946,194.217725" id="Fill-51" fill="#163560" mask="url(#mask-2)"></path>
                    <path d="M408.98134,391.73498 C408.98134,391.73498 408.381989,394.68097 402.402831,396.167126 C399.642153,396.854018 395.728801,397.223532 390.206951,396.854018 C389.03151,396.767967 387.770448,396.658125 386.437622,396.498171 C383.904609,396.216226 381.095924,395.78597 377.974942,395.185636 L380.171408,261.964103 L371,158 C371,158 390.579628,167.465639 400.182114,198.158607 C407.552994,221.731086 408.7903,323.252851 408.970452,369.107546 C409.029843,382.969393 408.98134,391.73498 408.98134,391.73498" id="Fill-52" fill="#0081A3" mask="url(#mask-2)"></path>
                    <path d="M409.980142,391.702959 C409.980142,391.702959 409.342299,394.666866 402.979139,396.162061 C400.041162,396.85313 395.876481,397.224892 390,396.85313 L391.878768,297 C391.878768,297 393.424656,351.52215 409.968554,368.937908 C410.031759,382.88406 409.980142,391.702959 409.980142,391.702959" id="Fill-53" fill="#035D72" mask="url(#mask-2)"></path>
                    <path d="M211.067556,674.265119 C211.067556,674.265119 198.939539,685.377225 201.30624,693.274145 C203.67294,701.169549 214.616852,706.433657 216.094969,716.084269 C217.574094,725.735386 223.489586,731 228.813529,731 L254.195772,731 C254.195772,731 258.1151,724.207162 248.649306,722.161273 C239.185526,720.113867 235.615589,708.773261 236.208145,698.246056 C236.799191,687.71784 235.321073,673.679713 235.321073,673.679713 L215.208401,669 L211.067556,674.265119 Z" id="Fill-54" fill="#23417C" mask="url(#mask-2)"></path>
                    <path d="M315.688099,679 C315.688099,679 311.3116,726.353381 316.652181,729 L385,728.859661 C385,728.859661 385,720.917261 374.022392,719.152848 C363.044784,717.386401 343.758596,710.915532 340.49516,696.502771 C337.230714,682.088994 315.688099,679 315.688099,679" id="Fill-55" fill="#23417C" mask="url(#mask-2)"></path>
                    <path d="M371.763141,292 C371.763141,292 391.690629,353.478779 392.96942,374.41059 C394.250254,395.342401 354.87789,671.765822 353.294722,681.41116 C351.801948,690.502197 340.41182,696.298815 340.41182,696.298815 C340.41182,696.298815 335.173067,699.360884 327.69745,697.268715 C317.325147,694.365597 314.045946,690.889448 314.045946,690.889448 C314.045946,690.889448 298.536008,493.745705 308.134091,423.322183 C317.732174,352.899168 317.845549,292 317.845549,292 L371.763141,292 Z" id="Fill-56" fill="#233862" mask="url(#mask-2)"></path>
                    <path d="M287.576998,290 C287.576998,290 257.329467,330.466495 254.51007,357.82065 C251.690166,385.176831 250.086342,481.262714 244.078608,507.930266 C238.071891,534.596804 216,585.916691 216,669.091908 C216,669.091908 218.293428,673.859617 225.378,676.399794 C227.643478,677.211556 230.678344,677.998996 233.624786,678.67293 C239.46736,680.008639 245.459848,677.161391 248.12679,671.808929 C263.049061,641.851764 310.582928,545.229267 313.018647,525.172864 C314.743419,510.978174 324.87048,425.780647 357.607597,370.657335 C365.467656,357.423889 364.994538,299.738612 364.994538,299.738612 L287.576998,290 Z" id="Fill-57" fill="#2B478B" mask="url(#mask-2)"></path>
                    <path d="M262.455684,210.167935 C262.455684,210.167935 261.430395,224.610951 262.455684,241.939929 C263.136333,253.427399 274.74798,268.815641 276.394532,272.621433 C280.529693,282.167659 285.191711,283.720858 285.191711,283.720858 L321.259534,292.566671 L324.282105,311.889716 C324.282105,311.889716 354.545373,324.825246 375.538917,304.800773 C393.808341,287.3758 392.147576,232.843714 384.834021,204.204528 C377.51945,175.565342 366.344313,155.675975 366.344313,155.675975 C366.344313,155.675975 339.233552,144.970183 291.221118,152.964735 L262.455684,210.167935 Z" id="Fill-58" fill="#2B478B" mask="url(#mask-2)"></path>
                    <path d="M303.866905,151 C303.866905,151 288.870405,153.538799 279.729566,156.612645 L273,240 L335,240 L311.703919,178.055747 L303.866905,151 Z" id="Fill-59" fill="#0081A3" mask="url(#mask-2)"></path>
                    <path d="M336,239.544098 L329.109375,495.754243 C329.109375,495.754243 294.705074,512.057196 229,495.754243 L245.946829,223 L336,239.544098 Z" id="Fill-60" fill="#0081A3" mask="url(#mask-2)"></path>
                    <path d="M229.748316,298.78589 L275.879058,339.028463 C279.212746,341.937156 284.267567,341.586534 287.169456,338.246774 L346.033461,270.524159 C348.93434,267.18541 348.585871,262.12138 345.252688,259.213193 L299.121441,218.971632 C295.788259,216.062939 290.731922,216.413561 287.830538,219.75231 L228.967038,287.474924 C226.065654,290.813673 226.413618,295.878715 229.748316,298.78589" id="Fill-61" fill="#A05FA6" mask="url(#mask-2)"></path>
                    <path d="M298.108124,293 C298.773918,293.175667 322.995382,295.992942 323,300.946146 C323.003589,306.675129 315.899905,314.34965 309.208111,313.987654 C306.496205,313.841434 294,302.467241 294,302.467241 L298.108124,293 Z" id="Fill-62" fill="#FFB27D" mask="url(#mask-2)"></path>
                    <path d="M310.704429,149.996452 C313.385725,143.41734 314.95048,133.399503 314.907056,121 L316.687932,121.354877 L346.628404,127.350435 C346.628404,127.350435 345.9471,136.880127 345.927135,145.857563 C345.927135,145.932274 345.926137,146.006985 345.926137,146.081696 C345.889201,153.877891 351.134499,161.701344 338.768194,164.793269 C334.946898,165.748864 305.07231,163.810921 310.704429,149.996452" id="Fill-63" fill="#FFB27D" mask="url(#mask-2)"></path>
                    <path d="M347,128.117246 C347,128.117246 346.295102,137.840355 346.273914,147 C328.926916,146.512248 319.757043,130.741424 316,122 L347,128.117246 Z" id="Fill-64" fill="#E8945B" mask="url(#mask-2)"></path>
                    <path d="M352.628124,136.998315 C352.628124,136.998315 312.478933,137.663533 312.450623,112.560796 C312.423829,87.459581 307.222366,70.639854 332.856597,69.1536412 C358.489817,67.6679359 363.479967,77.24079 365.519806,85.6171643 C367.559645,93.9930311 363.070482,136.178335 352.628124,136.998315" id="Fill-65" fill="#FFB27D" mask="url(#mask-2)"></path>
                    <path d="M351,68.0022599 C351,68.0022599 340.018794,96.8783783 323.165422,101.148601 C306.310535,105.416834 299,100.968498 299,100.968498 C299,100.968498 311.927652,90.851409 314.610959,73.1919014 C314.610959,73.1919014 342.717757,54.2592376 351,68.0022599" id="Fill-66" fill="#163560" mask="url(#mask-2)"></path>
                    <path d="M348,70.688863 C348,70.688863 356.421248,73.6745797 359.886148,79.499873 C363.275327,85.1983463 366.162657,92.7431389 365.493698,102 C365.493698,102 374.048111,82.4573524 364.433601,71.4022249 C354.238387,59.6783207 348,70.688863 348,70.688863" id="Fill-67" fill="#163560" mask="url(#mask-2)"></path>
                    <path d="M299,293.291504 C299,293.291504 304.651935,291.596048 308.428714,292.090323 C312.205993,292.583665 315,292.019912 315,293.006596 C315,293.995146 310.123596,294.455847 309.08789,294.930537 C308.050687,295.405228 299,293.291504 299,293.291504" id="Fill-68" fill="#FFB27D" mask="url(#mask-2)"></path>
                    <path d="M291.068715,153 C291.068715,153 262.571475,155.009948 251.648324,181.720958 C240.725679,208.432985 220,253.280309 220,260.82537 C220,268.370431 231.57672,291.628479 293.752241,305 C293.752241,305 300.183303,298.194751 299.793082,292.814211 C299.793082,292.814211 260.981274,259.280664 261.085906,255.359917 C261.283544,247.947056 267.448729,238.161206 301.524308,203.873102 C310.788514,194.55046 291.068715,153 291.068715,153" id="Fill-69" fill="#0081A3" mask="url(#mask-2)"></path>
                    <path d="M321.7703,195.828522 C321.7703,195.828522 310.973421,166.253728 313.083924,144 C313.083924,144 304.659256,146.12463 300.299488,152.399974 C300.299488,152.399974 298.325706,186.43644 304.512332,202.226922 C304.512332,202.226922 313.728247,202.640002 315.738761,201.555475 C315.738761,201.555475 311.718754,208.367977 312.33706,209.142055 C312.953835,209.915112 336,240 336,240 L321.7703,195.828522 Z" id="Fill-70" fill="#035D72" mask="url(#mask-2)"></path>
                    <path d="M367.936248,226.114061 L374.716912,488.992414 C374.716912,488.992414 390.75133,489.606752 400,479.77836 L391.565864,194.946925 C391.565864,194.946925 382.739714,160.672141 365.369094,156.335817 L348,152 L367.936248,226.114061 Z" id="Fill-71" fill="#0081A3" mask="url(#mask-2)"></path>
                    <path d="M346,147 C346,147 346.01129,151.101547 347.072589,158.439549 C349.949079,178.325944 371.31003,218.202036 368.886183,236 C368.886183,236 371.132976,205.028743 371.132976,198.445404 L364.909392,194.126567 L373,190.834135 C373,190.834135 357.898044,153.461208 346,147" id="Fill-72" fill="#035D72" mask="url(#mask-2)"></path>
                    <polygon id="Fill-73" fill="#035D72" mask="url(#mask-2)" points="314.559207 400 255 395.42837 255.441806 389 315 393.57163"></polygon>
                    <path d="M254.913592,395 C254.913592,395 250.60801,432.059884 254.913592,435.450592 C259.22018,438.841301 304.193063,443.156702 308.3755,439.766502 C312.557434,436.37681 314,399.335735 314,399.335735 L254.913592,395 Z" id="Fill-74" fill="#8C9DF4" mask="url(#mask-2)"></path>
                    <path d="M443.153107,221.092964 C441.984719,223.319971 434.205289,306.851364 440.317091,317.843743 C446.427894,328.834105 475.276798,296.89234 475.991924,242.98094 C476.595608,197.563719 443.153107,221.092964 443.153107,221.092964" id="Fill-75" fill="#713C1A" mask="url(#mask-2)"></path>
                    <polygon id="Fill-76" fill="#2B478B" mask="url(#mask-2)" points="386 351.269637 501.708488 387 527 305.729353 411.292019 270"></polygon>
                    <path d="M441,704.57126 L452.920077,709 C452.920077,709 504.688054,637.353016 511.062033,574.314462 C512.201892,563.060127 511.821432,552.155575 509.359092,542.086759 C509.359092,542.086759 509.865358,539.202434 510.75107,534.10551 C511.159431,531.725866 511.66519,528.861282 512.240446,525.580097 C513.923603,515.957242 516.239845,502.790485 518.886328,487.797359 C524.976738,453.297832 532.869008,409.19418 539,376.772603 L535.788407,375.742993 L501.039692,364.5575 L493.857615,341.797754 L467.983265,335 C467.983265,335 462.203818,346.282176 457.036152,399.58145 C456.083479,406.573585 455.216536,414.281992 454.564681,422.643397 C452.550777,448.161931 452.40468,479.816616 457.026513,516.004319 C458.214564,525.268784 459.713071,534.833425 461.571747,544.660278 C462.933795,551.864004 463.137721,561.681745 462.56348,572.955316 C459.956565,624.486941 441,704.57126 441,704.57126" id="Fill-77" fill="#0081A3" mask="url(#mask-2)"></path>
                    <path d="M454,422.596953 L510.561978,534 C510.973072,531.621617 511.482727,528.758551 512.061323,525.47961 C513.756257,515.861349 516.088005,502.701569 518.752202,487.716389 C524.88338,453.23565 532.827968,409.155369 539,376.750467 L535.76742,375.721908 L500.786105,364.541837 L493.555952,341.794152 L467.508405,335 C467.508405,335 461.690272,346.276198 456.488014,399.547227 C455.528964,406.535657 454.656219,414.239979 454,422.596953" id="Fill-78" fill="#035D72" mask="url(#mask-2)"></path>
                    <path d="M480,349.31479 L481.293639,338.166372 C502.958185,343.951522 560.843616,322 560.843616,322 C560.843616,322 581.83083,340.549089 579.07611,385.010416 C577.730019,406.711446 575.274374,498.930047 572.707774,526.21847 C571.780792,536.108343 570.969305,543.14646 570.636439,545.95765 C570.628874,545.970327 570.628874,545.977933 570.628874,545.984525 C570.528509,546.842485 570.826576,547.652275 571.259302,548.401215 C575.036829,554.847076 578.165267,561.558641 580.730858,568.426382 C605.91622,635.902555 576.85095,719 576.85095,719 L569.309513,715.943895 C569.309513,715.943895 552.770098,623.466689 539.331382,582.612143 C537.049735,575.683553 534.86341,570.237633 532.859152,566.984278 C527.015333,557.501582 521.593144,542.010118 516.670759,523.58374 C507.369166,488.747089 499.880686,443.427294 494.898284,408.44765 C494.210865,408.479595 480,349.31479 480,349.31479" id="Fill-79" fill="#0081A3" mask="url(#mask-2)"></path>
                    <path d="M533,725 L592.672469,725 C592.672469,725 594.102559,716.07727 590.986213,709.306682 C587.998959,702.811667 583.321415,699.859522 584.441888,692 C580.650334,695.830317 574.470087,700.119758 565.842651,698.98036 C564.78622,700.662494 559.019468,709.66092 555.488618,712.149488 C551.589656,714.898787 534.199137,713.919686 533,725" id="Fill-80" fill="#233862" mask="url(#mask-2)"></path>
                    <path d="M404,725 L463.370714,725 C463.370714,725 465.590255,715.163108 461.692512,708.467058 C458.241788,702.545012 459.56378,699.171187 462.118961,694.26968 C459.430326,695.413747 455.951005,696.454092 452.119989,696.226321 C449.162441,696.049108 446.034313,694.655379 443.290992,693 C440.735811,696.026175 429.794638,708.909569 426.37502,711.461959 C422.495338,714.358352 405.19506,713.326867 404,725" id="Fill-81" fill="#233862" mask="url(#mask-2)"></path>
                    <path d="M544.331677,41.2361337 C544.806247,39.617642 550.545014,22.347797 577.687433,28.2088527 C577.687433,28.2088527 564.056711,26.4459074 560.297956,31.6614993 C560.297956,31.6614993 571.127236,26.7744887 577.88002,30.9254976 C584.632292,35.0765065 585.688708,48.9623713 584.662432,53.1825552 C583.634623,57.4032477 576.109451,69.9478296 571.158908,69.9290099 C569.283618,69.9213803 567.283171,69.2932102 565.5172,68.5144828 C566.267112,70.7524976 566.940398,73.1843042 567.499256,75.8500851 C572.659243,100.50131 556.134106,119.159233 547.646512,114.499584 C542.202499,111.510308 538.036095,121 538.036095,121 L493,61.0730834 C493,61.0730834 524.696551,23.4525625 544.331677,41.2361337" id="Fill-82" fill="#4A0F00" mask="url(#mask-2)"></path>
                    <path d="M506.651377,200.465677 C543.063049,212.116324 548.877524,153.602894 546.55363,153.303334 C542.633585,149.713722 537.420659,135.863915 537.581771,115 L535.803061,115.343012 L505.989972,121.270318 C505.989972,121.270318 506.62544,130.889476 506.617459,139.93405 C506.60449,147.011034 506.186997,153.74245 504.764927,155.287793 C502.448515,155.617514 501.055874,155.842951 501.055874,155.842951 C501.055874,155.842951 501.052881,155.852152 501.039414,155.869022 C500.597978,156.496769 496.937807,197.360679 506.651377,200.465677" id="Fill-83" fill="#713C1A" mask="url(#mask-2)"></path>
                    <path d="M506,122.024178 C506,122.024178 506.666438,131.796121 506.651398,141 C523.987084,140.57746 533.211935,124.767307 537,116 L506,122.024178 Z" id="Fill-84" fill="#572000" mask="url(#mask-2)"></path>
                    <path d="M500.196576,130.996875 C500.196576,130.996875 540.34612,131.821085 540.471537,106.698507 C540.597461,81.5759286 545.863941,64.7622594 520.235297,63.1745341 C494.605638,61.5857888 489.577805,71.1468226 487.505132,79.5225454 C485.431951,87.8982681 489.755521,130.135433 500.196576,130.996875" id="Fill-85" fill="#713C1A" mask="url(#mask-2)"></path>
                    <path d="M488.438426,65.5775922 C494.621235,58.1856056 499.265137,59.8314952 501.861696,62.071567 C523.66614,50.2610076 537.616474,67.9022611 537.616474,67.9022611 C540.209006,85.6045846 553,95.7897779 553,95.7897779 C553,95.7897779 545.725811,100.218362 529.015816,95.8748756 C523.912808,94.5483527 519.364552,90.9201873 515.503946,86.5261426 C522.229425,97.8346256 531.410509,106 531.410509,106 C511.467652,96.7373658 503.552127,69.0731053 502.765809,66.149749 C500.326817,68.3097289 495.517797,73.0046189 494.038796,77.6199176 C492.030214,83.891618 491.086834,96.8119515 487.299726,96.3584308 C487.299726,96.3584308 479.166226,76.66382 488.438426,65.5775922" id="Fill-86" fill="#4A0F00" mask="url(#mask-2)"></path>
                    <path d="M543.279555,147 C543.279555,147 549.657534,149.008605 550,153.360417 C550,153.360417 532.907509,184.242595 514,186 L543.279555,147 Z" id="Fill-87" fill="#667F3B" mask="url(#mask-2)"></path>
                    <path d="M455.242876,297.154604 L440.76848,379.551837 C449.310755,384.771921 457.564758,389.25018 465.495025,393.092805 C467.685183,386.652021 471.750375,379.361197 472.00521,378.916709 C470.849082,383.155278 473.766253,392.531 475.599744,397.692932 C549.427777,429.441744 594,405.048482 594,405.048482 C582.921539,323.658554 591.133492,189.65667 589.142946,180.081711 C585.357919,161.89106 549.823454,154 549.823454,154 C536.828415,176.727063 514.290509,187.248645 514.290509,187.248645 C505.813589,178.894892 503.607726,156.507137 503.607726,156.507137 L488.794395,160.142436 C479.218596,162.492814 470.345999,167.19357 463.248124,174.022206 C462.611798,174.640141 461.976991,175.275269 461.373089,175.926073 C454.052804,183.743305 435,234.170239 435,234.170239 C435,234.170239 438.995278,248.024726 446.343934,255.00102 C450.102616,258.566536 454.994628,261.943434 460.803638,265.481137 L455.242876,297.154604 Z" id="Fill-88" fill="#7A9C49" mask="url(#mask-2)"></path>
                    <path d="M514,186 C514,186 504.780911,155.90623 505.850172,152 C505.850172,152 498.623062,152.881505 498,157.006493 C498,157.006493 506.167009,182.122173 514,186" id="Fill-89" fill="#667F3B" mask="url(#mask-2)"></path>
                    <path d="M510,116.039838 C510,116.039838 508.155007,120.201317 505.565204,120.66082 C502.974876,121.120864 498.903313,121.105187 497.986582,120.66082 C497.069327,120.217535 495.622161,117.285903 495,116.379329 C495,116.379329 499.648124,115.853874 509.388846,116.039838 L510,116.039838 Z" id="Fill-90" fill="#FFFFFF" mask="url(#mask-2)"></path>
                    <path d="M446,254.639857 C449.916043,258.021924 454.702036,261.502464 460.545523,265 C460.545523,265 471.705533,224.062788 468.381687,221.210575 C465.057841,218.357362 458.949343,245.280937 446,254.639857" id="Fill-91" fill="#667F3B" mask="url(#mask-2)"></path>
                    <path d="M607.958005,208 C607.958005,208 659.672131,278.340649 654.657535,302.2328 C650.66339,321.261585 598.331116,365 598.331116,365 L584.823071,356.292204 C584.823071,356.292204 617.500278,308.985227 614.635519,295.122505 C612.406134,284.337857 580,243.464414 580,243.464414 L607.958005,208 Z" id="Fill-92" fill="#713C1A" mask="url(#mask-2)"></path>
                    <path d="M572.326001,161 C572.326001,161 601.169062,176.541467 626,225.880514 C626,225.880514 611.350705,245.435667 582.184595,254.926187 C553.019504,264.416196 554.003937,207.882574 554.003937,207.882574 L572.326001,161 Z" id="Fill-93" fill="#7A9C49" mask="url(#mask-2)"></path>
                    <polygon id="Fill-94" fill="#667F3B" mask="url(#mask-2)" points="513 217 477.233303 217.086958 477 246.229914 492.692948 255 512.186495 247.53074"></polygon>
                    <path d="M588.053558,356.900489 C588.053558,356.900489 573.560803,351.322563 565.458344,353.507441 C560.881844,354.742063 552.38996,371.089736 557.678394,373.557961 C562.966828,376.02517 568.945058,367.285147 575.453591,368.930801 C581.962626,370.575946 590.017287,380.140575 598,364.767069 L588.053558,356.900489 Z" id="Fill-95" fill="#713C1A" mask="url(#mask-2)"></path>
                    <path d="M587,355.015098 C587,355.015098 581.209449,352.372745 578.592556,350.533025 C575.974616,348.691721 574.387002,351.972484 578.592556,355.015098 C582.79654,358.057712 584.303046,356.696404 584.303046,356.696404 L587,355.015098 Z" id="Fill-96" fill="#713C1A" mask="url(#mask-2)"></path>
                    <path d="M389.746246,353.241447 C389.746246,353.241447 406.565417,345.344242 409.988779,354.202882 C413.41214,363.059484 407.500044,370.490231 401.866018,368.743558 C396.232508,366.999939 386.183334,361.065832 389.746246,353.241447" id="Fill-97" fill="#713C1A" mask="url(#mask-2)"></path>
                    <path d="M556.624936,247 L555.355394,245.753133 C555.518805,245.578704 571.684118,228.157558 573.202007,203.626381 C573.644062,196.500125 569.849837,189.602554 563.76239,186.465865 C558.025606,183.508677 551.555706,184.545619 546.008658,189.305415 C532.837896,200.608852 536.125992,240.503008 536.160761,240.904602 L534.40744,241.063819 C534.398003,240.960886 533.530284,230.698955 534.356281,219.135902 C535.475823,203.457022 539.015245,192.957279 544.874215,187.929247 C550.986994,182.682165 558.162196,181.56612 564.555605,184.859998 C571.264911,188.31715 575.447548,195.903819 574.961784,203.739963 C573.40118,228.946547 556.790831,246.822021 556.624936,247" id="Fill-98" fill="#A05FA6" mask="url(#mask-2)"></path>
                    <path d="M532.00492,240.3417 C532.092662,238.964569 533.28036,237.917381 534.658246,238.005137 C536.035642,238.091912 537.082169,239.278824 536.994917,240.657916 C536.908156,242.035537 535.720949,243.081745 534.343062,242.994969 C532.965176,242.908194 531.91914,241.720302 532.00492,240.3417" id="Fill-99" fill="#A05FA6" mask="url(#mask-2)"></path>
                    <path d="M553.005135,245.341883 C553.090945,243.963666 554.279043,242.917379 555.658375,243.005141 C557.037216,243.091433 558.082625,244.278926 557.994854,245.658123 C557.909044,247.034869 556.721436,248.082628 555.342104,247.994865 C553.965225,247.908573 552.917364,246.721081 553.005135,245.341883" id="Fill-100" fill="#A05FA6" mask="url(#mask-2)"></path>
                    <path d="M560.941149,185 C560.915007,185 560.891043,184.999491 560.865989,184.997457 C560.502714,184.957792 560.242377,184.651658 560.284314,184.314504 C560.30501,184.142113 562.327258,166.881647 557.049154,154.850377 C556.91136,154.53509 557.073118,154.17556 557.411339,154.046903 C557.747382,153.916211 558.133532,154.068261 558.272415,154.383548 C563.679598,166.709764 561.618137,184.277381 561.596351,184.452824 C561.557682,184.768111 561.27229,185 560.941149,185" id="Fill-101" fill="#A05FA6" mask="url(#mask-2)"></path>
                    <path d="M485.605051,190 L485.583082,190 C485.249049,189.987012 484.988414,189.705782 485.000397,189.371103 C485.658477,172.046219 491.774922,157.513157 491.837834,157.368296 C491.96965,157.060092 492.326151,156.918228 492.631724,157.048103 C492.939293,157.178978 493.082593,157.535136 492.951277,157.842342 C492.890861,157.986204 486.860795,172.323953 486.210704,189.418058 C486.197723,189.743746 485.929598,190 485.605051,190" id="Fill-102" fill="#A05FA6" mask="url(#mask-2)"></path>
                    <path d="M480.291222,191.840921 C479.274086,188.687115 481.006609,185.307494 484.159275,184.29133 C487.312447,183.274153 490.691931,185.005733 491.708054,188.159033 C492.726709,191.312839 490.994186,194.69246 487.84152,195.708624 C484.68936,196.725801 481.308358,194.994727 480.291222,191.840921" id="Fill-103" fill="#A05FA6" mask="url(#mask-2)"></path>
                    <path d="M483.145868,190.91972 C482.636688,189.344415 483.503294,187.653491 485.079752,187.145436 C486.655097,186.63738 488.345508,187.502853 488.854132,189.080381 C489.363312,190.655687 488.496706,192.345499 486.920248,192.854666 C485.344347,193.362721 483.653936,192.496136 483.145868,190.91972" id="Fill-104" fill="#6C4472" mask="url(#mask-2)"></path>
                </g>
            </g>
        </g>
    </g>
</svg>