<?xml version="1.0" encoding="UTF-8"?>
<svg width="219px" height="219px" viewBox="0 0 219 219" version="1.1" xmlns="http://www.w3.org/2000/svg" xmlns:xlink="http://www.w3.org/1999/xlink">
    <title>Group 2</title>
    <defs>
        <polygon id="path-1" points="0.000115491228 0.0411569343 110.667263 0.0411569343 110.667263 63 0.000115491228 63"></polygon>
    </defs>
    <g id="Patient-PBD-ZSD-Layout-(DSK)" stroke="none" stroke-width="1" fill="none" fill-rule="evenodd">
        <g id="4.1-TotalCareHub" transform="translate(-202.000000, -2627.000000)">
            <g id="Group-2" transform="translate(202.000000, 2627.000000)">
                <g id="Group-4" fill="#A05FA6">
                    <circle id="Oval-Copy" cx="109.5" cy="109.5" r="109.5"></circle>
                </g>
                <g id="Group-6" transform="translate(54.000000, 38.000000)">
                    <path d="M32.0266764,39.9557333 L33.2690437,38.3187874 L33.2690437,34.6523227 C39.6397935,32.250917 46.0959703,32.0169363 52.9338134,31.7834152 L54.3355529,31.7406643 C58.0093779,31.613331 62.5645719,31.4538195 65.6973586,29.338799 C66.9034424,28.4267797 68.0392556,27.4251214 69.0946937,26.3420985 C69.5622464,28.7435041 71.0379309,33.8451121 78.4494216,37.8089943 L78.4494216,38.3187874 L79.691789,39.9557333 C80.6581258,41.2414783 85.1494791,48.0007181 77.2387449,54.388071 L75.7419334,55.6209519 L75.21054,57.4592408 C75.0194772,58.1179725 70.3903383,73.4218769 55.8539509,73.9105244 C41.3919678,73.4430225 36.751806,58.2563383 36.5074661,57.4698136 L35.9976591,55.6209519 L34.4898247,54.388071 C26.9194212,48.27699 30.7204683,41.751731 32.0266764,39.9557333 M30.6570869,59.1279051 C30.6570869,59.1279051 36.3692211,79.5007798 55.8539509,80 C75.3386807,79.5007798 81.0508149,59.1279051 81.0508149,59.1279051 C93.9732729,48.6916278 84.5335772,36.2786958 84.5335772,36.2786958 L84.5335772,22.8774364 C84.5804243,17.5197827 82.3854987,12.3869161 78.4815716,8.72137077 C72.3721554,2.96011176 64.2460163,-0.169438332 55.8539509,0.00708153192 C47.4651005,-0.168518958 39.343095,2.96103113 33.237353,8.72137077 C29.3329667,12.3869161 27.1380411,17.5197827 27.1848882,22.8774364 L27.1848882,36.2786958 C27.1848882,36.2786958 17.7557561,48.6916278 30.6570869,59.1279051" id="Fill-1" fill="#FFFFFF"></path>
                    <g id="Group-5" transform="translate(0.860397, 80.000000)">
                        <mask id="mask-2" fill="white">
                            <use xlink:href="#path-1"></use>
                        </mask>
                        <g id="Clip-4"></g>
                        <path d="M106.440157,19.7196898 C105.891605,16.3337847 103.75451,13.4137117 100.690265,11.8630839 L97.6591817,10.3294708 C97.6757627,10.3202737 97.6914224,10.3096971 97.7080033,10.3005 L77.4332315,0.0411569343 L77.4166506,0.0862226277 L77.3277585,0.0411569343 L62.5053436,39.3076314 L58.7354888,15.5731861 L61.2484183,10.1726606 C61.3198083,10.0061934 61.2428913,9.8135146 61.076161,9.74223723 C61.0328664,9.72384307 60.9863477,9.71464599 60.939829,9.71556569 L60.8334349,9.71556569 L49.8338415,9.71556569 L49.7279079,9.71556569 C49.6809286,9.71464599 49.63441,9.72384307 49.5911154,9.74223723 C49.4243851,9.8135146 49.347468,10.0061934 49.4188581,10.1726606 L51.9317876,15.5731861 L48.1619328,39.3076314 L33.3395178,0.0411569343 L33.2510863,0.0862226277 L33.2340448,0.0411569343 L12.9597336,10.3005 C12.9763145,10.3096971 12.9915137,10.3202737 13.0085552,10.3294708 L9.9774722,11.8630839 C6.91322739,13.4137117 4.77613195,16.3337847 4.22758008,19.7196898 L0.20486639,44.6833248 C-1.34360664,54.2910547 6.08786639,63.0002299 15.8346797,63.0002299 L94.8330573,63.0002299 C104.57941,63.0002299 112.011344,54.2910547 110.46241,44.6833248 L106.440157,19.7196898 Z" id="Fill-3" fill="#FFFFFF" mask="url(#mask-2)"></path>
                    </g>
                </g>
            </g>
        </g>
    </g>
</svg>