<?xml version="1.0" encoding="UTF-8"?>
<svg width="219px" height="219px" viewBox="0 0 219 219" version="1.1" xmlns="http://www.w3.org/2000/svg" xmlns:xlink="http://www.w3.org/1999/xlink">
    <title>Group 17</title>
    <defs>
        <polygon id="path-1" points="0.294264905 0 129.294265 0 129.294265 142 0.294264905 142"></polygon>
    </defs>
    <g id="Patient-PBD-ZSD-Layout-(DSK)" stroke="none" stroke-width="1" fill="none" fill-rule="evenodd">
        <g id="4.1-TotalCareHub" transform="translate(-609.000000, -3917.000000)">
            <g id="Group-18" transform="translate(28.000000, 3917.000000)">
                <g id="Group-17" transform="translate(581.000000, 0.000000)">
                    <g id="Group-4-Copy-2" fill="#A05FA6">
                        <circle id="Oval-Copy" cx="109.5" cy="109.5" r="109.5"></circle>
                    </g>
                    <g id="Group-3" transform="translate(45.000000, 39.000000)">
                        <mask id="mask-2" fill="white">
                            <use xlink:href="#path-1"></use>
                        </mask>
                        <g id="Clip-2"></g>
                        <path d="M89.9896468,48.0666153 L89.8051161,54.8015274 L88.9603426,65.5336471 C88.2366053,68.8051741 86.9806062,71.9265947 85.2345095,74.7651986 C85.2176438,74.7925358 85.199786,74.818879 85.1829203,74.8457193 C84.9567214,75.2110448 84.7201055,75.5699087 84.478033,75.9257904 C84.3872558,76.0585005 84.2954865,76.1902165 84.2022291,76.3214354 C84.0251391,76.5729384 83.8420966,76.8214592 83.6570699,77.0679918 C83.5449625,77.2166072 83.4343433,77.3667137 83.3192597,77.513838 C83.1074463,77.7847256 82.8886881,78.0506428 82.6669537,78.3145718 C82.4779586,78.5397316 82.284995,78.760418 82.0890552,78.9801103 C81.9179179,79.1729624 81.7462845,79.3653175 81.5691946,79.5536962 C81.4035138,79.7301459 81.2348567,79.9026193 81.0652076,80.0750927 C80.9054794,80.2376253 80.7427749,80.3981697 80.5790784,80.557223 C80.4044687,80.7262171 80.229859,80.8957082 80.0507849,81.061223 C79.8568293,81.240655 79.6574171,81.4146195 79.458501,81.5890811 C79.3220872,81.7088681 79.1891457,81.8311403 79.0502517,81.9484421 C78.4172916,82.4688445 78.0482303,83.2447263 78.0442618,84.0653418 L78.0442618,95.6394497 C78.0442618,95.8149054 78.0626157,95.9878758 78.075017,96.1608462 L78.0735288,96.1608462 L78.0760091,96.1757575 C78.2248241,98.1032844 79.1519419,99.883687 80.6485254,101.113865 L66.148482,120.060589 C65.8210888,120.456731 65.3647226,120.682885 64.8909947,120.728406 C64.8587514,120.728406 64.8260121,120.728406 64.7942649,120.728406 C64.7625177,120.728406 64.7297784,120.728406 64.6975351,120.728406 C64.2238072,120.682885 63.767441,120.456731 63.4400479,120.060589 L48.9593504,101.139214 C50.6126857,99.7957106 51.5913927,97.7836867 51.593873,95.6394497 L51.593873,84.0653418 C51.5899046,83.2447263 51.2208432,82.4688445 50.5873871,81.9484421 C50.4489891,81.8311403 50.3160477,81.7088681 50.1796339,81.5890811 C49.9802217,81.4146195 49.7808095,81.240655 49.5873499,81.061223 C49.4077797,80.8957082 49.2331701,80.7262171 49.0585604,80.557223 C48.8948638,80.3981697 48.7326554,80.2376253 48.5729273,80.0750927 C48.4032781,79.9026193 48.2336289,79.7301459 48.0684442,79.5536962 C47.8918503,79.3653175 47.720217,79.1729624 47.5485836,78.9801103 C47.3531398,78.760418 47.1596802,78.5397316 46.9706851,78.3145718 C46.7494467,78.0506428 46.5306886,77.7847256 46.3188751,77.513838 C46.2032954,77.3667137 46.0931723,77.2166072 45.9805689,77.0679918 C45.7950461,76.8214592 45.6129957,76.5729384 45.4354097,76.3214354 C45.3426483,76.1902165 45.250383,76.0585005 45.1601019,75.9257904 C44.9180294,75.5699087 44.6814134,75.2110448 44.4552145,74.8457193 C44.4383488,74.818879 44.420491,74.7925358 44.4036253,74.7651986 C42.6575286,71.9265947 41.4015295,68.8051741 40.6777922,65.5336471 L39.8330187,54.8015274 L39.6484881,48.0666153 L39.5894581,44.9576208 C39.5830094,44.792603 39.6063238,44.6310646 39.6430315,44.4735024 L39.6425355,44.4735024 C39.8097044,43.8089579 40.250693,43.2338809 40.8757163,42.9083188 C46.3342527,40.2551113 50.932142,36.1082942 54.1371224,30.9475125 C54.1966484,30.845619 54.2655994,30.74969 54.3439753,30.6612166 C55.023068,29.8883171 56.198707,29.8132639 56.9705611,30.4937137 C70.5836668,42.2527211 82.3192225,43.4456206 88.1031678,43.0927212 C88.6220364,43.0579283 89.131976,43.2408395 89.5119504,43.5967212 C89.7584874,43.8392775 89.9197037,44.1474432 89.9965915,44.4784728 C90.0109769,44.5376208 90.0189137,44.5987569 90.0293308,44.6588989 C90.041236,44.7573131 90.0521491,44.8567214 90.0481807,44.9576208 L89.9896468,48.0666153 Z M108.471981,96.8114736 L106.080027,96.1608462 L100.006885,96.1608462 C100.357096,95.8661007 100.719213,95.5852722 101.101171,95.3367515 L100.794612,95.2532485 C110.034539,87.1887504 114.082805,74.6762281 111.323278,62.7139308 L103.661782,30.5106131 C103.005508,27.2182103 101.931559,24.0421152 100.482597,21.0504225 C99.1710399,17.3797712 97.0067729,14.0297116 94.1088476,11.3059242 C86.197839,3.8373789 75.6766142,-0.219473682 64.8106346,0.00916540062 C53.9481272,-0.218479599 43.4313669,3.83837299 35.5253188,11.3059242 C32.6745183,13.9854749 30.5340617,17.2719132 29.2155602,20.8729787 L29.2180405,20.8729787 C27.7184807,23.9263045 26.6083204,27.1739736 25.9376605,30.5444119 L22.6711699,44.4735024 L22.6543042,44.4735024 L18.314857,62.7139308 C15.5548337,74.6762281 19.6030994,87.1887504 28.8430265,95.2532485 L28.5364675,95.3367515 C28.9189222,95.5852722 29.2805428,95.8661007 29.6307542,96.1608462 L23.5089987,96.1608462 L21.1165486,96.8114736 C8.72670268,100.611853 0.273015139,112.083073 0.294305025,125.066791 L0.294305025,135.146295 C0.294305025,138.924804 3.34703824,141.990556 7.11801188,142 L122.470518,142 C126.241492,141.990556 129.294225,138.924804 129.294225,135.146295 L129.294225,125.066791 C129.315515,112.083073 120.861827,100.611853 108.471981,96.8114736 L108.471981,96.8114736 Z" id="Fill-1" fill="#FFFFFF" mask="url(#mask-2)"></path>
                    </g>
                </g>
            </g>
        </g>
    </g>
</svg>