<?xml version="1.0" encoding="UTF-8"?>
<svg width="219px" height="219px" viewBox="0 0 219 219" version="1.1" xmlns="http://www.w3.org/2000/svg" xmlns:xlink="http://www.w3.org/1999/xlink">
    <title>Group 8</title>
    <defs>
        <polygon id="path-1" points="9.01897952e-06 0.148017483 151.804845 0.148017483 151.804845 137 9.01897952e-06 137"></polygon>
    </defs>
    <g id="Patient-PBD-ZSD-Layout-(DSK)" stroke="none" stroke-width="1" fill="none" fill-rule="evenodd">
        <g id="4.1-TotalCareHub" transform="translate(-1018.000000, -2627.000000)">
            <g id="Group-8" transform="translate(1018.000000, 2627.000000)">
                <g id="Group-4-Copy" fill="#A05FA6">
                    <circle id="Oval-Copy" cx="109.5" cy="109.5" r="109.5"></circle>
                </g>
                <g id="Group-6" transform="translate(44.000000, 41.000000)">
                    <g id="Group-3" transform="translate(0.549009, 0.000000)">
                        <mask id="mask-2" fill="white">
                            <use xlink:href="#path-1"></use>
                        </mask>
                        <g id="Clip-2"></g>
                        <path d="M132.110105,120.956677 L128.686509,115.570086 L125.23702,120.956677 L119.666244,120.956677 L125.798509,111.86917 L120.706269,104.258964 L120.684691,104.258964 L117.082244,98.847464 L114.91013,98.847464 L114.91013,104.258964 L109.953108,104.258964 L109.953108,86.3900444 L118.410925,86.3900444 C121.144527,86.3900444 123.036136,87.1047437 124.236313,88.3305584 C125.28401,89.3508731 125.821045,90.7294955 125.821045,92.4913346 L125.821045,92.5425899 C125.821045,95.2734885 124.364338,97.0861038 122.141398,98.0307332 L125.619657,103.087279 L125.779329,103.340681 L126.358079,104.258964 L128.788641,108.116041 L131.982079,103.087279 L137.553335,103.087279 L131.676641,111.818394 L137.809385,120.956677 L132.110105,120.956677 Z M76.0700543,78.6198451 C75.4582183,79.1213801 75.1014738,79.8691318 75.0976379,80.6595164 L75.0976379,91.7819045 C75.0899659,93.9662402 76.1251962,96.0226773 77.8849438,97.318908 L63.6564013,115.856541 C63.0225085,116.620579 61.8889817,116.727401 61.1237073,116.094614 C61.0364391,116.022761 60.9568429,115.942765 60.8849186,115.856541 L46.7374107,97.318908 C48.4880479,96.0298626 49.5223192,93.9868381 49.5251962,91.814478 L49.5251962,80.6595164 C49.5208808,79.8691318 49.1646158,79.1213801 48.5523003,78.6198451 C43.766458,74.5884045 40.4128681,69.119901 38.9911647,63.0291493 L38.0834801,51.5340829 L38.0604644,50.3082682 L38.0935495,50.3082682 L37.9880606,46.4722682 L37.9314801,43.475992 C37.9276442,43.3787507 37.9381931,43.2834255 37.9497009,43.1881003 C37.9597703,43.1301388 37.9674423,43.0712192 37.9813476,43.0142157 C38.0556694,42.6951878 38.2115054,42.3981948 38.4498145,42.1649115 C38.8171079,41.8214535 39.310029,41.6456528 39.8115811,41.6787052 C45.4024959,42.0188101 56.746395,40.8696388 69.9051836,29.5364815 C70.6512782,28.8807017 71.787682,28.9530339 72.444111,29.6979115 C72.5198713,29.7831773 72.5865211,29.8756283 72.6440606,29.9733486 C75.7420795,34.9475024 80.1865211,38.9439745 85.4628871,41.5005094 C86.0670511,41.8147472 86.4933224,42.3689745 86.6549123,43.0094255 L86.6544328,43.0094255 C86.6899155,43.1612752 86.7124517,43.316957 86.7062183,43.475992 L86.7028618,43.6551458 L86.3278965,57.2976633 C86.1169186,65.5430514 82.383089,73.3041493 76.0700543,78.6198451 L76.0700543,78.6198451 Z M120.338496,74.118964 L120.327947,74.118964 L120.327947,74.1515374 C115.483127,74.1357297 110.7016,75.2441843 106.358332,77.3897192 C108.232679,71.8076878 108.518458,65.8165724 107.184982,60.0826913 L99.8928177,29.0790164 C99.0661678,24.9393171 97.5538397,20.9888311 95.4435811,17.3760549 L95.4431016,17.3760549 C94.2151142,15.0365164 92.6035306,12.8890654 90.634723,11.0443556 C82.9925274,3.84754441 72.8267483,-0.0622248252 62.3272404,0.156687762 C51.823417,-0.0631828671 41.6533224,3.84610734 34.0063319,11.0443556 C32.0495117,12.8780479 30.4470385,15.0111283 29.2219281,17.3343801 C27.1049565,20.9481143 25.5902309,24.9029115 24.7626221,29.046922 L17.3563382,60.0826913 C14.688906,71.6112892 18.6020669,83.6701633 27.5336252,91.4422787 L20.1278208,93.4493766 C8.15050852,97.11245 -0.020570347,108.167775 9.01897982e-06,120.680761 L9.01897982e-06,130.394349 C9.01897982e-06,134.036824 2.95038233,136.991426 6.59550536,137.000048 L120.327947,137.000048 C137.709171,137.002922 151.801537,122.928807 151.804894,105.564775 C151.80777,88.2007437 137.71972,74.1223171 120.338496,74.118964 L120.338496,74.118964 Z" id="Fill-1" fill="#FFFFFF" mask="url(#mask-2)"></path>
                    </g>
                    <path d="M118.832898,91 L115.549009,91 L115.549009,95 L118.859103,95 C120.565832,95 121.549009,94.2377122 121.549009,93.0241287 L121.549009,92.9758713 C121.549009,91.6671135 120.513907,91 118.832898,91" id="Fill-4" fill="#FFFFFF"></path>
                </g>
            </g>
        </g>
    </g>
</svg>