<?xml version="1.0" encoding="UTF-8"?>
<svg width="264px" height="263px" viewBox="0 0 264 263" version="1.1" xmlns="http://www.w3.org/2000/svg" xmlns:xlink="http://www.w3.org/1999/xlink">
    <title>Group 61</title>
    <defs>
        <polygon id="path-1" points="0 263 264 263 264 0 0 0"></polygon>
    </defs>
    <g id="Patient-PBD-ZSD-Layout-(DSK)" stroke="none" stroke-width="1" fill="none" fill-rule="evenodd">
        <g id="4.1-TotalCareHub" transform="translate(-121.000000, -1294.000000)">
            <g id="Group-61" transform="translate(121.000000, 1294.000000)">
                <path d="M263.897605,209.209069 C255.203584,128.181248 183.912051,137.765407 133.486941,72.4204351 C83.0611288,7.07546337 36.982678,36.6984281 36.982678,36.6984281 C-16.9204619,75.9055518 20.4639682,121.211366 19.5946362,142.992906 C18.7253043,164.774446 -9.09577293,191.783837 3.07592644,237.960843 C3.09697564,238.041352 3.11837565,238.12151 3.13977567,238.20202 C6.14419802,249.506061 16.1832627,257.438191 27.7547091,257.969413 L130.867017,257.969413 L130.867017,258 L218.307495,258 C244.455161,258 265.323688,236.049706 263.934441,209.883029 C263.922513,209.659079 263.910234,209.434426 263.897605,209.209069 Z" id="Fill-1" fill-opacity="0.5" fill="#0081A3"></path>
                <path d="M193,24.038112 C193,14.0759746 185.068729,6 175.284738,6 L90.7152615,6 C80.9312712,6 73,14.0759746 73,24.038112 L73,29 L193,29 L193,24.038112 Z" id="Fill-3" fill="#6C4472"></path>
                <mask id="mask-2" fill="white">
                    <use xlink:href="#path-1"></use>
                </mask>
                <g id="Clip-6" opacity="0.5"></g>
                <polygon id="Fill-5" fill="#FFFFFF" mask="url(#mask-2)" points="73 236 193 236 193 29 73 29"></polygon>
                <path d="M73,236 L73,242.323223 C73,252.085607 80.9316233,260 90.7152615,260 L175.284738,260 C185.068729,260 193,252.085607 193,242.323223 L193,236 L73,236 Z" id="Fill-7" fill="#593760" mask="url(#mask-2)"></path>
                <path d="M145.268507,15.3083572 C145.268507,16.610068 144.222412,17.6649207 142.932285,17.6649207 L122.26972,17.6649207 C120.979245,17.6649207 119.933846,16.610068 119.933846,15.3083572 L119.933846,15.2609521 C119.933846,13.9595925 120.979245,12.9043886 122.26972,12.9043886 L142.932285,12.9043886 C144.222412,12.9043886 145.268507,13.9595925 145.268507,15.2609521 L145.268507,15.3083572 Z M180.422892,0 L108,0 L114.631655,31.4780839 L188.256947,31.4780839 L188.256947,231.449931 L156.75885,231.449931 L163.405474,263 L180.422892,263 C188.473477,263 195,256.416651 195,248.295971 L195,14.7040291 C195,6.58299743 188.473477,0 180.422892,0 L180.422892,0 Z" id="Fill-8" fill="#A05FA6" mask="url(#mask-2)"></path>
                <path d="M132.932444,258.527059 C127.121848,258.527059 122.411228,253.815688 122.411228,248.004166 C122.411228,242.192292 127.121848,237.481272 132.932444,237.481272 C138.743392,237.481272 143.453661,242.192292 143.453661,248.004166 C143.453661,253.815688 138.743392,258.527059 132.932444,258.527059 L132.932444,258.527059 Z M76.8010309,231.449931 L76.8010309,31.4780839 L114.809353,31.4780839 L108.121374,0 L84.7016864,0 C76.5822997,0 70,6.58299743 70,14.7040291 L70,248.295971 C70,256.416651 76.5822997,263 84.7016864,263 L164,263 L157.296924,231.449931 L76.8010309,231.449931 Z" id="Fill-9" fill="#6C4472" mask="url(#mask-2)"></path>
                <path d="M110,81.4998231 C110,87.2987451 105.299099,92 99.5001769,92 C93.7012549,92 89,87.2987451 89,81.4998231 C89,75.7009012 93.7012549,71 99.5001769,71 C105.299099,71 110,75.7009012 110,81.4998231" id="Fill-10" fill="#FFFFFF" mask="url(#mask-2)"></path>
                <path d="M99.5001739,71.3478895 C93.9023772,71.3478895 89.3478837,75.9021105 89.3478837,81.5 C89.3478837,87.0978895 93.9023772,91.6521105 99.5001739,91.6521105 C105.097971,91.6521105 109.652116,87.0978895 109.652116,81.5 C109.652116,75.9021105 105.097971,71.3478895 99.5001739,71.3478895 M99.5001739,92 C93.7103454,92 89,87.2899245 89,81.5 C89,75.7104234 93.7103454,71 99.5001739,71 C105.290002,71 110,75.7104234 110,81.5 C110,87.2899245 105.290002,92 99.5001739,92" id="Fill-11" fill="#231F20" mask="url(#mask-2)"></path>
                <path d="M142,81.4998231 C142,87.2987451 137.299099,92 131.500177,92 C125.701255,92 121,87.2987451 121,81.4998231 C121,75.7009012 125.701255,71 131.500177,71 C137.299099,71 142,75.7009012 142,81.4998231" id="Fill-12" fill="#FFFFFF" mask="url(#mask-2)"></path>
                <path d="M131.500174,71.3478895 C125.902377,71.3478895 121.347884,75.9021105 121.347884,81.5 C121.347884,87.0978895 125.902377,91.6521105 131.500174,91.6521105 C137.097971,91.6521105 141.652116,87.0978895 141.652116,81.5 C141.652116,75.9021105 137.097971,71.3478895 131.500174,71.3478895 M131.500174,92 C125.710345,92 121,87.2899245 121,81.5 C121,75.7104234 125.710345,71 131.500174,71 C137.290002,71 142,75.7104234 142,81.5 C142,87.2899245 137.290002,92 131.500174,92" id="Fill-13" fill="#231F20" mask="url(#mask-2)"></path>
                <path d="M174,81.4998231 C174,87.2987451 169.29902,92 163.5,92 C157.70098,92 153,87.2987451 153,81.4998231 C153,75.7009012 157.70098,71 163.5,71 C169.29902,71 174,75.7009012 174,81.4998231" id="Fill-14" fill="#FFFFFF" mask="url(#mask-2)"></path>
                <path d="M163.500174,71.3478895 C157.902029,71.3478895 153.347884,75.9021105 153.347884,81.5 C153.347884,87.0978895 157.902029,91.6521105 163.500174,91.6521105 C169.097971,91.6521105 173.652116,87.0978895 173.652116,81.5 C173.652116,75.9021105 169.097971,71.3478895 163.500174,71.3478895 M163.500174,92 C157.710345,92 153,87.2899245 153,81.5 C153,75.7104234 157.710345,71 163.500174,71 C169.290002,71 174,75.7104234 174,81.5 C174,87.2899245 169.290002,92 163.500174,92" id="Fill-15" fill="#231F20" mask="url(#mask-2)"></path>
                <path d="M110,112.500177 C110,118.299099 105.299099,123 99.5001769,123 C93.7012549,123 89,118.299099 89,112.500177 C89,106.701255 93.7012549,102 99.5001769,102 C105.299099,102 110,106.701255 110,112.500177" id="Fill-16" fill="#FFFFFF" mask="url(#mask-2)"></path>
                <path d="M99.5001739,102.347889 C93.9023772,102.347889 89.3478837,106.902111 89.3478837,112.5 C89.3478837,118.097889 93.9023772,122.652111 99.5001739,122.652111 C105.097971,122.652111 109.652116,118.097889 109.652116,112.5 C109.652116,106.902111 105.097971,102.347889 99.5001739,102.347889 M99.5001739,123 C93.7103454,123 89,118.289577 89,112.5 C89,106.710423 93.7103454,102 99.5001739,102 C105.290002,102 110,106.710423 110,112.5 C110,118.289577 105.290002,123 99.5001739,123" id="Fill-17" fill="#231F20" mask="url(#mask-2)"></path>
                <path d="M142,112.500177 C142,118.299099 137.299099,123 131.500177,123 C125.701255,123 121,118.299099 121,112.500177 C121,106.701255 125.701255,102 131.500177,102 C137.299099,102 142,106.701255 142,112.500177" id="Fill-18" fill="#FFFFFF" mask="url(#mask-2)"></path>
                <path d="M131.500174,102.347889 C125.902377,102.347889 121.347884,106.902111 121.347884,112.5 C121.347884,118.097889 125.902377,122.652111 131.500174,122.652111 C137.097971,122.652111 141.652116,118.097889 141.652116,112.5 C141.652116,106.902111 137.097971,102.347889 131.500174,102.347889 M131.500174,123 C125.710345,123 121,118.289577 121,112.5 C121,106.710423 125.710345,102 131.500174,102 C137.290002,102 142,106.710423 142,112.5 C142,118.289577 137.290002,123 131.500174,123" id="Fill-19" fill="#231F20" mask="url(#mask-2)"></path>
                <path d="M174,112.500177 C174,118.299099 169.29902,123 163.5,123 C157.70098,123 153,118.299099 153,112.500177 C153,106.701255 157.70098,102 163.5,102 C169.29902,102 174,106.701255 174,112.500177" id="Fill-20" fill="#FFFFFF" mask="url(#mask-2)"></path>
                <path d="M163.500174,102.347889 C157.902029,102.347889 153.347884,106.902111 153.347884,112.5 C153.347884,118.097889 157.902029,122.652111 163.500174,122.652111 C169.097971,122.652111 173.652116,118.097889 173.652116,112.5 C173.652116,106.902111 169.097971,102.347889 163.500174,102.347889 M163.500174,123 C157.710345,123 153,118.289577 153,112.5 C153,106.710423 157.710345,102 163.500174,102 C169.290002,102 174,106.710423 174,112.5 C174,118.289577 169.290002,123 163.500174,123" id="Fill-21" fill="#231F20" mask="url(#mask-2)"></path>
                <path d="M110,142.5 C110,148.29902 105.299099,153 99.5001769,153 C93.7012549,153 89,148.29902 89,142.5 C89,136.70098 93.7012549,132 99.5001769,132 C105.299099,132 110,136.70098 110,142.5" id="Fill-22" fill="#FFFFFF" mask="url(#mask-2)"></path>
                <path d="M99.5001739,132.347889 C93.9023772,132.347889 89.3478837,136.902111 89.3478837,142.5 C89.3478837,148.097889 93.9023772,152.652111 99.5001739,152.652111 C105.097971,152.652111 109.652116,148.097889 109.652116,142.5 C109.652116,136.902111 105.097971,132.347889 99.5001739,132.347889 M99.5001739,153 C93.7103454,153 89,148.289577 89,142.5 C89,136.710076 93.7103454,132 99.5001739,132 C105.290002,132 110,136.710076 110,142.5 C110,148.289577 105.290002,153 99.5001739,153" id="Fill-23" fill="#231F20" mask="url(#mask-2)"></path>
                <path d="M142,142.5 C142,148.29902 137.299099,153 131.500177,153 C125.701255,153 121,148.29902 121,142.5 C121,136.70098 125.701255,132 131.500177,132 C137.299099,132 142,136.70098 142,142.5" id="Fill-24" fill="#FFFFFF" mask="url(#mask-2)"></path>
                <path d="M131.500174,132.347889 C125.902377,132.347889 121.347884,136.902111 121.347884,142.5 C121.347884,148.097889 125.902377,152.652111 131.500174,152.652111 C137.097971,152.652111 141.652116,148.097889 141.652116,142.5 C141.652116,136.902111 137.097971,132.347889 131.500174,132.347889 M131.500174,153 C125.710345,153 121,148.289577 121,142.5 C121,136.710076 125.710345,132 131.500174,132 C137.290002,132 142,136.710076 142,142.5 C142,148.289577 137.290002,153 131.500174,153" id="Fill-25" fill="#231F20" mask="url(#mask-2)"></path>
                <path d="M174,142.5 C174,148.29902 169.29902,153 163.5,153 C157.70098,153 153,148.29902 153,142.5 C153,136.70098 157.70098,132 163.5,132 C169.29902,132 174,136.70098 174,142.5" id="Fill-26" fill="#FFFFFF" mask="url(#mask-2)"></path>
                <path d="M163.500174,132.347889 C157.902029,132.347889 153.347884,136.902111 153.347884,142.5 C153.347884,148.097889 157.902029,152.652111 163.500174,152.652111 C169.097971,152.652111 173.652116,148.097889 173.652116,142.5 C173.652116,136.902111 169.097971,132.347889 163.500174,132.347889 M163.500174,153 C157.710345,153 153,148.289577 153,142.5 C153,136.710076 157.710345,132 163.500174,132 C169.290002,132 174,136.710076 174,142.5 C174,148.289577 169.290002,153 163.500174,153" id="Fill-27" fill="#231F20" mask="url(#mask-2)"></path>
                <path d="M110,172.5 C110,178.29902 105.299099,183 99.5001769,183 C93.7012549,183 89,178.29902 89,172.5 C89,166.70098 93.7012549,162 99.5001769,162 C105.299099,162 110,166.70098 110,172.5" id="Fill-28" fill="#FFFFFF" mask="url(#mask-2)"></path>
                <path d="M99.5001739,162.347889 C93.9023772,162.347889 89.3478837,166.902111 89.3478837,172.5 C89.3478837,178.097889 93.9023772,182.652111 99.5001739,182.652111 C105.097971,182.652111 109.652116,178.097889 109.652116,172.5 C109.652116,166.902111 105.097971,162.347889 99.5001739,162.347889 M99.5001739,183 C93.7103454,183 89,178.289577 89,172.5 C89,166.710076 93.7103454,162 99.5001739,162 C105.290002,162 110,166.710076 110,172.5 C110,178.289577 105.290002,183 99.5001739,183" id="Fill-29" fill="#231F20" mask="url(#mask-2)"></path>
                <path d="M174,172.5 C174,178.29902 169.29902,183 163.5,183 C157.70098,183 153,178.29902 153,172.5 C153,166.70098 157.70098,162 163.5,162 C169.29902,162 174,166.70098 174,172.5" id="Fill-30" fill="#FFFFFF" mask="url(#mask-2)"></path>
                <path d="M163.500174,162.347889 C157.902029,162.347889 153.347884,166.902111 153.347884,172.5 C153.347884,178.097889 157.902029,182.652111 163.500174,182.652111 C169.097971,182.652111 173.652116,178.097889 173.652116,172.5 C173.652116,166.902111 169.097971,162.347889 163.500174,162.347889 M163.500174,183 C157.710345,183 153,178.289577 153,172.5 C153,166.710076 157.710345,162 163.500174,162 C169.290002,162 174,166.710076 174,172.5 C174,178.289577 169.290002,183 163.500174,183" id="Fill-31" fill="#231F20" mask="url(#mask-2)"></path>
                <polygon id="Fill-32" fill="#000000" mask="url(#mask-2)" points="100.295458 172.807404 97.408739 174.580891 97 173.942436 100.142181 172.5 97 171.057245 97.408739 170.418789 100.295458 172.192596 100.116635 169 100.88302 169 100.704197 172.192596 103.591261 170.418789 104 171.057245 100.857474 172.5 104 173.942436 103.591261 174.580891 100.704197 172.807404 100.88302 176 100.116635 176"></polygon>
                <path d="M162.135205,173.771324 L165.268504,173.771324 L165.878662,170.142949 L162.745363,170.142949 L162.135205,173.771324 Z M167.445311,174.214245 L165.629052,174.214245 L165.171434,177 L164.741896,177 L165.199168,174.214245 L162.052002,174.214245 L161.594384,177 L161.1645,177 L161.622118,174.214245 L160,174.214245 L160,173.771324 L161.705322,173.771324 L162.301265,170.142949 L160.554342,170.142949 L160.554342,169.714316 L162.370948,169.714316 L162.82822,167 L163.258104,167 L162.814353,169.714316 L165.947998,169.714316 L166.40527,167 L166.8355,167 L166.377535,169.714316 L168,169.714316 L168,170.142949 L166.308546,170.142949 L165.712255,173.771324 L167.445311,173.771324 L167.445311,174.214245 Z" id="Fill-33" fill="#000000" mask="url(#mask-2)"></path>
                <path d="M131.500177,183 C125.701255,183 121,178.29902 121,172.5 C121,166.70098 125.701255,162 131.500177,162 C137.299099,162 142,166.70098 142,172.5 C142,178.29902 137.299099,183 131.500177,183 Z" id="Fill-34" fill="#FFFFFF" mask="url(#mask-2)"></path>
                <path d="M131.500174,162.347884 C125.902377,162.347884 121.347884,166.902029 121.347884,172.500174 C121.347884,178.097971 125.902377,182.652116 131.500174,182.652116 C137.097971,182.652116 141.652116,178.097971 141.652116,172.500174 C141.652116,166.902029 137.097971,162.347884 131.500174,162.347884 M131.500174,183 C125.710345,183 121,178.289655 121,172.500174 C121,166.710345 125.710345,162 131.500174,162 C137.290002,162 142,166.710345 142,172.500174 C142,178.289655 137.290002,183 131.500174,183" id="Fill-35" fill="#231F20" mask="url(#mask-2)"></path>
                <path d="M142,202.499823 C142,208.298745 137.299099,213 131.500177,213 C125.701255,213 121,208.298745 121,202.499823 C121,196.700901 125.701255,192 131.500177,192 C137.299099,192 142,196.700901 142,202.499823" id="Fill-36" fill="#7A9C49" mask="url(#mask-2)"></path>
                <path d="M131.500174,192.347884 C125.902377,192.347884 121.347884,196.902029 121.347884,202.500174 C121.347884,208.097971 125.902377,212.652116 131.500174,212.652116 C137.097971,212.652116 141.652116,208.097971 141.652116,202.500174 C141.652116,196.902029 137.097971,192.347884 131.500174,192.347884 M131.500174,213 C125.710345,213 121,208.289655 121,202.500174 C121,196.710345 125.710345,192 131.500174,192 C137.290002,192 142,196.710345 142,202.500174 C142,208.289655 137.290002,213 131.500174,213" id="Fill-37" fill="#7A9C49" mask="url(#mask-2)"></path>
                <path d="M101,85 L100.497516,85 L100.497516,79.1517288 C100.049823,79.6518966 99.5507452,80.0261833 99,80.2739174 L99,79.748909 C99.8422995,79.2024169 100.395884,78.619671 100.661036,78 L101,78 L101,85 Z" id="Fill-38" fill="#000000" mask="url(#mask-2)"></path>
                <path d="M133,85 L128,85 C128.029669,84.7693857 128.088637,84.5454851 128.177273,84.3296408 C128.26591,84.1131252 128.473594,83.8382007 128.801068,83.504196 C129.128542,83.1701913 129.602136,82.7858342 130.222222,82.3507889 C130.65428,82.0473313 130.987316,81.8049681 131.220961,81.6236992 C131.454235,81.442766 131.655615,81.258476 131.824729,81.0701578 C131.993844,80.8818395 132.115116,80.6985566 132.188919,80.5196375 C132.262721,80.3413897 132.299807,80.1527358 132.299807,79.95334 C132.299807,79.6619671 132.22823,79.407855 132.086189,79.1916751 C131.944148,78.9754951 131.746106,78.8042967 131.492434,78.6777442 C131.238763,78.5515274 130.944296,78.4884189 130.608663,78.4884189 C129.631805,78.4884189 129.05066,78.9973145 128.865599,80.0151057 L128.173194,79.9278281 C128.248109,79.3252769 128.503634,78.8533065 128.940142,78.5122524 C129.376279,78.1708627 129.942961,78 130.640929,78 C131.325545,78 131.888889,78.1805975 132.331702,78.5414569 C132.774514,78.9019805 132.996291,79.366566 132.996291,79.9348775 C132.996291,80.2752602 132.913218,80.5951662 132.746328,80.8949312 C132.580181,81.1953676 132.341715,81.4733132 132.031672,81.7297751 C131.721629,81.9859013 131.22467,82.3494461 130.540424,82.8210809 C129.718959,83.3846928 129.160807,83.9227929 128.865599,84.4350453 L133,84.4350453 L133,85 Z" id="Fill-39" fill="#000000" mask="url(#mask-2)"></path>
                <path d="M160,83.1406817 L160.654614,83.0545472 C160.902448,84.0287587 161.499058,84.5161944 162.445198,84.5161944 C162.80791,84.5161944 163.12354,84.4459007 163.39209,84.3046532 C163.659887,84.1640658 163.872316,83.9719957 164.029755,83.7281128 C164.186441,83.4845599 164.264407,83.2004149 164.264407,82.8753477 C164.264407,82.4410447 164.105461,82.0945264 163.788701,81.8367828 C163.47081,81.5787092 163.054237,81.4496723 162.53936,81.4496723 C162.364972,81.4496723 162.13032,81.4760737 161.836158,81.5285465 L161.909605,81.0127292 C162.312994,81.0127292 162.629002,80.9810476 162.858004,80.9180142 C163.086629,80.8543209 163.280979,80.7655462 163.440678,80.6510301 C163.600377,80.5361841 163.719397,80.4005469 163.79887,80.2444486 C163.877589,80.0880204 163.917137,79.9094809 163.917137,79.7088303 C163.917137,79.3458111 163.777401,79.0501155 163.497928,78.8220735 C163.218456,78.5940314 162.86403,78.4798454 162.432768,78.4798454 C161.59322,78.4798454 161.040301,78.9299892 160.773258,79.8306068 L160.098682,79.7266513 C160.422976,78.5755504 161.2,78 162.429002,78 C163.094162,78 163.626742,78.1567583 164.027495,78.4712649 C164.427872,78.7851115 164.628625,79.2121541 164.628625,79.7514026 C164.628625,80.3965867 164.242561,80.875442 163.471563,81.1882985 C164.491149,81.4150205 165,81.9717599 165,82.8578568 C165,83.5000707 164.763842,84.0175381 164.291149,84.4105888 C163.818079,84.8033096 163.20452,85 162.448964,85 C161.105838,85 160.289266,84.3802272 160,83.1406817" id="Fill-40" fill="#000000" mask="url(#mask-2)"></path>
                <path d="M100.386497,113.722617 L100.386497,109.972856 L97.6050196,113.722617 L100.386497,113.722617 Z M102,114.258392 L100.999229,114.258392 L100.999229,116 L100.386497,116 L100.386497,114.258392 L97,114.258392 L97,113.722617 L100.511988,109 L100.999229,109 L100.999229,113.722617 L102,113.722617 L102,114.258392 Z" id="Fill-41" fill="#000000" mask="url(#mask-2)"></path>
                <path d="M129,114.159109 L129.669032,114.086531 C129.890923,115.030388 130.490848,115.502652 131.469555,115.502652 C131.782966,115.502652 132.071722,115.437097 132.33545,115.306656 C132.598805,115.17588 132.825177,114.96684 133.014569,114.680205 C133.203586,114.393234 133.298468,114.047733 133.298468,113.6437 C133.298468,113.140332 133.13149,112.726265 132.797535,112.401835 C132.463579,112.077405 132.034367,111.915524 131.510273,111.915524 C130.899141,111.915524 130.301457,112.171055 129.717968,112.681447 L129.158386,112.612547 L129.904371,109 L133.642884,109 L133.642884,109.548187 L130.398954,109.548187 L129.904371,111.926227 C130.480015,111.56835 131.05043,111.389077 131.615614,111.389077 C132.288756,111.389077 132.853941,111.602465 133.312663,112.029911 C133.770639,112.457021 134,112.978116 134,113.592862 C134,113.916957 133.935002,114.225668 133.805379,114.518658 C133.675383,114.811314 133.497572,115.068183 133.271946,115.28826 C133.046321,115.508672 132.76765,115.682259 132.436683,115.809355 C132.105342,115.936117 131.747852,116 131.364214,116 C130.131117,116 129.343295,115.386258 129,114.159109" id="Fill-42" fill="#000000" mask="url(#mask-2)"></path>
                <path d="M164.27941,113.73245 C164.27941,113.240394 164.128097,112.841073 163.824358,112.533827 C163.520991,112.226911 163.121199,112.073782 162.624981,112.073782 C162.112075,112.073782 161.684839,112.22493 161.342902,112.526896 C161.000223,112.829192 160.829254,113.209372 160.829254,113.668097 C160.829254,114.164773 160.995772,114.596766 161.328438,114.964405 C161.661475,115.332705 162.08389,115.516194 162.596796,115.516194 C163.09598,115.516194 163.500593,115.343925 163.81212,114.998727 C164.123646,114.653529 164.27941,114.231767 164.27941,113.73245 M164.822727,110.597944 L164.166296,110.658668 C163.935989,109.875206 163.450156,109.483806 162.709168,109.483806 C162.491841,109.483806 162.28972,109.514827 162.103545,109.57687 C161.91663,109.638914 161.748628,109.730989 161.598428,109.852435 C161.447856,109.974211 161.321021,110.112819 161.217549,110.268257 C161.11482,110.423695 161.030633,110.577813 160.966103,110.731932 C160.901943,110.88605 160.842976,111.104521 160.791055,111.388006 C160.738763,111.670831 160.697597,112.053321 160.668669,112.535807 C161.224225,111.871812 161.915146,111.539814 162.741804,111.539814 C163.404539,111.539814 163.947115,111.739475 164.367675,112.138136 C164.789349,112.537127 165,113.047004 165,113.668097 C165,114.128801 164.894304,114.533072 164.684394,114.880581 C164.473372,115.227759 164.18966,115.501344 163.832517,115.701004 C163.475375,115.900005 163.058152,116 162.580849,116 C162.14842,116 161.768284,115.925746 161.439327,115.777898 C161.110369,115.62972 160.835929,115.408939 160.615636,115.114893 C160.396084,114.821508 160.238466,114.48126 160.142783,114.094149 C160.047842,113.707369 160,113.238084 160,112.686295 C160,111.876762 160.096425,111.209797 160.289645,110.685729 C160.483237,110.161331 160.788088,109.74947 161.206053,109.449484 C161.623275,109.149828 162.133956,109 162.737354,109 C163.869975,109 164.565346,109.532648 164.822727,110.597944" id="Fill-43" fill="#000000" mask="url(#mask-2)"></path>
                <path d="M103,139.391347 C102.006673,140.415994 101.270397,141.460039 100.790036,142.523821 C100.309675,143.587944 100.016227,144.74633 99.9093115,146 L99.1809979,146 C99.2189111,145.455518 99.2973916,144.928391 99.4153018,144.41896 C99.533212,143.909188 99.6897938,143.415411 99.8846679,142.937628 C100.079542,142.460185 100.323324,141.985805 100.617152,141.515508 C100.910601,141.044871 101.418259,140.386388 102.139748,139.539378 L98,139.539378 L98,139 L103,139 L103,139.391347 Z" id="Fill-44" fill="#000000" mask="url(#mask-2)"></path>
                <path d="M133.013628,140.773184 C133.013628,140.51775 132.948094,140.293998 132.817769,140.101598 C132.686699,139.909528 132.509085,139.75772 132.284182,139.646504 C132.059279,139.535618 131.795651,139.479845 131.49367,139.479845 C131.191689,139.479845 130.928433,139.536938 130.70353,139.650134 C130.478254,139.76366 130.301385,139.915798 130.172178,140.106879 C130.042598,140.298289 129.97818,140.52006 129.97818,140.773184 C129.97818,141.128943 130.123399,141.417378 130.414954,141.638489 C130.705764,141.859271 131.06546,141.969827 131.49367,141.969827 C131.922252,141.969827 132.282693,141.858611 132.574993,141.636509 C132.867292,141.414408 133.013628,141.126632 133.013628,140.773184 M133.308534,143.950922 C133.308534,143.642685 133.23518,143.378341 133.088472,143.15756 C132.941763,142.936448 132.733244,142.764839 132.463658,142.643393 C132.194444,142.521616 131.871239,142.460563 131.49367,142.460563 C131.116473,142.460563 130.793268,142.521616 130.523682,142.643393 C130.254468,142.764839 130.045949,142.936448 129.89924,143.15756 C129.75216,143.378341 129.679178,143.642685 129.679178,143.950922 C129.679178,144.428457 129.844504,144.807647 130.176273,145.088162 C130.507671,145.369007 130.946679,145.509264 131.49367,145.509264 C132.04364,145.509264 132.483393,145.369337 132.813673,145.089812 C133.143581,144.810287 133.308534,144.430767 133.308534,143.950922 M130.418677,142.177408 C129.680295,141.883692 129.31129,141.414408 129.31129,140.769554 C129.31129,140.423365 129.406241,140.119089 129.596142,139.856395 C129.786044,139.593701 130.044087,139.38513 130.369899,139.231012 C130.696083,139.076894 131.072163,139 131.498138,139 C131.926348,139 132.30429,139.077554 132.631591,139.232662 C132.959264,139.388101 133.216935,139.596672 133.405719,139.858045 C133.594504,140.119749 133.688338,140.423365 133.688338,140.769554 C133.688338,141.414408 133.319333,141.883692 132.58095,142.177408 C133.527108,142.466503 134,143.039744 134,143.897129 C134,144.587525 133.750149,145.110603 133.250074,145.466362 C132.75,145.822121 132.166145,146 131.498138,146 C131.007373,146 130.581769,145.919476 130.220584,145.758097 C129.859398,145.596719 129.565609,145.346565 129.339589,145.007638 C129.112824,144.66871 129,144.29843 129,143.897129 C129,143.490877 129.108356,143.143699 129.325439,142.854604 C129.542151,142.565838 129.906688,142.340107 130.418677,142.177408" id="Fill-45" fill="#000000" mask="url(#mask-2)"></path>
                <path d="M164.177864,141.331903 C164.177864,141.08373 164.135922,140.850738 164.050924,140.633586 C163.966298,140.416105 163.840843,140.216114 163.674931,140.033285 C163.507906,139.850785 163.318982,139.713498 163.106302,139.621423 C162.893995,139.529348 162.659045,139.483476 162.401084,139.483476 C161.901492,139.483476 161.496177,139.657395 161.184767,140.004903 C160.872986,140.352081 160.717096,140.774504 160.717096,141.27085 C160.717096,141.763236 160.868532,142.162557 161.172148,142.469143 C161.476134,142.77639 161.876253,142.929848 162.372875,142.929848 C162.888798,142.929848 163.318982,142.7787 163.662312,142.476734 C164.006013,142.174438 164.177864,141.792608 164.177864,141.331903 M160.173335,144.408986 L160.829931,144.341002 C161.060797,145.126774 161.547027,145.519495 162.28862,145.519495 C162.707668,145.519495 163.075867,145.395408 163.394329,145.147235 C163.712419,144.899062 163.935862,144.589505 164.063173,144.219226 C164.190854,143.849276 164.281419,143.265145 164.335239,142.467493 C163.77626,143.129178 163.08329,143.459856 162.255957,143.459856 C161.59565,143.459856 161.054116,143.260525 160.632099,142.861864 C160.210823,142.462873 160,141.955306 160,141.338834 C160,140.660978 160.226783,140.101268 160.680722,139.661025 C161.13466,139.220452 161.715908,139 162.425581,139 C162.951897,139 163.402123,139.111876 163.777002,139.336618 C164.151882,139.56103 164.448816,139.906228 164.66929,140.371883 C164.889763,140.837537 165,141.485031 165,142.313705 C165,143.123238 164.902754,143.790533 164.707891,144.315921 C164.512657,144.841639 164.207557,145.253501 163.791478,145.551836 C163.374657,145.850502 162.864301,146 162.260411,146 C161.126494,146 160.431297,145.469662 160.173335,144.408986" id="Fill-46" fill="#000000" mask="url(#mask-2)"></path>
                <path d="M133.308515,173.503465 C133.308515,171.483098 132.710668,170.472585 131.514595,170.472585 C131.201456,170.472585 130.929638,170.532978 130.697248,170.653765 C130.465615,170.774221 130.273789,170.957711 130.121389,171.203574 C129.968989,171.449437 129.862082,171.761963 129.800288,172.140493 C129.738873,172.519023 129.707787,172.985338 129.707787,173.539107 C129.707787,174.016972 129.733566,174.429494 129.785882,174.777002 C129.838198,175.124511 129.9307,175.427797 130.063765,175.686861 C130.196831,175.945924 130.38752,176.147895 130.635833,176.292113 C130.883767,176.43699 131.184017,176.508934 131.534688,176.508934 C132.717113,176.508934 133.308515,175.507001 133.308515,173.503465 M134,173.503465 C134,175.834378 133.167488,177 131.502085,177 C129.834028,177 129,175.875961 129,173.628872 C129,172.981708 129.049663,172.427608 129.14785,171.966574 C129.246797,171.50554 129.40185,171.13229 129.613011,170.847155 C129.824551,170.56169 130.08727,170.349158 130.401168,170.209561 C130.715445,170.069964 131.082417,170 131.502085,170 C133.167488,170 134,171.167932 134,173.503465" id="Fill-47" fill="#000000" mask="url(#mask-2)"></path>
                <g id="Group-11" mask="url(#mask-2)" fill="#000000">
                    <g transform="translate(95.000000, 46.000000)">
                        <path d="M2,0 C1.27019929,1.08200637 0.73999691,2.51785714 0.73999691,4.51671975 C0.73999691,6.48248408 1.28997374,7.89581438 2,9 L1.31005716,9 C0.680055616,8.08348499 0,6.67015469 0,4.51671975 C0.0101961996,2.34110555 0.680055616,0.927434031 1.31005716,0 L2,0 Z" id="Fill-48"></path>
                        <path d="M23,9 C23.7136646,7.90673339 24.2664596,6.47122384 24.2664596,4.48328025 C24.2664596,2.50659691 23.7236025,1.09326661 23,0 L23.6835404,0 C24.3267081,0.905254777 25,2.3189263 25,4.49419927 C25,6.65889445 24.3267081,8.06130573 23.6835404,9 L23,9 Z" id="Fill-49"></path>
                        <polygon id="Fill-50" points="48 5.5 51 5.5 51 5 48 5"></polygon>
                        <path d="M34,8 L29,8 C29.0296692,7.76937464 29.0886367,7.54546326 29.1772734,7.32960867 C29.2659101,7.11308268 29.4735944,6.83848072 29.8010681,6.5041243 C30.1285418,6.17010359 30.6021362,5.78572799 31.2222222,5.35066181 C31.6542798,5.04718972 31.9873164,4.80481489 32.2209613,4.62353731 C32.4542353,4.44259543 32.6556149,4.25829657 32.8247293,4.06996931 C32.9938436,3.88164205 33.1151165,3.69835028 33.1889186,3.5194226 C33.2627207,3.34150201 33.2998072,3.15250336 33.2998072,2.95309802 C33.2998072,2.66171111 33.2282302,2.4075868 33.086189,2.19173221 C32.9441478,1.97520622 32.7461059,1.80399962 32.4924344,1.67744101 C32.2387628,1.55155381 31.9442961,1.48810666 31.6086634,1.48810666 C30.6318054,1.48810666 30.0506601,1.99736236 29.8655986,3.01486668 L29.1731939,2.92758488 C29.2481086,2.3250048 29.5036345,1.8533474 29.9401424,1.5119413 C30.3762795,1.1708709 30.942961,1 31.6409286,1 C32.3255452,1 32.8888889,1.18027048 33.3317015,1.54114713 C33.7745142,1.90168809 33.9962914,2.3662958 33.9962914,2.93497027 C33.9962914,3.27503357 33.9132176,3.59495492 33.7463284,3.89473432 C33.580181,4.19518511 33.3417149,4.47347976 33.0316719,4.72961826 C32.7216288,4.98575676 32.2246699,5.34931901 31.5404243,5.82097641 C30.7189586,6.38461538 30.160807,6.92274122 29.8655986,7.43501822 L34,7.43501822 L34,8 Z" id="Fill-51"></path>
                        <path d="M64,8 L59,8 C59.0296692,7.76937464 59.0886367,7.54546326 59.1772734,7.32960867 C59.2659101,7.11308268 59.4735944,6.83848072 59.8010681,6.5041243 C60.1285418,6.17010359 60.6021362,5.78572799 61.2222222,5.35066181 C61.6542798,5.04718972 61.9873164,4.80481489 62.2209613,4.62353731 C62.4542353,4.44259543 62.6556149,4.25829657 62.8247293,4.06996931 C62.9938436,3.88164205 63.1151165,3.69835028 63.1889186,3.5194226 C63.2627207,3.34150201 63.2998072,3.15250336 63.2998072,2.95309802 C63.2998072,2.66171111 63.2282302,2.4075868 63.086189,2.19173221 C62.9441478,1.97520622 62.7461059,1.80399962 62.4924344,1.67744101 C62.2387628,1.55155381 61.9442961,1.48810666 61.6086634,1.48810666 C60.6318054,1.48810666 60.0506601,1.99736236 59.8655986,3.01486668 L59.1731939,2.92758488 C59.2481086,2.3250048 59.5036345,1.8533474 59.9401424,1.5119413 C60.3762795,1.1708709 60.942961,1 61.6409286,1 C62.3255452,1 62.8888889,1.18027048 63.3317015,1.54114713 C63.7745142,1.90168809 63.9962914,2.3662958 63.9962914,2.93497027 C63.9962914,3.27503357 63.9132176,3.59495492 63.7463284,3.89473432 C63.580181,4.19518511 63.3417149,4.47347976 63.0316719,4.72961826 C62.7216288,4.98575676 62.2246699,5.34931901 61.5404243,5.82097641 C60.7189586,6.38461538 60.160807,6.92274122 59.8655986,7.43501822 L64,7.43501822 L64,8 Z" id="Fill-52"></path>
                        <path d="M71,8 L66,8 C66.0296692,7.76937464 66.0886367,7.54546326 66.1772734,7.32960867 C66.2659101,7.11308268 66.4735944,6.83848072 66.8010681,6.5041243 C67.1285418,6.17010359 67.6021362,5.78572799 68.2222222,5.35066181 C68.6542798,5.04718972 68.9873164,4.80481489 69.2209613,4.62353731 C69.4542353,4.44259543 69.6556149,4.25829657 69.8247293,4.06996931 C69.9938436,3.88164205 70.1151165,3.69835028 70.1889186,3.5194226 C70.2627207,3.34150201 70.2998072,3.15250336 70.2998072,2.95309802 C70.2998072,2.66171111 70.2282302,2.4075868 70.086189,2.19173221 C69.9441478,1.97520622 69.7461059,1.80399962 69.4924344,1.67744101 C69.2387628,1.55155381 68.9442961,1.48810666 68.6086634,1.48810666 C67.6318054,1.48810666 67.0506601,1.99736236 66.8655986,3.01486668 L66.1731939,2.92758488 C66.2481086,2.3250048 66.5036345,1.8533474 66.9401424,1.5119413 C67.3762795,1.1708709 67.942961,1 68.6409286,1 C69.3255452,1 69.8888889,1.18027048 70.3317015,1.54114713 C70.7745142,1.90168809 70.9962914,2.3662958 70.9962914,2.93497027 C70.9962914,3.27503357 70.9132176,3.59495492 70.7463284,3.89473432 C70.580181,4.19518511 70.3417149,4.47347976 70.0316719,4.72961826 C69.7216288,4.98575676 69.2246699,5.34931901 68.5404243,5.82097641 C67.7189586,6.38461538 67.160807,6.92274122 66.8655986,7.43501822 L71,7.43501822 L71,8 Z" id="Fill-53"></path>
                        <path d="M13.386848,5.72261654 L13.386848,1.97285632 L10.6053702,5.72261654 L13.386848,5.72261654 Z M15,6.25839248 L13.9995794,6.25839248 L13.9995794,8 L13.386848,8 L13.386848,6.25839248 L10,6.25839248 L10,5.72261654 L13.5123388,1 L13.9995794,1 L13.9995794,5.72261654 L15,5.72261654 L15,6.25839248 Z" id="Fill-54"></path>
                        <path d="M38.3864975,5.72261654 L38.3864975,1.97285632 L35.6050196,5.72261654 L38.3864975,5.72261654 Z M40,6.25839248 L38.9992288,6.25839248 L38.9992288,8 L38.3864975,8 L38.3864975,6.25839248 L35,6.25839248 L35,5.72261654 L38.5119882,1 L38.9992288,1 L38.9992288,5.72261654 L40,5.72261654 L40,6.25839248 Z" id="Fill-55"></path>
                        <path d="M19.3864975,5.72261654 L19.3864975,1.97285632 L16.6050196,5.72261654 L19.3864975,5.72261654 Z M21,6.25839248 L19.9992288,6.25839248 L19.9992288,8 L19.3864975,8 L19.3864975,6.25839248 L16,6.25839248 L16,5.72261654 L19.5119882,1 L19.9992288,1 L19.9992288,5.72261654 L21,5.72261654 L21,6.25839248 Z" id="Fill-56"></path>
                        <path d="M53,6.15935589 L53.6690325,6.0867737 C53.8909227,7.03067661 54.490848,7.50262806 55.4695555,7.50262806 C55.782966,7.50262806 56.0717221,7.43740443 56.3354501,7.30695719 C56.5988046,7.17617546 56.8251774,6.96712538 57.0145685,6.68047592 C57.2035861,6.39349197 57.2984684,6.04797401 57.2984684,5.64392202 C57.2984684,5.14052943 57.1314905,4.72644304 56.7975346,4.40199732 C56.4635786,4.07755161 56.0343668,3.91566323 55.5102727,3.91566323 C54.8991408,3.91566323 54.3014569,4.17120604 53.7179679,4.68162271 L53.1583863,4.6127198 L53.9043706,1 L57.6428838,1 L57.6428838,1.54821292 L54.3989541,1.54821292 L53.9043706,3.92636659 C54.4800149,3.56813838 55.0504296,3.38919151 55.6156145,3.38919151 C56.2887561,3.38919151 56.853941,3.60258983 57.3126634,4.03005543 C57.7706388,4.45718654 58,4.97830657 58,5.59308104 C58,5.91719228 57.9350019,6.22591743 57.8053792,6.51892202 C57.6753829,6.81159213 57.4975719,7.06847286 57.2719462,7.28856078 C57.0463205,7.50898318 56.7676504,7.68257836 56.4366829,7.80968081 C56.1053418,7.93644878 55.7478521,8 55.3642137,8 C54.1311169,8 53.3432947,7.38656346 53,6.15935589" id="Fill-57"></path>
                        <path d="M45.2794096,5.73245014 C45.2794096,5.24006412 45.1280967,4.84107303 44.8243584,4.53382679 C44.520991,4.22691057 44.1211986,4.07378247 43.6249815,4.07378247 C43.1120754,4.07378247 42.684839,4.22493046 42.3429016,4.5265664 C42.0002225,4.82886238 41.8292538,5.2093725 41.8292538,5.66776672 C41.8292538,6.164773 41.9957721,6.59676583 42.3284379,6.96440526 C42.6614746,7.33270473 43.0838896,7.51619443 43.5967957,7.51619443 C44.0959798,7.51619443 44.5005934,7.34392532 44.8121199,6.99872708 C45.1236463,6.65352883 45.2794096,6.23143652 45.2794096,5.73245014 M45.8227266,2.59794446 L45.1662958,2.65866767 C44.9359887,1.87520626 44.4501558,1.48347556 43.7091678,1.48347556 C43.491841,1.48347556 43.2897196,1.51482721 43.1035455,1.57687049 C42.9166296,1.63891377 42.7486278,1.73098864 42.5984275,1.85243506 C42.4478564,1.97421149 42.3210206,2.11281882 42.2175493,2.26825704 C42.1148198,2.42369525 42.0306334,2.5778134 41.966103,2.73193154 C41.9019433,2.88604969 41.8429758,3.10452124 41.7910547,3.38800622 C41.7387628,3.67083117 41.6975968,4.05332139 41.6686693,4.53580689 C42.2242249,3.8718118 42.9151461,3.53981425 43.7418039,3.53981425 C44.4045394,3.53981425 44.9471147,3.7394748 45.3676754,4.13813587 C45.7893488,4.53712696 46,5.04700391 46,5.66776672 C46,6.12880109 45.8943035,6.53274244 45.684394,6.88058083 C45.4733719,7.22775918 45.1896603,7.50134364 44.8325174,7.7010042 C44.4753746,7.90000471 44.0581516,8 43.5808485,8 C43.1484201,8 42.7682836,7.92574608 42.4393265,7.77789826 C42.1103694,7.62972043 41.8359294,7.40893876 41.6156357,7.11489322 C41.3960837,6.82150771 41.2384661,6.48125972 41.142783,6.09414926 C41.0478416,5.70736882 41,5.23808401 41,4.68629485 C41,3.87676206 41.0964249,3.2097968 41.2896455,2.68539909 C41.4832369,2.16133138 41.7880878,1.74946961 42.2060525,1.44948376 C42.6232755,1.14982792 43.1339564,1 43.7373535,1 C44.8699748,1 45.5653464,1.53264815 45.8227266,2.59794446" id="Fill-58"></path>
                        <path d="M76.2794096,5.73245014 C76.2794096,5.24006412 76.1280967,4.84107303 75.8243584,4.53382679 C75.520991,4.22691057 75.1211986,4.07378247 74.6249815,4.07378247 C74.1120754,4.07378247 73.684839,4.22493046 73.3429016,4.5265664 C73.0002225,4.82886238 72.8292538,5.2093725 72.8292538,5.66776672 C72.8292538,6.164773 72.9957721,6.59676583 73.3284379,6.96440526 C73.6614746,7.33270473 74.0838896,7.51619443 74.5967957,7.51619443 C75.0959798,7.51619443 75.5005934,7.34392532 75.8121199,6.99872708 C76.1236463,6.65352883 76.2794096,6.23143652 76.2794096,5.73245014 M76.8227266,2.59794446 L76.1662958,2.65866767 C75.9359887,1.87520626 75.4501558,1.48347556 74.7091678,1.48347556 C74.491841,1.48347556 74.2897196,1.51482721 74.1035455,1.57687049 C73.9166296,1.63891377 73.7486278,1.73098864 73.5984275,1.85243506 C73.4478564,1.97421149 73.3210206,2.11281882 73.2175493,2.26825704 C73.1148198,2.42369525 73.0306334,2.5778134 72.966103,2.73193154 C72.9019433,2.88604969 72.8429758,3.10452124 72.7910547,3.38800622 C72.7387628,3.67083117 72.6975968,4.05332139 72.6686693,4.53580689 C73.2242249,3.8718118 73.9151461,3.53981425 74.7418039,3.53981425 C75.4045394,3.53981425 75.9471147,3.7394748 76.3676754,4.13813587 C76.7893488,4.53712696 77,5.04700391 77,5.66776672 C77,6.12880109 76.8943035,6.53274244 76.684394,6.88058083 C76.4733719,7.22775918 76.1896603,7.50134364 75.8325174,7.7010042 C75.4753746,7.90000471 75.0581516,8 74.5808485,8 C74.1484201,8 73.7682836,7.92574608 73.4393265,7.77789826 C73.1103694,7.62972043 72.8359294,7.40893876 72.6156357,7.11489322 C72.3960837,6.82150771 72.2384661,6.48125972 72.142783,6.09414926 C72.0478416,5.70736882 72,5.23808401 72,4.68629485 C72,3.87676206 72.0964249,3.2097968 72.2896455,2.68539909 C72.4832369,2.16133138 72.7880878,1.74946961 73.2060525,1.44948376 C73.6232755,1.14982792 74.1339564,1 74.7373535,1 C75.8699748,1 76.5653464,1.53264815 76.8227266,2.59794446" id="Fill-59"></path>
                        <path d="M8.01362824,2.77318373 C8.01362824,2.51775022 7.94809354,2.2939984 7.81776884,2.10159823 C7.68669943,1.90952808 7.50908549,1.75772005 7.28418231,1.64650417 C7.05927912,1.53561831 6.79565088,1.48017538 6.49366994,1.48017538 C6.19168901,1.48017538 5.92843312,1.53693838 5.70352994,1.65013436 C5.47825439,1.76366036 5.30138517,1.91612842 5.17217754,2.10720852 C5.04259756,2.29828862 4.97817992,2.52006035 4.97817992,2.77318373 C4.97817992,3.12927255 5.12339887,3.41770779 5.41495383,3.63881948 C5.70576408,3.85927113 6.06546023,3.96982698 6.49366994,3.96982698 C6.92225201,3.96982698 7.28269288,3.85894112 7.57499255,3.63650936 C7.86729223,3.41473764 8.01362824,3.12663241 8.01362824,2.77318373 M8.30853441,5.95092169 C8.30853441,5.6426854 8.23518022,5.37834143 8.08847185,5.15755976 C7.94176348,4.93644807 7.73324397,4.76516902 7.46365803,4.64339258 C7.19444444,4.52161614 6.8712392,4.46056292 6.49366994,4.46056292 C6.11647304,4.46056292 5.7932678,4.52161614 5.52368186,4.64339258 C5.25446828,4.76516902 5.04594876,4.93644807 4.89924039,5.15755976 C4.75215967,5.37834143 4.67917784,5.6426854 4.67917784,5.95092169 C4.67917784,6.42878695 4.84450402,6.80764698 5.17627346,7.0881618 C5.50767054,7.36900665 5.94667858,7.50926406 6.49366994,7.50926406 C7.04364015,7.50926406 7.48339291,7.36933666 7.81367292,7.08981189 C8.14358058,6.81028712 8.30853441,6.43076705 8.30853441,5.95092169 M5.41867739,4.17740795 C4.68029491,3.88402244 4.31128984,3.41473764 4.31128984,2.76988355 C4.31128984,2.42369525 4.40624069,2.11908915 4.59614239,1.85639527 C4.78604409,1.59370138 5.04408698,1.38513036 5.36989872,1.23134223 C5.69608281,1.07722408 6.07216265,1 6.49813822,1 C6.92634793,1 7.30428954,1.0775541 7.63159071,1.23299232 C7.95926422,1.38810051 8.21693476,1.59667154 8.40571939,1.85804535 C8.59450402,2.11974919 8.6883378,2.42369525 8.6883378,2.76988355 C8.6883378,3.41473764 8.31933274,3.88402244 7.58095025,4.17740795 C8.52710754,4.46650323 9,5.04007355 9,5.89712885 C9,6.58752534 8.75014894,7.11060299 8.25007447,7.46636179 C7.75,7.8221206 7.16614537,8 6.49813822,8 C6.00737265,8 5.58176944,7.91947574 5.22058385,7.75842723 C4.85939827,7.59671868 4.56560917,7.34656546 4.33958892,7.00796756 C4.11282395,6.66870963 4,6.29843006 4,5.89712885 C4,5.49120739 4.10835567,5.14369902 4.32543938,4.85460374 C4.54215073,4.56583848 4.90668752,4.34043657 5.41867739,4.17740795" id="Fill-60"></path>
                    </g>
                </g>
            </g>
        </g>
    </g>
</svg>