<?xml version="1.0" encoding="UTF-8"?>
<svg width="340px" height="133px" viewBox="0 0 340 133" version="1.1" xmlns="http://www.w3.org/2000/svg" xmlns:xlink="http://www.w3.org/1999/xlink">
    <title>Cholbam Logo_CMYK</title>
    <defs>
        <polygon id="path-1" points="0.324516393 0.329492308 248.925504 0.329492308 248.925504 65.9695385 0.324516393 65.9695385"></polygon>
        <polygon id="path-3" points="0.0112682927 0.06656 20.6255854 0.06656 20.6255854 25.9688 0.0112682927 25.9688"></polygon>
        <polygon id="path-5" points="0.156192982 0.492 28.5344737 0.492 28.5344737 19.97 0.156192982 19.97"></polygon>
    </defs>
    <g id="Patient-PBD-ZSD-Layout-(DSK)" stroke="none" stroke-width="1" fill="none" fill-rule="evenodd">
        <g id="0-0_HOME" transform="translate(-30.000000, -108.000000)">
            <g id="Cholbam-Logo_CMYK" transform="translate(30.000000, 108.800752)">
                <path d="M109.80764,68.8568247 C109.459161,67.5310186 108.984009,66.3123792 108.377531,65.1988654 C107.77002,64.0863722 106.990336,63.1249331 106.036931,62.3104655 C105.083525,61.4985496 103.967255,60.8672863 102.688636,60.4187168 C101.410018,59.9670853 99.9251043,59.7440764 98.2344121,59.7440764 C95.7640368,59.7440764 93.6286977,60.2365332 91.830463,61.2209366 C90.0327453,62.2043194 88.5695469,63.5204295 87.4424187,65.1672257 C86.3152906,66.8140218 85.4818362,68.6853579 84.9389534,70.7812339 C84.3960706,72.8781305 84.1272143,75.0173835 84.1272143,77.2000136 C84.1272143,79.3795817 84.3960706,81.5203657 84.9389534,83.6157314 C85.4818362,85.712628 86.3152906,87.5839641 87.4424187,89.2307603 C88.5695469,90.8790874 90.0327453,92.1941768 91.830463,93.1770493 C93.6286977,94.161963 95.7640368,94.6528889 98.2344121,94.6528889 C100.055913,94.6528889 101.658193,94.3441465 103.045905,93.7235999 C104.4331,93.1025429 105.623306,92.2472499 106.62221,91.1551694 C107.618529,90.0656405 108.399764,88.7929074 108.963328,87.3364599 C109.52379,85.8840949 109.894501,84.3215012 110.068224,82.6542923 L118,82.6542923 C117.826277,85.391638 117.228589,87.8942374 116.211589,90.1620906 C115.193554,92.4294334 113.815666,94.3875236 112.084128,96.0327888 C110.349489,97.6811159 108.312902,98.9528283 105.972302,99.8514983 C103.631184,100.750168 101.052232,101.199248 98.2344121,101.199248 C94.7682346,101.199248 91.6582916,100.567985 88.9056172,99.3049477 C86.1529428,98.0444623 83.8226829,96.3226494 81.9158716,94.1400193 C80.0090604,91.9589202 78.5458619,89.4129438 77.5278274,86.5026003 C76.5097928,83.5953187 76,80.4936059 76,77.2000136 C76,73.9497983 76.5097928,70.867988 77.5278274,67.9581548 C78.5458619,65.0493422 80.0090604,62.5018348 81.9158716,60.3222667 C83.8226829,58.1406572 86.1529428,56.407107 88.9056172,55.1231469 C91.6582916,53.8407178 94.7682346,53.1992481 98.2344121,53.1992481 C100.835596,53.1992481 103.284256,53.5523882 105.58246,54.258158 C107.879113,54.9639277 109.905876,55.9906875 111.661197,57.3384374 C113.416518,58.6846562 114.835252,60.3222667 115.919466,62.2476964 C117.001096,64.1721056 117.674787,66.3776999 117.935371,68.8568247 L109.80764,68.8568247" id="Fill-1" fill="#935893"></path>
                <path d="M122,54.1992481 L129.281113,54.1992481 L129.281113,71.27173 L129.410135,71.27173 C130.30313,69.7696139 131.635004,68.5139227 133.401692,67.5020948 C135.169396,66.4943655 137.138761,65.990757 139.310294,65.990757 C142.930024,65.990757 145.783241,66.9354712 147.868929,68.8248997 C149.955124,70.7143281 151,73.5484707 151,77.3288646 L151,100.199248 L143.717364,100.199248 L143.717364,79.2592784 C143.632026,76.6408216 143.078857,74.7406345 142.056839,73.5597417 C141.034822,72.378849 139.437284,71.7876341 137.266259,71.7876341 C136.031914,71.7876341 134.924559,72.0140786 133.944702,72.4649184 C132.965862,72.9152458 132.134837,73.539249 131.453662,74.3307802 C130.772994,75.1284592 130.239635,76.0619024 129.856632,77.1352084 C129.47363,78.209539 129.281113,79.3468848 129.281113,80.5498072 L129.281113,100.199248 L122,100.199248 L122,54.1992481" id="Fill-2" fill="#935893"></path>
                <path d="M172.000259,94.4176653 C173.647968,94.4176653 175.083822,94.0765207 176.299532,93.3916782 C177.514206,92.7073463 178.513917,91.807501 179.295038,90.6946956 C180.076159,89.5813796 180.65164,88.3291544 181.021999,86.9385308 C181.388732,85.5473965 181.575207,84.1225563 181.575207,82.6680957 C181.575207,81.2539801 181.388732,79.8413965 181.021999,78.4272809 C180.65164,77.0162295 180.076159,75.7640043 179.295038,74.6700947 C178.513917,73.5782279 177.514206,72.692682 176.299532,72.0068181 C175.083822,71.3219755 173.647968,70.9777668 172.000259,70.9777668 C170.347888,70.9777668 168.915142,71.3219755 167.701504,72.0068181 C166.485794,72.692682 165.486083,73.5782279 164.704962,74.6700947 C163.923841,75.7640043 163.346806,77.0162295 162.978519,78.4272809 C162.609714,79.8413965 162.424793,81.2539801 162.424793,82.6680957 C162.424793,84.1225563 162.609714,85.5473965 162.978519,86.9385308 C163.346806,88.3291544 163.923841,89.5813796 164.704962,90.6946956 C165.486083,91.807501 166.485794,92.7073463 167.701504,93.3916782 C168.915142,94.0765207 170.347888,94.4176653 172.000259,94.4176653 M172.000259,100.199248 C169.308292,100.199248 166.909505,99.7610714 164.802861,98.8816539 C162.695181,98.0053006 160.914868,96.7954631 159.461403,95.2521416 C158.004829,93.7113735 156.897896,91.8718486 156.140084,89.7310134 C155.379683,87.5901782 155,85.2358723 155,82.6680957 C155,80.1421961 155.379683,77.8083181 156.140084,75.6674829 C156.897896,73.5266477 158.004829,71.6855907 159.461403,70.1438012 C160.914868,68.6030331 162.695181,67.3947277 164.802861,66.5153102 C166.909505,65.6389569 169.308292,65.1992481 172.000259,65.1992481 C174.693262,65.1992481 177.090495,65.6389569 179.197139,66.5153102 C181.302229,67.3947277 183.082542,68.6030331 184.539115,70.1438012 C185.992581,71.6855907 187.10055,73.5266477 187.859916,75.6674829 C188.619281,77.8083181 189,80.1421961 189,82.6680957 C189,85.2358723 188.619281,87.5901782 187.859916,89.7310134 C187.10055,91.8718486 185.992581,93.7113735 184.539115,95.2521416 C183.082542,96.7954631 181.302229,98.0053006 179.197139,98.8816539 C177.090495,99.7610714 174.693262,100.199248 172.000259,100.199248" id="Fill-3" fill="#935893"></path>
                <polygon id="Fill-4" fill="#935893" points="193 100.199248 201 100.199248 201 54.1992481 193 54.1992481"></polygon>
                <path d="M232.651745,82.639322 C232.651745,81.1329973 232.45748,79.669285 232.070999,78.2476719 C231.684519,76.8291391 231.106848,75.5702747 230.33235,74.4721055 C229.558876,73.3734229 228.592162,72.4934499 227.432208,71.8260259 C226.271229,71.1580885 224.939563,70.8228363 223.435672,70.8228363 C220.341778,70.8228363 218.009055,71.9009828 216.442118,74.0531686 C214.87313,76.2053543 214.09043,79.0670632 214.09043,82.639322 C214.09043,84.3181501 214.292384,85.8778687 214.701931,87.320018 C215.110452,88.7616539 215.720927,89.998442 216.537969,91.031409 C217.356037,92.064376 218.331464,92.8827406 219.470403,93.4859892 C220.610879,94.0876976 221.930243,94.3875251 223.435672,94.3875251 C225.111788,94.3875251 226.529566,94.0455986 227.690545,93.3560982 C228.849987,92.6676247 229.806449,91.7743033 230.558907,90.6756207 C231.308802,89.5784782 231.847005,88.3309087 232.169413,86.9323987 C232.491822,85.5359422 232.651745,84.1035476 232.651745,82.639322 M207,53.1992481 L214.348255,53.1992481 L214.348255,70.2432042 L214.476911,70.2432042 C214.993072,69.4263798 215.615849,68.694267 216.344216,68.0484059 C217.076172,67.4025448 217.880399,66.8526901 218.763051,66.4014088 C219.644165,65.9496141 220.565773,65.6066608 221.534537,65.3684417 C222.50125,65.1333031 223.456175,65.0152204 224.401361,65.0152204 C227.022662,65.0152204 229.311816,65.4777966 231.267796,66.4014088 C233.221214,67.327588 234.844022,68.5972338 236.133145,70.2113732 C237.42278,71.8260259 238.389494,73.7086751 239.034311,75.8603475 C239.677591,78.0125332 240,80.3151461 240,82.7681861 C240,85.0061102 239.710396,87.1803724 239.131188,89.2884055 C238.550954,91.3979788 237.66984,93.2600918 236.486821,94.8732044 C235.305339,96.4873437 233.813749,97.7775257 232.006928,98.7447771 C230.203694,99.715109 228.077026,100.199248 225.627949,100.199248 C224.510539,100.199248 223.381339,100.123778 222.243426,99.9733508 C221.105512,99.8229236 220.019369,99.5302839 218.988584,99.1021057 C217.957286,98.6739275 217.022864,98.1117511 216.184294,97.4232776 C215.346748,96.7353174 214.647598,95.8307012 214.09043,94.7104556 L213.960749,94.7104556 L213.960749,99.2961721 L207,99.2961721 L207,53.1992481" id="Fill-5" fill="#935893"></path>
                <path d="M264.864038,82.6673283 C263.721727,83.3951011 262.315846,83.8338077 260.646919,83.983448 C258.975372,84.1330883 257.308541,84.3588255 255.639614,84.6581062 C254.849428,84.7862963 254.080202,84.9686226 253.332984,85.2040635 C252.585766,85.4395044 251.925531,85.7607458 251.355947,86.1677879 C250.784792,86.5758514 250.336251,87.1095515 250.00561,87.7719524 C249.676016,88.4363963 249.510958,89.2407768 249.510958,90.1810082 C249.510958,90.9950923 249.75252,91.6794542 250.235644,92.2361365 C250.719292,92.7928189 251.301452,93.2310148 251.982646,93.5522562 C252.662793,93.8734977 253.410011,94.0966814 254.222205,94.225893 C255.034923,94.3535724 255.771137,94.4179229 256.4298,94.4179229 C257.265049,94.4179229 258.164226,94.312715 259.132047,94.0966814 C260.095675,93.8842228 261.008476,93.5211025 261.866258,93.0062989 C262.721943,92.4935383 263.436674,91.8403303 264.006781,91.0466748 C264.578985,90.2560837 264.864038,89.2816342 264.864038,88.1258799 L264.864038,82.6673283 Z M272.376044,91.9148951 C272.376044,92.8147798 272.496563,93.456752 272.738125,93.8408118 C272.978115,94.225893 273.451284,94.4179229 274.15501,94.4179229 L274.94572,94.4179229 C275.25121,94.4179229 275.604383,94.3770655 276,94.2897327 L276,99.3647353 C275.735906,99.4490037 275.395309,99.5470615 274.980304,99.6532908 C274.560059,99.7610523 274.133002,99.8560458 273.692846,99.9433785 C273.254785,100.026115 272.814629,100.091487 272.376044,100.134898 C271.936412,100.177287 271.562278,100.199248 271.256265,100.199248 C269.717813,100.199248 268.443979,99.8984353 267.433191,99.3008955 C266.42345,98.7008022 265.764787,97.6543414 265.457202,96.1543633 C263.963289,97.5670087 262.129828,98.5945729 259.954197,99.2370558 C257.780137,99.8790281 255.683106,100.199248 253.662577,100.199248 C252.123601,100.199248 250.653269,99.9964932 249.247388,99.5894511 C247.842555,99.182409 246.601208,98.5838478 245.524397,97.7901924 C244.448109,96.9996012 243.5919,95.9939979 242.956817,94.7728717 C242.31859,93.5522562 242,92.1288858 242,90.5022497 C242,88.4471213 242.384089,86.7760528 243.154887,85.492619 C243.921493,84.2091852 244.931233,83.2020498 246.183584,82.4737662 C247.436458,81.7470148 248.840767,81.2219969 250.401751,80.9007555 C251.960115,80.579514 253.530006,80.333348 255.113522,80.163279 C256.473292,79.9058772 257.769134,79.723551 258.999476,79.6157895 C260.228246,79.510071 261.31711,79.327234 262.261351,79.0688108 C263.205067,78.8129412 263.950714,78.4196885 264.500909,77.8819027 C265.051105,77.3471812 265.324631,76.5443328 265.324631,75.4743791 C265.324631,74.5341477 265.094597,73.7639852 264.63348,73.1623597 C264.172888,72.5632878 263.601732,72.1021096 262.920014,71.7824003 C262.238819,71.4611588 261.482169,71.2461466 260.646919,71.1399173 C259.812194,71.0321559 259.021484,70.9780198 258.27479,70.9780198 C256.16623,70.9780198 254.430231,71.406512 253.06889,72.262475 C251.707549,73.1215023 250.936751,74.4468149 250.763832,76.2450522 L243.251302,76.2450522 C243.382825,74.1041233 243.910489,72.3278469 244.833246,70.9126479 C245.754955,69.5000025 246.930802,68.3677412 248.357643,67.5102461 C249.786056,66.6542831 251.398915,66.0567433 253.201461,65.7125195 C255.001387,65.3693171 256.847425,65.1992481 258.735382,65.1992481 C260.405357,65.1992481 262.053324,65.3693171 263.679808,65.7125195 C265.303671,66.0567433 266.764572,66.6118935 268.05989,67.3820559 C269.356256,68.152729 270.399007,69.1486287 271.190765,70.3682227 C271.980951,71.5888382 272.376044,73.0765591 272.376044,74.8324068 L272.376044,91.9148951 L272.376044,91.9148951 Z" id="Fill-6" fill="#935893"></path>
                <g id="Group-10" transform="translate(79.000000, 65.199248)">
                    <mask id="mask-2" fill="white">
                        <use xlink:href="#path-1"></use>
                    </mask>
                    <g id="Clip-8"></g>
                    <path d="M200.804213,1.22404615 L207.735904,1.22404615 L207.735904,5.81815385 L207.927756,5.81815385 C208.482393,5.01193846 209.080402,4.26664615 209.722291,3.58583077 C210.36418,2.90552308 211.080566,2.33081538 211.873488,1.86221538 C212.663348,1.39412308 213.573117,1.02249231 214.599732,0.743769231 C215.627367,0.469107692 216.802463,0.329492308 218.128082,0.329492308 C220.137941,0.329492308 222.010033,0.777276923 223.742318,1.67030769 C225.474602,2.56486154 226.703785,3.94730769 227.431395,5.81815385 C228.673844,4.11789231 230.104574,2.77707692 231.731748,1.79875385 C233.356881,0.819415385 235.389701,0.329492308 237.827656,0.329492308 C241.332535,0.329492308 244.060309,1.18343077 246.007408,2.88369231 C247.954506,4.58598462 248.925504,7.43769231 248.925504,11.4383077 L248.925504,34.2291231 L241.61266,34.2291231 L241.61266,14.9505231 C241.61266,13.6300154 241.568268,12.4288154 241.485098,11.3423538 C241.399377,10.2558923 241.151908,9.32072308 240.745242,8.5338 C240.339086,7.74636923 239.730873,7.14018462 238.91652,6.71372308 C238.103189,6.28929231 236.991363,6.07403077 235.580023,6.07403077 C233.101248,6.07403077 231.3011,6.84267692 230.192846,8.37387692 C229.077959,9.9066 228.524342,12.0769846 228.524342,14.8855385 L228.524342,34.2291231 L221.207926,34.2291231 L221.207926,13.0334769 C221.207926,10.7361692 220.790545,9.00189231 219.958334,7.83166154 C219.124592,6.66092308 217.593855,6.07403077 215.370713,6.07403077 C214.428289,6.07403077 213.51852,6.26593846 212.641918,6.65026154 C211.764805,7.03306154 210.995355,7.58644615 210.333055,8.31041538 C209.669225,9.0354 209.134998,9.92690769 208.728332,10.9915385 C208.320645,12.0551538 208.120629,13.2685385 208.120629,14.6296615 L208.120629,34.2291231 L200.804213,34.2291231 L200.804213,1.22404615" id="Fill-7" fill="#935893" mask="url(#mask-2)"></path>
                    <path d="M2.84666189,62.9584154 C2.31651639,61.9476 1.86494877,60.9246 1.4883873,59.8899231 C1.11437705,58.8522 0.827618852,57.7885846 0.62505123,56.6970462 C0.423504098,55.6039846 0.324516393,54.4581231 0.324516393,53.2579385 C0.324516393,51.1124308 0.68475,48.9476308 1.40674795,46.7655692 C2.1287459,44.583 3.20281352,42.5552769 4.62793033,40.6798615 L6.41021926,40.6798615 C5.09429508,42.7542923 4.16156557,44.8089231 3.61356148,46.8468 C3.06708811,48.8841692 2.79206557,51.0215538 2.79206557,53.2579385 C2.79206557,55.5496615 3.06963934,57.7241077 3.62733811,59.7787385 C4.18452664,61.8354 5.11317418,63.9078 6.41021926,65.9994923 L4.62793033,65.9994923 C3.97124385,64.9810615 3.37680738,63.9677077 2.84666189,62.9584154" id="Fill-9" fill="#777776" mask="url(#mask-2)"></path>
                </g>
                <path d="M95.3209393,114.031553 C94.7310129,113.532708 93.9372377,113.28251 92.9427021,113.28251 C92.0933317,113.28251 91.3829492,113.440693 90.8120694,113.754991 C90.24016,114.070324 89.783559,114.486459 89.4432961,115.005465 C89.0999446,115.523437 88.8574879,116.121535 88.7092342,116.79769 C88.5609804,117.473846 88.4868536,118.171196 88.4868536,118.894392 C88.4868536,119.561243 88.5681872,120.20845 88.723133,120.839631 C88.8791083,121.468745 89.123624,122.029623 89.4566801,122.518647 C89.7871624,123.010255 90.222143,123.404162 90.7575038,123.700368 C91.2908054,123.996574 91.9275758,124.143901 92.6642116,124.143901 C93.8270769,124.143901 94.7356458,123.839942 95.390948,123.227887 C96.0452206,122.616348 96.444682,121.75668 96.5939653,120.645263 L99,120.645263 C98.7410707,122.42198 98.0821652,123.7929 97.0222539,124.755956 C95.9602835,125.718495 94.5184129,126.199248 92.6930387,126.199248 C91.6048151,126.199248 90.640651,126.022972 89.8026055,125.671971 C88.9630158,125.320453 88.2618991,124.821607 87.6997703,124.171816 C87.1371268,123.525643 86.7134711,122.751269 86.4282886,121.851797 C86.1415617,120.953875 86,119.967556 86,118.894392 C86,117.819678 86.1374436,116.815783 86.4143898,115.881676 C86.6897917,114.944983 87.109844,114.130805 87.6719728,113.435006 C88.2346163,112.740758 88.9383068,112.193837 89.7871624,111.797346 C90.6380771,111.399303 91.6243763,111.199248 92.7491486,111.199248 C93.5599113,111.199248 94.3197117,111.297466 95.0300942,111.491318 C95.7409915,111.687238 96.3679813,111.986028 96.9110636,112.393893 C97.4556902,112.801757 97.9025105,113.315077 98.2525541,113.935403 C98.6025976,114.556246 98.8244635,115.2934 98.9166073,116.144797 L96.482775,116.144797 C96.2990021,115.235503 95.9108656,114.532984 95.3209393,114.031553" id="Fill-11" fill="#777776"></path>
                <path d="M103.185747,107.199248 L103.185747,114.463896 L103.235488,114.463896 C103.408626,114.03901 103.648246,113.678502 103.955302,113.38435 C104.263794,113.092675 104.611983,112.853986 104.996522,112.66779 C105.382973,112.480602 105.785686,112.344421 106.206096,112.254789 C106.624114,112.166148 107.032088,112.121579 107.425714,112.121579 C108.300013,112.121579 109.027958,112.246866 109.610505,112.493478 C110.191617,112.743061 110.664638,113.088713 111.023827,113.531921 C111.384451,113.97711 111.635549,114.504502 111.783338,115.11707 C111.927779,115.729143 112,116.406087 112,117.150379 L112,126.199248 L109.817122,126.199248 L109.817122,116.885445 C109.817122,116.032703 109.576069,115.35972 109.098265,114.86105 C108.617592,114.36634 107.957563,114.116758 107.117701,114.116758 C106.449541,114.116758 105.871299,114.223722 105.382973,114.436164 C104.894648,114.650093 104.487152,114.950682 104.16192,115.341398 C103.836689,115.732114 103.592287,116.188692 103.429193,116.712619 C103.267055,117.236545 103.185747,117.807515 103.185747,118.429492 L103.185747,126.199248 L101,126.199248 L101,107.199248 L103.185747,107.199248" id="Fill-12" fill="#777776"></path>
                <path d="M117.654458,121.047441 C117.868916,121.723596 118.168193,122.28861 118.545542,122.740414 C118.927229,123.196353 119.37012,123.543219 119.881446,123.783078 C120.38988,124.023972 120.929157,124.143901 121.499277,124.143901 C122.069398,124.143901 122.607711,124.023972 123.119036,123.783078 C123.62747,123.543219 124.073253,123.196353 124.450602,122.740414 C124.830843,122.28861 125.128675,121.723596 125.344578,121.047441 C125.561446,120.370768 125.667952,119.596912 125.667952,118.727421 C125.667952,117.856897 125.561446,117.085625 125.344578,116.407919 C125.128675,115.732797 124.830843,115.161064 124.450602,114.698404 C124.073253,114.236778 123.62747,113.884226 123.119036,113.644366 C122.607711,113.403473 122.069398,113.281993 121.499277,113.281993 C120.929157,113.281993 120.38988,113.403473 119.881446,113.644366 C119.37012,113.884226 118.927229,114.236778 118.545542,114.698404 C118.168193,115.161064 117.868916,115.732797 117.654458,116.407919 C117.436145,117.085625 117.329639,117.856897 117.329639,118.727421 C117.329639,119.596912 117.436145,120.370768 117.654458,121.047441 M115.413494,115.768466 C115.690602,114.852451 116.104096,114.056366 116.656386,113.380211 C117.208675,112.703539 117.889639,112.171609 118.702169,111.783388 C119.512771,111.392066 120.446265,111.199248 121.499277,111.199248 C122.569157,111.199248 123.506506,111.392066 124.310843,111.783388 C125.113253,112.171609 125.78988,112.703539 126.343614,113.380211 C126.894458,114.056366 127.309398,114.852451 127.585542,115.768466 C127.861687,116.686032 128,117.67235 128,118.727421 C128,119.782492 127.861687,120.766226 127.585542,121.672936 C127.309398,122.579129 126.894458,123.372629 126.343614,124.0462 C125.78988,124.722355 125.113253,125.252734 124.310843,125.63165 C123.506506,126.009015 122.569157,126.199248 121.499277,126.199248 C120.446265,126.199248 119.512771,126.009015 118.702169,125.63165 C117.889639,125.252734 117.208675,124.722355 116.656386,124.0462 C116.104096,123.372629 115.690602,122.579129 115.413494,121.672936 C115.138313,120.766226 115,119.782492 115,118.727421 C115,117.67235 115.138313,116.686032 115.413494,115.768466" id="Fill-13" fill="#777776"></path>
                <polygon id="Fill-14" fill="#777776" points="130 126.199248 132 126.199248 132 107.199248 130 107.199248"></polygon>
                <path d="M136,126.199248 L137.998688,126.199248 L137.998688,112.441976 L136,112.441976 L136,126.199248 Z M136.001312,109.96546 L138,109.96546 L138,107.199248 L136.001312,107.199248 L136.001312,109.96546 Z" id="Fill-15" fill="#777776"></path>
                <path d="M149.321376,114.031553 C148.73152,113.532708 147.937324,113.28251 146.941877,113.28251 C146.092608,113.28251 145.383854,113.440693 144.813042,113.754991 C144.239656,114.070324 143.78311,114.486459 143.444431,115.005465 C143.100091,115.523437 142.857149,116.121535 142.710457,116.79769 C142.56222,117.473846 142.488102,118.171196 142.488102,118.894392 C142.488102,119.561243 142.567882,120.20845 142.72281,120.839631 C142.88031,121.468745 143.124797,122.029623 143.457814,122.518647 C143.789801,123.010255 144.222156,123.404162 144.756939,123.700368 C145.290177,123.996574 145.926872,124.143901 146.664964,124.143901 C147.826662,124.143901 148.734608,123.839942 149.388803,123.227887 C150.044542,122.616348 150.444986,121.75668 150.594251,120.645263 L153,120.645263 C152.741101,122.42198 152.082274,123.7929 151.022489,124.755956 C149.960645,125.718495 148.518945,126.199248 146.693788,126.199248 C145.604664,126.199248 144.641644,126.022972 143.802154,125.671971 C142.962664,125.320453 142.262145,124.821607 141.699568,124.171816 C141.136992,123.525643 140.713386,122.751269 140.428238,121.851797 C140.142574,120.953875 140,119.967556 140,118.894392 C140,117.819678 140.137427,116.815783 140.415885,115.881676 C140.691254,114.944983 141.109712,114.130805 141.672289,113.435006 C142.234351,112.740758 142.941046,112.193837 143.789801,111.797346 C144.635982,111.399303 145.623708,111.199248 146.748347,111.199248 C147.560557,111.199248 148.320268,111.297466 149.030566,111.491318 C149.739835,111.687238 150.367779,111.986028 150.909768,112.393893 C151.454329,112.801757 151.902641,113.315077 152.252643,113.935403 C152.60213,114.556246 152.82294,115.2934 152.915073,116.144797 L150.482045,116.144797 C150.298294,115.235503 149.911233,114.532984 149.321376,114.031553" id="Fill-16" fill="#777776"></path>
                <path d="M170.186347,118.963893 C169.720959,119.064169 169.235661,119.149972 168.727468,119.213032 C168.219274,119.277642 167.706103,119.352074 167.189946,119.436326 C166.671797,119.519028 166.2084,119.653935 165.798759,119.838462 C165.387625,120.024541 165.053143,120.287635 164.795811,120.63033 C164.537484,120.971991 164.407573,121.440289 164.407573,122.032639 C164.407573,122.420819 164.48323,122.750075 164.635539,123.020406 C164.785359,123.287635 164.982962,123.503693 165.224366,123.671681 C165.463282,123.838118 165.749483,123.959586 166.079983,124.032467 C166.40899,124.108449 166.744467,124.144114 167.082931,124.144114 C167.832032,124.144114 168.474117,124.036602 169.007198,123.823128 C169.544261,123.611205 169.98078,123.343976 170.319243,123.020406 C170.658703,122.695285 170.908071,122.34277 171.068344,121.962343 C171.229114,121.583466 171.308753,121.226815 171.308753,120.893425 L171.308753,118.477504 C171.023547,118.699248 170.64825,118.862067 170.186347,118.963893 M173.368405,126.199248 C172.779577,126.199248 172.311203,126.028676 171.96378,125.685465 C171.616357,125.342253 171.442645,124.7835 171.442645,124.003521 C170.81798,124.7835 170.09078,125.342253 169.262042,125.685465 C168.432805,126.028676 167.536373,126.199248 166.573245,126.199248 C165.950073,126.199248 165.361245,126.128952 164.80925,125.98991 C164.25626,125.851901 163.770963,125.619303 163.350371,125.297284 C162.932269,124.973197 162.600773,124.55452 162.360862,124.046422 C162.120951,123.536774 162,122.921164 162,122.199076 C162,121.383948 162.132897,120.718717 162.40317,120.200799 C162.669959,119.681329 163.021365,119.260068 163.458879,118.935981 C163.893905,118.612411 164.394134,118.364824 164.956582,118.200971 C165.517536,118.034017 166.093422,117.894975 166.680757,117.783328 C167.304426,117.655141 167.898231,117.555899 168.460678,117.489737 C169.020637,117.426677 169.516885,117.334155 169.944942,117.213204 C170.373497,117.093287 170.711961,116.91858 170.959836,116.685465 C171.2102,116.454417 171.335133,116.116891 171.335133,115.671853 C171.335133,115.153935 171.24106,114.737842 171.055402,114.420992 C170.866759,114.105692 170.628341,113.867408 170.331189,113.700971 C170.039015,113.534017 169.70752,113.42237 169.342676,113.36603 C168.976836,113.310723 168.617467,113.283328 168.259093,113.283328 C167.296462,113.283328 166.493606,113.473542 165.853013,113.853452 C165.211425,114.232329 164.862509,114.951316 164.80925,116.005244 L162.536067,116.005244 C162.571904,115.115168 162.748105,114.366202 163.070143,113.754727 C163.391186,113.142735 163.818746,112.649627 164.355808,112.269717 C164.888889,111.889289 165.504097,111.61534 166.200934,111.448904 C166.895781,111.2835 167.626465,111.199248 168.392986,111.199248 C169.016655,111.199248 169.635845,111.246285 170.251551,111.33829 C170.866759,111.432363 171.425224,111.621026 171.92396,111.908931 C172.422697,112.195285 172.824374,112.597422 173.128494,113.11534 C173.432116,113.63481 173.583429,114.312446 173.583429,115.14308 L173.583429,122.534017 C173.583429,123.087601 173.613791,123.496974 173.675013,123.755933 C173.737231,124.014893 173.948273,124.144114 174.30366,124.144114 C174.501263,124.144114 174.733211,124.097594 175,124.003521 L175,125.838462 C174.607282,126.07778 174.063251,126.199248 173.368405,126.199248" id="Fill-17" fill="#777776"></path>
                <path d="M185.320939,114.031553 C184.731013,113.532708 183.936723,113.28251 182.941158,113.28251 C182.091787,113.28251 181.382434,113.440693 180.812069,113.754991 C180.238616,114.070324 179.782015,114.486459 179.442781,115.005465 C179.098915,115.523437 178.855944,116.121535 178.709234,116.79769 C178.56098,117.473846 178.486854,118.171196 178.486854,118.894392 C178.486854,119.561243 178.566643,120.20845 178.721589,120.839631 C178.879108,121.468745 179.123624,122.029623 179.45668,122.518647 C179.788707,123.010255 180.220599,123.404162 180.755959,123.700368 C181.289261,123.996574 181.926032,124.143901 182.663697,124.143901 C183.825533,124.143901 184.733587,123.839942 185.388374,123.227887 C186.043676,122.616348 186.444167,121.75668 186.593965,120.645263 L189,120.645263 C188.740556,122.42198 188.082165,123.7929 187.021739,124.755956 C185.960284,125.718495 184.518413,126.199248 182.692524,126.199248 C181.603271,126.199248 180.640651,126.022972 179.801061,125.671971 C178.961471,125.320453 178.260355,124.821607 177.698226,124.171816 C177.137127,123.525643 176.712956,122.751269 176.427774,121.851797 C176.141047,120.953875 176,119.967556 176,118.894392 C176,117.819678 176.136929,116.815783 176.413875,115.881676 C176.689792,114.944983 177.109844,114.130805 177.670428,113.435006 C178.233072,112.740758 178.939336,112.193837 179.788707,111.797346 C180.634989,111.399303 181.622832,111.199248 182.747604,111.199248 C183.559397,111.199248 184.319712,111.297466 185.030094,111.491318 C185.739447,111.687238 186.367467,111.986028 186.909519,112.393893 C187.454146,112.801757 187.90251,113.315077 188.252554,113.935403 C188.602083,114.556246 188.822919,115.2934 188.915063,116.144797 L186.481231,116.144797 C186.297458,115.235503 185.910866,114.532984 185.320939,114.031553" id="Fill-18" fill="#777776"></path>
                <path d="M191,126.199248 L193,126.199248 L193,112.441976 L191,112.441976 L191,126.199248 Z M191,109.96546 L193,109.96546 L193,107.199248 L191,107.199248 L191,109.96546 Z" id="Fill-19" fill="#777776"></path>
                <g id="Group-23" transform="translate(195.000000, 105.199248)">
                    <mask id="mask-4" fill="white">
                        <use xlink:href="#path-3"></use>
                    </mask>
                    <g id="Clip-21"></g>
                    <path d="M2.74792683,15.36808 C2.92258537,16.00924 3.19046341,16.58176 3.54643902,17.0846 C3.9054878,17.589 4.36287805,17.98992 4.92219512,18.28736 C5.48202439,18.58532 6.13968293,18.73352 6.89312195,18.73352 C7.68087805,18.73352 8.34929268,18.577 8.90092683,18.25824 C9.45256098,17.9426 9.9012439,17.52972 10.2495366,17.01544 C10.5973171,16.50272 10.8498293,15.9224 11.0070732,15.26824 C11.1627805,14.61668 11.2406341,13.95576 11.2406341,13.28496 C11.2406341,12.57724 11.1571463,11.89136 10.9932439,11.23148 C10.8283171,10.569 10.5676098,9.98712 10.208561,9.48584 C9.8495122,8.98144 9.38802439,8.57532 8.81897561,8.26904 C8.24839024,7.9612 7.56204878,7.8078 6.75380488,7.8078 C5.96502439,7.8078 5.29507317,7.96692 4.746,8.28308 C4.19334146,8.60028 3.75387805,9.01888 3.4224878,9.54096 C3.09314634,10.062 2.85446341,10.65792 2.7084878,11.33028 C2.56097561,11.99952 2.48721951,12.688 2.48721951,13.39624 C2.48721951,14.06808 2.57480488,14.72484 2.74792683,15.36808 M11.1571463,20.49476 L11.1571463,18.53852 L11.1023415,18.53852 C10.7161463,19.33932 10.1127805,19.91704 9.28712195,20.27064 C8.45992683,20.62372 7.55231707,20.80104 6.56173171,20.80104 C5.46153659,20.80104 4.50065854,20.59772 3.6857561,20.18848 C2.86829268,19.77716 2.18860976,19.227 1.64773171,18.53852 C1.10736585,17.84952 0.699146341,17.04716 0.425121951,16.1356 C0.146487805,15.22092 0.0112682927,14.25372 0.0112682927,13.22984 C0.0112682927,12.20596 0.142390244,11.23564 0.409756098,10.32252 C0.674560976,9.41096 1.08021951,8.6138 1.62058537,7.93208 C2.1624878,7.25348 2.84217073,6.71268 3.65860976,6.31384 C4.47453659,5.91344 5.42209756,5.7122 6.50692683,5.7122 C6.87263415,5.7122 7.26702439,5.74964 7.68907317,5.82452 C8.11214634,5.8994 8.53368293,6.0242 8.95573171,6.20308 C9.37726829,6.37884 9.7757561,6.61024 10.1537561,6.89988 C10.5291951,7.18952 10.8447073,7.54572 11.1023415,7.97524 L11.1571463,7.97524 L11.1571463,0.54392 L13.4968537,0.54392 L13.4968537,20.49476 L11.1571463,20.49476" id="Fill-20" fill="#777776" mask="url(#mask-4)"></path>
                    <path d="M17.3239756,19.6976 C17.8725366,17.60408 18.1486098,15.41748 18.1486098,13.14456 C18.1486098,10.79884 17.8699756,8.56752 17.3101463,6.4532 C16.7508293,4.33732 15.8268293,2.21 14.5437805,0.06656 L16.3047073,0.06656 C16.9649268,1.11124 17.5600976,2.15072 18.0922683,3.18448 C18.6259756,4.21668 19.0792683,5.26968 19.4572683,6.34088 C19.8311707,7.41364 20.120561,8.50668 20.3239024,9.6252 C20.5246829,10.7406 20.6255854,11.91684 20.6255854,13.14456 C20.6255854,15.3426 20.2639756,17.5552 19.5376829,19.7834 C18.8129268,22.00744 17.7362927,24.08224 16.3047073,26 L14.5437805,26 C15.8457805,23.89348 16.7723415,21.79424 17.3239756,19.6976" id="Fill-22" fill="#777776" mask="url(#mask-4)"></path>
                </g>
                <path d="M234.320939,114.031553 C233.731013,113.532708 232.937238,113.28251 231.942702,113.28251 C231.093332,113.28251 230.382949,113.440693 229.812069,113.754991 C229.24016,114.070324 228.783044,114.486459 228.443296,115.005465 C228.099945,115.523437 227.857488,116.121535 227.709234,116.79769 C227.56098,117.473846 227.486854,118.171196 227.486854,118.894392 C227.486854,119.561243 227.568187,120.20845 227.723133,120.839631 C227.879108,121.468745 228.123624,122.029623 228.45668,122.518647 C228.787162,123.010255 229.221113,123.404162 229.757504,123.700368 C230.290805,123.996574 230.927576,124.143901 231.664212,124.143901 C232.827077,124.143901 233.735131,123.839942 234.390948,123.227887 C235.045221,122.616348 235.444682,121.75668 235.593965,120.645263 L238,120.645263 C237.741071,122.42198 237.082165,123.7929 236.022254,124.755956 C234.960284,125.718495 233.518413,126.199248 231.693039,126.199248 C230.604815,126.199248 229.640651,126.022972 228.802606,125.671971 C227.963016,125.320453 227.26087,124.821607 226.698226,124.171816 C226.135582,123.525643 225.713471,122.751269 225.427774,121.851797 C225.141562,120.953875 225,119.967556 225,118.894392 C225,117.819678 225.137444,116.815783 225.41439,115.881676 C225.689792,114.944983 226.109844,114.130805 226.671973,113.435006 C227.234616,112.740758 227.938307,112.193837 228.787162,111.797346 C229.638077,111.399303 230.624376,111.199248 231.749149,111.199248 C232.559911,111.199248 233.319712,111.297466 234.030094,111.491318 C234.740992,111.687238 235.367467,111.986028 235.912093,112.393893 C236.45569,112.801757 236.90251,113.315077 237.252554,113.935403 C237.602083,114.556246 237.824463,115.2934 237.916607,116.144797 L235.482775,116.144797 C235.297973,115.235503 234.910866,114.532984 234.320939,114.031553" id="Fill-24" fill="#777776"></path>
                <g id="Group-28" transform="translate(239.000000, 111.199248)">
                    <mask id="mask-6" fill="white">
                        <use xlink:href="#path-5"></use>
                    </mask>
                    <g id="Clip-26"></g>
                    <path d="M8.5224386,8.003 C8.0492807,8.1 7.55170175,8.183 7.03224561,8.244 C6.51177193,8.3065 5.98722807,8.3785 5.45861404,8.46 C4.93101754,8.54 4.45633333,8.6705 4.03761404,8.849 C3.61736842,9.029 3.27852632,9.2835 3.0124386,9.615 C2.74940351,9.9455 2.61661404,10.3985 2.61661404,10.9715 C2.61661404,11.347 2.69394737,11.6655 2.84861404,11.927 C3.0032807,12.1855 3.20526316,12.3945 3.45049123,12.557 C3.69724561,12.718 3.98724561,12.8355 4.32659649,12.906 C4.66238596,12.9795 5.00580702,13.014 5.35126316,13.014 C6.11747368,13.014 6.77378947,12.91 7.31868421,12.7035 C7.86612281,12.4985 8.31231579,12.24 8.6582807,11.927 C9.00526316,11.6125 9.26015789,11.2715 9.42398246,10.9035 C9.58831579,10.537 9.67073684,10.192 9.67073684,9.8695 L9.67073684,7.5325 C9.37819298,7.747 8.99559649,7.9045 8.5224386,8.003 M11.7765439,15.002 C11.1746667,15.002 10.6959123,14.837 10.3392632,14.505 C9.98668421,14.173 9.80759649,13.6325 9.80759649,12.878 C9.16807018,13.6325 8.4262807,14.173 7.57764912,14.505 C6.7315614,14.837 5.81526316,15.002 4.82926316,15.002 C4.19329825,15.002 3.59142105,14.934 3.02617544,14.7995 C2.46347368,14.666 1.96589474,14.441 1.53649123,14.1295 C1.10759649,13.816 0.770280702,13.411 0.523526316,12.9195 C0.277789474,12.4265 0.156192982,11.831 0.156192982,11.1325 C0.156192982,10.344 0.293052632,9.7005 0.56677193,9.1995 C0.840491228,8.697 1.19866667,8.2895 1.64587719,7.976 C2.09359649,7.663 2.60338596,7.4235 3.17677193,7.265 C3.75015789,7.1035 4.33880702,6.969 4.94170175,6.861 C5.57766667,6.737 6.18361404,6.641 6.76005263,6.577 C7.3334386,6.516 7.84068421,6.4265 8.27721053,6.3095 C8.71373684,6.1935 9.0607193,6.0245 9.31408772,5.799 C9.57050877,5.5755 9.69668421,5.249 9.69668421,4.8185 C9.69668421,4.3175 9.60307018,3.915 9.41075439,3.6085 C9.21792982,3.3035 8.9737193,3.073 8.67150877,2.912 C8.37184211,2.7505 8.03605263,2.6425 7.66159649,2.588 C7.28764912,2.5345 6.91878947,2.508 6.554,2.508 C5.56850877,2.508 4.74938596,2.692 4.09307018,3.0595 C3.43573684,3.426 3.08163158,4.1215 3.02617544,5.141 L0.702614035,5.141 C0.740263158,4.28 0.920877193,3.5555 1.25005263,2.964 C1.57821053,2.372 2.01473684,1.895 2.56268421,1.5275 C3.10910526,1.1595 3.73642105,0.8945 4.4497193,0.7335 C5.15894737,0.5735 5.90735088,0.492 6.68933333,0.492 C7.32784211,0.492 7.96126316,0.5375 8.59010526,0.6265 C9.21792982,0.7175 9.79029825,0.9 10.2985614,1.1785 C10.8083509,1.4555 11.2204561,1.8445 11.5297895,2.3455 C11.8401404,2.848 11.994807,3.5035 11.994807,4.307 L11.994807,11.4565 C11.994807,11.992 12.0258421,12.388 12.0894386,12.6385 C12.1535439,12.889 12.3677368,13.014 12.7320175,13.014 C12.934,13.014 13.1715965,12.969 13.4437895,12.878 L13.4437895,14.653 C13.0413509,14.8845 12.4852632,15.002 11.7765439,15.002" id="Fill-25" fill="#777776" mask="url(#mask-6)"></path>
                    <path d="M25.8161053,5.7455 C25.6410877,5.1275 25.3780526,4.5785 25.0229298,4.0935 C24.6662807,3.6095 24.2109298,3.2245 23.6548421,2.937 C23.0992632,2.6515 22.4470175,2.508 21.7001404,2.508 C20.9176491,2.508 20.2521754,2.6595 19.7042281,2.9635 C19.1562807,3.27 18.711614,3.667 18.3661579,4.16 C18.0161228,4.6545 17.7668246,5.214 17.6121579,5.84 C17.4574912,6.4675 17.3806667,7.103 17.3806667,7.747 C17.3806667,8.4305 17.4605439,9.087 17.6258947,9.7215 C17.7897193,10.3585 18.0502105,10.918 18.4053333,11.4015 C18.7619825,11.8865 19.2214035,12.2745 19.7856316,12.57 C20.3508772,12.866 21.0341579,13.014 21.837,13.014 C22.6383158,13.014 23.309386,12.862 23.8461404,12.557 C24.3828947,12.253 24.8168772,11.8495 25.1450351,11.347 C25.473193,10.846 25.7102807,10.2745 25.8552807,9.628 C26.001807,8.9835 26.0750702,8.3195 26.0750702,7.639 C26.0750702,6.994 25.9880702,6.364 25.8161053,5.7455 M17.4605439,0.8155 L17.4605439,2.6955 L17.5175263,2.6955 C17.9011404,1.927 18.5014912,1.366 19.320614,1.017 C20.1422807,0.668 21.0438246,0.492 22.0293158,0.492 C23.1206316,0.492 24.0750877,0.6905 24.8845439,1.0835 C25.6970526,1.479 26.3706667,2.012 26.9099649,2.6825 C27.4457018,3.355 27.851193,4.1295 28.123386,5.0075 C28.4001579,5.884 28.5344737,6.8155 28.5344737,7.8015 C28.5344737,8.7875 28.4027018,9.719 28.1371228,10.594 C27.8740877,11.4735 27.4726667,12.2395 26.9359123,12.8925 C26.3991579,13.5465 25.7250351,14.061 24.9130351,14.438 C24.1025614,14.814 23.1572632,15.0015 22.0822281,15.0015 C21.7367719,15.0015 21.3485789,14.967 20.9217193,14.895 C20.491807,14.823 20.0690175,14.706 19.6497895,14.5445 C19.2295439,14.3835 18.8337193,14.165 18.4597719,13.8865 C18.0868421,13.6105 17.7724211,13.2655 17.5175263,12.851 L17.4605439,12.851 L17.4605439,19.9995 L15.1395263,19.9995 L15.1395263,0.8155 L17.4605439,0.8155" id="Fill-27" fill="#777776" mask="url(#mask-6)"></path>
                </g>
                <path d="M271.679552,122.686652 C271.897762,123.047475 272.185148,123.33541 272.540183,123.547354 C272.895727,123.76085 273.29705,123.913864 273.741607,124.004845 C274.190234,124.098411 274.649542,124.143901 275.122584,124.143901 C275.48881,124.143901 275.869278,124.116504 276.2706,124.062742 C276.670397,124.004845 277.040692,123.903008 277.377925,123.755164 C277.715666,123.606802 277.991862,123.390205 278.211597,123.10227 C278.431333,122.815887 278.5412,122.449377 278.5412,122.005844 C278.5412,121.394306 278.311801,120.93268 277.855036,120.617348 C277.400814,120.302015 276.831638,120.047165 276.148525,119.852796 C275.464395,119.657393 274.722787,119.482151 273.920142,119.325002 C273.119023,119.16837 272.374873,118.943501 271.693286,118.659702 C271.008647,118.371768 270.437945,117.967005 269.985249,117.449033 C269.53001,116.931061 269.299593,116.209415 269.299593,115.282027 C269.299593,114.560381 269.459817,113.940572 269.779247,113.4226 C270.099186,112.903077 270.508647,112.481772 271.008647,112.159203 C271.510173,111.834048 272.074262,111.594706 272.70295,111.434455 C273.332146,111.277823 273.956765,111.199248 274.576297,111.199248 C275.377416,111.199248 276.115972,111.269552 276.789929,111.407057 C277.463377,111.547665 278.061038,111.787524 278.581892,112.130254 C279.099695,112.473501 279.515259,112.936161 279.826043,113.51875 C280.133774,114.102891 280.316378,114.830223 280.370804,115.699713 L278.047813,115.699713 C278.012208,115.235503 277.893184,114.852451 277.693795,114.546424 C277.490336,114.240913 277.23703,113.995368 276.926755,113.810821 C276.61648,113.626274 276.276195,113.491353 275.901831,113.406058 C275.527976,113.324899 275.151068,113.281993 274.769074,113.281993 C274.423194,113.281993 274.070702,113.310941 273.71414,113.366254 C273.359105,113.4226 273.035097,113.51875 272.745168,113.657807 C272.452187,113.795829 272.217701,113.981927 272.033571,114.212999 C271.851984,114.446138 271.760936,114.744928 271.760936,115.115573 C271.760936,115.523437 271.901831,115.860481 272.185148,116.13084 C272.465921,116.399131 272.826551,116.620897 273.26297,116.79769 C273.701933,116.972416 274.192777,117.121294 274.74059,117.241224 C275.286368,117.362187 275.834181,117.487803 276.380468,117.615487 C276.964395,117.746789 277.532553,117.903422 278.089522,118.087969 C278.643947,118.274066 279.137335,118.519612 279.56409,118.825123 C279.992879,119.13115 280.33825,119.515235 280.602747,119.978412 C280.866734,120.442623 281,121.01539 281,121.700334 C281,122.570858 280.822482,123.292504 280.466938,123.866822 C280.111902,124.441658 279.646999,124.904318 279.072228,125.255319 C278.497457,125.606837 277.852492,125.853416 277.131231,125.990922 C276.411495,126.130495 275.695829,126.199248 274.985758,126.199248 C274.203459,126.199248 273.455239,126.118089 272.745168,125.951118 C272.033571,125.783113 271.4059,125.51172 270.858596,125.13022 C270.312309,124.751304 269.875381,124.251424 269.547813,123.631615 C269.21821,123.010255 269.036623,122.255009 269,121.366908 L271.323499,121.366908 C271.340793,121.884881 271.4588,122.325312 271.679552,122.686652" id="Fill-29" fill="#777776"></path>
                <path d="M292.943957,125.887828 L292.943957,123.558783 L292.890391,123.558783 C292.430304,124.467665 291.839174,125.135448 291.120348,125.562131 C290.400087,125.986171 289.551652,126.199248 288.575043,126.199248 C287.702217,126.199248 286.971913,126.072354 286.390826,125.817507 C285.805913,125.562131 285.336739,125.197309 284.977565,124.722512 C284.615522,124.249301 284.364435,123.685677 284.217609,123.031641 C284.073652,122.378134 284,121.655364 284,120.8591 L284,111.199248 L286.184217,111.199248 L286.184217,121.144084 C286.184217,122.052438 286.425261,122.770979 286.904478,123.300764 C287.383696,123.832135 288.043696,124.097027 288.884957,124.097027 C289.551652,124.097027 290.130348,123.982822 290.616739,123.755998 C291.106478,123.529174 291.514435,123.207708 291.839174,122.789484 C292.163913,122.375491 292.408783,121.888004 292.57187,121.327024 C292.734,120.76763 292.815304,120.159065 292.815304,119.493926 L292.815304,111.199248 L295,111.199248 L295,125.887828 L292.943957,125.887828" id="Fill-30" fill="#777776"></path>
                <polygon id="Fill-31" fill="#777776" points="299 126.199248 301 126.199248 301 107.199248 299 107.199248"></polygon>
                <path d="M313.170645,115.754195 C312.962357,115.255901 312.681598,114.824804 312.326343,114.463489 C311.974128,114.102691 311.554004,113.814776 311.074587,113.601295 C310.593649,113.389365 310.061526,113.2834 309.482272,113.2834 C308.882747,113.2834 308.340995,113.389365 307.860564,113.601295 C307.378612,113.814776 306.966597,114.105792 306.623504,114.477445 C306.276357,114.849615 306.003708,115.279161 305.805049,115.768151 C305.603855,116.258692 305.488815,116.783348 305.449793,117.338502 L313.539077,117.338502 C313.501575,116.783348 313.379946,116.255591 313.170645,115.754195 M313.731148,124.977807 C312.676024,125.791929 311.351291,126.199248 309.753908,126.199248 C308.628848,126.199248 307.652276,126.014714 306.825711,125.644612 C305.999653,125.273992 305.30536,124.754505 304.743336,124.089251 C304.179286,123.422447 303.757642,122.624866 303.476884,121.700644 C303.194605,120.773837 303.036488,119.763809 303,118.673145 C303,117.579378 303.162171,116.579689 303.490567,115.67149 C303.815922,114.763809 304.276082,113.9776 304.864964,113.310796 C305.455368,112.643991 306.154729,112.125021 306.961022,111.755435 C307.769849,111.385333 308.654694,111.199248 309.618597,111.199248 C310.871873,111.199248 311.90926,111.463385 312.734304,111.992694 C313.562389,112.518901 314.225262,113.189324 314.724951,114.004996 C315.222106,114.819118 315.568746,115.708707 315.759297,116.673248 C315.948327,117.635721 316.026878,118.551672 315.99191,119.422653 L305.449793,119.422653 C305.432056,120.051724 305.505032,120.649781 305.668724,121.213204 C305.833428,121.779213 306.095436,122.279058 306.457279,122.711705 C306.822164,123.148488 307.285364,123.496881 307.84536,123.755849 C308.409917,124.014817 309.071777,124.14456 309.834994,124.14456 C310.815113,124.14456 311.618873,123.912987 312.245257,123.449843 C312.872149,122.985664 313.284164,122.282159 313.485357,121.338295 L315.77298,121.338295 C315.464855,122.948964 314.781711,124.162135 313.731148,124.977807" id="Fill-32" fill="#777776"></path>
                <path d="M319.678876,122.686652 C319.89813,123.047475 320.184535,123.33541 320.539616,123.547354 C320.894697,123.76085 321.29607,123.913864 321.740684,124.004845 C322.189368,124.098411 322.648735,124.143901 323.121836,124.143901 C323.488109,124.143901 323.868625,124.116504 324.269999,124.062742 C324.671372,124.004845 325.040188,123.903008 325.376447,123.755164 C325.715249,123.606802 325.993005,123.390205 326.211243,123.10227 C326.431006,122.815887 326.540888,122.449377 326.540888,122.005844 C326.540888,121.394306 326.311459,120.93268 325.854636,120.617348 C325.400865,120.302015 324.831108,120.047165 324.147908,119.852796 C323.463691,119.657393 322.721989,119.482151 321.919242,119.325002 C321.11853,119.16837 320.375302,118.943501 319.692102,118.659702 C319.007376,118.371768 318.437111,117.967005 317.984357,117.449033 C317.528551,116.931061 317.298105,116.209415 317.298105,115.282027 C317.298105,114.560381 317.458349,113.940572 317.778329,113.4226 C318.0978,112.903077 318.507313,112.481772 319.007376,112.159203 C319.509475,111.834048 320.073127,111.594706 320.701895,111.434455 C321.331171,111.277823 321.955869,111.199248 322.57548,111.199248 C323.376701,111.199248 324.11535,111.269552 324.789393,111.407057 C325.462928,111.547665 326.060664,111.787524 326.581585,112.130254 C327.099453,112.473501 327.515579,112.936161 327.825893,113.51875 C328.133664,114.102891 328.3168,114.830223 328.370724,115.699713 L326.047437,115.699713 C326.012336,115.235503 325.892789,114.852451 325.693374,114.546424 C325.490398,114.240913 325.236551,113.995368 324.926237,113.810821 C324.615923,113.626274 324.275595,113.491353 323.901183,113.406058 C323.52728,113.324899 323.150324,113.281993 322.768282,113.281993 C322.420832,113.281993 322.069821,113.310941 321.71474,113.366254 C321.358133,113.4226 321.034084,113.51875 320.744118,113.657807 C320.4511,113.795829 320.217093,113.981927 320.033957,114.212999 C319.85082,114.446138 319.76027,114.744928 319.76027,115.115573 C319.76027,115.523437 319.900674,115.860481 320.184535,116.13084 C320.464835,116.399131 320.825512,116.620897 321.26453,116.79769 C321.701005,116.972416 322.191911,117.121294 322.739794,117.241224 C323.28615,117.362187 323.833524,117.487803 324.37988,117.615487 C324.96439,117.746789 325.532112,117.903422 326.089152,118.087969 C326.643647,118.274066 327.137098,118.519612 327.564416,118.825123 C327.992751,119.13115 328.338166,119.515235 328.602696,119.978412 C328.866718,120.442623 329,121.01539 329,121.700334 C329,122.570858 328.82246,123.292504 328.46687,123.866822 C328.111789,124.441658 327.646827,124.904318 327.071983,125.255319 C326.497138,125.606837 325.852092,125.853416 325.130739,125.990922 C324.410912,126.130495 323.695155,126.199248 322.984993,126.199248 C322.203103,126.199248 321.454788,126.118089 320.744118,125.951118 C320.033957,125.783113 319.40468,125.51172 318.857306,125.13022 C318.31095,124.751304 317.874475,124.251424 317.546356,123.631615 C317.216711,123.010255 317.034084,122.255009 317,121.366908 L319.322269,121.366908 C319.339565,121.884881 319.457586,122.325312 319.678876,122.686652" id="Fill-33" fill="#777776"></path>
                <path d="M70.3727695,30.0260429 C70.3727695,23.1844852 76.6314229,17.6404644 84.3447849,17.6404644 C96.5605741,17.6404644 112.405762,30.0260429 112.405762,30.0260429 C112.405762,30.0260429 96.5605741,42.4116214 84.3447849,42.4116214 C76.6314229,42.4116214 70.3727695,36.8670921 70.3727695,30.0260429 Z M83.6171764,13.1992481 C73.8913235,13.1992481 66,20.7200805 66,30.0021462 C66,30.0102813 66.0010169,30.0179078 66.0010169,30.0260429 L66,30.0260429 L66,125.199248 L70.5985264,125.199248 L70.5985264,41.2935636 C73.8216643,44.6716335 78.4532407,46.8055528 83.6171764,46.8055528 C99.0205111,46.8055528 119,30.0021462 119,30.0021462 C119,30.0021462 99.0205111,13.1992481 83.6171764,13.1992481 L83.6171764,13.1992481 Z" id="Fill-34" fill="#739549"></path>
                <path d="M43.6552151,29.5378877 C31.4394259,29.5378877 15.5942381,17.0989908 15.5942381,17.0989908 C15.5942381,17.0989908 31.4394259,4.6600939 43.6552151,4.6600939 C51.3685771,4.6600939 57.6272305,10.2274704 57.6272305,17.0989908 C57.6272305,23.9689792 51.3685771,29.5378877 43.6552151,29.5378877 Z M9,17.0744806 C9,17.0744806 28.9794889,33.9502238 44.3828236,33.9502238 C49.5467593,33.9502238 54.1783357,31.8071183 57.4014736,28.4145062 L57.4014736,126.199248 L62,126.199248 L62,17.0989908 L61.9989831,17.0989908 C61.9989831,17.0908207 62,17.0826507 62,17.0744806 C62,7.7529674 54.1086765,0.19924812 44.3828236,0.19924812 C28.9794889,0.19924812 9,17.0744806 9,17.0744806 L9,17.0744806 Z" id="Fill-35" fill="#739549"></path>
                <path d="M34.6552151,78.4399218 C22.4394259,78.4399218 6.59423808,66.0425601 6.59423808,66.0425601 C6.59423808,66.0425601 22.4394259,53.6451985 34.6552151,53.6451985 C42.3685771,53.6451985 48.6272305,59.1939848 48.6272305,66.0425601 C48.6272305,72.8901176 42.3685771,78.4399218 34.6552151,78.4399218 Z M0,66.0186408 C0,66.0186408 19.9794889,82.8375245 35.3828236,82.8375245 C40.5467593,82.8375245 45.1783357,80.702084 48.4014736,77.3202914 L48.4014736,125.199248 L53,125.199248 L53,66.0425601 L52.9989831,66.0425601 C52.9989831,66.0344174 53,66.0267835 53,66.0186408 C53,56.7277445 45.1086765,49.1992481 35.3828236,49.1992481 C19.9794889,49.1992481 0,66.0186408 0,66.0186408 L0,66.0186408 Z" id="Fill-36" fill="#935893"></path>
                <path d="M333.700674,66.4328077 L334.288006,66.4328077 C334.973143,66.4328077 335.528714,66.1990609 335.528714,65.6327141 C335.528714,65.1327843 335.169256,64.7991545 334.385811,64.7991545 C334.059627,64.7991545 333.830744,64.8326205 333.700674,64.8660864 L333.700674,66.4328077 Z M333.667904,69.5327843 L332.427196,69.5327843 L332.427196,64.0659928 C332.917228,63.9661098 333.602365,63.8991779 334.483615,63.8991779 C335.49544,63.8991779 335.952198,64.0659928 336.344425,64.2992247 C336.638343,64.5329715 336.866722,64.9659694 336.866722,65.4993651 C336.866722,66.0996928 336.409964,66.5661566 335.757092,66.7659226 L335.757092,66.8328545 C336.278885,67.0326205 336.572804,67.4326673 336.736147,68.165829 C336.898987,68.9993885 336.997296,69.3325034 337.127366,69.5327843 L335.789358,69.5327843 C335.626014,69.3325034 335.528714,68.8325737 335.364865,68.1992949 C335.267061,67.5994821 334.940877,67.3327843 334.255236,67.3327843 L333.667904,67.3327843 L333.667904,69.5327843 Z M330.371282,66.6660396 C330.371282,69.0992715 332.133782,71.0325737 334.549154,71.0325737 C336.898987,71.0325737 338.629222,69.0992715 338.629222,66.6995056 C338.629222,64.2662736 336.898987,62.2995056 334.516385,62.2995056 C332.133782,62.2995056 330.371282,64.2662736 330.371282,66.6660396 Z M340,66.6660396 C340,69.7660162 337.617398,72.1992481 334.516385,72.1992481 C331.448142,72.1992481 329,69.7660162 329,66.6660396 C329,63.6329949 331.448142,61.1992481 334.516385,61.1992481 C337.617398,61.1992481 340,63.6329949 340,66.6660396 L340,66.6660396 Z" id="Fill-37" fill="#935893"></path>
            </g>
        </g>
    </g>
</svg>