<?xml version="1.0" encoding="UTF-8"?>
<svg width="1050px" height="775px" viewBox="0 0 1050 775" version="1.1" xmlns="http://www.w3.org/2000/svg" xmlns:xlink="http://www.w3.org/1999/xlink">
    <title>Group 7</title>
    <defs>
        <polygon id="path-1" points="0.000245050662 0.197423624 1047.83279 0.197423624 1047.83279 772.935934 0.000245050662 772.935934"></polygon>
        <path d="M0.244105585,0.19739333 C0.244105585,0.19739333 136.595679,20.1578232 109.002753,116.048479 L109.002753,116.048479 C93.5378255,169.786463 106.201876,199.728129 110.852558,209.793554 L110.852558,209.793554 C111.771327,211.7822 113.232689,214.08594 114.907491,216.423191 L114.907491,216.423191 C120.638861,224.420277 127.900287,231.214204 136.209281,236.486609 L136.209281,236.486609 C240.806684,302.858583 255.336486,383.400375 227.82043,473.042693 L227.82043,473.042693 C225.17534,481.65975 221.552192,491.193889 217.700066,500.467697 L217.700066,500.467697 C200.895216,540.921069 203.448716,586.984417 225.303322,624.95096 L225.303322,624.95096 C229.338628,631.961489 233.684689,638.046353 238.271584,642.405762 L238.271584,642.405762 C247.342744,651.028949 257.615623,655.446391 269.221065,657.225383 L269.221065,657.225383 C300.879147,662.080932 342.442109,647.309944 396.51947,644.756091 L396.51947,644.756091 C396.51947,644.756091 424.47467,642.642797 456.815185,647.740695 L456.815185,647.740695 C526.800297,658.772652 553.243842,698.263579 608.853302,728.479062 L608.853302,728.479062 C673.849583,763.79326 723.752615,772.053946 782.919802,771.875394 L782.919802,771.875394 C873.304699,771.595405 958.150812,755.973133 1002.83236,735.953035 L1002.83236,735.953035 L1002.83236,0.19739333 L0.244105585,0.19739333 Z" id="path-3"></path>
        <radialGradient cx="103.023323%" cy="-2.01900065%" fx="103.023323%" fy="-2.01900065%" r="156.611803%" gradientTransform="translate(1.030233,-0.020190),scale(0.769686,1.000000),scale(1.000000,0.976100),translate(-1.030233,0.020190)" id="radialGradient-5">
            <stop stop-color="#755EA5" offset="0%"></stop>
            <stop stop-color="#A05EA5" offset="100%"></stop>
        </radialGradient>
    </defs>
    <g id="Patient-PBD-ZSD-Layout-(DSK)" stroke="none" stroke-width="1" fill="none" fill-rule="evenodd">
        <g id="0-0_HOME" transform="translate(-467.000000, -51.000000)">
            <g id="Group-7" transform="translate(467.827167, 51.384021)">
                <g id="Group-3" transform="translate(0.172833, 0.615979)">
                    <mask id="mask-2" fill="white">
                        <use xlink:href="#path-1"></use>
                    </mask>
                    <g id="Clip-2"></g>
                    <path d="M1047.83279,0.197382749 L1047.83279,736.065533 C1003.20253,756.089112 876.892803,777.7538 781.777205,771.99091 C722.785751,768.416848 672.832582,763.910848 607.910901,728.590413 C552.364859,698.37111 534.60277,684.118187 464.697576,673.084536 C432.394181,667.985448 404.471067,670.099066 404.471067,670.099066 C382.302967,671.147087 356.914084,673.435648 334.681863,675.769988 C299.187908,679.496103 263.827915,667.452036 238.032248,642.769995 C237.937495,642.679254 237.844784,642.590557 237.754116,642.504311 C233.172894,638.144233 228.831413,632.058027 224.800738,625.046831 C202.971625,587.074461 200.421056,541.004044 217.206209,500.544055 C221.054321,491.269232 224.673311,481.73363 227.315366,473.115251 C254.79984,383.459175 240.286714,302.905022 135.809364,236.522862 C127.509498,231.249648 120.256407,224.455087 114.532024,216.456365 C112.858736,214.118755 111.399051,211.814253 110.481745,209.825711 C105.836401,199.758741 93.1872942,169.812479 108.633654,116.066656 C136.194911,20.1604672 0.000245050662,0.197382749 0.000245050662,0.197382749 L1047.83279,0.197382749 Z" id="Fill-1" fill="#A05FA6" mask="url(#mask-2)"></path>
                </g>
                <g id="Group-6" transform="translate(45.172833, 1.615979)">
                    <mask id="mask-4" fill="white">
                        <use xlink:href="#path-3"></use>
                    </mask>
                    <g id="Clip-5"></g>
                    <path d="M0.244105585,0.19739333 C0.244105585,0.19739333 136.595679,20.1578232 109.002753,116.048479 L109.002753,116.048479 C93.5378255,169.786463 106.201876,199.728129 110.852558,209.793554 L110.852558,209.793554 C111.771327,211.7822 113.232689,214.08594 114.907491,216.423191 L114.907491,216.423191 C120.638861,224.420277 127.900287,231.214204 136.209281,236.486609 L136.209281,236.486609 C240.806684,302.858583 255.336486,383.400375 227.82043,473.042693 L227.82043,473.042693 C225.17534,481.65975 221.552192,491.193889 217.700066,500.467697 L217.700066,500.467697 C200.895216,540.921069 203.448716,586.984417 225.303322,624.95096 L225.303322,624.95096 C229.338628,631.961489 233.684689,638.046353 238.271584,642.405762 L238.271584,642.405762 C247.342744,651.028949 257.615623,655.446391 269.221065,657.225383 L269.221065,657.225383 C300.879147,662.080932 342.442109,647.309944 396.51947,644.756091 L396.51947,644.756091 C396.51947,644.756091 424.47467,642.642797 456.815185,647.740695 L456.815185,647.740695 C526.800297,658.772652 553.243842,698.263579 608.853302,728.479062 L608.853302,728.479062 C673.849583,763.79326 723.752615,772.053946 782.919802,771.875394 L782.919802,771.875394 C873.304699,771.595405 958.150812,755.973133 1002.83236,735.953035 L1002.83236,735.953035 L1002.83236,0.19739333 L0.244105585,0.19739333 Z" id="Fill-4" fill="url(#radialGradient-5)" mask="url(#mask-4)"></path>
                </g>
            </g>
        </g>
    </g>
</svg>