<?xml version="1.0" encoding="UTF-8"?>
<svg width="816px" height="735px" viewBox="0 0 816 735" version="1.1" xmlns="http://www.w3.org/2000/svg" xmlns:xlink="http://www.w3.org/1999/xlink">
    <title>HERO_child_playing</title>
    <defs>
        <polygon id="path-1" points="0.438238331 0.206055241 34.347357 0.206055241 34.347357 52.8734123 0.438238331 52.8734123"></polygon>
        <polygon id="path-3" points="0.456355671 0.340001219 28.7254456 0.340001219 28.7254456 58.4125317 0.456355671 58.4125317"></polygon>
        <polygon id="path-5" points="0 0.321772481 30.3630016 0.321772481 30.3630016 55.1887643 0 55.1887643"></polygon>
        <polygon id="path-7" points="0 0.229369898 62.6732649 0.229369898 62.6732649 36.5478651 0 36.5478651"></polygon>
    </defs>
    <g id="Patient-PBD-ZSD-Layout-(DSK)" stroke="none" stroke-width="1" fill="none" fill-rule="evenodd">
        <g id="0-0_HOME" transform="translate(-610.000000, -186.000000)">
            <g id="HERO_child_playing" transform="translate(610.000000, 186.000000)">
                <rect id="Rectangle" x="0" y="0" width="816" height="735"></rect>
                <g id="Group-83" transform="translate(0.000000, 133.000000)">
                    <line x1="259.674312" y1="87" x2="265.674312" y2="83" id="Stroke-1" stroke="#FFFFFF" stroke-width="3"></line>
                    <g id="Group-82" transform="translate(0.674312, 0.000000)">
                        <path d="M276.226381,134.256219 C270.153046,139.035472 244.253301,170.840088 235.636493,181.49534 L183.963826,178.405518 L182.152092,211.340115 C182.152092,211.340115 235.741171,216.226122 245.553724,212.215296 C263.026389,205.076378 283.004783,182.03767 283.004783,182.03767 L289.712728,128.675267 C289.712728,128.675267 283.534715,128.504599 276.226381,134.256219" id="Fill-2" fill="#824B33"></path>
                        <path d="M276.586614,243.471892 C274.949008,219.536854 266.049871,143.397629 282.985055,134.32002 C297.787425,126.379944 326.466671,131.176318 326.466671,131.176318 C326.466671,131.176318 378.166515,132.805322 379.807644,172.375784 C381.077368,203.018696 371.706173,215.120161 371.706173,259.261907 C371.706173,276.471448 382.594695,294.412152 377.000966,325.81342 C375.395065,334.847723 297.373243,290.157101 297.373243,290.157101 C297.373243,290.157101 278.703827,274.402335 276.586614,243.471892" id="Fill-4" fill="#A8694A"></path>
                        <path d="M375.208759,281.195561 L375.20121,281.195561 C375.023056,280.380303 374.841379,279.577635 374.671277,278.780001 C364.676041,280.657259 350.725689,284.370484 333.542902,282.560702 L349.83945,289.917156 C360.035486,296.791707 378.847324,337.532434 345.639246,352.253902 C346.095702,352.249874 346.556688,352.249874 347.013648,352.233257 C347.218474,352.223689 347.431856,352.216136 347.640709,352.20254 C350.907366,352.011692 354.089476,351.460801 357.12413,350.457717 C396.161966,337.578257 375.208759,281.195561 375.208759,281.195561" id="Fill-6" fill="#7A9C49"></path>
                        <path d="M270.725906,161.855435 C273.246229,146.662134 274.28697,128.270244 293.978506,128.67611 C313.669538,129.081977 336.237202,131.117351 348.968156,134.817986 C361.711189,138.520636 379.722342,149.930718 382.633194,178.694862 C385.544047,207.464041 380.179301,296.711843 385.63715,302.502237 C370.351147,307.196389 366.170068,300.923588 349.839299,289.916854 C333.515575,278.913142 287.344037,283.627939 279.458967,287.228871 C271.573898,290.836852 267.993207,178.350429 270.725906,161.855435" id="Fill-8" fill="#0081A3"></path>
                        <path d="M262.825639,261.118016 C259.004893,259.662738 228.43641,299.88178 252.273294,314.821289 C274.198296,326.091383 269.015227,323.207012 269.015227,323.207012 C269.015227,323.207012 280.058752,311.168995 280.352656,310.451931 C280.655114,309.731342 284.47888,275.865166 284.66106,274.773959 C284.84324,273.680739 275.742799,267.492535 275.742799,267.492535 L262.825639,261.118016 Z" id="Fill-10" fill="#667F3B"></path>
                        <path d="M171.712578,304.648545 C159.662534,305.305182 129.690414,273.932114 121.348385,280.486906 C113.010383,287.045224 111.818161,299.861235 121.348385,315.521333 C129.538933,328.979882 156.198096,336.815218 156.198096,336.815218 C156.198096,336.815218 163.347399,350.525042 174.066323,351.416841 C184.788265,352.312667 191.299436,331.622546 191.299436,331.622546 L185.086698,312.973338 C185.086698,312.973338 183.766145,303.991404 171.712578,304.648545" id="Fill-12" fill="#824B33"></path>
                        <path d="M297.903376,273.791219 C297.903376,273.791219 246.420437,256.23221 227.340865,259.222328 C208.261293,262.217984 169.908393,309.035125 169.908393,309.035125 L191.299436,331.622647 C191.299436,331.622647 225.46723,309.346826 235.929994,305.805818 C246.397287,302.263803 271.825478,325.928935 279.276737,328.898407 C286.732526,331.869389 346.068828,296.891864 346.068828,296.891864 L297.903376,273.791219 Z" id="Fill-14" fill="#824B33"></path>
                        <path d="M262.825639,261.118016 C270.10277,263.30345 276.110178,282.057398 271.922053,296.621757 C267.741477,311.190144 259.914786,318.631699 252.273294,314.821289 C258.091477,318.290792 280.352656,334.49322 280.352656,334.49322 L293.757978,297.808639 L286.418945,269.366772 L262.825639,261.118016 Z" id="Fill-16" fill="#667F3B"></path>
                        <path d="M299.920339,135.305882 C304.700801,156.36511 346.920746,147.451157 342.840318,133.975486 C337.100141,114.960193 337.785077,87.32603 337.785077,87.32603 L293.541022,94.8914599 L299.920339,135.305882 Z" id="Fill-18" fill="#824B33"></path>
                        <polygon id="Fill-20" fill="#667F3B" points="201.421594 222.494894 172.192788 205.496344 172.08811 169.491565 201.320942 186.490115"></polygon>
                        <polygon id="Fill-22" fill="#9DB224" points="201.320841 186.489863 172.08801 169.491313 203.39578 151.405584 232.628612 168.403128"></polygon>
                        <polygon id="Fill-24" fill="#7A9C49" points="232.628562 168.403128 232.73324 204.407404 201.421443 222.494643 201.320791 186.489863"></polygon>
                        <path d="M219.862278,182.513077 C222.095744,181.219441 223.799277,180.727467 224.561715,180.773794 L223.667926,185.199047 C222.82396,185.268034 221.600537,185.5747 220.044458,186.474555 C216.64947,188.437921 213.998299,192.346021 214.0139,197.228503 C214.024972,201.614479 216.297189,203.074792 220.117934,200.868208 C221.445533,200.099278 222.858182,198.993468 223.737376,198.059875 L224.363934,201.606926 C223.605522,202.46851 221.794292,204.035578 219.506474,205.361945 C212.914278,209.168327 209.504192,206.377618 209.492531,200.133016 C209.469468,192.654198 214.098951,185.844102 219.862278,182.513077" id="Fill-26" fill="#FFFFFF"></path>
                        <path d="M222.943786,222.034845 C217.365659,223.148208 212.240464,216.362787 211.261625,211.264783 C210.889716,209.527514 200.248295,210.528584 195.843265,208.69866 C191.20271,206.756947 192.828238,202.08042 193.919807,201.150855 C194.720996,200.412138 210.920415,202.050206 214.977693,202.320616 C228.594887,203.164576 230.097116,208.292794 231.099609,213.385259 C232.106128,218.441468 228.510339,220.925007 222.943786,222.034845" id="Fill-28" fill="#C1815D"></path>
                        <path d="M182.70613,220.980298 C183.201337,220.980298 183.441392,220.378044 183.081058,220.037137 L182.20287,219.196701 C181.010649,218.065714 180.062005,216.59684 180.151082,214.959779 C180.263308,212.851388 181.184777,211.762196 182.152041,211.340216 C184.56366,210.295336 199.55576,215.279033 202.18831,214.463776 C203.527483,214.066973 215.434099,211.738025 215.434099,211.738025 C222.703681,210.329075 226.981387,210.516901 230.306422,215.321836 L232.156907,219.93844 L230.705003,233.905078 L208.733702,239.256874 C208.733702,239.256874 193.091392,240.674385 187.613916,232.486056 C184.803715,228.303014 182.957256,224.896959 181.792211,222.12891 C181.552156,221.548813 182.079069,220.980298 182.70613,220.980298" id="Fill-30" fill="#C1815D"></path>
                        <path d="M230.801831,214.135558 C230.801831,214.135558 284.990292,232.263081 293.196441,229.704008 C301.406615,227.146445 336.712782,158.042406 349.254511,150.677392 C349.254511,150.677392 369.542409,143.44028 375.519119,167.609976 C381.073593,190.054991 318.899411,254.72421 318.899411,254.72421 L318.895385,254.72421 C313.325309,260.823788 304.975731,261.92003 293.014764,258.787406 C275.734847,254.26547 225.703812,235.044726 225.703812,235.044726 L230.801831,214.135558 Z" id="Fill-32" fill="#C1815D"></path>
                        <path d="M304.170567,22.3477282 L304.178619,22.3603171 L343.115803,29.2363785 C330.21374,103.356846 330.93793,113.103682 317.648861,124.110415 C301.991453,137.082026 294.682616,136.739608 285.265122,136.749683 C272.367589,136.761261 263.711526,110.475118 259.18672,47.2949149 L279.176186,20.4790308 L304.170567,22.3477282 Z" id="Fill-34" fill="#C1815D"></path>
                        <path d="M296.083992,1.66012444 C292.511354,2.24978887 252.772477,15.499866 259.941912,56.9893809 C262.237278,34.4330796 304.634874,39.7158889 311.830981,60.505211 C313.421784,65.1182904 315.585799,73.6787476 317.238504,80.5875402 C317.877643,83.2367499 321.585659,83.1944512 322.483474,80.6167464 C323.060712,78.9620604 323.714446,77.3738438 324.43461,76.0852432 C324.43461,76.0852432 330.291544,70.3759218 336.213398,72.3010176 C343.277651,74.5916952 334.940151,90.5735653 334.374991,91.3968799 L338.269213,109.857254 C338.826824,110.351243 337.170094,105.333304 345.895103,91.8062712 C354.337281,78.7143107 356.253693,75.774549 358.347252,71.4902919 C374.330269,38.8029413 359.404097,-8.66680833 296.083992,1.66012444" id="Fill-36" fill="#2D1503"></path>
                        <path d="M341.745427,139.76583 C334.750624,148.510589 314.846209,171.343846 300.787153,166.006653 C286.728097,160.667445 298.584387,137.534572 299.920541,135.305832 C301.251662,133.082631 332.973615,135.305832 332.973615,135.305832 L341.745427,139.76583 Z" id="Fill-38" fill="#824B33"></path>
                        <path d="M320.12988,275.102278 C312.496944,274.449669 286.557945,340.467915 315.488821,348.294691 C339.329731,351.208268 344.365346,348.294691 344.365346,348.294691 C344.365346,348.294691 347.331053,307.690932 347.51273,306.96581 C347.694407,306.234647 336.597033,287.302944 336.597033,286.755578 C336.597033,286.21073 330.228787,278.77975 330.228787,278.77975 L324.825794,276.377283 L320.12988,275.102278 Z" id="Fill-40" fill="#667F3B"></path>
                        <path d="M349.839399,289.917106 L333.577577,282.577269 C314.742085,274.586838 285.137344,263.751817 276.067603,270.215465 C268.813621,275.378932 267.694875,297.159756 267.694875,297.159756 C267.203694,306.047022 269.762265,329.948322 263.317021,349.476739 C260.410195,358.275378 279.853623,383.302127 294.411913,359.005031 C298.132007,352.799707 301.123884,346.326994 303.551105,339.968085 C316.239785,346.379364 331.626943,352.454267 345.639196,352.253852 C378.847777,337.532887 360.035436,296.791657 349.839399,289.917106" id="Fill-42" fill="#C1815D"></path>
                        <path d="M265.000827,348.032842 C261.606342,352.006908 231.153609,361.817696 231.153609,361.817696 C231.153609,361.817696 216.638096,364.261454 211.265299,365.845642 C205.227192,367.590465 204.599627,370.615328 203.480881,373.116492 C202.764743,374.802399 202.628863,376.531107 203.276055,378.177736 C205.009784,382.286252 210.026777,386.882714 214.443382,389.802334 C227.631296,398.425736 245.592626,394.935083 245.592626,394.935083 C248.561353,394.316716 279.818295,395.544386 290.839173,388.6789 C301.855523,381.807874 299.091622,348.064062 298.251682,348.148156 C297.671424,349.735869 297.330214,353.782448 297.330214,353.782448 C297.330214,353.782448 286.832725,361.800071 276.837992,356.925646 C266.831684,352.044675 268.399841,344.069853 265.000827,348.032842" id="Fill-44" fill="#C1815D"></path>
                        <path d="M313.328983,344.542391 C315.558925,330.166362 311.819204,311.633979 308.730198,307.720843 C309.821768,317.551773 307.909382,328.477434 303.551155,339.968085 C306.667337,341.543209 309.945569,343.096681 313.328983,344.542391" id="Fill-46" fill="#A8694A"></path>
                        <path d="M175.40147,179.528852 C176.35414,185.326799 179.659548,191.87706 181.842688,195.701066 C184.025827,199.525073 174.348651,216.931 161.036432,205.496243 C147.728742,194.062997 173.605337,168.543771 175.40147,179.528852" id="Fill-48" fill="#A8694A"></path>
                        <path d="M320.12988,275.102278 C341.961778,279.74406 347.423653,347.748332 315.488821,348.294691 C322.859056,351.296894 356.752574,362.268882 371.191087,341.765076 C374.717426,321.529666 372.623364,314.510595 372.623364,314.510595 L364.448417,300.057018 C364.448417,300.057018 337.324746,274.010064 320.12988,275.102278" id="Fill-50" fill="#7A9C49"></path>
                        <g id="Group-54" transform="translate(120.782269, 384.717019)">
                            <mask id="mask-2" fill="white">
                                <use xlink:href="#path-1"></use>
                            </mask>
                            <g id="Clip-53"></g>
                            <polygon id="Fill-52" fill="#035D72" mask="url(#mask-2)" points="0.438238331 15.6048071 34.2431823 0.206055241 34.347357 37.4757683 0.542916297 52.8735131"></polygon>
                        </g>
                        <polygon id="Fill-55" fill="#067089" points="93.0561452 379.517901 126.868638 364.119149 155.025501 384.923075 121.220557 400.321827"></polygon>
                        <g id="Group-59" transform="translate(92.599739, 379.177900)">
                            <mask id="mask-4" fill="white">
                                <use xlink:href="#path-3"></use>
                            </mask>
                            <g id="Clip-58"></g>
                            <polygon id="Fill-57" fill="#0081A3" mask="url(#mask-4)" points="28.6207677 21.1439265 28.7254456 58.4126324 0.564556454 37.6097142 0.456355671 0.340001219"></polygon>
                        </g>
                        <path d="M109.735472,399.626466 C111.74851,401.111957 113.277412,402.749018 113.966374,403.760159 L113.161662,407.19542 C112.399224,406.194351 111.307151,404.985312 109.902051,403.947986 C106.852299,401.694571 104.467352,402.387968 104.47943,407.438638 C104.494528,411.98122 106.534742,416.34806 109.97603,418.887494 C111.168252,419.768718 112.437472,420.403199 113.223563,420.547216 L113.796272,424.997647 C113.110833,424.93017 111.485305,424.265476 109.426471,422.744736 C103.496061,418.366817 100.430205,411.1997 100.414507,404.735548 C100.391454,396.989845 104.545357,395.793899 109.735472,399.626466" id="Fill-60" fill="#FFFFFF"></path>
                        <g id="Group-64" transform="translate(0.000000, 313.715580)">
                            <mask id="mask-6" fill="white">
                                <use xlink:href="#path-5"></use>
                            </mask>
                            <g id="Clip-63"></g>
                            <polygon id="Fill-62" fill="#6C4472" mask="url(#mask-6)" points="30.3630016 55.1887643 0.108553064 37.5919891 -0.000150977836 0.321772481 30.2588269 17.9160299"></polygon>
                        </g>
                        <g id="Group-67" transform="translate(0.000000, 295.083997)">
                            <mask id="mask-8" fill="white">
                                <use xlink:href="#path-7"></use>
                            </mask>
                            <g id="Clip-66"></g>
                            <polygon id="Fill-65" fill="#864F8E" mask="url(#mask-8)" points="30.2588269 36.5478651 -0.000150977836 18.9531041 32.4107643 0.229369898 62.6732649 17.825138"></polygon>
                        </g>
                        <polygon id="Fill-68" fill="#A05FA6" points="62.6733656 312.909034 62.7780435 350.180761 30.3631022 368.904495 30.2589275 331.631761"></polygon>
                        <path d="M43.6094446,334.134134 L43.6245424,339.418957 L45.0915437,338.572479 C47.4608892,337.205827 48.6838096,335.382953 48.6762955,333.699565 C48.6762955,331.983445 47.5348683,331.732674 45.5137784,332.899414 C44.5193377,333.475482 43.9657523,333.863724 43.6094446,334.134134 L43.6094446,334.134134 Z M45.3819244,348.559008 C47.3989883,347.38975 49.1835463,345.449547 49.1760213,343.058158 C49.1719713,340.80273 47.3833872,340.92459 45.1614967,342.209666 L43.6366206,343.089883 L43.6522216,349.487062 C44.097103,349.30276 44.6199896,348.994584 45.3819244,348.559008 L45.3819244,348.559008 Z M49.9228344,337.263736 C52.1794498,336.636305 53.8522842,337.659531 53.859462,340.55498 C53.8714081,342.639703 53.054618,344.729965 51.8311943,346.582549 C50.3948918,348.726692 48.0023963,350.855728 44.069927,353.123242 C41.8792386,354.390693 40.2421356,355.169191 39.2431656,355.576065 L39.1807614,333.288663 C40.3498331,332.378736 42.6960287,330.786995 44.948618,329.485302 C47.6697419,327.912192 49.3385502,327.249512 50.8015254,327.379429 C52.187502,327.426764 53.1623155,328.416755 53.1623155,330.505003 C53.1703677,332.492036 52.1447249,334.934788 49.9228344,337.198777 L49.9228344,337.263736 Z" id="Fill-70" fill="#FFFFFF"></path>
                        <line x1="310.277972" y1="86.095288" x2="327.315318" y2="79.2172124" id="Stroke-72" stroke="#FFFFFF" stroke-width="3"></line>
                        <path d="M335.036979,69.2799818 C326.21937,65.131685 322.162092,79.9986814 322.162092,79.9986814 L318.546676,96.7776812 C318.546676,96.7776812 317.939242,103.106377 321.721237,104.159817 C326.130293,105.404608 329.900209,102.782087 333.395346,97.6991892 C333.600676,97.4212261 338.753046,90.2697194 339.039401,89.8054405 C343.026726,83.3820763 343.835464,73.4272716 335.036979,69.2799818" id="Fill-74" fill="#C1815D"></path>
                        <path d="M310.277972,87.0338162 C310.277972,93.3715759 305.143216,98.5093609 298.809193,98.5093609 C292.475169,98.5093609 287.340916,93.3715759 287.340916,87.0338162 C287.340916,80.6960565 292.475169,75.5582715 298.809193,75.5582715 C305.143216,75.5582715 310.277972,80.6960565 310.277972,87.0338162 Z" id="Stroke-76" stroke="#FFFFFF" stroke-width="3"></path>
                        <path d="M281.286001,87.0338162 C281.286001,93.3715759 276.151244,98.5093609 269.817221,98.5093609 C263.483197,98.5093609 258.348441,93.3715759 258.348441,87.0338162 C258.348441,80.6960565 263.483197,75.5582715 269.817221,75.5582715 C276.151244,75.5582715 281.286001,80.6960565 281.286001,87.0338162 Z" id="Stroke-78" stroke="#FFFFFF" stroke-width="3"></path>
                        <path d="M281.272714,86.5078517 C281.272714,86.5078517 284.182561,84.6512396 287.341017,86.5078517" id="Stroke-80" stroke="#FFFFFF" stroke-width="3"></path>
                    </g>
                </g>
                <g id="Group-65" transform="translate(467.000000, 9.000000)">
                    <polygon id="Fill-1" fill="#7A9C49" points="296.3314 221.6749 187.9334 208.1259 187.9334 229.8049 296.3314 243.3549"></polygon>
                    <polygon id="Fill-2" fill="#9DB224" points="187.9326 208.1255 296.3316 221.6745 318.0116 210.8355 209.6126 197.2855"></polygon>
                    <polygon id="Fill-3" fill="#667F3B" points="296.3313 221.675 296.3313 243.355 318.0113 232.515 318.0113 210.835"></polygon>
                    <polygon id="Fill-4" fill="#A05FA6" points="0 284.0036 108.399 297.5536 108.399 275.8736 0 262.3246"></polygon>
                    <polygon id="Fill-5" fill="#864F8E" points="0 262.3244 108.399 275.8734 130.079 265.0344 21.68 251.4844"></polygon>
                    <polygon id="Fill-6" fill="#6C4472" points="108.3987 275.8739 108.3987 297.5539 130.0787 286.7139 130.0787 265.0339"></polygon>
                    <polygon id="Fill-7" fill="#A05FA6" points="296.3314 178.316 296.3314 221.675 274.6514 218.965 274.6514 175.606"></polygon>
                    <polygon id="Fill-8" fill="#6C4472" points="296.3313 178.3157 296.3313 221.6747 318.0113 210.8357 318.0113 167.4757"></polygon>
                    <polygon id="Fill-9" fill="#D6659D" points="274.6521 175.6058 296.3311 178.3158 318.0111 167.4748 296.3311 164.7658"></polygon>
                    <polygon id="Fill-10" fill="#A05FA6" points="209.6126 167.4756 209.6126 210.8356 187.9326 208.1256 187.9326 164.7656"></polygon>
                    <polygon id="Fill-11" fill="#6C4472" points="209.6126 167.4756 209.6126 210.8356 231.2926 199.9956 231.2926 156.6356"></polygon>
                    <polygon id="Fill-12" fill="#FF2B32" points="209.6126 167.4756 231.2926 156.6356 209.6126 153.9266 187.9326 164.7656"></polygon>
                    <polygon id="Fill-13" fill="#0081A3" points="296.3314 156.6358 187.9334 143.0858 187.9334 164.7658 296.3314 178.3158"></polygon>
                    <polygon id="Fill-14" fill="#067089" points="187.9326 143.0861 296.3316 156.6351 318.0116 145.7971 209.6126 132.2461"></polygon>
                    <polygon id="Fill-15" fill="#035D72" points="296.3313 156.6356 296.3313 178.3156 318.0113 167.4756 318.0113 145.7966"></polygon>
                    <polygon id="Fill-16" fill="#7A9C49" points="231.2923 105.1465 231.2923 148.5055 209.6123 145.7965 209.6123 102.4365"></polygon>
                    <polygon id="Fill-17" fill="#667F3B" points="231.2923 105.1465 231.2923 148.5055 252.9723 137.6665 252.9723 94.3065"></polygon>
                    <polygon id="Fill-18" fill="#92BA1A" points="231.2923 105.1465 252.9723 94.3065 231.2923 91.5965 209.6123 102.4365"></polygon>
                    <polygon id="Fill-19" fill="#7A9C49" points="280.0716 111.9214 280.0716 155.2814 258.3916 152.5704 258.3916 109.2114"></polygon>
                    <polygon id="Fill-20" fill="#667F3B" points="280.0716 111.9214 280.0716 155.2814 301.7516 144.4414 301.7516 101.0814"></polygon>
                    <polygon id="Fill-21" fill="#9DB224" points="280.0716 111.9214 301.7516 101.0814 280.0716 98.3714 258.3916 109.2114"></polygon>
                    <polygon id="Fill-22" fill="#A05FA6" points="296.3314 91.5967 187.9334 78.0467 187.9334 99.7267 296.3314 113.2767"></polygon>
                    <polygon id="Fill-23" fill="#864F8E" points="187.9326 78.0467 296.3316 91.5967 318.0116 80.7567 209.6126 67.2067"></polygon>
                    <polygon id="Fill-24" fill="#6C4472" points="296.3313 91.5971 296.3313 113.2761 318.0113 102.4371 318.0113 80.7571"></polygon>
                    <polygon id="Fill-25" fill="#0081A3" points="263.8118 44.1724 220.4528 38.7524 220.4528 82.1114 263.8118 87.5314"></polygon>
                    <polygon id="Fill-26" fill="#00B3B3" points="263.8118 44.1724 220.4528 38.7524 242.1318 27.9124 285.4918 33.3324"></polygon>
                    <polygon id="Fill-27" fill="#035D72" points="263.8118 44.1724 285.4918 33.3324 285.4918 76.6924 263.8118 87.5314"></polygon>
                    <polygon id="Fill-28" fill="#7A9C49" points="272.7982 45.3975 242.1322 10.8395 211.4772 37.6145"></polygon>
                    <polygon id="Fill-29" fill="#667F3B" points="263.8116 0.0005 242.1326 10.8405 272.7986 45.3975 294.4786 34.5565"></polygon>
                    <polygon id="Fill-30" fill="#A05FA6" points="57.8548 170.1861 14.4958 164.7661 14.4958 208.1251 57.8548 213.5451"></polygon>
                    <polygon id="Fill-31" fill="#FF2B32" points="57.8548 170.1861 14.4958 164.7661 36.1748 153.9261 79.5348 159.3461"></polygon>
                    <polygon id="Fill-32" fill="#6C4472" points="57.8548 170.1861 79.5348 159.3461 79.5348 202.7061 57.8548 213.5451"></polygon>
                    <polygon id="Fill-33" fill="#0081A3" points="57.8548 126.8262 14.4958 121.4062 14.4958 164.7652 57.8548 170.1862"></polygon>
                    <polygon id="Fill-34" fill="#067089" points="57.8548 126.8262 14.4958 121.4062 36.1748 110.5662 79.5348 115.9862"></polygon>
                    <polygon id="Fill-35" fill="#035D72" points="57.8548 126.8262 79.5348 115.9862 79.5348 159.3462 57.8548 170.1862"></polygon>
                    <g id="Group-64" transform="translate(79.000000, 118.554000)">
                        <path d="M87.2532,65.1814 L0.5342,54.3414 L0.5342,97.7014 L22.2142,100.4114 C22.2142,88.4434 31.9262,80.1194 43.8942,81.5714 C55.8722,83.0354 65.5732,93.9294 65.5732,105.8964 L87.2532,108.5414 L87.2532,65.1814 Z" id="Fill-36" fill="#A05FA6"></path>
                        <polygon id="Fill-38" fill="#FFA84A" points="87.2532 65.1814 0.5342 54.3414 22.2142 43.5024 108.9332 54.3414"></polygon>
                        <polygon id="Fill-40" fill="#6C4472" points="87.2532 65.1814 108.9332 54.3414 108.9332 97.7014 87.2532 108.5414"></polygon>
                        <path d="M22.2142,100.4114 L43.8942,89.5714 C43.8942,86.7744 44.4252,84.1514 45.4012,81.8094 C44.9012,81.7124 44.4032,81.6364 43.8942,81.5714 C31.9912,80.1294 22.3222,88.5414 22.2142,100.4114" id="Fill-42" fill="#DB7100"></path>
                        <polygon id="Fill-44" fill="#7A9C49" points="43.8939 16.4021 0.5349 10.9831 0.5349 54.3411 43.8939 59.7621"></polygon>
                        <polygon id="Fill-46" fill="#9DB224" points="43.8939 16.4021 0.5349 10.9831 22.2139 0.1421 65.5739 5.5621"></polygon>
                        <polygon id="Fill-48" fill="#668509" points="43.8939 16.4021 65.5739 5.5621 65.5739 48.9221 43.8939 59.7621"></polygon>
                        <polygon id="Fill-50" fill="#0081A3" points="87.2532 21.822 43.8942 16.402 43.8942 59.762 87.2532 65.181"></polygon>
                        <polygon id="Fill-52" fill="#067089" points="87.2532 21.822 43.8942 16.402 65.5732 5.562 108.9332 10.983"></polygon>
                        <polygon id="Fill-54" fill="#035D72" points="87.2532 21.822 108.9332 10.983 108.9332 54.342 87.2532 65.181"></polygon>
                        <path d="M43.8939,81.5603 C31.9259,80.1293 22.2139,88.4433 22.2139,100.4113 L65.5739,105.8313 C65.5739,93.8643 55.8729,82.9913 43.8939,81.5603" id="Fill-56" fill="#7A9C49"></path>
                        <polygon id="Fill-58" fill="#0081A3" points="163.1321 124.4705 119.7731 119.0615 119.7731 162.4095 163.1321 167.8295"></polygon>
                        <polygon id="Fill-60" fill="#067089" points="163.1321 124.4705 119.7731 119.0505 141.4521 108.2105 184.8121 113.6305"></polygon>
                        <polygon id="Fill-62" fill="#035D72" points="163.1321 124.4705 184.8121 113.6305 184.8121 156.9905 163.1321 167.8295"></polygon>
                    </g>
                </g>
            </g>
        </g>
    </g>
</svg>