<?xml version="1.0" encoding="UTF-8"?>
<svg width="219px" height="219px" viewBox="0 0 219 219" version="1.1" xmlns="http://www.w3.org/2000/svg" xmlns:xlink="http://www.w3.org/1999/xlink">
    <title>Group 15</title>
    <defs>
        <polygon id="path-1" points="0 0.113574413 41.8040483 0.113574413 41.8040483 27.8955228 0 27.8955228"></polygon>
        <polygon id="path-3" points="0.1778 0.6103125 54.7706477 0.6103125 54.7706477 92.4670323 0.1778 92.4670323"></polygon>
        <polygon id="path-5" points="0.72436 0.290808081 40.9024 0.290808081 40.9024 27.425574 0.72436 27.425574"></polygon>
    </defs>
    <g id="Patient-PBD-ZSD-Layout-(DSK)" stroke="none" stroke-width="1" fill="none" fill-rule="evenodd">
        <g id="0-1_PBD-ZSD_Homepage" transform="translate(-960.000000, -1199.000000)">
            <g id="Group-17" transform="translate(27.000000, 1199.000000)">
                <g id="Group-20" transform="translate(700.000000, 0.000000)">
                    <g id="Group-15" transform="translate(233.000000, 0.000000)">
                        <circle id="Oval" fill="#A05FA6" cx="109.5" cy="109.5" r="109.5"></circle>
                        <g id="Group-24" transform="translate(40.000000, 45.000000)">
                            <g id="Group-3" transform="translate(0.152273, 70.000000)">
                                <mask id="mask-2" fill="white">
                                    <use xlink:href="#path-1"></use>
                                </mask>
                                <g id="Clip-2"></g>
                                <path d="M39.9430138,1.628 C40.4339793,4.69228571 41.0770138,7.74514286 41.7113586,10.7522857 C41.7403241,10.8994286 41.7721862,11.0451429 41.8040483,11.1865714 C36.9016345,9.48657143 32.0991517,8.35514286 27.7036345,8.76371429 C27.5124621,8.78228571 27.3256345,8.80085714 27.1373586,8.82371429 C24.8635655,9.10657143 22.6839103,9.74371429 20.6592207,10.6851429 C17.6902552,12.0651429 15.0514966,14.0994286 12.9312207,16.6251429 C11.4394966,18.4022857 10.2055655,20.4194286 9.2888069,22.6265714 C8.99335862,23.3437143 8.72832414,24.0808571 8.5023931,24.8351429 C7.81591034,27.1008571 5.39873793,28.3908571 3.10322069,27.7165714 C0.806255172,27.0422857 -0.501537931,24.6565714 0.1806,22.3908571 C0.927910345,19.9208571 1.95763448,17.5665714 3.24515172,15.3822857 C4.40377241,13.4137143 5.77094483,11.578 7.3263931,9.90657143 C8.08528966,9.09514286 8.88908276,8.318 9.73632414,7.58514286 C11.3714276,6.17085714 13.1383241,4.93942857 15.0051517,3.90942857 C17.0414276,2.788 19.2008069,1.89657143 21.4470828,1.26371429 C22.9446,0.836571429 24.482669,0.526571429 26.0482552,0.330857143 C30.698669,-0.249142857 35.3403931,0.382285714 39.9430138,1.628" id="Fill-1" fill="#FFFFFF" mask="url(#mask-2)"></path>
                            </g>
                            <g id="Group-6" transform="translate(57.152273, 0.000000)">
                                <mask id="mask-4" fill="white">
                                    <use xlink:href="#path-3"></use>
                                </mask>
                                <g id="Clip-5"></g>
                                <path d="M54.7512,4.55278594 C54.9724,6.94753594 53.2812,9.07491094 50.9754,9.30450469 C49.7574,9.42511406 48.6192,9.63727031 47.5538,9.92644219 C45.206,10.5643641 43.2082,11.5815516 41.5128,12.8515828 C38.7254,14.9339109 36.7514,17.6875828 35.3458,20.5386141 C34.1152,23.0467078 33.3242,25.6274578 32.8174,27.8957859 C32.6746,28.5351609 32.5556,29.1483797 32.452,29.7310828 C31.92,32.7870047 31.9662,35.8879734 32.305,39.0572391 C32.627,42.0971766 33.2192,45.2010516 33.8282,48.3892078 C34.5996,52.4288953 35.3892,56.5630359 35.6622,60.8061609 C35.777,62.5164891 35.8036,64.2471609 35.7126,65.9952703 C35.5096,69.9390516 34.8264,73.5820359 33.7036,76.8210516 C32.872,79.2230672 31.794,81.4042078 30.4962,83.3223328 C29.372,84.9788953 28.0812,86.4378328 26.6336,87.6758953 C26.5538,87.7441922 26.474,87.8110359 26.3928,87.8778797 C25.4646,88.6465828 24.4804,89.3164734 23.4458,89.8948172 C21.4396,91.0122703 19.2402,91.7693484 16.8826,92.1602391 C14.133,92.6136141 11.1692,92.5671141 8.0458,92.0033016 C5.985,91.6313016 3.9032,91.0616766 1.8172,90.3685359 C1.4196,87.0728484 0.819,83.7815203 0.1778,80.5236141 C3.4146,81.8227078 6.524,82.8878484 9.4808,83.4182391 C9.6642,83.4516609 9.8462,83.4821766 10.0282,83.5083328 C13.0242,83.9805984 15.6674,83.7844266 17.9312,82.9328953 C19.1142,82.4896922 20.1908,81.8663016 21.1624,81.0627234 C22.6394,79.8377391 23.8784,78.1957078 24.8528,76.1976609 C25.9224,74.0092547 26.6714,71.3950828 27.0648,68.4437859 C27.1908,67.5050672 27.2804,66.5314734 27.3336,65.5244578 C27.4694,62.8870359 27.2622,60.2263641 26.8856,57.5075672 C26.5496,55.0823016 26.0778,52.6148953 25.5948,50.0806453 C24.6946,45.3768797 23.779,40.5655828 23.6698,35.6133328 C23.6124,33.1720828 23.7538,30.6959578 24.192,28.1791453 C24.703,25.2365672 25.4632,22.4509266 26.453,19.8672703 C27.3462,17.5306453 28.427,15.3625828 29.68,13.3921453 C30.4836,12.1221141 31.3586,10.9378172 32.2994,9.84506719 C33.488,8.46023906 34.79,7.22217656 36.1858,6.13233281 C37.9358,4.76639531 39.8398,3.63731719 41.8712,2.75962969 C44.4458,1.63927031 47.229,0.921426563 50.1718,0.629348437 C52.4804,0.404114062 54.5286,2.15948906 54.7512,4.55278594" id="Fill-4" fill="#FFFFFF" mask="url(#mask-4)"></path>
                            </g>
                            <path d="M73.6398654,40.4100476 C75.3740042,40.6610105 77.0650329,41.0353279 78.7171234,41.4961354 C79.0216754,44.718952 79.5723723,47.8255034 80.1522727,50.8611613 C77.5934793,49.9367106 75.0569363,49.1965829 72.4758926,48.8251012 C65.8021701,47.8652037 60.1964656,49.0080063 56.7017658,52.0365748 C53.8578894,54.5008315 52.3615516,58.255349 52.2544716,63.2008767 C52.1473917,68.1648367 53.2932861,73.796613 54.5101036,79.7573351 C56.4695275,89.3860846 58.4970931,99.3451977 55.5767311,108.348667 C53.8314671,113.723809 50.6593977,118.432552 46.3734188,122.028269 C46.1286646,122.232442 45.8811292,122.433779 45.6294218,122.633699 C41.0708758,126.213819 35.56947,128.411516 29.7190114,128.980081 C27.4272226,129.205522 25.391313,127.491319 25.1715906,125.156088 C24.9518681,122.81944 26.6317716,120.746515 28.9221698,120.521074 C37.6596148,119.667517 45.0147551,113.84291 47.66255,105.678819 C49.8820251,98.8390184 48.0853072,90.0184543 46.3483871,81.4857176 C45.0926314,75.3194045 43.7937657,68.9432469 43.9217053,63.0123001 C44.0830206,55.6393804 46.6362514,49.6020935 51.3074399,45.5569127 C51.3853163,45.488855 51.4631926,45.4222152 51.5438502,45.3555753 C56.8783781,40.8821981 64.7091203,39.1254582 73.6398654,40.4100476" id="Fill-7" fill="#FFFFFF"></path>
                            <g id="Group-11" transform="translate(97.152273, 29.000000)">
                                <mask id="mask-6" fill="white">
                                    <use xlink:href="#path-5"></use>
                                </mask>
                                <g id="Clip-10"></g>
                                <path d="M40.72656,5.97077895 C38.68816,13.1741474 34.48676,18.9347789 28.57036,22.6278316 C23.36936,25.8743579 16.83556,27.5322526 9.67736,27.4202526 C7.13636,27.3760421 4.69336,27.0223579 2.32316,26.4579368 C1.93116,23.2497263 1.34736,20.1579368 0.77896,17.1339368 C0.76076,17.0352 0.74116,16.9364632 0.72436,16.8392 C3.73436,17.8530947 6.73316,18.5368842 9.80476,18.5869895 C16.71936,18.6960421 28.88816,16.8730947 32.68636,3.44783158 C33.34856,1.11056842 35.68376,-0.220168421 37.90416,0.475410526 C40.12316,1.17541053 41.38876,3.63351579 40.72656,5.97077895" id="Fill-9" fill="#FFFFFF" mask="url(#mask-6)"></path>
                            </g>
                            <path d="M13.0676547,96.6532011 C13.613047,95.3443506 14.3146571,94.1176399 15.1533005,93 L32.1522727,113.301995 C30.3598781,114.136859 28.4044139,114.663361 26.3667297,114.857265 C26.0364796,114.886889 25.7117109,114.934019 25.3924235,115 L12.1522727,99.1887624 C12.276973,98.8938671 12.3893402,98.5881993 12.4838931,98.2798384 C12.6497034,97.7304444 12.8497719,97.1823969 13.0676547,96.6532011" id="Fill-12" fill="#FFFFFF"></path>
                            <path d="M31.1633506,85.1739634 L43.1522727,99.4584078 C43.0546122,100.958725 42.8155626,102.357591 42.3870224,103.622144 C41.986177,104.80668 41.4468577,105.939776 40.7763526,107 L23.1522727,86.0027098 C24.3489785,85.5611881 25.5835824,85.2611247 26.8429658,85.1039487 L26.8677454,85.1025198 C26.9960159,85.0853733 27.1228288,85.0710846 27.2496417,85.0596536 C28.4361442,84.953917 29.7305105,84.9867811 31.1633506,85.1739634" id="Fill-14" fill="#FFFFFF"></path>
                            <path d="M56.794553,55 L74.1522727,75.9059936 C72.9692953,76.0596603 71.6297691,76.0245365 70.1528934,75.8035491 C70.0125902,75.7845237 69.8737639,75.7625713 69.7364145,75.7376919 L69.6994926,75.7333014 C68.0025624,75.4406029 66.1490835,74.9503328 63.9042324,74.1907801 L56.6217585,65.4186047 C56.3012765,63.1838513 56.116667,61.0778853 56.1580195,59.1563193 C56.1964183,57.5728202 56.4076115,56.1839656 56.794553,55" id="Fill-16" fill="#FFFFFF"></path>
                            <path d="M73.7525093,53.8879869 L82.1268626,64.3040195 C82.1646053,65.2527577 82.1600762,66.1489598 82.114785,67.0173489 C82.0664743,67.9490901 81.9804209,68.8391116 81.8656831,69.6827778 C81.6528142,71.2542219 81.3327559,72.6974165 80.9039987,74 L64.1522727,53.1586637 C66.1481074,52.9083452 68.4187091,52.9516101 70.8629272,53.3070006 C71.8185727,53.441431 72.7772376,53.6392135 73.7525093,53.8879869" id="Fill-18" fill="#FFFFFF"></path>
                            <path d="M93.8124835,28.0020277 C94.176525,26.5824036 94.6315769,25.2423455 95.1776391,24 L111.152273,41.5701159 C108.960311,41.9260688 106.822339,42.0223855 104.991333,41.9958635 C104.042666,41.9833004 103.090914,41.910714 102.136076,41.7864794 L93.1522727,31.9063427 C93.2078045,31.0813695 93.3096127,30.2996689 93.4607825,29.5416986 C93.5672183,29.0196343 93.6859946,28.5031536 93.8124835,28.0020277" id="Fill-20" fill="#FFFFFF"></path>
                            <path d="M105.549042,15.4456063 C106.303865,15.2435981 107.102743,15.0935773 107.932461,15 L123.152273,33.7124948 C122.363674,36.2747312 121.16095,38.3453152 119.49711,40 L101.152273,17.4493494 C102.453387,16.5462539 103.927788,15.8748737 105.549042,15.4456063" id="Fill-22" fill="#FFFFFF"></path>
                        </g>
                    </g>
                </g>
            </g>
        </g>
    </g>
</svg>