<?xml version="1.0" encoding="UTF-8"?>
<svg width="817px" height="748px" viewBox="0 0 817 748" version="1.1" xmlns="http://www.w3.org/2000/svg" xmlns:xlink="http://www.w3.org/1999/xlink">
    <title>HERO_family_walk</title>
    <defs>
        <polygon id="path-1" points="0.453749623 0.464666667 80.6955714 0.464666667 80.6955714 67.6355669 0.453749623 67.6355669"></polygon>
        <polygon id="path-3" points="0 0.139614545 57.6634349 0.139614545 57.6634349 26.8038327 0 26.8038327"></polygon>
        <polygon id="path-5" points="0 0.347742857 57.6634349 0.347742857 57.6634349 5.82874286 0 5.82874286"></polygon>
    </defs>
    <g id="Patient-PBD-ZSD-Layout-(DSK)" stroke="none" stroke-width="1" fill="none" fill-rule="evenodd">
        <g id="0-1_PBD-ZSD_Homepage" transform="translate(-609.000000, -174.000000)">
            <g id="HERO_family_walk" transform="translate(609.000000, 174.777919)">
                <rect id="Rectangle" x="1" y="11.2220812" width="816" height="735"></rect>
                <g id="Group-134">
                    <path d="M235,680.987899 L247.10238,687.222081 C247.10238,687.222081 254.342599,677.849431 260.808474,666.528475 C265.334486,658.601022 269.491334,649.711596 270.507786,642.429435 C272.980385,624.744543 291.816759,595.682518 289.857388,590.732458 C287.897517,585.782895 250.541909,577.222081 250.541909,577.222081 C250.541909,577.222081 243.238663,626.909604 238.383004,659.029063 C236.966374,668.401713 235.760838,676.279949 235,680.987899" id="Fill-1" fill="#FFB27D"></path>
                    <path d="M244,611.653545 C250.864023,614.976951 257.239,616.890141 262.708869,617.960576 C270.860796,619.557298 276.994973,619.284978 279.707317,619.019105 C280.711227,618.920395 281.243965,618.826645 281.243965,618.826645 C281.243965,618.826645 287.916837,614.024076 295.646745,602.833624 C302.735183,592.578685 308,577.909569 308,577.730502 L251.384348,572.222081 L244,611.653545 Z" id="Fill-3" fill="#A05FA6"></path>
                    <path d="M263,617.955313 C271.152671,619.558547 277.286912,619.285115 280,619.018657 L273.637848,594.222081 C273.637848,594.222081 265.398283,607.136601 263,617.955313" id="Fill-5" fill="#6C4472"></path>
                    <path d="M235,681.030581 L247.192193,687.222081 C247.192193,687.222081 254.486142,677.913599 261,666.67015 C255.925883,666.294414 247.110555,664.803813 238.408109,659.222081 C236.980967,668.530563 235.766484,676.354862 235,681.030581" id="Fill-7" fill="#F1A34F"></path>
                    <path d="M262,588.811236 C262,588.811236 277.215317,610.353793 286.430311,640.626242 C288.597315,647.761481 295.988223,656.641699 303.458764,664.531564 C310.706333,672.189198 318.027563,678.912913 320.735572,682.222081 L333,676.302435 C333,676.302435 328.689881,663.8958 322.312797,652.634838 C319.946711,648.447187 317.300915,644.421348 314.475448,641.249521 C310.568967,636.8626 311.854537,581.458249 307.966969,577.806477 C304.073429,574.154706 262,588.811236 262,588.811236" id="Fill-9" fill="#FFB27D"></path>
                    <path d="M255,576.222081 L277.165264,621.20709 C277.293952,621.225234 293.686925,621.717069 305.328269,615.209449 C312.00334,611.47876 315,607.066465 315,607.066465 L308.089165,576.222081 L255,576.222081 Z" id="Fill-11" fill="#A05FA6"></path>
                    <path d="M294.289757,423.719914 C294.289757,423.719914 301.90227,407.7278 320.287319,417.246291 C338.672864,426.764781 320.773172,463.053531 330.422794,472.016743 C340.071921,480.979955 326.92664,486.848766 328.883435,493.276818 C330.841222,499.703879 325.247475,507.013145 312.381808,506.152736 C299.515644,505.292822 285.967304,505.985806 280.154924,494.740553 C274.342543,483.495301 275.663269,458.747523 277.908601,455.269728 C280.154924,451.791932 294.289757,423.719914 294.289757,423.719914" id="Fill-13" fill="#AA443E"></path>
                    <path d="M297.03049,491.201764 L296.96951,491.235964 C297.021566,491.261738 297.03049,491.201764 297.03049,491.201764" id="Fill-15" fill="#FFB27D"></path>
                    <path d="M266,509.222081 L297,490.420971 C296.827942,490.351799 296.201649,489.411546 293.884269,482.673147 C292.896162,479.79952 292.372613,477.306343 292.115509,475.330477 C292.089454,475.131359 292.063892,474.941628 292.046686,474.752392 C291.728624,471.879259 291.960657,470.222081 291.960657,470.222081 L285.170251,472.689566 L272.610482,477.262369 C272.756977,480.463577 272.309626,482.716133 271.632699,484.260164 C269.992245,488.013271 266.935997,488.039458 266.850951,488.039458 L266,509.222081 Z" id="Fill-17" fill="#FFB27D"></path>
                    <path d="M271,485.126788 C283.24533,486.192813 290.137389,478.006738 291.662786,475.938742 C291.88743,475.636269 292,475.467495 292,475.467495 C292,475.467495 291.852221,475.423268 291.592864,475.343964 C290.598083,475.042 287.894916,474.207786 284.65667,473.222081 L271.986847,477.926926 C272.13413,481.220572 271.683354,483.538172 271,485.126788" id="Fill-19" fill="#ED985F"></path>
                    <path d="M270.713964,480.043612 C270.713964,480.043612 297.714569,483.01206 298.2673,464.736275 C298.820522,446.459997 302.81219,438.097596 284.130102,436.468768 C265.448507,434.840433 261.035524,441.576469 259.934001,447.759709 C256.495063,467.076052 263.107647,479.223286 270.713964,480.043612" id="Fill-21" fill="#FFB27D"></path>
                    <path d="M321,418.222081 C321.583079,417.61692 322,417.222081 322,417.222081 C321.564787,417.501685 321.237805,417.841735 321,418.222081" id="Fill-23" fill="#D35C2B"></path>
                    <path d="M198.892738,412.631623 C199.93038,412.031395 201.746004,412.117353 204.07995,412.717087 C205.808357,413.231357 207.797918,414.002514 209.871208,415.116024 C210.044646,415.116024 210.130867,415.201983 210.304306,415.287941 C215.196972,417.925488 215.060912,430.27438 215.05842,430.447286 C218.192776,432.981088 230.190946,457.103346 232.984405,463.703387 C235.783845,470.314295 262,490.280899 262,490.280899 L255.413815,512.222081 C247.58565,508.277372 223.747798,481.110993 218.772899,473.09807 C213.797999,465.084653 206.658605,438.542215 207.592084,434.07138 C207.595074,434.054089 207.600556,434.038281 207.604045,434.02099 C207.509352,433.861423 206.93521,432.905504 206.068016,431.654658 C204.598273,429.426651 202.264326,425.999669 200.794583,424.285437 C199.670222,423.00001 198.720296,420.515114 198.287198,418.201148 C197.768875,415.630294 197.941317,413.145892 198.892738,412.631623" id="Fill-25" fill="#FFB27D"></path>
                    <path d="M281.001829,464.748914 C277.919317,464.748914 275.411485,462.269573 275.411485,459.222081 C275.411485,456.174589 277.919317,453.695249 281.001829,453.695249 C284.084342,453.695249 286.592174,456.174589 286.592174,459.222081 C286.592174,462.269573 284.084342,464.748914 281.001829,464.748914 L281.001829,464.748914 Z M263.080441,464.748914 C259.997928,464.748914 257.490096,462.269573 257.490096,459.222081 C257.490096,456.174589 259.997928,453.695249 263.080441,453.695249 C266.162954,453.695249 268.670786,456.174589 268.670786,459.222081 C268.670786,462.269573 266.162954,464.748914 263.080441,464.748914 L263.080441,464.748914 Z M297,455.987006 L296.292204,454.69111 L288.07482,459.077711 C287.996341,455.285287 284.856708,452.222081 281.001829,452.222081 C277.538349,452.222081 274.653522,454.694547 274.04457,457.946809 C272.615567,457.334463 271.05792,457.708647 270.061045,458.099037 C269.515174,454.772625 266.597068,452.222081 263.080441,452.222081 C259.176389,452.222081 256,455.362383 256,459.222081 C256,463.08178 259.176389,466.222081 263.080441,466.222081 C266.83002,466.222081 269.899618,463.323379 270.137537,459.674835 C270.868678,459.31931 272.66176,458.626431 273.939766,459.585462 C274.132982,463.275747 277.221952,466.222081 281.001829,466.222081 C284.335671,466.222081 287.131589,463.929342 287.87912,460.856315 L297,455.987006 Z" id="Fill-27" fill="#A05FA6"></path>
                    <path d="M247.559297,583.070224 C247.559297,583.070224 255.653237,587.419944 268.397891,587.215064 C276.516383,587.091241 293.75707,583.517777 304.841491,579.464933 C311.15833,577.163515 315.478077,574.70048 314.957566,572.634276 C314.20921,569.65556 308.799336,546.79056 303.799488,525.632727 C299.228815,506.285994 295.000403,488.366458 295.000403,488.366458 C295.000403,488.366458 282.385877,497.44433 275.033419,494.241838 C267.681452,491.03487 268.624264,487.417147 268.624264,487.417147 C268.624264,487.417147 263.814451,485.449902 261.560542,486.175436 C259.305159,486.895499 252.902388,483.222081 252.902388,483.222081 C252.902388,483.222081 245.831791,488.756823 245.562206,500.638866 C245.518994,502.395264 245.623587,504.300846 245.93,506.341192 L251.033951,512.298126 C251.033951,512.298126 240.206839,546.86565 247.559297,583.070224" id="Fill-29" fill="#0081A3"></path>
                    <path d="M216.00566,695.222081 L251.734206,695.222081 C251.734206,695.222081 252.416243,689.536611 251.595227,684.678276 C251.496804,684.086704 251.181751,683.555596 250.712882,683.084951 C248.620774,683.779068 245.547404,684.268094 242.128811,683.06657 C239.32697,682.083197 237.253657,680.585646 235.80946,679.222081 C235.439013,679.572284 228.058276,686.452506 224.645618,686.452506 C221.146408,686.452506 215.801889,688.10049 216.00566,695.222081" id="Fill-31" fill="#AA443E"></path>
                    <path d="M304,663.882682 C311.115273,671.388329 318.301879,677.978593 320.960273,681.222081 L333,675.419927 C333,675.419927 328.768848,663.259537 322.508601,652.222081 C320.355893,655.582073 314.7054,662.490028 304,663.882682" id="Fill-33" fill="#F1A34F"></path>
                    <path d="M318.525182,678.351324 C318.525182,678.351324 318.969832,686.374365 316.389283,687.43684 C313.808734,688.501361 309,691.130693 309,696.222081 L326.858051,696.222081 C326.858051,696.222081 339.173523,689.94289 340.815422,687.275704 C342.456827,684.608519 332.610865,673.222081 332.610865,673.222081 C332.610865,673.222081 326.56096,680.156559 318.525182,678.351324" id="Fill-35" fill="#AA443E"></path>
                    <path d="M305.821397,579.222081 C312.150731,576.929094 316.479023,574.475082 315.957482,572.416447 C315.208137,569.448643 309.787563,546.66691 304.777332,525.587081 C303.298323,522.854126 302.358566,521.222081 302.358566,521.222081 C302.358566,521.222081 292.854725,564.978605 305.821397,579.222081" id="Fill-37" fill="#035D72"></path>
                    <path d="M277.955505,553.074233 C280.74538,551.223407 287.520721,552.313735 288.60023,552.502494 C292.43337,550.205602 303.44887,542.45409 308.664702,537.918921 C309.808374,536.923965 309.760374,534.837192 308.935069,533.559099 C306.798581,530.253343 303.214747,524.536944 302.009851,521.604235 C300.251975,517.325877 288.645781,493.163809 295.325612,491.222081 C295.325612,491.222081 319.22812,496.353329 328.654724,534.037949 C329.577499,537.726685 328.624357,541.660808 326.110237,544.48672 C321.776036,549.358673 312.220617,556.482315 290.000555,559.105064 C290.000555,559.105064 283.057705,563.569696 276.207915,559.531757 C274.022448,558.243233 274.919753,555.08898 277.955505,553.074233" id="Fill-39" fill="#FFB27D"></path>
                    <path d="M295.823737,487.222081 C295.823737,487.222081 310.243423,488.248623 322,503.937966 C322,503.937966 318.02167,518.369405 299.344227,522.222081 C299.344227,522.222081 287.831396,496.236638 295.823737,487.222081" id="Fill-41" fill="#0081A3"></path>
                    <path d="M300.372118,306.93167 C304.102627,299.38757 320.372881,289.443525 321.528848,288.615309 C332.357186,271.431306 357.13195,231.068639 359.967117,226.599639 C363.491505,221.015123 395.376979,128.907758 395.376979,128.907758 L457,117.222081 C457,117.222081 401.049791,232.7008 391.768359,246.705185 C378.532459,266.897416 341.119349,293.643553 331.492564,300.346062 C330.618527,303.133862 327.34981,313.38403 325.844526,315.670541 C324.09794,318.324102 314.617323,325.70028 313.763106,325.388213 C312.908889,325.075651 312.530338,324.258332 313.357303,322.528093 C314.184268,320.797358 317.986623,315.703234 317.124974,315.677476 C316.262334,315.651222 304.2374,329.711086 300.9558,328.0923 C297.673705,326.473018 296.642104,314.475274 300.372118,306.93167" id="Fill-43" fill="#E8945B"></path>
                    <path d="M462,109.456138 C462,109.456138 489.167175,95.1929402 528.096236,92.3451424 C548.976297,90.8169955 568.262399,103.65333 574.811209,123.47675 C575.189873,124.621996 575.55119,125.807755 575.893673,127.035509 C585.038117,159.822733 580.050554,259.074218 549.29152,284.966747 C518.531495,310.858289 462,299.93399 462,299.93399 L462,109.456138 Z" id="Fill-45" fill="#233862"></path>
                    <path d="M377,341.910217 C377,341.910217 380.292764,382.970207 384.16285,432.326054 C389.422565,499.372279 409.444311,666.432576 409.444311,666.432576 C409.444311,666.432576 405.200722,673.092797 425.802263,668.754012 C425.802263,668.754012 451.048599,611.850408 456.292484,546.396802 C456.374111,545.323849 456.454748,544.243479 456.536869,543.162614 C461.414177,476.531232 469,336.222081 469,336.222081 L377,341.910217 Z" id="Fill-47" fill="#A05FA6"></path>
                    <path d="M375,327.222081 C375,327.222081 379.410856,382.551941 383.275296,431.981686 L455.309401,546.222081 C455.390919,545.147532 455.471449,544.065556 455.553461,542.983084 C460.424275,476.252111 468,335.734786 468,335.734786 L375,327.222081 Z" id="Fill-49" fill="#6C4472"></path>
                    <path d="M380,330.756806 L549.204268,650.80829 C549.204268,650.80829 564.955183,657.829296 567,651.733577 C567,651.733577 551.987588,505.097548 525.699072,472.20361 C510.843916,453.616759 493.394543,397.838404 492.576418,378.332695 C491.758789,358.826986 487.26059,320.222081 487.26059,320.222081 L380,330.756806 Z" id="Fill-51" fill="#A05FA6"></path>
                    <path d="M519.714844,695.219104 C519.714844,695.219104 544.283433,695.568354 551.396913,688.701086 C552.235813,687.893201 554.943695,679.777561 554.968588,679.692211 C555.186155,679.036877 556.434798,676.062369 561.504048,674.39117 C564.839238,673.289955 567.616323,673.326744 570.821571,672.084259 C573.188914,671.172384 577.760798,668.968972 579.953391,667.707847 C587.563739,663.331925 585.830177,661.018147 585.830177,661.018147 C585.830177,661.018147 584.153371,659.51912 581.947336,657.333857 C581.350895,656.739838 580.71114,656.091372 580.064913,655.405136 C576.767062,651.954334 573.101788,647.602448 572.163314,644.493537 C571.374698,641.848658 569.865175,640.116144 568.430331,639.021305 C566.628561,637.626269 564.939309,637.222081 564.939309,637.222081 C564.939309,637.222081 562.254827,647.834954 556.943614,646.513005 C546.675669,643.94808 544.755408,644.248278 544.400929,644.407696 L544.321271,644.46803 C544.321271,644.46803 535.928281,660.498687 533.586827,666.220593 C529.430161,676.411128 524.094553,680.261213 520.74592,683.609497 C519.894573,684.460057 519.279711,685.390572 518.851548,686.351008 C517.099565,690.225619 518.385548,694.49706 519.714844,695.219104" id="Fill-53" fill="#D57912"></path>
                    <path d="M519.714844,695.219091 C519.714844,695.219091 544.283433,695.569946 551.396913,688.671106 C552.235813,687.859507 554.943695,679.706557 554.968588,679.620814 C555.186155,678.962467 556.434798,675.974284 561.504048,674.295402 C564.839238,673.189124 567.616323,673.226082 570.821571,671.977885 C573.188914,671.061817 577.760798,668.848275 579.953391,667.581353 C587.563739,663.185313 585.830177,660.860897 585.830177,660.860897 C585.830177,660.860897 584.153371,659.354979 581.947336,657.15967 C581.350895,656.56292 580.71114,655.911472 580.064913,655.222081 C579.264845,658.315225 577.046364,663.830848 571.169578,666.087261 C562.782562,669.309512 553.775706,674.842874 551.135534,679.300511 C548.495859,683.758639 546.787191,687.755039 541.662179,689.445747 C536.537168,691.136456 523.181471,691.597693 522.249967,691.136456 C521.504167,690.767861 520.764839,687.484506 518.851548,686.310225 C517.099565,690.202649 518.385548,694.493727 519.714844,695.219091" id="Fill-55" fill="#C1650A"></path>
                    <path d="M428.715597,696.119813 L418.526358,696.119813 C415.112966,695.583531 412.592499,694.596771 409.092711,694.139809 C403.776109,693.442891 401.328555,695.620447 400.84214,696.119813 C400.776719,696.185664 400.747753,696.222081 400.747753,696.222081 L357.461844,696.222081 C356.373154,694.669107 357.418397,691.070776 358.442664,688.422788 C359.132833,686.623373 360.636024,685.259469 362.495287,684.722688 C367.086262,683.394703 376.134374,682.212387 384.420901,674.7184 C389.08379,670.509955 406.935307,659.243533 406.935307,659.243533 L407.029694,659.222081 C407.421722,659.229564 409.288475,659.802264 417.407705,666.650217 C421.605653,670.184194 428.759544,661.659548 428.759544,661.659548 C428.759544,661.659548 430.102428,662.769528 431.10572,664.836834 C431.911251,666.469128 432.499543,668.711039 432.034602,671.475263 C431.388879,675.371418 433.472372,682.611481 435.13587,687.508863 C436.144656,690.475627 436.995133,692.57985 436.995133,692.57985 C436.995133,692.57985 437.482047,695.024301 428.715597,696.119813" id="Fill-57" fill="#D57912"></path>
                    <path d="M428.69759,696.222081 L418.550266,696.222081 C415.136862,695.670381 412.592914,694.50699 409.092614,694.037326 C403.776493,693.321039 401.32893,695.558605 400.842014,696.072363 C400.777092,696.140044 400.747627,696.177473 400.747627,696.177473 L357.462066,696.177473 C356.372873,694.581336 357.418618,690.882994 358.442889,688.160895 C359.757312,686.960587 360.127868,693.373337 360.853996,694.395214 C361.580125,695.416578 396.165126,694.767971 398.16223,693.276431 C400.159333,691.785404 406.151144,689.175593 414.503122,691.226012 C421.772899,693.008272 432.485545,688.436745 435.136364,687.222081 C436.145154,690.271304 436.995633,692.434011 436.995633,692.434011 C436.995633,692.434011 437.464071,695.09612 428.69759,696.222081" id="Fill-59" fill="#C1650A"></path>
                    <path d="M469,104.047712 C469,104.047712 428.44058,123.961424 405,116.581842 C405,116.581842 410.768375,109.229662 420.829321,103.707929 C420.255979,100.304612 419.795009,97.194745 419.433924,94.4236651 C418.132418,84.4000483 418.086471,78.6919823 418.086471,78.6919823 L442.942425,58.7045347 L448.516524,54.2220812 C448.356708,58.9646036 448.65037,63.3603674 449.278149,67.4093725 C449.324097,67.7297257 449.371043,68.0485842 449.424481,68.3619624 C453.463842,92.4183439 469,104.047712 469,104.047712" id="Fill-61" fill="#FFB27D"></path>
                    <path d="M490.998023,314.347652 C491.117011,316.913653 485.834906,319.731591 483.5414,320.759182 C473.361424,325.326802 463.591959,329.072647 453.570634,331.730893 C446.579059,333.594641 439.461058,334.926739 431.997989,335.642879 C410.438235,337.857753 384.960283,332.998023 376.218583,333.117049 C375.290967,333.117049 374.475399,332.765427 373.77287,332.188647 C373.18933,331.717999 372.725274,305.378056 373.18933,272.155439 C373.18933,270.876406 373.18933,269.470908 373.302369,268.190883 L373.302369,267.727674 C373.421358,254.785092 373.891859,241.147696 374.475399,227.629326 C375.754031,197.788533 378.081251,168.995664 382.05101,153.023872 C386.709912,134.261418 397.42732,121.90355 407.216617,112.813937 L414.172,105.890595 C414.608292,105.456151 415.229512,105.272156 415.834867,105.383247 C423.617717,106.818006 432.137801,106.699476 440.309348,102.670944 C449.514608,98.1286166 459.535933,93.2297077 461.166573,94.3966578 C480.274665,108.67729 489.78533,150.87595 489.605855,198.849352 C489.59941,200.360981 489.58652,201.886001 489.566192,203.410524 C489.480421,208.362995 489.301443,213.376466 489.016366,218.414239 C486.935056,253.810567 489.06991,284.493469 490.289048,302.334464 C490.640065,307.466465 490.918201,311.536656 490.998023,314.347652" id="Fill-63" fill="#0081A3"></path>
                    <path d="M391.417101,243.412614 L394.988466,242.360421 C396.770617,241.835076 398.66226,242.852713 399.191556,244.621058 L399.86062,246.86016 C400.389916,248.629006 399.364625,250.505525 397.582979,251.03087 L394.011613,252.083563 C392.228958,252.609409 390.33782,251.591271 389.808523,249.822426 L389.139459,247.584325 C388.610163,245.814979 389.634445,243.937959 391.417101,243.412614" id="Fill-65" fill="#415DA5"></path>
                    <path d="M386.837132,250.132761 L402.697547,245.442108 C405.525699,244.606199 408.527548,246.226266 409.367828,249.044009 L421.778541,290.666961 C422.619316,293.484211 420.991211,296.474459 418.163059,297.310861 L402.30314,302.001514 C399.474493,302.838902 396.472149,301.217357 395.631868,298.400599 L383.220661,256.777155 C382.381865,253.959411 384.008981,250.969163 386.837132,250.132761" id="Fill-67" fill="#CADEFF"></path>
                    <path d="M409.881183,250.222081 L421.778725,290.552954 C422.618801,293.397502 420.992049,296.417751 418.166247,297.262405 L402.319999,301.999338 C399.493208,302.844988 396.493358,301.207444 395.654271,298.362895 L384,258.859754 C386.33926,258.066366 391.724354,256.433301 395.598397,256.705562 C399.377011,256.969361 406.486265,252.521611 409.881183,250.222081" id="Fill-69" fill="#86B1FC"></path>
                    <polygon id="Fill-71" fill="#415DA5" points="410.974893 253.222081 419 280.218847 392.024087 288.222081 384 261.224805"></polygon>
                    <path d="M490.998003,313.83387 C491.118199,316.400604 485.782497,319.219349 483.465719,320.247233 C473.182449,324.816159 463.313855,328.563075 453.190846,331.222081 C425.106045,241.342722 458.734888,154.222081 458.734888,154.222081 L489.551644,202.865022 C489.465003,207.818909 489.284208,212.833813 488.996238,217.873026 C486.893809,253.279476 489.050326,283.97115 490.281835,301.817247 C490.636413,306.950715 490.917371,311.02207 490.998003,313.83387" id="Fill-73" fill="#035D72"></path>
                    <path d="M448.666166,169.462098 C458.632275,163.522968 478.638835,152.748609 495.167739,151.046161 C498.78912,150.672879 501.004968,146.855828 499.545908,143.501767 C494.321246,131.500907 479.566111,106.382331 461.597477,94.7108965 C459.909943,93.6144725 458.6407,94.5683614 456.888243,95.5566382 C450.255073,99.2974377 435.977701,110.364343 435.099985,123.412288 C434.320895,135.016441 438.276314,155.145292 440.667606,165.974473 C441.462059,169.571242 445.514617,171.340472 448.666166,169.462098" id="Fill-75" fill="#0081A3"></path>
                    <path d="M449,67.5863795 C449,67.5863795 448.93373,67.7139215 448.802663,67.955448 C447.261279,70.7819607 436.728318,88.9998869 419.324904,94.2220812 C418.045162,84.1196459 418,78.367198 418,78.367198 L442.430951,58.2220812 C445.652642,62.0890157 447.851325,65.633078 448.658343,66.9953677 C448.881205,67.3779938 449,67.5863795 449,67.5863795" id="Fill-77" fill="#E8945B"></path>
                    <path d="M410.573443,78.4442394 C410.573443,78.4442394 449.387253,84.8926171 453.030522,60.6563711 C456.674292,36.4201251 464.138062,20.9295977 439.509822,15.7871191 C414.882584,10.6451413 408.665946,19.1675352 405.482779,26.9618702 C402.299111,34.7552038 400.570849,76.1418912 410.573443,78.4442394" id="Fill-79" fill="#FFB27D"></path>
                    <g id="Group-83" transform="translate(391.000000, 0.222081)">
                        <mask id="mask-2" fill="white">
                            <use xlink:href="#path-1"></use>
                        </mask>
                        <g id="Clip-82"></g>
                        <path d="M8.12444908,12.6589391 C16.1190994,9.00418551 55.0632037,-9.32871304 71.7626209,7.39337391 C72.0776761,4.8349971 72.0160564,1.78977971 72.0160564,1.78977971 C73.2300626,3.9712 73.7662528,7.17064928 74.0137252,9.44963478 C75.5015411,7.67572174 78.2644859,7.37908406 78.2644859,7.37908406 C76.2931546,8.30546087 75.4602957,10.0902145 75.1089644,11.5674899 C91.6493632,35.9647072 66.5289276,60.787171 63.0777313,64.6567652 C59.5117436,68.6529971 57.4738233,67.4728522 57.4738233,67.4728522 C57.4738233,67.4728522 51.1836515,59.0295188 54.2422712,53.4880116 C54.2422712,53.4880116 59.3571975,48.3633739 56.4118785,45.1358377 C53.4670564,41.9078087 51.761584,46.8259826 49.4364368,46.6727362 C47.1117865,46.5185043 42.925627,39.7559536 42.6155411,33.6073739 C42.3059521,27.459287 19.9325595,36.8418087 10.9420564,33.921258 C1.95105644,31.0007072 -5.93029325,19.0819826 8.12444908,12.6589391" id="Fill-81" fill="#2C3A64" mask="url(#mask-2)"></path>
                    </g>
                    <path d="M490.304439,224.222081 L491.492347,216.876391 C473.705409,213.975887 459.314403,205.393158 448.717276,191.367759 C440.719688,180.780621 435.08752,166.910785 433.266062,153.313305 C429.738471,126.968716 436.643184,111.972673 454.376171,107.467846 C470.260477,103.431195 488.616126,115.89551 488.799261,116.021252 L493,109.891725 C492.139757,109.297311 471.727543,95.3847317 452.558178,100.253861 C437.612814,104.049963 420.859851,116.509308 425.921822,154.305321 C427.089437,163.021246 430.835801,180.011759 442.81387,195.865628 C454.597914,211.464038 470.576757,221.00449 490.304439,224.222081" id="Fill-84" fill="#233862"></path>
                    <path d="M387.243408,275.201081 C388.151585,271.666809 400.633419,274.495412 403.288357,271.864831 C403.901264,271.257926 397.46698,270.769538 395.608375,270.273742 C393.749272,269.776959 393.373972,268.961168 393.694096,268.111797 C394.013225,267.262426 405.822502,264.869867 408.985462,265.269367 C410.927578,265.514302 416.53471,267.702914 420.575524,269.357212 C420.568068,269.325607 420.566576,269.309311 420.572044,269.309311 C420.572044,269.309311 469.489801,234.165109 478.112258,225.60029 C484.407358,219.432969 447.589177,169.324037 448.193137,168.981326 C458.194511,163.070791 478.284747,152.36378 494.839209,150.650717 C495.529662,150.650717 496.047129,150.479362 496.650095,150.222081 C507.945882,174.462731 519.585155,206.326979 522,238.192214 C522,238.192214 480.354614,278.621774 427.75842,285.64538 C427.75842,285.64538 407.463384,290.404326 399.020872,290.216674 C387.491951,289.960875 386.335729,278.734859 387.243408,275.201081" id="Fill-86" fill="#FFB27D"></path>
                    <path d="M115.919196,117.247905 C116.289957,115.953951 121.000363,101.359836 143.807889,106.203348 C143.807889,106.203348 132.386459,104.767829 129.256639,109.158332 C129.256639,109.158332 138.309179,105.021156 143.976598,108.482794 C149.644513,111.944432 150.574651,123.596477 149.729614,127.143054 C148.883085,130.689631 142.623444,141.243429 138.477391,141.243429 C136.907753,141.243429 135.229624,140.722371 133.749068,140.075145 C134.383592,141.951751 134.955907,143.990785 135.432174,146.226022 C139.834027,166.901473 126.059136,182.617677 118.936046,178.732834 C114.368469,176.242283 110.910189,184.222081 110.910189,184.222081 L73,134.066826 C73,134.066826 99.4185885,102.383575 115.919196,117.247905" id="Fill-88" fill="#233862"></path>
                    <path d="M16.1477989,407.705994 C17.1619737,411.547624 20.4677649,420.224067 23.0356118,420.222081 C25.1282823,420.220095 25.8786919,409.59751 28.5716901,407.342489 C32.477809,404.070945 35.6599447,397.211033 36.1680293,395.548446 C37.2131181,392.122462 38.1958804,391.409357 38.1958804,391.409357 L38.1903957,391.402901 L38.202861,391.402901 C38.202861,391.402901 69.4034467,334.590374 71.8416547,320.047201 C72.6449171,315.313693 74.6852334,305.814895 77.0865442,295.175923 C79.6937813,283.607332 82.7168601,270.688509 85,261.009945 C75.0392473,259.076218 64.0219378,258.395392 55.0374655,258.222081 C53.2090588,269.994275 51.5726174,282.021716 50.1600523,292.474466 C48.0638915,308.020753 46.4708292,320.085439 45.4875682,322.66821 C42.7756228,329.763507 35.2974544,368.000043 28.2485902,387.85277 C27.4393445,389.804374 25.1502212,394.891952 22.6427063,396.620586 C19.5069415,398.776786 15.1396074,403.857411 16.1477989,407.705994" id="Fill-90" fill="#E8945B"></path>
                    <path d="M193.223729,359.988058 C192.383695,362.015255 188.726401,363.815887 183.45896,365.112817 C171.652539,368.031903 151.742938,368.413644 137.223637,363.074713 C121.654045,357.354039 110.361533,275.665755 105.561054,233.79909 C103.88698,219.195236 103,209.432561 103,209.432561 C103,209.432561 111.942714,195.53468 146.557902,200.167638 C181.166097,204.799603 184.666571,216.380757 187.775495,237.226834 C190.890412,258.073903 195.942102,353.421603 193.223729,359.988058" id="Fill-92" fill="#7A9C49"></path>
                    <path d="M56.7594326,363.894627 C73.8931789,309.258154 55.1166948,297.380724 56.9007061,270.040235 C58.6857089,242.699251 79.9039935,213.30213 79.9039935,213.30213 C79.9039935,213.30213 80.9851074,213.19334 82.8172013,213.027682 C84.2418328,212.279007 84.6205448,206.3351 84.6036911,200.062349 C84.5868375,192.536038 84.0078641,184.546378 84.0078641,184.546378 L109.455926,179.519771 L110.968296,179.222081 C110.905838,196.892101 115.56935,208.493599 118.948512,211.194071 C122.128405,211.557529 135.68471,213.259603 144.038186,216.744355 C147.187841,218.054784 149.590481,219.620375 150.429695,221.456953 C157.417528,236.786498 164.39495,275.472827 169.298875,303.068974 C172.032145,318.450441 174.116052,330.388694 175.204602,332.918563 C178.190677,339.865814 187.217804,377.599734 195.053277,397.05886 C195.940078,398.967141 198.422526,403.927484 200.98825,405.54401 C204.190449,407.561081 208.740446,412.436371 207.897762,416.303372 C207.055079,420.169878 206.212395,426.222081 202.167512,426.222081 C200.414234,426.222081 197.646265,422.869362 194.976444,418.799615 C193.172109,419.813837 192.755229,416.791939 190.762033,415.052283 C188.612694,413.176145 187.506795,405.039618 187.506795,405.039618 C186.327533,401.677009 185.315817,401.004981 185.315817,401.004981 L185.322757,401.001025 L185.312843,401.003498 C185.312843,401.003498 151.946526,345.7756 148.912864,331.405884 C147.922959,326.726911 145.497516,317.364021 142.666098,306.875646 C142.237817,305.288296 141.800612,303.674244 141.358451,302.048323 C136.358361,315.573926 133.805525,321.83382 133.944816,327.677343 C134.142103,335.993868 139.794033,343.468751 151.609453,369.901336 C158.136287,384.507425 39.2663065,419.696146 56.7594326,363.894627" id="Fill-94" fill="#FFB27D"></path>
                    <path d="M84,184.360998 C84,184.360998 84.5910357,192.527861 84.6087617,200.222081 C99.1582679,199.812626 106.848822,186.564979 110,179.222081 L84,184.360998 Z" id="Fill-96" fill="#E8945B"></path>
                    <path d="M112.45309,176.222081 C112.45309,176.222081 119.975053,164.494945 121.779725,154.468538 C123.069275,147.309705 119.373996,120.774898 92.3483895,124.59636 C92.3483895,124.59636 84.4991674,125.359469 77.1205989,130.276298 C71.2534178,134.186494 62.7846518,142.62802 72.2526823,165.783062 L74.7123716,173.604932 L112.45309,176.222081 Z" id="Fill-98" fill="#233862"></path>
                    <path d="M80.1430898,192.220672 C80.1430898,192.220672 113.6011,192.777772 113.624236,171.7362 C113.646879,150.695126 117.981604,136.59618 96.6200646,135.350781 C75.2585255,134.105879 71.0990406,142.129904 69.4002972,149.151547 C67.700077,156.172693 71.4411521,191.533367 80.1430898,192.220672" id="Fill-100" fill="#FFB27D"></path>
                    <path d="M32,680.556543 L42.8831962,683.222081 C42.8831962,683.222081 59.9981211,659.88856 74.2244659,628.048669 C83.2394907,607.876034 91.0844134,584.845585 92.6656728,563.4393 C93.3817054,553.750454 92.815366,544.395483 90.4931252,535.784279 C90.4931252,535.784279 93.5373863,515.419368 97.696363,488.248764 C102.315896,458.039495 108.305621,419.417262 113,391.018473 L110.166806,390.181301 L49.4327736,372.222081 C49.4327736,372.222081 37.5531195,418.561209 42.9889794,491.167689 C44.1031959,506.064893 45.9459195,522.065079 48.7726265,539.001804 C53.597239,567.946122 51.6123069,597.039491 47.6080132,621.260365 C41.8742639,655.895967 32,680.556543 32,680.556543" id="Fill-102" fill="#0081A3"></path>
                    <path d="M43.4152651,492.032569 L92.7894852,564.222081 C93.501158,554.544241 92.938267,545.199897 90.6301659,536.598475 C90.6301659,536.598475 93.655891,516.256698 97.7895444,489.116959 C102.38095,458.942009 108.334204,420.363649 113,391.997121 L110.184057,391.160899 L49.8198241,373.222081 C49.8198241,373.222081 38.0125033,419.508569 43.4152651,492.032569" id="Fill-104" fill="#035D72"></path>
                    <path d="M96.9709059,542.117715 C99.1114754,546.129772 120.319823,571.601063 141.62139,599.805844 C143.446601,602.216348 145.340735,604.818563 147.27652,607.551062 C159.830362,625.216204 174.281809,648.246772 182.919952,659.459629 C190.770194,669.65201 197.823115,656.888128 193.864276,647.7831 C187.614627,633.418159 182.318986,608.305026 176.26817,589.823008 C174.876329,585.545924 173.434903,581.627492 171.937447,578.276763 C165.422519,563.720607 152.727361,547.767984 137.290171,531.980817 C134.612104,529.242868 159.681608,463.877883 158.011101,413.471299 C157.3546,393.493738 154.571414,375.927672 148.198794,365.222081 L84.7884525,368.36178 C84.7884525,368.36178 76.1146092,502.998294 96.9709059,542.117715" id="Fill-106" fill="#0081A3"></path>
                    <path d="M80.9303822,134.710668 C98.8564641,124.633815 110.989499,139.592321 110.989499,139.592321 C120.686035,153.568028 124,163.410381 124,163.410381 C124,163.410381 117.906922,167.225278 103.859595,163.563914 C99.5726024,162.446812 95.7430333,159.363688 92.4889325,155.620074 C98.1727882,165.271221 105.903737,172.222081 105.903737,172.222081 C89.1236729,164.36099 82.3862677,140.708426 81.7148881,138.208031 C79.6732054,140.065382 75.6513218,144.101108 74.4246399,148.055082 C72.7587331,153.429736 72.0086569,164.493587 68.8268585,164.116733 C68.8268585,164.116733 61.9305847,147.287417 69.6807157,137.766873 C74.839764,131.429647 78.7401599,132.807456 80.9303822,134.710668 Z" id="Fill-108" fill="#233862"></path>
                    <path d="M160.983423,389.991352 C161.094271,392.132899 160.977432,393.845143 160.58647,395.069452 C159.227341,399.323727 154.562265,401.262051 143.283795,400.100845 C136.389788,399.387328 133.31602,387.890052 131.945408,378.081668 C127.804609,392.115012 122.007592,399.991035 114.51391,401.644151 C103.579466,404.064943 48.4199191,410.739018 44.80989,384.645932 C40.8383586,355.947711 52.7299843,305.131434 53.3825857,277.733048 C51.7613181,268.017579 51.2070813,259.585052 51.3828393,252.342548 C51.8432054,232.825155 57.5997788,221.88488 62.0261838,217.480051 C63.2799574,216.522069 64.5332317,215.924324 69.5668006,215.065718 C72.1387591,214.629955 75.7018529,214.12612 80.7513999,213.464278 C80.7513999,213.464278 82.924907,213.186523 82.8774723,213.262545 C81.9447566,214.922617 71.9050809,229.631219 72.8782409,234.471314 C73.8988356,239.537489 112.499184,238.807077 115.555476,236.021078 C118.611268,233.235577 126.586287,212.222081 126.586287,212.222081 C126.586287,212.222081 142.274185,213.927866 149.948618,219.481975 C149.948618,219.481975 149.919158,219.517254 149.867729,219.580854 C150.794453,220.243193 151.488498,220.944289 151.885451,221.693085 C160.073676,237.206134 168.249918,276.357191 174,304.284256 C160.062192,311.92774 147.88446,309.652533 144.105663,308.642378 C149.044862,340.805831 160.248435,375.337407 160.983423,389.991352" id="Fill-110" fill="#A05FA6"></path>
                    <path d="M81,213.222081 C81,213.222081 80.9773447,213.262655 80.9305565,213.336875 C79.4466334,215.69559 56.2303529,252.977835 54.0037294,277.222081 C52.4040672,267.547243 51.8573846,259.149979 52.030747,251.937764 C55.0163235,242.777518 68.3942871,222.277429 75.3701542,213.988528 C75.8685711,213.39823 81,213.222081 81,213.222081" id="Fill-112" fill="#7A9C49"></path>
                    <path d="M74,628.015029 C59.8527517,659.87353 42.8282064,683.222081 42.8282064,683.222081 L32,680.551133 C32,680.551133 41.8221203,655.878293 47.5245985,621.222081 C50.9161063,623.745886 58.2619743,626.988506 74,628.015029" id="Fill-114" fill="#FFB27D"></path>
                    <g id="Group-118" transform="translate(0.000000, 669.222081)">
                        <mask id="mask-4" fill="white">
                            <use xlink:href="#path-3"></use>
                        </mask>
                        <g id="Clip-117"></g>
                        <path d="M51.6923034,26.7311782 L44.347439,26.7311782 C41.8873542,26.3443418 40.0706763,25.6330145 37.5471847,25.3036145 C33.7157441,24.8014145 31.9516593,26.37036 31.6012017,26.7311782 C31.5535237,26.7778145 31.5318966,26.8038327 31.5318966,26.8038327 L0.332811864,26.8038327 C-0.451662712,25.6850509 0.301354237,23.0915782 1.03962542,21.1839055 C1.53704915,19.8869236 2.62037119,18.9046145 3.96026949,18.5177782 C7.26921864,17.5609964 13.791761,16.7082873 19.764778,11.3077964 C23.1253373,8.27545091 35.9929814,0.155814545 35.9929814,0.155814545 L36.0613034,0.139614545 C36.343439,0.145014545 37.6887441,0.557869091 43.5418288,5.49396 C46.5671678,8.03981455 51.7232695,1.89608727 51.7232695,1.89608727 C51.7232695,1.89608727 52.6920661,2.69676 53.4141169,4.18617818 C53.9951,5.36288727 54.419778,6.97846909 54.0845576,8.97057818 C53.6190831,11.7780873 55.1211847,16.99596 56.3195237,20.5255964 C57.0474729,22.6635055 57.6599136,24.1794327 57.6599136,24.1794327 C57.6599136,24.1794327 58.0113542,25.9413055 51.6923034,26.7311782" id="Fill-116" fill="#233862" mask="url(#mask-4)"></path>
                    </g>
                    <g id="Group-121" transform="translate(0.000000, 690.222081)">
                        <mask id="mask-6" fill="white">
                            <use xlink:href="#path-5"></use>
                        </mask>
                        <g id="Clip-120"></g>
                        <path d="M51.6923034,5.76531429 L44.347439,5.76531429 C41.8873542,5.4276 40.0706763,4.8066 37.5471847,4.51902857 C33.7157441,4.0806 31.9516593,5.45031429 31.6012017,5.76531429 C31.5535237,5.80602857 31.5318966,5.82874286 31.5318966,5.82874286 L0.332811864,5.82874286 C-0.451662712,4.85202857 0.301354237,2.58788571 1.03962542,0.922457143 C1.98728644,0.187457143 2.25418475,4.11274286 2.7771678,4.73802857 C3.3011339,5.36331429 28.2293373,4.96645714 29.6695068,4.0536 C31.1086932,3.14074286 35.4272356,1.54302857 41.4479305,2.79831429 C46.6875915,3.88945714 54.4084729,1.09131429 56.3195237,0.347742857 C57.0474729,2.21417143 57.6599136,3.5376 57.6599136,3.5376 C57.6599136,3.5376 58.0113542,5.07574286 51.6923034,5.76531429" id="Fill-119" fill="#466AA5" mask="url(#mask-6)"></path>
                    </g>
                    <path d="M160,389.222081 C152.47022,386.71725 142.807508,380.054832 131.203915,365.120243 C100.483327,325.577215 128.594571,279.105866 132.362686,278.239949 C136.130306,277.373538 143.22536,308.304354 143.22536,308.304354 C148.134381,340.297302 159.269503,374.645819 160,389.222081" id="Fill-122" fill="#6C4472"></path>
                    <path d="M143.102542,209.222081 C143.102542,209.222081 112.397755,230.386876 110.095943,275.242056 C107.793146,320.096238 147.707644,329.222081 147.707644,329.222081 L145.11749,315.04705 C145.11749,315.04705 112.782211,303.202606 121.225966,267.474765 C129.669721,231.746426 155,212.328698 155,212.328698 L143.102542,209.222081 Z" id="Fill-124" fill="#7A9C49"></path>
                    <path d="M147,606.853747 C159.363528,624.422843 173.596382,647.328194 182.103083,658.480086 C189.834317,668.61705 196.780317,655.922565 192.881494,646.867042 C186.727076,632.580697 181.511228,607.603612 175.55263,589.222081 C171.549304,595.363874 163.372226,603.294109 147,606.853747" id="Fill-126" fill="#FFB27D"></path>
                    <path d="M165.915089,695.222081 C165.915089,695.222081 184.748243,692.907751 189.44452,686.921402 C189.997797,686.217213 191.190325,679.740367 191.199934,679.672781 C191.295013,679.149982 191.92769,676.748684 195.624125,674.941747 C198.056216,673.752031 200.184864,673.487649 202.502153,672.203014 C204.214074,671.259292 207.47254,669.098024 209.013521,667.905327 C214.360177,663.767659 212.782782,662.184353 212.782782,662.184353 C212.782782,662.184353 211.337385,661.216777 209.413054,659.781067 C208.893156,659.390459 208.332293,658.962578 207.764856,658.507365 C204.866475,656.220367 201.590814,653.28484 200.53534,651.011757 C199.645748,649.077102 198.303016,647.913227 197.085706,647.228917 C195.556862,646.353775 194.220198,646.222081 194.220198,646.222081 C194.220198,646.222081 193.318974,654.60128 189.111239,654.151037 C180.978476,653.272416 179.542688,653.702781 179.288808,653.860813 L179.233177,653.91697 C179.233177,653.91697 174.552072,667.028197 173.38129,671.639465 C171.307766,679.851189 167.643194,683.349272 165.445259,686.254982 C164.885408,686.993461 164.516725,687.76772 164.292683,688.545955 C163.372241,691.686229 164.819662,694.810104 165.915089,695.222081" id="Fill-128" fill="#233862"></path>
                    <path d="M165.915089,696.222081 C165.915089,696.222081 184.748243,693.889768 189.44452,687.856903 C189.997797,687.147243 191.190325,680.62007 191.199934,680.551958 C191.295013,680.025097 191.92769,677.60514 195.624125,675.784162 C198.056216,674.585202 200.184864,674.318766 202.502153,673.024149 C204.214074,672.073094 207.47254,669.895033 209.013521,668.693068 C214.360177,664.523249 212.782782,662.92764 212.782782,662.92764 C212.782782,662.92764 211.337385,661.952546 209.413054,660.50568 C208.893156,660.112036 208.332293,659.680831 207.764856,659.222081 C207.484677,661.674091 206.384193,666.130377 202.131953,668.479218 C196.064622,671.833202 189.771732,677.021686 188.233279,680.712721 C186.69432,684.403757 185.818889,687.643053 182.080984,689.480558 C178.343585,691.31656 168.176241,693.082447 167.412577,692.829033 C166.803164,692.6252 165.882722,690.190719 164.292683,689.49408 C163.372241,692.658755 164.819662,695.806902 165.915089,696.222081" id="Fill-130" fill="#466AA5"></path>
                    <path d="M282.288257,445.650498 C291.988426,443.195303 288.279465,460.379172 290.730618,459.202537 C293.473111,457.886004 298.185521,457.906489 297.44193,461.217056 C296.697839,464.526623 295.624928,465.711252 295.064736,467.778233 C294.506043,469.845213 295.069234,473.938704 297.324494,473.113811 C299.580255,472.288917 320.558727,448.338522 305.745867,429.682236 C290.934006,411.02595 246.764777,422.519501 260.673135,442.033157 C263.11979,445.465135 275.381052,447.398713 282.288257,445.650498" id="Fill-132" fill="#AA443E"></path>
                </g>
            </g>
        </g>
    </g>
</svg>