<?xml version="1.0" encoding="UTF-8"?>
<svg width="219px" height="219px" viewBox="0 0 219 219" version="1.1" xmlns="http://www.w3.org/2000/svg" xmlns:xlink="http://www.w3.org/1999/xlink">
    <title>Group 16</title>
    <defs>
        <polygon id="path-1" points="-3.05930366e-14 0.0998023165 100.331127 0.0998023165 100.331127 97.1134242 -3.05930366e-14 97.1134242"></polygon>
        <polygon id="path-3" points="0.325022339 0.188703212 35.1248066 0.188703212 35.1248066 35.8333333 0.325022339 35.8333333"></polygon>
    </defs>
    <g id="Patient-PBD-ZSD-Layout-(DSK)" stroke="none" stroke-width="1" fill="none" fill-rule="evenodd">
        <g id="0-1_PBD-ZSD_Homepage" transform="translate(-261.000000, -1199.000000)">
            <g id="Group-17" transform="translate(27.000000, 1199.000000)">
                <g id="Group-16" transform="translate(234.000000, 0.000000)">
                    <circle id="Oval-Copy" fill="#A05FA6" cx="109.5" cy="109.5" r="109.5"></circle>
                    <g id="Group-9" transform="translate(45.000000, 45.000000)">
                        <g id="Group-3" transform="translate(0.125711, 0.433333)">
                            <mask id="mask-2" fill="white">
                                <use xlink:href="#path-1"></use>
                            </mask>
                            <g id="Clip-2"></g>
                            <path d="M50.1516711,12.7360427 C40.2427198,12.7360427 30.9210633,16.4682709 23.9117148,23.2389811 C16.9023663,30.0160559 13.0414966,39.0220296 13.0414966,48.6059131 C13.0414966,58.1872508 16.9023663,67.1970433 23.910398,73.9741181 C30.9184297,80.7473741 40.2387694,84.4783294 50.1503542,84.4783294 C60.0645727,84.4783294 69.3822788,80.7473741 76.3903105,73.9741181 C90.8593544,59.9858997 90.8593544,37.2271995 76.3903105,23.240254 C69.3835956,16.4657251 60.0645727,12.7360427 50.1516711,12.7360427 M50.1516711,97.1134242 C36.7479216,97.1134242 24.1474228,92.0688059 14.6703833,82.904989 C-4.89074228,63.9918077 -4.89074228,33.2174727 14.6730169,14.3081102 C24.1487396,5.14429324 36.7492384,0.0996750236 50.1529879,0.0996750236 C63.5593709,0.0996750236 76.1585529,5.14429324 85.6329588,14.3081102 C95.1099982,23.4693812 100.331127,35.6500403 100.331127,48.6071861 C100.331127,61.561786 95.1099982,73.7449909 85.6329588,82.9037161 C76.1572361,92.067533 63.5567373,97.1134242 50.1516711,97.1134242" id="Fill-1" fill="#FFFFFF" mask="url(#mask-2)"></path>
                        </g>
                        <path d="M96.2838233,87.8290817 C96.2838233,87.8290817 95.3407938,86.8846892 94.1867548,85.733467 C93.0327159,84.5822447 90.912202,84.8111884 89.4781198,86.2446877 L84.6157865,91.0993334 C83.1777967,92.5354344 82.948552,94.6505614 84.1012884,95.8030844 C85.2566298,96.9569083 86.1996593,97.9 86.1996593,97.9 L96.2838233,87.8290817 Z" id="Fill-4" fill="#FFFFFF"></path>
                        <g id="Group-8" transform="translate(93.413432, 93.600000)">
                            <mask id="mask-4" fill="white">
                                <use xlink:href="#path-3"></use>
                            </mask>
                            <g id="Clip-7"></g>
                            <path d="M0.325022339,10.0002564 C0.325022339,10.0002564 1.44101073,11.14084 2.80568389,12.5399558 L24.5229169,34.785137 C25.8875901,36.1829856 28.1183296,36.1829856 29.4830028,34.785137 L34.1003738,30.0567846 C35.4662842,28.6576687 35.4662842,26.3726997 34.1003738,24.9723165 L12.3856153,2.72840259 C11.0209421,1.32928677 9.90371648,0.188703212 9.90371648,0.188703212 L0.325022339,10.0002564 Z" id="Fill-6" fill="#FFFFFF" mask="url(#mask-4)"></path>
                        </g>
                    </g>
                </g>
            </g>
        </g>
    </g>
</svg>