<?xml version="1.0" encoding="UTF-8"?>
<svg width="816px" height="735px" viewBox="0 0 816 735" version="1.1" xmlns="http://www.w3.org/2000/svg" xmlns:xlink="http://www.w3.org/1999/xlink">
    <title>HERO_3_kids_holding_hands</title>
    <defs>
        <polygon id="path-1" points="0 509 685.950608 509 685.950608 0.675008086 0 0.675008086"></polygon>
        <path d="M2.77266667,0.6006 C1.254,0.868 0.218666667,2.3744 0.461333333,3.9634 L0.461333333,3.9634 C0.702,5.5531 2.13,6.6248 3.64933333,6.356 L3.64933333,6.356 C5.168,6.0879 6.20266667,4.5822 5.96133333,2.9932 L5.96133333,2.9932 C5.744,1.568 4.574,0.5593 3.24,0.5593 L3.24,0.5593 C3.086,0.5593 2.93,0.5726 2.77266667,0.6006" id="path-3"></path>
        <linearGradient x1="5.3962736%" y1="58.0468865%" x2="94.6316411%" y2="41.947284%" id="linearGradient-5">
            <stop stop-color="#C39975" offset="0%"></stop>
            <stop stop-color="#E8C3A3" offset="100%"></stop>
        </linearGradient>
        <path d="M1.558,0.0888 L0.628,0.2082 C0.531333333,0.2208 0.456,0.2898 0.443333333,0.3768 L0.443333333,0.3768 L0.222,1.9404 C0.21,2.028 0.264666667,2.1108 0.354666667,2.1432 L0.354666667,2.1432 L1.22333333,2.4534 C1.354,2.5002 1.5,2.4222 1.51733333,2.2968 L1.51733333,2.2968 L1.79933333,0.303 C1.81666667,0.1866 1.71533333,0.087 1.58933333,0.087 L1.58933333,0.087 C1.57866667,0.087 1.56866667,0.0876 1.558,0.0888" id="path-6"></path>
        <linearGradient x1="31.8692915%" y1="-6.12322252%" x2="63.5340006%" y2="80.4648145%" id="linearGradient-8">
            <stop stop-color="#E8B58A" offset="0%"></stop>
            <stop stop-color="#DBAA83" offset="100%"></stop>
        </linearGradient>
        <path d="M0.26925,0.56925 C-0.1005,1.1025 0.0315,1.83 0.56325,2.193 L0.56325,2.193 C1.09425,2.55525 1.824,2.41725 2.193,1.884 L2.193,1.884 C2.56125,1.35 2.43,0.62325 1.8975,0.2595 L1.8975,0.2595 C1.698,0.123 1.46925,0.05775 1.24275,0.05775 L1.24275,0.05775 C0.8685,0.05775 0.49875,0.237 0.26925,0.56925" id="path-9"></path>
        <linearGradient x1="90.6590872%" y1="77.8676623%" x2="9.31146806%" y2="22.1068308%" id="linearGradient-11">
            <stop stop-color="#C69064" offset="0%"></stop>
            <stop stop-color="#E8B88E" offset="100%"></stop>
        </linearGradient>
        <path d="M1.03425,0.14475 C0.816,0.18525 0.60975,0.29175 0.44775,0.45675 L0.44775,0.45675 C0.195,0.71325 0.08025,1.0815 0.144,1.4325 L0.144,1.4325 C0.16575,1.5495 0.207,1.66425 0.26475,1.77 L0.26475,1.77 C0.492,2.17575 0.9675,2.3955 1.4265,2.3085 L1.4265,2.3085 C1.779,2.24175 2.08425,2.00325 2.2335,1.677 L2.2335,1.677 C2.33025,1.46775 2.35575,1.23825 2.31675,1.02075 L2.31675,1.02075 C2.2335,0.5625 1.85625,0.1995 1.3935,0.135 L1.3935,0.135 C1.34325,0.1275 1.29225,0.1245 1.242,0.1245 L1.242,0.1245 C1.17225,0.1245 1.1025,0.13125 1.03425,0.14475" id="path-12"></path>
        <path d="M0.255,0.535 C0.2335,0.5415 0.2095,0.549 0.188,0.5555 L0.188,0.5555 C0.207,0.6125 0.226,0.67 0.246,0.727 L0.246,0.727 C0.266,0.7885 0.2865,0.85 0.3075,0.9115 L0.3075,0.9115 C0.329,0.905 0.3535,0.8975 0.375,0.891 L0.375,0.891 C0.3775,0.89 0.3775,0.89 0.3805,0.889 L0.3805,0.889 C0.36,0.8275 0.339,0.766 0.318,0.7045 L0.318,0.7045 C0.299,0.6475 0.28,0.59 0.2605,0.533 L0.2605,0.533 L0.255,0.535 Z" id="path-14"></path>
        <path d="M0.444,0.2115 C0.4235,0.2205 0.3995,0.2305 0.379,0.239 L0.379,0.239 C0.401,0.295 0.4235,0.3515 0.445,0.407 L0.445,0.407 C0.4695,0.4675 0.493,0.528 0.5165,0.5885 L0.5165,0.5885 C0.5375,0.5795 0.561,0.57 0.5815,0.561 L0.5815,0.561 C0.5835,0.56 0.5835,0.56 0.587,0.5585 L0.587,0.5585 C0.563,0.4985 0.539,0.4375 0.516,0.3775 L0.516,0.3775 C0.4935,0.3215 0.4715,0.2655 0.449,0.209 L0.449,0.209 C0.4465,0.2105 0.4465,0.2105 0.444,0.2115" id="path-16"></path>
        <path d="M0.542666667,0.0293333333 L0.535333333,0.867333333 C0.535333333,0.867333333 1.314,1.10733333 2.01666667,2.564 L2.01666667,2.564 C2.41733333,3.394 2.734,4.33333333 2.75066667,5.228 L2.75066667,5.228 C2.754,5.398 2.74733333,5.54133333 2.746,5.666 L2.746,5.666 C2.74266667,5.98333333 3.258,5.704 3.62466667,5.464 L3.62466667,5.464 C3.82866667,5.332 3.98533333,5.212 3.98533333,5.212 L3.98533333,5.212 C3.98533333,5.212 3.974,5.19866667 3.944,5.09666667 L3.944,5.09666667 C3.84733333,4.76733333 3.60066667,3.93333333 3.27866667,3.142 L3.27866667,3.142 C3.04933333,2.57866667 2.78,2.01466667 2.49466667,1.61733333 L2.49466667,1.61733333 C2.19,1.192 1.85733333,0.86 1.55333333,0.611333333 L1.55333333,0.611333333 C1.37466667,0.465333333 1.20666667,0.348 1.05933333,0.258666667 L1.05933333,0.258666667 C0.804666667,0.102666667 0.615333333,0.0293333333 0.550666667,0.0293333333 L0.550666667,0.0293333333 C0.548,0.0293333333 0.545333333,0.0293333333 0.542666667,0.0293333333" id="path-18"></path>
        <path d="M0.467333333,0.115333333 C0.467333333,0.115333333 1.12266667,0.41 1.55533333,0.78 C2.00066667,1.16 2.61733333,1.868 2.95733333,2.642 C3.514,3.912 3.83933333,5.21 3.83933333,5.21 C3.714,5.328 3.49933333,5.40666667 3.428,5.43333333 C3.428,5.43333333 2.934,3.35066667 2.43133333,2.40266667 C1.70133333,1.02466667 0.562666667,0.361333333 0.562666667,0.361333333" id="path-20"></path>
        <path d="M0.2954,2.7979 C0.0098,4.5843 1.2313,6.2762 3.024,6.5779 L3.024,6.5779 C4.8167,6.8796 6.5009,5.6756 6.7865,3.8885 L6.7865,3.8885 C7.0728,2.1021 5.8513,0.4102 4.0579,0.1085 L4.0579,0.1085 C3.8731,0.077 3.689,0.0622996761 3.5077,0.0622996761 L3.5077,0.0622996761 C1.9327,0.0616 0.5516,1.1956 0.2954,2.7979" id="path-22"></path>
        <linearGradient x1="98.9941006%" y1="58.015236%" x2="0.973191064%" y2="41.9751469%" id="linearGradient-24">
            <stop stop-color="#C39975" offset="0%"></stop>
            <stop stop-color="#E8C3A3" offset="100%"></stop>
        </linearGradient>
        <path d="M0.70575,0.753333333 L1.0635,3.24333333 C1.08525,3.40066667 1.26975,3.49733333 1.4355,3.43866667 L1.4355,3.43866667 L2.5335,3.052 C2.64825,3.012 2.71725,2.908 2.7015,2.79933333 L2.7015,2.79933333 L2.421,0.846 C2.40675,0.738 2.31,0.651333333 2.18775,0.635333333 L2.18775,0.635333333 L1.0125,0.486 C0.99975,0.484666667 0.98625,0.484 0.9735,0.484 L0.9735,0.484 C0.81375,0.484 0.6855,0.608 0.70575,0.753333333" id="path-25"></path>
        <linearGradient x1="68.6151346%" y1="-6.13131942%" x2="36.1251696%" y2="80.4736908%" id="linearGradient-27">
            <stop stop-color="#E8B58A" offset="0%"></stop>
            <stop stop-color="#DBAA83" offset="100%"></stop>
        </linearGradient>
        <path d="M0.9024,0.5718 C0.4242,0.8976 0.306,1.5516 0.6378,2.0316 L0.6378,2.0316 C0.9684,2.511 1.6248,2.6358 2.1024,2.3094 L2.1024,2.3094 C2.5806,1.9824 2.6988,1.329 2.367,0.849 L2.367,0.849 C2.1612,0.5502 1.8288,0.3894 1.4916,0.3894 L1.4916,0.3894 C1.2882,0.3894 1.0824,0.4482 0.9024,0.5718" id="path-28"></path>
        <linearGradient x1="9.33677357%" y1="77.8873274%" x2="90.7056023%" y2="22.0914489%" id="linearGradient-30">
            <stop stop-color="#C69064" offset="0%"></stop>
            <stop stop-color="#E8B88E" offset="100%"></stop>
        </linearGradient>
        <path d="M1.3554,0.459 C0.9396,0.5172 0.6006,0.843 0.5256,1.2552 L0.5256,1.2552 C0.4902,1.4508 0.5136,1.6572 0.6006,1.8462 L0.6006,1.8462 C0.7356,2.139 1.0092,2.3538 1.326,2.4132 L1.326,2.4132 C1.7394,2.4918 2.1672,2.2944 2.3706,1.929 L2.3706,1.929 C2.4234,1.8342 2.4594,1.7316 2.4792,1.6254 L2.4792,1.6254 C2.5362,1.3104 2.433,0.9786 2.2068,0.7488 L2.2068,0.7488 C2.0604,0.6 1.875,0.5046 1.6788,0.4674 L1.6788,0.4674 C1.6176,0.4554 1.5558,0.4494 1.4934,0.4494 L1.4934,0.4494 C1.4472,0.4494 1.401,0.453 1.3554,0.459" id="path-31"></path>
        <path d="M0.5725,0.701 C0.549,0.7705 0.5255,0.8395 0.5025,0.9085 L0.5025,0.9085 C0.5055,0.9095 0.5055,0.9095 0.509,0.911 L0.509,0.911 C0.533,0.918 0.56,0.9265 0.584,0.934 L0.584,0.934 L0.6545,0.7265 C0.676,0.662 0.697,0.598 0.7185,0.534 L0.7185,0.534 C0.695,0.5265 0.6675,0.518 0.643,0.5105 L0.643,0.5105 L0.637,0.5085 C0.615,0.573 0.5935,0.637 0.5725,0.701" id="path-33"></path>
        <path d="M0.4125,0.2715 C0.3855,0.3395 0.359,0.4075 0.332,0.4755 L0.332,0.4755 C0.3355,0.4765 0.3355,0.4765 0.3385,0.478 L0.3385,0.478 C0.3615,0.488 0.388,0.4985 0.4115,0.5085 L0.4115,0.5085 C0.438,0.4405 0.465,0.3725 0.4915,0.3045 L0.4915,0.3045 L0.566,0.116 C0.5425,0.1065 0.516,0.095 0.493,0.085 L0.493,0.085 C0.49,0.084 0.49,0.084 0.487,0.0825 L0.487,0.0825 C0.4625,0.1455 0.4375,0.2085 0.4125,0.2715" id="path-35"></path>
        <path d="M4.06642857,0.4438 C3.89,0.5495 3.68714286,0.6881 3.47142857,0.8603 L3.47142857,0.8603 C3.10642857,1.1543 2.70571429,1.5463 2.33785714,2.0482 L2.33785714,2.0482 C1.995,2.5165 1.67,3.1829 1.39357143,3.8479 L1.39357143,3.8479 C1.00642857,4.781 0.710714286,5.7652 0.593571429,6.1544 L0.593571429,6.1544 C0.557142857,6.2741 0.542857143,6.2902 0.542857143,6.2902 L0.542857143,6.2902 C0.542857143,6.2902 0.732142857,6.4323 0.977142857,6.5884 L0.977142857,6.5884 C1.41928571,6.8705 2.04071429,7.2009 2.035,6.8257 L2.035,6.8257 C2.03428571,6.6794 2.02642857,6.51 2.03071429,6.3091 L2.03071429,6.3091 C2.05,5.2535 2.43214286,4.1447 2.91428571,3.1647 L2.91428571,3.1647 C3.76142857,1.4455 4.69714286,1.1627 4.69714286,1.1627 L4.69714286,1.1627 L4.68928571,0.1736 C4.68642857,0.1736 4.68357143,0.1736 4.68,0.1736 L4.68,0.1736 C4.60285714,0.1736 4.37428571,0.2604 4.06642857,0.4438" id="path-37"></path>
        <path d="M3.88826087,0.268091954 C3.85478261,0.361103448 3.81857143,0.455482759 3.7789441,0.552597701 C3.7789441,0.552597701 2.46714286,1.3178908 1.62608696,2.90592529 C1.04670807,3.99949425 0.478944099,6.4006954 0.478944099,6.4006954 C0.396273292,6.37060345 0.148944099,6.27964368 0.0047826087,6.14354598 C0.0047826087,6.14354598 0.379192547,4.64647126 1.02074534,3.18222414 C1.41223602,2.28972414 2.1221118,1.47382184 2.63521739,1.03475287" id="path-39"></path>
    </defs>
    <g id="Patient-PBD-ZSD-Layout-(DSK)" stroke="none" stroke-width="1" fill="none" fill-rule="evenodd">
        <g id="4.2-Resources" transform="translate(-610.000000, -186.000000)">
            <g id="HERO_3_kids_holding_hands" transform="translate(610.000000, 186.000000)">
                <rect id="Rectangle" x="0" y="0" width="816" height="735"></rect>
                <g id="Group-234" transform="translate(0.000000, 208.651000)">
                    <g id="Group-127" transform="translate(0.000000, 0.349000)">
                        <path d="M523.646644,119.712753 C523.646644,119.712753 506.029478,124.710831 507.489286,142.790621 C508.834532,159.465515 517.035662,158.620383 517.035662,158.620383 C517.035662,158.620383 511.039336,182.259386 529.153166,189.113737 C546.234566,195.575704 552.656212,189.113737 552.656212,189.113737 C552.656212,189.113737 560.066384,208.743164 585.403794,201.1651 C610.74189,193.587037 608.47123,178.220313 608.47123,178.220313 C608.47123,178.220313 619.266812,182.465867 631.752012,162.636819 C644.23584,142.80777 637.113788,128.524901 620.58942,119.712753 C620.58942,119.712753 626.089768,94.4671759 600.826446,90.4281031 C575.562438,86.3883443 569.366486,100.250706 569.366486,100.250706 C569.366486,100.250706 564.869756,84.7769683 537.966894,95.4248093 C520.34081,102.401951 523.646644,119.712753 523.646644,119.712753" id="Fill-1" fill="#030440"></path>
                        <path d="M112.396298,105.358347 C113.604344,105.277732 122.736376,120.020897 128.452814,142.633668 C134.168566,165.248496 146.345066,206.996786 146.345066,206.996786 C146.345066,206.996786 166.103238,246.883316 171.44512,252.225758 C176.788374,257.568886 181.970418,252.044658 187.35003,253.716401 C189.012208,254.232946 194.139372,258.687039 194.139372,258.687039 C194.139372,258.687039 203.379106,278.6917 202.012594,280.058866 C200.646082,281.426031 186.356016,285.277145 176.41519,282.046847 C166.47505,278.816549 120.25237,224.641662 120.25237,224.641662 C120.25237,224.641662 82.57382,107.363809 112.396298,105.358347" id="Fill-3" fill="#F48C7F"></path>
                        <path d="M292.968442,123.35368 L288.495036,118.715058 C288.495036,118.715058 280.293906,133.439701 270.851116,154.313503 C261.40764,175.18799 250.100302,200.90964 246.248412,204.760753 C242.395836,208.613238 209.965186,253.213163 200.148526,257.5623 C190.332552,261.910752 193.370846,260.005089 185.485962,259.059803 C179.566468,258.350496 180.214738,262.634465 184.067314,264.62176 C185.105232,265.158199 186.285838,265.514225 188.64705,267.190769 C193.33586,270.518477 197.350332,275.245592 200.2919,277.999131 C201.429974,279.063092 199.054356,281.013344 197.718028,279.678419 C196.339854,278.299592 191.668194,271.08167 189.711036,271.08167 C187.754564,271.08167 189.05865,276.020067 189.898314,277.604004 C190.736606,279.188627 188.872744,278.722158 187.195474,274.80862 C185.516832,270.895768 184.306042,266.980858 181.88309,267.539249 C179.930048,267.990627 181.124374,273.402353 181.661512,275.487058 C181.100364,273.503879 179.552062,268.565481 178.062756,268.565481 C176.198208,268.565481 175.35923,268.752069 175.35923,272.433058 C175.35923,276.114047 176.664002,280.058454 180.951502,283.30453 C185.23763,286.550605 197.2392,284.383582 202.172912,282.420296 C205.54323,281.077826 208.897084,275.603675 212.271518,273.78376 C227.349112,265.650736 242.839678,255.942007 262.02847,230.357554 C285.512994,199.045136 294.672466,171.087865 294.672466,171.087865 L292.968442,123.35368 Z" id="Fill-5" fill="#F4C0B8"></path>
                        <path d="M284.270168,478.616267 C284.270168,478.616267 281.785476,468.179023 284.270168,455.505472 C286.755546,442.831235 300.175764,378.219104 300.175764,364.799888 C300.175764,351.379987 306.636512,331.747816 306.636512,331.747816 L267.122912,321.807224 L263.146856,360.326588 C263.146856,360.326588 261.034662,450.162344 257.431104,453.764445 C253.827546,457.367918 238.5908,462.690467 233.822414,462.690467 C228.485334,462.690467 220.029012,463.049922 220.029012,465.738293 C220.029012,468.426663 220.774694,470.16769 220.774694,470.16769 L284.270168,478.616267 Z" id="Fill-7" fill="#F4C0B8"></path>
                        <path d="M331.318792,326.081315 L336.209286,359.332323 C336.209286,359.332323 347.836986,456.77907 345.155412,459.46058 C342.474524,462.142777 330.28842,469.993176 324.696148,470.615363 C319.104562,471.236865 311.23477,475.01252 311.23477,477.993805 C311.23477,484.020859 374.107356,479.128423 374.107356,479.128423 C374.107356,479.128423 376.09607,474.639344 374.107356,468.0539 C372.120014,461.468455 372.120014,452.149365 372.120014,450.658036 C372.120014,449.168079 372.243494,450.410396 372.243494,448.049925 L372.243494,444.943105 C372.243494,444.943105 379.823794,398.472502 371.74683,369.148065 L368.888954,312.240219 L331.318792,326.081315 Z" id="Fill-9" fill="#F4C0B8"></path>
                        <path d="M69.86567,0.923677224 C69.86567,0.923677224 55.327958,0.752181267 45.263652,6.42869744 C35.233646,12.0860061 32.539038,25.5847958 32.350388,36.1365991 C32.108916,49.7622958 36.580264,63.4792284 45.076374,74.1709724 C53.586204,84.8784939 68.561584,89.6899845 68.561584,89.6899845 L110.703936,62.8261718 C110.703936,62.8261718 115.716538,50.3138268 112.175406,33.5401503 C108.634274,16.7651018 109.565176,-1.68649124 69.86567,0.923677224" id="Fill-11" fill="#2D1503"></path>
                        <path d="M140.878744,435.343035 C140.878744,435.343035 154.79494,455.347696 155.788954,458.080655 C156.782968,460.814301 163.6169,478.955829 163.6169,478.955829 L217.047382,452.987911 L176.16727,440.561314 L167.966826,422.668798 L140.878744,435.343035 Z" id="Fill-13" fill="#F48C7F"></path>
                        <path d="M70.7975324,293.726888 L114.41204,384.679425 L143.114966,442.085296 C143.114966,442.085296 168.587518,432.269553 174.924786,425.933121 L154.298824,353.617392 L130.813614,269.869742 L81.4449384,265.38135 L70.7975324,293.726888 Z" id="Fill-15" fill="#6C4472"></path>
                        <path d="M29.6690198,444.570135 C29.6690198,444.570135 31.6570478,457.989351 31.6570478,458.859178 C31.6570478,459.729692 28.6750058,472.651569 28.1769698,476.130879 C27.6803058,479.608817 28.1769698,482.343835 28.1769698,482.343835 L78.8126878,470.228674 C78.8126878,470.228674 71.2954998,465.319774 64.5843618,461.592824 C57.8752818,457.865188 56.8805818,440.096835 56.8805818,440.096835 L29.6690198,444.570135 Z" id="Fill-17" fill="#F48C7F"></path>
                        <path d="M22.5866186,269.870016 C22.5866186,269.870016 31.2604026,324.425624 30.0413806,342.683084 C28.2927666,368.894526 21.3435866,378.963396 26.3136566,447.699662 L61.6028686,447.699662 C61.6028686,447.699662 64.0882466,410.773839 69.5549806,382.195066 C75.0230866,353.61698 86.9505686,305.655049 86.9505686,305.655049 L106.583889,261.406348 L22.5866186,269.870016 Z" id="Fill-19" fill="#A05FA6"></path>
                        <path d="M43.0045168,64.7623612 C44.7071688,70.0938275 49.0090748,73.4832736 52.6133188,72.3315067 C56.2168768,71.1811119 57.7576328,65.9271617 56.0542948,60.5950094 C54.3516428,55.2635431 50.0497368,51.875469 46.4468648,53.0258639 C42.8426208,54.1769447 41.3025508,59.4315809 43.0045168,64.7623612" id="Fill-21" fill="#F48C7F"></path>
                        <path d="M102.929018,53.3806547 C103.402358,58.9583892 106.843334,63.2190348 110.612218,62.8993663 C114.381788,62.5783259 117.053758,57.7983906 116.579046,52.221342 C116.10502,46.6449795 112.665416,42.384334 108.895846,42.7040024 C105.126962,43.0236709 102.454992,47.8042922 102.929018,53.3806547" id="Fill-23" fill="#F48C7F"></path>
                        <path d="M25.9134442,115.257219 C25.9134442,115.257219 30.0143522,221.037983 25.9134442,240.795004 C21.8132222,260.551338 19.9308382,273.368946 19.9308382,273.368946 C19.9308382,273.368946 76.6102162,284.407111 131.034026,269.869742 C131.034026,269.869742 122.833582,232.967242 119.106544,194.572041 C115.37882,156.177526 112.396092,105.358473 112.396092,105.358473 C112.396092,105.358473 91.7605262,103.819811 75.8645342,105.277526 C39.7336002,108.58877 25.9134442,115.257219 25.9134442,115.257219" id="Fill-25" fill="#0081A3"></path>
                        <path d="M59.6151836,78.4577539 L58.0188616,107.400784 C58.0188616,107.400784 60.7333636,123.375289 76.5758476,124.307541 C92.4183316,125.238421 87.7583336,91.1319911 87.7583336,91.1319911 L86.8274316,78.4577539 L59.6151836,78.4577539 Z" id="Fill-27" fill="#F48C7F"></path>
                        <path d="M87.2494588,100.264014 C87.6308748,100.264014 88.0102328,100.255096 88.3854748,100.23726 C88.2969808,95.072488 87.7584708,91.1315109 87.7584708,91.1315109 L86.8275688,78.4579597 L59.6153208,78.4579597 L59.3752208,82.8016093 C62.7894428,88.6132643 72.8352268,100.264014 87.2494588,100.264014" id="Fill-29" fill="#F27A6A"></path>
                        <path d="M29.1404568,465.476727 C29.1404568,465.476727 31.0043188,463.612223 37.5288648,464.1713 C44.0520388,464.730377 76.7625768,468.364719 78.1599588,468.364719 C79.5580268,468.364719 98.2741648,482.576246 99.1124568,485.154859 C99.9514348,487.732786 58.6823608,486.045952 58.6823608,486.045952 L27.2621888,486.045952 C27.2621888,486.045952 24.2952388,476.658949 29.1404568,465.476727" id="Fill-31" fill="#7A9C49"></path>
                        <path d="M158.771682,464.790743 C158.771682,464.790743 156.8598,466.076963 156.8598,467.817304 C156.8598,468.971815 158.805982,476.824958 161.058806,482.412982 C162.373182,485.672777 166.241536,487.048861 169.319618,485.351737 L225.994194,454.105859 C225.994194,454.105859 230.1246,450.527082 203.39461,448.836817 L158.771682,464.790743 Z" id="Fill-33" fill="#7A9C49"></path>
                        <path d="M25.9134442,115.257219 C25.9134442,115.257219 17.8646062,118.777688 13.1428682,129.711584 C8.4211302,140.646853 -6.7380978,190.098741 3.4510602,219.670818 C3.4510602,219.670818 8.0404002,242.153937 31.6497762,257.562506 C55.2591522,272.969703 96.4253262,276.672644 98.7556682,274.343043 C101.085324,272.013442 101.17862,267.973683 101.17862,265.38135 C101.17862,262.786959 106.5843,261.482904 106.5843,257.941169 C106.5843,254.400121 97.4508962,253.779305 86.9509802,253.779305 C86.9509802,253.779305 85.0871182,253.592718 87.3859042,251.853749 C89.6853762,250.113408 92.6049922,247.938839 92.1076422,244.646803 C91.6109782,241.35408 89.4679142,241.509113 87.4476442,243.528649 C85.4287462,245.548185 78.7498502,250.983235 73.4072822,249.430854 C68.0640282,247.877101 36.5032262,221.970235 31.2841382,213.768613 C31.2841382,213.768613 33.3688922,117.016768 25.9134442,115.257219" id="Fill-35" fill="#F48C7F"></path>
                        <path d="M288.495311,118.715264 C288.495311,118.715264 305.503995,109.276812 323.560201,107.159866 C341.617779,105.043606 367.521825,111.819068 367.521825,111.819068 L382.458789,327.48964 C382.458789,327.48964 315.363187,359.359762 265.042343,327.48964 C265.042343,327.48964 278.555171,236.934287 278.555171,224.201741 L278.555171,211.471253 L288.495311,118.715264 Z" id="Fill-37" fill="#7A9C49"></path>
                        <path d="M220.057481,467.617751 C218.268393,467.4147 216.576717,468.471115 215.973037,470.166181 C215.276747,472.119177 215.584075,473.865692 217.047313,475.329581 C219.719283,478.001488 266.347389,485.63786 282.623425,485.278405 C284.352145,485.23999 286.816943,480.106087 284.269825,478.61613 C280.288967,476.285157 232.355403,469.00824 220.057481,467.617751" id="Fill-39" fill="#A05FA6"></path>
                        <path d="M233.822345,462.690604 L237.673549,470.538945 L246.247863,472.900787 C246.247863,472.900787 242.271121,458.859384 238.792415,459.480199 C235.313709,460.101701 233.822345,462.690604 233.822345,462.690604" id="Fill-41" fill="#A05FA6"></path>
                        <path d="M311.227155,478.497027 C309.591731,478.492241 308.121633,479.528077 307.613307,481.083202 C307.205137,482.335809 307.067937,483.768143 308.003641,484.704511 C309.991669,486.692492 376.761421,485.325326 376.761421,485.325326 C376.761421,485.325326 378.374893,480.359489 375.470369,479.361383 C373.549569,478.70078 322.840449,478.527912 311.227155,478.497027" id="Fill-43" fill="#A05FA6"></path>
                        <path d="M331.348907,467.801938 C330.748657,466.712596 326.144225,467.867792 324.697451,470.615844 L330.617631,479.122043 L337.577787,479.098034 L331.348907,467.801938 Z" id="Fill-45" fill="#A05FA6"></path>
                        <path d="M367.521962,111.819274 C367.521962,111.819274 352.98425,128.96544 360.439012,157.669061 C367.895146,186.37131 385.91225,232.096934 408.154428,257.548992 C411.755242,261.669697 420.082596,270.367286 423.811006,272.85192 C427.537358,275.337239 443.318788,277.076208 443.318788,277.076208 C443.318788,277.076208 450.276886,255.705068 448.288858,253.717087 C446.300144,251.72842 429.588498,251.543204 425.05198,247.006793 C420.51752,242.47244 376.468088,111.819274 367.521962,111.819274" id="Fill-47" fill="#F4C0B8"></path>
                        <path d="M184.067246,258.486458 C184.067246,258.486458 189.63345,262.088559 192.942028,261.29762 C196.24992,260.502564 194.617926,258.812986 193.065508,257.259919 C191.51309,255.706165 187.349756,253.716812 187.349756,253.716812 L184.067246,258.486458 Z" id="Fill-49" fill="#F48C7F"></path>
                        <path d="M73.9870208,16.1114278 C64.9613188,17.4442943 58.3592548,23.8349197 53.5641148,31.6400437 C44.0575268,47.109665 51.7866888,69.8829561 54.3962328,75.101921 C57.0057768,80.320886 67.4425808,93.7407876 82.9132528,93.7407876 C98.3832388,93.7407876 109.193227,79.5759075 110.497999,65.7842027 C112.244555,47.318204 107.300553,24.3055046 89.7259188,17.8860679 C84.9355808,16.1368092 79.2616748,15.3328361 73.9870208,16.1114278" id="Fill-51" fill="#F48C7F"></path>
                        <path d="M322.976209,16.5792001 C322.976209,16.5792001 315.334169,16.2060249 306.760541,20.3068363 C298.186913,24.4069616 289.240101,42.842777 289.240101,59.2446503 C289.240101,69.2264009 284.822261,73.3464198 281.363449,75.0428578 C279.505761,75.9531584 279.007039,78.3623336 280.373551,79.9167729 C283.754159,83.7603403 287.273339,87.9798268 291.711759,90.5632419 C308.527677,100.347429 325.466389,100.643774 344.369805,97.177498 C359.575681,94.3896597 373.925429,87.5435411 384.711407,76.3229036 C386.742653,74.2093875 386.188365,70.7225317 383.607633,69.3354724 C380.037689,67.4160896 375.827707,63.2892109 374.232757,54.4139522 C371.249343,37.8268632 365.099353,8.56485108 322.976209,16.5792001" id="Fill-53" fill="#E5B342"></path>
                        <path d="M345.76163,61.8355426 C344.54741,67.2994038 346.55739,72.3942057 350.250128,73.2139563 C353.943552,74.035079 357.92098,70.2724577 359.1352,64.8079105 C360.34942,59.3447353 358.340126,54.2506194 354.647388,53.4294968 C350.95465,52.6097461 346.976536,56.3723674 345.76163,61.8355426" id="Fill-55" fill="#F4C0B8"></path>
                        <path d="M291.126807,54.5489538 C291.126807,60.1452098 294.193913,64.6823069 297.975831,64.6823069 C301.759807,64.6823069 304.826227,60.1452098 304.826227,54.5489538 C304.826227,48.9520117 301.759807,44.4156007 297.975831,44.4156007 C294.193913,44.4156007 291.126807,48.9520117 291.126807,54.5489538" id="Fill-57" fill="#F4C0B8"></path>
                        <path d="M314.340292,90.5725027 L312.47643,116.168617 C312.47643,116.168617 313.346964,122.007712 320.304376,123.2514 C327.262474,124.493031 342.050576,114.17995 342.050576,108.712659 L338.570498,79.1405822 L314.340292,90.5725027 Z" id="Fill-59" fill="#F4C0B8"></path>
                        <path d="M313.431205,103.058918 C324.420925,103.607705 333.264837,98.6535294 339.803789,89.6300981 L338.570361,79.1407194 L314.340155,90.5726399 L313.431205,103.058918 Z" id="Fill-61" fill="#F7A491"></path>
                        <path d="M297.255256,67.6469918 C298.932526,77.1519837 301.728662,93.8817573 316.639558,95.6042627 C331.549768,97.32814 342.73294,89.2671441 349.81589,74.7297748 C356.897468,60.1924055 355.220884,40.9951481 351.306568,31.4901562 C348.19693,23.9374743 334.77191,24.2989877 328.178078,24.4101171 C306.078588,24.7812344 293.541252,46.59895 297.255256,67.6469918" id="Fill-63" fill="#F4C0B8"></path>
                        <path d="M319.061893,21.3628398 C319.061893,21.3628398 318.829339,33.5870716 329.002719,43.7595257 C339.176099,53.9326659 359.629875,59.2442387 359.629875,59.2442387 L362.055571,64.9852373 C362.055571,64.9852373 365.285945,46.7106282 357.582165,34.5337292 C349.877699,22.3575163 319.061893,21.3628398 319.061893,21.3628398" id="Fill-65" fill="#E5B342"></path>
                        <path d="M81.5182718,42.6867842 C81.5182718,52.4243247 76.8164278,60.3179406 71.0156118,60.3179406 C65.2147958,60.3179406 60.5129518,52.4243247 60.5129518,42.6867842 L81.5182718,42.6867842 Z" id="Stroke-67" stroke="#864F8E" stroke-width="2"></path>
                        <path d="M108.715085,42.6867842 C108.715085,52.4243247 104.013241,60.3179406 98.2124248,60.3179406 C92.4116088,60.3179406 87.7097648,52.4243247 87.7097648,42.6867842 L108.715085,42.6867842 Z" id="Stroke-69" stroke="#864F8E" stroke-width="2"></path>
                        <line x1="81.5182718" y1="42.6867842" x2="87.7094218" y2="42.6867842" id="Stroke-71" stroke="#864F8E" stroke-width="2"></line>
                        <line x1="60.5128832" y1="43.8368361" x2="49.0313012" y2="52.8012728" id="Stroke-73" stroke="#864F8E" stroke-width="2"></line>
                        <path d="M502.449587,197.168627 C502.449587,192.848301 505.951617,189.345668 510.272045,189.345668 C514.592473,189.345668 518.095189,192.848301 518.095189,197.168627 C518.095189,201.488953 514.592473,204.990901 510.272045,204.990901 C505.951617,204.990901 502.449587,201.488953 502.449587,197.168627" id="Fill-75" fill="#6D73A1"></path>
                        <path d="M634.59706,197.865655 C634.59706,193.545329 638.099776,190.043382 642.419518,190.043382 C646.740632,190.043382 650.243348,193.545329 650.243348,197.865655 C650.243348,202.185982 646.740632,205.688615 642.419518,205.688615 C638.099776,205.688615 634.59706,202.185982 634.59706,197.865655" id="Fill-77" fill="#6D73A1"></path>
                        <mask id="mask-2" fill="white">
                            <use xlink:href="#path-1"></use>
                        </mask>
                        <g id="Clip-80"></g>
                        <polygon id="Fill-79" fill="#030440" mask="url(#mask-2)" points="510.272182 368.85762 642.419792 368.85762 642.419792 214.756155 510.272182 214.756155"></polygon>
                        <path d="M510.272319,372.126676 C508.467453,372.126676 507.003529,370.662786 507.003529,368.857963 L507.003529,197.168559 C507.003529,195.363735 508.467453,193.899846 510.272319,193.899846 C512.077185,193.899846 513.541109,195.363735 513.541109,197.168559 L513.541109,368.857963 C513.541109,370.662786 512.077185,372.126676 510.272319,372.126676" id="Fill-81" fill="#222B54" mask="url(#mask-2)"></path>
                        <path d="M642.419723,372.126676 C640.614857,372.126676 639.150933,370.662786 639.150933,368.857963 L639.150933,197.168559 C639.150933,195.363735 640.614857,193.899846 642.419723,193.899846 C644.224589,193.899846 645.688513,195.363735 645.688513,197.168559 L645.688513,368.857963 C645.688513,370.662786 644.224589,372.126676 642.419723,372.126676" id="Fill-82" fill="#222B54" mask="url(#mask-2)"></path>
                        <path d="M566.535707,183.282943 C566.535707,188.860677 570.830753,203.326018 564.947617,210.255141 C558.153473,218.256456 564.887249,256.07886 594.258339,232.198391 C595.403273,231.267511 586.463321,210.881444 585.898743,209.263208 C584.854651,206.273691 584.270865,199.472161 584.889637,183.260991 C585.888453,157.082476 566.535707,183.282943 566.535707,183.282943" id="Fill-83" fill="#966259" mask="url(#mask-2)"></path>
                        <path d="M585.351109,191.435243 L568.057735,202.469979 L567.124089,206.185953 C570.757145,206.211335 579.382909,206.692895 581.696101,206.425362 C585.889619,205.939685 584.560151,200.956013 586.184599,197.168696 C585.698911,193.819037 585.351109,191.435243 585.351109,191.435243" id="Fill-84" fill="#6B4744" mask="url(#mask-2)"></path>
                        <path d="M560.742162,195.978034 C529.326792,189.160726 525.39807,153.288574 534.970514,136.817416 C546.391042,117.166724 591.29523,111.750881 599.923738,133.975385 C609.444732,125.513775 629.5363,161.413367 598.354856,183.130243 C591.359714,188.002786 573.91885,198.837214 560.742162,195.978034" id="Fill-85" fill="#030440" mask="url(#mask-2)"></path>
                        <path d="M601.492895,150.011629 C606.068515,157.79343 609.970483,173.301466 609.340049,180.606508 C607.851429,197.865861 583.502545,204.131637 576.665183,204.268148 C567.072845,204.460224 546.440023,199.667255 543.053927,186.398956 C540.149403,175.018484 543.964249,149.66315 552.402735,143.931069 C562.346991,137.176872 599.012319,145.793515 601.492895,150.011629" id="Fill-86" fill="#966259" mask="url(#mask-2)"></path>
                        <path d="M590.268974,179.926424 C585.034794,179.926424 580.776106,175.667836 580.776106,170.43378 C580.776106,165.199723 585.034794,160.941135 590.268974,160.941135 C595.503154,160.941135 599.761842,165.199723 599.761842,170.43378 C599.761842,175.667836 595.503154,179.926424 590.268974,179.926424 L590.268974,179.926424 Z M560.237952,179.926424 C555.003772,179.926424 550.74577,175.667836 550.74577,170.43378 C550.74577,165.199723 555.003772,160.941135 560.237952,160.941135 C565.472818,160.941135 569.73082,165.199723 569.73082,170.43378 C569.73082,175.667836 565.472818,179.926424 560.237952,179.926424 L560.237952,179.926424 Z M609.568898,160.275045 L609.197086,159.80103 L600.803876,166.378929 C599.169824,162.148467 595.069602,159.134254 590.268974,159.134254 C584.392698,159.134254 579.553654,163.645284 579.022004,169.385596 C575.546042,168.398465 572.847318,168.90678 571.482178,169.329346 C570.925146,163.615786 566.096392,159.134254 560.237952,159.134254 C555.12931,159.134254 550.808196,162.543594 549.414244,167.204168 L541.123934,161.183974 L540.769958,161.671022 L549.252348,167.831157 C549.054094,168.668743 548.93816,169.536513 548.93816,170.43378 C548.93816,176.664571 554.0077,181.733305 560.237952,181.733305 C566.46889,181.733305 571.537744,176.664571 571.537744,170.43378 C571.537744,170.273259 571.520594,170.116855 571.513734,169.957707 C572.761568,169.557092 575.49322,168.985668 578.991134,170.007784 C578.985646,170.150468 578.969182,170.289723 578.969182,170.43378 C578.969182,176.664571 584.038036,181.733305 590.268974,181.733305 C596.499912,181.733305 601.569452,176.664571 601.569452,170.43378 C601.569452,169.226448 601.373942,168.065077 601.022024,166.973677 L609.568898,160.275045 Z" id="Fill-87" fill="#0081A3" mask="url(#mask-2)"></path>
                        <path d="M612.137282,156.232542 C620.203956,156.679804 614.809252,170.250622 609.783616,170.250622 C604.758666,170.250622 605.587354,155.869657 612.137282,156.232542" id="Fill-88" fill="#966259" mask="url(#mask-2)"></path>
                        <path d="M610.429623,165.569811 C610.301341,165.569811 610.171001,165.545802 610.044777,165.496411 C609.507639,165.283756 609.244215,164.67666 609.456189,164.139535 C610.043405,162.65438 611.254881,159.561279 613.931653,160.560757 C614.473593,160.762437 614.747307,161.365416 614.544937,161.906658 C614.342567,162.447213 613.738201,162.722292 613.199691,162.519241 C612.975369,162.436237 612.453323,162.242104 611.402371,164.907151 C611.241161,165.318741 610.844653,165.569811 610.429623,165.569811" id="Fill-89" fill="#6B4744" mask="url(#mask-2)"></path>
                        <path d="M537.384,158.544994 C527.904852,159.070457 534.244864,175.018209 540.149266,175.018209 C546.05504,175.018209 545.081606,158.118312 537.384,158.544994" id="Fill-90" fill="#966259" mask="url(#mask-2)"></path>
                        <path d="M540.229185,167.823748 C539.854629,167.823748 539.493107,167.622069 539.305143,167.268101 C538.729589,166.186305 537.631989,164.87539 536.975487,164.724473 C536.506949,165.063349 535.775673,164.971427 535.436789,164.504958 C535.097219,164.037804 535.121915,163.395037 535.588395,163.055475 C536.135137,162.659662 536.778605,162.530011 537.445397,162.685729 C539.465667,163.152198 541.084627,166.158865 541.152541,166.287144 C541.422825,166.79683 541.229373,167.429994 540.719675,167.700957 C540.563267,167.783961 540.395197,167.823748 540.229185,167.823748" id="Fill-91" fill="#6B4744" mask="url(#mask-2)"></path>
                        <path d="M567.123883,222.847814 C567.123883,222.847814 558.184617,211.574356 551.529045,214.458918 C544.872101,217.342108 506.828599,244.295785 499.699687,248.564662 C494.193165,251.8615 471.484507,254.899723 460.404235,256.220242 C457.136131,256.609194 454.499147,257.029703 453.812461,256.332743 C449.600421,252.058378 440.235149,247.301766 438.465955,249.045537 C436.696075,250.789994 438.157941,252.651754 441.537177,254.836612 C444.915727,257.021471 439.797481,257.889926 437.791617,257.875521 C435.784381,257.861801 425.783187,259.236513 425.761094,262.263759 C425.739283,265.289634 428.289831,269.996855 429.975333,271.706327 C430.889771,272.634463 432.852417,274.419393 439.055229,275.092343 C444.275689,275.660337 453.312367,275.155453 459.178353,275.532744 C480.281771,276.893736 510.456853,265.384986 516.960133,262.345391 C523.462727,259.306483 567.123883,222.847814 567.123883,222.847814" id="Fill-92" fill="#966259" mask="url(#mask-2)"></path>
                        <path d="M662.626608,265.49735 C658.260218,256.069874 639.940588,238.467529 628.119436,225.649235 C625.002252,229.18068 612.93414,235.671459 611.400244,239.198102 C611.400244,239.198102 629.905094,255.807828 637.025088,272.324947 C647.239628,296.022944 662.156698,313.345408 666.31866,325.352183 C670.428486,337.211471 673.399552,324.485099 673.32272,320.852815 C673.0003,305.674051 664.80603,270.203199 662.626608,265.49735" id="Fill-93" fill="#966259" mask="url(#mask-2)"></path>
                        <path d="M672.454381,320.966071 C677.648773,322.144591 682.057009,327.79847 682.550929,330.779755 C683.642355,337.372746 680.843475,346.514166 678.720991,346.316603 C676.987469,346.154711 675.008359,338.36262 674.275711,337.393325 C673.436047,336.281346 670.086309,334.426445 668.628559,333.586115 C667.361517,332.856914 668.214901,336.748501 666.823693,338.530001 C666.021073,339.557604 664.059113,340.003494 663.489047,339.493808 C662.960827,339.021851 664.155153,337.667033 664.305387,335.755882 C664.521477,333.013319 663.207787,330.352387 664.363697,327.170108 C665.788519,323.249025 671.139319,320.667668 672.454381,320.966071" id="Fill-94" fill="#966259" mask="url(#mask-2)"></path>
                        <path d="M616.172197,246.463013 L618.661005,249.608935 C625.972393,247.254639 632.804267,237.281806 636.247301,234.247699 C630.708537,227.263698 624.398709,220.981458 617.703349,217.904821 C603.295291,211.284391 593.359267,209.262796 585.898331,209.262796 C593.386707,245.09722 558.611995,240.65273 564.947205,210.254729 C559.775451,211.416786 542.142507,213.373212 530.376235,222.001516 C524.027991,226.656602 520.123279,230.273795 513.697517,237.94378 C517.301761,242.793686 532.170125,251.768412 534.035359,252.261635 C534.804365,250.721601 537.476335,248.146418 537.839915,247.216224 C537.809731,250.200939 543.963837,309.679167 543.963837,309.679167 C550.239365,313.313509 599.301399,311.782394 616.263435,305.495352 C616.263435,298.911965 615.119187,257.674733 616.172197,246.463013" id="Fill-95" fill="#7A9C49" mask="url(#mask-2)"></path>
                        <path d="M493.086098,356.013739 L483.73729,356.013739 C482.654096,356.013739 481.776016,355.134994 481.776016,354.052511 C481.776016,352.969343 482.654096,352.091283 483.73729,352.091283 L493.086098,352.091283 C494.168606,352.091283 495.047372,352.969343 495.047372,354.052511 C495.047372,355.134994 494.168606,356.013739 493.086098,356.013739" id="Fill-96" fill="#453E80" mask="url(#mask-2)"></path>
                        <path d="M485.637922,432.443656 C485.401252,432.443656 485.161838,432.401125 484.927912,432.309889 L475.379478,428.596659 C474.370372,428.204276 473.869592,427.068287 474.26267,426.058519 C474.654376,425.049436 475.78902,424.54661 476.80087,424.941737 L486.349304,428.654967 C487.35841,429.04735 487.85919,430.183339 487.466112,431.193108 C487.164958,431.968955 486.423392,432.443656 485.637922,432.443656" id="Fill-97" fill="#453E80" mask="url(#mask-2)"></path>
                        <path d="M481.308233,482.250472 C480.998847,482.250472 480.686031,482.177072 480.393795,482.022726 L470.117515,476.598651 C469.159173,476.093081 468.792163,474.907015 469.298431,473.948696 C469.803327,472.989691 470.990107,472.623375 471.947763,473.131003 L482.224729,478.555077 C483.182385,479.060647 483.550081,480.247399 483.043127,481.205033 C482.692581,481.870437 482.011383,482.250472 481.308233,482.250472" id="Fill-98" fill="#453E80" mask="url(#mask-2)"></path>
                        <path d="M669.554248,348.461194 C669.468498,348.461194 669.382748,348.455706 669.297684,348.444045 L657.906654,346.95546 C656.831692,346.815519 656.075034,345.831132 656.214978,344.757568 C656.355608,343.681945 657.35854,342.923933 658.414294,343.067303 L669.804638,344.555888 C670.8796,344.695829 671.636258,345.680216 671.496314,346.75378 C671.367346,347.741597 670.52288,348.461194 669.554248,348.461194" id="Fill-99" fill="#453E80" mask="url(#mask-2)"></path>
                        <path d="M664.812547,411.850765 C663.868611,411.850765 663.035807,411.166153 662.880085,410.203031 C662.707213,409.134269 663.432315,408.126558 664.502475,407.95369 L675.711715,406.137205 C676.775015,405.964337 677.787551,406.689422 677.960423,407.758871 C678.133295,408.82832 677.406821,409.835344 676.337347,410.008212 L665.128793,411.824697 C665.023149,411.841847 664.916819,411.850765 664.812547,411.850765" id="Fill-100" fill="#453E80" mask="url(#mask-2)"></path>
                        <path d="M672.58431,482.250472 C671.872928,482.250472 671.186242,481.862205 670.839126,481.185139 C670.343148,480.221332 670.723878,479.039382 671.687708,478.544788 L682.158126,473.168046 C683.120584,472.672766 684.302562,473.052115 684.79854,474.015922 C685.293146,474.97973 684.913102,476.16168 683.948586,476.656274 L673.478854,482.033015 C673.192106,482.181188 672.88615,482.250472 672.58431,482.250472" id="Fill-101" fill="#453E80" mask="url(#mask-2)"></path>
                        <path d="M482.055836,509 C481.837688,509 481.617482,508.989024 481.395218,508.966387 C477.803322,508.606245 475.182802,505.402015 475.54501,501.809518 L493.848176,319.503142 C494.208326,315.910644 497.414004,313.29293 501.005214,313.652385 C504.596424,314.013213 507.216944,317.216757 506.855422,320.809255 L488.552256,503.116317 C488.214744,506.485869 485.37196,509 482.055836,509" id="Fill-102" fill="#222B54" mask="url(#mask-2)"></path>
                        <path d="M672.391406,509 C669.074596,509 666.23387,506.485869 665.8943,503.116317 L647.591134,320.809255 C647.230984,317.216757 649.850818,314.013213 653.4434,313.652385 C657.029122,313.286756 660.236858,315.912016 660.600438,319.503142 L678.903604,501.809518 C679.263754,505.402015 676.64392,508.606245 673.052024,508.966387 C672.831132,508.989024 672.609554,509 672.391406,509" id="Fill-103" fill="#222B54" mask="url(#mask-2)"></path>
                        <path d="M683.986384,485.772176 C682.996486,485.772176 682.145846,485.023082 682.040202,484.015371 L666.492698,336.172823 C666.378822,335.095828 667.160862,334.131335 668.23651,334.017462 C669.328622,333.917994 670.280104,334.686296 670.392608,335.763291 L685.939426,483.605839 C686.053302,484.682834 685.271262,485.647327 684.195614,485.7612 C684.124956,485.76806 684.05567,485.772176 683.986384,485.772176" id="Fill-104" fill="#453E80" mask="url(#mask-2)"></path>
                        <path d="M470.094397,485.772176 C470.025797,485.772176 469.956511,485.76806 469.887225,485.7612 C468.809519,485.647327 468.028165,484.682834 468.141355,483.605839 L483.687487,335.763291 C483.800677,334.68561 484.778227,333.913192 485.843585,334.017462 C486.920605,334.131335 487.701959,335.095828 487.588769,336.172823 L472.042637,484.015371 C471.936993,485.023082 471.084981,485.772176 470.094397,485.772176" id="Fill-105" fill="#453E80" mask="url(#mask-2)"></path>
                        <path d="M655.522049,372.126676 L501.502701,372.126676 C499.698521,372.126676 498.234597,370.662786 498.234597,368.857963 C498.234597,367.053139 499.698521,365.58925 501.502701,365.58925 L655.522049,365.58925 C657.326915,365.58925 658.790839,367.053139 658.790839,368.857963 C658.790839,370.662786 657.326915,372.126676 655.522049,372.126676" id="Fill-106" fill="#222B54" mask="url(#mask-2)"></path>
                        <polygon id="Fill-107" fill="#030440" mask="url(#mask-2)" points="644.02956 434.427384 517.533904 434.427384 521.316508 408.071885 639.799684 408.071885"></polygon>
                        <path d="M650.554586,478.348116 L511.70064,478.348116 C510.752588,478.348116 509.851184,477.936526 509.230354,477.219673 C508.61021,476.503506 508.330322,475.554104 508.464778,474.615678 L523.70907,368.39314 C523.964948,366.606152 525.613406,365.362464 527.407982,365.622452 C529.195012,365.878324 530.434614,367.534289 530.178736,369.321276 L515.470896,471.81069 L646.71916,471.81069 L630.44724,370.421594 C630.160492,368.639408 631.374026,366.962864 633.155568,366.676123 C634.936424,366.393497 636.615752,367.602201 636.901128,369.385759 L653.780844,474.561485 C653.933822,475.506771 653.662852,476.471264 653.041336,477.199779 C652.421878,477.928294 651.512242,478.348116 650.554586,478.348116" id="Fill-108" fill="#222B54" mask="url(#mask-2)"></path>
                        <path d="M542.500256,322.866452 C542.500256,322.866452 526.257148,367.46912 544.832656,368.080332 C581.274348,369.279431 637.299282,369.874179 636.246958,362.132852 C632.390952,333.785256 616.263092,305.495283 616.263092,305.495283 L543.96418,309.679099 L542.500256,322.866452 Z" id="Fill-109" fill="#0081A3" mask="url(#mask-2)"></path>
                        <path d="M637.024882,386.571163 C640.57356,366.504764 629.47751,329.70722 622.28137,329.899907 C615.120216,330.092742 608.627226,335.870098 601.385124,345.130194 C596.410252,351.490636 596.790296,359.980372 600.800652,366.989069 C600.873368,367.115976 600.921388,367.253858 600.941282,367.402031 C601.551822,371.83966 600.094758,377.516176 599.104174,384.896676 C596.461702,404.585784 605.473684,436.690513 598.79616,457.988939 C598.594476,458.631706 611.961872,459.866477 611.769106,457.331081 C610.18033,436.515587 631.333826,418.74792 637.024882,386.571163" id="Fill-110" fill="#0081A3" mask="url(#mask-2)"></path>
                        <path d="M596.040361,473.065903 C595.169141,473.065903 595.054579,470.074328 596.818971,464.423193 C598.101791,460.315522 598.692437,456.331328 598.920189,455.348313 C599.433317,453.138759 604.431513,448.95563 607.190605,448.95563 C610.132859,448.95563 611.579633,452.448659 612.727997,454.278178 C612.856965,454.483973 614.043745,462.384449 617.275491,464.247581 C622.327881,467.160269 620.985379,472.303089 621.008017,473.065903 L596.040361,473.065903 Z" id="Fill-111" fill="#A05FA6" mask="url(#mask-2)"></path>
                        <path d="M615.113082,464.257802 C616.533788,465.015129 617.41324,466.436487 616.395902,467.295339 C614.877098,468.577443 601.884258,468.645355 600.263926,467.295339 C598.64428,465.945323 602.988718,463.005196 605.798574,462.772647 C610.287072,462.40153 613.594278,463.447656 615.113082,464.257802" id="Fill-112" fill="#171615" mask="url(#mask-2)"></path>
                        <path d="M620.903196,475.001818 L595.844302,475.001818 C595.148012,475.001818 594.583434,474.437254 594.583434,473.74098 C594.583434,473.045392 595.148012,472.480828 595.844302,472.480828 L620.903196,472.480828 C621.599486,472.480828 622.16475,473.045392 622.16475,473.74098 C622.16475,474.437254 621.599486,475.001818 620.903196,475.001818" id="Fill-113" fill="#0081A3" mask="url(#mask-2)"></path>
                        <path d="M602.05027,455.404495 C601.75529,455.404495 601.465798,455.263182 601.28881,455.000451 C601.006864,454.581315 601.118682,454.011948 601.537828,453.730695 C604.215972,451.925871 608.693494,452.278467 610.479152,453.304013 C610.91682,453.555083 611.068426,454.11416 610.816664,454.552503 C610.564902,454.991533 610.010614,455.141763 609.566772,454.890693 C608.188598,454.099068 604.49929,453.944036 602.559282,455.248777 C602.40356,455.354418 602.224514,455.404495 602.05027,455.404495" id="Fill-114" fill="#FFFFFF" mask="url(#mask-2)"></path>
                        <path d="M602.616974,458.717385 C602.292496,458.717385 601.981052,458.545889 601.812982,458.244057 C601.570824,457.800911 601.730662,457.244578 602.173132,457.000368 C605.035124,455.420547 609.69718,455.958358 611.523998,457.0086 C611.963038,457.25967 612.114644,457.818747 611.863568,458.25709 C611.61112,458.695434 611.05203,458.847722 610.614362,458.59528 C609.31302,457.850988 605.321186,457.352278 603.057386,458.602826 C602.916756,458.680342 602.766522,458.717385 602.616974,458.717385" id="Fill-115" fill="#FFFFFF" mask="url(#mask-2)"></path>
                        <path d="M603.357923,462.115955 C603.034131,462.115955 602.722687,461.944459 602.554617,461.642626 C602.311773,461.199481 602.471611,460.643148 602.914767,460.398938 C605.773329,458.821175 610.435385,459.357614 612.264947,460.406483 C612.704673,460.657554 612.855593,461.21663 612.604517,461.65566 C612.352069,462.092632 611.793665,462.246292 611.355997,461.994536 C610.053969,461.248872 606.062821,460.750161 603.799021,462.001396 C603.658391,462.078912 603.507471,462.115955 603.357923,462.115955" id="Fill-116" fill="#FFFFFF" mask="url(#mask-2)"></path>
                        <path d="M604.926256,464.774142 C604.601778,464.774142 604.29102,464.602646 604.122264,464.300814 C603.880106,463.857668 604.039944,463.301335 604.482414,463.057125 C607.344406,461.477304 612.006462,462.015115 613.834652,463.065357 C614.27232,463.316427 614.423926,463.875504 614.17285,464.313847 C613.920402,464.752191 613.3668,464.905165 612.922272,464.652037 C611.62436,463.905687 607.631154,463.407663 605.367354,464.659583 C605.226724,464.737099 605.075804,464.774142 604.926256,464.774142" id="Fill-117" fill="#FFFFFF" mask="url(#mask-2)"></path>
                        <path d="M544.599073,327.599534 C534.208917,325.41056 525.889795,357.433657 527.098527,380.750933 C527.991699,397.983533 544.468733,435.746257 541.188281,457.432949 C540.808237,459.94708 552.733661,459.706986 552.816667,458.129909 C554.871923,419.229824 562.443991,420.190887 567.101931,391.256089 C568.285281,383.903715 564.829213,372.24885 565.439067,367.811906 C565.478855,367.525165 565.568035,367.277525 565.699747,367.062812 C569.215497,361.314267 570.014687,354.291851 566.647113,348.456187 C560.524563,337.848133 551.201823,328.990023 544.599073,327.599534" id="Fill-118" fill="#0081A3" mask="url(#mask-2)"></path>
                        <path d="M556.689137,473.065903 C557.560357,473.065903 557.674919,470.074328 555.910527,464.423193 C554.627707,460.315522 554.559793,456.331328 554.331355,455.348313 C553.818227,453.138759 548.820031,448.95563 546.061625,448.95563 C543.119371,448.95563 541.672597,452.448659 540.524919,454.278178 C540.395265,454.483973 538.685753,462.384449 535.454007,464.247581 C530.400931,467.160269 531.744119,472.303089 531.721481,473.065903 L556.689137,473.065903 Z" id="Fill-119" fill="#A05FA6" mask="url(#mask-2)"></path>
                        <path d="M537.616485,464.257802 C536.195779,465.015129 535.316327,466.436487 536.333665,467.295339 C537.852469,468.577443 550.845309,468.645355 552.465641,467.295339 C554.085287,465.945323 549.740849,463.005196 546.930993,462.772647 C542.442495,462.40153 539.135289,463.447656 537.616485,464.257802" id="Fill-120" fill="#171615" mask="url(#mask-2)"></path>
                        <path d="M556.884098,475.001818 L531.826576,475.001818 C531.130286,475.001818 530.565708,474.437254 530.565708,473.74098 C530.565708,473.045392 531.130286,472.480828 531.826576,472.480828 L556.884098,472.480828 C557.580388,472.480828 558.144966,473.045392 558.144966,473.74098 C558.144966,474.437254 557.580388,475.001818 556.884098,475.001818" id="Fill-121" fill="#0081A3" mask="url(#mask-2)"></path>
                        <path d="M550.679983,455.404495 C550.504367,455.404495 550.326693,455.354418 550.170285,455.248777 C548.230277,453.94335 544.540969,454.099068 543.162109,454.891379 C542.720325,455.141763 542.164665,454.990161 541.912217,454.552503 C541.661141,454.11416 541.812747,453.554397 542.251101,453.303327 C544.034701,452.279153 548.512909,451.925871 551.191739,453.730695 C551.610885,454.011948 551.723389,454.581315 551.440071,455.000451 C551.263769,455.262496 550.974963,455.404495 550.679983,455.404495" id="Fill-122" fill="#FFFFFF" mask="url(#mask-2)"></path>
                        <path d="M550.11321,458.717385 C549.963662,458.717385 549.812742,458.680342 549.671426,458.602826 C547.404196,457.351592 543.413048,457.850302 542.115822,458.59528 C541.679526,458.847722 541.119064,458.696806 540.866616,458.25709 C540.614168,457.818747 540.76646,457.25967 541.204814,457.0086 C543.029574,455.958358 547.690944,455.419861 550.556366,457.000368 C550.998836,457.244578 551.15936,457.800911 550.915144,458.244057 C550.749132,458.545889 550.43563,458.717385 550.11321,458.717385" id="Fill-123" fill="#FFFFFF" mask="url(#mask-2)"></path>
                        <path d="M549.372947,462.115955 C549.223399,462.115955 549.071793,462.078912 548.931163,462.001396 C546.665305,460.750161 542.672099,461.249558 541.374873,461.994536 C540.934461,462.242862 540.378115,462.09469 540.125667,461.65566 C539.873905,461.217316 540.025511,460.657554 540.464551,460.406483 C542.293427,459.357614 546.954797,458.821175 549.816103,460.398938 C550.258573,460.643148 550.419097,461.199481 550.174881,461.642626 C550.008869,461.944459 549.695367,462.115955 549.372947,462.115955" id="Fill-124" fill="#FFFFFF" mask="url(#mask-2)"></path>
                        <path d="M547.803997,464.774142 C547.654449,464.774142 547.502843,464.737099 547.362213,464.659583 C545.095669,463.408349 541.103835,463.907745 539.805923,464.652723 C539.366197,464.903107 538.809851,464.752191 538.556717,464.313847 C538.304955,463.875504 538.456561,463.315741 538.895601,463.064671 C540.724477,462.015801 545.386533,461.479362 548.247153,463.057125 C548.689623,463.301335 548.850147,463.857668 548.605931,464.300814 C548.439919,464.602646 548.126417,464.774142 547.803997,464.774142" id="Fill-125" fill="#FFFFFF" mask="url(#mask-2)"></path>
                        <path d="M565.601169,268.353169 C558.075749,273.018545 553.681919,272.98699 546.534485,268.353169 L546.534485,249.286935 C553.866453,252.080261 558.132687,253.953682 565.601169,249.286935 L565.601169,268.353169 Z" id="Fill-126" fill="#A05FA6" mask="url(#mask-2)"></path>
                    </g>
                    <g id="Group-130" transform="translate(608.000000, 161.349000)">
                        <mask id="mask-4" fill="white">
                            <use xlink:href="#path-3"></use>
                        </mask>
                        <g id="Clip-129"></g>
                        <path d="M2.77266667,0.6006 C1.254,0.868 0.218666667,2.3744 0.461333333,3.9634 L0.461333333,3.9634 C0.702,5.5531 2.13,6.6248 3.64933333,6.356 L3.64933333,6.356 C5.168,6.0879 6.20266667,4.5822 5.96133333,2.9932 L5.96133333,2.9932 C5.744,1.568 4.574,0.5593 3.24,0.5593 L3.24,0.5593 C3.086,0.5593 2.93,0.5726 2.77266667,0.6006" id="Fill-128" fill="url(#linearGradient-5)" mask="url(#mask-4)"></path>
                    </g>
                    <g id="Group-146" transform="translate(608.000000, 161.349000)">
                        <path d="M3.63753333,6.2804 C2.1582,6.5415 0.768866667,5.4985 0.533533333,3.9508 C0.297533333,2.4031 1.30553333,0.9373 2.7842,0.6762 C4.26286667,0.4151 5.65286667,1.4581 5.88886667,3.0058 C6.12353333,4.5535 5.1162,6.0193 3.63753333,6.2804" id="Fill-131" fill="#E9B68B"></path>
                        <g id="Group-145" transform="translate(0.000000, 0.700000)" fill="#000000">
                            <path d="M5.4754,3.18451 C5.35473333,3.16981 5.2694,3.05501 5.28473333,2.92831 C5.30006667,2.80161 5.41006667,2.71131 5.53073333,2.72601 C5.65206667,2.74071 5.7374,2.85621 5.7214,2.98221 C5.70673333,3.10891 5.59606667,3.19921 5.4754,3.18451" id="Fill-133"></path>
                            <path d="M4.6968,0.92267 C4.62346667,1.02487 4.48546667,1.04587 4.38813333,0.96957 C4.29146667,0.89327 4.27213333,0.74907 4.3468,0.64687 C4.42013333,0.54467 4.55813333,0.52367 4.6548,0.59997 C4.75146667,0.67627 4.77013333,0.82047 4.6968,0.92267" id="Fill-135"></path>
                            <path d="M2.43246667,0.51646 C2.47913333,0.63336 2.42646667,0.76916 2.3138,0.81956 C2.2018,0.86996 2.07313333,0.81606 2.02646667,0.69846 C1.97913333,0.58156 2.0318,0.44576 2.1438,0.39536 C2.2558,0.34566 2.38513333,0.39956 2.43246667,0.51646" id="Fill-137"></path>
                            <path d="M0.946133333,2.37209 C1.06746667,2.38679 1.1528,2.50159 1.1368,2.62829 C1.12213333,2.75499 1.01146667,2.84529 0.8908,2.83059 C0.770133333,2.81589 0.6848,2.70039 0.700133333,2.57439 C0.715466667,2.44769 0.825466667,2.35739 0.946133333,2.37209" id="Fill-139"></path>
                            <path d="M1.7248,4.63393 C1.79813333,4.53173 1.9368,4.51073 2.03346667,4.58703 C2.13013333,4.66333 2.14946667,4.80753 2.07546667,4.90973 C2.00213333,5.01193 1.86413333,5.03293 1.7668,4.95663 C1.67013333,4.88103 1.65146667,4.73613 1.7248,4.63393" id="Fill-141"></path>
                            <path d="M3.98973333,5.04014 C3.94306667,4.92324 3.99573333,4.78744 4.10773333,4.73704 C4.21973333,4.68664 4.3484,4.74054 4.39573333,4.85814 C4.44306667,4.97504 4.3904,5.11084 4.27773333,5.16124 C4.16573333,5.21094 4.0364,5.15704 3.98973333,5.04014" id="Fill-143"></path>
                        </g>
                    </g>
                    <g id="Group-149" transform="translate(611.000000, 164.349000)">
                        <mask id="mask-7" fill="white">
                            <use xlink:href="#path-6"></use>
                        </mask>
                        <g id="Clip-148"></g>
                        <path d="M1.558,0.0888 L0.628,0.2082 C0.531333333,0.2208 0.456,0.2898 0.443333333,0.3768 L0.443333333,0.3768 L0.222,1.9404 C0.21,2.028 0.264666667,2.1108 0.354666667,2.1432 L0.354666667,2.1432 L1.22333333,2.4534 C1.354,2.5002 1.5,2.4222 1.51733333,2.2968 L1.51733333,2.2968 L1.79933333,0.303 C1.81666667,0.1866 1.71533333,0.087 1.58933333,0.087 L1.58933333,0.087 C1.57866667,0.087 1.56866667,0.0876 1.558,0.0888" id="Fill-147" fill="url(#linearGradient-8)" mask="url(#mask-7)"></path>
                    </g>
                    <g id="Group-156" transform="translate(606.000000, 156.349000)">
                        <path d="M6.69136154,7.9068 L6.39851538,10.1913625 C6.38328462,10.3123625 6.27320769,10.3928 6.15828462,10.38455 C6.28220769,10.4072375 6.40613077,10.3233625 6.42205385,10.1941125 L6.7149,7.90955 C6.73220769,7.7803 6.63320769,7.6703 6.50720769,7.663425 C6.62143846,7.6819875 6.70659231,7.7858 6.69136154,7.9068" id="Fill-150" fill="#000000"></path>
                        <path d="M6.14035385,10.3764375 L5.23827692,10.021 C5.14481538,9.983875 5.08804615,9.889 5.1012,9.7893125 L5.33035385,7.9976875 C5.34350769,7.898 5.42243077,7.81825 5.52212308,7.8045 L6.48789231,7.667 C6.50243077,7.6649375 6.51766154,7.665625 6.53150769,7.6663125 C6.51004615,7.662875 6.4872,7.6615 6.46435385,7.66425 L5.49858462,7.8010625 C5.3982,7.8155 5.31927692,7.8945625 5.30681538,7.99425 L5.07696923,9.7865625 C5.06381538,9.88625 5.12058462,9.981125 5.21473846,10.01825 L6.11681538,10.3736875 C6.13827692,10.382625 6.16043077,10.3860625 6.18327692,10.3874375 C6.16873846,10.3846875 6.15489231,10.3819375 6.14035385,10.3764375" id="Fill-152" fill="#FFFFFF"></path>
                        <path d="M3.95861538,8.8576125 L1.16446154,9.5863625 C0.865384615,9.66405 0.571846154,9.448175 0.561461538,9.14155 C0.486692308,7.124425 0.670846154,0.6172375 6.08330769,0.12155 C6.05353846,0.1243 7.61123077,-0.003575 8.36030769,0.53955" id="Stroke-154" stroke="#A05FA6" stroke-width="1.15"></path>
                    </g>
                    <g id="Group-159" transform="translate(608.000000, 163.349000)">
                        <mask id="mask-10" fill="white">
                            <use xlink:href="#path-9"></use>
                        </mask>
                        <g id="Clip-158"></g>
                        <path d="M0.26925,0.56925 C-0.1005,1.1025 0.0315,1.83 0.56325,2.193 L0.56325,2.193 C1.09425,2.55525 1.824,2.41725 2.193,1.884 L2.193,1.884 C2.56125,1.35 2.43,0.62325 1.8975,0.2595 L1.8975,0.2595 C1.698,0.123 1.46925,0.05775 1.24275,0.05775 L1.24275,0.05775 C0.8685,0.05775 0.49875,0.237 0.26925,0.56925" id="Fill-157" fill="url(#linearGradient-11)" mask="url(#mask-10)"></path>
                    </g>
                    <g id="Group-162" transform="translate(608.000000, 163.349000)">
                        <mask id="mask-13" fill="white">
                            <use xlink:href="#path-12"></use>
                        </mask>
                        <g id="Clip-161"></g>
                        <path d="M1.03425,0.14475 C0.816,0.18525 0.60975,0.29175 0.44775,0.45675 L0.44775,0.45675 C0.195,0.71325 0.08025,1.0815 0.144,1.4325 L0.144,1.4325 C0.16575,1.5495 0.207,1.66425 0.26475,1.77 L0.26475,1.77 C0.492,2.17575 0.9675,2.3955 1.4265,2.3085 L1.4265,2.3085 C1.779,2.24175 2.08425,2.00325 2.2335,1.677 L2.2335,1.677 C2.33025,1.46775 2.35575,1.23825 2.31675,1.02075 L2.31675,1.02075 C2.2335,0.5625 1.85625,0.1995 1.3935,0.135 L1.3935,0.135 C1.34325,0.1275 1.29225,0.1245 1.242,0.1245 L1.242,0.1245 C1.17225,0.1245 1.1025,0.13125 1.03425,0.14475" id="Fill-160" mask="url(#mask-13)"></path>
                    </g>
                    <path d="M614.011456,157.846638 C614.011456,157.846638 615.098056,158.267464 615.758964,159.675839 C616.421227,161.084215 616.33175,161.767653 616.317515,162.196909 C616.30667,162.543167 616.682878,162.212471 616.931651,162.04842 C616.990624,162.009515 617.014349,161.925868 616.991302,161.838979 C616.861832,161.341639 616.478167,159.717338 615.844373,158.899677 C615.094667,157.930933 614.158551,157.333735 614.026369,157.349297 C613.977564,157.687774 614.011456,157.846638 614.011456,157.846638" id="Fill-163" fill="#666970"></path>
                    <g id="Group-167" transform="translate(617.000000, 160.349000)">
                        <mask id="mask-15" fill="white">
                            <use xlink:href="#path-14"></use>
                        </mask>
                        <g id="Clip-166"></g>
                        <path d="M0.255,0.535 C0.2335,0.5415 0.2095,0.549 0.188,0.5555 L0.188,0.5555 C0.207,0.6125 0.226,0.67 0.246,0.727 L0.246,0.727 C0.266,0.7885 0.2865,0.85 0.3075,0.9115 L0.3075,0.9115 C0.329,0.905 0.3535,0.8975 0.375,0.891 L0.375,0.891 C0.3775,0.89 0.3775,0.89 0.3805,0.889 L0.3805,0.889 C0.36,0.8275 0.339,0.766 0.318,0.7045 L0.318,0.7045 C0.299,0.6475 0.28,0.59 0.2605,0.533 L0.2605,0.533 L0.255,0.535 Z" id="Fill-165" mask="url(#mask-15)"></path>
                    </g>
                    <g id="Group-170" transform="translate(616.000000, 159.349000)">
                        <mask id="mask-17" fill="white">
                            <use xlink:href="#path-16"></use>
                        </mask>
                        <g id="Clip-169"></g>
                        <path d="M0.444,0.2115 C0.4235,0.2205 0.3995,0.2305 0.379,0.239 L0.379,0.239 C0.401,0.295 0.4235,0.3515 0.445,0.407 L0.445,0.407 C0.4695,0.4675 0.493,0.528 0.5165,0.5885 L0.5165,0.5885 C0.5375,0.5795 0.561,0.57 0.5815,0.561 L0.5815,0.561 C0.5835,0.56 0.5835,0.56 0.587,0.5585 L0.587,0.5585 C0.563,0.4985 0.539,0.4375 0.516,0.3775 L0.516,0.3775 C0.4935,0.3215 0.4715,0.2655 0.449,0.209 L0.449,0.209 C0.4465,0.2105 0.4465,0.2105 0.444,0.2115" id="Fill-168" mask="url(#mask-17)"></path>
                    </g>
                    <g id="Group-173" transform="translate(613.000000, 156.349000)">
                        <mask id="mask-19" fill="white">
                            <use xlink:href="#path-18"></use>
                        </mask>
                        <g id="Clip-172"></g>
                        <path d="M0.542666667,0.0293333333 L0.535333333,0.867333333 C0.535333333,0.867333333 1.314,1.10733333 2.01666667,2.564 L2.01666667,2.564 C2.41733333,3.394 2.734,4.33333333 2.75066667,5.228 L2.75066667,5.228 C2.754,5.398 2.74733333,5.54133333 2.746,5.666 L2.746,5.666 C2.74266667,5.98333333 3.258,5.704 3.62466667,5.464 L3.62466667,5.464 C3.82866667,5.332 3.98533333,5.212 3.98533333,5.212 L3.98533333,5.212 C3.98533333,5.212 3.974,5.19866667 3.944,5.09666667 L3.944,5.09666667 C3.84733333,4.76733333 3.60066667,3.93333333 3.27866667,3.142 L3.27866667,3.142 C3.04933333,2.57866667 2.78,2.01466667 2.49466667,1.61733333 L2.49466667,1.61733333 C2.19,1.192 1.85733333,0.86 1.55333333,0.611333333 L1.55333333,0.611333333 C1.37466667,0.465333333 1.20666667,0.348 1.05933333,0.258666667 L1.05933333,0.258666667 C0.804666667,0.102666667 0.615333333,0.0293333333 0.550666667,0.0293333333 L0.550666667,0.0293333333 C0.548,0.0293333333 0.545333333,0.0293333333 0.542666667,0.0293333333" id="Fill-171" mask="url(#mask-19)"></path>
                    </g>
                    <g id="Group-179" transform="translate(613.000000, 156.349000)">
                        <path d="M2.51446667,1.64666667 C1.7058,0.52 0.6818,0.014 0.543133333,0.0293333333 C0.543133333,0.0726666667 0.543133333,0.0686666667 0.542466667,0.107333333 C0.7278,0.122 1.70446667,0.619333333 2.48846667,1.71066667 C3.20713333,2.712 3.81246667,4.79733333 3.94246667,5.24533333 L3.9858,5.21266667 C3.9858,5.21266667 3.3238,2.77333333 2.51446667,1.64666667" id="Fill-174" fill="#666970"></path>
                        <g id="Group-178">
                            <mask id="mask-21" fill="white">
                                <use xlink:href="#path-20"></use>
                            </mask>
                            <g id="Clip-177"></g>
                            <path d="M3.428,5.43333333 C3.428,5.43333333 2.934,3.35066667 2.43133333,2.40266667 C1.70133333,1.02466667 0.562666667,0.361333333 0.562666667,0.361333333 C0.528666667,0.277333333 0.496666667,0.195333333 0.467333333,0.115333333 C0.467333333,0.115333333 1.12266667,0.41 1.55533333,0.78 C2.00066667,1.16 2.61733333,1.868 2.95733333,2.642 C3.514,3.912 3.83933333,5.21 3.83933333,5.21 C3.714,5.328 3.49933333,5.40666667 3.428,5.43333333" id="Fill-176" mask="url(#mask-21)"></path>
                        </g>
                    </g>
                    <g id="Group-182" transform="translate(535.000000, 165.349000)">
                        <mask id="mask-23" fill="white">
                            <use xlink:href="#path-22"></use>
                        </mask>
                        <g id="Clip-181"></g>
                        <path d="M0.2954,2.7979 C0.0098,4.5843 1.2313,6.2762 3.024,6.5779 L3.024,6.5779 C4.8167,6.8796 6.5009,5.6756 6.7865,3.8885 L6.7865,3.8885 C7.0728,2.1021 5.8513,0.4102 4.0579,0.1085 L4.0579,0.1085 C3.8731,0.077 3.689,0.0622996761 3.5077,0.0622996761 L3.5077,0.0622996761 C1.9327,0.0616 0.5516,1.1956 0.2954,2.7979" id="Fill-180" fill="url(#linearGradient-24)" mask="url(#mask-23)"></path>
                    </g>
                    <g id="Group-198" transform="translate(535.000000, 165.349000)">
                        <path d="M3.03807,6.49278 C4.78317,6.78608 6.42327,5.61358 6.70117,3.87478 C6.97977,2.13458 5.79047,0.48678 4.04467,0.19348 C2.29887,-0.09982 0.65947,1.07268 0.38087,2.81218 C0.10297,4.55168 1.29227,6.19948 3.03807,6.49278" id="Fill-183" fill="#E9B68B"></path>
                        <g id="Group-197" fill="#000000">
                            <path d="M0.86835,3.79981 C1.01115,3.78301 1.11195,3.65421 1.09305,3.51211 C1.07555,3.36931 0.94535,3.26781 0.80255,3.28461 C0.66045,3.30141 0.56035,3.43021 0.57785,3.57231 C0.59605,3.71511 0.72625,3.81661 0.86835,3.79981" id="Fill-185"></path>
                            <path d="M1.7878,1.25748 C1.8746,1.37228 2.037,1.39608 2.1518,1.30998 C2.2666,1.22458 2.2883,1.06218 2.2015,0.94738 C2.1147,0.83258 1.9509,0.80878 1.8368,0.89418 C1.7227,0.98028 1.701,1.14268 1.7878,1.25748" id="Fill-187"></path>
                            <path d="M4.46061,0.80087 C4.40461,0.93247 4.46691,1.08507 4.59921,1.14177 C4.73221,1.19847 4.88411,1.13757 4.94011,1.00597 C4.99541,0.87437 4.93311,0.72177 4.80011,0.66507 C4.66781,0.60837 4.51591,0.66927 4.46061,0.80087" id="Fill-189"></path>
                            <path d="M6.21404,2.88652 C6.07194,2.90332 5.97044,3.03212 5.98934,3.17492 C6.00684,3.31702 6.13774,3.41852 6.27984,3.40172 C6.42194,3.38492 6.52204,3.25612 6.50454,3.11402 C6.48634,2.97122 6.35614,2.86972 6.21404,2.88652" id="Fill-191"></path>
                            <path d="M5.29459,5.42878 C5.20779,5.31398 5.04539,5.29018 4.93059,5.37628 C4.81649,5.46168 4.79409,5.62408 4.88089,5.73888 C4.96769,5.85368 5.13149,5.87748 5.24559,5.79208 C5.35969,5.70598 5.38209,5.54358 5.29459,5.42878" id="Fill-193"></path>
                            <path d="M2.62241,5.88539 C2.67771,5.75379 2.61541,5.60119 2.48311,5.54449 C2.35011,5.48779 2.19891,5.54869 2.14291,5.68029 C2.08691,5.81189 2.14921,5.96449 2.28221,6.02119 C2.41451,6.07789 2.56641,6.01699 2.62241,5.88539" id="Fill-195"></path>
                        </g>
                    </g>
                    <g id="Group-201" transform="translate(536.000000, 166.349000)">
                        <mask id="mask-26" fill="white">
                            <use xlink:href="#path-25"></use>
                        </mask>
                        <g id="Clip-200"></g>
                        <path d="M0.70575,0.753333333 L1.0635,3.24333333 C1.08525,3.40066667 1.26975,3.49733333 1.4355,3.43866667 L1.4355,3.43866667 L2.5335,3.052 C2.64825,3.012 2.71725,2.908 2.7015,2.79933333 L2.7015,2.79933333 L2.421,0.846 C2.40675,0.738 2.31,0.651333333 2.18775,0.635333333 L2.18775,0.635333333 L1.0125,0.486 C0.99975,0.484666667 0.98625,0.484 0.9735,0.484 L0.9735,0.484 C0.81375,0.484 0.6855,0.608 0.70575,0.753333333" id="Fill-199" fill="url(#linearGradient-27)" mask="url(#mask-26)"></path>
                    </g>
                    <g id="Group-208" transform="translate(535.000000, 158.349000)">
                        <path d="M2.06356154,8.75053333 L2.3931,11.2398667 C2.41040769,11.3718667 2.53294615,11.4605333 2.66171538,11.4512 C2.52325385,11.4758667 2.38479231,11.3845333 2.3661,11.2432 L2.03656154,8.7532 C2.01856154,8.61253333 2.12933077,8.49253333 2.26986923,8.4852 C2.14179231,8.5052 2.04625385,8.61853333 2.06356154,8.75053333" id="Fill-202" fill="#000000"></path>
                        <path d="M2.68283077,11.4422667 L3.69706154,11.0549333 C3.80229231,11.0142667 3.86529231,10.9109333 3.85075385,10.8022667 L3.59252308,8.84893333 C3.57867692,8.74026667 3.49006154,8.65426667 3.37721538,8.63826667 L2.29236923,8.4896 C2.27506154,8.48693333 2.25913846,8.4876 2.24321538,8.48826667 C2.26744615,8.48426667 2.29306154,8.48293333 2.31936923,8.48626667 L3.40421538,8.6356 C3.51706154,8.65093333 3.60567692,8.7376 3.62021538,8.84626667 L3.87844615,10.7989333 C3.89229231,10.9076 3.8286,11.0116 3.72336923,11.0516 L2.70913846,11.4389333 C2.68490769,11.4489333 2.65998462,11.4529333 2.63575385,11.4542667 C2.65098462,11.4516 2.66690769,11.4482667 2.68283077,11.4422667" id="Fill-204" fill="#FFFFFF"></path>
                        <path d="M5.13498462,9.7868 L8.27598462,10.5808 C8.61106154,10.6654667 8.94129231,10.4308 8.95444615,10.0961333 C9.03752308,7.89746667 8.83121538,0.8048 2.74652308,0.2648 C2.78044615,0.267466667 1.02890769,0.1288 0.187753846,0.7208" id="Stroke-206" stroke="#A05FA6" stroke-width="1.292"></path>
                    </g>
                    <g id="Group-211" transform="translate(539.000000, 167.349000)">
                        <mask id="mask-29" fill="white">
                            <use xlink:href="#path-28"></use>
                        </mask>
                        <g id="Clip-210"></g>
                        <path d="M0.9024,0.5718 C0.4242,0.8976 0.306,1.5516 0.6378,2.0316 L0.6378,2.0316 C0.9684,2.511 1.6248,2.6358 2.1024,2.3094 L2.1024,2.3094 C2.5806,1.9824 2.6988,1.329 2.367,0.849 L2.367,0.849 C2.1612,0.5502 1.8288,0.3894 1.4916,0.3894 L1.4916,0.3894 C1.2882,0.3894 1.0824,0.4482 0.9024,0.5718" id="Fill-209" fill="url(#linearGradient-30)" mask="url(#mask-29)"></path>
                    </g>
                    <g id="Group-214" transform="translate(539.000000, 167.349000)">
                        <mask id="mask-32" fill="white">
                            <use xlink:href="#path-31"></use>
                        </mask>
                        <g id="Clip-213"></g>
                        <path d="M1.3554,0.459 C0.9396,0.5172 0.6006,0.843 0.5256,1.2552 L0.5256,1.2552 C0.4902,1.4508 0.5136,1.6572 0.6006,1.8462 L0.6006,1.8462 C0.7356,2.139 1.0092,2.3538 1.326,2.4132 L1.326,2.4132 C1.7394,2.4918 2.1672,2.2944 2.3706,1.929 L2.3706,1.929 C2.4234,1.8342 2.4594,1.7316 2.4792,1.6254 L2.4792,1.6254 C2.5362,1.3104 2.433,0.9786 2.2068,0.7488 L2.2068,0.7488 C2.0604,0.6 1.875,0.5046 1.6788,0.4674 L1.6788,0.4674 C1.6176,0.4554 1.5558,0.4494 1.4934,0.4494 L1.4934,0.4494 C1.4472,0.4494 1.401,0.453 1.3554,0.459" id="Fill-212" mask="url(#mask-32)"></path>
                    </g>
                    <path d="M534.988129,159.946067 C534.988129,159.946067 533.901949,160.45071 533.240953,162.141158 C532.579353,163.830915 532.668009,164.650526 532.682483,165.166245 C532.693339,165.58228 532.317005,165.184935 532.068529,164.988339 C532.010028,164.941267 531.985301,164.840892 532.008822,164.737056 C532.137282,164.139653 532.522059,162.190999 533.155916,161.209404 C533.905567,160.047826 534.84218,159.330666 534.974258,159.349357 C535.022506,159.755701 534.988129,159.946067 534.988129,159.946067" id="Fill-215" fill="#666970"></path>
                    <g id="Group-219" transform="translate(531.000000, 162.349000)">
                        <mask id="mask-34" fill="white">
                            <use xlink:href="#path-33"></use>
                        </mask>
                        <g id="Clip-218"></g>
                        <path d="M0.5725,0.701 C0.549,0.7705 0.5255,0.8395 0.5025,0.9085 L0.5025,0.9085 C0.5055,0.9095 0.5055,0.9095 0.509,0.911 L0.509,0.911 C0.533,0.918 0.56,0.9265 0.584,0.934 L0.584,0.934 L0.6545,0.7265 C0.676,0.662 0.697,0.598 0.7185,0.534 L0.7185,0.534 C0.695,0.5265 0.6675,0.518 0.643,0.5105 L0.643,0.5105 L0.637,0.5085 C0.615,0.573 0.5935,0.637 0.5725,0.701" id="Fill-217" mask="url(#mask-34)"></path>
                    </g>
                    <g id="Group-222" transform="translate(532.000000, 162.349000)">
                        <mask id="mask-36" fill="white">
                            <use xlink:href="#path-35"></use>
                        </mask>
                        <g id="Clip-221"></g>
                        <path d="M0.4125,0.2715 C0.3855,0.3395 0.359,0.4075 0.332,0.4755 L0.332,0.4755 C0.3355,0.4765 0.3355,0.4765 0.3385,0.478 L0.3385,0.478 C0.3615,0.488 0.388,0.4985 0.4115,0.5085 L0.4115,0.5085 C0.438,0.4405 0.465,0.3725 0.4915,0.3045 L0.4915,0.3045 L0.566,0.116 C0.5425,0.1065 0.516,0.095 0.493,0.085 L0.493,0.085 C0.49,0.084 0.49,0.084 0.487,0.0825 L0.487,0.0825 C0.4625,0.1455 0.4375,0.2085 0.4125,0.2715" id="Fill-220" mask="url(#mask-36)"></path>
                    </g>
                    <g id="Group-225" transform="translate(531.000000, 158.349000)">
                        <mask id="mask-38" fill="white">
                            <use xlink:href="#path-37"></use>
                        </mask>
                        <g id="Clip-224"></g>
                        <path d="M4.06642857,0.4438 C3.89,0.5495 3.68714286,0.6881 3.47142857,0.8603 L3.47142857,0.8603 C3.10642857,1.1543 2.70571429,1.5463 2.33785714,2.0482 L2.33785714,2.0482 C1.995,2.5165 1.67,3.1829 1.39357143,3.8479 L1.39357143,3.8479 C1.00642857,4.781 0.710714286,5.7652 0.593571429,6.1544 L0.593571429,6.1544 C0.557142857,6.2741 0.542857143,6.2902 0.542857143,6.2902 L0.542857143,6.2902 C0.542857143,6.2902 0.732142857,6.4323 0.977142857,6.5884 L0.977142857,6.5884 C1.41928571,6.8705 2.04071429,7.2009 2.035,6.8257 L2.035,6.8257 C2.03428571,6.6794 2.02642857,6.51 2.03071429,6.3091 L2.03071429,6.3091 C2.05,5.2535 2.43214286,4.1447 2.91428571,3.1647 L2.91428571,3.1647 C3.76142857,1.4455 4.69714286,1.1627 4.69714286,1.1627 L4.69714286,1.1627 L4.68928571,0.1736 C4.68642857,0.1736 4.68357143,0.1736 4.68,0.1736 L4.68,0.1736 C4.60285714,0.1736 4.37428571,0.2604 4.06642857,0.4438" id="Fill-223" mask="url(#mask-38)"></path>
                    </g>
                    <g id="Group-233" transform="translate(426.000000, 158.349000)">
                        <path d="M107.431398,2.03455805 C108.363323,0.735816667 109.542578,0.151759195 109.702453,0.169540805 C109.702453,0.219466092 109.702453,0.214678736 109.703137,0.259816667 C109.489969,0.27623046 108.364006,0.85002931 107.46146,2.10842011 C106.634068,3.2628569 105.936491,5.66747759 105.787547,6.18382816 C105.755435,6.16057529 105.736988,6.14621322 105.736988,6.14621322 C105.736988,6.14621322 106.500155,3.33398333 107.431398,2.03455805" id="Fill-226" fill="#666970"></path>
                        <g id="Group-230" transform="translate(105.900621, 0.000000)">
                            <mask id="mask-40" fill="white">
                                <use xlink:href="#path-39"></use>
                            </mask>
                            <g id="Clip-229"></g>
                            <path d="M0.478944099,6.4006954 C0.478944099,6.4006954 1.04670807,3.99949425 1.62608696,2.90592529 C2.46714286,1.3178908 3.7789441,0.552597701 3.7789441,0.552597701 C3.81857143,0.455482759 3.85478261,0.361103448 3.88826087,0.268091954 C3.88826087,0.268091954 3.13397516,0.607994253 2.63521739,1.03475287 C2.1221118,1.47382184 1.41223602,2.28972414 1.02074534,3.18222414 C0.379192547,4.64647126 0.0047826087,6.14354598 0.0047826087,6.14354598 C0.148944099,6.27964368 0.396273292,6.37060345 0.478944099,6.4006954" id="Fill-228" mask="url(#mask-40)"></path>
                        </g>
                        <path d="M25.1342484,102.708968 C25.1342484,102.708968 26.9912671,102.894307 26.9912671,106.517652 C26.9912671,110.141681 23.8361118,115.716899 21.7010186,117.852744 C19.5659255,119.989957 0.0159875776,114.791572 0.0159875776,114.791572 C0.0159875776,114.791572 7.12840994,114.972807 9.5566087,111.955405 C10.6436273,110.604003 12.6974161,104.288796 14.7395901,104.288796 C16.7810807,104.288796 14.5537516,112.836279 14.5537516,112.836279 C14.5537516,112.836279 18.4536273,101.594198 20.4937516,101.594198 C22.5325093,101.594198 22.7224472,103.638399 21.7939379,107.075721 C20.8647453,110.513727 23.878472,101.717986 25.1342484,102.708968" id="Fill-231" fill="#F4C0B8"></path>
                    </g>
                </g>
            </g>
        </g>
    </g>
</svg>